<svg width="374" height="300" viewBox="0 0 374 300" fill="none" xmlns="http://www.w3.org/2000/svg">
<path fill-rule="evenodd" clip-rule="evenodd" d="M132.894 169.061C134.511 170.327 136.481 171.132 138.545 172.282C138.501 172.354 138.451 172.426 138.415 172.491C138.811 172.519 139.264 172.555 139.422 172.548C139.717 172.548 140.975 172.383 140.651 172.462C140.924 172.397 141.198 172.34 141.464 172.253C141.607 172.174 142.089 171.944 142.341 171.8C142.362 171.779 142.377 171.757 142.406 171.736C142.47 171.664 142.564 171.556 142.643 171.448C142.873 171.017 143.16 170.449 143.009 170.923C143.168 170.456 143.311 169.981 143.398 169.493C143.405 169.464 143.405 169.442 143.412 169.414C143.412 169.349 143.412 169.27 143.419 169.162C143.434 168.874 143.441 168.58 143.441 168.292C143.498 164.51 147.115 163.044 149.89 163.892C150.041 162.662 150.149 161.44 150.199 160.261C150.372 156.235 149.868 151.849 147.712 148.801C147.532 149.067 147.316 149.326 147.072 149.57C145.389 151.253 141.909 151.626 140.292 149.57C139.034 147.974 138.034 146.881 136.366 146.098C136.438 146.162 135.496 145.832 135.468 145.824C135.252 145.774 135.13 145.738 135.058 145.709C135.015 145.709 134.972 145.709 134.914 145.709C134.454 145.688 134.001 145.673 133.548 145.716C134.058 145.616 134.03 145.623 133.462 145.724C132.455 145.939 131.463 146.335 130.514 146.86C125.934 152.288 126.215 158.313 128.76 164.532C129.5 166.329 131.305 167.81 132.894 169.061Z" fill="black"/>
<path fill-rule="evenodd" clip-rule="evenodd" d="M59.6824 138.222C59.704 138.294 60.1928 139.416 59.9556 138.956C60.1353 139.315 60.3151 139.675 60.5236 140.013C62.1916 142.773 64.7296 144.894 68.0656 145.505C67.3179 145.333 70.5819 145.347 69.3309 145.599C69.7263 145.52 70.1217 145.441 70.5028 145.318C70.6034 145.282 70.6682 145.261 70.7257 145.239C70.7688 145.218 70.8048 145.196 70.8552 145.167C71.0996 145.038 71.3297 144.894 71.5669 144.736C71.1715 145.081 71.1858 145.067 71.6172 144.7C71.876 144.448 72.1349 144.197 72.3794 143.924C72.3938 143.859 72.8898 143.154 72.9257 143.111C72.9545 143.054 73.6231 141.774 73.3931 142.299C74.3565 140.013 76.3263 138.359 78.9002 138.862C79.4394 137.007 79.5329 135.066 78.8642 133.082C78.1597 131.004 76.9662 129.149 75.5498 127.46C73.5368 129.473 70.8336 129.063 68.7773 127.46C67.893 126.762 66.8361 126.208 65.7576 125.978C65.5707 125.935 65.4342 125.914 65.3407 125.892C65.1035 125.878 64.8734 125.871 64.629 125.878C64.5787 125.914 63.7157 126.043 63.6726 126.058C63.2124 126.209 62.3714 126.719 61.9544 127.143C61.2354 127.862 61.0269 128.085 60.4661 129.142C59.5099 130.946 59.0427 132.988 59.1433 135.217C59.2008 136.281 59.3229 137.194 59.6824 138.222Z" fill="black"/>
<path fill-rule="evenodd" clip-rule="evenodd" d="M372.134 217.017C369.216 208.404 359.136 203.026 351.055 200.359C346.489 198.849 341.744 197.756 336.934 197.404C331.6 197.009 326.293 197.526 320.98 198.152C314.747 198.892 308.708 200.194 302.827 202.415C302.381 202.588 301.95 202.76 301.504 202.926C297.377 205.176 293.301 207.599 288.98 209.396C284.997 211.05 280.848 212.416 276.649 213.473C273.738 215.141 270.394 216.118 267.087 216.607C263.658 217.103 259.84 217.794 256.461 216.679C254.714 216.104 253.276 214.896 252.478 213.365C251.558 212.186 251.17 210.618 251.709 208.713C252.579 205.593 255.009 202.99 257.223 200.74C263.73 194.097 272.048 188.74 276.959 180.717C279.87 175.965 283.034 170.004 283.501 164.332C283.501 164.303 283.501 164.267 283.508 164.231C282.452 160.636 280.74 157.423 278.591 154.964C272.774 148.27 265.887 142.828 257.417 139.672C255.771 139.053 254.189 138.298 252.377 137.522C252.651 136.587 252.65 136.206 252.837 135.991C261.918 125.508 272.077 116.126 283.127 107.836C291.331 101.682 295.853 93.4353 297.686 83.9235C299.282 75.7058 297.622 67.5528 294.537 59.5508C289.957 47.6592 281.186 40.1028 270.351 34.7466C264.571 31.8923 258.215 30.059 251.967 28.3335C248.775 27.4564 245.216 27.5282 241.866 27.7583C239.285 27.9309 237.775 27.7152 236.546 25.0191C235.237 22.1289 233.26 19.4112 231.089 17.0674C227.451 13.1419 223.461 9.55431 219.557 5.87324C218.752 5.11833 217.788 4.26999 216.76 4.01836C210.785 2.56606 204.825 0.653538 198.75 0.0855599C191.266 -0.604641 184.493 3.01175 178.044 6.2255C170.078 10.1942 162.507 14.9825 154.98 19.7563C145.943 25.5008 137.107 31.5688 128.249 37.5865C125.848 39.2185 123.777 41.3251 121.404 42.9931C114.366 47.9467 107.485 53.0657 101.547 59.3566C99.5409 61.4847 97.6501 63.8645 95.2704 65.4822C86.9807 71.0972 83.9179 79.3365 82.8683 88.7405C82.7317 89.9628 82.3793 91.1633 81.9911 92.9751C76.0165 91.1561 71.0055 93.3419 66.397 96.0883C62.0976 98.6406 58.3085 102.034 54.2823 105.032C49.4869 108.605 27.1202 128.19 23.5686 132.194C19.7078 136.551 5.86045 168.602 3.99115 176.072C2.0931 183.65 0.626446 191.192 0.151933 199C-0.0853241 202.897 -0.0206335 206.801 0.180675 210.698C0.338846 213.811 0.461104 216.902 2.01406 219.67C3.7827 222.805 10.771 225.868 11.1233 226.047C17.8312 229.297 44.3392 231.583 50.2347 232.59C58.3445 233.978 66.3178 233.855 74.4133 232.784C92.6102 230.375 110.728 227.198 129.133 226.644C130.593 226.601 132.038 226.299 133.49 226.119C139.292 225.379 145.073 224.437 150.903 224.006C153.226 223.84 155.656 224.732 157.992 225.321C159.941 225.81 160.976 227.349 161.141 229.261C161.587 234.121 162.004 238.938 159.186 243.439C154.254 251.312 152.852 260.04 153.398 269.185C153.7 274.376 155.109 279.279 158.517 283.154C166.296 292.034 176.239 297.289 187.908 299.029C198.11 300.553 208.269 300.107 218.543 298.9C232.663 297.239 246.453 294.219 260.006 290.164C271.516 286.713 282.775 282.45 294.199 278.704C310.167 273.47 325.56 266.978 339.904 258.192C344.526 255.359 349.113 252.469 353.686 249.55C355.735 247.544 357.762 245.502 359.768 243.453C362.062 241.117 364.334 238.759 366.591 236.386C368.295 234.589 369.999 232.921 371.106 230.67C373.177 226.529 373.637 221.424 372.134 217.017ZM257.863 117.405C257.568 117.103 257.281 116.802 256.986 116.5C257.841 115.73 258.69 114.947 259.545 114.177C259.761 114.379 259.984 114.587 260.207 114.788L257.863 117.405ZM262.17 112.624C264.772 107.966 268.655 104.55 273.27 101.876C270.927 106.865 266.296 109.475 262.17 112.624ZM241.27 126.105C239.803 123.998 240.967 122.726 242.053 121.547C250.947 111.898 260.825 103.335 271.178 95.2974C274.32 92.8602 277.426 90.3941 281.351 87.317C279.727 90.8183 248.581 120.555 241.27 126.105ZM282.962 87.698C282.645 87.3888 282.322 87.0725 281.998 86.7633C282.89 85.7208 283.782 84.6927 285.212 83.0319C285.938 86.3104 284.378 86.9503 282.962 87.698ZM283.796 82.0614C274.687 89.632 265.448 97.0516 256.418 104.709C251.349 109.015 246.618 113.696 241.722 118.189C241.032 118.822 240.256 119.347 239.515 119.922C239.141 119.785 238.775 119.656 238.393 119.519C238.616 118.527 238.516 117.218 239.127 116.615C241.873 113.875 244.713 111.222 247.704 108.756C259.84 98.7556 272.063 88.8412 284.249 78.9052L285.255 79.7679C284.774 80.5444 284.45 81.5078 283.796 82.0614ZM284.889 74.4835C283.925 75.4613 282.962 76.4319 281.323 78.0783C281.157 74.9509 282.682 74.3325 283.968 73.5345C284.27 73.8508 284.58 74.1672 284.889 74.4835ZM281.359 72.075C275.844 77.0933 270.172 81.9463 264.643 86.9359C256.576 94.2117 248.567 101.545 240.529 108.857C239.371 109.907 238.207 110.935 236.553 112.409C235.683 109.677 235.007 107.592 234.346 105.55C250.206 91.8464 265.757 78.409 281.33 64.9501C284.263 68.7246 284.335 69.3645 281.359 72.075ZM236.251 131.662C236.244 132.036 235.877 132.396 235.158 133.69C234.95 131.907 234.849 131.051 234.748 130.203C235.122 130.152 235.496 130.109 235.877 130.066C236.021 130.598 236.266 131.13 236.251 131.662ZM278.44 56.9984C279.928 58.3141 280.223 60.1978 278.72 61.7652C276.47 64.109 274.176 66.4383 271.681 68.5089C260.192 78.0495 248.624 87.4967 237.092 96.9941C235.611 98.2164 234.216 99.5393 232.52 101.042C229.766 97.4902 229.565 96.57 231.923 93.9818C234.986 90.617 238.128 87.2666 241.622 84.3836C246.503 80.3502 251.816 76.8561 256.799 72.9522C262.932 68.1567 268.942 63.2102 274.931 58.2422C276.031 57.322 276.843 55.582 278.44 56.9984ZM234.425 39.1539C240.86 35.8035 247.826 34.8689 255.16 37.1911C261.235 39.1108 266.354 42.2814 270.891 46.5664C272.3 47.8964 273.63 49.3774 274.679 50.9879C276.16 53.2598 275.851 54.4245 273.666 55.9128C257.317 67.0998 242.679 80.4725 226.258 92.8027C215.452 83.5353 204.193 74.8071 188.8 73.6927C189.418 70.8959 191.64 69.7959 193.243 68.4874C200.555 62.5704 207.888 56.6677 215.516 51.1821C221.584 46.8108 227.825 42.5977 234.425 39.1539ZM185.636 108.454C186.053 107.973 186.456 107.491 186.873 107.009C189.08 107.829 191.927 108.052 193.358 109.583C198.908 115.529 202.798 122.395 202.122 130.987C202.072 131.641 201.446 132.252 200.612 133.733C198.714 122.906 195.033 114.019 185.636 108.454ZM196.435 152.519C195.436 152.368 194.408 152.325 194.393 152.189C194.206 150.082 192.625 147.853 195.278 144.819C195.738 147.889 196.054 149.996 196.435 152.519ZM178.468 92.1771C179.446 95.9804 179.417 99.0216 178.734 102.056C178.641 102.458 177.836 102.696 176.937 103.278C177.131 99.4674 174.406 95.887 178.468 92.1771ZM176.139 86.3248C179.338 84.0817 182.279 82.7156 186.01 83.3627C184.766 86.8784 182.458 87.583 176.139 86.3248ZM185.593 99.9203C184.522 96.3399 184.558 93.4856 184.285 90.6673C186.348 92.479 186.506 93.9242 185.593 99.9203ZM181.79 118.779C182.796 118.297 183.889 117.988 185.155 117.513C189.066 122.949 188.936 132.496 185.212 137.198C183.185 133.733 181.042 130.318 179.144 126.781C176.815 122.409 177.368 120.928 181.79 118.779ZM209.757 90.9405C205.012 86.9072 199.491 84.8293 193.171 85.1097C192.093 85.1529 190.993 84.9588 190 84.8797C189.382 82.9026 190.072 82.0398 191.762 82.162C199.915 82.7156 207.219 85.4189 213.668 90.545C219.018 94.8013 223.461 99.5824 224.813 106.571C224.935 107.175 224.971 107.8 224.381 108.857C223.619 107.829 222.634 106.909 222.123 105.773C219.355 99.6759 214.711 95.1536 209.757 90.9405ZM210.491 108.656C211.835 107.211 213.18 105.758 214.567 104.256C217.098 107.477 216.631 108.095 210.491 108.656ZM202.704 91.379C200.267 94.7869 198.204 97.67 196.14 100.546C195.759 100.373 195.371 100.193 194.99 100.014C195.774 96.5627 196.557 93.1046 197.456 89.1359C199.39 89.9555 200.77 90.545 202.704 91.379ZM191.021 89.6967C190.755 90.998 190.482 92.2994 190.13 93.9602C188.598 91.3072 188.598 91.3072 191.021 89.6967ZM202.208 145.732C203.646 145.279 204.624 146.056 205.142 147.494C205.738 149.126 206.45 150.715 207.536 153.368C205.027 152.138 203.315 151.578 201.978 150.542C201.144 149.895 200.612 148.558 200.461 147.458C200.396 146.948 201.475 145.97 202.208 145.732ZM203.553 107.167C203.136 106.916 202.726 106.671 202.309 106.412C202.043 101.998 205.566 100.064 208.959 97.5766C209.887 98.4106 210.757 99.2085 211.965 100.294C208.938 102.775 206.249 104.967 203.553 107.167ZM210.196 122.956C209.923 118.75 213.323 120.375 214.603 119.009C216.02 117.506 217.731 116.291 219.312 114.954C221.254 117.434 221.441 118.196 221.21 122.956H210.196ZM217.184 147.249C215.265 148.076 213.46 148.867 211.152 149.852C210.282 148.162 209.527 146.717 208.736 145.172C214.452 143.475 214.452 143.475 217.184 147.249ZM221.376 128.858C222.67 129.563 223.871 130.426 225.1 131.231C223.978 132.079 222.85 132.935 221.347 134.071C220.635 131.972 220.204 130.663 219.729 129.261C220.492 129.053 221.081 128.693 221.376 128.858ZM217.278 30.3682C217.328 36.4002 215.674 41.1094 210.297 44.4095C201.755 49.6507 193.387 55.1507 185.119 60.8017C177.757 65.8201 170.646 71.1979 163.421 76.4104C162.91 76.7842 162.328 77.0502 161.817 77.345C159.66 76.0293 160.12 74.6274 161.515 73.3404C165.563 69.6162 169.46 65.6907 173.809 62.3403C185.751 53.1377 197.866 44.1363 209.995 35.1781C212.245 33.5245 213.669 30.5192 217.278 30.3682ZM166.375 102.631C164.355 102.156 162.96 101.826 161.314 101.423C161.731 97.5333 164.837 95.9301 166.958 93.2196C170.128 97.0229 167.26 99.5752 166.375 102.631ZM164.787 113.056C159.783 111.97 158.992 109.648 161.17 103.206C167.454 106.607 167.957 107.894 164.787 113.056ZM129.694 50.4559C140.967 42.4683 152.14 34.3296 163.614 26.6296C170.754 21.8341 178.303 17.6354 185.751 13.3145C191.51 9.96415 197.916 9.96413 204.272 10.5537C207.938 10.8988 210.232 13.7315 212.367 16.4132C217.544 22.9342 217.364 24.2067 210.714 29.2394C204.106 34.229 197.363 39.0388 190.82 44.1218C185.831 47.997 181.423 52.7422 176.103 56.0566C171.077 59.1912 166.512 62.671 162.378 66.8266C161.127 68.0704 159.818 69.2423 158.014 70.9462C150.055 60.4926 140.96 53.1448 126.768 53.3821C128.213 51.9154 128.853 51.0455 129.694 50.4559ZM118.032 83.715C126.984 86.2026 131.189 97.5477 125.567 104.04C123.626 103.414 123.741 101.725 124.187 100.438C126.696 93.2556 123.806 88.2157 118.083 84.1679C117.997 84.1176 118.047 83.8731 118.032 83.715ZM127.983 123.02C126.998 125.019 125.912 125.415 124.115 123.56C125.79 123.322 126.883 123.179 127.983 123.02ZM122.965 113.811C122.943 113.034 124.036 111.553 124.647 111.546C127.408 111.488 126.452 113.847 127.185 115.435C124.374 116.816 123.022 116.118 122.965 113.811ZM120.096 123.646C119.931 124.027 119.758 124.401 119.593 124.782C118.644 124.415 117.687 124.049 116.738 123.689C116.796 123.488 116.861 123.272 116.911 123.071C117.975 123.265 119.039 123.459 120.096 123.646ZM121.304 141.893C124.733 138.672 129.176 136.12 134.008 136.098C136.575 136.084 138.983 136.717 141.154 137.831C144.692 138.924 147.963 140.793 150.414 143.633C154.635 148.522 155.562 154.382 155.347 160.658C155.16 166.323 154.376 172.485 150.882 177.151C149.947 178.395 148.624 179.559 147.1 180.508C147.043 180.588 146.992 180.674 146.942 180.746C146.856 180.861 146.561 180.969 146.108 181.076C142.549 182.967 138.171 183.621 135 181.493C133.972 181.378 133.044 181.213 132.318 180.976C125.56 178.754 118.227 174.052 115.243 167.316C111.396 158.667 114.531 148.263 121.304 141.893ZM130.959 111.697C135.985 111.107 136.431 111.488 136.51 116.42C131.585 117.082 131.089 116.665 130.959 111.697ZM125.143 65.9926C126.725 66.3449 128.263 66.9201 129.802 67.4162C133.354 68.5665 136.035 70.5724 137.703 74.124C139.709 78.3875 141.916 82.5934 144.49 86.5261C147.812 91.5804 147.905 96.5197 145.173 101.711C144.569 102.854 143.951 103.997 143.225 105.363H136.884C137.085 102.76 137.272 100.46 137.444 98.2883C140.399 97.7563 142.829 97.3105 145.454 96.8432C144.411 93.1262 141.679 93.2412 139.436 92.7523C136.697 92.1556 136.675 92.2706 134.892 89.5961C136.445 89.3373 137.912 89.3157 139.17 88.798C140.076 88.417 140.701 87.3673 141.449 86.6124C140.579 85.7927 139.759 84.3477 138.832 84.2758C136.956 84.132 135.029 84.7359 132.627 85.1097C135.029 77.5607 134.633 76.9064 129.68 75.9574C128.623 73.5345 129.859 69.3933 124.647 69.0626C124.137 70.4142 123.648 72.0678 122.893 73.5705C122.44 74.4548 121.541 75.109 120.851 75.864C120.297 75.0156 119.456 74.2319 119.248 73.3117C118.198 68.4803 118.212 68.4227 113.036 67.7757C112.684 69.6953 112.324 71.6436 111.878 74.1384C109.714 72.2404 107.96 70.6946 105.753 68.7606C112.173 65.6547 118.464 64.5116 125.143 65.9926ZM115.718 127.586C112.604 128.319 110.103 130.325 106.802 129.52C109.599 125.299 111.059 124.962 115.718 127.586ZM98.6997 93.4353C108.636 91.2497 114.941 99.3452 110.433 110C106.292 104.148 102.568 98.885 98.6997 93.4353ZM102.927 70.3279C105.472 76.4535 105.436 76.7339 101.77 78.9627C100.418 77.6757 99.282 76.5901 97.7938 75.1809C99.6631 73.4123 101.231 71.9312 102.927 70.3279ZM105.53 111.244C106.084 112.696 105.947 114.141 104.078 114.968C100.972 113.336 101.144 109.885 99.8933 107.232C98.7214 104.73 97.5134 102.264 96.3128 99.7766L97.2834 99.2085C100.533 102.832 103.747 106.52 105.53 111.244ZM94.6663 79.1567C97.2186 84.247 97.2187 84.247 93.2141 86.7346C92.0565 83.9019 93.782 82.0038 94.6663 79.1567ZM54.1244 121.539C56.5616 118.577 60.034 116.672 63.8589 116.341C68.3092 115.968 72.1485 118.031 75.5492 120.684C75.5852 120.713 75.6067 120.741 75.6427 120.77C79.3022 121.913 81.3584 127.075 82.3002 130.57C83.3067 134.323 83.7454 138.579 82.6813 142.267C82.9689 143.101 82.9976 144.007 82.6381 144.848C81.193 148.285 79.1513 151.7 75.6859 153.454C74.212 154.195 72.7022 154.683 71.1637 154.914C69.9846 155.597 68.6904 155.985 67.2165 156.15C58.0857 157.121 51.083 151.52 49.983 142.188C49.8177 140.786 49.789 139.391 49.8753 138.025C48.9406 132.252 50.3211 126.17 54.1244 121.539ZM366.009 226.277C366.074 227.004 365.923 227.773 365.491 228.535C364.93 229.534 364.204 230.433 363.377 231.231C359.725 236.4 353.37 240.491 348.337 242.547C347.28 242.979 346.209 243.403 345.145 243.82C336.834 249.414 328.112 254.367 319.248 258.976C307.91 264.878 296.133 270.184 283.58 273.305C282.013 273.693 280.539 274.441 278.993 274.922C272.875 276.842 266.828 279.042 260.674 280.789C250.939 284.794 240.702 287.094 230.456 289.575C224.719 290.955 218.867 292.529 212.964 293.026C210.246 293.256 207.557 293.205 204.847 292.889C204.135 292.803 203.431 292.695 202.719 292.587C202.575 292.565 202.345 292.537 202.244 292.529C201.691 292.465 201.13 292.407 200.576 292.343C200.231 292.292 199.879 292.249 199.519 292.206C189.296 292.091 178.224 290.409 170.021 283.996C162.198 277.877 159.452 267.869 162.055 258.408C163.773 252.124 167.123 246.408 170.689 241.023C171.667 239.542 172.674 237.982 173.579 236.386C173.982 229.815 171.545 223.74 166.102 219.85C161.968 216.902 157.611 214.522 152.176 214.817C149.113 214.975 146.014 214.35 142.93 214.22C138.228 214.033 133.447 213.379 128.831 213.969C116.566 215.522 104.272 217.139 92.1716 219.641C76.1676 222.949 30.2978 224.753 26.2357 224.746C20.6782 224.739 14.5888 223.984 10.2103 220.209C6.5508 217.06 5.25666 212.308 5.12725 207.628C4.99784 202.746 5.42184 197.764 5.96825 192.911C8.41271 171.234 15.6239 148.414 32.5339 133.625C33.145 133.086 40.349 126.867 43.2393 123.869C43.4981 124.466 43.6347 124.624 43.6131 124.76C43.4693 125.702 43.3398 126.666 43.0953 127.586C42.362 130.275 41.7869 132.964 41.4346 135.66C41.5353 136.012 41.5855 136.4 41.5783 136.817C41.5352 141.936 43.002 147.156 45.353 151.937C46.7478 154.008 48.3078 156.014 49.7888 158.027C52.0032 160.284 54.6131 162.01 57.9204 162.808C63.7295 164.21 70.0132 163.879 75.7576 162.355C77.3897 161.923 79.0002 161.47 80.5603 160.881C82.4583 159.867 84.3133 158.753 85.9597 157.415C88.9865 154.964 91.6469 152.074 94.5658 149.485C98.9731 145.574 103.114 141.469 105.573 136.163C109.995 135.394 114.237 134.668 119.384 133.783C118.299 135.07 117.882 135.732 117.314 136.206C111.54 140.923 109.046 147.422 107.91 154.425C106.716 161.794 107.018 169.163 111.612 175.519C116.415 182.148 123.454 186.045 130.42 189.941C131.226 190.394 132.311 190.351 133.274 190.502C134.295 190.653 135.331 190.761 136.366 190.883C137.099 190.89 137.826 190.89 138.559 190.869C144.203 190.703 149.847 189.273 154.994 186.929C162.479 183.499 168.539 177.683 175.521 173.484C176.017 173.082 176.52 172.686 177.023 172.291C179.878 170.055 181.574 167.323 182.53 163.965C182.811 162.959 183.149 161.974 183.515 160.802C189.123 163.448 194.724 164.044 200.411 164.152C203.991 164.224 207.6 163.951 211.152 164.296C215.746 164.749 219.37 162.966 222.735 160.248C225.632 157.919 228.867 155.848 231.24 153.044C235.669 147.817 240.795 148.385 246.137 150.528C251.227 152.577 256.138 155.079 261.127 157.379C268.281 166.827 271.415 173.887 263.32 185.196C261.156 188.23 258.258 190.732 256.044 193.723C253.255 197.498 250.522 201.38 248.322 205.507C245.842 210.151 247.661 214.573 250.904 218.053C250.947 218.096 250.99 218.132 251.026 218.175C257.374 221.259 263.723 221.029 270.603 220.418C279.015 219.67 287.355 218.297 295.616 216.579C299.167 215.464 302.676 214.185 306.192 212.912C313.784 210.166 321.757 209.576 329.68 208.879C330.78 208.778 331.88 208.692 332.98 208.605C335.971 207.858 339.026 207.311 342.118 206.93C347.51 206.255 353.42 205.65 358.532 207.872C363.327 209.957 367.411 215.608 367.411 220.936C367.411 223.006 366.879 224.739 366.009 226.277Z" fill="black"/>
</svg>
