<svg width="376" height="300" viewBox="0 0 376 300" fill="none" xmlns="http://www.w3.org/2000/svg">
<path fill-rule="evenodd" clip-rule="evenodd" d="M246.586 28.4458C250.953 26.1906 255.182 23.6782 259.465 21.2549C262.605 19.4794 266.181 18.7277 269.114 16.3439C272.744 13.3964 272.828 12.1154 268.56 9.89486C268.307 9.76628 268.07 9.59314 267.848 9.41016C265.8 9.52885 263.733 9.95423 261.705 10.5477C256.616 12.0314 251.72 14.1283 247.007 16.5417C242.551 18.8315 238.139 21.2104 233.95 23.9107C233.54 24.336 233.149 24.786 232.783 25.2608C235.815 29.3607 242.036 30.7999 246.586 28.4458Z" fill="black"/>
<path fill-rule="evenodd" clip-rule="evenodd" d="M374.312 96.0629C373.501 87.8928 371.413 80.0194 367.462 72.7196C363.51 65.4051 358.046 59.6335 350.419 56.1815C346.067 54.2132 341.562 52.6009 337.101 50.8947C335.513 50.2863 334.673 49.4753 334.401 47.5811C333.594 41.8195 332.67 36.0579 331.364 30.3902C330.385 26.1271 329.307 21.8294 326.809 18.0361C324.534 14.594 321.285 12.225 318.357 9.47033C315.039 6.33977 311.349 4.17358 306.859 3.38228C300.607 2.28931 294.361 1.15676 288.095 0.162692C286.572 -0.0796423 284.945 -0.0400643 283.421 0.207216C275.38 1.50296 267.244 1.77993 259.218 3.75817C250.825 5.82543 242.719 8.31301 235.029 12.1706C228.184 15.6028 221.433 19.2181 214.598 22.6701C212.521 23.7235 210.221 24.3467 208.174 25.4446C203.045 28.1894 198.031 31.1469 192.907 33.9164C186.858 37.1805 180.716 40.2814 174.668 43.5405C165.869 48.2784 157.17 53.1993 148.327 57.8482C136.616 64.0005 126.112 71.5327 117.674 81.9284C113.688 86.8393 111.082 92.0816 110.434 98.2735C109.603 106.182 109.737 114.149 110.652 121.998C112.061 134.099 113.624 146.236 116.112 158.15C118.683 170.41 119.865 183.16 126.329 194.352C126.972 195.465 126.992 196.429 125.785 197.388C121.517 200.791 118.683 205.178 116.977 210.38C116.626 211.454 115.513 212.601 114.46 213.071C110.088 215.024 105.602 216.716 101.166 218.531C97.3282 220.104 93.4212 221.543 89.6724 223.323C80.8841 227.502 72.1205 231.755 63.4311 236.157C55.4686 240.188 47.4321 244.144 39.7614 248.704C31.8485 253.402 23.9404 258.204 17.2045 264.639C14.5784 267.151 11.9572 269.703 9.08384 271.919C6.01757 274.288 3.74754 277.215 1.80391 280.469C-2.84001 288.244 1.93745 298.729 10.9335 299.569C17.5952 300.193 24.3361 300.247 31.0522 299.006C41.3143 297.116 50.0878 291.78 59.1828 287.26C63.7525 284.99 68.0156 282.042 72.2144 279.109C77.5013 275.41 82.7338 271.602 87.709 267.492C92.8772 263.234 97.6348 258.481 102.704 254.095C108.075 249.456 112.852 244.273 117.452 238.877C122.576 232.863 126.418 225.42 134.623 222.641C134.86 222.557 135.033 222.324 135.256 222.191C138.525 220.286 139.895 216.741 142.234 214.04C144.811 211.068 145.202 210.42 148.713 211.899C152.818 213.635 157.036 213.595 161.369 214.268C169.119 213.145 176.878 212.052 184.623 210.885C186.789 210.563 188.921 209.97 191.087 209.589C198.461 208.288 205.958 207.675 213.036 204.866C217.447 203.11 222.155 202.126 226.577 200.41C231.156 198.635 235.583 196.449 240.014 194.317C243.164 192.794 246.235 191.122 249.282 189.416C251.839 187.982 254.183 186.112 256.839 184.93C264.114 181.701 270.622 177.25 277.126 172.769C281.171 169.985 285.241 167.215 289.321 164.475C289.841 164.129 290.499 163.926 291.122 163.783C294.386 163.036 297.65 162.289 300.934 161.612C304.49 160.885 308.036 159.856 311.626 159.619C319.772 159.09 327.813 157.804 335.845 156.533C342.872 155.42 349.633 153.402 356.023 150.005C360.869 147.428 365.063 144.238 368.827 140.301C371.636 137.359 372.783 133.585 373.842 129.96C375.019 125.929 375.602 121.577 375.578 117.369C375.538 110.257 375.009 103.14 374.312 96.0629ZM102.496 237.21C96.8337 244.258 89.6922 249.767 82.6843 255.346C73.2283 262.878 63.9058 270.653 53.8613 277.324C45.706 282.749 37.249 288.071 27.4963 290.554C22.1106 291.924 16.705 291.721 11.2896 290.845C10.6862 290.746 10.1422 290.321 9.67238 290.094C8.95033 287.809 10.2609 286.36 11.4775 285.108C16.7594 279.698 22.6744 275.034 28.9404 270.821C34.8405 266.849 40.6912 262.799 46.6753 258.961C50.4439 256.543 54.3955 254.391 58.3074 252.2C64.6378 248.659 70.978 245.123 77.3678 241.691C85.6962 237.22 94.0839 232.868 102.427 228.432C103.797 227.705 105.043 226.731 106.433 226.033C107.754 225.361 109.178 224.901 110.553 224.337C110.77 224.604 110.983 224.871 111.201 225.138C108.307 229.169 105.597 233.348 102.496 237.21ZM206.141 34.5692C213.565 30.9293 221.087 27.4822 228.481 23.7779C232.506 21.7601 236.295 19.2626 240.301 17.1953C240.825 16.9233 241.364 16.6711 241.898 16.4238C243.698 15.4742 245.513 14.5594 247.338 13.6691C254.084 10.3754 262.556 6.39909 270.429 6.97278C271.112 6.73539 271.923 6.69087 272.487 6.6513C273.772 6.55734 275.063 6.55733 276.349 6.59689C278.97 6.23587 281.596 5.90454 284.213 5.50395C290.182 4.59396 295.676 7.21512 301.676 7.50691C301.097 9.39613 299.559 9.35162 298.268 9.63847C289.984 11.4436 281.794 13.5999 274.223 17.4921C268.095 20.6424 262.066 24.0055 256.092 27.4526C242.234 35.4397 228.382 43.4466 214.628 51.6217C206.923 56.2013 199.455 61.1716 191.819 65.86C188.545 67.868 185.113 69.6187 181.577 71.5772C181.502 71.4437 181.438 71.3051 181.374 71.1766C181.403 71.0381 181.428 70.8947 181.448 70.7611C181.473 70.593 181.488 70.4298 181.502 70.2616C181.661 69.8215 181.819 69.3814 181.977 68.9461C182.328 67.957 182.348 66.8937 182.491 65.8798C183.797 65.405 185.068 65.0094 186.201 64.3714C187.526 63.6346 189.01 62.7938 189.811 61.5871C192.348 57.7839 190.84 54.1736 186.408 52.8432C184.049 52.131 181.834 52.3388 179.658 53.5851C178.703 54.1291 177.892 54.5643 177.14 54.8808C177.121 54.866 177.111 54.8511 177.091 54.8363C177.15 54.6137 177.14 54.4505 177.032 54.4209C176.611 54.2972 176.196 54.1341 175.77 54.0253C174.638 53.4367 173.397 53.0806 172.116 52.8778C171.265 52.7443 170.409 52.7789 169.554 52.8432C170.132 52.4723 170.681 52.1261 171.255 51.8442C182.872 46.0678 194.49 40.2814 206.141 34.5692ZM180.261 56.4931C180.914 55.9145 181.646 55.5782 182.383 55.4743C183.822 54.7721 185.498 54.6781 186.923 55.6227C187.022 55.687 187.096 55.7611 187.17 55.8403C187.432 55.9293 187.679 56.0777 187.902 56.2903C188.738 57.0668 189 58.3774 188.723 59.4704C188.357 60.9244 187.215 61.9827 185.879 62.6801C185.39 63.0955 184.811 63.3873 184.138 63.4763C183.955 63.501 183.777 63.5159 183.599 63.5208C183.49 63.5505 183.382 63.5752 183.273 63.595C182.897 63.6741 182.566 63.5851 182.318 63.4021C181.829 63.2983 181.374 63.1153 180.963 62.8828C180.859 62.8186 180.756 62.7592 180.652 62.69C180.632 62.6801 180.612 62.6652 180.597 62.6553C180.479 62.5663 180.365 62.4822 180.261 62.3883C179.331 61.5722 178.852 60.3655 179.262 58.9659C179.153 58.1103 179.43 57.225 180.261 56.4931ZM146.29 68.1796C147.091 66.8987 147.976 65.6425 149.188 64.9254C150.271 63.4219 151.572 62.1261 152.897 61.2063C157.13 58.2636 162.323 57.769 167.304 58.4713C170.671 58.1449 173.654 59.3912 176.324 62.0174C177.076 62.7542 177.595 63.5059 177.897 64.2725C177.867 64.6039 177.823 64.9649 177.768 65.3309C177.605 66.137 177.318 66.9432 177.091 67.7493C174.054 70.5881 165.523 77.4377 162.175 78.4516C160.202 79.05 158.075 79.4803 155.968 79.5001C156.967 80.1133 149.747 79.3121 146.433 75.7611C144.356 73.5257 144.752 70.6375 146.29 68.1796ZM139.074 71.7107C138.758 72.8927 138.599 74.1044 138.634 75.2518C138.713 77.7938 140.864 79.4654 142.907 80.8452C137.185 81.9085 131.324 83.0015 125.464 84.0896C129.46 79.2528 134.415 75.7216 139.074 71.7107ZM189.87 200.85C185.019 201.632 180.157 202.458 175.266 202.918C169.593 203.452 163.866 203.471 158.194 204.015C153.565 204.461 149.509 203.694 145.879 200.568C141.067 196.439 137.056 191.795 134.831 185.776C132.808 180.301 130.681 174.856 128.837 169.322C128.065 167.008 127.961 164.48 127.472 162.072C125.152 150.746 122.595 139.47 120.568 128.091C119.668 123.041 119.717 117.799 119.549 112.64C119.405 108.095 119.534 103.541 119.593 98.9907C119.618 97.4328 119.752 95.8749 119.91 94.3269C120.118 92.3289 121.181 90.8354 123.11 90.3161C131.112 88.1598 139.074 85.6771 147.521 86.1173C153.95 86.4536 159.613 88.7088 164.346 92.8532C162.684 131.483 170.825 167.047 192.111 199.475C191.334 199.97 190.652 200.722 189.87 200.85ZM270.963 168.724C264.03 173.303 257.17 178.007 249.633 181.592C241.656 185.385 233.753 189.332 225.761 193.091C222.585 194.584 219.302 195.865 215.993 197.022C209.465 199.307 203.718 197.774 198.753 193.081C190.731 185.489 185.226 176.449 182.18 165.746C179.084 154.866 175.805 144.045 173.936 132.873C172.912 126.735 172.482 120.484 171.201 114.406C170.078 109.08 170.424 103.788 170.424 98.4714C170.424 94.4308 171.774 91.1321 175.251 88.4367C179.524 85.1182 183.367 81.2063 187.195 77.3537C193.772 70.7364 201.858 66.2606 209.544 61.2013C213.199 58.7928 216.769 56.2408 220.528 54.0054C225.963 50.7809 231.557 47.8284 237.032 44.6582C241.626 41.9975 246.072 39.0747 250.701 36.4733C258.486 32.0915 266.24 27.6207 274.237 23.6543C282.363 19.6286 290.83 16.4634 299.865 14.7967C304.173 14.0005 308.372 13.135 312.778 13.3427C315.479 13.4663 317.447 14.6632 319.193 16.5574C321.928 19.5346 323.407 23.1845 324.257 26.9827C325.593 32.9323 326.522 38.9758 327.576 44.9896C327.699 45.7216 327.506 46.5178 327.447 47.6009C321.567 48.2537 315.934 46.9035 309.346 46.6414C310.578 45.588 311.028 45.0044 311.626 44.7225C313.283 43.951 314.984 43.2735 316.661 42.5366C316.755 42.4129 316.873 42.2893 317.032 42.1953C318.194 41.4881 319.232 41.2359 319.109 39.772C318.936 37.774 318.847 35.7562 318.624 33.7631C318.357 31.409 317.551 29.1538 316.977 26.864C316.695 25.7364 316.413 24.6138 316.102 23.4961C315.909 23.1301 315.731 22.7591 315.578 22.3734C314.158 18.8719 311.235 17.9718 308.045 17.9323C299.94 17.8284 292.828 20.8057 286.28 25.4051C283.441 27.3981 281.76 32.5366 283.56 36.7058C284.692 39.322 285.963 41.8937 286.888 44.589C287.956 47.685 287.338 48.4911 284.163 49.1539C274.015 51.2805 264.504 54.9105 255.968 60.9194C250.123 65.0292 244.114 68.8967 238.367 73.14C235.795 75.044 233.674 77.5614 231.399 79.8413C229.48 81.7751 227.477 83.6494 225.795 85.7809C223.134 89.1538 222.096 93.2043 221.952 97.413C221.403 113.338 224.4 128.743 229.455 143.734C232.224 151.948 237.615 157.893 245.988 161.3C251.819 163.669 257.729 164.164 263.797 164.535C267.002 164.733 270.202 165.064 273.585 165.356C273.496 167.413 272.071 167.992 270.963 168.724ZM324.608 101.686C324.603 101.637 324.594 101.587 324.589 101.543C324.628 101.503 324.663 101.459 324.697 101.424C324.702 101.473 324.707 101.523 324.712 101.572C324.678 101.607 324.648 101.646 324.608 101.686ZM321.315 61.958C319.005 62.23 316.685 62.4525 314.361 62.5366C304.519 62.9125 294.673 63.1647 284.826 63.5999C278.233 63.8868 271.646 64.406 265.058 64.7918C264.608 64.8215 264.143 64.6336 263.031 64.416C267.205 61.0085 271.26 59.8116 275.85 59.7276C284.653 59.5643 293.456 58.9659 302.259 58.8621C308.08 58.7928 313.906 59.2429 319.727 59.5742C320.929 59.6434 322.101 60.1974 324.094 60.7513C322.625 61.4041 321.992 61.8739 321.315 61.958ZM259.579 74.8067C265.454 74.1489 271.354 73.5752 277.254 73.1796C286.552 72.5564 295.859 72.0866 305.162 71.6118C307.447 71.4931 309.737 71.592 312.131 71.592C310.904 75.9738 310.904 75.8996 307.234 75.8798C297.754 75.8304 288.253 75.4545 278.797 75.954C268.036 76.5178 257.378 78.2785 246.878 80.8452C244.514 81.4239 242.086 81.7404 238.931 82.3091C240.731 78.5208 242.848 76.9629 246.196 76.6563C250.676 76.2409 255.103 75.3111 259.579 74.8067ZM253.604 71.2953C256.146 67.7839 257.432 67.3239 261.117 68.3329C262.091 68.5999 263.184 68.8472 264.158 68.689C275.217 66.9629 286.364 66.953 297.511 66.7849C302.017 66.7156 306.522 66.4684 311.033 66.3002C311.483 66.2854 311.938 66.2953 312.383 66.2953C312.432 66.5969 312.482 66.8986 312.526 67.2003C311.413 67.497 310.325 67.9818 309.198 68.051C299.747 68.6197 290.286 69.0648 280.835 69.6533C272.541 70.1726 264.257 70.8304 255.968 71.4091C255.217 71.4684 254.45 71.3447 253.604 71.2953ZM255.301 84.1044C259.099 83.4269 262.947 83.0263 266.765 82.5119C278.604 80.9095 290.454 79.8017 302.412 81.1618C304.153 81.3646 305.939 81.1914 308.515 81.1914C307.917 83.229 307.531 84.5347 307.185 85.692C281.186 88.417 255.543 91.1123 229.89 93.8027C229.92 88.9264 230.083 88.8423 234.732 88.0114C241.611 86.775 248.431 85.326 255.301 84.1044ZM232.754 97.6405C239.539 96.6959 246.339 95.8403 253.139 94.9946C260.202 94.1193 267.269 93.2636 274.336 92.4723C276.779 92.1954 279.242 92.1459 281.7 91.9976C289.697 91.5228 297.694 91.0579 305.746 90.5782C306.878 93.5208 305.612 95.8799 305.548 98.2686C305.434 102.542 305.063 106.81 305.043 111.083C305.024 114.312 305.395 117.551 305.563 120.786C305.775 124.866 306.765 128.724 308.669 132.359C309.01 133.016 309.173 133.763 309.663 135.158C303.777 136.33 298.476 137.497 293.13 138.437C283.416 140.153 273.678 141.745 263.955 143.377C256.418 144.644 248.886 145.929 241.339 147.126C240.083 147.329 238.767 147.156 236.947 147.156C230.81 131.854 227.942 115.944 228.139 98.8967C229.682 98.4664 231.191 97.8581 232.754 97.6405ZM243.392 151.295C253.624 150.652 263.436 147.547 273.535 146.093C283.135 144.713 292.699 143.036 302.289 141.567C305.602 141.058 308.951 140.801 312.279 140.425C314.648 140.158 315.795 141.548 316.755 143.679C316.052 143.996 315.528 144.386 314.959 144.47C306.497 145.791 298.045 147.171 289.559 148.323C283.268 149.179 276.918 149.668 270.607 150.435C267.917 150.756 265.231 151.236 262.59 151.854C258.253 152.868 253.886 153.021 249.465 152.789C246.928 152.65 244.381 152.759 241.834 152.759C241.774 152.517 241.72 152.275 241.656 152.037C242.234 151.78 242.798 151.335 243.392 151.295ZM320.518 151.889C309.722 152.344 299.168 154.312 288.614 156.483C278.55 158.546 268.342 159.243 258.075 158.155C257.6 158.1 257.145 157.863 256.676 157.715C256.71 157.566 256.75 157.413 256.779 157.26C261.567 156.503 266.344 155.633 271.141 155C278.159 154.08 285.212 153.447 292.22 152.467C296.676 151.844 301.082 150.835 305.508 150.005C306.141 149.886 306.779 149.767 307.417 149.688C311.137 149.233 314.865 148.877 318.565 148.308C320.958 147.942 322.902 148.323 324.628 150.959C323.09 151.32 321.814 151.839 320.518 151.889ZM335.538 55.6227C335.499 55.7364 335.424 55.8897 335.34 55.9194C334.984 56.0332 334.613 56.2013 334.247 56.1914C318.352 55.7908 302.462 55.3704 286.572 54.955C302.947 49.3961 319.262 52.4476 335.657 54.7028C335.573 55.3754 335.578 55.5089 335.538 55.6227ZM337.774 100.197C337.561 100.188 337.343 100.183 337.126 100.173V98.3181C337.393 98.3279 337.65 98.3378 337.917 98.3477C337.867 98.9659 337.823 99.5792 337.774 100.197ZM339.895 93.2191C339.435 92.5465 339.069 92.2053 338.975 91.7998C338.926 91.5723 339.376 90.9788 339.519 91.0035C339.91 91.0777 340.528 91.3497 340.563 91.6069C340.607 92.0025 340.241 92.4476 339.895 93.2191ZM341.483 103.605C341.25 103.551 341.013 103.506 340.78 103.452C340.959 102.507 341.137 101.553 341.32 100.603C341.646 100.652 341.982 100.692 342.309 100.736C342.037 101.691 341.76 102.645 341.483 103.605ZM343.055 114.718C343.154 113.16 343.219 112.116 343.342 110.286C345.32 112.2 345.157 113.298 343.055 114.718ZM342.956 86.2013C339.589 84.9204 339.425 83.8966 341.542 79.4901C341.656 79.4308 341.799 79.2973 341.883 79.327C342.813 79.6188 343.743 79.9303 345.058 80.3655C344.297 82.4723 343.624 84.3319 342.956 86.2013ZM341.972 71.9679C345.36 72.9224 345.36 72.9224 346.141 75.2518C342.907 75.6672 342.823 75.6177 341.972 71.9679ZM345.128 106.602C345.429 104.713 345.642 103.338 345.865 101.963C347.991 104.154 347.892 104.584 345.128 106.602ZM348.773 98.4813C348.095 97.6109 347.388 97.0471 347.487 96.7553C347.734 96.0382 348.347 95.4397 348.812 94.8017C349.213 95.1974 349.979 95.6474 349.935 95.9787C349.831 96.7058 349.317 97.3784 348.773 98.4813ZM367.487 120.643C366.354 123.283 365.32 125.85 365.044 128.778C364.91 130.173 363.807 131.642 362.798 132.764C359.594 136.325 355.82 139.184 351.24 141.785C351.186 139.629 352.111 138.531 353.253 137.537C359.776 131.864 362.694 124.456 363.52 116.068C364.064 110.529 364.752 104.995 364.964 99.4407C365.38 88.5802 360.311 80.0243 353.021 72.507C352.506 71.9729 352.131 71.2755 351.567 70.7909C350.83 70.1628 350.053 69.4308 349.168 69.1637C346.433 68.3427 343.446 66.6415 340.078 63.4318C343.59 63.0262 346.394 62.4575 349.208 62.4526C352.19 62.4427 354.93 63.7681 356.621 66.2162C358.896 69.505 361.087 72.9372 362.694 76.5871C365.919 83.9214 367.042 91.7602 367.333 99.7473C367.526 105.069 368.055 110.375 368.258 115.702C368.318 117.339 368.125 119.149 367.487 120.643ZM353.867 99.5297C354.168 97.7592 355.484 97.9966 357.081 98.3823C357.032 100.148 356.779 101.414 355.049 101.191C354.564 101.132 353.782 100.029 353.867 99.5297ZM353.906 106.271C353.832 107.082 353.763 107.898 353.693 108.709C353.327 108.689 352.961 108.674 352.59 108.659C352.749 107.828 352.907 106.993 353.07 106.162C353.347 106.196 353.624 106.236 353.906 106.271Z" fill="black"/>
<path fill-rule="evenodd" clip-rule="evenodd" d="M211.424 137.437C212.368 134.934 213.263 132.412 214.178 129.9C213.644 122.981 210.751 118.955 204.203 118.248C198.496 117.63 192.343 117.269 189.416 124.193C189.312 124.42 189.069 124.578 188.926 124.796C184.455 131.754 187.363 138.98 193.862 142.041C198.53 144.237 206.973 142.368 210.558 138.703C210.909 138.337 211.25 137.902 211.424 137.437Z" fill="black"/>
<path fill-rule="evenodd" clip-rule="evenodd" d="M227.017 168.418C224.48 167.508 221.779 167.053 219.198 166.41C217.645 166.826 216.25 167.088 214.94 167.562C210.083 169.338 208.268 173.438 207.269 178.032C206.532 181.435 207.437 184.457 209.826 187.023C212.497 189.902 215.835 191.381 219.648 192.142C222.521 192.716 224.984 191.89 226.656 189.877C229.816 186.079 232.299 181.845 232.353 176.623C232.398 172.864 230.553 169.689 227.017 168.418Z" fill="black"/>
<path fill-rule="evenodd" clip-rule="evenodd" d="M208.995 102.214C208.491 99.2913 208.144 96.3338 207.457 93.4555C206.458 89.2665 203.664 87.3526 199.322 87.0213C193.911 86.6108 189.777 88.8264 186.29 92.6839C179.01 100.73 182.319 111.922 192.749 114.534C200.622 116.512 208.688 110.295 208.995 102.214ZM198.723 92.7927C200.113 93.3813 201.186 93.8165 202.249 94.2814C203.743 94.9243 204.44 96.2546 204.415 97.6938C204.322 101.749 202.605 105.142 199.613 107.862C199.297 108.154 198.654 108.09 197.778 108.272C195.33 102.887 197.838 98.0153 198.723 92.7927ZM187.586 101.784C187.853 98.3368 189.336 95.5029 192.675 92.8966C193.931 98.3763 192.502 102.654 190.375 107.081C187.774 105.894 187.417 103.881 187.586 101.784Z" fill="black"/>
<path fill-rule="evenodd" clip-rule="evenodd" d="M210.143 161.018C213.421 160.074 216.745 159.188 217.511 155.113C217.779 153.723 218.026 152.329 218.283 150.934C218.323 145.336 216.062 141.745 211.636 142.116C205.301 142.645 201.147 144.282 200.79 151.73C200.617 155.326 206.191 161.167 209.757 161.082C209.89 161.077 210.019 161.058 210.143 161.018Z" fill="black"/>
<path fill-rule="evenodd" clip-rule="evenodd" d="M207.259 85.0317C210.212 85.1405 212.472 82.8358 212.581 79.5964C212.705 76.095 210.227 73.5529 206.532 73.3996C202.888 73.2413 200.919 75.1849 200.835 79.0376C200.756 82.8308 202.932 84.8635 207.259 85.0317ZM204.168 76.9852C204.297 76.7725 204.475 76.5697 204.673 76.3867C205.143 75.7784 205.786 75.3234 206.592 75.2937C208.001 75.2443 209.257 76.5895 209.52 77.905C209.678 78.7309 209.579 79.5124 209.02 80.1701C208.496 80.7933 207.556 81.0208 206.775 80.9417C205.766 80.8427 204.599 80.4718 204.104 79.4926C203.708 78.7063 203.694 77.7517 204.168 76.9852Z" fill="black"/>
<path fill-rule="evenodd" clip-rule="evenodd" d="M149.519 76.2373C151.181 77.3006 153.51 77.2858 155.513 77.0484C155.528 77.0484 155.543 77.0484 155.558 77.0484C158.055 77.0534 160.528 76.5538 162.857 75.6488C165.439 74.6448 167.951 73.1661 170.216 71.3758C170.221 71.3016 170.236 71.2324 170.256 71.1582C170.474 71.0296 170.696 70.8911 170.914 70.7576C171.191 70.5845 171.443 70.3273 171.656 70.0405C171.779 69.9663 171.908 69.902 172.031 69.8229C173.119 68.819 174.133 67.7408 175.043 66.6181C175.152 63.2502 173.545 61.5736 169.796 61.0148C169.766 61.0345 169.732 61.0494 169.697 61.0692C165.563 59.8971 161.112 59.5707 157.022 61.0593C155.073 61.7665 153.268 63.0573 151.759 64.6498C151.418 64.9218 151.092 65.2136 150.81 65.5351C149.549 66.9495 148.52 68.725 148.09 70.5895C148.055 70.6933 148.011 70.8021 147.981 70.906C147.348 72.9188 147.674 75.0652 149.519 76.2373Z" fill="black"/>
</svg>
