<svg width="245" height="500" viewBox="0 0 245 500" fill="none" xmlns="http://www.w3.org/2000/svg">
<path fill-rule="evenodd" clip-rule="evenodd" d="M243.778 4.42922C243.356 3.8909 243.131 3.2163 242.848 2.59961C242.439 1.73421 242.054 0.85518 241.662 0C239.867 0.166948 238.838 0.572392 238.317 2.08173C238.017 2.94714 236.94 3.7921 235.972 4.25205C231.049 6.59613 225.997 8.72898 221.08 11.0833C214.147 14.412 207.23 17.7782 200.409 21.2909C192.811 25.1989 185.367 29.3419 177.776 33.2635C173.721 35.3588 169.497 37.1884 165.364 39.1611C164.853 39.4064 164.308 39.7335 163.981 40.1492C162.614 41.8766 161.231 43.6006 160.022 45.4234C158.103 48.3058 156.127 51.1609 155.092 54.4488C154.584 56.0705 153.494 57.5526 153.061 59.1812C151.712 64.2033 150.581 69.2696 149.316 74.3053C147.787 80.3938 146.403 86.5129 144.601 92.5333C142.363 100.015 139.76 107.409 137.317 114.836C136.645 116.891 136.025 118.955 135.29 120.993C134.356 123.575 133.327 126.134 132.336 128.713C131.102 128.298 130.186 128.005 129.283 127.684C124.758 126.083 119.903 126.168 115.198 125.524C113.433 125.282 111.637 125.085 109.856 125.068C107.471 125.054 105.086 125.364 102.704 125.303C96.2272 125.139 90.033 126.465 83.9786 128.226C79.1542 129.63 74.4933 131.49 69.7574 133.139C68.8546 133.449 67.9313 133.718 66.7558 134.083C66.0744 132.774 65.4509 131.677 64.9262 130.546C62.0336 124.284 59.1784 118.008 56.2654 111.756C55.7714 110.693 55.0865 109.698 54.3983 108.724C54.2688 108.54 53.6248 108.465 53.3591 108.584C53.0831 108.707 52.7731 109.156 52.8208 109.412C53.0048 110.366 53.2126 111.344 53.6215 112.236C56.2211 118.008 58.8956 123.752 61.5123 129.517C62.4424 131.572 63.2874 133.657 64.2823 135.987C62.1324 136.866 60.4459 137.613 58.7151 138.25C50.9196 141.112 44.0203 145.336 37.3526 149.806C32.2487 153.227 28.2216 157.697 24.2591 162.195C18.4705 168.76 14.8351 176.484 9.5984 183.329C8.48769 184.78 7.16912 186.112 5.85739 187.434C4.19813 189.094 2.32083 190.586 0.784229 192.33C-0.367368 193.632 -0.173129 194.971 0.862628 195.7C2.09259 196.562 3.11808 195.86 4.10955 195.257C4.60017 194.957 5.08401 194.62 5.47241 194.225C7.31906 192.365 9.4587 190.651 10.8454 188.542C11.905 186.937 13.2781 186.474 14.9305 186.368C18.1127 186.167 21.3256 186.273 24.317 187.421C25.7684 187.976 27.1177 188.77 28.4396 189.554C29.6389 190.262 30.1227 191.213 29.4822 192.542C28.7258 194.092 28.1262 195.7 27.4482 197.281C26.8349 198.702 27.1415 200.075 28.2148 200.606C29.455 201.223 31.23 200.821 32.0648 199.448C32.7598 198.296 33.2334 196.974 33.4685 195.683C33.9489 193.043 34.753 190.654 37.6251 189.288C37.8841 189.165 38.0647 188.927 38.2964 188.76C43.5705 184.947 49.4171 182.119 56.0712 180.825C59.7508 180.113 63.3828 180.423 66.8103 181.929C67.5428 185.537 65.9892 189.346 69.0215 192.487C63.4066 193.986 58.0337 195.25 53.4954 198.378C52.5755 199.012 52.044 199.506 52.1189 200.456C52.262 202.235 52.5107 204 52.6402 205.782C53.1002 212.098 53.5056 218.419 53.969 224.735C54.7287 234.96 55.5567 245.178 56.2654 255.403C56.4834 258.517 56.2415 261.655 56.5107 264.765C57.342 274.268 58.2517 283.763 59.2602 293.249C59.836 298.748 60.5311 304.233 61.3965 309.701C62.3743 315.875 63.7064 322.004 64.6979 328.178C66.5446 339.633 68.2651 351.104 70.013 362.573C70.7659 367.513 71.2804 372.487 72.1935 377.407C74.1901 388.214 76.2923 399.008 78.5035 409.785C80.1423 417.754 81.9617 425.696 83.8083 433.634C84.6737 437.372 85.8015 441.062 86.7861 444.697C84.7861 446.53 82.9088 448.247 81.0349 449.965C79.0997 451.733 77.2463 453.59 75.2088 455.259C72.5922 457.413 72.4899 459.082 75.3655 461.075C76.8374 462.101 78.5171 462.963 80.2411 463.61C82.0059 464.278 83.1951 465.133 83.8969 466.816C84.4693 468.186 85.4743 469.498 86.5919 470.588C88.6566 472.612 88.7281 474.124 86.4181 475.988C85.3824 476.826 84.3637 477.722 83.1746 478.349C79.9242 480.063 76.776 482.23 73.2429 483.143C67.4406 484.645 61.3896 485.419 55.3999 486.274C50.9673 486.908 46.5177 487.456 42.3542 488.993C39.3151 490.114 36.3747 491.46 34.862 494.328C36.528 497.112 38.8688 498.88 42.3951 499.054C48.1531 499.333 53.9111 499.671 59.6759 499.776C65.5565 499.889 71.444 499.705 77.3348 499.732C81.1167 499.749 84.9054 500.066 88.6873 499.988C97.3447 499.807 105.999 499.439 114.656 499.211C118.125 499.119 121.6 499.214 125.068 499.18C129.559 499.139 134.053 499.064 138.543 498.976C142.915 498.884 147.286 498.696 151.661 498.642C155.752 498.584 159.844 498.676 163.94 498.632C166.277 498.604 166.832 498.189 167.388 496.475C168.008 494.546 167.194 492.632 165.027 491.705C162.614 490.669 160.131 489.657 157.562 489.017C147.293 486.458 136.942 484.141 126.69 481.531C123.072 480.611 119.556 479.272 116.155 477.828C113.821 476.84 111.828 475.293 110.656 473.082C109.978 471.808 110.022 470.755 111.239 469.716C112.312 468.799 113.682 467.845 114.07 466.68C114.7 464.799 115.985 464.24 117.852 463.876C119.177 463.613 120.649 463.266 121.637 462.513C124.237 460.52 124.55 456.506 122.448 454.07C119.29 450.394 115.031 447.917 110.602 445.682C108.578 444.66 108.336 444.268 108.973 442.336C110.772 436.898 112.581 431.457 114.288 425.996C115.866 420.946 117.436 415.89 118.806 410.79C120.799 403.349 122.697 395.887 124.475 388.398C125.484 384.143 126.056 379.806 127.041 375.543C128.349 369.874 129.971 364.263 131.252 358.586C132.23 354.229 133.007 349.823 133.634 345.415C133.981 342.958 133.739 340.43 135.037 338.113C135.293 337.657 135.32 337.077 135.361 336.549C135.589 333.261 135.657 329.957 136.039 326.682C136.639 321.459 137.317 316.229 138.196 311.037C139.194 305.143 140.683 299.31 141.524 293.398C142.526 286.339 143.139 279.232 143.783 272.135C144.492 264.326 145.054 256.506 145.657 248.687C145.78 247.086 145.702 245.471 145.848 243.87C146.4 237.836 146.993 231.802 147.599 225.774C147.736 224.398 147.988 223.035 148.267 221.154C149.17 221.993 149.756 222.425 150.189 222.957C152.359 225.628 154.499 228.32 156.632 231.018C161.044 236.619 165.94 241.941 169.108 248.261C169.268 248.588 169.412 248.919 169.616 249.229C170.594 250.762 171.568 250.847 172.693 249.467C173.926 247.958 175.187 246.449 176.294 244.864C179.19 240.718 182.018 236.527 184.856 232.35C185.064 232.047 185.169 231.689 185.34 231.372C187.469 227.458 188.154 223.209 188.689 218.96C189.091 215.778 189.728 212.487 189.224 209.38C187.892 201.076 185.858 192.893 181.292 185.407C180.151 183.537 179.003 181.666 177.943 179.758C175.367 175.152 171.664 171.312 167.596 167.762C166.274 166.61 164.577 165.718 162.884 165.019C159.279 163.537 155.599 162.236 151.684 161.432C147.777 160.634 143.903 159.939 139.865 160.178C137.916 160.294 135.954 160.195 133.617 160.195C135.606 151.026 138.346 142.457 140.649 133.94C143.231 134.71 145.443 135.466 147.722 136.001C148.465 136.178 149.906 135.981 150.08 135.599C150.393 134.921 150.277 133.81 149.811 133.197C149.33 132.567 148.274 132.151 147.385 131.943C145.593 131.531 143.739 131.32 141.644 130.986C142.342 128.533 142.945 126.298 143.616 124.083C145.76 117.027 147.991 109.991 150.059 102.915C152.424 94.8058 154.485 86.6288 157.603 78.6971C159.947 72.738 162.355 66.7722 163.374 60.4725C163.851 57.5288 164.349 54.6396 167.422 52.81C167.572 52.718 167.633 52.5067 167.745 52.3602C169.497 50.1899 171.204 47.9855 173.03 45.8697C173.868 44.8953 174.795 43.8697 175.943 43.2428C179.091 41.5393 182.355 40.0061 185.609 38.4593C191.592 35.6144 197.684 32.9296 203.581 29.9552C211.741 25.836 219.751 21.4715 227.857 17.2706C230.964 15.6658 234.048 13.9282 237.376 12.8005C239.697 12.01 241.53 10.9095 243.24 9.42402C244.978 7.89764 245.161 6.19069 243.778 4.42922ZM15.2712 182.32C14.5761 180.9 15.186 180.034 16.065 179.077C22.2455 172.399 29.2505 166.488 36.7734 161.047C39.8636 158.808 42.9709 156.583 46.0952 154.379C46.8618 153.841 47.7306 153.415 48.5483 152.934C48.705 153.064 48.8583 153.193 49.0151 153.326C37.0528 162.276 27.5163 173.489 15.2712 182.32ZM17.646 183.877C18.8146 182.143 45.809 158.058 48.6369 156.314C48.0951 157.145 47.918 157.571 47.5977 157.881C39.3185 165.953 31.0324 174.021 22.7327 182.072C21.4585 183.305 20.1706 184.641 17.646 183.877ZM31.0188 188.668C30.1057 187.908 29.4345 187.349 28.6304 186.678C31.8603 182.978 34.9437 179.445 38.034 175.915C38.2861 176.096 38.5451 176.28 38.8006 176.46C36.2657 180.443 33.7309 184.423 31.0188 188.668ZM26.535 185.727C25.6049 185.445 24.5828 185.138 23.0871 184.685C27.8127 179.111 33.2232 174.447 38.3168 169.534C43.3797 164.648 48.4154 159.738 53.5738 154.927C52.9366 156.907 29.0631 183.956 26.535 185.727ZM51.584 143.997C51.4954 143.861 51.4103 143.728 51.3217 143.595C55.6623 141.694 59.9995 139.796 64.6672 137.756C65.042 138.795 65.3555 139.664 65.7337 140.699C60.8649 141.834 56.2211 142.917 51.584 143.997ZM129.549 136.076C129.77 137.779 129.17 138.41 127.617 138.383C124.632 138.342 121.654 138.4 118.673 138.359C111.927 138.267 105.191 138.137 98.4486 138.021C98.4248 137.786 98.3975 137.555 98.3736 137.32C108.697 135.207 119.116 135.459 129.549 136.076ZM126.898 147.037C125.811 151.2 124.608 155.34 123.528 159.5C123.215 160.699 122.479 161.166 121.201 161.588C118.101 162.61 115.409 162.27 112.898 160.198C113.934 156.713 116.731 154.457 119.143 151.984C121.63 149.439 124.23 146.979 126.915 144.342C127.443 145.238 127.123 146.181 126.898 147.037ZM112.261 173.687C116.428 178.109 116.499 178.116 115.266 183.659C114.874 185.431 114.472 187.199 114.06 188.968C113.361 188.961 112.697 188.988 112.022 189.22C111.021 189.053 109.999 188.743 108.99 188.777C104.721 188.913 100.445 189.056 96.1965 189.417C93.6207 189.635 93.556 189.792 92.6906 187.68C90.4692 182.245 88.292 176.804 86.0297 171.387C85.5323 170.191 85.6005 169.356 86.9735 168.743C90.2682 167.275 93.4027 165.404 96.8506 164.368C100.881 163.159 105.188 163.084 109.399 164.106C109.648 164.164 109.842 164.399 110.384 164.781C108.84 165.486 107.505 166.096 105.873 166.839C108.111 169.237 110.176 171.469 112.261 173.687ZM106.043 225.362C104.738 225.304 103.573 225.257 102.125 225.195C101.665 223.148 101.225 221.182 100.745 219.032C103.256 218.054 105.515 218.671 108.237 218.994C107.467 221.226 106.762 223.274 106.043 225.362ZM106.438 226.899C106.282 230.514 105.263 233.716 104.649 236.974C104.356 236.997 104.06 237.021 103.77 237.042C103.201 233.921 102.636 230.803 101.999 227.314C103.481 227.175 104.776 227.056 106.438 226.899ZM101.777 217.229C101.215 217.165 100.459 216.381 100.319 215.826C99.6751 213.23 99.222 210.603 98.619 207.604H110.51C109.907 210.848 109.317 214.047 108.646 217.618C106.258 217.505 103.999 217.488 101.777 217.229ZM110.281 204.061C107.184 204.112 104.033 204.129 100.881 204.218C99.3174 204.259 98.7893 203.226 98.3736 202.276C97.0823 199.298 95.9341 196.276 94.619 193.002C95.59 192.746 96.2953 192.409 97.0176 192.395C100.796 192.324 104.581 192.259 108.356 192.351C108.506 192.354 108.66 192.361 108.799 192.361C108.793 192.47 108.84 192.538 108.959 192.548C110.397 192.603 111.777 192.576 113.222 192.548C112.435 195.857 111.637 199.162 110.861 202.473C110.758 202.892 110.561 203.301 110.281 204.061ZM113.334 202.163C114.871 195.37 116.458 188.576 118.046 181.792C118.084 181.629 118.247 181.489 118.745 180.76C120.401 182.808 121.859 184.549 123.218 186.344C123.436 186.637 123.331 187.186 123.235 187.595C122.38 191.332 121.498 195.06 120.602 198.787C120.21 200.422 119.746 202.047 119.28 203.802H113.508C113.45 203.318 113.212 202.708 113.334 202.163ZM125.593 189.285C128.956 193.891 132.032 198.095 135.388 202.698C130.642 203.369 126.424 204.081 121.607 203.55C123.15 198.852 123.014 194.071 125.593 189.285ZM138.002 198.255C136.632 195.717 136.577 193.496 136.114 191.373C135.657 189.281 135.225 187.176 134.884 185.063C134.547 182.968 134.492 180.825 133.63 178.808C132.584 184.661 134.383 190.351 134.438 196.228C130.404 192.279 127.641 187.595 123.992 183.496C120.291 179.332 116.595 175.166 112.639 170.716C113.927 170.416 114.827 170.103 115.757 170.004C119.917 169.581 124.07 169.05 128.247 168.862C135.027 168.559 141.552 169.738 147.64 172.433C149.299 173.166 150.679 174.413 152.26 175.472C148.352 183.414 142.553 190.228 138.002 198.255ZM71.8051 183.039C70.708 180.951 71.0896 179.206 72.9158 177.734C74.9635 176.092 77.1202 174.559 79.3995 172.859C83.0042 178.474 84.6601 184.344 87.0757 189.928C85.58 190.637 73.6722 191.962 70.4389 191.826C70.7591 191.315 71.0181 190.848 71.3315 190.419C73.0589 188.034 73.1134 185.523 71.8051 183.039ZM85.9684 180.542C84.7691 177.54 82.8816 174.729 82.3024 171.537C84.3535 173.312 89.9172 186.198 90.3601 190.14C88.0161 186.855 87.1881 183.601 85.9684 180.542ZM80.4353 155.418C83.3041 156.617 88.7111 162.058 90.0195 164.42C89.4266 165.169 88.6293 165.649 87.8695 164.736C85.3381 161.667 82.9054 158.529 80.4353 155.418ZM100.241 160.147C97.1948 158.15 94.1454 156.157 91.1301 154.127C90.2136 153.507 89.3993 152.76 88.1966 151.8C92.0364 152.386 105.621 158.566 109.171 161.357C106.23 161.135 103.873 160.989 101.525 160.764C101.075 160.713 100.629 160.403 100.241 160.147ZM89.1098 136.672C93.539 133.653 121.051 131.367 127.719 133.326C114.895 132.88 102.285 134.277 89.1098 136.672ZM103.753 127.701C98.3702 128.884 93.6003 129.93 88.8236 130.979C92.861 127.674 97.866 127.265 103.753 127.701ZM90.8065 132.897C92.125 132.495 93.4606 132.148 94.8098 131.817C96.251 131.466 97.7025 131.17 99.1471 130.839C101.944 130.205 104.724 129.507 107.535 128.945C110.779 128.294 113.968 127.589 117.409 128.192C121.177 128.856 125.102 128.832 128.768 130.345C114.639 129.981 100.653 130.689 86.9497 134.222C88.2341 133.776 89.5016 133.296 90.8065 132.897ZM77.7811 147.439C84.8236 151.469 90.7145 156.777 97.699 161.922C95.7434 162.491 94.6395 162.811 93.2664 163.21C87.9548 158.065 82.6772 152.948 77.3962 147.834C77.5256 147.701 77.6551 147.571 77.7811 147.439ZM75.018 151.282C78.5921 156.352 82.1729 161.425 86.0229 166.883C84.2615 167.169 82.885 167.394 81.2291 167.663C78.3502 162.495 76.6909 156.876 74.2718 151.517C74.524 151.439 74.7693 151.357 75.018 151.282ZM71.2838 149.776C72.1628 151.933 73.0589 154.093 73.9209 156.256C75.2224 159.53 76.6125 162.788 77.7437 166.116C78.1866 167.425 78.2105 168.903 78.081 170.28C78.0163 170.982 77.1849 171.622 76.6091 172.416C75.2327 170.682 71.1986 154.328 71.2838 149.776ZM72.4252 167.281C72.7591 169.21 72.9772 171.155 73.2531 173.094C73.4814 174.682 73.4848 174.682 71.093 175.653C70.7285 169.963 70.3741 164.416 70.0232 158.873C70.289 158.825 70.5547 158.784 70.8204 158.74C71.3588 161.585 71.9312 164.426 72.4252 167.281ZM67.8188 152.467C68.1323 159.52 68.4389 166.573 68.7421 173.625C67.2362 170.304 66.5923 156.863 67.8188 152.467ZM68.5684 138.71C68.18 137.749 67.904 137.071 67.5565 136.219C68.6025 135.814 69.4474 135.483 70.289 135.153C70.4116 135.279 70.5377 135.408 70.6569 135.534C70.323 136.164 70.0164 136.802 69.6484 137.408C69.4202 137.779 69.0863 138.093 68.5684 138.71ZM66.8751 196.177C72.1561 195.298 77.5086 194.749 82.8339 194.061C84.1149 193.898 85.3926 193.612 86.6771 193.594C87.3585 193.591 88.4386 193.884 88.66 194.317C90.1762 197.315 91.5254 200.385 92.9018 203.434C92.9632 203.574 92.8439 203.782 92.7077 204.507C88.827 204.201 85.0587 204.017 81.3245 203.587C76.4865 203.029 71.6654 202.289 66.8478 201.591C63.3862 201.09 63.0455 200.909 61.0762 199.046C62.4799 197.237 64.7252 196.538 66.8751 196.177ZM79.9923 342.318C79.2428 342.379 78.2718 342.457 77.2394 342.546C77.0657 341.357 76.9055 340.273 76.7454 339.166C77.7641 338.74 78.7045 338.348 79.6414 337.96C79.6244 337.807 79.6142 337.653 79.6039 337.5C78.6227 337.367 77.6415 337.231 76.4933 337.074C76.0299 334.934 75.1509 332.955 77.5427 331.009C79.6346 329.302 78.8816 327.766 75.4916 326.498C75.2395 316.601 74.9737 306.577 74.7216 296.543C77.5256 295.065 79.529 297.102 82.1967 297.518V310.741C78.0094 310.938 76.9737 311.507 77.2599 313.463C77.5495 315.504 79.0248 316.185 82.391 315.735C83.6175 324.693 83.9582 333.561 79.9923 342.318ZM83.4846 336.168C83.6005 336.389 83.8015 336.607 83.8117 336.839C83.965 339.578 84.0979 342.328 84.2342 345.2C83.5392 345.35 82.902 345.483 81.9719 345.687C81.4847 342.294 82.4557 339.238 83.4846 336.168ZM79.42 347.898C79.1508 349.346 78.9089 350.665 78.667 351.983C78.4319 351.987 78.1968 351.994 77.9651 351.997C77.7028 350.699 77.4473 349.404 77.0997 347.69C78.098 347.782 78.5648 347.823 79.42 347.898ZM82.2853 295.668C80.8271 295.385 79.6176 295.119 78.3944 294.918C77.1543 294.714 75.9005 294.577 74.5274 294.393C73.059 271.726 68.8648 249.512 69.168 226.681C73.2156 225.911 76.9328 228.35 81.27 227.584C82.224 247.086 81.6789 266.281 82.2888 285.412C80.7045 285.726 79.5017 285.968 78.2956 286.206C78.3024 286.4 78.3059 286.598 78.3161 286.792C79.4847 286.847 80.6499 286.894 81.9719 286.952C82.868 289.79 82.3433 292.591 82.2853 295.668ZM78.0435 220.902H80.8101V226.149C78.8544 225.826 76.9669 225.393 75.0555 225.233C73.1918 225.076 71.3009 225.199 69.4679 225.199C69.0318 223.171 69.0318 223.171 71.7574 221.7C70.8375 221.366 70.0811 221.093 68.9806 220.695C68.7183 215.72 68.4457 210.623 68.1561 205.131C72.4831 205.731 76.357 206.265 80.4728 206.834V219.693C79.7164 219.952 78.834 220.252 77.9481 220.555C77.9754 220.671 78.006 220.783 78.0435 220.902ZM65.0897 225.611C64.0506 225.57 63.0216 225.318 61.9927 225.165C61.962 225.001 61.9382 224.834 61.9177 224.674C62.8717 224.303 63.8019 223.812 64.8035 223.618C65.2601 223.529 66.18 223.921 66.3299 224.286C66.6911 225.127 66.0028 225.648 65.0897 225.611ZM57.5294 209.703C57.434 208.378 57.141 207.063 57.0251 205.737C56.94 204.787 57.0081 203.823 57.0081 202.616C59.9961 203.312 62.5548 203.901 65.335 204.545C65.6553 210.248 65.9756 215.894 66.2788 221.335C63.853 222.047 61.8292 222.647 59.6929 223.27C58.5038 222.565 58.2312 221.393 58.1631 220.105C57.9757 216.633 57.7781 213.168 57.5294 209.703ZM59.0967 226.323C61.4748 226.732 63.8325 227.134 66.3674 227.57C66.4083 227.945 66.5207 228.463 66.5207 228.981C66.5105 240.227 67.6076 251.413 68.7592 262.598C69.8017 272.704 70.7898 282.816 71.7949 292.921C71.8392 293.358 71.8017 293.794 71.8017 294.465C68.5309 294.901 66.1425 293.593 63.2772 292.356C61.8905 270.493 60.5004 248.49 59.0967 226.323ZM66.9773 316.832C65.7098 309.616 64.1732 302.437 63.9415 294.928C66.582 295.542 69.0352 296.111 71.846 296.761C73.2668 310.318 72.0981 324.147 73.7676 338.035C72.6978 338.369 71.8187 338.645 70.6228 339.019C69.3758 331.418 68.2481 324.117 66.9773 316.832ZM73.9823 340.205C73.2838 341.255 72.4593 341.299 71.1305 341.006C72.0266 340.185 72.7216 339.793 73.9823 340.205ZM81.1167 401.782C80.9157 401.41 80.5954 401.056 80.5307 400.664C77.5461 382.61 74.0197 364.624 71.6314 346.423C74.524 346.733 74.5614 346.73 74.8067 348.621C75.8561 356.593 76.9192 364.566 77.9072 372.542C78.7794 379.629 79.5358 386.726 80.391 393.812C80.6159 395.673 81.0247 397.509 81.3075 399.359C81.4233 400.136 81.4336 400.923 81.4949 401.703C81.3654 401.73 81.2428 401.758 81.1167 401.782ZM83.8492 392.8C83.0451 386.422 82.006 380.061 81.5528 373.67C81.2462 369.278 81.9072 364.855 83.0451 360.535C83.1576 360.116 83.2393 359.694 82.8918 359.155C82.1967 361.326 81.5017 363.493 80.7351 365.871C78.207 360.712 78.65 352.096 81.6823 347.438C82.1354 347.946 82.5988 348.341 82.8884 348.811C84.1081 350.771 84.3466 352.869 83.8288 355.033C83.5732 356.096 82.5443 357.234 84.4897 357.939C84.7044 358.014 84.6294 358.77 84.6567 359.213C85.1882 367.578 85.7469 375.932 86.2273 384.293C86.5408 389.816 86.6226 395.346 87.0008 400.862C87.2972 405.127 87.9002 409.373 88.3363 413.631C88.8542 418.691 89.3619 423.754 89.832 428.817C89.8797 429.27 89.6855 429.744 89.6038 430.207C89.3823 430.224 89.1506 430.241 88.9258 430.258C88.6873 429.185 88.3602 428.122 88.2205 427.042C86.7418 415.631 85.2904 404.214 83.8492 392.8ZM95.096 405.7C94.694 399.294 94.4248 392.889 94.142 386.48C93.8286 379.349 93.6242 372.215 93.2664 365.094C93.0552 361.012 92.6395 356.937 92.3465 352.862C92.2954 352.171 92.4044 351.469 92.4487 350.668C93.9342 350.491 95.2868 350.328 97.0244 350.116C97.2766 351.697 97.6786 353.07 97.7024 354.447C97.9545 367.455 97.9409 380.47 98.3941 393.472C98.8745 407.277 99.8251 421.072 100.459 434.871C100.68 439.679 100.605 444.5 100.598 449.314C100.592 450.155 100.234 450.99 100.006 451.961C97.9307 451.174 97.791 449.747 97.7161 448.339C97.4742 443.644 97.3379 438.943 97.0346 434.251C96.4316 424.732 95.6922 415.219 95.096 405.7ZM96.4589 461.297C94.3839 461.15 92.8303 461.041 91.2426 460.929C90.9973 458.895 92.1046 457.528 93.3993 456.292C94.4725 455.266 95.6446 455.559 95.958 456.963C96.2408 458.247 96.2715 459.576 96.4589 461.297ZM92.4146 385.768C92.7111 393.431 92.9052 401.107 93.6446 408.735C94.711 419.757 95.1233 430.793 95.3959 441.842C95.4606 444.493 95.7501 447.14 95.4401 449.92C95.1812 449.529 94.7451 449.154 94.6974 448.741C94.0637 442.98 93.5015 437.212 92.895 431.447C91.9547 422.572 90.9598 413.703 90.0501 404.827C89.7128 401.546 89.4437 398.248 89.3449 394.957C89.0041 383.993 87.9309 373.053 88.2069 362.068C88.2853 358.791 87.6515 355.496 87.3653 352.208C87.3074 351.612 87.3585 351.002 87.3585 350.181C88.2 350.181 88.6941 350.14 89.1779 350.195C89.5526 350.242 89.9206 350.413 90.5033 350.593C90.8985 353.837 91.5117 357.091 91.648 360.365C92.0092 368.832 92.091 377.302 92.4146 385.768ZM82.9123 458.039C82.7521 458.247 82.1082 458.155 81.5971 458.213C82.4148 455.549 84.6941 453.154 87.2324 452.145C85.8048 454.118 84.4012 456.104 82.9123 458.039ZM87.6787 461.205C86.7043 460.183 86.166 459.614 85.5834 459C86.6498 456.833 87.6549 454.803 90.786 453.583C90.3329 456.564 88.5067 458.445 87.6787 461.205ZM64.1902 493.48C57.3147 493.514 50.4392 493.296 43.5637 493.153C43.4002 493.15 43.2434 492.983 42.838 492.754C43.2503 492.4 43.5603 491.896 43.9862 491.8C47.0594 491.116 50.1224 490.247 53.2501 489.943C60.2823 489.259 67.2396 488.226 74.0981 486.724C76.1764 486.267 78.1491 485.262 80.0435 484.308C83.6788 482.479 87.4573 480.782 90.2136 477.838C91.1915 476.785 92.0535 475.647 93.2426 474.22C93.9921 476.646 92.6463 478.233 91.4436 479.657C87.9445 483.818 83.3518 486.652 77.8016 488.373C74.7318 489.323 71.9073 490.884 68.9227 492.07C67.4032 492.679 65.7745 493.473 64.1902 493.48ZM86.6192 493.616C82.5409 493.579 78.466 493.565 74.3877 493.518C74.1356 493.514 73.8937 493.269 72.892 492.734C75.0452 491.981 76.5512 491.361 78.1184 490.918C84.4727 489.109 89.798 485.974 93.6446 481.061C94.6974 479.712 95.28 478.056 96.0057 476.516C96.2987 475.882 96.3907 475.174 96.7382 473.899C97.4265 474.669 98.1079 475.106 98.0466 475.419C97.1335 480.22 96.745 485.208 92.1386 488.737C90.953 489.644 90.0535 490.874 89.1609 492.042C88.5067 492.884 87.9173 493.627 86.6192 493.616ZM100.81 493.03C98.0295 494.035 95.1437 493.725 91.5492 493.446C92.5509 492.236 93.0313 491.337 93.8115 490.778C98.1385 487.681 99.3242 483.317 100.118 478.758C100.271 477.862 100.053 476.836 101.079 476.029C102.074 483.787 102.319 487.293 100.81 493.03ZM99.0653 456.738C100.554 457.614 101.566 459.12 102.207 461.491C99.2152 461.528 98.469 460.295 99.0653 456.738ZM104.486 492.683V481.146C106.578 483.088 108.091 484.823 109.965 486.141C111.896 487.497 114.183 488.458 116.326 489.576C118.411 490.662 121.085 490.744 122.912 492.523C120.877 493.184 107.351 493.269 104.486 492.683ZM103.385 457.358C105.416 458.019 106.82 459.324 108.343 461.307C104.411 461.695 104.704 458.779 103.385 457.358ZM141.204 489.436C143.061 489.746 144.894 490.185 146.717 490.639C148.499 491.078 150.25 491.603 152.015 492.09C151.971 492.291 151.93 492.492 151.885 492.696C145.913 493.531 140.754 491.695 135.893 488.812C137.821 488.127 139.463 489.143 141.204 489.436ZM125.16 489.978C127.637 489.586 133.821 491.139 135.576 492.724C129.453 493.695 128.128 493.327 125.16 489.978ZM119.382 483.708C124.118 484.973 128.843 486.24 133.576 487.507C133.61 487.729 133.644 487.954 133.671 488.179C133.3 488.386 132.874 488.819 132.56 488.761C127.821 487.906 123.256 486.632 119.14 484.342C119.225 484.128 119.307 483.92 119.382 483.708ZM120.281 488.032C115.886 487.732 109.546 483.576 108.172 479.974C112.268 482.7 116.329 485.402 120.281 488.032ZM113.852 458.714C113.76 458.717 113.617 458.752 113.583 458.711C112.465 457.426 111.358 456.135 110.247 454.844C113.845 456.057 114.544 456.932 113.852 458.714ZM110.298 458.23C107.665 457.736 106.336 456.636 105.348 453.811C106.902 455.201 108.459 456.591 110.298 458.23ZM143.668 220.558C142.778 221.352 141.627 221.114 140.434 221.001C137.358 220.718 134.271 220.504 131.184 220.32C130.37 220.272 129.538 220.432 128.714 220.497C128.693 220.691 128.673 220.889 128.656 221.083C129.348 221.202 130.032 221.369 130.734 221.43C133.218 221.655 135.93 221.062 137.831 223.274C138.145 223.638 139.143 223.543 139.824 223.648C140.891 223.815 141.957 223.969 143.17 224.153C143.17 225.434 143.248 226.579 143.163 227.713C142.714 233.321 142.148 238.919 141.766 244.531C141.143 253.6 140.7 262.677 140.053 271.74C139.661 277.334 139.044 282.911 138.526 288.479C136.349 289.177 135.143 286.56 132.618 287.801C133.729 288.373 134.516 288.799 135.317 289.194C138.066 290.523 138.158 290.533 137.739 293.385C136.748 300.196 135.64 306.993 134.611 313.797C134.056 317.497 133.569 321.204 133.037 324.992C131.647 325.003 131.32 324.141 131.368 323.432C131.511 321.197 130.397 319.272 129.702 317.248C128.881 314.863 128.101 312.458 127.099 310.134C126.451 308.652 125.467 307.289 124.618 305.879C124.881 310.679 126.911 315.098 128.308 319.65C128.785 321.18 128.976 322.509 127.375 323.759C126.652 324.321 126.434 325.5 126.227 326.437C126.141 326.829 126.792 327.749 126.898 327.725C129.068 327.2 130.141 329.722 132.451 329.098C132.305 331.967 132.291 334.716 131.954 337.439C131.862 338.232 130.83 338.931 130.23 339.677C126.223 338.611 122.731 336.502 118.482 337.401C120.864 338.12 123.276 338.778 125.617 339.595C126.567 339.933 127.784 340.474 128.138 341.207C128.792 342.556 129.896 343.752 129.453 345.578C128.172 350.876 127.32 356.253 126.155 361.578C125.143 366.201 123.886 370.787 122.837 375.407C122.176 378.283 121.712 381.189 121.123 384.078C120.993 384.736 120.724 385.37 120.51 386.013C120.288 385.99 120.073 385.962 119.852 385.942C119.951 384.838 120.06 383.734 120.159 382.63C119.876 383.1 119.453 383.557 119.399 384.044C118.823 389.104 118.619 394.208 117.705 399.209C116.792 404.207 115.239 409.117 113.859 414.044C112.264 419.751 110.554 425.437 108.881 431.127C108.782 431.454 108.588 431.754 107.992 431.989C109.74 417.597 111.76 403.223 113.154 388.804C114.557 374.31 116.407 359.85 117.879 345.36C117.579 345.302 117.283 345.244 116.983 345.186C116.745 345.561 116.349 345.922 116.295 346.321C115.484 351.987 114.622 357.646 113.968 363.326C113.079 371.046 112.425 378.784 111.549 386.508C110.452 396.173 109.239 405.833 108.057 415.488C107.218 422.316 106.374 429.144 105.477 435.968C105.123 438.677 104.626 441.372 103.706 444.132C103.59 443.784 103.355 443.44 103.368 443.099C103.484 439.277 103.607 435.447 103.808 431.624C103.954 428.868 104.282 426.122 104.418 423.365C104.663 418.207 104.799 413.049 105.052 407.894C105.365 401.39 105.655 394.886 106.118 388.392C106.833 378.422 107.661 368.457 108.513 358.501C108.721 356.109 109.242 353.745 109.614 351.367C109.74 350.552 109.893 349.616 108.591 349.554C107.508 349.5 107.143 350.157 107.089 351.135C106.646 358.603 106.149 366.065 105.651 373.533C105.205 380.375 104.684 387.213 104.295 394.051C103.76 403.489 103.338 412.933 102.84 422.367C102.779 423.573 102.558 424.769 102.247 425.945C99.8625 420.214 99.2765 358.528 99.3549 349.922C100.673 349.51 101.985 349.101 103.304 348.692C103.273 348.478 103.246 348.266 103.219 348.052C102.619 347.929 101.999 347.653 101.42 347.711C100.135 347.84 98.8609 348.082 97.6104 348.386C94.6974 349.084 91.9683 348.825 89.6174 347.346C88.9496 345.374 88.3125 343.503 87.6754 341.629C87.4505 341.687 87.1336 341.769 86.4829 341.939C86.4829 340.062 86.6498 338.369 86.442 336.709C86.1592 334.461 87.2052 332.29 86.0945 329.899C85.2563 328.076 85.6243 325.65 86.0161 323.575C86.6703 320.079 87.8866 316.672 88.6566 313.19C89.4879 309.439 90.108 305.65 90.7622 301.869C90.8201 301.521 90.4419 301.133 90.3329 300.744C90.2205 300.366 89.9956 299.705 90.1489 299.606C92.1829 298.376 91.4129 296.536 91.7264 294.938C91.5356 294.87 91.338 294.799 91.1472 294.727C90.7077 295.64 90.0467 296.519 89.8763 297.47C88.7997 303.633 87.8321 309.817 86.81 315.988C86.5953 317.241 86.3057 318.482 85.6175 319.691C85.0178 312.448 84.4591 305.252 84.8134 297.875C86.2035 297.719 87.43 297.576 88.7452 297.426C88.7724 294.734 86.1524 296.557 84.9803 295.061C84.0775 273.286 84.4829 250.949 83.9855 228.469C87.0893 228.469 90.3772 229.955 92.8814 227.369C92.2272 226.064 91.3107 226.64 90.4862 226.776C88.7145 227.073 87.0076 227.294 85.2325 226.524C84.1661 226.064 83.6209 225.478 83.5494 224.551C83.4574 223.328 83.5289 222.098 83.5289 220.562C85.7981 220.514 87.8696 220.381 89.9309 220.459C91.6889 220.524 92.9018 219.942 94.251 218.238C90.3976 218.637 87.103 218.981 83.4097 219.362C83.1133 215.359 83.0758 211.512 83.3994 207.519C87.43 207.519 91.2835 207.468 95.1301 207.574C95.74 207.587 96.6905 208.208 96.8541 208.715C97.7774 211.512 98.5065 214.361 99.2936 217.155C97.9784 217.645 97.0347 217.999 96.0909 218.35C96.1216 218.473 96.159 218.592 96.1931 218.715C97.2527 218.759 98.3123 218.804 99.6785 218.861C99.8591 219.942 100.026 220.974 100.196 221.999C100.36 222.96 100.541 223.914 100.745 225.069C99.2629 225.41 97.9171 225.723 96.5679 226.04C96.5679 226.245 96.5679 226.452 96.5679 226.66C97.9409 226.912 99.314 227.161 101.035 227.478C101.518 230.057 101.968 232.766 102.558 235.447C102.851 236.813 103.546 238.115 103.764 239.485C103.927 240.493 103.692 241.573 103.488 242.599C103.164 244.234 102.714 245.852 102.316 247.478C102.541 247.519 102.769 247.566 102.99 247.611C104.2 243.147 105.406 238.684 106.612 234.221C107.038 232.66 107.552 231.12 107.896 229.546C108.196 228.183 108.442 226.79 108.486 225.403C108.707 219.158 111.082 213.414 113.249 207.499H119.937C120.118 209.846 118.775 215.42 117.293 218.541C116.138 218.623 114.905 218.708 113.668 218.8C113.648 218.913 113.624 219.022 113.603 219.134C114.605 219.396 115.6 219.655 116.595 219.914C116.646 221.659 116.091 223.229 114.625 225.502C113.624 226.091 112.189 224.698 111.215 226.47C112.724 227.021 114.189 227.553 115.849 228.163C114.578 229.059 113.951 229.907 114.861 231.274C115.215 231.812 114.809 232.793 114.653 233.553C114.336 235.089 113.951 236.616 113.597 238.149L113.593 238.152C113.467 238.963 113.344 239.778 113.218 240.589C113.433 240.585 113.637 240.585 113.845 240.585C113.767 239.767 113.678 238.957 113.6 238.146C114.016 237.624 114.646 237.154 114.823 236.568C115.559 234.163 116.162 231.727 116.803 229.297C117.426 226.94 119.174 225.918 121.825 226.425C122.898 226.633 123.93 226.981 125.003 227.175C125.678 227.297 126.441 227.406 127.075 227.243C127.518 227.124 128.087 226.534 128.08 226.163C128.077 225.819 127.395 225.205 126.993 225.185C124.727 225.083 122.448 225.045 120.189 225.141C118.084 225.233 117.331 224.705 117.637 222.916C117.804 221.965 118.121 221.035 118.363 220.122C121.218 219.11 124.067 220.984 126.837 219.468C125.538 219.359 124.237 219.287 122.942 219.137C121.682 218.991 120.435 218.773 118.959 218.555C119.845 214.807 120.68 211.264 121.576 207.451C128.84 206.671 136.356 206.623 143.654 203.894V220.558H143.668ZM145.456 199.029C143.954 198.893 143.231 199.703 142.448 200.766C141.794 201.659 140.441 201.686 138.908 201.516C142.898 192.559 149.081 184.964 153.681 176.184C154.911 176.924 156.097 177.326 156.747 178.085C158.972 180.699 161.269 183.308 163.054 186.164C165.333 189.813 167.429 193.605 169.081 197.509C171.476 203.162 173.503 208.943 175.449 214.735C175.936 216.187 175.52 217.887 175.52 219.843C165.882 219.318 157.415 216.272 148.918 213.618C148.087 210.569 148.175 210.112 150.826 208.596C155.936 205.673 161.129 202.862 166.277 199.983C167.061 199.543 168.308 199.499 168.263 198.031C161.129 199.945 155.698 204.344 148.959 207.165C148.397 204.49 148.955 202.157 149.167 199.485C147.896 199.329 146.676 199.138 145.456 199.029ZM167.562 240.629C160.822 232.337 154.236 224.602 148.179 216.524C148.383 216.31 148.581 216.095 148.785 215.88C153.006 217.131 157.18 218.579 161.476 219.567C165.793 220.558 170.233 221.093 174.798 221.86C175.125 223.652 174.611 225.488 174.055 227.226C173.04 230.384 171.82 233.502 170.458 236.555C169.868 237.894 168.72 239.042 167.562 240.629ZM144.574 165.421C150.54 166.614 155.293 169.551 159.688 173.176C165.027 177.574 168.403 183.107 171.36 188.896C172.359 190.838 173.149 192.906 174.42 194.698C177.909 199.618 179.002 205.141 179.612 210.746C180.263 216.684 180.839 222.657 179.34 228.589C179.186 229.192 179.077 229.815 178.853 230.405C177.279 234.493 174.492 237.986 171.888 241.56C171.49 242.105 170.768 242.466 170.202 242.905C169.987 242.749 169.773 242.592 169.558 242.435C173.166 238.197 174.652 233.168 176.079 228.204C177.537 223.137 178.982 217.884 177.371 212.65C174.798 204.32 171.565 196.201 166.989 188.532C164.979 185.155 163.251 181.67 160.696 178.539C159.177 176.671 157.33 175.292 155.282 174.034C153.313 172.828 151.337 171.632 149.289 170.535C143.371 167.37 136.71 166.75 130.043 166.232C129.177 166.164 128.274 166.471 127.392 166.569C121.964 167.189 116.533 167.806 111.113 168.406C110.939 168.426 110.745 168.293 110.442 168.191C110.7 166.607 112.281 166.488 113.488 166.198C115.971 165.592 118.499 164.985 121.058 164.747C128.908 164.024 136.765 163.864 144.574 165.421ZM161.62 57.832C159.681 67.6342 155.862 76.9117 152.519 86.3324C151.136 90.2335 150.305 94.2913 149.177 98.2708C147.194 105.272 145.235 112.284 143.153 119.262C140.581 127.875 137.835 136.451 135.283 145.071C134.186 148.767 133.385 152.536 132.445 156.273C132.363 156.621 132.254 156.965 132.148 157.306C131.048 160.845 129.917 161.404 125.382 160.471C126.268 157.2 127.147 153.926 128.032 150.651C128.83 147.715 129.586 144.774 130.4 141.844C131.508 136.607 132.959 131.412 134.996 126.407C135.146 126.042 135.382 125.776 135.664 125.603C137.194 121.303 138.717 117 140.243 112.696C140.458 112.104 140.72 111.521 140.904 110.918C143.191 103.535 145.555 96.1652 147.725 88.7548C149.167 83.8418 150.339 78.8674 151.599 73.9135C152.744 69.3957 153.773 64.8574 155.006 60.3601C155.8 57.4436 157.064 54.6634 158.764 51.9071C161.405 53.4369 162.165 55.0859 161.62 57.832ZM236.811 10.3303C233.23 12.2587 229.591 14.0986 225.99 15.9827C219.288 19.4852 212.617 23.0217 205.902 26.4868C201.85 28.5719 197.731 30.5514 193.636 32.5718C187.449 35.6246 181.224 38.616 175.088 41.7369C173.377 42.6023 171.909 43.8425 169.889 45.2087C169.228 44.4592 168.584 43.6892 167.882 42.9669C166.887 41.9447 166.89 41.0487 168.107 40.3093C169.425 39.5121 170.815 38.8136 172.202 38.1083C178.873 34.7217 185.575 31.3793 192.219 27.962C194.719 26.681 197.121 25.2193 199.581 23.8667C208.406 18.998 217.629 14.797 227.015 10.8754C229.993 9.63526 232.882 8.22814 235.829 6.93003C236.422 6.67109 237.093 6.55866 237.921 6.32698C238.886 9.12079 238.93 9.18212 236.811 10.3303Z" fill="black"/>
<path fill-rule="evenodd" clip-rule="evenodd" d="M115.664 270.648C114.07 264.3 112.513 257.943 111.01 251.578C110.717 250.345 110.23 249.05 111.678 247.909C112.176 247.524 112.022 246.474 112.199 245.534C111.215 245.701 110.608 245.806 109.975 245.912C109.78 244.999 109.62 244.243 109.426 243.312C108.935 243.588 108.792 243.636 108.796 243.674C109.048 246.43 108.523 249.285 110.233 251.861C110.557 252.345 110.731 253.166 110.492 253.646C109.739 255.203 110.462 256.597 110.854 258.021C111.923 261.912 113.075 265.779 114.138 269.67C116.175 277.118 118.162 284.572 120.192 292.02C120.301 292.426 120.632 292.787 120.857 293.168C121.095 292.255 120.993 291.475 120.799 290.719C119.099 284.031 117.347 277.349 115.664 270.648Z" fill="black"/>
<path fill-rule="evenodd" clip-rule="evenodd" d="M123.678 345.425C123.416 349.687 123.337 353.96 122.83 358.198C122.036 364.835 120.901 371.445 120.032 378.079C119.855 379.448 120.104 380.869 120.203 382.266C120.424 380.746 120.635 379.237 120.905 377.738C121.927 372.123 123.112 366.518 123.974 360.883C124.768 355.687 125.235 350.451 125.821 345.231C125.879 344.71 125.933 344.107 125.695 343.664C125.473 343.255 124.772 342.669 124.444 342.74C122.799 343.105 121.208 343.667 119.593 344.158C119.62 344.359 119.647 344.556 119.671 344.761C120.884 344.958 122.097 345.159 123.678 345.425Z" fill="black"/>
<path fill-rule="evenodd" clip-rule="evenodd" d="M120.217 382.544C120.213 382.449 120.206 382.353 120.2 382.258C120.189 382.333 120.176 382.411 120.166 382.489C120.179 382.503 120.217 382.544 120.217 382.544Z" fill="black"/>
<path fill-rule="evenodd" clip-rule="evenodd" d="M95.1979 297.14C96.462 297.375 97.726 297.613 98.9594 297.841C98.8367 298.881 98.7413 299.722 98.6425 300.56C98.772 300.557 98.8946 300.557 99.0275 300.553C99.8963 299.085 100.772 297.623 101.801 295.889C100.452 294.796 100.615 293.324 101.927 291.804C102.217 291.467 102.36 291 102.448 290.571C103.239 286.911 104.043 283.245 104.762 279.569C105.113 277.767 105.283 275.927 105.542 274.108C105.334 274.077 105.126 274.043 104.915 274.016C103.941 278.251 102.966 282.489 101.975 286.728C101.447 288.99 100.789 291.232 100.38 293.508C100.097 295.061 99.4023 295.923 97.5488 295.988C96.7448 296.019 95.9611 296.359 95.1775 296.557C95.1809 296.751 95.1877 296.949 95.1979 297.14Z" fill="black"/>
<path fill-rule="evenodd" clip-rule="evenodd" d="M98.7178 304.733C97.6719 304.525 96.5884 304.314 95.396 304.082C94.4249 309.768 92.5612 315.336 92.66 321.124C95.3244 321.785 96.5373 321.465 96.9598 320.061C97.3891 318.644 96.5714 318.01 93.4811 317.533C94.074 314.14 94.6327 310.937 95.1949 307.721C98.3874 308.368 98.8678 307.925 98.7178 304.733Z" fill="black"/>
<path fill-rule="evenodd" clip-rule="evenodd" d="M104.023 336.546C103.692 336.399 103.372 336.137 103.045 336.133C99.7571 336.099 96.459 336.062 93.1712 336.14C92.609 336.154 91.8901 336.556 91.5392 336.978C90.5443 338.181 89.7913 337.557 88.8067 336.699C88.7556 337.595 88.7147 338.348 88.667 339.203C89.437 339.271 90.0877 339.503 90.5818 339.336C93.0519 338.515 95.5732 338.116 98.2069 338.385C98.4965 338.413 98.9496 338.426 99.0723 338.273C100.323 336.716 102.302 337.346 104.023 336.546Z" fill="black"/>
<path fill-rule="evenodd" clip-rule="evenodd" d="M121.119 294.741C121.422 295.787 121.661 296.595 122.018 297.811C122.25 296.925 122.369 296.503 122.489 296.046C125.889 295.48 129.282 294.891 132.696 294.373C134.076 294.165 135.132 293.842 134.829 291.961C132.451 292.533 130.328 293.106 128.165 293.542C125.943 293.995 123.701 294.308 121.119 294.741Z" fill="black"/>
<path fill-rule="evenodd" clip-rule="evenodd" d="M118.114 316.543C117.392 318.379 116.618 320.202 116.063 322.083C115.766 323.081 115.794 324.185 115.848 325.231C115.872 325.633 116.393 326.011 117.02 326.832C117.296 325.8 117.582 325.251 117.562 324.713C117.48 322.73 117.307 320.764 119.576 319.503C119.79 319.384 119.974 319.078 120.002 318.846C120.114 317.555 120.179 316.263 120.264 314.914C118.509 315.667 118.468 315.65 118.114 316.543Z" fill="black"/>
<path fill-rule="evenodd" clip-rule="evenodd" d="M115.01 301.735C114.527 301.476 113.283 301.64 112.949 302.015C112.23 302.815 111.74 303.848 111.433 304.853C111.13 305.848 111.886 306.522 112.888 306.907C113.862 307.279 114.659 307.003 115.184 306.222C115.682 305.476 116.097 304.682 116.707 303.64C116.138 302.962 115.729 302.117 115.01 301.735Z" fill="black"/>
<path fill-rule="evenodd" clip-rule="evenodd" d="M94.5747 290.399C94.8507 288.563 95.0926 286.719 95.2017 284.873C95.2528 284.052 94.9495 283.217 94.7417 282.031C92.936 284.713 91.9887 289.387 92.5407 291.983C94.309 291.677 94.3839 291.673 94.5747 290.399Z" fill="black"/>
<path fill-rule="evenodd" clip-rule="evenodd" d="M103.379 340.237C102.183 339.893 100.957 339.645 99.1882 339.219C99.7197 340.796 100.013 341.979 100.524 343.082C100.967 344.05 101.945 344.755 103.096 344.302C103.866 343.999 104.629 343.202 104.882 342.479C105.246 341.457 104.578 340.588 103.379 340.237Z" fill="black"/>
<path fill-rule="evenodd" clip-rule="evenodd" d="M99.2628 334.833C99.6444 333.222 100.026 331.617 100.322 330.363C99.0959 329.355 98.1692 328.588 97.1164 327.723C95.8557 330.663 96.8643 333.999 99.2628 334.833Z" fill="black"/>
<path fill-rule="evenodd" clip-rule="evenodd" d="M109.835 338.771C110.009 338.42 110.169 337.994 110.411 337.616C111.232 336.342 110.874 334.325 109.474 333.606C108.898 333.313 107.866 333.204 107.341 333.48C106.483 333.926 105.992 334.812 106.612 335.759C107.11 336.519 107.675 337.241 108.285 337.933C108.503 338.185 108.926 338.294 109.835 338.771Z" fill="black"/>
<path fill-rule="evenodd" clip-rule="evenodd" d="M108.966 317.876C109.218 316.34 108.339 315.58 106.305 315.246C106.203 315.423 106.046 315.767 105.801 316.043C105.443 316.452 105.017 316.824 104.598 317.219C104.963 318.541 105.481 319.757 107.195 319.747C108.36 319.74 108.813 318.803 108.966 317.876Z" fill="black"/>
<path fill-rule="evenodd" clip-rule="evenodd" d="M128.212 302.35C128.243 303.164 129.293 303.972 130.24 303.893C131.31 303.815 132.846 302.255 132.771 300.851C132.308 300.629 131.654 300.088 130.928 300.009C129.722 299.87 128.172 301.341 128.212 302.35Z" fill="black"/>
<path fill-rule="evenodd" clip-rule="evenodd" d="M113.542 345.41C111.365 345.897 109.12 346.32 107.413 347.754C107.467 347.982 107.518 348.211 107.573 348.436C109.842 347.999 112.128 347.594 114.377 347.083C114.666 347.018 115.048 346.166 114.952 346.085C114.574 345.758 113.947 345.321 113.542 345.41Z" fill="black"/>
<path fill-rule="evenodd" clip-rule="evenodd" d="M112.908 336.712C112.087 336.64 111.368 337.346 111.296 338.3C111.215 339.441 112.056 340.473 113.365 340.453C114.118 340.446 115.119 340.071 115.535 339.554C116.022 338.95 113.937 336.807 112.908 336.712Z" fill="black"/>
<path fill-rule="evenodd" clip-rule="evenodd" d="M116.439 295.285C114.023 295.68 111.614 296.079 109.198 296.478C111.141 297.619 113.955 297.731 115.532 297.064C116.037 296.849 116.343 296.253 116.742 295.83C116.643 295.65 116.537 295.462 116.439 295.285Z" fill="black"/>
<path fill-rule="evenodd" clip-rule="evenodd" d="M136.352 223.645C134.189 224.312 132.42 224.871 130.417 225.495C133.054 227.314 135.845 226.483 136.352 223.645Z" fill="black"/>
<path fill-rule="evenodd" clip-rule="evenodd" d="M120.118 285.014C123.729 285.457 127.051 285.87 130.908 286.347C128.295 284.537 122.346 283.853 120.118 285.014Z" fill="black"/>
<path fill-rule="evenodd" clip-rule="evenodd" d="M115.051 331.807C114.935 331.756 114.06 332.638 114.152 332.809C114.455 333.343 115.058 333.745 115.767 334.417C116.254 333.691 116.837 333.078 116.724 332.948C116.298 332.464 115.678 332.073 115.051 331.807Z" fill="black"/>
<path fill-rule="evenodd" clip-rule="evenodd" d="M123.882 301.945C123.859 301.938 123.841 301.924 123.814 301.914C123.824 301.938 123.835 301.962 123.845 301.982L123.882 301.945Z" fill="black"/>
<path fill-rule="evenodd" clip-rule="evenodd" d="M122.7 299.289C122.393 300.447 122.635 301.378 123.814 301.899C123.443 301.03 123.071 300.161 122.7 299.289Z" fill="black"/>
<path fill-rule="evenodd" clip-rule="evenodd" d="M124.543 305.741C124.543 305.748 124.608 305.683 124.608 305.683C124.571 305.639 124.543 305.591 124.509 305.547C124.516 305.612 124.533 305.676 124.543 305.741Z" fill="black"/>
<path fill-rule="evenodd" clip-rule="evenodd" d="M123.845 301.977C123.848 301.984 123.848 301.994 123.848 302.004C123.855 301.987 123.862 301.973 123.869 301.956C123.882 301.943 123.845 301.977 123.845 301.977Z" fill="black"/>
<path fill-rule="evenodd" clip-rule="evenodd" d="M124.506 305.544C124.291 304.358 124.066 303.179 123.848 302.004C123.215 303.329 123.749 304.457 124.506 305.544Z" fill="black"/>
</svg>
