<svg width="220" height="400" viewBox="0 0 220 400" fill="none" xmlns="http://www.w3.org/2000/svg">
<path fill-rule="evenodd" clip-rule="evenodd" d="M219.338 316.577C218.314 309.663 217.161 302.703 215.319 295.97C213.205 288.238 210.478 280.662 207.65 273.148C204.361 264.401 199.646 256.455 193.382 249.428C189.241 244.784 185.462 239.821 181.409 235.097C179.211 232.538 176.71 230.231 174.462 227.71C170.22 222.961 164.804 220.935 158.747 219.181C147.449 215.917 136.122 212.947 124.585 210.728C121.703 210.17 118.825 209.524 116.031 208.638C112.033 207.371 96.8839 207.38 94.6562 209.461C94.5849 209.528 94.2744 209.335 93.9892 209.23C93.9892 202.467 94.0773 195.675 93.9682 188.887C93.729 174.066 93.4983 159.244 93.0452 144.43C92.718 133.796 91.8328 123.178 91.5936 112.543C91.4258 104.979 91.6399 97.4063 93.2131 89.9137C93.8172 87.0651 93.6661 84.0908 95.5162 81.5863C96.3133 80.5039 97.0139 79.3334 97.681 78.1504C101.776 70.8759 105.908 63.6223 109.885 56.2849C112.738 51.0199 115.355 45.6332 118.099 40.3095C121.829 33.0895 125.583 25.8864 129.321 18.6706C131.394 14.6725 133.5 10.6871 135.501 6.65134C136.659 4.30621 136.529 4.00838 134.544 2.40581C134.016 1.98209 133.454 1.58765 132.879 1.23525C129.569 -0.76587 128.289 -0.430228 126.334 2.93853C121.74 10.8591 117.134 18.7671 112.574 26.7045C108.689 33.4671 104.913 40.2885 101.012 47.0428C97.4459 53.2224 93.3557 59.1292 90.2848 65.5353C87.2139 71.9498 83.0564 77.7182 80.2037 84.2754C78.5088 88.1685 77.6236 91.9191 77.7159 96.0178C77.8208 100.654 78.1186 105.293 78.2109 109.937C78.3619 117.51 78.2529 125.095 78.5549 132.667C79.0583 145.341 79.7884 158.002 80.4513 170.672C80.6442 174.288 80.9756 177.9 81.1686 181.52C81.6762 190.897 82.1629 200.281 82.6202 209.662C82.6621 210.53 82.4314 211.411 82.3475 212.095C79.0458 213.094 68.7172 215.137 67.618 215.67C66.4266 216.248 65.2184 216.794 63.8633 217.419C62.9572 214.893 62.1475 212.557 61.2791 210.249C56.6266 197.852 51.8524 185.51 47.351 173.059C45.3498 167.542 43.869 161.832 42.2035 156.19C39.8374 148.177 37.5216 140.156 35.1681 132.134C34.6059 130.205 34.6185 128.493 35.9316 126.706C37.9453 123.962 38.5914 120.635 38.2096 117.334C37.7566 113.411 36.1959 109.879 32.5418 107.79C31.0106 106.909 29.1311 105.528 27.7132 105.822C25.6869 106.246 24.0717 105.13 22.1922 105.402C16.8097 106.195 13.1977 109.325 11.5112 114.212C8.81791 121.982 15.3246 130.737 23.564 130.914C24.3443 130.93 25.1205 130.918 26.1735 130.918C30.075 140.68 32.2188 150.891 35.6337 160.679C39.0612 170.508 42.5181 180.333 46.1218 190.095C49.7087 199.82 53.5053 209.469 57.2768 219.324C55.733 220.074 54.701 220.351 53.9585 220.972C50.0108 224.337 35.5834 236.679 33.9724 238.982C33.3222 239.909 32.7852 240.929 32.0552 241.785C26.2239 248.602 21.4455 256.153 16.6965 263.734C13.2019 269.326 10.0387 275.053 7.84042 281.283C6.59444 284.802 5.36947 288.335 4.22837 291.892C0.956105 302.133 -0.449279 312.68 0.125466 323.377C0.607915 332.313 2.26082 341.111 4.57238 349.786C7.63489 361.281 13.3194 371.06 22.4691 378.796C28.5606 383.94 35.1722 388.303 42.2453 391.885C47.1663 394.381 52.2845 396.764 57.5831 398.132C66.7538 400.502 76.2602 400.133 85.6323 399.617C93.3011 399.193 100.915 397.838 108.568 397.008C110.212 396.831 111.911 397.096 113.572 397.251C116.438 397.519 119.324 398.296 122.139 398.073C127.022 397.687 131.796 397.817 136.667 398.384C141.806 398.984 147.113 399.349 152.219 398.74C157.551 398.107 162.837 396.483 167.963 394.751C177.21 391.634 185.319 386.595 192.052 379.4C194.746 376.527 197.628 373.795 200.606 371.211C204.957 367.436 208.556 363.19 210.486 357.661C211.153 355.752 211.879 353.822 212.869 352.064C216.192 346.162 218.184 339.869 218.994 333.152C219.64 327.631 220.148 322.069 219.338 316.577ZM198.593 285.335C200.082 287.785 201.445 293.923 200.602 295.286C199.012 297.866 197.229 300.329 195.476 302.8C195.186 303.211 194.595 303.408 193.94 303.836C192.275 300.597 192.694 298.038 194.368 295.261C195.79 292.891 196.487 290.084 197.535 287.479C197.821 286.774 198.211 286.116 198.593 285.335ZM187.463 333.824C187.068 333.056 186.77 332.213 186.275 331.516C184.895 329.561 185.009 326.067 186.724 324.498C188.881 322.534 191.134 320.692 193.609 318.574C193.94 319.27 194.104 319.455 194.12 319.66C194.993 330.035 196.109 327.015 187.463 333.824ZM185.516 266.826C183.838 270.723 181.64 274.21 179.341 277.692C178.917 278.329 178.401 278.9 177.629 279.881C176.769 277.889 176.173 276.5 175.578 275.112C175.796 276.311 175.901 277.549 176.253 278.703C176.773 280.389 176.429 281.778 175.242 283.015C173.941 284.375 172.649 285.73 171.026 287.437C174.609 287.408 175.716 284.769 177.394 282.915C177.382 282.898 177.377 282.877 177.369 282.852C177.394 282.856 177.415 282.856 177.436 282.856C177.868 282.319 178.3 281.769 178.921 280.976C178.955 282.973 178.951 282.998 177.436 282.856C177.424 282.877 177.411 282.894 177.398 282.91L177.394 282.915C178.317 285.524 175.846 286.837 174.869 288.901C177.751 287.429 179.156 285.885 183.419 278.615C185.734 274.667 187.677 270.493 189.816 266.373C191.981 268.013 192.442 270.14 191.813 272.67C190.353 278.484 187.459 283.603 183.859 288.289C180.49 292.668 176.777 296.78 173.237 301.029C173.052 301.248 173.031 301.592 172.889 302.003C179.358 298.017 187.664 287.424 194.481 274.553C195.954 275.774 196.319 277.402 196.096 279.143C195.488 283.892 194.343 288.435 191.209 292.278C190.387 293.289 190.114 294.749 189.321 295.785C185.264 301.088 181.216 306.399 176.971 311.539C174.604 314.387 171.84 316.896 169.276 319.539C169.843 320.638 170.539 320.911 171.487 320.168C172.469 319.4 173.493 318.691 174.428 317.869C180.524 312.491 186.833 307.322 191.561 300.463C193.286 304.595 193.059 305.749 190.123 308.585C188.1 310.548 186.078 312.524 184.081 314.513C183.826 314.777 183.7 315.167 183.742 315.725C187.182 314.236 189.766 311.606 192.816 309.13C193.789 312.138 193.936 314.714 191.381 316.854C189.644 318.314 187.983 319.862 186.2 321.255C185.734 321.62 184.937 321.561 183.851 321.796C183.456 323.948 181.48 325.395 179.123 326.599C176.014 328.189 172.977 329.926 169.956 331.68C169.419 331.999 169.096 332.695 168.693 333.19C170.728 336.24 170.216 339.554 170.229 342.873C168.698 343.619 167.334 344.282 165.237 345.31C166.214 341.874 166.965 339.24 167.72 336.609C166.004 337.507 165.555 339.08 164.943 340.523C164.586 341.345 164.465 342.264 164.167 343.116C162.841 346.921 162.522 347.085 158.293 346.439C157.01 338.061 156.045 329.641 154.35 321.372C152.949 314.546 150.687 307.897 148.795 301.176C148.46 299.981 147.839 298.823 147.721 297.61C147.424 294.598 145.28 292.404 144.411 289.728C143.195 285.994 142.414 282.088 141.81 278.195C141.051 273.362 139.683 268.726 137.989 264.166C137.724 263.466 137.657 262.689 137.498 261.938C139.839 260.672 141.995 259.51 144.437 258.188C150.503 267.392 152.16 277.893 154.392 288.23C154.539 283.896 153.687 279.638 152.798 275.443C151.908 271.264 150.516 267.195 149.324 263.034C151.535 261.502 153.733 259.979 156.154 258.301C157.391 260.814 159.162 263.038 156.477 266.029C157.48 265.823 158.134 265.693 158.944 265.53C159.527 267.149 160.089 268.71 160.714 270.409C160.068 271.147 159.418 271.89 158.419 273.035C159.678 272.745 160.458 272.565 161.511 272.317C162.405 275.221 163.273 278.023 164.137 280.83C164.528 279.252 164.481 278.006 166.541 277.524C167.624 277.272 168.37 275.64 169.323 274.692C170.518 273.509 171.785 272.385 173.14 271.126C173.992 271.948 174.751 272.678 175.506 273.412C174.374 271.072 174.965 269.242 176.689 267.296C179.483 264.137 181.95 260.68 184.526 257.387C187.97 261.095 187.735 261.678 185.516 266.826ZM170.808 335.33C171.328 333.433 172.347 333.186 173.874 332.875C173.488 333.626 173.249 334.096 173.014 334.558C173.04 334.549 173.069 334.537 173.09 334.528C173.052 334.558 173.023 334.583 172.989 334.612C172.985 334.621 172.981 334.629 172.977 334.637C175.347 333.152 177.742 331.709 180.075 330.178C181.178 329.456 182.168 328.571 183.708 327.367C184.232 330.631 183.935 333.265 183.62 335.892C183.561 336.366 183.091 336.953 182.659 337.205C179.374 339.084 176.241 341.329 172.041 341.983C172.075 339.323 170.267 336.722 172.989 334.608C172.998 334.587 173.01 334.57 173.019 334.553C172.423 334.759 171.815 334.973 170.808 335.33ZM150.117 354.649C149.374 354.984 148.774 355.622 147.961 356.243C147.705 351.502 148.049 351.213 153.226 351.708C153.041 352.786 152.907 353.617 152.831 354.078C151.711 354.3 150.847 354.317 150.117 354.649ZM150.99 358.475C149.349 363.4 146.723 367.717 144.311 372.138C144.126 372.021 143.937 371.895 143.753 371.778C144.47 368.74 144.793 365.523 146.052 362.733C146.874 360.904 149.064 359.691 150.99 358.475ZM153.972 366.521C153.75 368.757 152.55 370.116 151.313 371.341C151.749 369.554 151.287 367.377 153.972 366.521ZM153.641 363.417C154.161 361.684 154.501 360.065 155.155 358.58C155.365 358.093 156.477 357.619 156.997 357.77C157.438 357.896 157.916 358.97 157.849 359.565C157.626 361.579 156.078 363.01 153.641 363.417ZM161.96 349.061C160.55 354.334 160.479 354.409 156.922 354.3C156.569 350 157.022 349.509 161.96 349.061ZM161.108 365.636C160.013 369.374 158.692 370.985 155.063 372.659C156.498 369.881 156.242 365.611 161.108 365.636ZM159.825 362.116C161.041 359.561 161.054 356.335 165.165 355.995C163.97 361.65 163.63 362.045 159.825 362.116ZM163.605 352.798C163.751 348.427 164.28 347.919 168.622 347.991C167.699 352.178 167.565 352.308 163.605 352.798ZM167.766 263.747C166.101 265.693 164.326 267.543 162.22 269.859C160.416 266.809 160.068 264.762 162.044 262.627C163.928 260.6 165.61 258.381 167.439 256.17C170.279 260.051 170.321 260.772 167.766 263.747ZM170.741 263.168C171.286 264.59 171.575 265.433 171.936 266.247C172.662 267.883 172.385 269.242 171.135 270.572C168.983 272.859 166.78 275.057 163.944 277.004C163.491 275.648 163.097 274.625 162.799 273.572C162.321 271.831 162.426 270.467 164.188 269.192C166.441 267.564 168.333 265.425 170.741 263.168ZM163.986 257.5C162.627 258.989 161.289 260.491 159.611 262.358C159.095 261.108 158.818 260.374 158.486 259.66C157.538 257.58 157.807 255.843 159.493 254.152C161.071 252.571 162.371 250.7 163.789 248.959C167.166 252.55 167.191 254.014 163.986 257.5ZM161.998 246.89C160.676 249.542 159.099 252.071 156.649 254.286C155.625 252.659 155.252 251.325 156.25 249.974C157.702 248.01 159.262 246.123 161.318 243.501C161.687 245.179 162.308 246.261 161.998 246.89ZM158.562 243.316C157.412 245.074 156.129 246.743 154.715 248.719C153.423 247.536 152.73 246.701 153.561 245.481C154.803 243.639 156.066 241.81 157.396 239.863C159.137 240.669 159.544 241.822 158.562 243.316ZM152.08 243.928C149.966 238.882 149.966 238.882 153.788 235.437C154.501 236.201 155.214 236.969 156.125 237.954C154.778 239.951 153.519 241.806 152.08 243.928ZM149.014 236.62C147.491 234.783 146.178 233.197 144.441 231.1C147.705 230.747 150.067 230.831 151.506 233.927C150.759 234.724 149.97 235.588 149.014 236.62ZM150.02 252.147C150.553 251.291 150.968 250.36 151.644 249.059C153.318 251.471 149.874 252.004 150.864 254.14C151.732 253.959 152.823 253.728 153.909 253.506C155.462 256.015 155.525 256.078 153.775 257.722C152.24 259.157 150.536 260.407 148.787 261.842C148.246 260.869 147.851 260.202 147.486 259.509C146.186 257.026 146.215 257.051 148.074 254.903C148.8 254.051 149.429 253.099 150.02 252.147ZM181.644 252.243C182.34 254.58 182.361 254.588 180.348 256.225C180.729 255.067 181.103 253.909 181.644 252.243ZM179.706 257.609C179.941 257.706 180.163 257.794 180.394 257.886C180.142 258.511 179.89 259.136 179.635 259.765C179.463 259.711 179.29 259.656 179.118 259.602C179.32 258.935 179.517 258.272 179.706 257.609ZM173.698 266.385C171.538 262.811 171.571 262.333 173.686 259.577C175.024 257.827 176.299 256.015 177.839 253.917C178.179 256.749 176.392 261.897 173.698 266.385ZM175.972 242.938C178.057 245.044 178.099 245.435 176.576 248.266C174.42 245.271 174.42 245.271 175.972 242.938ZM173.799 247.146C176.505 250.024 176.66 250.519 175.066 253.443C174 255.394 172.7 257.21 171.441 259.191C168.668 255.939 168.609 255.075 170.522 252.252C171.647 250.586 172.696 248.875 173.799 247.146ZM170.615 237.392C170.837 237.376 171.055 237.363 171.273 237.342C171.353 238.072 171.424 238.793 171.5 239.515C171.206 239.502 170.908 239.494 170.615 239.49V237.392ZM170.77 242.888C170.011 245.749 169.78 248.833 167.825 251.341C164.863 248.174 164.754 247.595 166.571 244.293C167.271 243.022 168.068 241.81 168.949 240.371C170.103 240.925 171.085 241.709 170.77 242.888ZM163.785 244.243C162.43 243.404 162.073 242.334 162.849 240.929C163.659 239.461 164.494 238.009 165.463 236.276C167.481 238.378 167.447 238.525 163.785 244.243ZM160.462 239.834C160.001 239.192 159.17 238.508 159.292 238.122C159.862 236.285 160.693 234.519 161.595 232.337C163.768 234.531 163.609 235.253 160.462 239.834ZM158.541 229.648C159.64 229.824 159.703 230.898 159.346 231.808C158.83 233.117 158.193 234.38 157.438 236.05C154.979 233.533 154.757 232.408 156.305 230.491C156.754 229.937 157.845 229.535 158.541 229.648ZM114.302 215.321C119.76 217.734 125.705 216.802 131.335 218.006C139.402 219.735 147.491 221.388 155.567 223.082C156.083 223.192 156.573 223.452 157.576 223.829C155.181 225.784 152.907 226.59 150.566 226.69C144.353 226.955 138.14 226.976 132.283 224.228C129.12 222.743 125.856 221.434 122.563 220.284C119.324 219.147 115.985 218.308 112.591 217.314C112.62 215.846 113.035 214.763 114.302 215.321ZM110.619 219.911C111.81 223.095 114.009 224.005 116.819 224.198C123.586 224.672 129.686 227.513 135.883 229.942C139.36 231.301 141.819 234.103 144.109 236.876C148.342 241.999 147.012 250.775 141.773 254.807C135.585 259.577 128.755 260.076 121.573 257.987C120.176 257.576 118.804 256.464 117.839 255.323C113.543 250.23 109.524 244.914 105.153 239.897C103.403 237.887 101.02 236.44 98.9143 234.745C98.0081 234.007 97.0852 233.302 95.9232 232.392C100.433 227.403 106.243 224.752 110.619 219.911ZM95.747 217.759C95.4617 217.641 95.1974 217.473 94.2367 216.953C98.9143 216.727 102.291 213.031 106.73 215.019C106.289 218.354 105.547 219.076 94.5974 226.799C93.7584 225.113 94.2283 223.951 95.3107 222.957C95.7218 222.579 96.2755 222.357 96.6615 221.958C98.4612 220.091 98.1634 218.786 95.747 217.759ZM103.063 259.619C103.458 260.785 104.049 261.901 104.649 262.996C107.187 267.665 107.2 272.481 105.564 277.419C104.88 279.487 103.495 281.174 101.562 281.794C93.9178 284.257 86.1483 285.49 78.3159 282.524C74.5108 281.086 72.1867 278.262 70.3743 274.621C67.7104 269.259 67.8445 263.432 66.8922 257.79C66.0532 252.856 65.9442 247.893 67.1566 242.792C74.6241 240.484 81.9405 238.223 89.1059 236.008C90.247 237.585 91.2623 239.054 92.3489 240.472C96.8378 246.336 100.681 252.566 103.063 259.619ZM86.0854 86.373C88.4053 84.9004 90.1841 85.085 92.2691 87.0232C89.7142 86.7589 87.9061 86.5617 86.0854 86.373ZM133.735 3.50915C134.053 3.86155 133.785 4.75501 133.785 6.11426C131.843 4.56203 130.529 3.51334 128.851 2.17087C131.427 1.06753 132.648 2.31351 133.735 3.50915ZM88.6486 71.8198C91.258 66.689 94.0185 61.6338 96.8293 56.6121C99.7996 51.2884 102.904 46.0401 105.954 40.7625C109.516 34.5956 113.077 28.4286 116.639 22.2659C119.899 16.6275 123.154 10.985 126.792 4.69635C128.616 5.86682 130.362 6.69327 131.65 7.96861C132.149 8.47204 131.927 10.1501 131.511 11.0395C129.682 14.9326 127.681 18.7419 125.722 22.5721C122.63 28.6048 119.605 34.6795 116.404 40.6577C111.227 50.3193 105.945 59.9305 100.672 69.5418C99.0402 72.512 97.3705 75.4654 95.5624 78.3308C94.4045 80.1557 92.9613 81.8001 91.5056 83.709C90.5197 83.2139 91.1658 81.0577 89.3115 80.9528C88.011 80.8815 86.7273 80.3863 85.2967 80.0381C85.6198 76.8162 87.3523 74.3789 88.6486 71.8198ZM81.9489 148.89C80.9211 140.512 81.2483 131.967 80.9714 123.492C80.7826 117.85 80.5477 112.216 80.447 106.577C80.3673 101.593 80.4302 96.6135 80.4764 91.6337C80.4847 90.7569 80.7239 89.8844 80.8834 88.7978H88.5941C88.5941 91.2646 88.7536 93.4922 88.569 95.6989C87.9649 102.822 88.3592 109.946 88.569 117.069C88.9214 129.29 88.9843 141.519 89.3409 153.74C89.7017 165.948 90.31 178.152 90.7379 190.364C91.0945 200.546 91.3252 210.723 91.6776 220.909C91.7154 222.151 91.2287 222.843 90.1715 223.238C88.9213 223.695 87.6461 224.098 86.0393 224.643C85.8421 221.199 85.5693 218.073 85.5022 214.939C85.3134 206.23 85.5736 197.496 84.9863 188.812C84.0675 175.5 83.5809 162.168 81.9489 148.89ZM66.2797 220.809C71.5112 218.85 76.7678 216.953 82.3433 214.927V219.038C76.9776 220.116 71.6202 221.19 65.6798 222.382C65.9902 221.534 66.0322 220.905 66.2797 220.809ZM17.0699 125.875C13.3236 124 11.5406 119.851 13.1222 116.041C13.6256 113.373 15.438 110.936 17.9677 109.845C18.404 109.409 19.0206 109.136 19.8219 109.149C20.4092 109.161 21.0092 109.203 21.6259 109.283C21.7979 109.3 21.9741 109.321 22.1461 109.346C22.3307 109.38 22.5111 109.417 22.6873 109.459C23.6018 109.644 24.5039 109.912 25.3513 110.286C26.4966 110.76 27.5622 111.385 28.4977 112.165C29.1773 112.732 29.7101 113.378 30.1002 114.066C30.868 114.569 30.9686 114.909 30.784 115.987C30.9686 116.994 30.8931 118.043 30.5826 119.062C30.4484 119.888 30.1673 120.711 29.7184 121.479C29.0011 122.699 27.9984 123.635 26.8405 124.294C24.3444 126.874 20.5058 127.599 17.0699 125.875ZM56.5427 212.28C53.992 205.882 51.5714 199.438 49.1088 193.007C47.5356 188.9 45.9245 184.809 44.431 180.677C41.3308 172.077 38.1928 163.494 35.2687 154.835C33.9346 150.887 33.1501 146.759 31.9797 142.752C30.8679 138.968 29.58 135.239 28.3676 131.484C27.9984 130.347 27.8558 129.294 29.5423 128.694C30.5743 131.744 31.5433 134.689 32.5712 137.613C36.2252 148.064 39.829 158.539 43.5963 168.956C45.9708 175.542 48.6767 182.011 51.0973 188.589C53.6354 195.482 56.0099 202.438 58.4432 209.364C59.2654 211.709 60.0457 214.071 60.8386 216.429C61.9293 219.68 62.4327 223.137 64.6562 225.977C65.3862 226.904 65.5665 228.272 65.9693 229.447C66.372 230.63 65.6966 231.104 64.0017 231.46C62.8774 228.083 61.9167 224.744 60.6582 221.522C59.4332 218.38 57.7929 215.409 56.5427 212.28ZM43.9444 234.179C47.3887 231.276 50.9294 228.473 54.4492 225.658C55.5861 224.752 56.7943 223.942 58.3214 222.818C58.6906 223.703 59.0682 224.622 59.5338 225.767C56.1273 226.329 53.3795 227.475 51.0973 229.623C49.3647 231.255 49.2724 232.148 51.0092 233.814C53.1656 235.874 55.5862 237.002 58.6906 236.121C60.3016 235.664 62.0426 235.668 63.6452 235.173C64.8912 234.795 66.007 233.986 67.2362 233.331C68.0081 233.86 72.2663 231.15 74.5233 230.541C77.7704 229.665 81.0679 228.973 84.294 228.02C85.9889 227.525 87.5831 226.657 89.2192 225.948C89.9198 225.646 90.6077 225.331 91.3377 225.004C92.3991 228.876 92.4579 228.989 89.4122 230.453C86.7734 231.725 84.0255 232.782 81.2735 233.784C69.0402 238.248 56.3539 240.115 43.3907 240.4C42.8453 240.413 42.2915 240.316 41.7922 240.279C41.0916 237.644 42.1404 235.702 43.9444 234.179ZM16.0757 283.267C18.1901 273.484 22.7293 264.762 28.1872 256.51C30.2932 253.326 33.0326 250.561 35.4113 247.54C36.3007 246.408 36.9678 245.099 37.8069 243.757C43.7305 245.124 49.5828 244.079 55.4394 243.853C58.6445 243.723 59.1521 244.285 59.8233 247.515C61.0357 253.326 60.1547 259.023 59.1017 264.674C58.2375 269.33 56.9747 273.937 55.5358 278.455C54.8687 280.549 53.5556 282.537 52.1712 284.286C50.275 286.678 47.695 288.003 44.4982 288.003C37.702 288.012 30.9099 288.23 24.1136 288.112C21.4497 288.066 18.7983 287.353 15.8155 286.896C15.9078 285.432 15.8491 284.32 16.0757 283.267ZM26.7273 315.612C26.2659 311.169 27.3607 306.953 27.8851 302.364H38.625C38.8305 306.471 39.0234 310.46 39.2248 314.609C35.0254 315.969 30.9729 315.293 26.7273 315.612ZM40.647 326.079C36.0071 327.476 31.6231 327.837 26.8615 327.657C26.7021 324.141 26.5595 320.94 26.4001 317.412C30.8009 316.934 34.8828 316.489 39.1829 316.019C39.6654 319.325 40.1268 322.492 40.647 326.079ZM29.4039 292.408H38.39V300.887H28.4264C27.8307 297.929 28.8375 295.311 29.4039 292.408ZM17.9341 300.018C18.6851 297.283 19.352 294.858 20.0401 292.366H26.1945C25.9134 295.303 25.6575 297.917 25.3681 300.933C22.6118 300.597 20.5184 300.337 17.9341 300.018ZM25.1457 302.213V315.465C21.8357 315.281 18.8948 315.113 15.5261 314.928C16.1008 310.985 16.5959 307.545 17.0867 304.113C17.2797 302.783 17.9929 302.154 19.3857 302.2C21.2778 302.263 23.1739 302.213 25.1457 302.213ZM13.0047 297.283C13.1809 295.836 13.4033 294.359 13.8983 292.992C14.4521 291.485 15.3918 290.185 17.7453 290.906C17.095 293.772 16.4532 296.553 15.7778 299.511C12.8285 299.406 12.7446 299.377 13.0047 297.283ZM11.8595 303.232C12.2161 301.084 13.7388 301.952 15.3918 302.414C15.1526 306.504 14.9388 310.297 14.6829 314.584C13.181 314.295 12.0692 314.077 10.6135 313.796C11.0288 310.095 11.3015 306.639 11.8595 303.232ZM10.9784 316.715H14.213C14.385 318.587 14.557 320.458 14.729 322.329C14.7793 322.329 14.8255 322.333 14.88 322.337C15.0227 320.672 15.1653 319.006 15.3331 317.118H25.0451C25.3639 320.785 25.6616 324.216 26.0056 328.143C23.9584 328.143 22.1755 328.265 20.4135 328.105C18.7984 327.963 17.2084 327.262 15.6058 327.262C13.9655 327.266 12.3293 327.9 10.4247 326.528C10.5967 323.47 10.7854 320.156 10.9784 316.715ZM15.3372 350.659C14.515 348.205 13.7473 345.73 13.0341 343.238C12.7572 342.277 12.7152 341.257 12.518 339.978C19.2178 340.28 25.7415 340.578 32.6761 340.892C33.0118 341.383 33.6116 342.277 34.2157 343.17C34.0982 342.399 33.9724 341.635 33.8171 340.666C39.0402 340.032 44.1206 339.416 49.4821 338.77C51.3658 345.62 53.1991 352.282 55.1331 359.318C54.3276 359.544 53.4214 359.972 52.4984 360.018C49.9184 360.14 47.3174 360.031 44.7289 360.165C42.4384 360.279 41.2175 359.079 40.3659 357.153C39.6863 355.618 38.8892 354.128 38.1466 352.614C38.7633 354.753 39.3968 356.885 40.0974 359.301C38.0166 360.031 35.9232 359.414 33.8634 359.389C33.641 359.381 33.4229 359.309 33.1963 359.268C26.5092 358.022 26.5092 358.021 24.0298 351.607C23.9333 351.355 23.7613 351.133 23.3543 350.986C23.8158 352.819 24.2773 354.649 24.7346 356.486C20.4387 356.86 16.6168 354.502 15.3372 350.659ZM48.8696 371.262C48.2655 371.043 47.5397 370.674 47.2586 370.167C45.8323 367.519 44.5402 364.805 42.9628 361.646C47.7537 361.298 51.7643 361.004 55.842 360.702C57.2852 364.36 58.6318 367.784 59.9827 371.228C57.755 371.841 50.5897 371.878 48.8696 371.262ZM62.5879 376.602C63.4731 378.356 64.3206 380.03 65.3107 381.989C61.749 382.773 58.5229 382.622 55.2967 382.463C54.8311 382.438 54.2354 382.014 53.9585 381.599C52.8425 379.937 51.8273 378.205 50.7743 376.501C50.8959 376.233 51.0176 375.973 51.1393 375.704C54.9234 375.998 58.7157 376.304 62.5879 376.602ZM21.7728 363.752C21.047 361.94 19.9897 360.258 19.0793 358.517C19.243 358.328 19.4024 358.147 19.5577 357.967C21.5672 358.538 23.5893 359.07 25.5695 359.704C25.9302 359.817 26.2742 360.304 26.4252 360.69C27.4069 363.27 28.3298 365.867 29.3199 368.593C25.5148 368.572 23.0985 367.079 21.7728 363.752ZM27.5118 360.039C30.7127 360.413 33.0369 360.685 35.3695 360.958C36.3763 361.071 37.4125 361.382 38.39 361.243C40.668 360.916 42.0482 361.856 42.904 363.882C43.8605 366.127 44.8674 368.358 46.1595 371.299C42.9376 370.96 40.4078 370.704 37.8865 370.418C32.0258 369.768 32.0258 369.764 29.5003 364.386C28.9423 363.194 28.4053 361.99 27.5118 360.039ZM29.8946 373.107C32.0677 373.154 32.2859 374.198 32.4453 375.302C31.7615 374.718 31.0819 374.127 29.8946 373.107ZM34.9164 373.741C35.5834 373.699 36.2169 373.552 36.8126 373.64C39.7115 374.051 42.5894 374.63 45.4967 374.937C47.4978 375.142 48.8528 375.776 49.5366 377.831C50.0023 379.258 50.9043 380.541 51.6552 381.968C44.4856 383.684 36.6112 379.774 34.9164 373.741ZM47.8838 386.222C52.5908 384.816 54.034 385.383 56.0015 389.418C53.2369 389.515 50.7995 388.554 47.8838 386.222ZM67.6222 390.06C66.6699 390.492 65.9064 391.139 65.1471 391.13C61.7699 391.092 59.7185 389.716 57.4614 386.108C60.7211 385.479 63.9136 385.433 67.0936 385.4C67.5844 385.391 68.2179 385.689 68.5535 386.062C69.8205 387.459 71.0036 388.94 72.3083 390.509C70.2904 391.797 68.7424 391.302 67.6222 390.06ZM65.3778 377.433C68.9563 376.778 72.1867 376.074 75.4589 375.625C77.6656 375.327 78.3914 376.145 79.8345 380C75.891 380.713 72.2621 381.368 68.6123 382.022C67.4838 380.428 66.5315 379.069 65.3778 377.433ZM71.3979 384.988C75.0142 384.225 78.4585 383.486 81.9112 382.815C82.2761 382.744 82.8467 382.958 83.1068 383.239C84.7555 385.014 86.3371 386.843 88.0739 388.793C78.2193 391.848 75.2365 390.413 71.3979 384.988ZM119.047 379.782C118.842 379.694 118.632 379.602 118.422 379.509C118.758 378.712 119.089 377.915 119.42 377.114C119.664 377.219 119.911 377.332 120.155 377.437C119.79 378.217 119.421 378.998 119.047 379.782ZM121.346 372.94C122.017 370.381 121.254 366.991 125.47 365.938C124.358 368.786 124.039 371.547 121.346 372.94ZM124.539 378.368C125.273 376.72 125.319 374.609 128.142 373.54C127.052 375.763 126.8 377.735 124.539 378.368ZM123.695 363.01C124.01 361.487 124.262 360.325 124.484 359.163C125.986 351.259 126.548 343.334 126.485 335.25C126.376 321.997 123.263 309.546 118.263 297.438C117.717 296.121 117.042 294.863 116.379 293.596C116.316 293.587 116.257 293.579 116.194 293.562C117.348 297.061 118.472 300.572 119.664 304.05C123.154 314.207 124.899 324.59 124.757 335.372C124.677 341.849 124.128 348.226 123.217 354.623C122.68 358.429 120.755 361.642 119.278 365.04C118.85 366.026 117.457 366.597 116.341 367.49C116.702 369.29 117.751 371.161 116.417 373.162C115.569 374.425 114.881 375.549 113.228 375.897C111.483 376.266 109.797 376.929 108.106 377.454C108.282 379.564 108.282 379.564 112.889 379.253C111.697 383.071 109.121 384.921 104.683 384.972C105.585 377.223 106.474 369.563 107.372 361.902C107.124 361.839 106.889 361.785 106.646 361.726C105.946 363.61 105.119 365.46 104.582 367.394C104.041 369.349 103.73 371.379 103.416 373.389C103.084 375.507 102.858 377.651 102.61 379.778C102.363 381.787 102.145 383.801 101.893 386.012C99.5982 386.708 97.3831 387.602 95.08 387.992C94.178 388.147 92.848 387.401 92.1223 386.662C90.3141 384.833 88.7451 382.769 87.1342 380.86C88.3424 378.314 91.8832 378.624 92.0049 375.335C91.2497 375.847 90.4609 376.325 89.731 376.883C86.2951 379.501 85.41 379.199 83.9542 374.635C87.0713 374.072 90.1924 373.619 93.2549 372.931C95.9902 372.306 96.3595 371.45 95.5078 368.241C94.5723 368.451 93.6326 368.703 92.6719 368.866C89.2192 369.458 85.7666 370.003 82.3097 370.586C81.0469 370.8 80.2037 370.339 79.4318 369.302C78.2319 367.717 76.8517 366.269 75.1778 364.331C74.4688 367.238 76.8055 368.631 76.9649 371.291C72.0859 365.59 70.8357 358.861 67.9746 352.618C67.8487 355.173 68.0837 355.945 69.2122 358.466C70.1394 360.526 70.8693 362.674 71.7629 364.746C72.6103 366.71 73.5626 368.627 74.6366 370.943C70.3533 372.319 66.3301 371.694 61.9629 371.731C60.3687 368.149 58.7367 364.482 56.9999 360.568C59.7897 359.834 62.16 359.217 64.5219 358.596C64.4967 358.449 64.4716 358.311 64.4423 358.16C61.9797 358.592 59.5171 359.024 56.937 359.473C56.4839 358.609 56.0015 357.971 55.7917 357.25C54.1598 351.724 52.6033 346.174 50.9588 340.653C50.5728 339.357 50.6652 338.455 52.5992 337.973C48.0474 337.876 50.791 333.689 48.4711 332.166C48.7354 333.349 49.029 334.293 49.1381 335.254C49.415 337.679 48.9242 338.208 46.428 338.396C40.6008 338.824 34.7653 338.732 28.9466 338.866C24.1179 338.979 19.5618 338.14 14.8841 337.645C13.8982 337.54 12.9293 337.163 11.7336 336.852C11.3686 334.537 11.0078 332.25 10.6806 330.165C16.0127 330.165 21.0553 330.153 26.1022 330.216C26.3665 330.216 26.6224 330.87 27.0251 331.403C27.3356 330.165 27.9607 329.54 29.3577 329.389C33.3683 328.953 37.3747 328.37 41.3224 327.547C43.2438 327.145 45.0268 326.088 47.0279 325.265C46.7007 325.106 46.5497 324.972 46.4322 324.993C41.1924 326.067 41.1924 326.071 40.8567 320.6C40.8316 320.26 40.798 319.925 40.7854 319.581C40.6596 315.91 40.0765 315.297 44.2801 314.446C44.5318 314.395 44.7289 314.06 45.3204 313.506C44.2255 313.724 43.613 313.838 42.9879 313.968C42.4341 314.081 41.8888 314.219 41.3434 314.345C40.3617 312.201 40.282 308.736 41.1127 302.431C42.0188 302.196 43.0592 301.822 44.129 301.671C45.1065 301.541 46.1176 301.646 47.116 301.126H40.8022C41.1126 298.076 41.3938 295.337 41.6916 292.408C44.7038 292.123 47.351 291.876 50.2457 291.599C50.1156 300.291 50.8078 308.732 53.0271 316.988C52.6369 312.055 52.0538 307.125 51.9279 302.187C51.8398 298.722 52.3181 295.232 52.7125 291.775C52.8174 290.831 53.304 289.723 53.992 289.086C58.6277 284.802 61.6188 279.626 62.9697 273.467C63.0788 272.947 63.3935 272.481 63.792 271.583C64.4213 272.649 64.9708 273.35 65.2812 274.134C69.4303 284.643 80.1113 288.847 89.7855 288.121C93.8045 287.823 97.8404 286.934 101.717 285.805C107.754 284.056 110.636 279.584 111.018 273.442C111.286 269.188 110.879 265.068 108.27 261.431C107.628 260.529 107.309 259.396 106.864 258.356C105.748 255.763 104.641 253.171 103.546 250.57C103.223 249.793 102.95 248.992 102.95 248.052C105.987 251.429 108.102 255.36 110.204 259.3C112.314 263.247 114.432 267.195 116.543 271.143C116.744 271.042 116.954 270.937 117.155 270.841C113.761 263.831 110.363 256.825 106.965 249.81C108.928 250.528 110.17 251.874 111.08 253.523C114.923 260.42 121.044 263.008 128.621 262.899C128.961 262.895 129.313 262.84 129.636 262.912C131.859 263.403 134.83 261.62 136.122 264.984C136.994 267.258 138.601 269.221 138.236 271.986C138.035 273.572 138.63 275.313 139.092 276.92C140.569 282.139 141.886 287.42 143.753 292.501C146.341 299.553 146.463 307.087 148.502 314.228C149.991 319.446 151.757 324.628 152.697 329.956C153.532 334.709 153.612 339.63 153.628 344.475C153.641 347.932 153.121 348.129 149.022 348.377C149.022 342.856 149.076 337.339 149.005 331.827C148.934 325.823 148.451 319.879 146.152 314.224C144.025 308.992 142.335 303.555 139.818 298.529C136.944 292.778 133.386 287.37 130.081 281.845C130.005 281.711 129.896 281.589 129.787 281.48C129.699 281.69 129.619 281.891 129.531 282.096C130.588 284.177 131.624 286.258 132.778 288.284C137.162 295.953 141.408 303.706 143.606 312.323C145.364 319.228 146.765 326.205 146.006 333.446C145.519 338.157 145.443 342.919 145.154 347.659C144.986 350.382 144.961 350.382 142.108 351.859C141.949 351.737 141.668 351.62 141.655 351.485C141.206 346.09 140.736 340.699 140.35 335.304C140.195 333.052 138.328 322.11 138.173 321.343C137.208 316.577 136.256 311.811 135.266 307.05C135.157 306.521 134.83 306.034 134.183 305.585C134.385 307.041 134.557 308.501 134.792 309.957C135.862 316.653 137.007 323.34 137.98 330.052C138.186 331.47 137.695 332.968 137.636 334.432C137.481 338.266 137.51 342.117 137.221 345.939C137.003 348.847 136.495 351.737 135.966 354.611C135.648 356.377 134.221 357.094 132.271 357.665C132.271 356.603 132.191 355.769 132.283 354.955C132.711 351.137 133.374 347.34 133.584 343.51C133.768 340.368 133.521 337.192 133.307 334.042C132.917 328.399 132.69 322.727 130.911 317.282C130.806 316.963 130.832 316.59 130.693 316.292C127.71 309.735 124.727 303.186 121.69 296.65C121.602 296.453 121.438 296.289 121.258 296.142C121.099 296.163 120.935 296.167 120.776 296.163C120.918 296.683 121.057 297.208 121.296 297.682C127.014 309.403 130.58 321.653 130.924 334.793C131.129 342.734 131.104 350.6 128.612 358.265C127.84 360.581 126.565 362.175 123.695 363.01ZM138.03 364.159C138.475 359.36 140.552 355.71 143.274 354.934C142.603 360.958 141.84 362.301 138.03 364.159ZM141.357 370.578C140.984 371.589 140.619 372.591 140.25 373.598C140.019 373.514 139.788 373.443 139.558 373.363C139.918 372.336 140.271 371.316 140.631 370.288C140.875 370.385 141.11 370.485 141.357 370.578ZM133.663 360.476C132.908 364.201 131.457 366.857 129.476 369.286C130.651 366.496 129.695 362.729 133.663 360.476ZM138.362 367.671C137.38 373.397 134.783 376.405 130.135 377.013C132.224 373.187 133.869 369.256 138.362 367.671ZM162.015 389.301C156.326 392.385 150.281 393.761 143.782 393.362C140.439 393.156 137.066 393.328 133.709 393.328C143.648 388.961 154.199 388.726 164.796 387.967C163.869 388.408 162.912 388.814 162.015 389.301ZM169.297 367.78C167.754 370.578 164.947 370.783 162.216 371.761C162.124 368.854 164.154 367.18 165.572 365.69C166.617 364.6 169.096 364.868 170.934 364.533C171.039 364.868 171.148 365.2 171.252 365.535C170.149 365.896 169.054 366.253 167.938 366.622C168.32 366.945 168.773 367.331 169.297 367.78ZM174.995 359.901C174.52 360.744 173.4 361.47 172.431 361.738C171.051 362.12 169.537 362.024 167.603 362.175C168.706 359.662 169.633 357.455 170.657 355.29C170.799 354.988 171.412 354.825 171.823 354.749C173.463 354.46 175.104 354.229 177.436 353.877C176.45 356.411 175.926 358.273 174.995 359.901ZM171.63 351.62C171.886 349.191 172.083 347.319 172.301 345.26C175.401 343.821 178.527 342.369 182.131 340.695C181.627 344.106 180.838 346.921 179.404 349.53C179.123 350.038 178.426 350.499 177.847 350.629C175.98 351.024 174.084 351.246 171.63 351.62ZM194.506 347.613C192.627 357.996 192.115 356.776 183.737 359.612C182.177 360.136 180.478 360.279 178.384 360.685C179.765 357.875 180.91 355.471 182.131 353.105C182.37 352.652 182.898 352.257 183.385 352.031C186.943 350.353 190.521 348.725 194.221 347.03C194.418 347.42 194.527 347.525 194.506 347.613ZM194.804 338.371C194.792 338.795 194.645 339.315 194.364 339.613C191.515 342.621 188.474 345.381 184.925 347.492L184.316 346.925C184.602 344.815 184.832 342.701 185.193 340.603C185.323 339.86 185.583 338.954 186.112 338.51C188.6 336.391 191.188 334.407 193.764 332.393C193.886 332.296 194.179 332.414 194.821 332.473C194.821 334.398 194.846 336.387 194.804 338.371ZM196.252 305.212C198.077 303.417 199.49 301.21 201.089 299.188C200.447 303.844 198.03 307.562 195.228 311.874C194.469 308.992 194.335 307.096 196.252 305.212ZM196.495 325.538C196.201 320.827 194.494 315.981 198.739 311.811C200.321 310.255 201.601 308.392 203.019 306.664C203.274 306.639 203.53 306.613 203.791 306.588C204.181 309.458 204.86 312.331 204.881 315.209C204.902 318.012 202.57 319.66 200.611 321.318C200.405 321.49 199.646 321.007 199.138 320.831C198.517 322.48 197.892 324.107 197.28 325.748C197.019 325.672 196.759 325.605 196.495 325.538ZM197.288 350.881C197.716 346.443 198.257 342.491 202.679 340.653C202.863 343.909 200.715 348.121 197.288 350.881ZM198.777 339.059C199.671 335.212 203.086 333.337 204.525 329.821C205.838 333.979 203.405 337.813 198.777 339.059ZM203.518 327.539C202.415 329.704 201.437 331.961 199.159 333.794C197.691 327.514 201.529 324.246 205.083 320.621C205.695 323.226 205.704 323.231 203.518 327.539Z" fill="black"/>
<path fill-rule="evenodd" clip-rule="evenodd" d="M37.9288 352.039C37.3499 350.889 36.7667 349.732 36.1877 348.582C36.2926 349.966 36.4814 351.326 37.9288 352.039Z" fill="black"/>
</svg>
