<svg width="199" height="300" viewBox="0 0 199 300" fill="none" xmlns="http://www.w3.org/2000/svg">
<path fill-rule="evenodd" clip-rule="evenodd" d="M198.674 295.57C198.556 295.32 198.438 295.07 198.297 294.832C196.793 292.269 195.31 289.692 193.765 287.15C192.728 285.443 191.599 283.792 190.491 282.083H188.229C184.161 276.708 180.79 270.998 177.569 265.193C171.217 253.752 164.857 242.313 158.54 230.854C155.967 226.185 153.494 221.463 150.98 216.763C150.821 216.466 150.686 216.154 150.483 215.724C151.04 215.459 151.512 215.234 151.976 215.013C152.448 213.064 152.888 211.113 153.397 209.183C153.67 208.146 153.455 207.398 152.397 207.03C151.237 206.629 150.081 206.189 148.888 205.908C147.886 205.672 146.834 205.641 145.668 205.505C144.611 203.093 143.609 200.671 142.503 198.298C139.753 192.398 136.845 186.564 134.2 180.618C130.339 171.947 127.015 163.06 124.047 154.048C123.378 152.01 122.734 149.96 122.175 147.893C122.03 147.356 122.156 146.701 122.31 146.139C122.618 145.019 123.341 143.928 123.345 142.822C123.356 139.579 124.401 136.56 124.988 133.442C125.437 131.067 125.686 128.651 125.942 126.246C126.087 124.882 125.864 124.52 124.474 124.173C123.001 123.805 121.481 123.59 119.967 123.439C118.457 123.286 117.575 122.621 116.817 121.226C112.646 113.534 110.649 105.24 109.663 96.6454C109.568 95.8208 108.982 92.694 108.864 91.886C107.866 85.0351 106.867 78.1802 106.004 71.3087C105.333 65.9561 104.858 60.5808 104.285 55.2138C104.158 54.0441 103.711 49.9274 104.535 49.2971C105.455 48.5903 105.656 47.5984 105.668 46.5196C105.679 45.4801 105.78 44.4344 105.716 43.401C105.621 41.8676 105.925 40.4747 106.368 38.9826C106.907 37.1764 106.913 35.149 106.774 33.2415C106.722 32.512 105.639 31.8569 104.821 30.9352C104.724 30.247 104.602 29.2178 104.421 28.1969C104.341 27.732 104.285 27.112 103.974 26.864C102.541 25.7191 102.864 24.1567 103.175 22.8341C103.494 21.4804 103.191 20.5215 102.319 19.6453C101.729 19.0542 101.611 18.4756 101.636 17.6262C101.702 15.3446 101.607 13.0527 101.447 10.7753C101.195 7.19801 100.834 3.62692 100.515 0H99.5046H98.4918C98.1728 3.62692 97.8125 7.19594 97.5598 10.7753C97.4003 13.0548 97.3071 15.3467 97.3713 17.6262C97.3962 18.4735 97.2781 19.0522 96.6899 19.6453C95.8159 20.5215 95.5135 21.4804 95.8325 22.8341C96.1452 24.1588 96.4703 25.7191 95.0351 26.864C94.7265 27.112 94.6685 27.734 94.5857 28.1969C94.4055 29.2178 94.2833 30.247 94.186 30.9352C93.3658 31.8569 92.2846 32.5141 92.2329 33.2415C92.0982 35.149 92.1003 37.1764 92.6388 38.9826C93.082 40.4747 93.3865 41.8676 93.2912 43.401C93.227 44.4344 93.3285 45.4801 93.3388 46.5196C93.3492 47.5963 93.5501 48.5903 94.4717 49.2971C95.2939 49.9295 94.8466 54.0441 94.7203 55.2138C94.1487 60.5808 93.6723 65.9561 93.0012 71.3087C92.1376 78.1802 91.1435 85.0351 90.1411 91.886C90.023 92.694 89.4369 95.8188 89.3416 96.6454C88.3578 105.24 86.3592 113.536 82.1879 121.226C81.432 122.621 80.5497 123.286 79.0378 123.439C77.5259 123.59 76.0036 123.807 74.531 124.173C73.1413 124.52 72.9197 124.882 73.0627 126.246C73.3215 128.651 73.5701 131.067 74.0174 133.442C74.6056 136.56 75.6495 139.579 75.6598 142.822C75.664 143.928 76.3889 145.019 76.6954 146.139C76.8507 146.701 76.977 147.356 76.832 147.893C76.2687 149.962 75.6287 152.01 74.9577 154.048C71.9877 163.06 68.6656 171.947 64.8071 180.618C62.1603 186.564 59.2545 192.396 56.502 198.298C55.396 200.671 54.3915 203.093 53.3373 205.505C52.1713 205.641 51.1212 205.672 50.1168 205.908C48.9259 206.189 47.7681 206.629 46.6083 207.03C45.5479 207.398 45.3345 208.146 45.6079 209.183C46.1174 211.115 46.5565 213.064 47.0266 215.013C47.4906 215.232 47.9628 215.459 48.522 215.724C48.3149 216.154 48.1844 216.466 48.0249 216.763C45.5085 221.463 43.0356 226.185 40.4633 230.854C34.1443 242.313 27.7881 253.752 21.4339 265.193C18.2112 270.998 14.8394 276.708 10.7718 282.083H8.51218C7.40413 283.792 6.27537 285.443 5.23567 287.15C3.69062 289.69 2.2098 292.269 0.704095 294.832C0.56533 295.07 0.44312 295.32 0.327138 295.57C-0.551015 297.463 0.395483 299.1 2.48731 299.166C4.61849 299.234 6.75591 299.157 8.8933 299.188C11.5236 299.228 14.1519 299.339 16.7842 299.364C19.835 299.391 22.8878 299.267 25.9365 299.368C29.9462 299.501 33.9496 299.802 37.9593 299.995C40.0284 300.094 41.0639 298.839 40.7615 296.725C40.7139 296.397 40.7159 296.058 40.7304 295.723C40.7822 294.64 40.9293 293.553 40.8962 292.47C40.861 291.16 40.5875 289.854 40.5875 288.548C40.5834 286.404 40.0263 284.462 38.6904 282.538C40.3328 279.314 41.9586 276.206 43.512 273.056C46.0222 267.972 48.3874 262.816 50.9887 257.778C53.2752 253.357 55.7461 249.03 58.25 244.727C58.9273 243.561 59.8634 242.421 60.9487 241.631C65.4472 238.358 70.248 235.646 75.5977 233.91C82.2128 231.761 88.9398 230.12 95.8117 229.083C97.0358 228.899 98.2681 228.775 99.5025 228.663C100.737 228.775 101.969 228.899 103.193 229.083C110.063 230.12 116.79 231.761 123.407 233.91C128.757 235.648 133.556 238.358 138.056 241.631C139.139 242.421 140.076 243.561 140.755 244.727C143.257 249.03 145.728 253.359 148.014 257.778C150.616 262.816 152.983 267.972 155.491 273.056C157.044 276.204 158.67 279.314 160.315 282.538C158.977 284.464 158.419 286.404 158.417 288.548C158.415 289.856 158.142 291.162 158.107 292.47C158.076 293.553 158.221 294.64 158.275 295.723C158.291 296.058 158.291 296.397 158.243 296.725C157.941 298.839 158.977 300.094 161.046 299.995C165.053 299.802 169.059 299.501 173.071 299.368C176.117 299.267 179.17 299.391 182.223 299.364C184.853 299.339 187.481 299.228 190.112 299.188C192.245 299.157 194.384 299.236 196.518 299.166C198.605 299.1 199.55 297.463 198.674 295.57ZM8.90158 294.444C8.85188 294.975 8.57022 295.448 7.97581 295.268C7.68379 295.177 7.37725 294.735 7.30476 294.402C6.86776 292.431 7.94887 290.937 8.82081 289.384C8.98235 289.426 9.14183 289.467 9.30338 289.511C9.1729 291.156 9.05278 292.801 8.90158 294.444ZM175.214 272.74C174.558 272.13 173.926 271.545 173.106 270.783C173.632 269.987 174.032 269.382 174.473 268.718C176.105 270.95 176.171 271.273 175.214 272.74ZM174.651 274.656C174.4 275.166 174.218 275.61 173.976 276.016C173.746 276.398 173.454 276.743 173.201 277.088C169.982 275.305 169.9 274.825 172.435 272.091C173.238 273.019 173.94 273.831 174.651 274.656ZM173.615 266.978C171.894 269.799 171.337 269.838 169.831 267.294C170.388 266.449 170.97 265.563 171.722 264.42C172.486 265.453 173.071 266.245 173.615 266.978ZM165.339 265.97C166.056 266.61 166.768 267.249 167.719 268.098C167.066 269.092 166.532 269.904 165.967 270.762C163.657 268.466 163.585 267.536 165.339 265.97ZM161.94 260.7C162.578 259.452 163.125 258.379 163.765 257.129C167.168 259.803 167.218 260.233 164.542 262.998C163.707 262.26 162.866 261.516 161.94 260.7ZM168.955 268.927C169.579 269.661 170.009 270.175 170.538 270.795C170.09 271.698 169.655 272.577 169.102 273.695C168.313 273.007 167.729 272.5 167.058 271.913C167.725 270.861 168.288 269.975 168.955 268.927ZM170.54 263.488C169.873 264.595 169.293 265.552 168.593 266.71C167.636 265.844 166.895 265.17 166.147 264.494C166.342 263.969 166.431 263.558 166.634 263.215C167.017 262.566 167.462 261.96 168.04 261.105C168.91 261.932 169.668 262.655 170.54 263.488ZM167.557 258.35C166.53 257.42 165.598 256.579 164.55 255.63C165.078 254.959 165.472 254.461 165.886 253.938C167.781 256.002 168.092 256.753 167.557 258.35ZM163.256 254.477C162.522 253.787 161.8 253.109 160.979 252.34C161.766 251.22 162.425 250.284 163.113 249.302C165.146 251.644 165.157 252.051 163.256 254.477ZM161.744 248.05C161.242 248.939 160.849 249.662 160.42 250.367C160.25 250.646 160.002 250.877 159.803 251.111C156.858 249.614 156.752 249.302 158.335 246.835C158.62 246.388 158.96 245.979 159.414 245.37C160.275 246.36 161.015 247.209 161.744 248.05ZM159.105 242.625C157.55 242.191 157.475 242.135 156.123 240.344C156.502 239.823 156.912 239.259 157.51 238.434C158.214 240.007 159.318 241.017 159.105 242.625ZM155.367 238.703C155.261 238.874 155.097 239.006 154.691 239.453C153.652 238.601 152.72 237.839 151.701 237.004C152.436 235.956 153.051 235.078 153.557 234.359C154.621 235.225 155.565 235.991 156.51 236.758C156.063 237.521 155.725 238.118 155.367 238.703ZM146.937 227.865C147.71 228.622 148.476 229.372 149.325 230.207C148.381 231.465 147.627 232.476 146.823 233.549C144.663 230.573 144.667 230.256 146.937 227.865ZM144.098 228.793C143.265 227.328 142.169 226.33 142.447 224.348C143.53 225.222 144.386 225.912 145.347 226.689C144.91 227.423 144.562 228.008 144.098 228.793ZM150.549 231.091C151.187 231.796 151.674 232.335 152.382 233.117C151.74 234.09 151.123 235.024 150.394 236.128C149.578 235.561 148.944 235.117 148.122 234.545C148.969 233.34 149.694 232.311 150.549 231.091ZM152.542 228.574C152.917 229.473 153.252 230.283 153.691 231.346C151.378 230.436 151.191 229.959 152.542 228.574ZM149.228 223.924C150.089 225.084 150.76 225.989 151.429 226.89C150.972 227.557 150.597 228.109 150.081 228.859C149.184 228.024 148.41 227.303 147.567 226.516C148.153 225.6 148.613 224.881 149.228 223.924ZM147.828 223.129C147.36 223.916 146.956 224.596 146.353 225.609C145.231 224.687 144.361 223.97 143.331 223.125C144.065 222.151 144.642 221.38 145.334 220.463C146.274 221.467 147.01 222.252 147.828 223.129ZM141.791 210.299C142.47 210.487 143.559 210.254 143.433 211.659H141.068C141.362 210.289 141.389 210.188 141.791 210.299ZM141.045 217.328C142.099 218.214 142.928 218.913 143.839 219.677C143.249 220.545 142.756 221.271 142.143 222.168C141.213 221.436 140.378 220.779 139.431 220.037C139.974 219.126 140.419 218.375 141.045 217.328ZM139.328 216.807C138.905 217.665 138.616 218.251 138.143 219.21C137.443 218.264 136.921 217.559 136.103 216.453C137.416 216.598 138.241 216.689 139.328 216.807ZM138.87 211.33H135.208C135.592 209.687 135.614 209.681 138.87 210.247V211.33ZM134.664 197.281C137.182 199.003 137.483 199.807 136.093 201.113C133.541 199.298 133.438 199.019 134.664 197.281ZM117.975 204.494C111.815 204.066 105.658 203.628 99.4983 203.194C93.3367 203.628 87.1793 204.066 81.0198 204.494C80.3571 204.539 79.6861 204.5 78.8265 204.5C78.9819 203.783 79.0419 203.32 79.1849 202.884C80.1148 200.063 81.0571 197.244 82.0098 194.43C83.938 188.732 85.9015 183.047 87.8007 177.339C90.9716 167.822 93.693 158.179 95.6523 148.226C96.3357 148.16 96.9592 147.995 97.5556 148.059C98.2039 148.129 98.8501 148.201 99.4983 148.274C100.147 148.203 100.791 148.131 101.437 148.059C102.033 147.995 102.657 148.16 103.342 148.226C105.3 158.177 108.021 167.82 111.192 177.339C113.093 183.047 115.055 188.732 116.985 194.43C117.935 197.244 118.878 200.063 119.81 202.884C119.953 203.32 120.011 203.785 120.166 204.5C119.311 204.5 118.642 204.542 117.975 204.494ZM120.04 210.066H118.194C119.246 209.404 119.246 209.404 120.04 210.066ZM80.8003 210.066H78.955C79.7503 209.404 79.7503 209.404 80.8003 210.066ZM66.6401 200.853C67.2324 201.797 67.6756 202.502 68.2266 203.378C67.4437 204 66.7748 204.533 65.9297 205.203C65.385 204.529 65.0454 204.11 64.5732 203.523C65.1924 202.721 65.8013 201.933 66.6401 200.853ZM67.8683 193.204C68.2825 193.903 68.6926 194.595 69.2083 195.461C68.4937 196.066 67.8393 196.622 67.1993 197.164C65.3415 195.597 65.4741 194.818 67.8683 193.204ZM68.9887 210.148C67.9635 211.452 66.6256 211.463 65.7267 210.148H68.9887ZM70.0678 197.79C71.1655 198.102 71.3622 199.146 71.9256 200.142C71.2359 200.749 70.5897 201.32 69.9414 201.894C68.1023 199.704 68.1064 199.623 70.0678 197.79ZM72.317 188.934C74.3011 191.383 74.0402 192.222 70.7948 193.88C69.1192 191.497 69.3388 190.79 72.317 188.934ZM73.073 202.103C74.0071 202.665 74.0526 203.428 73.7295 204.128C73.5846 204.451 72.9342 204.814 72.6318 204.732C72.1576 204.601 71.7847 204.11 71.1303 203.574C72.0374 202.89 72.5615 202.493 73.073 202.103ZM73.1621 210.345C72.2342 210.946 71.6356 211.068 71.0474 210.163C71.7806 209.435 72.3626 209.532 73.1621 210.345ZM72.5904 218.675C72.6857 217.72 73.4147 217.028 74.8169 216.751C74.4109 217.855 74.0609 218.799 73.7399 219.667C72.7913 219.721 72.5262 219.32 72.5904 218.675ZM73.4768 198.629C72.8969 197.73 72.3895 196.94 71.8966 196.178C72.8431 195.171 73.713 194.248 74.7485 193.148C74.9639 193.508 75.0633 193.681 75.169 193.851C76.9129 196.672 76.7678 197.133 73.4768 198.629ZM73.8745 187.196C74.1997 186.717 74.5228 186.206 74.8811 185.727C75.2414 185.245 75.6412 184.799 76.0368 184.322C78.3626 186.818 78.0996 187.971 75.1876 189.592C74.7672 188.825 74.3488 188.058 73.8745 187.196ZM75.0819 209.743C75.7737 209.284 76.3185 209.307 76.5898 210.423H74.8459C74.9536 210.092 74.9577 209.828 75.0819 209.743ZM76.306 191.615C76.9418 190.941 77.5362 190.311 78.1307 189.678C78.2901 189.755 78.4475 189.831 78.6049 189.908C78.2239 191.022 77.8448 192.138 77.3188 193.683C76.8569 192.737 76.6042 192.22 76.306 191.615ZM80.3426 180.463C81.8089 182.573 80.3841 184.163 79.8393 186.01C77.7558 183.243 77.7993 182.761 80.3426 180.463ZM79.4728 164.604C81.6578 167.206 81.8069 168.808 78.3461 170.577C77.8883 169.684 77.4907 168.907 76.9916 167.933C77.7786 166.877 78.605 165.766 79.4728 164.604ZM77.0412 164.375C77.3374 163.724 77.6356 163.071 78.1099 162.033C78.6836 163.569 77.764 163.924 77.4037 164.548C77.2835 164.49 77.1614 164.435 77.0412 164.375ZM86.2142 151.276C87.5853 153.31 87.3802 153.909 84.9053 155.364C83.6647 153.911 83.4244 152.833 86.2142 151.276ZM83.1159 150.958C83.1469 149.72 83.8656 148.962 84.4973 148.079C85.2864 149.547 85.0565 150.028 83.1159 150.958ZM95.0744 81.5839C95.1055 80.8647 95.1304 80.315 95.1552 79.7612C96.458 80.4535 96.3502 81.0176 95.0744 81.5839ZM95.4162 76.3781C95.6813 75.1815 95.9091 74.1544 96.2135 72.7904C98.237 74.5781 98.0693 75.167 95.4162 76.3781ZM97.2967 81.7616C98.0423 83.9233 98.0113 84.0762 96.7728 85.1488C96.7044 85.1343 96.6133 85.1447 96.5739 85.1013C96.2964 84.8078 96.0292 84.504 95.6191 84.0473C96.139 83.3364 96.6609 82.6275 97.2967 81.7616ZM96.9302 69.4446V66.8799C98.3447 68.2666 98.3302 68.4051 96.9302 69.4446ZM97.9098 60.3267C98.529 61.3848 98.6906 62.4057 97.8414 63.565C96.9157 62.3437 97.8663 61.3207 97.9098 60.3267ZM95.7517 133.574C95.3913 131.735 95.2815 130.001 96.1079 128.178H98.5021C98.3862 129.945 98.2784 131.637 98.15 133.574H95.7517ZM97.0192 142.369C96.46 141.696 95.9071 141.026 95.2837 140.272C95.7352 139.625 96.1928 138.966 96.7582 138.158C98.5477 139.85 98.5808 140.896 97.0192 142.369ZM97.4189 93.717C97.1911 93.6984 96.9612 93.6798 96.7334 93.6633C96.8266 93.2458 96.9198 92.8284 97.0151 92.413C97.1829 92.4357 97.3506 92.4564 97.5183 92.4812L97.4189 93.717ZM97.3837 97.1104C97.3009 98.1974 97.2429 98.9662 97.1704 99.89C95.5446 98.1974 95.5487 98.028 97.3837 97.1104ZM96.7458 103.389C96.7458 103.98 96.7727 104.527 96.7334 105.071C96.7148 105.325 96.5656 105.569 96.3772 106.098C95.323 104.682 95.323 104.683 96.7458 103.389ZM96.0789 109.657C95.9484 110.599 95.8677 111.178 95.7765 111.843C94.6602 110.808 94.6602 110.808 96.0789 109.657ZM95.2132 115.968C95.0827 116.849 94.9999 117.411 94.8984 118.095C93.5294 116.741 93.5294 116.741 95.2132 115.968ZM94.6913 143.775C94.0845 143.837 93.7261 143.876 93.3678 143.913L93.1524 143.554C93.3947 143.291 93.6371 143.027 93.8815 142.764C94.1052 143.043 94.3268 143.322 94.6913 143.775ZM93.9105 122.356C93.4382 123.228 92.616 122.877 91.9843 122.953C91.4417 121.494 91.0027 120.31 90.4455 118.8C90.7293 118.585 91.276 118.171 91.9408 117.669C92.6015 118.645 93.1255 119.442 93.6806 120.221C94.159 120.901 94.3122 121.614 93.9105 122.356ZM90.6195 128.368H93.2001C93.3057 130.075 93.4093 131.745 93.5128 133.417C90.0002 133.555 89.1821 132.158 90.6195 128.368ZM90.2011 138.716C90.8825 139.476 91.4086 140.065 92.0651 140.799C91.3464 141.621 90.8639 142.175 90.2736 142.853C89.7455 142.202 89.3354 141.694 88.8155 141.051C89.2235 140.361 89.6647 139.619 90.2011 138.716ZM90.7727 148.156C90.5594 149.702 89.8573 150.706 88.6167 151.388C87.6702 149.212 88.4241 148.03 90.7727 148.156ZM88.6333 155.23C88.973 157.617 88.3661 159.448 87.517 161.405C85.3174 158.487 85.4686 157.483 88.6333 155.23ZM86.558 165.617C85.9657 167.464 85.4831 168.967 84.9674 170.573C82.8963 168.644 83.9567 167.218 86.558 165.617ZM84.0644 159.754C85.6446 162.337 86.2287 163.612 82.9004 165.453C81.1214 161.907 81.5687 161.434 84.0644 159.754ZM81.0012 176.504C80.5725 175.491 80.0858 174.518 79.7606 173.495C79.6384 173.106 79.7689 172.515 80.0071 172.17C80.4627 171.509 81.0778 170.959 81.7344 170.244C84.8431 173.887 84.228 174.338 81.0012 176.504ZM99.4983 143.461C99.5687 143.605 99.6392 143.75 99.7137 143.897C99.6412 143.938 99.5687 143.973 99.4983 144.008C99.4279 143.973 99.3555 143.938 99.283 143.897C99.3555 143.75 99.4258 143.605 99.4983 143.461ZM102.069 66.8799V69.4446C100.666 68.4051 100.654 68.2666 102.069 66.8799ZM101.089 60.3267C101.13 61.3207 102.079 62.3457 101.155 63.565C100.308 62.4036 100.468 61.3827 101.089 60.3267ZM103.844 79.7612C103.868 80.3129 103.891 80.8647 103.924 81.5839C102.646 81.0176 102.539 80.4535 103.844 79.7612ZM103.375 84.0473C102.965 84.504 102.7 84.8078 102.423 85.1013C102.385 85.1447 102.29 85.1343 102.224 85.1488C100.985 84.0762 100.954 83.9233 101.7 81.7616C102.336 82.6275 102.856 83.3364 103.375 84.0473ZM102.785 72.7904C103.085 74.1544 103.315 75.1815 103.583 76.3781C100.929 75.167 100.762 74.5781 102.785 72.7904ZM114.089 155.364C111.619 153.911 111.409 153.312 112.78 151.276C115.574 152.833 115.334 153.911 114.089 155.364ZM114.499 148.082C115.131 148.964 115.852 149.722 115.881 150.96C113.94 150.028 113.712 149.547 114.499 148.082ZM122.005 167.931C121.506 168.907 121.106 169.684 120.651 170.575C117.192 168.808 117.339 167.204 119.524 164.602C120.39 165.766 121.22 166.877 122.005 167.931ZM120.889 162.035C121.361 163.073 121.657 163.724 121.955 164.377C121.835 164.435 121.715 164.493 121.593 164.55C121.235 163.924 120.315 163.571 120.889 162.035ZM118.99 172.17C119.228 172.515 119.36 173.106 119.236 173.495C118.915 174.518 118.426 175.491 117.995 176.504C114.767 174.338 114.154 173.887 117.264 170.246C117.919 170.959 118.534 171.507 118.99 172.17ZM116.096 165.453C112.768 163.612 113.352 162.337 114.93 159.754C117.428 161.434 117.873 161.907 116.096 165.453ZM114.029 170.573C113.514 168.967 113.031 167.462 112.439 165.617C115.038 167.218 116.102 168.644 114.029 170.573ZM111.48 161.407C110.631 159.45 110.026 157.619 110.363 155.232C113.528 157.483 113.681 158.487 111.48 161.407ZM110.378 151.388C109.139 150.706 108.435 149.702 108.222 148.156C110.575 148.03 111.326 149.212 110.378 151.388ZM108.721 142.853C108.133 142.175 107.648 141.619 106.932 140.799C107.586 140.065 108.114 139.476 108.796 138.716C109.332 139.617 109.773 140.361 110.181 141.051C109.661 141.696 109.249 142.202 108.721 142.853ZM105.484 133.417C105.587 131.743 105.691 130.075 105.795 128.368H108.375C109.815 132.158 108.996 133.555 105.484 133.417ZM105.842 143.554L105.629 143.913C105.271 143.876 104.91 143.839 104.305 143.775C104.67 143.32 104.892 143.043 105.115 142.764C105.358 143.027 105.602 143.291 105.842 143.554ZM107.012 122.953C106.381 122.877 105.558 123.228 105.084 122.356C104.684 121.614 104.836 120.901 105.316 120.223C105.869 119.444 106.391 118.645 107.054 117.671C107.717 118.173 108.267 118.587 108.551 118.802C107.992 120.31 107.553 121.494 107.012 122.953ZM104.098 118.095C103.997 117.411 103.914 116.847 103.783 115.968C105.467 116.741 105.467 116.741 104.098 118.095ZM103.218 111.841C103.127 111.178 103.048 110.597 102.918 109.655C104.334 110.808 104.334 110.808 103.218 111.841ZM103.713 140.272C103.092 141.024 102.539 141.696 101.977 142.369C100.416 140.896 100.451 139.85 102.238 138.158C102.802 138.966 103.264 139.627 103.713 140.272ZM102.62 106.096C102.429 105.567 102.282 105.323 102.263 105.069C102.222 104.525 102.251 103.98 102.251 103.387C103.674 104.682 103.674 104.682 102.62 106.096ZM101.824 99.89C101.756 98.9683 101.696 98.1995 101.613 97.1104C103.448 98.028 103.452 98.1974 101.824 99.89ZM101.578 93.717L101.476 92.4791C101.644 92.4543 101.812 92.4316 101.982 92.4109C102.075 92.8263 102.168 93.2438 102.261 93.6612C102.033 93.6798 101.806 93.6984 101.578 93.717ZM102.891 128.178C103.717 130.003 103.605 131.737 103.247 133.574H100.849C100.722 131.635 100.611 129.943 100.495 128.178H102.891ZM119.157 186.008C118.613 184.161 117.188 182.571 118.654 180.461C121.197 182.761 121.239 183.243 119.157 186.008ZM120.866 189.678C121.46 190.311 122.055 190.939 122.691 191.615C122.394 192.22 122.142 192.737 121.68 193.686C121.152 192.14 120.771 191.024 120.394 189.91C120.549 189.833 120.709 189.757 120.866 189.678ZM122.96 184.324C123.355 184.799 123.757 185.248 124.118 185.729C124.478 186.206 124.797 186.717 125.122 187.198C124.652 188.06 124.23 188.827 123.809 189.594C120.897 187.971 120.632 186.82 122.96 184.324ZM123.915 209.743C124.039 209.826 124.043 210.092 124.149 210.423H122.407C122.678 209.309 123.221 209.286 123.915 209.743ZM123.828 193.851C123.933 193.681 124.033 193.508 124.248 193.148C125.284 194.248 126.152 195.169 127.098 196.178C126.609 196.94 126.1 197.73 125.52 198.629C122.229 197.133 122.084 196.672 123.828 193.851ZM126.68 188.934C129.66 190.788 129.877 191.497 128.202 193.88C124.954 192.222 124.696 191.383 126.68 188.934ZM125.924 202.103C126.435 202.491 126.959 202.89 127.866 203.576C127.212 204.112 126.839 204.604 126.363 204.734C126.058 204.816 125.41 204.453 125.265 204.13C124.946 203.428 124.99 202.667 125.924 202.103ZM126.408 218.675C126.473 219.322 126.205 219.721 125.255 219.667C124.936 218.799 124.588 217.855 124.18 216.751C125.582 217.028 126.313 217.72 126.408 218.675ZM125.837 210.345C126.634 209.532 127.218 209.435 127.953 210.163C127.363 211.066 126.765 210.946 125.837 210.345ZM127.071 200.142C127.634 199.146 127.829 198.104 128.929 197.79C130.892 199.623 130.894 199.704 129.053 201.892C128.403 201.32 127.759 200.749 127.071 200.142ZM129.788 195.459C130.302 194.593 130.712 193.9 131.128 193.202C133.523 194.816 133.657 195.595 131.795 197.162C131.157 196.62 130.501 196.064 129.788 195.459ZM133.27 210.148C132.369 211.463 131.033 211.452 130.008 210.148H133.27ZM133.069 205.201C132.224 204.531 131.555 203.998 130.772 203.376C131.323 202.5 131.762 201.795 132.357 200.851C133.195 201.931 133.804 202.719 134.426 203.521C133.951 204.108 133.614 204.527 133.069 205.201ZM133.098 192.177C132.87 191.726 132.64 191.278 132.41 190.832C133.477 190.879 133.599 191.379 133.098 192.177ZM131.762 187.816C132.04 188.569 131.551 189.249 130.455 189.877C129.55 188.833 128.618 187.758 127.593 186.574C128.158 185.522 128.732 184.46 129.548 182.941C130.432 184.851 131.201 186.297 131.762 187.816ZM126.485 184.58C126.381 184.741 126.263 184.89 126.149 185.047C123.295 182.974 122.79 182.371 125.505 179.101C128.384 181.488 128.405 181.61 126.485 184.58ZM127.05 176.493C127.142 176.807 127.233 177.126 127.324 177.44C127.212 177.481 127.1 177.527 126.988 177.57C126.845 177.277 126.7 176.985 126.56 176.692L127.05 176.493ZM123.436 169.496C124.656 170.845 125.203 172.313 125.663 173.788C125.779 174.156 125.309 174.702 125.099 175.183C121.837 173.408 121.566 172.507 123.436 169.496ZM123.923 177.475C123.579 178.153 123.331 178.717 123.014 179.24C122.705 179.752 122.328 180.224 121.984 180.705C119.251 179.031 118.565 178.124 121.38 174.557C122.2 175.499 123.003 176.419 123.923 177.475ZM119.781 129.009C120.617 129.209 121.328 129.379 122.395 129.635C121.982 131.561 121.63 133.21 121.249 134.985C120.218 134.839 119.427 134.727 118.503 134.597C118.685 132.584 119.025 130.821 119.781 129.009ZM119.188 140.274V142.398C118.159 141.299 118.159 141.299 119.188 140.274ZM117.811 159.766C115.365 157.387 115.365 157.387 116.56 155.224C119.089 156.829 119.373 157.852 117.811 159.766ZM117.213 139.573C116.796 139.393 116.378 139.214 115.96 139.034C116.069 138.831 116.177 138.629 116.285 138.426C116.664 138.629 117.051 138.815 117.405 139.052C117.443 139.079 117.281 139.393 117.213 139.573ZM115.342 128.55C116.038 128.61 116.488 128.651 117.061 128.701C117.186 130.497 116.689 132.923 116.059 133.601C115.922 133.747 115.574 133.7 115.342 133.735V128.55ZM114.744 140.142C115.023 140.948 116.158 141.582 114.988 142.574C113.217 141.227 113.182 140.964 114.744 140.142ZM111.37 129.343C111.432 128.314 112.068 128.316 113.06 128.612C113.06 129.78 113.143 131.013 113.035 132.231C112.94 133.324 112.242 133.539 111.165 133.088C111.233 131.805 111.298 130.573 111.37 129.343ZM110.256 120.426C111.076 122.325 111.15 122.553 110.676 122.807C110.295 123.011 109.761 122.925 108.883 123.003C109.436 121.959 109.769 121.335 110.256 120.426ZM108.657 115.708C108.829 115.875 109.115 116.024 109.141 116.212C109.168 116.39 108.949 116.745 108.793 116.77C108.609 116.805 108.377 116.572 108.042 116.388C108.321 116.082 108.489 115.894 108.657 115.708ZM106.379 115.33C105.739 114.956 105.134 114.604 104.378 114.166C104.954 113.306 105.391 112.653 105.89 111.903C106.575 112.317 107.083 112.627 107.735 113.019C107.232 113.879 106.861 114.507 106.379 115.33ZM103.655 108.041C104.204 107.322 104.747 106.613 105.376 105.792C105.954 106.309 106.345 106.656 106.818 107.078C105.225 109.148 105.225 109.148 103.655 108.041ZM105.768 102.49C105.094 103.265 104.755 103.18 102.986 101.738C103.618 100.965 104.252 100.19 104.987 99.2886C106.594 100.899 106.695 101.419 105.768 102.49ZM104.809 96.8418C104.202 96.4904 103.614 96.1515 102.934 95.7588C103.44 94.9901 103.862 94.5602 104.556 94.9177C105.32 95.3083 105.32 95.949 104.809 96.8418ZM105.161 90.398C104.573 90.9043 104.129 91.2867 103.599 91.7413C102.7 91.0449 101.922 90.4414 101.137 89.8318C101.381 89.3792 101.476 89.1167 101.644 88.9183C101.859 88.6641 102.137 88.4575 102.603 88.0359C103.456 88.8274 104.187 89.5011 105.161 90.398ZM101.313 34.8928C102.729 34.3761 103.52 34.8473 103.839 35.8662C104.011 36.4221 103.949 37.2343 103.643 37.7137C103.054 38.6396 102.141 38.3254 101.145 37.9328C101.203 36.9036 101.257 35.9095 101.313 34.8928ZM101.729 41.3179C102.638 42.934 102.145 44.6162 102.247 46.2447C102.253 46.3646 101.685 46.6622 101.431 46.6167C101.166 46.5692 100.782 46.222 100.753 45.974C100.577 44.3537 100.954 42.8183 101.729 41.3179ZM100.929 55.2758C100.973 55.7698 101.012 56.2658 101.056 56.7597C100.892 56.7741 100.729 56.7886 100.565 56.8031C100.484 56.3195 100.401 55.8338 100.319 55.3502C100.522 55.3275 100.724 55.3006 100.929 55.2758ZM100.795 120.279C100.884 121.019 100.807 121.782 100.807 122.662C100.368 122.705 99.9312 122.747 99.4983 122.786C99.0634 122.747 98.6285 122.708 98.1873 122.662C98.1873 121.782 98.1107 121.019 98.2018 120.279C98.6161 116.83 99.0696 113.385 99.4983 109.938C99.927 113.385 100.381 116.832 100.795 120.279ZM98.6802 55.3502C98.5974 55.8338 98.5167 56.3195 98.4338 56.8031C98.2702 56.7865 98.1066 56.7721 97.943 56.7597C97.9864 56.2658 98.0279 55.7698 98.0693 55.2758C98.2723 55.3006 98.4752 55.3275 98.6802 55.3502ZM98.2432 45.974C98.2163 46.222 97.8332 46.5671 97.566 46.6167C97.3154 46.6622 96.7438 46.3646 96.752 46.2447C96.8515 44.6162 96.3606 42.934 97.2677 41.3179C98.0403 42.8183 98.4193 44.3537 98.2432 45.974ZM95.1593 35.8662C95.4741 34.8473 96.2674 34.3761 97.6861 34.8928C97.7399 35.9095 97.798 36.9036 97.8539 37.9328C96.8556 38.3234 95.9443 38.6396 95.3541 37.7137C95.0496 37.2343 94.9874 36.42 95.1593 35.8662ZM96.3937 88.0379C96.8618 88.4595 97.1352 88.6662 97.3527 88.9204C97.5204 89.1208 97.6157 89.3833 97.8601 89.8338C97.0751 90.4435 96.2964 91.0469 95.3955 91.7434C94.8653 91.2867 94.4241 90.9064 93.8338 90.4001C94.8093 89.5011 95.5384 88.8274 96.3937 88.0379ZM94.4407 94.9156C95.1345 94.5581 95.557 94.988 96.0644 95.7568C95.383 96.1494 94.7948 96.4904 94.188 96.8397C93.6764 95.949 93.6785 95.3083 94.4407 94.9156ZM94.012 99.2886C94.7451 100.19 95.3789 100.965 96.0127 101.738C94.2439 103.18 93.9043 103.265 93.2291 102.49C92.3012 101.419 92.4048 100.899 94.012 99.2886ZM93.6205 105.792C94.2481 106.613 94.7928 107.322 95.3395 108.041C93.7696 109.148 93.7697 109.148 92.177 107.078C92.6513 106.656 93.0427 106.309 93.6205 105.792ZM93.1069 111.903C93.606 112.651 94.0451 113.306 94.6188 114.166C93.8628 114.606 93.2601 114.958 92.6181 115.33C92.1376 114.509 91.7669 113.879 91.2615 113.019C91.9118 112.624 92.4192 112.317 93.1069 111.903ZM90.3399 115.708C90.5076 115.896 90.6774 116.084 90.955 116.39C90.6215 116.574 90.3896 116.805 90.2032 116.772C90.0479 116.745 89.8304 116.39 89.8573 116.214C89.8842 116.024 90.1679 115.875 90.3399 115.708ZM88.743 120.426C89.2277 121.335 89.5611 121.959 90.1162 123.003C89.238 122.925 88.6996 123.011 88.3206 122.807C87.8463 122.553 87.9208 122.325 88.743 120.426ZM85.9367 128.614C86.9288 128.316 87.5646 128.314 87.6267 129.346C87.7013 130.575 87.7613 131.805 87.8338 133.092C86.7527 133.543 86.0589 133.328 85.9615 132.235C85.8539 131.015 85.9367 129.782 85.9367 128.614ZM84.0085 142.572C82.8404 141.582 83.9733 140.945 84.2549 140.139C85.8145 140.964 85.7772 141.227 84.0085 142.572ZM81.9353 128.703C82.509 128.653 82.9605 128.612 83.6543 128.552V133.739C83.4244 133.702 83.0785 133.752 82.9398 133.605C82.3081 132.925 81.8131 130.499 81.9353 128.703ZM81.5915 139.052C81.9477 138.817 82.335 138.629 82.712 138.426C82.8217 138.629 82.9294 138.831 83.0392 139.034C82.6208 139.214 82.2025 139.393 81.7841 139.573C81.7158 139.393 81.5563 139.079 81.5915 139.052ZM82.4385 155.224C83.6294 157.387 83.6295 157.387 81.1856 159.766C79.626 157.852 79.9056 156.829 82.4385 155.224ZM79.8083 142.4V140.276C80.8397 141.299 80.8397 141.299 79.8083 142.4ZM76.6022 129.635C77.6709 129.379 78.3792 129.209 79.2159 129.009C79.9718 130.821 80.3136 132.584 80.4938 134.595C79.5721 134.725 78.781 134.837 77.7496 134.983C77.3685 133.21 77.0143 131.559 76.6022 129.635ZM77.615 174.557C80.4317 178.124 79.744 179.031 77.0101 180.705C76.6684 180.224 76.2895 179.752 75.9829 179.24C75.6681 178.717 75.4195 178.155 75.0737 177.475C75.9932 176.419 76.7969 175.499 77.615 174.557ZM73.3339 173.788C73.7937 172.313 74.3405 170.845 75.5604 169.496C77.4327 172.507 77.1593 173.41 73.8952 175.183C73.6902 174.702 73.2179 174.156 73.3339 173.788ZM71.9463 176.493L72.4393 176.694C72.2964 176.987 72.1514 177.279 72.0105 177.572C71.8966 177.529 71.7868 177.483 71.6729 177.442C71.764 177.124 71.8552 176.807 71.9463 176.493ZM73.4934 179.099C76.2066 182.369 75.7033 182.972 72.8472 185.045C72.7354 184.89 72.6152 184.741 72.5117 184.578C70.5897 181.61 70.6125 181.488 73.4934 179.099ZM67.2345 187.816C67.7958 186.297 68.5642 184.851 69.4465 182.943C70.2666 184.462 70.8362 185.524 71.4037 186.576C70.3785 187.758 69.4464 188.835 68.5393 189.879C67.4457 189.251 66.9591 188.569 67.2345 187.816ZM66.5862 190.832C66.3584 191.28 66.1285 191.728 65.8986 192.177C65.3995 191.379 65.5196 190.879 66.5862 190.832ZM64.3349 197.281C65.559 199.019 65.4555 199.298 62.9038 201.113C61.5162 199.807 61.8144 199.003 64.3349 197.281ZM60.1265 210.247C63.3823 209.683 63.4051 209.687 63.7882 211.33H60.1265V210.247ZM62.8956 216.453C62.0754 217.559 61.5576 218.264 60.8555 219.21C60.3833 218.251 60.0954 217.665 59.6729 216.807C60.7561 216.689 61.5804 216.598 62.8956 216.453ZM57.2062 210.299C57.6059 210.188 57.6349 210.289 57.9269 211.659H55.5617C55.4374 210.254 56.5248 210.487 57.2062 210.299ZM57.9538 217.328C58.5773 218.375 59.0246 219.124 59.5652 220.037C58.6208 220.779 57.7861 221.436 56.8541 222.168C56.2431 221.269 55.7502 220.545 55.1578 219.677C56.0712 218.913 56.8976 218.214 57.9538 217.328ZM49.6715 230.207C50.5206 229.374 51.2869 228.622 52.0615 227.865C54.3294 230.256 54.3335 230.573 52.1754 233.549C51.3698 232.474 50.6159 231.465 49.6715 230.207ZM50.8769 234.547C50.0567 235.117 49.4209 235.561 48.6028 236.13C47.8738 235.026 47.2586 234.092 46.6145 233.119C47.3249 232.335 47.8116 231.796 48.4495 231.093C49.3049 232.311 50.0298 233.34 50.8769 234.547ZM53.6522 226.689C54.6152 225.912 55.4685 225.222 56.5517 224.348C56.8272 226.33 55.7336 227.328 54.8989 228.793C54.435 228.008 54.0892 227.423 53.6522 226.689ZM53.6646 220.463C54.3543 221.38 54.9341 222.151 55.6652 223.125C54.638 223.97 53.7661 224.687 52.6435 225.609C52.0429 224.596 51.6369 223.916 51.1689 223.129C51.987 222.252 52.7202 221.467 53.6646 220.463ZM49.7709 223.924C50.3839 224.881 50.8437 225.6 51.4319 226.516C50.5869 227.303 49.8144 228.022 48.9155 228.859C48.4019 228.109 48.0249 227.557 47.5693 226.89C48.2362 225.989 48.9072 225.084 49.7709 223.924ZM46.4571 228.574C47.8033 229.959 47.6169 230.436 45.3056 231.346C45.7467 230.283 46.0822 229.473 46.4571 228.574ZM45.4423 234.359C45.9476 235.08 46.5627 235.956 47.298 237.004C46.2769 237.839 45.347 238.601 44.3073 239.453C43.8993 239.006 43.7356 238.874 43.6321 238.703C43.2717 238.118 42.9341 237.521 42.4909 236.758C43.4333 235.991 44.3777 235.223 45.4423 234.359ZM41.4885 238.434C42.0871 239.257 42.4992 239.823 42.8782 240.344C41.5237 242.133 41.4512 242.191 39.8958 242.625C39.6804 241.017 40.7843 240.007 41.4885 238.434ZM39.5831 245.37C40.0366 245.979 40.3784 246.388 40.6621 246.835C42.2424 249.302 42.1368 249.616 39.1916 251.111C38.9949 250.877 38.7443 250.646 38.5744 250.367C38.1457 249.662 37.7522 248.939 37.251 248.05C37.9842 247.209 38.7215 246.36 39.5831 245.37ZM35.884 249.302C36.5737 250.284 37.2303 251.22 38.0173 252.34C37.1971 253.109 36.4784 253.787 35.7411 254.477C33.8398 252.051 33.8502 251.644 35.884 249.302ZM31.2759 268.098C32.2286 267.249 32.941 266.61 33.6576 265.97C35.4119 267.538 35.3414 268.466 33.0259 270.762C32.4625 269.904 31.9283 269.092 31.2759 268.098ZM31.9427 271.915C31.2696 272.502 30.6876 273.009 29.8985 273.697C29.3456 272.579 28.9086 271.698 28.4612 270.797C28.9893 270.175 29.4222 269.663 30.0435 268.929C30.7084 269.975 31.2738 270.861 31.9427 271.915ZM34.455 262.996C31.7812 260.231 31.8309 259.801 35.2337 257.127C35.8716 258.377 36.4184 259.449 37.0563 260.698C36.1305 261.516 35.2896 262.26 34.455 262.996ZM33.1149 253.936C33.5271 254.459 33.9206 254.957 34.4488 255.628C33.4008 256.577 32.4709 257.418 31.4436 258.348C30.9051 256.753 31.2178 256.002 33.1149 253.936ZM30.9548 261.103C31.5305 261.958 31.98 262.566 32.3611 263.213C32.5661 263.556 32.6552 263.967 32.8478 264.492C32.1042 265.168 31.3586 265.842 30.4018 266.707C29.7038 265.55 29.126 264.595 28.457 263.486C29.329 262.655 30.087 261.932 30.9548 261.103ZM27.2744 264.422C28.0263 265.565 28.6103 266.449 29.1674 267.296C27.6597 269.838 27.1046 269.801 25.3835 266.98C25.9262 266.245 26.5123 265.453 27.2744 264.422ZM25.7956 277.086C25.543 276.741 25.2489 276.396 25.021 276.013C24.7767 275.608 24.5944 275.164 24.3438 274.654C25.0563 273.831 25.7605 273.017 26.5599 272.089C29.095 274.825 29.0141 275.303 25.7956 277.086ZM24.524 268.718C24.9631 269.382 25.3628 269.987 25.8909 270.783C25.0687 271.545 24.4412 272.13 23.7825 272.74C22.8278 271.273 22.892 270.95 24.524 268.718ZM13.6672 295.223C12.9154 295.159 12.2817 295.101 11.3227 295.018C12.1139 291.771 12.002 288.74 13.5947 286.119C13.721 285.908 14.1643 285.89 14.7318 285.683C14.7049 288.981 14.1953 291.99 13.6672 295.223ZM16.9395 294.696C16.9023 294.834 16.4881 294.871 15.9516 295.062C15.6783 291.916 16.6144 289.087 16.8008 286.189C17.1053 289.041 17.6914 291.873 16.9395 294.696ZM20.216 294.563C19.9344 294.423 19.4415 294.301 19.4332 294.152C19.2841 291.49 18.4908 288.833 19.3193 286.161C19.3379 286.105 19.4208 286.07 19.6113 285.906C19.866 286.039 20.1912 286.13 20.1933 286.223C20.2202 288.961 20.216 291.697 20.216 294.563ZM17.5153 282.189C17.9834 281.265 18.4287 280.376 19.0749 279.093C19.6134 280.089 19.9758 280.767 20.359 281.473C19.5533 282.761 18.6565 282.631 17.5153 282.189ZM20.6676 277.919C21.2268 277.266 21.7508 276.656 22.2706 276.047C24.7021 277.999 24.5985 279.018 21.7963 280.391C21.4359 279.599 21.0735 278.808 20.6676 277.919ZM23.3807 294.421C22.6082 294.522 22.428 293.904 22.3928 293.363C22.2375 291.044 22.1422 288.721 22.0242 286.394C23.418 286.08 23.5444 286.741 23.6065 287.37C23.7929 289.294 23.9441 291.22 24.087 293.15C24.1305 293.702 24.1471 294.32 23.3807 294.421ZM22.6703 282.203C23.418 281.488 24.0746 280.862 24.9258 280.047C25.4415 280.82 25.8723 281.469 26.5061 282.42C25.0791 282.716 24.0041 283.164 22.6703 282.203ZM26.2368 293.749C25.9717 291.647 25.7605 289.544 25.543 287.436C25.4436 286.468 25.7687 285.964 26.9804 286.394C27.1895 288.99 27.4008 291.629 27.6182 294.317C26.8271 294.537 26.3238 294.448 26.2368 293.749ZM26.8581 278.564C27.788 277.743 28.4943 277.123 29.3207 276.394C29.5817 276.712 29.94 276.948 29.9441 277.187C29.9669 278.619 29.0452 279.651 28.2189 281.176C27.6824 280.143 27.3013 279.413 26.8581 278.564ZM29.8674 294.344C29.5754 293.084 29.2502 292.032 29.1073 290.953C28.952 289.804 28.9583 288.632 28.9168 287.467C28.8982 286.9 28.9437 286.332 29.6893 286.227C30.495 286.113 30.5861 286.76 30.6918 287.268C31.1702 289.552 31.6052 291.848 32.096 294.342H29.8674V294.344ZM30.7705 282.546C31.0956 281.814 31.309 281.335 31.6673 280.529C32.1726 281.232 32.533 281.732 32.8933 282.232C32.8105 282.399 32.7256 282.565 32.6427 282.73C32.0877 282.676 31.5326 282.623 30.7705 282.546ZM33.5396 294.346C34.6435 291.585 31.8061 289.178 32.9182 285.948C33.3635 286.495 33.6845 286.714 33.7404 286.989C34.165 289.066 34.5689 291.149 34.9127 293.241C35.0618 294.127 34.7947 294.764 33.5396 294.346ZM34.1029 280.756C33.0674 279.231 33.0673 279.231 35.2897 278.192C34.9106 279.012 34.5296 279.835 34.1029 280.756ZM36.0891 289.294C35.9006 288.411 35.737 287.638 35.5174 286.597C37.0086 287.144 37.077 287.613 36.0891 289.294ZM35.447 273.639C35.5962 273.25 35.6541 273.007 35.7763 272.798C36.1119 272.213 36.4743 271.64 36.8513 271.023C37.7274 272.17 37.5865 272.43 35.447 273.639ZM35.9835 265.959C35.4615 265.277 34.6476 264.872 35.6956 264.077C36.2672 263.643 36.7891 263.138 37.3338 262.663C37.4912 264.073 36.8326 264.951 35.9835 265.959ZM39.2413 270.547C37.717 269.012 38.0567 268.051 40.3618 266.922C40.8506 268.441 39.6079 269.289 39.2413 270.547ZM38.3984 259.354C38.1582 258.98 37.891 258.621 37.6735 258.228C36.3066 255.771 36.3107 255.769 38.8789 253.923C39.1813 254.314 39.4153 254.564 39.5975 254.851C41.2855 257.503 41.2586 257.606 38.3984 259.354ZM42 262.365C42.2154 261.901 42.4288 261.438 42.7602 260.712C43.5472 261.967 42.8741 262.213 42 262.365ZM41.6459 255.11C41.1903 254.291 40.7761 253.545 40.3183 252.725C41.0412 251.952 41.6832 251.264 42.3149 250.586C43.7936 251.915 43.6487 252.781 41.6459 255.11ZM43.1868 248.11C42.3356 246.645 41.6936 245.541 41.0059 244.357C41.9524 243.456 42.785 242.662 43.6797 241.809C44.9659 242.667 45.3946 244.002 46.308 245.326C45.3221 246.202 44.3901 247.035 43.1868 248.11ZM44.5848 260.107C43.6694 258.298 43.8682 257.689 45.9103 255.684C46.0719 255.986 46.3618 256.269 46.3308 256.511C46.1588 257.804 45.6059 258.937 44.5848 260.107ZM46.7864 252.041C47.4264 251.007 47.9152 250.216 48.5137 249.249C49.1392 250.875 48.9797 251.119 46.7864 252.041ZM48.6442 241.286C48.2652 242.069 47.8199 242.817 47.24 243.884C46.4985 242.689 45.9352 241.78 45.2931 240.742C46.1754 239.93 46.9707 239.201 47.7495 238.484C49.2552 239.738 49.3132 239.891 48.6442 241.286ZM50.3342 236.77C50.4461 236.837 50.5579 236.903 50.6697 236.971C50.4875 237.337 50.3032 237.7 50.1209 238.066C49.9552 237.986 49.7895 237.903 49.6217 237.822C49.862 237.471 50.0981 237.12 50.3342 236.77ZM50.7463 248.627C49.1889 247.205 49.3422 246.14 51.4423 243.799C52.8714 245.225 52.776 245.872 50.7463 248.627ZM53.7806 243.169C53.122 241.98 53.2193 241.819 54.756 241.493C54.4122 242.086 54.1182 242.59 53.7806 243.169ZM55.3297 238.277C54.2631 236.989 54.5096 236.006 56.3798 234.055C58.1858 235.88 57.9373 236.876 55.3297 238.277ZM58.627 233.786C58.1713 233.061 57.8172 232.497 57.3926 231.821C58.3391 231.079 59.2276 230.385 60.3667 229.49C60.58 231.517 59.4368 232.468 58.627 233.786ZM60.2362 227.322C60.0974 225.361 61.3981 224.579 62.1582 223.108C62.7568 223.848 63.1296 224.311 63.7053 225.022C62.5435 225.795 61.5161 226.475 60.2362 227.322ZM64.8382 223.114C62.6843 221.699 62.6884 221.155 64.8755 218.935C66.6256 220.62 66.6215 220.944 64.8382 223.114ZM68.1396 216.801C67.8351 217.578 67.5949 218.185 67.2987 218.938C66.0374 217.317 66.0913 217.175 68.1396 216.801ZM67.6073 233.303C67.4458 233.195 67.2821 233.088 67.1206 232.982C67.2283 232.263 67.3339 231.544 67.4727 230.602C68.0381 230.992 68.4379 231.271 68.8314 231.544C69.0965 231.224 69.3035 230.976 69.5935 230.624C69.7985 231.002 70.0595 231.255 70.0264 231.461C69.8006 232.929 68.2825 232.472 67.6073 233.303ZM69.8441 229.552C69.3243 228.279 68.8894 227.006 69.8234 225.72C71.3022 226.433 71.298 227.4 69.8441 229.552ZM71.6563 224.137C71.2649 223.79 70.8859 223.432 70.4509 223.029C70.7989 222.37 71.1075 221.781 71.412 221.201C73.1124 221.765 73.1372 221.951 71.8552 224.121C71.7868 224.127 71.6895 224.168 71.6563 224.137ZM75.0592 230.387C74.3612 230.566 73.6632 230.746 72.6898 230.996C72.7602 230.008 72.812 229.316 72.9011 228.093C73.9367 228.882 74.5725 229.366 75.2063 229.849C75.1566 230.027 75.1068 230.207 75.0592 230.387ZM76.103 227.411C73.9242 226.613 73.6653 225.912 74.6781 223.12C75.5024 223.763 76.13 224.255 76.8031 224.78C76.5546 225.72 76.3308 226.559 76.103 227.411ZM76.2729 218.444C76.5587 218.105 77.2794 217.832 77.6584 217.958C77.9774 218.065 78.3088 218.822 78.2487 219.237C78.1182 220.149 77.7454 221.027 77.4119 222.112C75.4879 220.93 75.1793 219.752 76.2729 218.444ZM81.2146 228.589C80.2163 228.808 79.218 229.031 77.7848 229.349C78.1493 228.155 78.373 227.423 78.6878 226.4C79.7027 227.061 80.4752 227.566 81.2498 228.07C81.2373 228.241 81.2249 228.415 81.2146 228.589ZM81.6578 225.47C80.7734 224.753 80.0444 224.16 79.2677 223.532C79.6509 222.35 80.005 221.258 80.3468 220.209C82.8093 220.281 83.1759 222.046 81.6578 225.47ZM83.004 218.803C81.8876 218.351 81.0944 217.919 81.3658 216.704C81.5128 216.046 81.6619 215.999 83.4679 215.97C83.3022 216.987 83.1655 217.832 83.004 218.803ZM83.6129 209.338H84.9384C84.9487 209.46 84.957 209.582 84.9674 209.704C84.52 209.741 84.0727 209.776 83.6274 209.813C83.6212 209.656 83.617 209.495 83.6129 209.338ZM87.0054 226.654C86.9225 227.467 86.4441 227.576 84.5698 227.497C83.8532 225.865 83.8532 225.865 84.4911 223.038C87.3057 224.35 87.1731 225.044 87.0054 226.654ZM87.3222 219.037C87.2477 219.841 87.111 220.638 86.9909 221.5C85.8 221.573 85.5804 220.523 84.7251 220.175C85.0502 218.931 85.3071 217.948 85.5659 216.952C87.4382 217.563 87.4569 217.565 87.3222 219.037ZM92.0858 225.175C91.7193 225.065 91.4955 225.057 91.3506 224.947C90.6485 224.41 89.9712 223.848 89.1863 223.215C89.2588 222.122 89.3292 221.006 89.4079 219.808C92.6637 221.103 92.3406 221.614 92.0858 225.175ZM92.032 218.473C90.808 217.586 89.7993 216.995 89.8905 215.546C90.3668 214.893 91.0896 214.8 91.6633 215.259C92.6347 216.04 92.1148 217.129 92.032 218.473ZM91.856 209.506C91.8808 209.415 91.9056 209.324 91.9305 209.233H93.6371C93.6392 209.324 93.6413 209.415 93.6413 209.506H91.856ZM94.5608 217.071C96.6837 217.875 95.6171 219.481 96.0313 220.857C93.7945 219.826 93.7842 219.791 94.5608 217.071ZM95.178 225.722C94.4489 225.828 94.188 225.23 94.2895 224.646C94.3558 224.269 94.7493 223.953 94.9937 223.608C95.3727 223.926 95.7475 224.245 96.3668 224.765C95.8055 225.237 95.5197 225.675 95.178 225.722ZM96.5284 209.311C96.9674 209.241 97.4065 209.169 97.8476 209.094C97.8559 209.243 97.8643 209.394 97.8725 209.541H96.5905C96.5677 209.464 96.5491 209.388 96.5284 209.311ZM99.4983 223.486C97.7358 222.536 97.6302 222.058 98.2494 219.773C98.8066 219.882 99.2104 220.031 99.4983 220.235C99.7862 220.031 100.19 219.882 100.747 219.773C101.369 222.058 101.259 222.536 99.4983 223.486ZM99.4983 217.512C98.8376 216.813 98.3302 216.278 97.6343 215.54C98.4027 215.309 98.9039 215.158 99.4983 214.978C100.093 215.158 100.592 215.307 101.36 215.54C100.664 216.28 100.159 216.813 99.4983 217.512ZM102.408 209.541H101.126C101.135 209.394 101.143 209.243 101.153 209.094C101.592 209.167 102.031 209.239 102.472 209.311C102.448 209.388 102.427 209.464 102.408 209.541ZM103.817 225.722C103.475 225.675 103.189 225.239 102.628 224.765C103.249 224.243 103.624 223.926 104.001 223.608C104.247 223.953 104.641 224.269 104.705 224.646C104.809 225.23 104.548 225.828 103.817 225.722ZM102.965 220.857C103.38 219.481 102.315 217.875 104.436 217.071C105.215 219.791 105.2 219.826 102.965 220.857ZM105.358 209.233H107.066C107.091 209.324 107.114 209.415 107.139 209.506H105.353C105.355 209.415 105.355 209.324 105.358 209.233ZM107.335 215.259C107.907 214.798 108.63 214.891 109.106 215.546C109.199 216.995 108.189 217.586 106.965 218.473C106.882 217.129 106.362 216.04 107.335 215.259ZM107.648 224.947C107.501 225.059 107.275 225.067 106.909 225.175C106.654 221.612 106.333 221.103 109.587 219.806C109.665 221.004 109.738 222.12 109.808 223.213C109.028 223.848 108.348 224.41 107.648 224.947ZM113.431 216.954C113.69 217.95 113.946 218.933 114.27 220.178C113.414 220.525 113.195 221.575 112.004 221.502C111.886 220.64 111.747 219.841 111.674 219.039C111.542 217.565 111.558 217.563 113.431 216.954ZM114.427 227.497C112.55 227.576 112.074 227.464 111.989 226.654C111.824 225.044 111.689 224.35 114.504 223.038C115.141 225.865 115.141 225.865 114.427 227.497ZM115.371 209.813C114.922 209.778 114.475 209.741 114.029 209.704C114.04 209.582 114.05 209.46 114.06 209.338H115.384C115.378 209.495 115.373 209.656 115.371 209.813ZM115.529 215.97C117.335 216.001 117.482 216.046 117.631 216.704C117.902 217.919 117.111 218.351 115.993 218.803C115.833 217.832 115.697 216.987 115.529 215.97ZM118.65 220.209C118.992 221.26 119.344 222.35 119.729 223.532C118.954 224.16 118.221 224.753 117.339 225.47C115.821 222.046 116.187 220.281 118.65 220.209ZM117.782 228.589C117.77 228.415 117.757 228.241 117.747 228.07C118.522 227.566 119.296 227.063 120.311 226.4C120.624 227.423 120.847 228.155 121.214 229.349C119.777 229.031 118.78 228.808 117.782 228.589ZM120.746 219.237C120.688 218.822 121.019 218.065 121.338 217.958C121.715 217.832 122.436 218.105 122.722 218.444C123.817 219.752 123.511 220.928 121.585 222.11C121.251 221.027 120.878 220.151 120.746 219.237ZM122.892 227.411C122.666 226.559 122.44 225.72 122.192 224.78C122.865 224.255 123.492 223.765 124.314 223.12C125.329 225.914 125.07 226.615 122.892 227.411ZM123.938 230.387C123.89 230.207 123.84 230.027 123.793 229.847C124.426 229.366 125.06 228.88 126.096 228.091C126.185 229.314 126.234 230.006 126.307 230.994C125.333 230.746 124.635 230.566 123.938 230.387ZM127.144 224.123C125.86 221.953 125.884 221.765 127.585 221.203C127.889 221.781 128.2 222.37 128.546 223.032C128.111 223.435 127.732 223.792 127.342 224.139C127.307 224.168 127.21 224.127 127.144 224.123ZM129.173 225.722C130.105 227.006 129.672 228.279 129.15 229.554C127.699 227.4 127.694 226.433 129.173 225.722ZM131.391 233.303C130.716 232.474 129.196 232.929 128.972 231.459C128.939 231.251 129.2 230.998 129.405 230.622C129.697 230.974 129.9 231.222 130.167 231.542C130.561 231.269 130.961 230.99 131.524 230.599C131.663 231.542 131.77 232.263 131.878 232.98C131.715 233.088 131.553 233.195 131.391 233.303ZM131.7 218.938C131.402 218.185 131.164 217.578 130.857 216.801C132.908 217.175 132.961 217.317 131.7 218.938ZM134.158 223.114C132.375 220.944 132.373 220.62 134.119 218.935C136.308 221.155 136.314 221.701 134.158 223.114ZM135.291 225.022C135.867 224.311 136.24 223.85 136.838 223.108C137.599 224.579 138.899 225.361 138.763 227.322C137.481 226.475 136.455 225.795 135.291 225.022ZM140.372 233.786C139.56 232.466 138.417 231.515 138.63 229.49C139.771 230.385 140.656 231.079 141.602 231.821C141.18 232.497 140.823 233.063 140.372 233.786ZM142.617 234.055C144.487 236.006 144.732 236.989 143.669 238.277C141.059 236.876 140.811 235.88 142.617 234.055ZM145.218 243.169C144.881 242.59 144.586 242.086 144.243 241.493C145.777 241.819 145.877 241.98 145.218 243.169ZM148.25 248.627C146.221 245.872 146.127 245.225 147.552 243.799C149.652 246.14 149.806 247.205 148.25 248.627ZM148.874 238.064C148.691 237.698 148.509 237.335 148.325 236.969C148.439 236.903 148.549 236.835 148.662 236.768C148.899 237.12 149.135 237.471 149.373 237.82C149.207 237.901 149.042 237.986 148.874 238.064ZM151.247 238.486C152.028 239.203 152.825 239.932 153.708 240.745C153.062 241.782 152.5 242.689 151.759 243.886C151.179 242.819 150.732 242.071 150.355 241.288C149.684 239.891 149.742 239.738 151.247 238.486ZM150.485 249.251C151.084 250.218 151.57 251.009 152.21 252.043C150.017 251.119 149.857 250.875 150.485 249.251ZM154.412 260.107C153.391 258.939 152.838 257.807 152.668 256.513C152.635 256.271 152.925 255.988 153.086 255.686C155.129 257.689 155.327 258.298 154.412 260.107ZM152.691 245.324C153.602 243.999 154.029 242.664 155.317 241.807C156.212 242.66 157.044 243.454 157.991 244.355C157.303 245.539 156.661 246.643 155.81 248.108C154.607 247.035 153.675 246.202 152.691 245.324ZM156.237 260.714C156.57 261.44 156.783 261.903 156.997 262.368C156.123 262.213 155.45 261.967 156.237 260.714ZM156.682 250.584C157.316 251.262 157.956 251.95 158.68 252.723C158.223 253.545 157.809 254.289 157.351 255.108C155.348 252.781 155.203 251.915 156.682 250.584ZM159.757 270.547C159.387 269.289 158.148 268.439 158.635 266.922C160.942 268.051 161.28 269.012 159.757 270.547ZM160.598 259.354C157.736 257.604 157.709 257.501 159.397 254.851C159.579 254.564 159.813 254.312 160.118 253.923C162.684 255.769 162.688 255.773 161.321 258.228C161.106 258.621 160.841 258.982 160.598 259.354ZM161.661 262.663C162.205 263.138 162.727 263.643 163.301 264.077C164.347 264.872 163.535 265.277 163.013 265.959C162.164 264.951 161.508 264.073 161.661 262.663ZM162.91 289.294C161.92 287.613 161.99 287.144 163.481 286.597C163.26 287.638 163.094 288.411 162.91 289.294ZM162.145 271.023C162.522 271.643 162.883 272.213 163.222 272.798C163.343 273.009 163.403 273.252 163.55 273.639C161.41 272.43 161.269 272.17 162.145 271.023ZM164.894 280.756C164.469 279.835 164.088 279.012 163.709 278.192C165.931 279.229 165.931 279.229 164.894 280.756ZM165.459 294.346C164.2 294.764 163.937 294.127 164.082 293.241C164.426 291.147 164.83 289.066 165.256 286.989C165.31 286.714 165.635 286.495 166.078 285.948C167.191 289.178 164.353 291.585 165.459 294.346ZM166.105 282.234C166.466 281.734 166.826 281.234 167.331 280.531C167.69 281.337 167.901 281.816 168.228 282.548C167.466 282.625 166.911 282.678 166.36 282.734C166.273 282.567 166.19 282.401 166.105 282.234ZM170.078 287.469C170.04 288.634 170.043 289.806 169.889 290.955C169.744 292.032 169.417 293.084 169.127 294.346H166.899C167.389 291.852 167.824 289.558 168.303 287.272C168.411 286.764 168.502 286.117 169.305 286.231C170.053 286.334 170.098 286.9 170.078 287.469ZM169.053 277.187C169.055 276.948 169.413 276.712 169.674 276.394C170.502 277.123 171.207 277.741 172.139 278.564C171.695 279.413 171.316 280.143 170.776 281.176C169.949 279.653 169.032 278.622 169.053 277.187ZM173.452 287.436C173.236 289.544 173.023 291.647 172.76 293.749C172.671 294.448 172.168 294.537 171.376 294.317C171.594 291.629 171.805 288.99 172.016 286.394C173.226 285.964 173.553 286.468 173.452 287.436ZM172.493 282.42C173.126 281.467 173.557 280.82 174.073 280.047C174.924 280.862 175.581 281.488 176.33 282.203C174.993 283.164 173.92 282.716 172.493 282.42ZM176.604 293.363C176.567 293.904 176.388 294.522 175.614 294.421C174.852 294.32 174.866 293.702 174.908 293.15C175.048 291.22 175.202 289.294 175.388 287.37C175.448 286.741 175.575 286.08 176.968 286.394C176.852 288.721 176.757 291.044 176.604 293.363ZM177.198 280.391C174.396 279.016 174.295 277.999 176.724 276.047C177.246 276.656 177.77 277.266 178.329 277.919C177.923 278.808 177.561 279.599 177.198 280.391ZM179.566 294.152C179.555 294.301 179.062 294.423 178.783 294.563C178.783 291.695 178.776 288.959 178.803 286.223C178.805 286.13 179.133 286.039 179.387 285.906C179.576 286.07 179.659 286.105 179.677 286.161C180.506 288.833 179.715 291.49 179.566 294.152ZM178.636 281.473C179.019 280.765 179.383 280.089 179.92 279.093C180.568 280.376 181.013 281.265 181.479 282.189C180.34 282.631 179.445 282.761 178.636 281.473ZM183.045 295.062C182.509 294.871 182.092 294.836 182.055 294.696C181.303 291.873 181.889 289.041 182.196 286.189C182.384 289.087 183.318 291.914 183.045 295.062ZM185.332 295.223C184.803 291.99 184.292 288.981 184.265 285.685C184.834 285.892 185.276 285.91 185.404 286.121C186.993 288.742 186.883 291.771 187.674 295.02C186.715 295.101 186.083 295.157 185.332 295.223ZM191.692 294.402C191.619 294.735 191.311 295.177 191.021 295.268C190.429 295.448 190.145 294.973 190.097 294.444C189.946 292.801 189.826 291.156 189.695 289.511C189.855 289.467 190.016 289.426 190.178 289.384C191.048 290.939 192.129 292.431 191.692 294.402Z" fill="black"/>
</svg>
