<svg width="539" height="300" viewBox="0 0 539 300" fill="none" xmlns="http://www.w3.org/2000/svg">
<path fill-rule="evenodd" clip-rule="evenodd" d="M538.32 12.5799C538.141 12.055 537.957 11.5361 537.73 11.0232C537.7 10.9814 537.581 10.7667 537.349 10.3611C536.896 9.66325 536.431 8.97714 535.966 8.27927C535.024 7.54562 534.219 6.53178 533.384 5.42235C532.717 4.52169 531.131 4.28294 529.939 3.80577C516.658 -1.49683 502.852 -0.530451 489.54 2.30277C472.968 5.82789 456.689 10.8561 440.474 15.8545C425.196 20.5785 410.114 25.9706 395.265 32.0187C387.468 35.1919 379.283 37.5599 371.105 39.6058C367.152 40.6019 362.836 41.3236 358.699 38.9556C348.065 32.8478 336.709 28.7144 324.655 26.0899C312.37 23.4178 300.179 20.853 287.511 20.9007C273.378 20.9424 259.566 22.6722 245.909 26.43C231.489 30.3905 217.909 36.1523 206.285 45.4691C196.503 53.3126 187.537 62.188 178.459 70.8606C173.123 75.9545 167.675 81.108 163.359 87.013C156.384 96.5505 150.268 106.702 146.227 117.94C145.207 120.785 143.806 123.487 142.584 126.249C141.547 125.151 141.458 124.364 141.458 123.571C141.452 118.28 139.628 116.52 134.4 116.95C132.564 117.099 130.746 117.588 128.904 117.654C117.327 118.071 107.008 121.841 97.5123 128.521C89.4767 134.176 84.5289 141.447 83.4082 151.205C83.0863 154.038 83.2115 156.919 83.1221 159.699C80.3263 160.498 77.7333 160.915 75.4203 161.971C70.1567 164.351 69.2922 167.632 72.1654 172.606C73.3219 174.61 74.2757 176.74 75.5872 179.34C70.7348 180.468 66.264 181.487 61.7216 182.543C61.3461 183.05 60.9229 183.533 60.4997 184.005C60.2553 185.955 60.2791 187.894 60.75 190.017C61.3163 192.564 61.8587 195.188 61.507 197.807C60.9645 201.773 58.2344 204.362 55.0988 206.402C54.0437 207.887 52.6786 209.223 50.9796 210.38C44.8576 214.562 38.0142 217.598 32.0173 222C22.4377 229.032 15.0817 238.104 8.04757 247.469C3.94035 254.101 1.29953 261.158 0 268.709C0.888209 272.693 2.28906 276.236 4.82851 279.624C5.26367 280.215 5.71087 280.787 6.1818 281.348C6.35468 281.509 7.04609 282.255 7.14743 282.362C8.17275 283.382 9.23389 284.378 10.3427 285.297C11.4753 286.239 12.6435 287.152 13.8417 288.005C13.955 288.094 15.4095 289.066 14.9982 288.804C15.481 289.12 15.958 289.43 16.4468 289.723C19.2187 291.393 22.098 292.89 25.0905 294.124C25.782 294.411 26.4735 294.697 27.1709 294.965C27.2961 295.013 28.4645 295.413 28.5777 295.46C29.7998 295.854 31.0277 296.242 32.2676 296.576C38.2108 298.174 44.3152 299.188 50.4492 299.683C50.7591 299.701 52.3686 299.809 52.5951 299.815C53.3641 299.85 54.1272 299.892 54.8962 299.91C56.4282 299.964 57.9602 300 59.4922 300C62.5383 300.006 65.5786 299.94 68.6187 299.791C69.966 299.725 71.3071 299.642 72.6603 299.546C80.1474 297.739 87.5511 295.621 94.9847 293.611C101.536 291.846 108.135 290.247 114.597 288.207C120.01 286.495 125.178 284.02 130.591 282.302C140.397 279.195 150.483 276.869 160.122 273.326C170.065 269.663 179.657 265.041 189.314 260.627C194.16 258.408 198.738 255.634 203.501 253.242C211.382 249.282 219.37 245.512 227.232 241.504C240.347 234.824 253.45 228.125 266.445 221.212C273.574 217.419 280.638 213.428 287.404 209.032C291.476 206.39 295.505 204.016 300.215 202.757C301.896 202.304 303.398 201.153 304.984 200.342C306.248 199.692 307.463 198.898 308.799 198.439C316.048 195.946 323.32 193.476 330.605 191.108C336.011 189.361 341.43 187.619 346.92 186.17C353.15 184.518 359.504 183.366 365.716 181.672C373.143 179.65 380.487 177.306 387.867 175.07C402.43 170.656 417.142 166.773 430.966 160.11C441.565 155.01 451.95 149.779 461.863 143.284C482.232 129.953 501.081 115.136 516.056 95.7513C517.176 94.3078 518.16 92.7153 519.435 91.421C524.246 86.5837 526.887 80.5473 529.098 74.2606C531.048 68.6955 535.668 47.7655 536.103 43.1608C536.777 36.1285 538.255 29.2034 538.893 22.165C538.922 21.8489 538.946 21.6224 538.964 21.4673C538.964 21.3242 538.97 21.1153 538.976 20.8528C539 19.97 538.994 19.0873 539 18.2045C539 17.0414 538.976 15.8723 538.946 14.7092C538.75 13.9875 538.571 13.2658 538.32 12.5799ZM155.556 120.54C158.948 110.8 164.414 102.193 170.477 94.1707C176.33 86.4286 183.674 79.7959 190.542 72.8589C195.603 67.7591 200.914 62.8979 206.196 58.0248C213.17 51.5889 221.057 46.5248 229.754 42.7372C234.63 40.6138 239.375 37.9237 244.466 36.5638C252.043 34.5298 259.84 33.1879 267.613 32.0247C277.461 30.5515 287.446 30.8319 297.329 31.4164C303.499 31.7862 309.592 33.5993 315.69 34.8937C319.451 35.687 323.123 36.9515 326.897 37.5897C334.706 38.9019 341.478 42.4569 348.124 46.5427C354.032 50.1752 360.219 53.3664 366.991 57.148C365.483 60.5836 364.13 64.5502 362.091 68.129C356.679 77.6545 350.217 86.2078 341.06 92.7212C331.63 99.4315 323.022 107.305 313.621 114.075C302.092 122.383 289.836 129.505 276.627 134.969C268.305 138.405 260.4 142.908 252.043 146.272C234.756 153.233 217.087 158.989 198.899 163.259C190.154 165.317 181.505 165.991 172.652 165.824C170.465 165.789 168.277 166.075 165.624 166.236C162.816 163.26 159.711 159.967 156.885 156.967C158.262 153.167 160.885 150.608 159.538 146.242C158 147.012 156.355 147.292 155.681 148.258C152.7 152.523 148.808 151.616 143.932 150.573C147.908 140.391 152.057 130.573 155.556 120.54ZM120.403 168.216C117.947 167.172 115.736 165.729 113.685 163.963C112.522 162.961 112.695 161.094 113.929 160.241C114.305 159.979 114.674 159.788 115.044 159.633C115.11 159.531 115.163 159.436 115.229 159.341C115.241 157.838 116.928 156.937 118.317 157.301C119.276 157.175 120.308 157.426 121.297 158.118C121.923 158.559 122.436 159.126 122.805 159.758C123.962 159.687 125.16 160.373 125.267 161.888C125.434 164.13 125.887 166.176 126.859 168.21C126.954 168.401 126.996 168.598 127.008 168.812C128.015 170.984 125.327 173.698 123.473 171.711C121.953 171.741 120.957 170.292 121.059 168.986C120.844 168.735 120.63 168.479 120.403 168.216ZM119.253 174.061C119.861 174.622 120.075 175.499 119.944 176.304C121.1 178.189 118.382 180.813 116.23 179.185C115.652 178.75 115.05 178.356 114.424 177.992C111.902 177.777 109.429 177.294 107.217 175.952C106.442 175.481 106.096 174.771 106.055 174.05C105.751 173.674 105.488 173.268 105.286 172.839L105.268 172.821C104.844 172.463 104.606 172.063 104.499 171.652C104.475 171.64 104.457 171.628 104.427 171.616C104.439 171.562 104.457 171.515 104.469 171.467C104.391 170.96 104.529 170.453 104.785 170.012C104.85 169.433 105.017 168.878 105.315 168.347C106.353 166.492 108.528 165.103 110.698 165.836C114.567 167.13 116.433 171.437 119.253 174.061ZM105.888 179.215C110.704 179.567 117.375 181.428 117.762 186.444C117.822 187.172 117.738 187.804 117.536 188.347C117.411 189.415 116.695 190.423 115.473 190.5C112.856 191.771 108.671 191.258 106.496 190.106C106.305 190.005 106.144 189.886 106.001 189.761C105.912 189.737 105.828 189.725 105.733 189.713C105.548 189.665 105.357 189.617 105.172 189.576C100.219 189.951 98.7462 187.47 98.4839 180.808C98.6568 180.819 98.8357 180.837 99.0146 180.861C99.402 179.424 100.254 178.255 101.995 177.992C103.378 177.771 104.737 178.446 105.888 179.215ZM107.438 203.3C107.789 201.767 108.117 201.457 108.976 200.199C109.315 199.704 110.168 199.089 110.424 198.857C110.555 198.749 110.698 198.648 110.836 198.558C111.444 198.2 112.093 197.89 112.737 197.61C113.125 197.443 113.524 197.318 113.935 197.234C114.853 197.061 115.831 196.781 116.791 196.805C117.518 196.817 118.263 196.852 118.99 196.966C119.67 197.073 120.397 197.401 120.999 197.61C121.16 197.67 121.315 197.747 121.452 197.837C122.835 198.755 123.056 198.839 124.093 200.175C124.504 200.706 124.808 201.35 125.005 202C125.19 202.597 125.297 203.223 125.381 203.843C125.392 203.939 125.393 204.028 125.393 204.117C125.369 204.815 125.381 205.662 125.166 206.378C124.945 207.136 124.701 207.911 124.343 208.621C124.01 209.289 123.539 209.891 122.984 210.398C122.561 211.001 122.03 211.532 121.404 211.949C120.021 212.88 118.4 213.136 116.773 212.85C115.962 212.713 115.151 212.54 114.358 212.295C113.583 212.056 112.809 211.8 112.057 211.478C111.855 211.388 111.646 211.293 111.443 211.168C110.293 210.482 109.16 209.7 108.445 208.525C107.616 207.159 107.575 206.76 107.312 205.209C107.205 204.589 107.295 203.915 107.438 203.3ZM125.297 180.032C126.531 177.897 128.91 176.424 131.574 176.412C135.848 176.388 140.128 180.11 140.737 184.327C141.225 187.685 139.908 191.777 136.85 193.524C134.287 194.974 131.091 194.669 128.51 193.459C122.954 190.858 120.117 184.351 125.297 180.032ZM131.032 204.881C132.981 201.756 135.801 200.443 138.996 199.626C141.327 197.407 144.665 197.64 147.18 199.495C150.984 202.298 151.753 208.108 149.35 212.056C146.972 215.981 142.71 219.113 137.875 218.117C135.425 217.604 132.766 215.927 131.604 213.625C130.275 210.983 129.285 207.672 131.032 204.881ZM163.985 175.38L153.165 176.054C153.136 175.773 153.112 175.505 153.088 175.26C151.896 175.714 150.68 176.131 149.434 176.447C146.513 177.187 144.963 172.737 147.902 171.992C151.777 171.002 155.317 169.075 159.198 168.079C162.006 167.369 163.538 171.425 161.07 172.427C161.97 173.334 162.906 174.288 163.985 175.38ZM147.8 190.268C147.401 188.222 147.854 185.752 148.909 183.963C150.62 181.082 153.124 179.752 156.343 179.185C157.952 178.905 159.49 179.543 160.665 180.635C162.328 180.736 163.913 181.249 165.386 182.448C167.156 183.885 168.307 186.361 168.229 188.657C168.044 194.109 164.408 198.2 159.085 199.203C156.42 199.704 153.589 198.684 151.508 197.049C149.315 195.337 148.313 192.904 147.8 190.268ZM151.496 157.903C152.861 157.671 153.791 158.947 153.994 160.104C154.542 163.206 153.309 165.92 151.037 168.001C149.034 169.844 146.078 171.103 144.57 173.423C142.948 175.916 138.757 173.871 140.337 171.342C139.699 164.894 145.392 158.911 151.496 157.903ZM137.672 158.893C138.43 162.52 137.327 165.908 136.874 169.487C136.558 171.956 133.404 171.741 132.492 169.922C131.872 169.737 131.324 169.302 130.984 168.568C129.273 164.78 125.887 161.894 128.999 157.742C129.035 157.694 129.07 157.659 129.106 157.611C129.309 156.639 129.756 155.786 130.638 155.297C133.285 153.817 137.064 156.018 137.672 158.893ZM88.1474 165.46C91.9924 162.884 92.7911 160.766 91.3068 156.436C90.3053 153.501 89.8999 150.942 91.0683 147.924C92.6838 143.749 93.9773 139.484 98.2336 137.146C104.988 133.442 111.533 129.219 119.163 127.489C121.935 126.863 124.904 127.054 128.457 126.839C128.093 128.945 128.26 130.567 127.568 131.647C124.153 137.009 124.391 142.389 127.538 148.622C127.264 148.7 126.99 148.771 126.722 148.849C127.103 149.326 127.425 149.875 127.688 150.537C128.236 151.903 127.479 152.958 126.424 153.37C125.571 154.468 123.741 154.67 122.591 153.31C121.864 152.445 121.136 151.622 120.349 150.871C118.889 150.823 117.279 151.038 116.475 151.014C116.445 151.008 116.409 151.002 116.379 151.002C113.232 152.094 110.68 154.318 108.487 157.802C106.555 153.692 103.336 150.435 105.679 145.652C105.917 145.169 106.06 144.596 106.084 144.059C106.174 142.359 106.198 140.522 104.123 139.985C102.102 139.466 100.445 140.188 99.6404 142.246C98.1084 146.183 98.0308 150.227 99.2767 154.217C99.9801 156.484 101.119 158.607 101.953 160.569C101.238 162.072 100.529 163.564 99.8132 165.055C99.9384 165.419 99.9564 165.854 99.8312 166.337C99.4676 167.805 99.1695 169.367 99.4735 170.876C99.7835 172.373 99.0622 173.859 97.3931 173.996C95.7717 174.121 94.2456 174.425 92.6123 174.205C92.5765 174.199 92.5347 174.187 92.5049 174.181C88.1652 174.98 82.4306 173.053 80.0462 169.624C82.7525 168.27 85.6378 167.137 88.1474 165.46ZM61.1673 214.764C62.2344 210.446 66.0433 207.261 67.6946 203.068C68.4218 201.225 68.6783 199.346 68.3742 197.377C68.3087 196.954 68.1954 196.596 68.0404 196.268C66.6038 194.64 65.9601 191.484 66.741 189.629C67.0271 188.943 67.4264 188.365 67.9153 187.864C67.9093 187.84 67.8973 187.81 67.8854 187.78C67.9689 187.745 68.0345 187.715 68.1179 187.673C70.1626 185.788 73.489 185.233 76.1178 184.84C77.0954 184.601 78.079 184.392 79.0625 184.219C82.365 183.342 85.6078 182.024 89.0534 182.12C90.4304 182.156 91.6167 182.543 92.6361 183.187C93.1905 183.313 93.6853 183.611 93.9774 184.13C94.0251 184.213 94.0727 184.297 94.1144 184.38C95.5808 185.866 96.5943 187.899 97.3096 189.951C97.3692 190.035 97.4228 190.118 97.4824 190.202C97.7149 190.351 97.9474 190.524 98.1799 190.721C99.3543 191.788 100.713 194.628 102.52 194.604C103.968 194.592 105.387 195.892 104.97 197.443C104.159 200.461 102.311 202.781 99.223 203.616C97.9831 203.951 96.6599 203.432 96.2306 202.155C94.5675 197.282 86.4484 199.411 82.7346 199.889C81.2562 200.079 79.3188 200.366 77.4351 200.336C76.7555 201.117 76.1298 201.958 75.5813 202.883C77.6737 202.972 79.7541 203.062 81.8465 203.151C81.8822 203.449 81.9179 203.742 81.9596 204.028C79.9746 204.768 77.9896 205.519 75.4442 206.474C79.9806 211.317 84.7018 210.028 90.6332 208.746C87.9447 211.209 86.2338 212.778 84.3859 214.472C86.6094 216.995 88.672 215.91 90.5617 214.89C92.505 213.846 94.2218 212.367 96.183 211.359C97.8223 210.512 99.0563 210.166 100.117 210.386C101.888 210.177 103.736 210.565 105.393 211.418C106.4 211.937 106.758 212.939 106.639 214.007C106.15 218.385 101.292 221.916 97.9356 224.135C95.1398 225.99 91.9326 227.94 88.5884 228.936C89.5303 230.01 91.5631 230.243 94.3649 229.551C96.0698 229.133 97.709 228.465 99.6762 227.821C98.4005 230.32 97.3215 232.438 96.1233 234.776C97.1307 235.086 98.0666 235.229 98.9489 235.265C105.888 230.219 114.18 226.718 119.008 219.441C119.545 218.629 120.343 218.307 121.13 218.319C122.174 217.95 123.509 218.26 124.105 219.309C124.248 219.292 124.385 219.268 124.51 219.25C124.463 219.494 124.415 219.733 124.361 219.966C124.385 220.073 124.403 220.18 124.415 220.3C125.47 231.173 112.862 236.118 105.005 240.114C99.5211 242.912 94.4304 246.318 88.7792 248.835C82.0849 251.823 75.1104 254.191 67.8438 255.342C65.9064 255.658 64.4339 252.777 65.9362 251.441C70.0255 247.791 72.9285 243.258 75.3607 238.384C76.7079 235.694 77.6378 233.142 78.0551 230.153C78.228 228.871 78.4248 227.612 78.6632 226.372C78.1267 226.157 77.5901 225.96 77.1311 225.799C73.6617 224.582 70.0017 223.902 66.5561 222.65C64.0644 221.755 61.7872 220.282 58.8424 218.767C59.7425 217.264 60.4699 215.957 61.1673 214.764ZM110.978 271.292C105.315 273.892 99.3006 275.819 93.3156 277.608C83.438 280.555 73.5664 283.722 63.4921 285.75C52.1242 288.034 40.4939 289.687 29.0247 286.03C24.8757 284.706 20.5122 283.263 17.0309 280.781C10.1935 275.896 8.84641 269.812 12.6019 260.585C16.1846 251.793 21.8416 244.2 28.0829 237.096C33.6983 230.72 40.1244 225.215 47.4029 220.765C47.9514 220.425 48.5952 220.252 49.1854 220.007C50.8008 222.417 48.6488 222.739 47.6891 223.515C38.2824 231.132 31.7967 240.818 27.0576 251.859C24.9116 256.851 24.9474 261.891 25.782 267.009C26.4258 270.94 28.7267 273.552 33.7817 274.262C32.9829 269.616 32.1842 265.321 31.5285 261.008C30.0799 251.441 34.8189 244.254 40.947 237.812C43.7308 234.889 47.1347 232.557 50.2523 229.956C52.1539 228.364 54.1511 227.183 56.8753 228.304C57.5012 231.853 55.4863 234.323 53.8172 236.923C51.8322 240.019 49.7159 243.037 47.9812 246.264C46.9917 248.107 47.2837 249.944 49.8648 250.105C53.1792 245.614 56.2671 241.045 59.7604 236.816C61.8766 234.257 64.6307 232.301 68.3326 232.432C71.492 232.539 72.6663 234.191 71.4443 237.126C71.0926 237.961 70.5203 238.73 69.9182 239.416C65.9063 243.985 62.1031 248.775 56.6248 251.799C55.1822 252.592 53.6442 253.493 52.6428 254.74C51.5817 256.058 50.4313 257.925 50.6042 259.398C50.7293 260.448 52.8634 261.671 54.306 262.076C59.4565 263.526 64.5591 262.136 69.5485 261.026C81.8463 258.289 93.3574 253.314 104.612 247.803C110.049 245.154 115.354 242.118 120.338 238.695C123.747 236.362 126.942 233.398 129.404 230.105C130.316 228.889 131.342 227.928 132.445 227.129C132.612 226.008 133.112 224.988 133.464 223.902C133.78 222.93 134.507 222.047 135.622 222.035C139.33 221.994 142.519 220.86 145.613 218.97C145.78 218.671 146.018 218.397 146.37 218.164C148.486 216.715 149.791 214.275 152.015 212.969C154.083 211.758 156.408 211.406 158.739 212.116C159.699 212.414 160.611 212.832 161.499 213.309C165.118 213.434 168.879 214.174 172.187 214.12C173.153 214.108 174.113 214.061 175.073 214.001C174.929 213.721 174.769 213.434 174.584 213.154C171.365 212.271 167.818 212.027 164.808 210.828C162.679 209.981 163.413 206.289 165.72 206.372C175.794 206.736 186.083 208.519 195.835 204.982C199.632 203.599 202.691 201.362 205.54 198.827C203.43 199.554 201.218 200.032 199.036 200.467C195.001 201.278 190.941 201.994 186.828 202.227C183.263 202.418 170.298 203.754 170.506 197.538C170.572 195.355 173.064 194.592 174.387 195.498C174.959 195.349 175.567 195.254 176.217 195.176C192.658 193.125 208.997 190.506 225.081 186.408C234.481 184.017 244.091 182.37 253.42 179.752C260.484 177.766 267.238 174.712 274.176 172.236C275.565 171.741 277.026 170.089 279.017 172.278C278.015 173.209 277.133 174.276 276.03 175.04C266.32 181.738 256.329 188.067 246.886 195.111C231.459 206.641 214.315 215.313 198.083 225.495C189.981 230.577 181.296 234.722 172.867 239.297C162.822 244.749 152.855 250.356 142.704 255.622C132.242 261.05 121.691 266.365 110.978 271.292ZM529.557 44.0733C526.249 54.0641 523.567 64.3413 519.286 73.9027C514.428 84.7465 506.261 93.5324 498.166 102.199C488.134 112.947 476.545 121.805 464.241 129.66C454.781 135.697 444.963 141.19 434.167 144.715C429.619 146.201 425.303 148.378 420.892 150.28C409.81 155.058 398.12 157.617 386.425 160.337C378.186 162.251 370.199 165.252 362.097 167.751C360.166 168.353 288.543 192.803 273.366 203.998C268.06 207.911 262.087 211.001 256.228 214.09C241.366 221.928 226.458 229.676 211.435 237.198C196.109 244.88 180.634 252.288 165.177 259.714C162.763 260.871 160.086 261.51 157.535 262.38C157.416 262.178 157.303 261.975 157.183 261.766C159.681 260.054 162.054 258.14 164.682 256.654C181.755 247.015 198.911 237.502 215.996 227.863C219.185 226.062 222.112 223.801 225.259 221.904C230.911 218.492 236.86 215.522 242.278 211.782C255.774 202.471 269.95 194.204 282.552 183.539C290.272 177.008 299.171 171.902 307.171 165.675C321.776 154.3 338.36 146.069 353.686 135.858C363.552 129.279 374.341 124.763 385.28 120.356C395.48 116.246 405.333 111.271 415.348 106.696C425.53 102.044 435.771 97.4989 445.881 92.6914C448.617 91.397 497.379 65.3314 497.505 65.2122C507.138 56.7602 519.453 51.732 527.674 41.4847C527.984 41.103 528.574 40.9478 529.683 40.3155C529.653 41.8783 529.891 43.0713 529.557 44.0733ZM528.353 21.8549C524.741 29.6328 519.34 35.848 512.55 40.7808C492.64 55.2213 471.806 68.1706 449.529 78.6864C438.197 84.0367 426.782 89.208 415.467 94.6179C405.894 99.1988 396.451 104.06 386.86 108.617C384.374 110.001 381.87 111.349 379.331 112.637C376.142 114.635 372.195 117.314 368.44 117.791C363.731 120.075 359.2 122.569 354.694 125.354C349.573 128.515 344.429 131.659 338.891 134.056C336.691 135.017 335.505 131.486 337.686 130.537C342.765 128.336 364.22 107.257 368.655 101.161C374.181 93.5802 379.253 85.665 384.577 77.9348C386.872 74.6065 389.292 71.3736 391.677 68.0632C393.656 68.1289 395.462 68.1825 397.673 68.2422C397.649 69.4172 397.948 70.5685 397.566 71.3916C393.632 79.939 389.656 88.4923 383.361 95.632C379.951 99.4912 370.282 110.353 373.03 111.558C374.204 110.997 375.373 110.436 376.541 109.858C379.826 106.058 383.122 102.283 386.329 98.4174C391.17 92.572 395.295 86.2794 398.353 79.2829C399.754 76.0798 401.643 73.0975 403.229 69.972C404.284 67.9082 405.786 67.61 408.54 68.6121C407.342 71.4632 406.281 74.0996 405.125 76.6883C403.956 79.3127 402.699 81.9073 402.025 84.8837C404.541 83.8995 405.643 81.7283 406.854 79.6764C408.529 76.8014 410.21 73.9326 411.777 71.0039C413.005 68.7194 414.573 67.27 417.22 67.1149C417.595 66.8405 417.977 66.5959 418.388 66.3871C420.719 65.2002 423.145 64.6694 425.685 64.1147C433.667 62.3611 441.321 59.1641 448.766 55.8417C449.44 55.5435 450.12 55.2273 450.799 54.9291C453.619 52.7042 456.903 51.565 460.182 50.384C460.533 50.1991 460.885 50.0201 461.237 49.8352C464.408 48.1293 467.729 46.4294 470.31 43.8527C467.818 44.6878 465.296 45.3678 462.709 45.8151C461.165 46.0776 459.61 46.2624 458.054 46.4235C453.684 48.1353 449.279 49.7815 444.76 51.1176C439.157 52.7758 430.203 55.5256 423.27 54.0582C421.56 54.3803 419.825 54.6309 418.054 54.7561C416.415 54.8814 415.128 54.3506 414.221 53.4738C411.324 53.4081 408.439 53.0979 405.614 52.4537C404.338 52.1614 403.39 51.5412 402.734 50.7419C401.184 50.6047 399.682 50.1753 398.287 49.4655C397.584 49.3581 396.857 49.1373 396.123 48.9047C393.018 47.9146 389.906 46.8946 386.347 45.7494C392.374 43.2681 397.912 40.7571 403.611 38.6873C417.178 33.7784 430.799 29.0006 444.456 24.3303C448.951 22.7914 453.607 21.7178 458.209 20.4771C465.958 18.3835 473.654 16.0692 481.487 14.3513C489.558 12.5679 497.731 10.9455 505.945 10.1045C511.358 9.55571 517.021 9.99126 522.41 10.9456C529.379 12.1863 531.274 15.5562 528.353 21.8549Z" fill="black"/>
</svg>
