<svg width="221" height="300" viewBox="0 0 221 300" fill="none" xmlns="http://www.w3.org/2000/svg">
<path fill-rule="evenodd" clip-rule="evenodd" d="M220.51 91.4667C220.145 87.1745 218.929 83.077 218.053 78.9028C217.68 77.1324 217.022 75.4092 216.346 73.7233C214.708 69.6318 213.104 65.5284 211.088 61.5902C209.776 59.0251 208.333 56.5524 206.814 54.1152C206.557 53.7001 206.286 53.2851 205.982 52.9035C201.596 47.4369 197.078 42.0844 192.189 37.0545C186.656 31.3636 180.672 26.2039 174.3 21.4789C171.937 19.7262 169.674 17.824 167.094 16.3978C162.989 14.1258 158.836 11.9423 154.7 9.72736C154.329 9.52868 153.936 9.37328 153.543 9.22574C149.882 7.8468 146.219 6.46786 142.55 5.10859C139.651 4.03454 136.616 3.50735 133.617 2.84641C131.085 2.28578 128.532 1.87859 125.955 1.58549C124.085 1.37304 122.25 0.78094 120.378 0.633407C117.102 0.373748 113.818 0.186875 110.499 0C107.181 0.186875 103.899 0.373748 100.621 0.633407C98.7493 0.78094 96.9148 1.37304 95.0429 1.58549C92.4679 1.87662 89.9146 2.28578 87.3848 2.84641C84.3855 3.50932 81.347 4.03454 78.4518 5.10859C74.7828 6.46786 71.1216 7.84877 67.4565 9.22574C67.0637 9.37328 66.6689 9.52868 66.2997 9.72736C62.1652 11.9404 58.011 14.1258 53.9079 16.3978C51.327 17.824 49.0624 19.7262 46.7015 21.4789C40.3298 26.2039 34.3411 31.3636 28.8121 37.0545C23.9233 42.0844 19.4058 47.4369 15.0199 52.9035C14.7154 53.2851 14.4464 53.7001 14.1871 54.1152C12.6708 56.5524 11.2251 59.0251 9.91307 61.5902C7.90179 65.5284 6.2932 69.6318 4.65314 73.7233C3.97944 75.4092 3.31946 77.1324 2.94824 78.9028C2.07027 83.077 0.858379 87.1745 0.491084 91.4667C0.13361 95.6665 -0.214028 99.8446 0.163088 104.054C0.30647 105.659 0.471442 107.268 0.491084 108.876C0.540187 112.68 1.15103 116.398 1.93866 120.108C2.96983 124.967 4.3074 129.733 6.07709 134.369C7.82322 138.955 9.7854 143.444 12.2916 147.681C12.7316 148.422 15.8861 153.818 16.3516 154.418C16.9585 155.187 17.4927 156.013 18.0702 156.808C19.7947 159.184 21.5035 161.553 22.9295 164.155C25.5241 168.884 28.1109 173.615 30.5641 178.421C33.911 184.969 37.3954 191.445 40.8621 197.927C43.2741 202.437 45.6722 206.958 48.2315 211.38C51.0383 216.227 53.7292 221.142 56.8089 225.83C59.0009 229.168 60.9867 232.638 63.1178 236.016C68.3836 244.378 73.6692 252.726 79.1982 260.914C80.0212 262.131 80.7479 263.416 81.5218 264.667C83.3661 267.657 84.6978 270.904 86.1434 274.093C86.6364 275.177 87.098 276.277 87.5262 277.388C87.9838 278.57 87.8071 279.839 87.9426 281.069C88.0329 281.889 88.4473 282.516 89.0975 282.981C89.6081 283.341 90.1562 283.643 90.7199 283.992C90.9065 285.98 90.7258 287.924 90.4587 289.869C90.2996 291.046 90.1758 292.228 90.0815 293.41C89.9774 294.714 90.5431 295.769 91.5782 296.479C93.4264 297.75 95.3827 298.778 97.6435 299.233C101.244 299.953 104.877 299.925 108.511 299.994C109.171 300.006 109.837 300 110.499 299.976C111.163 300 111.828 300.006 112.488 299.994C116.124 299.925 119.756 299.953 123.356 299.233C125.615 298.778 127.571 297.752 129.423 296.479C130.454 295.769 131.022 294.716 130.918 293.41C130.824 292.226 130.702 291.044 130.539 289.869C130.274 287.924 130.093 285.98 130.28 283.992C130.843 283.643 131.393 283.341 131.9 282.981C132.552 282.516 132.969 281.891 133.059 281.069C133.192 279.839 133.02 278.57 133.473 277.388C133.902 276.277 134.363 275.177 134.856 274.093C136.304 270.904 137.633 267.659 139.48 264.667C140.252 263.416 140.978 262.131 141.799 260.914C147.33 252.724 152.618 244.378 157.884 236.016C160.013 232.638 162.001 229.166 164.191 225.83C167.27 221.142 169.963 216.229 172.768 211.38C175.329 206.956 177.724 202.435 180.137 197.927C183.606 191.445 187.089 184.969 190.435 178.421C192.891 173.615 195.473 168.884 198.07 164.155C199.496 161.553 201.205 159.186 202.931 156.808C203.507 156.013 204.041 155.187 204.646 154.418C205.115 153.818 208.27 148.422 208.708 147.681C211.214 143.444 213.174 138.955 214.922 134.369C216.69 129.733 218.03 124.967 219.061 120.108C219.846 116.398 220.457 112.68 220.506 108.876C220.526 107.268 220.691 105.659 220.832 104.054C221.217 99.8446 220.866 95.6665 220.51 91.4667ZM205.481 58.1694C207.166 60.7463 208.547 63.5081 209.772 66.3191C211.919 71.2507 214.001 76.2216 214.954 81.5682C215.333 83.7005 215.739 85.8309 216.089 87.9672C216.164 88.4196 216.04 88.9035 216.005 89.3835C214.05 90.0484 212.194 90.6602 210.356 91.3152C208.541 91.9604 206.814 92.8751 204.76 93.2036C204.605 92.5525 204.391 92.0253 204.371 91.4903C204.296 89.8005 203.854 88.1816 203.519 86.5391C203.295 85.4454 203.051 84.3556 202.802 83.2678C202.254 80.8836 201.784 78.4759 201.126 76.1232C199.602 70.6507 197.398 65.4457 194.707 60.4434C194.319 59.7195 193.826 59.0369 193.747 58.1556C196.632 56.1433 199.634 54.8175 203.493 55.5728C204.131 56.4029 204.876 57.2409 205.481 58.1694ZM134.99 199.371C134.721 199.567 134.355 199.969 133.852 199.445C135.229 197.584 136.522 195.651 138.452 193.91C138.68 195.147 138.317 196.066 137.977 196.904C137.447 198.206 136.037 198.607 134.99 199.371ZM137.009 200.61C135.73 201.597 135.699 201.619 134.573 201.886C134.561 201.906 134.546 201.928 134.532 201.947C134.516 201.949 134.501 201.953 134.483 201.957C134.461 202.077 134.455 202.227 134.385 202.27C133.395 202.884 132.395 203.48 131.387 204.064C131.303 204.111 131.14 204.029 130.716 203.95C132.03 203.086 133.08 202.215 134.483 201.957C134.487 201.94 134.491 201.922 134.497 201.906C134.524 201.9 134.55 201.892 134.573 201.886C135.1 201.109 135.842 200.74 137.009 200.61ZM136.883 188.398C134.754 191.081 132.566 193.719 130.392 196.367C129.869 197.006 129.311 197.618 128.535 198.515C128.594 197.773 128.534 197.35 128.673 197.014C128.964 196.306 129.345 195.629 129.722 194.962C132.197 190.578 134.66 186.187 137.178 181.828C137.828 180.697 138.37 179.469 139.423 178.454C140.116 179.017 140.749 179.53 141.403 180.063C141.293 181.305 141.181 182.505 140.485 183.506C139.332 185.168 138.138 186.813 136.883 188.398ZM122.348 203.326C122.235 203.649 122.075 204.062 121.816 204.204C120.703 204.812 120.223 205.947 119.467 206.849C119.333 207.013 119.072 207.074 118.799 207.219C118.748 206.848 118.683 206.639 118.697 206.436C118.785 204.898 118.846 203.356 119.019 201.829C119.088 201.229 119.373 200.633 119.652 200.081C120.096 199.207 120.651 198.391 121.097 197.519C123.04 193.717 124.953 189.899 126.893 186.095C127.296 185.304 127.769 184.544 128.211 183.771C128.355 183.813 128.5 183.85 128.647 183.889C128.508 185.479 128.412 187.076 128.219 188.658C127.984 190.597 127.714 192.535 126.734 194.29C125.104 197.219 123.486 200.155 122.348 203.326ZM124.843 211.702C124.827 213.022 124.894 214.214 124.234 215.456C123.988 213.628 124.167 212.436 124.843 211.702ZM122.58 213.439C122.447 214.305 122.358 214.869 122.27 215.434C122.15 215.414 122.03 215.393 121.908 215.369C121.926 214.903 121.918 214.433 121.973 213.972C121.991 213.85 122.211 213.756 122.58 213.439ZM117.825 179.991C117.686 180.39 117.358 180.701 116.737 180.299C116.977 178.263 117.083 176.302 117.454 174.392C118.495 169.044 118.994 163.618 119.825 158.24C119.982 157.211 120.268 156.194 120.557 155.191C120.61 155 120.972 154.77 121.172 154.788C121.349 154.802 121.655 155.156 121.633 155.325C121.359 157.477 121.63 159.639 121.492 161.789C121.386 163.457 121.266 165.137 120.958 166.774C120.337 170.061 119.61 173.326 118.872 176.587C118.613 177.742 118.222 178.871 117.825 179.991ZM118.469 215.048C118.471 215.174 118.377 215.302 118.328 215.428C118.257 215.318 118.131 215.212 118.126 215.098C118.106 214.761 118.137 214.419 118.147 214.079C118.224 214.071 118.298 214.063 118.375 214.055C118.408 214.387 118.459 214.718 118.469 215.048ZM113.488 76.5442C113.457 74.8623 113.504 73.1804 113.496 71.4966C113.492 70.7786 113.801 70.2966 114.451 70.0232C116.381 69.2029 118.314 68.3807 120.251 67.5801C120.486 67.4837 120.779 67.525 121.156 67.4896C121.306 68.2272 121.51 68.898 121.575 69.5806C121.826 72.2972 122.05 75.0197 122.25 77.7421C122.378 79.4909 122.474 81.2417 122.527 82.9904C122.706 88.9449 122.861 94.8993 123.012 100.854C123.026 101.401 123.071 101.983 122.537 102.496C122.282 102.54 121.942 102.644 121.602 102.648C119.292 102.671 116.98 102.685 114.673 102.671C114.28 102.669 113.887 102.526 113.518 102.455C113.445 102.148 113.364 101.947 113.353 101.743C112.989 95.8612 113.29 89.9795 113.412 84.0999C113.463 81.582 113.535 79.0641 113.488 76.5442ZM190.343 87.381C190.29 85.7739 190.233 84.1726 189.797 82.6009C189.516 81.5977 189.337 80.5591 189.186 79.5263C188.913 77.6576 188.685 75.7849 187.949 74.0145C187.658 73.3142 187.55 72.5391 187.346 71.8015C187.049 70.7274 186.784 69.6396 186.421 68.5892C185.851 66.9565 185.209 65.3494 184.622 63.7934C186.187 62.2374 190.314 59.6979 192.221 59.0979C192.413 59.3438 192.671 59.5857 192.824 59.8828C193.877 61.9345 194.992 63.9586 195.925 66.0634C197.764 70.2219 199.427 74.4492 200.335 78.9382C200.724 80.8581 201.126 82.7799 201.647 84.6683C202.373 87.3121 202.593 90.0366 203.053 92.7237C203.106 93.0463 203.014 93.3964 202.988 93.7879C202.482 93.9787 202.044 94.1931 201.58 94.3092C198.398 95.1157 195.214 95.9084 192.026 96.6795C191.651 96.77 191.239 96.6795 190.909 96.6756C190.791 96.412 190.685 96.2881 190.687 96.1661C190.771 93.2272 190.443 90.3081 190.343 87.381ZM157.473 178.509C156.448 178.598 155.627 178.354 154.729 177.811C154.965 177.368 155.095 176.963 155.352 176.68C156.892 174.992 158.009 172.925 159.977 171.438C160.197 172.927 159.304 173.944 158.901 175.092C158.495 176.261 158.064 177.431 157.473 178.509ZM159.333 181.265C159.255 181.452 159.227 181.678 159.1 181.802C158.931 181.964 158.685 182.044 158.418 182.188C158.377 181.071 158.377 181.071 159.333 181.265ZM159.227 167.633C157.662 169.512 156.081 171.377 154.494 173.236C153.358 174.563 152.221 175.891 151.037 177.172C150.724 177.508 150.257 177.793 149.813 177.89C149.086 178.047 148.316 178.13 147.397 177.844C147.772 177.243 148.057 176.705 148.417 176.224C150.006 174.095 151.602 171.975 153.219 169.868C156.886 165.086 160.18 160.076 162.768 154.617C163.214 153.686 163.76 152.805 164.46 151.536C164.481 152.203 164.538 152.465 164.489 152.697C163.729 156.177 162.977 159.657 162.175 163.125C162.036 163.723 161.769 164.33 161.419 164.832C160.742 165.804 159.983 166.72 159.227 167.633ZM145.999 64.8163C146.623 64.8477 147.108 64.8064 147.562 64.9107C148.857 65.2077 150.143 65.5461 151.426 65.9041C153.847 66.5847 153.871 66.5886 154.462 69.0397C155.297 72.5096 156.13 75.9796 156.874 79.4693C157.314 81.519 157.685 83.5963 157.901 85.6794C158.247 89.0235 158.436 92.3853 158.685 95.7373C158.766 96.8487 158.817 97.9601 158.557 99.0912C156.136 100.053 153.641 100.207 150.856 100.346C150.807 99.3253 150.762 98.5699 150.736 97.8126C150.583 93.1958 150.561 88.5711 149.866 83.9838C149.359 80.6594 148.786 77.3487 148.016 74.0774C147.391 71.4238 146.69 68.7859 146.052 66.1362C145.959 65.7585 146.014 65.3454 145.999 64.8163ZM146.888 145.993C145.944 146.251 144.991 146.487 144.037 146.697C143.724 146.768 143.388 146.727 142.958 146.739C143.009 146.261 142.982 145.899 143.094 145.59C144.818 140.918 145.898 136.063 147.158 131.259C147.497 129.975 147.996 128.714 148.175 127.41C148.709 123.533 149.163 119.64 149.569 115.747C149.943 112.129 150.202 108.5 150.546 104.88C150.614 104.135 150.84 103.403 151.011 102.577C153.565 102.252 156.035 101.942 158.573 101.619C158.942 102.819 158.801 103.94 158.748 105.04C158.622 107.623 158.449 110.207 158.249 112.786C158.108 114.6 157.958 116.418 157.691 118.215C157.22 121.394 156.776 124.589 156.094 127.728C155.116 132.235 153.942 136.702 152.836 141.181C152.649 141.927 152.408 142.708 151.748 143.174C150.218 144.26 148.754 145.485 146.888 145.993ZM147.26 149.068C146.712 150.165 145.661 150.698 144.581 151.172C143.618 151.595 142.622 151.875 141.526 151.54C141.363 150.816 141.733 150.309 142.206 149.561C143.856 149.313 145.496 149.066 147.14 148.828C147.157 148.824 147.197 148.936 147.26 149.068ZM150.294 148.342C150.212 149.156 150.053 149.776 149.552 150.303C149.45 149.339 149.45 149.339 150.294 148.342ZM152.683 150.456C152.787 150.155 153.011 149.9 153.15 149.677C153.364 149.707 153.437 149.701 153.498 149.727C153.753 149.841 154.006 149.961 154.256 150.083C156.065 150.978 157.927 151.387 159.924 150.759C160.655 150.529 161.402 150.348 162.15 150.169C162.443 150.1 162.757 150.106 163.279 150.059C160.793 155.498 158.045 160.508 154.684 165.159C152.313 168.442 149.831 171.64 147.389 174.872C146.716 175.763 146.016 176.637 145.323 177.516C144.889 178.063 144.38 178.326 143.54 177.809C144.025 175.12 144.404 172.49 145.003 169.913C145.364 168.363 145.787 166.811 146.498 165.345C148.841 160.502 150.935 155.551 152.683 150.456ZM159.257 149.227C157.186 149.683 155.438 149.219 153.796 147.72C154.02 146.792 154.244 145.867 154.543 144.632C155.81 144.701 156.868 145.049 157.954 145.173C159.131 145.306 160.304 145.452 161.482 145.546C162.576 145.633 163.688 145.533 164.929 145.903C164.605 146.331 164.42 146.715 164.122 146.945C162.676 148.064 161.068 148.828 159.257 149.227ZM155.501 142.462C155.491 140.713 156.356 139.134 156.633 137.428C156.902 135.776 157.363 134.159 157.729 132.522C158.11 130.819 158.502 129.115 158.846 127.402C159.176 125.761 159.484 124.115 159.74 122.46C160.007 120.735 160.213 119 160.417 117.265C160.622 115.53 160.824 113.789 160.96 112.047C161.091 110.375 160.981 108.669 161.27 107.028C161.572 105.313 161.058 103.533 161.753 101.751C162.822 101.786 163.859 101.835 164.898 101.851C165.947 101.865 166.995 101.869 168.044 101.831C169.022 101.796 169.999 101.704 170.973 101.627C172.018 101.542 173.063 101.418 174.109 101.369C175.125 101.32 176.115 100.84 177.24 101.074C177.419 102.146 177.441 103.132 177.309 104.088C176.853 107.339 176.413 110.599 175.806 113.823C175.304 116.498 174.571 119.132 173.946 121.786C173.644 123.078 173.383 124.38 173.061 125.665C172.244 128.926 171.11 132.084 169.904 135.215C168.851 137.949 167.754 140.666 166.424 143.21C163.717 143.806 158.667 143.455 155.501 142.462ZM177.189 98.5797C173.866 99.5672 164.693 100.244 161.757 99.699C161.321 97.7949 161.574 95.9694 161.445 94.1675C161.313 92.2811 161.16 90.3926 160.964 88.5101C160.777 86.6984 160.569 84.8867 160.286 83.0888C160.003 81.2928 159.634 79.5106 159.264 77.7284C158.883 75.8813 158.353 74.0617 158.076 72.2008C157.813 70.4088 156.817 68.778 156.91 66.7775C158.353 66.0851 159.801 65.3985 161.238 64.6982C163.083 63.8012 165.063 63.3429 167.06 62.9593C167.516 62.8728 168.005 62.9593 168.5 62.9672C168.806 63.5298 169.128 63.994 169.333 64.5094C170.295 66.9132 171.322 69.2993 172.145 71.7503C173.552 75.9304 174.691 80.1833 175.675 84.4913C176.633 88.6832 177.103 92.9125 177.28 97.189C177.303 97.6611 177.223 98.1431 177.189 98.5797ZM146.653 74.7934C147.234 77.449 147.759 80.1204 148.195 82.8035C148.53 84.8729 148.648 86.9777 148.945 89.055C149.432 92.466 149.234 95.8986 149.363 99.3233C149.395 100.179 149.124 100.431 148.297 100.596C147.884 100.679 147.468 100.72 147.049 100.761C143.628 101.098 140.214 100.854 136.533 100.631C136.435 100.037 136.251 99.5633 136.302 99.1148C136.504 97.3149 136.746 95.517 137.04 93.7308C137.374 91.7067 136.987 89.6943 137.074 87.6761C137.119 86.5686 137.166 85.4473 136.838 84.3831C136.437 83.0907 136.341 81.7826 136.335 80.4489C136.331 79.7525 136.27 79.0523 136.217 78.3539C136.003 75.4977 135.767 72.6434 135.579 69.7832C135.536 69.1065 135.328 68.3905 135.701 67.7512C138.686 65.9041 139.59 65.6208 142.477 65.009C143.011 64.8969 143.573 64.7081 144.207 65.1664C144.372 65.727 144.594 66.386 144.761 67.0588C145.405 69.6337 146.083 72.2028 146.653 74.7934ZM137.48 102.585C137.616 102.555 137.759 102.62 137.897 102.636C141.308 103.029 144.724 103.212 148.153 102.829C148.415 102.799 148.686 102.86 149.179 102.898C149.159 103.738 149.186 104.365 149.126 104.987C148.972 106.586 148.697 108.179 148.615 109.782C148.377 114.397 147.684 118.965 147.179 123.552C147.002 125.146 146.788 126.757 146.354 128.295C145.447 131.523 144.749 134.802 143.866 138.032C143.041 141.056 142.112 144.059 140.915 146.982C138.207 147.826 135.475 147.6 132.756 147.535C132.23 147.523 131.625 147.698 131.203 147.154C131.804 144.366 134.952 103.157 137.48 102.585ZM131.918 158.996C131.865 157.953 131.882 156.903 131.894 155.854C131.898 155.591 131.998 155.325 132.069 155C132.996 154.835 133.884 154.709 134.76 154.518C136.28 154.192 137.728 153.708 138.647 152.302C138.735 152.172 138.969 152.138 139.464 151.906C138.174 156.082 136.761 159.916 135.439 163.78C134.296 167.13 132.478 170.952 131.517 172.26C131.423 171.115 131.356 170.151 131.523 169.221C132.13 165.825 132.094 162.418 131.918 158.996ZM132.055 152.961C132.11 152.024 132.169 151.082 132.222 150.187C133.707 149.746 135.108 149.75 137.655 150.191C137.492 151.172 137.038 151.741 136.353 152.164C135.227 152.854 133.617 153.177 132.055 152.961ZM133.208 79.5263C133.002 85.9627 133.098 92.4089 132.609 98.8374C132.542 99.7345 132.556 100.651 132.022 101.542C129.775 102.28 127.453 102.663 125.059 102.597C124.882 102.591 124.713 102.398 124.609 102.335C124.485 98.3476 124.271 94.4311 124.277 90.5185C124.285 86.5922 123.741 82.7032 123.694 78.7887C123.649 74.8741 122.816 71.0107 122.869 67.0371C126.273 65.9218 129.248 67.2024 132.36 68.1525C132.454 68.9374 132.546 69.6219 132.617 70.3104C132.717 71.2861 132.827 72.2598 132.888 73.2375C133.018 75.3344 133.275 77.4353 133.208 79.5263ZM124.179 109.657C124.23 108.889 124.328 108.126 124.413 107.361C124.493 106.613 124.336 105.834 124.678 105.006C125.888 104.908 127.066 104.849 128.235 104.705C129.404 104.562 130.561 104.33 131.965 104.096C131.983 104.725 132.028 105.071 131.998 105.408C131.778 107.845 131.598 110.286 131.295 112.713C130.89 115.973 130.419 119.227 129.918 122.474C129.258 126.759 128.551 131.035 127.848 135.314C127.646 136.555 127.4 137.792 127.17 139.029C126.693 141.642 126.224 144.254 125.719 146.857C125.642 147.244 125.458 147.706 125.171 147.938C124.191 148.723 123.114 149.347 121.614 149.258C121.641 148.371 121.639 147.541 121.696 146.715C121.828 144.83 122.087 142.948 122.121 141.061C122.176 137.418 122.317 133.789 122.916 130.187C122.973 129.845 122.951 129.491 122.969 129.141C123.089 126.904 123.187 124.668 123.331 122.431C123.598 118.17 123.886 113.913 124.179 109.657ZM130.073 152.382C130.101 151.886 130.117 151.521 130.152 151.157C130.158 151.117 130.262 151.058 130.321 151.058C130.37 151.056 130.462 151.123 130.466 151.167C130.513 151.554 130.649 151.965 130.073 152.382ZM124.161 154.162C123.93 155.246 123.688 156.373 123.446 157.501C123.305 157.487 123.164 157.471 123.022 157.457C123.022 156.429 122.859 155.388 123.162 154.377C123.289 153.952 123.633 153.659 124.161 154.162ZM121.954 183.514C123.994 183.059 125.138 183.138 126.249 183.819C125.285 185.738 124.328 187.672 123.342 189.59C122.36 191.498 121.341 193.387 120.339 195.283C120.235 195.295 120.129 195.306 120.025 195.318C120.015 194.992 119.942 194.649 120.003 194.335C120.726 190.727 120.913 187.015 121.954 183.514ZM122.887 180.337C122.926 179.758 122.92 179.135 123.014 178.527C123.317 176.544 123.686 174.599 124.313 172.659C125.599 168.676 126.577 164.588 127.644 160.534C127.962 159.322 128.28 158.101 128.129 156.806C128.084 156.425 128.223 155.984 128.388 155.622C128.61 155.138 128.942 154.707 129.266 154.182C130.066 154.402 130.614 154.792 130.612 155.746C130.608 156.794 130.663 157.843 130.674 158.893C130.698 161.065 130.859 163.248 130.692 165.406C130.405 169.099 129.938 172.779 129.48 176.458C129.288 177.988 128.75 179.424 127.803 180.602C125.308 180.893 124.277 180.844 122.887 180.337ZM130.372 183.238C131.287 183.156 132.041 182.538 133.106 182.841C132.134 184.603 131.238 186.234 130.339 187.865C129.657 186.232 130.085 184.771 130.372 183.238ZM131.88 180.03C131.548 180.219 131.11 180.221 130.718 180.309C130.498 178.978 130.48 178.972 130.912 178.023C131.924 175.795 133.01 173.597 133.962 171.341C136.296 165.796 138.454 160.184 140.252 154.436C140.371 154.056 140.609 153.712 140.858 153.216C143.176 153.726 145.184 152.687 147.285 151.91C147.358 152.266 147.454 152.473 147.433 152.663C147.012 156.442 146.142 160.081 144.347 163.483C142.021 167.873 139.484 172.14 136.879 176.369C136.594 176.835 136.257 177.337 135.817 177.634C134.542 178.49 133.214 179.271 131.88 180.03ZM142.844 173.291C142.675 174.038 142.55 174.713 142.369 175.374C142.173 176.086 142.483 176.945 141.666 177.618C141.234 177.425 140.762 177.221 140.297 177.014C141.403 174.272 141.733 173.782 142.844 173.291ZM142.481 183.738C143.314 182.644 144.109 181.499 145.186 180.614C145.961 180.707 146.714 180.502 147.613 180.872C145.969 182.908 144.168 184.466 142.19 185.99C141.813 185.081 142.025 184.34 142.481 183.738ZM164.407 159.68C165.245 155.642 166.094 151.603 166.942 147.567C167.068 146.965 167.39 146.567 168.254 146.475C169.174 147.905 170.922 147.822 172.548 148.35C171.809 150.327 167.302 157.327 164.996 160.135C164.894 160.258 164.674 160.28 164.456 160.373C164.434 160.087 164.367 159.873 164.407 159.68ZM171.731 146.469C171.038 146.343 170.248 146.215 169.763 145.356C171.837 144.697 173.807 144.071 176.072 143.353C175.571 144.124 175.188 144.604 174.929 145.145C174.245 146.56 173.037 146.705 171.731 146.469ZM170.798 142.633C170.138 142.824 169.466 143.023 168.628 142.852C169.268 139.909 170.898 137.412 171.729 134.621C172.546 131.873 173.607 129.196 174.375 126.434C175.158 123.607 175.712 120.722 176.374 117.861C177.02 115.068 177.755 112.298 178.052 109.43C178.352 106.517 178.755 103.614 179.118 100.675C181.952 100.073 184.739 99.4787 187.695 98.8492C187.833 99.1482 187.974 99.3332 187.992 99.524C188.033 99.9371 188.039 100.362 188.002 100.775C187.858 102.307 187.703 103.84 187.532 105.372C186.825 111.773 185.883 118.139 184.225 124.372C183.054 128.769 181.722 133.114 179.694 137.216C179.314 137.983 178.931 138.687 178.179 139.163C175.863 140.631 173.442 141.87 170.798 142.633ZM186.986 96.5871C186.535 96.7739 186.089 97.0041 185.617 97.1143C183.913 97.5077 182.2 97.8736 180.485 98.2119C180.031 98.3004 179.55 98.2512 179.012 98.267C178.676 95.1491 178.476 92.1493 177.999 89.1927C177.511 86.1575 176.849 83.1399 176.093 80.1558C175.353 77.2425 174.465 74.3607 173.514 71.5084C172.548 68.6069 171.426 65.7566 170.323 62.7469C174.188 62.3633 177.777 63.4314 181.561 63.8288C181.984 64.6727 182.51 65.5087 182.832 66.4155C183.759 69.0574 184.716 71.6913 185.309 74.4374C185.633 75.9383 185.888 77.4668 186.342 78.9283C187.159 81.5564 187.399 84.2808 187.717 86.9777C188.031 89.6137 187.921 92.2968 188.033 94.9583C188.067 95.7825 187.713 96.29 186.986 96.5871ZM187.177 59.0782C185.953 59.8552 184.734 60.6362 183.435 61.4604C183.117 61.0256 182.799 60.7286 182.652 60.3647C181.876 58.4782 180.801 56.7629 179.772 55.0142C177.928 51.8806 176.162 48.6997 173.868 45.8533C173.133 44.9426 172.501 43.9492 171.811 42.9991C169.763 40.1704 167.852 37.2374 165.493 34.6428C165.275 34.4028 165.135 34.0861 164.939 33.7674C166.333 32.3511 167.441 30.799 169.49 29.9394C170.464 30.9053 171.375 31.7708 172.244 32.6776C173.939 34.4441 175.612 36.2322 177.291 38.0164C177.914 38.6773 178.554 39.3284 179.142 40.0248C182.265 43.7151 185.164 47.5824 187.913 51.5599C189.062 53.2202 190.206 54.8961 190.979 56.8652C189.807 57.8173 188.403 58.3012 187.177 59.0782ZM164.945 37.9731C165.634 38.9389 166.385 39.8615 167.101 40.8057C167.903 41.864 168.712 42.9145 169.488 43.9905C170.22 45.0114 170.904 46.0638 171.621 47.0965C172.299 48.0703 173.027 49.0105 173.668 50.0059C174.801 51.7665 175.907 53.5467 176.989 55.3368C177.855 56.7688 178.696 58.2186 179.507 59.6821C179.804 60.2172 180.082 60.7955 179.923 61.5961C178.12 61.6925 176.396 61.0119 174.606 60.9411C172.735 60.8663 170.869 60.6834 168.948 60.5437C168.013 59.029 167.439 57.3688 166.624 55.8305C165.805 54.2883 164.909 52.7854 164.061 51.257C163.244 49.7895 162.48 48.2965 161.631 46.8487C160.749 45.3399 159.822 43.8567 158.866 42.3952C157.911 40.9336 156.849 39.5369 155.918 38.0596C155.002 36.6079 153.588 35.4886 152.924 33.673C155.762 32.7406 158.172 32.6894 160.575 33.4428C160.905 33.5471 161.284 33.6376 161.523 33.8579C162.388 34.6624 163.242 35.4847 164.018 36.3719C164.413 36.8302 164.587 37.4734 164.945 37.9731ZM157.573 43.0384C160.905 48.2906 163.845 53.7808 166.728 59.2946C166.921 59.6585 167.027 60.0657 167.188 60.4945C166.021 61.3679 164.581 61.0788 163.368 61.5941C162.15 62.1135 160.871 62.4911 159.612 62.9082C158.377 63.3173 157.308 64.1632 155.941 64.4642C155.456 63.2583 154.969 62.1843 154.588 61.0729C152.657 55.4469 150.157 50.061 147.635 44.6868C146.894 43.1073 146.014 41.5945 145.189 40.0543C144.533 38.8288 144.563 38.5062 145.459 37.4223C146.851 35.7365 148.666 34.7785 150.954 34.2533C151.373 34.6939 151.744 35.0146 152.031 35.4001C153.9 37.9318 155.89 40.3867 157.573 43.0384ZM150.3 57.4003C151.035 59.21 151.693 61.0512 152.378 62.8826C152.52 63.2603 152.74 63.6636 152.3 64.0353C150.006 63.5278 147.696 63.0164 145.093 62.4439C144.901 61.6807 144.696 60.8781 144.502 60.0696C143.669 56.6115 142.96 53.1179 141.685 49.7797C140.442 46.5202 139.252 43.2331 137.525 40.1802C137.292 39.771 137.007 39.3363 137.492 38.7245C138.16 38.7599 138.92 38.876 139.666 38.815C141.043 38.7009 141.941 39.2596 142.461 40.5126C142.567 40.7703 142.703 41.0162 142.838 41.2601C145.741 46.4454 148.067 51.9022 150.3 57.4003ZM143.308 61.2401C143.404 61.6827 143.304 62.1685 143.296 62.6525C141.805 62.9613 140.419 63.1639 139.083 63.5475C137.767 63.9232 136.502 64.4838 135.137 64.9933C134.96 64.4937 134.762 64.116 134.697 63.7147C134.436 62.1312 134.216 60.5398 133.986 58.9504C133.599 56.2515 133.395 53.5113 132.78 50.8675C132.136 48.088 131.808 45.214 130.667 42.5565C130.543 42.2693 130.629 41.8916 130.623 41.6083C132.041 40.4103 133.442 39.4091 135.347 39.055C135.699 39.6727 136.054 40.2648 136.378 40.8706C139.829 47.2697 141.772 54.186 143.308 61.2401ZM129.789 38.7973C129.622 38.5986 129.427 38.4649 129.358 38.2859C128.486 35.9371 127.622 33.5825 126.776 31.2239C125.664 28.1277 124.309 25.1416 122.777 22.2362C121.702 20.2003 120.565 18.1958 119.467 16.1716C119.349 15.9572 119.322 15.6916 119.159 15.1231C119.644 15.4989 119.893 15.6208 120.043 15.8175C123.14 19.8737 126.29 23.8905 129.29 28.0195C131.217 30.6771 132.664 33.6376 134.094 36.7456C132.635 37.442 131.219 38.1147 129.789 38.7973ZM127.249 41.2955C127.942 43.5833 128.62 45.7707 129.15 48.025C130.435 53.4897 130.908 59.0743 131.784 64.5979C131.833 64.9087 131.741 65.2412 131.708 65.6346C130.024 65.6582 128.634 64.8261 127.119 64.6865C125.611 64.5468 124.095 64.533 122.504 64.4622C121.502 56.6469 121.3 48.8709 120.09 41.2051C120.046 40.9297 120.035 40.6484 120.043 40.371C120.046 40.2451 120.135 40.1192 120.235 39.8655C120.502 39.8418 120.836 39.7514 121.156 39.7907C123.244 40.0425 125.214 40.7526 127.249 41.2955ZM113.18 107.082C113.207 106.314 113.245 105.565 113.679 104.711C116.658 104.951 119.644 104.564 122.714 105.034C122.761 105.661 122.861 106.212 122.838 106.755C122.767 108.293 122.639 109.83 122.543 111.364C122.413 113.457 122.288 115.554 122.154 117.649C121.973 120.511 121.783 123.371 121.598 126.235C121.541 127.142 121.486 128.053 121.423 128.96C121.241 131.608 120.718 134.226 120.718 136.891C120.718 137.867 120.626 138.843 120.583 139.818C120.522 141.217 120.579 142.631 120.371 144.008C120.19 145.183 120.09 146.341 120.058 147.523C120.041 148.271 120.09 149.062 119.689 149.705C118.342 149.896 114.997 149.526 114.044 149.134C113.437 148.885 113.18 148.438 113.219 147.818C113.272 146.982 113.453 146.144 113.429 145.31C113.317 140.898 113.808 136.492 113.478 132.08C113.378 130.752 113.309 129.42 113.274 128.09C113.09 121.091 112.962 114.086 113.18 107.082ZM118.95 152.909C116.986 153.374 115.217 153.049 113.761 151.944C113.718 151.91 113.793 151.725 113.81 151.609C117.1 151.898 118.261 152.191 118.95 152.909ZM114.191 205.295C114.02 207.089 113.987 207.154 112.913 207.595C113.166 206.558 113.419 205.777 114.191 205.295ZM113.007 184.023C113.017 183.828 113.131 183.638 113.217 183.451C113.235 183.409 113.335 183.405 113.62 183.305C114.06 184.745 113.696 186.11 113.496 187.473C113.429 187.918 113.194 188.335 113.033 188.766C112.862 187.149 112.923 185.583 113.007 184.023ZM114.185 213.953C114.237 213.506 114.032 212.946 114.639 212.711C114.969 212.584 115.148 213.034 115.268 214.071C115.168 214.747 115.089 215.426 114.946 216.095C114.918 216.213 114.618 216.357 114.462 216.341C114.297 216.323 114.022 216.12 114.024 216.004C114.04 215.318 114.107 214.635 114.185 213.953ZM114.183 193.9C114.162 193.19 114.107 192.913 114.152 192.649C114.604 189.983 115.061 187.32 115.551 184.66C115.635 184.198 115.845 183.75 116.059 183.325C116.106 183.226 116.401 183.248 116.727 183.191C116.704 183.962 116.737 184.647 116.649 185.318C116.476 186.602 114.735 192.753 114.183 193.9ZM115.39 177.284C115.242 178.11 115.124 178.942 114.934 179.758C114.741 180.575 114.458 180.667 113.345 180.368C113.323 179.762 113.247 179.135 113.3 178.517C113.551 175.506 113.404 172.494 113.319 169.482C113.227 166.187 113.133 162.892 113.078 159.598C113.064 158.691 113.199 157.782 113.241 156.871C113.28 155.98 113.29 155.085 113.315 154.166C115.171 154.524 116.87 154.855 118.799 155.225C118.603 156.381 118.41 157.404 118.257 158.433C117.786 161.687 117.34 164.94 116.976 168.21C116.637 171.255 115.934 174.26 115.39 177.284ZM139.303 188.005C139.381 188.064 139.46 188.127 139.541 188.186C139.458 188.282 139.378 188.378 139.293 188.473C139.246 188.433 139.148 188.38 139.154 188.359C139.191 188.235 139.25 188.121 139.303 188.005ZM140.059 198.151C144.738 194.72 149.428 191.303 154.12 187.89C154.364 187.713 154.659 187.611 155.12 187.379C155.022 189.187 154.199 190.528 153.741 191.968C153.631 192.315 153.203 192.621 152.85 192.814C151.133 193.747 149.401 194.657 147.652 195.531C146.655 196.03 145.598 196.416 144.594 196.906C142.838 197.763 141.102 198.662 139.228 199.609C139.006 198.635 139.649 198.452 140.059 198.151ZM154.168 185.811C152.39 187.041 150.707 188.414 148.963 189.696C146.258 191.685 143.536 193.652 140.815 195.617C140.562 195.8 140.254 195.904 139.924 196.07C139.613 195.002 140.102 194.154 140.193 193.265C140.328 191.949 141.004 190.938 142.025 190.082C145.455 187.2 148.68 184.098 151.71 180.791C152.219 180.234 152.675 179.57 153.645 179.426C154.633 179.981 155.872 180.25 156.955 181.057C156.849 181.434 156.741 181.759 156.668 182.088C156.332 183.667 155.519 184.875 154.168 185.811ZM156.075 189.58C156.363 188.5 156.754 187.446 156.996 186.352C157.161 185.613 157.54 185.085 158.113 184.649C159.506 183.588 160.879 182.501 162.297 181.474C162.674 181.202 163.171 181.021 163.635 180.954C165.369 180.712 167.111 180.528 168.848 180.341C169.176 180.303 169.513 180.351 169.873 180.358C170.024 181.381 169.409 181.867 168.775 182.306C166.074 184.186 163.373 186.065 160.645 187.902C159.204 188.872 157.703 189.751 156.024 190.8C156.045 190.229 155.99 189.887 156.075 189.58ZM167.604 178.279C167.288 178.319 166.891 178.383 166.787 177.789C168.516 176.18 170.268 174.518 172.171 172.999C172.306 173.216 172.45 173.342 172.428 173.42C172.124 174.561 171.817 175.7 171.47 176.825C171.293 177.392 170.871 177.78 170.281 177.888C169.392 178.047 168.498 178.175 167.604 178.279ZM166.681 175.732C165.801 176.53 164.894 177.302 163.947 178.021C163.517 178.35 162.987 178.657 162.466 178.736C161.445 178.887 160.396 178.936 159.223 178.625C159.3 178.2 159.308 177.99 159.378 177.803C160.524 174.725 161.826 171.699 162.556 168.477C162.645 168.09 162.908 167.722 163.152 167.389C164.267 165.871 165.43 164.38 166.534 162.847C168.005 160.805 169.46 158.75 170.878 156.67C172.454 154.363 174.062 152.069 175.492 149.673C176.258 148.389 177.067 147.203 178.217 146.264C179.271 145.403 180.037 144.349 180.485 143.05C180.609 142.696 180.676 142.198 181.224 142.155C182.685 145.356 182.685 145.356 181.626 148.42C181.605 148.487 181.571 148.548 181.55 148.615C180.287 152.394 179.079 156.192 177.753 159.948C176.681 162.983 175.427 165.949 173.96 168.817C173.776 169.177 173.471 169.49 173.173 169.771C171.018 171.764 168.857 173.759 166.681 175.732ZM183.863 146.359C185.099 146.809 186.169 147.372 187.303 147.569C188.522 147.779 189.801 147.647 191.37 147.669C191.131 148.186 191.021 148.505 190.844 148.784C189.084 151.558 187.438 154.414 185.519 157.068C183.229 160.237 180.65 163.193 177.841 165.926C177.586 166.172 177.327 166.593 176.851 166.321C179.195 159.653 181.522 153.023 183.863 146.359ZM182.738 141.86C182.73 141.823 182.927 141.74 183.154 141.6C183.2 141.88 183.266 142.104 183.26 142.328C183.258 142.401 183.074 142.468 182.974 142.537C182.889 142.313 182.793 142.09 182.738 141.86ZM191.186 145.694C188.86 146.465 186.517 146.477 184.518 144.616C184.461 143.489 184.728 142.539 185.562 141.709C188.408 142.411 191.264 142.181 194.224 141.958C193.991 143.961 192.808 145.157 191.186 145.694ZM186.747 140.102C186.476 140.082 186.211 139.948 185.941 139.871C185.142 139.641 184.384 139.338 183.49 139.641C183.131 139.763 182.618 139.421 182.227 139.307C182.025 138.488 182.347 137.946 182.577 137.359C183.724 134.432 184.918 131.517 185.936 128.543C186.566 126.7 186.906 124.758 187.387 122.862C187.578 122.122 187.859 121.4 187.996 120.653C188.322 118.87 188.619 117.082 188.866 115.286C189.123 113.418 189.548 111.561 189.744 109.7C190.133 106.019 190.675 102.341 190.685 98.625C190.685 98.4401 190.84 98.2572 191.013 97.8795C195.153 98.3791 199.076 96.9471 203.189 96.0894C203.303 96.6166 203.438 97.008 203.46 97.4054C203.495 98.0329 203.379 98.6761 203.458 99.2938C203.927 103.02 203.422 106.706 202.957 110.378C202.515 113.848 201.92 117.301 201.366 120.753C201.134 122.203 200.955 123.676 200.555 125.083C199.673 128.179 198.704 131.251 197.697 134.308C197.239 135.701 196.609 137.041 196.053 138.4C195.862 138.864 195.617 139.291 195.083 139.425C192.343 140.098 189.559 140.288 186.747 140.102ZM180.548 30.3722C182.371 32.1052 184.268 33.7576 186.081 35.4965C187.697 37.0446 189.279 38.6321 190.811 40.2628C192.677 42.2535 194.515 44.2718 196.293 46.3392C197.98 48.2984 199.584 50.3305 201.199 52.3507C201.389 52.5868 201.421 52.9467 201.525 53.2457C199.844 53.5801 198.237 53.7533 196.731 54.2352C195.234 54.7132 193.835 55.4981 192.341 56.1748C192.095 55.7912 191.909 55.5079 191.732 55.2168C190.885 53.8496 190.094 52.4471 189.19 51.1173C186.44 47.069 183.516 43.1505 180.363 39.4071C179.823 38.7658 179.24 38.16 178.666 37.5521C176.123 34.867 173.575 32.1839 170.835 29.2962C172.354 28.4385 173.732 28.4424 175.121 28.5565C175.816 28.6116 176.498 28.8103 177.193 28.8614C178.503 28.9618 179.589 29.4614 180.548 30.3722ZM145.366 9.39885C149.778 11.1535 154.268 12.7233 158.412 15.0956C160.836 16.4824 163.262 17.8712 165.723 19.1872C168.262 20.5445 170.356 22.5155 172.727 24.105C173.479 24.6085 174.18 25.1947 174.877 25.777C175.127 25.9816 175.402 26.2688 175.115 26.6012C173.754 26.7389 172.357 26.6425 171.134 27.0556C168.586 27.9133 168.633 27.2425 167.147 25.8931C166.685 25.4701 166.257 25.002 165.833 24.5377C163.808 22.2992 161.494 20.3891 159.074 18.5971C158.402 18.0994 157.705 17.6312 156.982 17.2142C154.317 15.6838 151.596 14.2615 148.855 12.8669C145.928 11.3797 143.064 9.78047 140.02 8.52939C138.527 7.91762 137.056 7.29208 135.473 6.95964C135.015 6.86325 134.581 6.6508 134.135 6.49343C138.146 6.79636 141.791 7.97663 145.366 9.39885ZM134.618 8.41923C138.034 9.25722 141.293 10.5496 144.42 12.1174C149.106 14.474 153.781 16.866 158.223 19.6731C158.756 20.0075 159.264 20.3852 159.75 20.7825C160.779 21.6264 161.826 22.4546 162.792 23.3653C164.163 24.6656 165.481 26.0229 166.795 27.3822C167.064 27.6595 167.208 28.0549 167.331 28.2654C166.007 29.5893 164.799 30.799 163.599 31.999C163.548 31.9577 134.182 8.67298 134.013 8.53725C134.371 8.46447 134.508 8.39169 134.618 8.41923ZM122.14 5.74003C123.393 6.18656 124.666 6.59178 125.868 7.15044C127.514 7.91761 129.095 8.83429 130.722 9.64474C137.258 12.9003 143.386 16.7972 149.078 21.3746C149.945 22.071 150.652 23.0132 151.589 23.5699C153.121 24.4767 154.113 25.9363 155.48 27.0065C156.678 27.9467 157.624 29.2057 158.669 30.3368C158.842 30.5197 159.127 30.6928 158.848 31.1708C156.206 30.7597 153.533 31.2239 150.901 31.7275C150.29 31.0784 149.748 30.5315 149.236 29.9591C145.908 26.2589 142.426 22.7083 138.718 19.3918C137.468 18.2725 136.105 17.2752 134.888 16.1224C131.002 12.4479 126.819 9.19034 122.144 6.57998C121.818 6.39901 121.549 6.10591 121.009 5.66724C121.606 5.69872 121.897 5.65544 122.14 5.74003ZM121.192 7.96876C124.434 9.77653 127.601 11.7043 130.425 14.1376C132.122 15.5992 133.737 17.1591 135.461 18.5872C140.165 22.4841 144.478 26.7822 148.548 31.3302C148.76 31.5701 148.912 31.8692 149.169 32.2586C146.908 33.2206 144.755 34.0566 143.219 35.9843C142.868 35.646 142.575 35.4473 142.393 35.1719C141.11 33.254 139.88 31.3026 138.576 29.4004C136.679 26.6307 134.858 23.7981 132.78 21.1681C130.669 18.4948 128.316 16.0064 126.014 13.4904C124.503 11.84 122.894 10.2821 121.337 8.67889C121.17 8.50972 121.044 8.3012 120.869 8.07499C121.076 8.00417 121.156 7.94909 121.192 7.96876ZM115.354 6.8062C115.723 7.117 116.118 7.4042 116.46 7.74254C118.446 9.69785 120.392 11.6964 122.407 13.6242C126.31 17.3617 129.836 21.4297 133.022 25.7849C135.041 28.5467 136.92 31.4088 138.824 34.2533C139.279 34.9339 139.576 35.7207 140.004 36.5784C138.531 36.9777 137.239 36.7358 135.958 36.5371C135.73 36.4997 135.496 36.2263 135.351 36.006C135.119 35.6578 134.976 35.2565 134.772 34.8887C133.448 32.5045 132.275 30.0142 130.751 27.7658C128.551 24.524 126.12 21.4356 123.735 18.3217C121.18 14.9874 118.56 11.7004 115.975 8.38776C115.643 7.96286 115.36 7.49862 115.052 7.05602C115.154 6.97144 115.254 6.88882 115.354 6.8062ZM113.573 12.5836C115.05 14.3658 116.181 16.3782 117.373 18.3512C121.078 24.4866 123.808 31.0469 126.051 37.8295C126.133 38.0774 126.122 38.3567 126.194 38.994C123.822 38.4472 121.74 37.9672 119.673 37.4912C118.595 33.0317 117.601 28.6844 116.489 24.3666C115.382 20.0606 113.563 15.969 112.302 11.2538C112.926 11.9049 113.272 12.2236 113.573 12.5836ZM112.198 19.4862C112.194 18.8587 112.276 18.2312 112.329 17.6056C112.331 17.5702 112.445 17.5447 112.638 17.4463C112.761 17.6214 112.944 17.7964 113.021 18.0109C115.344 24.2446 117.033 30.6397 117.97 37.3771C116.485 37.916 115.065 38.4354 113.641 38.9429C113.258 39.0806 112.864 39.1829 112.365 39.3363C112.19 38.9921 112.074 38.8681 112.074 38.7462C112.137 32.3255 112.235 25.9049 112.198 19.4862ZM112.107 41.866C113.508 41.3978 114.749 40.971 115.994 40.5736C116.764 40.3277 117.485 39.775 118.436 40.1231C118.518 40.4615 118.636 40.79 118.676 41.1283C119.017 44.0397 119.369 46.9529 119.665 49.8702C119.85 51.6779 119.931 53.4936 120.082 55.3053C120.304 57.9511 120.561 60.5929 120.769 63.2387C120.814 63.7776 120.722 64.3304 120.693 64.8635C118.369 65.7172 116.154 66.5316 113.763 67.4109C113.653 67.0962 113.541 66.9073 113.529 66.7106C113.376 64.2753 113.239 61.8381 113.097 59.4008C112.968 57.1741 112.871 54.9453 112.705 52.7205C112.52 50.2833 112.243 47.8539 112.056 45.4166C111.962 44.1734 111.903 42.9164 112.107 41.866ZM110.501 291.01C110.75 291.303 110.754 291.62 110.501 291.85C110.249 291.622 110.253 291.305 110.501 291.01ZM102.13 176.589C101.393 173.328 100.666 170.063 100.044 166.776C99.7353 165.139 99.6135 163.457 99.5094 161.791C99.3719 159.641 99.6429 157.479 99.368 155.327C99.3464 155.158 99.6567 154.804 99.8315 154.79C100.032 154.772 100.389 155.002 100.442 155.193C100.733 156.196 101.018 157.211 101.177 158.242C102.006 163.62 102.505 169.046 103.546 174.394C103.919 176.304 104.025 178.265 104.263 180.301C103.644 180.703 103.316 180.392 103.175 179.993C102.784 178.871 102.391 177.742 102.13 176.589ZM102.878 215.1C102.872 215.214 102.746 215.32 102.676 215.43C102.626 215.304 102.532 215.176 102.536 215.05C102.544 214.72 102.593 214.389 102.628 214.057C102.705 214.065 102.78 214.073 102.856 214.081C102.868 214.419 102.896 214.761 102.878 215.1ZM98.6531 203.326C97.5197 200.155 95.9013 197.219 94.2671 194.29C93.289 192.535 93.0199 190.597 92.7842 188.658C92.5917 187.074 92.4974 185.479 92.356 183.889C92.5013 183.848 92.6467 183.811 92.792 183.771C93.234 184.546 93.7073 185.304 94.11 186.095C96.0505 189.899 97.9656 193.717 99.9081 197.519C100.354 198.391 100.912 199.207 101.352 200.081C101.631 200.633 101.917 201.227 101.986 201.829C102.159 203.356 102.218 204.9 102.308 206.436C102.322 206.641 102.257 206.848 102.204 207.219C101.931 207.074 101.672 207.013 101.536 206.849C100.78 205.947 100.303 204.812 99.1873 204.204C98.9261 204.062 98.7689 203.649 98.6531 203.326ZM99.091 215.369C98.9712 215.391 98.8534 215.412 98.7316 215.434C98.6432 214.869 98.5548 214.307 98.4213 213.439C98.7945 213.758 99.0125 213.85 99.0282 213.97C99.0871 214.433 99.0773 214.903 99.091 215.369ZM96.7714 215.456C96.1114 214.214 96.1763 213.022 96.1625 211.702C96.8382 212.436 97.0169 213.628 96.7714 215.456ZM86.4302 201.886C86.4557 201.892 86.4812 201.898 86.5068 201.904C86.5127 201.92 86.5147 201.938 86.5205 201.955C87.9249 202.211 88.9738 203.082 90.2878 203.948C89.8635 204.027 89.7024 204.109 89.616 204.062C88.6064 203.478 87.6106 202.882 86.6207 202.268C86.548 202.227 86.5441 202.075 86.5205 201.955C86.5029 201.951 86.4871 201.947 86.4714 201.945C86.4576 201.928 86.4439 201.908 86.4302 201.886C85.3047 201.619 85.2753 201.597 83.9966 200.61C85.1614 200.74 85.9038 201.111 86.4302 201.886ZM83.0283 196.902C82.6885 196.064 82.3231 195.145 82.5529 193.908C84.4837 195.649 85.7781 197.582 87.153 199.443C86.6502 199.969 86.2848 199.565 86.0157 199.369C84.9669 198.607 83.5566 198.206 83.0283 196.902ZM84.1223 188.398C82.8653 186.813 81.6711 185.168 80.5181 183.504C79.8248 182.505 79.7108 181.305 79.6009 180.061C80.2549 179.528 80.8874 179.013 81.5807 178.452C82.6315 179.469 83.1736 180.697 83.8277 181.826C86.3438 186.185 88.8087 190.576 91.2816 194.96C91.6587 195.627 92.0397 196.304 92.3304 197.012C92.4699 197.348 92.409 197.771 92.4699 198.513C91.6902 197.616 91.1324 197.004 90.6099 196.365C88.4395 193.719 86.2495 191.081 84.1223 188.398ZM17.5418 97.4054C17.5634 97.008 17.6989 96.6166 17.8129 96.0894C21.9258 96.9471 25.8521 98.3791 29.9906 97.8795C30.1614 98.2572 30.3166 98.4421 30.3166 98.625C30.3284 102.343 30.8685 106.019 31.2594 109.7C31.4578 111.563 31.8781 113.418 32.1354 115.286C32.3849 117.08 32.6795 118.87 33.0055 120.653C33.1411 121.4 33.4258 122.122 33.6104 122.862C34.0936 124.758 34.4335 126.7 35.064 128.543C36.0814 131.517 37.2756 134.432 38.4226 137.359C38.6524 137.946 38.9726 138.488 38.7723 139.307C38.3834 139.421 37.8687 139.763 37.5093 139.641C36.6176 139.338 35.8574 139.641 35.058 139.871C34.7889 139.95 34.5257 140.082 34.2527 140.102C31.4401 140.288 28.6569 140.098 25.9169 139.423C25.3827 139.291 25.1372 138.862 24.9447 138.398C24.3888 137.039 23.7583 135.699 23.3027 134.306C22.2931 131.25 21.3228 128.175 20.4429 125.081C20.0442 123.676 19.8634 122.201 19.6336 120.751C19.0797 117.299 18.4826 113.846 18.0427 110.377C17.5772 106.704 17.0705 103.018 17.5399 99.2918C17.6204 98.6742 17.5045 98.0309 17.5418 97.4054ZM107.515 76.5442C107.468 79.066 107.541 81.582 107.592 84.1018C107.716 89.9815 108.014 95.8632 107.653 101.745C107.641 101.949 107.558 102.152 107.486 102.457C107.117 102.53 106.724 102.671 106.331 102.673C104.021 102.685 101.709 102.673 99.4014 102.65C99.0616 102.646 98.7218 102.542 98.4665 102.498C97.9322 101.985 97.9794 101.403 97.9931 100.856C98.1443 94.9013 98.2976 88.9468 98.4763 82.9924C98.5274 81.2436 98.6236 79.4909 98.7512 77.7441C98.9535 75.0216 99.1794 72.2992 99.4308 69.5826C99.4937 68.9 99.6979 68.2312 99.8492 67.4915C100.224 67.5269 100.517 67.4856 100.751 67.582C102.691 68.3827 104.622 69.2069 106.553 70.0252C107.203 70.2986 107.511 70.7806 107.507 71.4985C107.502 73.1804 107.549 74.8623 107.515 76.5442ZM107.58 145.312C107.556 146.146 107.737 146.984 107.79 147.82C107.829 148.44 107.572 148.887 106.967 149.136C106.013 149.528 102.67 149.898 101.32 149.707C100.92 149.064 100.967 148.273 100.951 147.525C100.922 146.343 100.819 145.185 100.639 144.01C100.429 142.633 100.488 141.219 100.427 139.82C100.381 138.845 100.293 137.869 100.293 136.893C100.291 134.228 99.7667 131.609 99.588 128.962C99.5231 128.055 99.4701 127.144 99.4112 126.237C99.2246 123.373 99.038 120.511 98.8534 117.651C98.7218 115.558 98.5961 113.459 98.4645 111.366C98.3682 109.83 98.2425 108.293 98.1699 106.757C98.1463 106.212 98.2465 105.663 98.2956 105.036C101.366 104.566 104.353 104.955 107.331 104.713C107.763 105.565 107.802 106.314 107.826 107.084C108.046 114.088 107.918 121.091 107.737 128.094C107.702 129.424 107.633 130.756 107.531 132.084C107.199 136.494 107.69 140.9 107.58 145.312ZM107.244 151.944C105.791 153.049 104.015 153.374 102.053 152.909C102.742 152.191 103.901 151.898 107.191 151.609C107.211 151.725 107.283 151.912 107.244 151.944ZM62.1003 175.094C61.6938 173.944 60.804 172.929 61.0221 171.44C62.9901 172.925 64.1077 174.994 65.6456 176.682C65.9088 176.965 66.0325 177.372 66.2722 177.813C65.3765 178.356 64.5516 178.6 63.5302 178.511C62.941 177.431 62.5089 176.261 62.1003 175.094ZM62.5855 182.188C62.3184 182.044 62.0709 181.964 61.902 181.802C61.7724 181.678 61.7448 181.452 61.6702 181.265C62.6267 181.071 62.6267 181.071 62.5855 182.188ZM61.7782 167.633C61.0201 166.722 60.2619 165.804 59.5843 164.83C59.2346 164.328 58.9675 163.721 58.83 163.123C58.0287 159.653 57.2745 156.175 56.5163 152.695C56.4652 152.461 56.5222 152.201 56.5457 151.534C57.243 152.805 57.793 153.686 58.233 154.615C60.8237 160.074 64.1195 165.086 67.7846 169.866C69.3991 171.973 70.9999 174.093 72.5869 176.222C72.9464 176.704 73.2292 177.243 73.6063 177.842C72.6851 178.13 71.9171 178.045 71.1904 177.888C70.7465 177.791 70.2771 177.506 69.9687 177.17C68.7843 175.887 67.6431 174.559 66.5098 173.234C64.9228 171.377 63.3417 169.51 61.7782 167.633ZM74.9517 66.1382C74.3134 68.7879 73.6142 71.4258 72.9896 74.0794C72.2157 77.3507 71.6422 80.6613 71.1374 83.9858C70.4401 88.5731 70.4224 93.1977 70.2672 97.8145C70.2437 98.5719 70.1985 99.3292 70.1475 100.348C67.3623 100.209 64.8678 100.055 62.446 99.0932C62.1828 97.9621 62.2359 96.8507 62.3183 95.7392C62.5678 92.3853 62.7583 89.0235 63.1021 85.6814C63.3162 83.5982 63.6913 81.521 64.1274 79.4712C64.8737 75.9816 65.7085 72.5096 66.5413 69.0416C67.1325 66.5906 67.1561 66.5867 69.5798 65.9061C70.8585 65.548 72.1489 65.2117 73.4413 64.9127C73.8931 64.8084 74.3802 64.8497 75.0048 64.8182C74.9891 65.3454 75.044 65.7585 74.9517 66.1382ZM89.8006 147.152C89.3783 147.697 88.7734 147.521 88.247 147.533C85.5286 147.6 82.7985 147.824 80.0899 146.98C78.8937 144.057 77.9628 141.054 77.1378 138.03C76.2579 134.8 75.5567 131.521 74.6493 128.293C74.2152 126.755 74.0011 125.144 73.8243 123.55C73.3175 118.963 72.6262 114.395 72.3905 109.78C72.306 108.177 72.031 106.586 71.8778 104.985C71.8189 104.363 71.8406 103.736 71.8248 102.896C72.3178 102.86 72.5908 102.797 72.8501 102.827C76.2795 103.21 79.6932 103.029 83.1069 102.634C83.2443 102.618 83.3877 102.551 83.5233 102.583C86.0511 103.157 89.1996 144.366 89.8006 147.152ZM88.1174 73.2375C88.1802 72.2598 88.2902 71.2861 88.3904 70.3104C88.4591 69.6219 88.5515 68.9374 88.6457 68.1525C91.7589 67.2024 94.7326 65.9218 98.1365 67.0371C98.1895 71.0107 97.3587 74.8741 97.3115 78.7887C97.2663 82.7052 96.7223 86.5941 96.7282 90.5185C96.7341 94.4311 96.518 98.3457 96.3982 102.335C96.2902 102.398 96.1193 102.591 95.9464 102.597C93.5521 102.665 91.2306 102.28 88.9836 101.542C88.4493 100.651 88.465 99.7345 88.3963 98.8374C87.9072 92.4089 88.0035 85.9627 87.7992 79.5263C87.7285 77.4353 87.9858 75.3344 88.1174 73.2375ZM86.2436 154.518C87.1176 154.709 88.0074 154.837 88.9345 155C89.0032 155.327 89.1034 155.591 89.1073 155.854C89.1191 156.903 89.1407 157.951 89.0837 158.996C88.907 162.418 88.8736 165.825 89.4766 169.219C89.6435 170.151 89.5767 171.113 89.4825 172.258C88.522 170.95 86.7032 167.13 85.5601 163.778C84.2401 159.914 82.828 156.08 81.5356 151.904C82.0286 152.136 82.2662 152.17 82.3526 152.3C83.2758 153.71 84.7213 154.192 86.2436 154.518ZM83.3504 150.193C85.8979 149.752 87.2983 149.748 88.7832 150.189C88.8362 151.082 88.8952 152.026 88.9502 152.962C87.3887 153.179 85.7781 152.856 84.6566 152.168C83.9652 151.741 83.5134 151.174 83.3504 150.193ZM59.7316 107.032C60.0203 108.671 59.9104 110.378 60.04 112.051C60.1775 113.793 60.3817 115.534 60.586 117.269C60.7883 119.004 60.9945 120.739 61.2636 122.464C61.519 124.119 61.8254 125.765 62.1554 127.406C62.5011 129.119 62.8919 130.821 63.273 132.526C63.6403 134.161 64.0998 135.78 64.3689 137.432C64.6478 139.136 65.5121 140.717 65.4983 142.466C62.3341 143.457 57.2843 143.81 54.5777 143.217C53.248 140.674 52.15 137.957 51.0972 135.223C49.8932 132.091 48.758 128.934 47.9409 125.673C47.6207 124.388 47.3575 123.086 47.055 121.794C46.4324 119.14 45.6978 116.506 45.195 113.831C44.59 110.605 44.1481 107.347 43.6944 104.096C43.5608 103.14 43.5844 102.154 43.7631 101.082C44.8886 100.848 45.8785 101.328 46.8939 101.377C47.9389 101.426 48.9818 101.55 50.0287 101.635C51.0049 101.711 51.9791 101.802 52.9573 101.839C54.0061 101.877 55.055 101.875 56.1058 101.859C57.1428 101.845 58.1819 101.794 59.2504 101.759C59.9437 103.537 59.4291 105.317 59.7316 107.032ZM59.5214 145.546C60.7019 145.452 61.8745 145.306 63.049 145.173C64.1352 145.049 65.1978 144.701 66.4607 144.632C66.7573 145.867 66.9832 146.792 67.2051 147.72C65.5651 149.219 63.8151 149.683 61.7468 149.227C59.9378 148.828 58.3292 148.064 56.8817 146.943C56.5811 146.713 56.4004 146.329 56.0763 145.901C57.3157 145.533 58.4274 145.635 59.5214 145.546ZM58.8575 150.167C59.602 150.344 60.3503 150.527 61.081 150.757C63.0785 151.385 64.9405 150.978 66.7514 150.081C67.0009 149.959 67.2523 149.839 67.5096 149.725C67.5665 149.699 67.6392 149.705 67.8553 149.675C67.9947 149.9 68.2206 150.155 68.3227 150.454C70.0708 155.549 72.1646 160.5 74.5098 165.343C75.2188 166.811 75.6431 168.361 76.0045 169.911C76.6036 172.488 76.9827 175.118 77.4698 177.807C76.6272 178.322 76.1165 178.061 75.6844 177.514C74.993 176.637 74.2938 175.761 73.6181 174.87C71.1786 171.638 68.694 168.438 66.3232 165.157C62.9645 160.504 60.2168 155.496 57.7282 150.057C58.2487 150.106 58.5629 150.1 58.8575 150.167ZM71.4536 150.303C70.9527 149.776 70.7936 149.154 70.7092 148.342C71.5537 149.339 71.5537 149.339 71.4536 150.303ZM69.2518 143.176C68.5938 142.71 68.3522 141.929 68.1656 141.183C67.0579 136.704 65.8852 132.237 64.909 127.73C64.2275 124.591 63.7836 121.396 63.3122 118.217C63.0431 116.419 62.8958 114.602 62.7564 112.788C62.5541 110.207 62.3812 107.625 62.2555 105.042C62.2025 103.942 62.061 102.821 62.4283 101.621C64.966 101.944 67.4389 102.254 69.9903 102.579C70.1631 103.405 70.389 104.137 70.4598 104.882C70.8035 108.502 71.0588 112.131 71.434 115.749C71.8386 119.642 72.2962 123.533 72.8285 127.412C73.0072 128.716 73.5081 129.977 73.8459 131.261C75.1069 136.065 76.1852 140.92 77.9117 145.592C78.0256 145.901 77.9942 146.262 78.0453 146.741C77.6171 146.729 77.2792 146.77 76.9689 146.699C76.0124 146.489 75.0617 146.253 74.115 145.995C72.2491 145.485 70.7858 144.26 69.2518 143.176ZM73.8655 148.828C75.5095 149.066 77.1496 149.313 78.7995 149.561C79.2709 150.309 79.6401 150.816 79.481 151.54C78.3831 151.875 77.3892 151.595 76.4228 151.172C75.3426 150.696 74.2957 150.165 73.7458 149.068C73.8086 148.936 73.8459 148.824 73.8655 148.828ZM85.4245 69.7832C85.236 72.6434 84.9983 75.4977 84.7862 78.3539C84.7351 79.0523 84.6723 79.7525 84.6703 80.4489C84.6605 81.7826 84.5642 83.0927 84.1655 84.3831C83.8375 85.4473 83.8807 86.5686 83.9298 87.6761C84.0163 89.6943 83.6293 91.7067 83.9652 93.7308C84.2598 95.517 84.4995 97.3149 84.7018 99.1148C84.7509 99.5653 84.5701 100.039 84.47 100.631C80.7911 100.854 77.3774 101.098 73.9539 100.761C73.5356 100.72 73.1192 100.679 72.7067 100.596C71.8798 100.431 71.6087 100.179 71.6402 99.3233C71.7698 95.9006 71.5714 92.466 72.0586 89.055C72.3551 86.9777 72.471 84.8729 72.8088 82.8035C73.2468 80.1204 73.7713 77.4471 74.3527 74.7934C74.9203 72.2008 75.5999 69.6337 76.2442 67.0588C76.4131 66.386 76.633 65.727 76.798 65.1664C77.4344 64.7081 77.9922 64.8969 78.5304 65.009C81.4157 65.6188 82.3192 65.9021 85.3047 67.7512C85.6759 68.3905 85.4697 69.1046 85.4245 69.7832ZM62.9253 72.2028C62.6484 74.0637 62.12 75.8852 61.737 77.7304C61.3716 79.5126 61.0004 81.2967 60.7156 83.0907C60.4328 84.8887 60.2266 86.7004 60.036 88.5121C59.8416 90.3946 59.6884 92.283 59.5568 94.1695C59.4291 95.9714 59.6805 97.7968 59.2445 99.701C56.3081 100.244 47.1355 99.5692 43.8122 98.5817C43.7808 98.143 43.6983 97.6631 43.7199 97.189C43.8967 92.9125 44.3661 88.6832 45.3246 84.4913C46.3087 80.1833 47.4498 75.9304 48.8542 71.7503C49.6772 69.2973 50.7025 66.9132 51.6669 64.5094C51.8711 63.996 52.1952 63.5298 52.5016 62.9672C52.9946 62.9593 53.4856 62.8728 53.9413 62.9593C55.9369 63.3429 57.9147 63.8032 59.761 64.6982C61.1988 65.3985 62.6464 66.0851 64.09 66.7775C64.1823 68.778 63.1905 70.4107 62.9253 72.2028ZM47.4871 71.5084C46.5384 74.3607 45.6487 77.2425 44.9121 80.1558C44.154 83.1399 43.4921 86.1575 43.005 89.1927C42.5316 92.1493 42.3293 95.1491 41.9934 98.267C41.4552 98.2512 40.9721 98.2985 40.5203 98.2119C38.8037 97.8736 37.0909 97.5077 35.388 97.1143C34.9146 97.0061 34.4688 96.7739 34.017 96.5871C33.2923 96.292 32.9387 95.7825 32.9721 94.9583C33.0802 92.2968 32.9721 89.6137 33.2864 86.9777C33.6066 84.2808 33.8442 81.5564 34.6613 78.9283C35.115 77.4668 35.3684 75.9383 35.6944 74.4374C36.2876 71.6913 37.2442 69.0593 38.1712 66.4155C38.4894 65.5087 39.0197 64.6727 39.4401 63.8288C43.225 63.4314 46.8154 62.3633 50.6769 62.7469C49.577 65.7566 48.4535 68.6069 47.4871 71.5084ZM33.0094 99.524C33.0271 99.3332 33.1685 99.1482 33.306 98.8492C36.262 99.4787 39.0492 100.073 41.8834 100.675C42.2488 103.614 42.6514 106.517 42.95 109.43C43.2465 112.298 43.9792 115.068 44.6273 117.861C45.2893 120.722 45.8432 123.607 46.6288 126.434C47.3948 129.196 48.4554 131.873 49.2725 134.621C50.1033 137.412 51.7356 139.909 52.3759 142.852C51.5372 143.023 50.8635 142.824 50.2055 142.633C47.5598 141.87 45.1419 140.633 42.8223 139.163C42.0681 138.685 41.689 137.981 41.306 137.216C39.279 133.114 37.9454 128.769 36.7747 124.372C35.117 118.139 34.1761 111.773 33.4651 105.372C33.2981 103.84 33.141 102.307 32.9996 100.775C32.9603 100.362 32.9701 99.9371 33.0094 99.524ZM51.2406 145.358C50.7574 146.217 49.9678 146.345 49.2725 146.471C47.9683 146.705 46.7584 146.562 46.0769 145.147C45.8176 144.608 45.4326 144.126 44.9318 143.355C47.1984 144.073 49.1645 144.699 51.2406 145.358ZM52.7491 146.475C53.6133 146.565 53.9354 146.965 54.0611 147.567C54.9096 151.605 55.7601 155.642 56.5968 159.68C56.6381 159.875 56.5693 160.087 56.5497 160.373C56.3336 160.28 56.1097 160.258 56.0096 160.135C53.7017 157.329 49.1959 150.329 48.4594 148.35C50.0798 147.822 51.8299 147.903 52.7491 146.475ZM75.8179 180.614C76.8943 181.499 77.6878 182.644 78.5206 183.738C78.9782 184.34 79.1923 185.081 78.8113 185.99C76.8353 184.466 75.0323 182.908 73.3883 180.872C74.2898 180.502 75.0421 180.707 75.8179 180.614ZM78.6365 175.374C78.4538 174.713 78.3281 174.038 78.1592 173.291C79.2709 173.782 79.5989 174.272 80.7066 177.014C80.2431 177.221 79.7698 177.427 79.3377 177.618C78.5206 176.945 78.8329 176.086 78.6365 175.374ZM76.6586 163.483C74.8614 160.083 73.9932 156.442 73.5729 152.663C73.5513 152.471 73.6456 152.266 73.7202 151.91C75.8219 152.689 77.8311 153.726 80.1488 153.216C80.3983 153.712 80.6379 154.056 80.7538 154.436C82.551 160.182 84.7096 165.796 87.045 171.341C87.9956 173.597 89.0817 175.795 90.0952 178.023C90.5254 178.972 90.5077 178.978 90.2897 180.309C89.8949 180.221 89.4569 180.219 89.125 180.03C87.7913 179.271 86.4655 178.488 85.1888 177.632C84.7489 177.337 84.4111 176.833 84.1243 176.367C81.5198 172.14 78.9822 167.875 76.6586 163.483ZM90.6315 183.238C90.9202 184.771 91.3464 186.232 90.6688 187.865C89.7692 186.234 88.8716 184.605 87.8994 182.841C88.9639 182.536 89.7162 183.156 90.6315 183.238ZM90.3133 165.404C90.1464 163.247 90.3074 161.063 90.331 158.891C90.3428 157.841 90.3997 156.792 90.3938 155.744C90.3899 154.79 90.9379 154.4 91.7392 154.18C92.0633 154.705 92.3953 155.136 92.6173 155.62C92.7842 155.982 92.9217 156.423 92.8785 156.804C92.7272 158.099 93.0434 159.32 93.3636 160.532C94.4301 164.588 95.4063 168.676 96.6928 172.657C97.3213 174.597 97.6887 176.542 97.9911 178.525C98.0854 179.133 98.0795 179.758 98.1168 180.335C96.7282 180.842 95.697 180.892 93.2025 180.598C92.2597 179.42 91.7176 177.984 91.5271 176.454C91.0655 172.777 90.602 169.099 90.3133 165.404ZM90.5372 151.167C90.5431 151.123 90.6334 151.056 90.6825 151.058C90.7415 151.058 90.8475 151.117 90.8515 151.157C90.8868 151.521 90.9006 151.886 90.932 152.382C90.3546 151.965 90.49 151.554 90.5372 151.167ZM96.844 154.162C97.3724 153.659 97.7142 153.952 97.8438 154.375C98.1443 155.388 97.9813 156.427 97.9833 157.455C97.8419 157.469 97.6985 157.487 97.557 157.499C97.3154 156.375 97.0758 155.246 96.844 154.162ZM99.0498 183.514C100.091 187.017 100.277 190.727 101.002 194.335C101.063 194.649 100.99 194.992 100.981 195.318C100.874 195.306 100.77 195.295 100.666 195.283C99.6626 193.387 98.6472 191.498 97.6631 189.59C96.6752 187.672 95.7206 185.738 94.7542 183.819C95.8659 183.136 97.0091 183.059 99.0498 183.514ZM95.8364 147.938C95.5477 147.706 95.3651 147.244 95.2885 146.857C94.7797 144.254 94.3123 141.64 93.835 139.029C93.6072 137.792 93.3636 136.555 93.1594 135.314C92.4562 131.035 91.7491 126.757 91.0871 122.474C90.5882 119.225 90.1149 115.971 89.7103 112.713C89.4078 110.288 89.2271 107.845 89.0071 105.408C88.9757 105.073 89.0228 104.725 89.0405 104.096C90.4468 104.33 91.6057 104.562 92.7724 104.705C93.9391 104.849 95.1156 104.91 96.3294 105.006C96.6692 105.834 96.5141 106.613 96.5946 107.361C96.6791 108.126 96.7753 108.889 96.8264 109.657C97.1171 113.915 97.4078 118.172 97.6769 122.431C97.8183 124.666 97.9184 126.904 98.0382 129.141C98.0559 129.491 98.0343 129.845 98.0913 130.187C98.6943 133.789 98.8318 137.418 98.8887 141.061C98.9202 142.948 99.1775 144.828 99.311 146.715C99.368 147.541 99.366 148.373 99.3935 149.258C97.8909 149.347 96.8146 148.723 95.8364 147.938ZM98.4998 64.4602C96.9089 64.533 95.3926 64.5448 93.8841 64.6845C92.3717 64.8261 90.9792 65.6582 89.2978 65.6326C89.2625 65.2392 89.1702 64.9048 89.2193 64.596C90.0972 59.0703 90.5706 53.4877 91.8532 48.0231C92.3835 45.7687 93.0611 43.5813 93.7564 41.2936C95.7893 40.7526 97.7593 40.0425 99.8512 39.7887C100.169 39.7474 100.505 39.8379 100.774 39.8635C100.873 40.1172 100.961 40.2431 100.965 40.369C100.973 40.6464 100.961 40.9277 100.918 41.2031C99.7038 48.8709 99.4996 56.6469 98.4998 64.4602ZM91.643 38.2859C91.5763 38.4668 91.3818 38.6006 91.2128 38.7973C89.7829 38.1147 88.3707 37.442 86.9055 36.7456C88.3373 33.6376 89.7829 30.6771 91.7137 28.0195C94.711 23.8905 97.8634 19.8717 100.959 15.8175C101.11 15.6189 101.358 15.4969 101.843 15.1231C101.678 15.6916 101.65 15.9552 101.534 16.1716C100.436 18.1958 99.2992 20.1983 98.2248 22.2362C96.6928 25.1416 95.3356 28.1297 94.2259 31.2239C93.3793 33.5825 92.5171 35.9371 91.643 38.2859ZM90.3821 41.6063C90.3722 41.8896 90.4606 42.2653 90.3388 42.5545C89.1937 45.2121 88.8697 48.086 88.2215 50.8655C87.6087 53.5093 87.4044 56.2515 87.0175 58.9484C86.7877 60.5378 86.5657 62.1292 86.3084 63.7127C86.2436 64.114 86.0432 64.4917 85.8665 64.9914C84.5014 64.4819 83.2365 63.9212 81.9205 63.5455C80.5849 63.1619 79.1982 62.9574 77.7094 62.6505C77.6995 62.1666 77.5994 61.6807 77.6976 61.2381C79.2316 54.186 81.1761 47.2677 84.6232 40.8687C84.9473 40.2628 85.3047 39.6707 85.6543 39.053C87.5596 39.4071 88.962 40.4084 90.3821 41.6063ZM83.4781 40.1802C81.7516 43.2331 80.5613 46.5202 79.318 49.7797C78.0452 53.1179 77.3342 56.6115 76.5014 60.0696C76.307 60.8781 76.1027 61.6807 75.9122 62.4439C73.3078 63.0183 70.9979 63.5278 68.7058 64.0353C68.2619 63.6636 68.4838 63.2583 68.6252 62.8826C69.3107 61.0512 69.9687 59.21 70.7033 57.4003C72.9365 51.9022 75.2601 46.4454 78.1651 41.2601C78.3006 41.0162 78.4381 40.7703 78.5442 40.5126C79.0627 39.2596 79.9603 38.7009 81.3372 38.815C82.0855 38.876 82.8476 38.7599 83.5115 38.7245C83.9986 39.3363 83.7118 39.7691 83.4781 40.1802ZM75.814 40.0543C74.991 41.5945 74.1091 43.1073 73.3686 44.6868C70.8467 50.059 68.3463 55.445 66.4155 61.0729C66.0345 62.1843 65.5474 63.2583 65.0642 64.4642C63.6952 64.1652 62.6287 63.3173 61.3933 62.9082C60.1323 62.4911 58.8556 62.1135 57.6378 61.5941C56.424 61.0788 54.9842 61.3679 53.8195 60.4945C53.9786 60.0657 54.0866 59.6585 54.2772 59.2946C57.1605 53.7808 60.1009 48.2926 63.432 43.0384C65.1114 40.3867 67.105 37.9318 68.9748 35.4001C69.2616 35.0146 69.6348 34.692 70.0532 34.2533C72.3394 34.7785 74.1543 35.7365 75.5449 37.4223C76.4405 38.5062 76.468 38.8288 75.814 40.0543ZM65.0859 38.0616C64.1549 39.5389 63.0922 40.9356 62.1357 42.3971C61.1811 43.8587 60.254 45.3419 59.3721 46.8507C58.5236 48.2985 57.7596 49.7915 56.9445 51.259C56.094 52.7854 55.1983 54.2903 54.3793 55.8325C53.5661 57.3708 52.9907 59.031 52.0558 60.5457C50.1368 60.6853 48.2689 60.8703 46.397 60.943C44.6077 61.0139 42.8832 61.6925 41.0801 61.5981C40.923 60.7975 41.1999 60.2211 41.4965 59.6841C42.3077 58.2206 43.1483 56.7708 44.0145 55.3387C45.1007 53.5487 46.2026 51.7665 47.3359 50.0079C47.9782 49.0125 48.7049 48.0722 49.3825 47.0985C50.0994 46.0677 50.7829 45.0134 51.5156 43.9924C52.2914 42.9164 53.1007 41.866 53.902 40.8077C54.617 39.8635 55.3692 38.9409 56.0587 37.9751C56.4161 37.4754 56.5929 36.8322 56.9897 36.3758C57.7655 35.4886 58.6179 34.6664 59.4821 33.8618C59.7217 33.6395 60.1009 33.5491 60.4289 33.4468C62.833 32.6934 65.241 32.7445 68.0812 33.6769C67.4153 35.4906 66.0031 36.6099 65.0859 38.0616ZM55.5107 34.6467C53.1517 37.2413 51.2406 40.1743 49.192 43.003C48.5046 43.9531 47.8702 44.9445 47.1356 45.8573C44.8414 48.7037 43.0776 51.8845 41.2313 55.0181C40.2041 56.7669 39.1258 58.4822 38.3539 60.3686C38.2046 60.7326 37.8864 61.0276 37.5682 61.4643C36.2699 60.6381 35.0502 59.8572 33.8265 59.0821C32.6009 58.3032 31.1985 57.8193 30.02 56.8711C30.7958 54.902 31.939 53.2261 33.088 51.5658C35.8378 47.5883 38.7349 43.721 41.8618 40.0307C42.4491 39.3343 43.0874 38.6832 43.712 38.0223C45.3894 36.2381 47.0629 34.452 48.7599 32.6835C49.6281 31.7767 50.5394 30.9112 51.5136 29.9453C53.5603 30.8049 54.668 32.357 56.0645 33.7733C55.8681 34.09 55.7287 34.4067 55.5107 34.6467ZM36.3799 63.7914C35.7926 65.3474 35.1503 66.9545 34.5827 68.5872C34.2193 69.6377 33.9562 70.7255 33.6576 71.7995C33.4514 72.5372 33.3453 73.3142 33.0526 74.0125C32.3161 75.7829 32.0882 77.6556 31.8172 79.5244C31.664 80.5591 31.4872 81.5957 31.2063 82.5989C30.7683 84.1687 30.7134 85.7699 30.6603 87.379C30.5621 90.3041 30.2321 93.2253 30.3166 96.1602C30.3205 96.2822 30.2125 96.4061 30.0947 96.6697C29.7647 96.6736 29.3503 96.7641 28.9771 96.6736C25.7893 95.9025 22.6054 95.1098 19.4235 94.3033C18.9619 94.1872 18.5239 93.9728 18.0152 93.782C17.9877 93.3905 17.8954 93.0404 17.9523 92.7178C18.4061 90.0327 18.6319 87.3062 19.3567 84.6625C19.8772 82.776 20.2818 80.8522 20.6687 78.9323C21.5742 74.4453 23.2398 70.218 25.0782 66.0575C26.0112 63.9527 27.1268 61.9286 28.1796 59.8769C28.3328 59.5798 28.5901 59.3379 28.7826 59.092C30.6859 59.6959 34.8145 62.2354 36.3799 63.7914ZM38.2674 141.86C38.2144 142.092 38.1142 142.313 38.0298 142.537C37.9296 142.466 37.745 142.399 37.743 142.328C37.7391 142.104 37.802 141.88 37.8491 141.6C38.0769 141.74 38.2753 141.823 38.2674 141.86ZM35.441 141.709C36.2758 142.539 36.541 143.489 36.484 144.616C34.4865 146.479 32.1413 146.467 29.8177 145.694C28.1933 145.157 27.0129 143.961 26.7772 141.956C29.7372 142.181 32.5911 142.411 35.441 141.709ZM33.7008 147.569C34.8322 147.372 35.9026 146.811 37.14 146.359C39.4793 153.023 41.8068 159.653 44.152 166.321C43.6747 166.593 43.4135 166.172 43.1621 165.926C40.3494 163.193 37.7744 160.239 35.4823 157.068C33.5614 154.412 31.9174 151.558 30.1575 148.784C29.9807 148.505 29.8727 148.184 29.6331 147.669C31.2024 147.647 32.4811 147.779 33.7008 147.569ZM43.2544 159.944C41.9266 156.189 40.7187 152.392 39.4577 148.611C39.4342 148.544 39.4027 148.483 39.3792 148.416C38.3205 145.352 38.3205 145.352 39.7838 142.151C40.3298 142.195 40.4005 142.692 40.5203 143.046C40.9701 144.345 41.7341 145.399 42.7889 146.261C43.9399 147.201 44.7471 148.385 45.5131 149.67C46.945 152.065 48.5517 154.359 50.1269 156.667C51.545 158.746 53.0005 160.801 54.4716 162.843C55.5774 164.376 56.7363 165.865 57.8559 167.385C58.0994 167.718 58.3606 168.086 58.451 168.473C59.1797 171.697 60.4839 174.721 61.627 177.799C61.6957 177.986 61.7056 178.197 61.7822 178.621C60.6076 178.932 59.5607 178.883 58.5414 178.732C58.0189 178.653 57.4905 178.346 57.0584 178.018C56.1156 177.298 55.2062 176.526 54.3243 175.728C52.1481 173.755 49.9875 171.76 47.8348 169.764C47.5343 169.482 47.2278 169.169 47.0452 168.81C45.578 165.945 44.3249 162.979 43.2544 159.944ZM48.8326 172.997C50.7378 174.516 52.4878 176.178 54.2182 177.787C54.1122 178.381 53.7174 178.317 53.3992 178.277C52.5055 178.173 51.6118 178.045 50.724 177.886C50.1348 177.778 49.7125 177.39 49.5377 176.824C49.1861 175.698 48.8797 174.557 48.5772 173.418C48.5536 173.34 48.6951 173.214 48.8326 172.997ZM51.1326 180.358C51.4901 180.351 51.8279 180.305 52.1579 180.341C53.8962 180.528 55.6364 180.712 57.3687 180.954C57.8323 181.021 58.3292 181.202 58.7083 181.474C60.1264 182.501 61.4974 183.59 62.8899 184.649C63.4654 185.087 63.8406 185.613 64.0075 186.352C64.2491 187.444 64.64 188.5 64.9307 189.58C65.0112 189.887 64.9601 190.229 64.9778 190.8C63.3004 189.751 61.7979 188.872 60.3582 187.902C57.628 186.065 54.9292 184.184 52.2266 182.306C51.5981 181.867 50.9814 181.381 51.1326 180.358ZM64.3375 182.086C64.2648 181.757 64.1568 181.432 64.0508 181.055C65.135 180.248 66.3743 179.979 67.3603 179.424C68.3306 179.568 68.7882 180.234 69.295 180.789C72.3257 184.096 75.5508 187.198 78.9821 190.08C80.0015 190.936 80.6752 191.947 80.8108 193.263C80.9031 194.154 81.3921 195 81.0818 196.068C80.7518 195.903 80.4434 195.798 80.1901 195.615C77.4678 193.65 74.7475 191.685 72.0448 189.694C70.2987 188.412 68.6174 187.039 66.8379 185.809C65.4846 184.875 64.6695 183.667 64.3375 182.086ZM66.883 187.892C71.5773 191.303 76.2657 194.722 80.9443 198.153C81.3548 198.454 81.9971 198.637 81.7751 199.611C79.9014 198.664 78.1651 197.765 76.4091 196.908C75.4054 196.418 74.3487 196.032 73.349 195.533C71.6028 194.659 69.8705 193.747 68.1578 192.816C67.8023 192.621 67.3721 192.316 67.2641 191.97C66.8084 190.53 65.9854 189.189 65.8852 187.381C66.3449 187.613 66.6414 187.713 66.883 187.892ZM81.7104 188.473C81.6279 188.376 81.5434 188.28 81.4629 188.186C81.5414 188.127 81.622 188.064 81.7025 188.005C81.7536 188.123 81.8164 188.237 81.8498 188.361C81.8576 188.382 81.7595 188.435 81.7104 188.473ZM104.029 168.21C103.664 164.94 103.222 161.687 102.746 158.433C102.595 157.402 102.401 156.381 102.206 155.225C104.135 154.855 105.836 154.524 107.69 154.166C107.716 155.085 107.725 155.98 107.765 156.871C107.808 157.782 107.941 158.689 107.928 159.598C107.871 162.892 107.778 166.187 107.688 169.482C107.604 172.494 107.454 175.506 107.708 178.517C107.757 179.135 107.68 179.762 107.663 180.368C106.551 180.667 106.262 180.573 106.072 179.758C105.879 178.942 105.763 178.11 105.616 177.284C105.07 174.26 104.369 171.255 104.029 168.21ZM107.996 184.023C108.081 185.583 108.142 187.149 107.973 188.764C107.812 188.333 107.574 187.916 107.509 187.471C107.307 186.11 106.948 184.743 107.384 183.303C107.67 183.404 107.769 183.409 107.79 183.449C107.871 183.636 107.987 183.828 107.996 184.023ZM104.944 183.325C105.156 183.75 105.368 184.198 105.455 184.66C105.942 187.32 106.398 189.983 106.853 192.649C106.895 192.913 106.842 193.19 106.82 193.9C106.268 192.753 104.528 186.602 104.355 185.316C104.267 184.647 104.3 183.96 104.276 183.189C104.6 183.248 104.895 183.226 104.944 183.325ZM106.366 212.711C106.973 212.946 106.769 213.506 106.818 213.953C106.895 214.635 106.963 215.318 106.977 216.004C106.979 216.12 106.704 216.323 106.541 216.341C106.384 216.357 106.083 216.213 106.058 216.095C105.914 215.428 105.836 214.747 105.734 214.071C105.857 213.034 106.034 212.584 106.366 212.711ZM106.812 205.295C107.586 205.777 107.835 206.56 108.093 207.595C107.016 207.154 106.983 207.088 106.812 205.295ZM107.906 59.3989C107.765 61.8361 107.623 64.2753 107.472 66.7086C107.46 66.9054 107.346 67.0942 107.24 67.4089C104.844 66.5296 102.63 65.7152 100.309 64.8615C100.279 64.3284 100.187 63.7776 100.232 63.2367C100.444 60.5909 100.698 57.9491 100.922 55.3033C101.073 53.4916 101.153 51.676 101.336 49.8682C101.635 46.951 101.986 44.0377 102.328 41.1264C102.369 40.788 102.485 40.4595 102.57 40.1212C103.518 39.773 104.241 40.3258 105.009 40.5716C106.256 40.969 107.498 41.3959 108.896 41.864C109.102 42.9164 109.041 44.1715 108.947 45.4127C108.762 47.85 108.486 50.2813 108.299 52.7166C108.13 54.9433 108.034 57.1701 107.906 59.3989ZM108.927 38.7462C108.929 38.8681 108.812 38.9921 108.639 39.3363C108.138 39.1829 107.743 39.0806 107.362 38.9429C105.936 38.4354 104.516 37.916 103.031 37.3771C103.966 30.6397 105.659 24.2446 107.981 18.0109C108.059 17.7964 108.242 17.6233 108.364 17.4463C108.56 17.5447 108.67 17.5702 108.674 17.6056C108.725 18.2312 108.808 18.8587 108.804 19.4862C108.768 25.9049 108.869 32.3255 108.927 38.7462ZM108.704 11.2538C107.443 15.969 105.624 20.0606 104.516 24.3666C103.404 28.6844 102.408 33.0317 101.332 37.4912C99.2639 37.9672 97.1838 38.4472 94.8111 38.994C94.8838 38.3567 94.872 38.0774 94.9545 37.8295C97.1976 31.0469 99.9278 24.4846 103.632 18.3512C104.822 16.3782 105.956 14.3658 107.433 12.5836C107.731 12.2236 108.079 11.9049 108.704 11.2538ZM104.545 7.74254C104.889 7.4042 105.28 7.117 105.653 6.8062C105.751 6.88882 105.852 6.96947 105.95 7.05405C105.643 7.49862 105.359 7.96089 105.027 8.38579C102.444 11.6984 99.8237 14.9835 97.2683 18.3197C94.8819 21.4336 92.4503 24.522 90.2504 27.7638C88.7263 30.0142 87.5537 32.5026 86.2298 34.8867C86.0236 35.2545 85.8802 35.6578 85.6524 36.004C85.507 36.2243 85.2713 36.4978 85.0435 36.5351C83.7629 36.7338 82.4705 36.9758 80.9974 36.5764C81.4275 35.7188 81.7202 34.9319 82.1759 34.2513C84.0791 31.4069 85.9607 28.5447 87.9818 25.7829C91.1657 21.4277 94.6933 17.3597 98.5961 13.6222C100.611 11.6964 102.558 9.69785 104.545 7.74254ZM99.6665 8.67889C98.107 10.2821 96.4984 11.84 94.9899 13.4904C92.686 16.0083 90.3329 18.4948 88.2195 21.1681C86.1434 23.7981 84.3207 26.6307 82.4253 29.4004C81.123 31.3026 79.8915 33.254 78.609 35.1719C78.4263 35.4454 78.1336 35.646 77.7821 35.9843C76.2481 34.0566 74.0934 33.2206 71.8346 32.2586C72.0919 31.8711 72.2412 31.5701 72.4553 31.3302C76.5211 26.7802 80.8363 22.4841 85.5404 18.5872C87.2649 17.1591 88.8794 15.5992 90.5784 14.1376C93.4048 11.7043 96.5711 9.77653 99.8119 7.96876C99.8512 7.94909 99.9278 8.00614 100.134 8.07499C99.9592 8.3012 99.8315 8.50972 99.6665 8.67889ZM90.2818 9.64474C91.9101 8.83429 93.4873 7.91761 95.1372 7.15044C96.3373 6.59178 97.614 6.18656 98.8652 5.74003C99.1087 5.65544 99.3974 5.69675 99.9945 5.66331C99.4544 6.10394 99.1853 6.39507 98.8612 6.57605C94.1846 9.1864 89.999 12.4439 86.1159 16.1185C84.8981 17.2712 83.535 18.2685 82.2858 19.3878C78.5756 22.7063 75.0951 26.255 71.7698 29.9551C71.2532 30.5276 70.7151 31.0744 70.1023 31.7236C67.4703 31.222 64.7971 30.7558 62.1554 31.1669C61.8765 30.6889 62.1632 30.5177 62.3321 30.3328C63.381 29.2017 64.3277 27.9428 65.5239 27.0025C66.8909 25.9304 67.8828 24.4708 69.4168 23.566C70.3576 23.0093 71.0588 22.067 71.9269 21.3707C77.619 16.7971 83.7452 12.9003 90.2818 9.64474ZM57.4021 31.999C56.204 30.799 54.9921 29.5893 53.6703 28.2654C53.796 28.0549 53.9394 27.6595 54.2065 27.3822C55.5205 26.0229 56.8384 24.6656 58.2114 23.3653C59.1758 22.4546 60.2226 21.6264 61.2518 20.7825C61.737 20.3852 62.2477 20.0055 62.778 19.6731C67.2228 16.866 71.8975 14.474 76.5839 12.1174C79.7089 10.5476 82.9674 9.25525 86.383 8.41923C86.495 8.39169 86.6305 8.46644 86.986 8.53725C86.8171 8.67298 57.4551 31.9577 57.4021 31.999ZM46.128 25.777C46.8252 25.1947 47.5284 24.6085 48.2787 24.105C50.6494 22.5155 52.7451 20.5445 55.2828 19.1872C57.7439 17.8712 60.1676 16.4824 62.5934 15.0956C66.7357 12.7233 71.2277 11.1535 75.6392 9.39885C79.2139 7.97663 82.8574 6.79636 86.8701 6.49343C86.4262 6.6508 85.9941 6.86325 85.5325 6.95964C83.9494 7.29208 82.4783 7.91762 80.9875 8.52939C77.9431 9.78047 75.0774 11.3797 72.1528 12.8669C69.4129 14.2596 66.6905 15.6838 64.0232 17.2142C63.3004 17.6312 62.6012 18.0974 61.9294 18.5971C59.5136 20.3891 57.1978 22.2992 55.1728 24.5377C54.7485 25.0039 54.3224 25.4721 53.8588 25.8931C52.372 27.2425 52.4191 27.9133 49.8716 27.0556C48.648 26.6425 47.2515 26.7389 45.8923 26.6012C45.6055 26.2688 45.8785 25.9836 46.128 25.777ZM19.8025 52.3527C21.4171 50.3344 23.0218 48.3004 24.709 46.3412C26.4865 44.2737 28.3249 42.2535 30.1909 40.2648C31.7229 38.6321 33.3061 37.0446 34.9206 35.4985C36.7354 33.7595 38.6347 32.1072 40.4535 30.3741C41.4101 29.4634 42.5002 28.9618 43.8122 28.8634C44.5055 28.8123 45.1891 28.6136 45.8844 28.5585C47.2711 28.4444 48.6499 28.4405 50.1701 29.2981C47.4282 32.1878 44.8846 34.869 42.3391 37.5541C41.7656 38.1619 41.1823 38.7678 40.6441 39.4091C37.4897 43.1525 34.565 47.0729 31.8172 51.1193C30.9137 52.4491 30.1222 53.8516 29.2737 55.2187C29.0969 55.5079 28.9083 55.7931 28.6628 56.1767C27.1661 55.5 25.7676 54.7152 24.2729 54.2372C22.7645 53.7552 21.1598 53.5821 19.4765 53.2477C19.5826 52.9487 19.6159 52.5887 19.8025 52.3527ZM4.91634 87.9672C5.26399 85.8309 5.67056 83.7025 6.04964 81.5682C7.00028 76.2216 9.08424 71.2487 11.231 66.3191C12.4547 63.5081 13.8355 60.7463 15.5227 58.1694C16.1316 57.2409 16.874 56.4029 17.5124 55.5748C21.3719 54.8194 24.3731 56.1433 27.2585 58.1576C27.1779 59.0389 26.6869 59.7215 26.298 60.4454C23.611 65.4457 21.4053 70.6507 19.8791 76.1252C19.2211 78.4778 18.7517 80.8856 18.2037 83.2697C17.9543 84.3575 17.7108 85.4473 17.4888 86.541C17.151 88.1816 16.711 89.8025 16.6344 91.4923C16.6128 92.0253 16.4006 92.5525 16.2474 93.2056C14.1929 92.8771 12.4645 91.9624 10.6496 91.3172C8.80922 90.6621 6.9551 90.0504 4.99882 89.3855C4.96543 88.9035 4.8417 88.4196 4.91634 87.9672ZM12.0481 134.48C11.0248 133.941 10.3295 133.148 9.919 132.011C9.13727 129.839 8.39479 127.669 8.03338 125.378C7.93714 124.768 7.59931 124.199 7.4245 123.599C5.98479 118.693 4.69632 113.752 4.45473 108.618C4.30153 105.333 4.26222 102.042 4.22294 98.7509C4.19741 96.9333 4.26616 95.1157 4.31723 93.2981C4.33294 92.7492 4.43312 92.2024 4.52936 91.3251C8.59317 92.5486 12.2819 93.9905 16.0039 95.5111C16.0235 96.1228 16.0648 96.6776 16.051 97.2264C16.0078 98.7686 15.9351 100.305 15.8821 101.845C15.7701 105.077 16.1728 108.262 16.6717 111.445C17.1156 114.275 17.4947 117.118 17.9739 119.943C18.5219 123.178 19.0346 126.422 20.1463 129.536C21.1362 132.3 22.0515 135.089 22.9943 137.871C23.0571 138.06 23.0532 138.268 23.1043 138.612C22.7154 138.601 22.3913 138.622 22.077 138.577C20.1247 138.296 18.2744 137.692 16.5185 136.791C15.0277 136.024 13.531 135.266 12.0481 134.48ZM12.5745 137.615C13.4918 137.568 14.1399 138.132 14.8627 138.437C15.5679 138.74 16.2651 139.079 16.9801 139.352C17.7618 139.649 18.5632 139.915 19.3665 140.153C20.1031 140.373 20.8573 140.536 21.6017 140.729C22.4051 140.938 23.2103 141.148 24.0392 141.364C24.0215 141.949 24.0058 142.427 23.9881 143.064C21.6901 144.238 19.6042 144.347 17.5654 142.802C16.5048 142 15.4048 141.252 14.303 140.511C13.315 139.844 12.7277 138.955 12.5745 137.615ZM21.8551 154.324C19.2546 151.253 17.2334 147.824 15.4854 144.221C15.3989 144.046 15.3773 143.833 15.3321 143.654C15.6189 143.326 15.8566 143.548 16.0864 143.676C16.3319 143.81 16.5656 143.965 16.7994 144.12C19.3135 145.812 21.8806 145.865 24.4949 144.358C24.6147 144.288 24.7502 144.24 24.9525 144.148C25.8168 144.465 26.2999 145.212 26.7733 145.993C28.3642 148.629 29.9552 151.265 31.5737 153.883C33.3041 156.68 35.1445 159.401 37.3895 161.826C38.4324 162.955 39.3674 164.189 40.4516 165.277C41.8265 166.663 43.278 167.981 44.7491 169.27C45.5662 169.982 46.2006 170.761 46.4952 171.819C46.9195 173.354 47.5814 174.827 47.8643 176.656C44.5527 175.984 41.9168 174.701 39.6267 172.624C37.2933 170.509 34.7752 168.603 32.4713 166.463C29.91 164.09 27.3625 161.693 25.3552 158.781C24.2827 157.229 23.0748 155.766 21.8551 154.324ZM86.0884 270.212C84.2991 266.404 82.2505 262.753 79.8955 259.259C76.6841 254.499 73.3293 249.837 70.3949 244.889C68.6075 241.88 66.5747 239.014 64.7716 236.014C60.3719 228.69 55.5028 221.656 51.4311 214.132C49.5298 210.62 47.4086 207.231 45.4974 203.724C42.453 198.127 39.497 192.48 36.5056 186.854C35.3193 184.627 34.1329 182.402 32.9545 180.174C32.1374 178.627 31.3477 177.069 30.5189 175.531C28.8631 172.447 27.1897 169.376 25.526 166.296C25.3591 165.991 25.2295 165.662 24.9859 165.135C25.3729 165.239 25.53 165.237 25.6262 165.312C26.7242 166.179 27.8457 167.021 28.8965 167.946C31.6326 170.35 34.3352 172.791 37.0517 175.214C37.5722 175.679 43.8043 180.101 45.8097 181.631C47.1434 182.648 48.4947 183.643 49.8677 184.607C50.7456 185.223 51.4429 185.908 51.8279 186.97C52.6882 189.336 53.6447 191.669 54.6032 193.998C55.1905 195.423 55.8328 196.825 56.4829 198.22C58.4883 202.542 60.5388 206.838 62.5069 211.175C64.1254 214.742 65.7026 218.33 67.1993 221.949C68.2697 224.534 69.1163 227.215 70.1808 229.802C71.3004 232.518 72.5614 235.178 73.7635 237.863C75.7963 242.399 77.8351 246.931 79.8621 251.471C82.4037 257.164 84.633 262.979 86.3163 268.989C86.4655 269.516 86.5893 270.051 86.8387 271.042C86.383 270.543 86.1788 270.405 86.0884 270.212ZM91.4211 278.106C90.9595 278.082 90.9261 277.685 90.7925 277.382C89.4058 274.241 88.4061 270.965 87.3631 267.698C86.0472 263.575 84.6271 259.476 83.0695 255.439C82.0658 252.835 80.7244 250.366 79.5537 247.826C78.7642 246.111 78.0118 244.378 77.2439 242.649C75.5743 238.874 73.8833 235.105 72.2471 231.316C71.3849 229.328 70.5108 227.337 69.841 225.279C68.6036 221.469 66.9282 217.855 65.2724 214.226C63.7639 210.914 62.2732 207.593 60.7529 204.284C59.323 201.168 57.8774 198.057 56.4181 194.954C55.3496 192.686 54.6897 190.277 53.7744 187.955C53.8883 187.875 54.0042 187.796 54.1181 187.719C54.7446 188.154 55.5067 188.475 55.9644 189.045C56.6577 189.907 57.5926 190.342 58.4745 190.884C61.2165 192.568 63.9584 194.246 66.7809 195.975C67.9004 198.979 68.7686 202.146 69.6407 205.317C71.0726 210.512 72.6969 215.644 74.4332 220.749C76.7057 227.435 78.7858 234.19 80.9502 240.914C81.9166 243.912 82.8731 246.91 83.8728 249.896C86.0805 256.466 87.9504 263.134 89.8124 269.807C90.3958 271.896 90.9673 273.989 91.5468 276.078C91.641 276.414 91.7687 276.741 91.8434 277.083C91.9573 277.601 91.7216 278.124 91.4211 278.106ZM92.7999 275.576C92.3069 274.351 91.9455 273.06 91.6568 271.77C90.767 267.816 89.565 263.949 88.4572 260.058C87.5615 256.903 86.4478 253.806 85.509 250.661C83.8689 245.165 81.8223 239.799 80.2883 234.259C79.1295 230.085 77.5522 226.031 76.1852 221.914C75.2601 219.126 74.3802 216.323 73.4747 213.526C72.1627 209.466 70.9704 205.37 69.9667 201.222C69.6584 199.947 69.1732 198.714 68.7922 197.541C69.2754 197.002 69.6858 197.209 70.0492 197.39C72.801 198.763 75.5528 200.146 78.2908 201.55C79.4732 202.158 80.6202 202.835 81.7987 203.45C82.5353 203.836 82.9262 204.371 83.0676 205.231C83.704 209.171 84.3855 213.101 85.0946 217.027C85.945 221.711 86.8368 226.385 87.7128 231.061C88.4591 235.048 89.1741 239.043 89.9715 243.019C90.6865 246.585 91.4878 250.134 92.2715 253.684C92.9766 256.895 93.7682 260.089 94.4203 263.313C95.2649 267.494 95.9975 271.695 96.7969 275.883C97.0621 277.27 96.8166 278.649 96.8205 280.225C96.1134 280.205 95.5752 280.187 94.9722 280.17C94.2239 278.61 93.4284 277.126 92.7999 275.576ZM97.0424 295.82C95.5399 295.55 95.5104 295.485 95.6616 293.225C96.0682 293.192 96.4983 293.156 97.0208 293.109C97.2624 294.048 97.1446 294.844 97.0424 295.82ZM96.4002 291.071C96.1114 291.006 95.8581 290.776 95.6518 290.656C95.6754 290.088 96.2371 289.604 96.7105 289.669C97.1151 289.722 97.2507 290.052 97.2389 290.44C97.2251 290.93 96.9364 291.189 96.4002 291.071ZM97.2723 287.869C96.6889 287.708 96.3275 287.696 96.082 287.517C95.9013 287.387 95.8188 287.049 95.7952 286.793C95.752 286.386 95.7658 285.971 95.807 285.565C95.8502 285.119 96.2175 284.861 96.6771 284.904C97.068 284.94 97.3292 285.156 97.3351 285.544C97.3469 286.216 97.3017 286.891 97.2723 287.869ZM99.8865 295.515C99.8374 295.727 99.5683 295.889 99.3994 296.076C99.2678 295.871 99.0105 295.659 99.0243 295.468C99.0616 294.948 99.2148 294.441 99.3248 293.898C100.189 294.288 100.02 294.931 99.8865 295.515ZM99.8315 292.035C99.5644 291.848 99.1716 291.72 99.0773 291.478C98.8848 290.985 99.1008 290.509 99.5703 290.241C99.6842 290.178 100.018 290.271 100.081 290.385C100.36 290.92 100.269 291.443 99.8315 292.035ZM100.527 287.54C100.389 288.02 99.9867 288.296 99.6292 288.164C99.2815 288.038 99.0753 287.78 99.0812 287.395C99.093 286.791 99.1185 286.187 99.1382 285.445C99.7608 285.465 100.152 285.475 100.566 285.489C100.89 286.232 100.715 286.889 100.527 287.54ZM100.751 280.53C100.26 280.748 99.9946 280.52 99.8139 280.205C98.9438 278.69 98.0284 277.235 98.0618 275.342C98.0854 274.19 97.7044 273.023 97.4765 271.866C97.0209 269.535 96.5887 267.198 96.0721 264.879C95.0645 260.382 93.9509 255.909 92.9924 251.405C92.2833 248.053 91.7471 244.665 91.1265 241.296C91.0381 240.818 90.8848 240.353 90.7906 239.873C89.4844 233.368 88.1449 226.871 86.9016 220.354C86.2986 217.198 85.8802 214.008 85.3696 210.837C85.1908 209.731 84.9865 208.628 84.7803 207.526C84.6526 206.834 84.5132 206.149 84.8608 205.272C86.385 205.866 87.6047 206.655 88.7753 207.652C88.7989 207.894 88.8913 208.181 88.8402 208.439C88.5593 209.9 89.4078 210.679 90.5392 211.244C91.0911 211.517 91.7196 211.643 92.3619 211.852C92.3423 212.509 92.3756 213.138 92.2931 213.752C92.1635 214.724 91.9671 215.688 91.7786 216.65C91.4172 218.497 92.0889 219.663 93.9705 219.905C95.8227 220.143 95.8502 220.633 95.9995 222.175C96.2882 225.098 96.7046 228.008 97.064 230.925C97.2094 232.103 97.3685 233.28 97.4746 234.462C97.6749 236.693 97.8458 238.927 98.0167 241.16C98.1267 242.556 98.2268 243.951 98.3093 245.346C98.4625 247.862 98.5744 250.38 98.7473 252.894C98.9024 255.126 99.1225 257.357 99.3032 259.588C99.421 261.053 99.5251 262.519 99.6253 263.982C99.9022 268.107 100.34 272.215 101.096 276.277C101.377 277.789 101.093 279.166 100.751 280.53ZM102.513 295.708C102.493 295.842 102.222 296.046 102.082 296.034C101.925 296.021 101.711 295.828 101.646 295.665C101.419 295.076 101.521 294.947 102.505 294.476C102.517 294.925 102.564 295.322 102.513 295.708ZM102.935 291.986C102.807 292.175 102.511 292.381 102.32 292.356C102.157 292.334 101.955 292 101.929 291.781C101.894 291.53 101.961 291.199 102.112 291.006C102.245 290.839 102.56 290.749 102.793 290.747C102.909 290.747 103.023 291.024 103.151 291.191C103.08 291.475 103.078 291.778 102.935 291.986ZM103.693 288.201C103.479 288.557 102.943 288.839 102.628 288.638C102.367 288.471 102.124 288.152 102.045 287.853C101.959 287.54 102.055 287.165 102.11 286.822C102.273 285.851 102.67 285.676 104.039 286.022C104.074 286.754 104.113 287.499 103.693 288.201ZM102.295 275.48C102.155 273.885 102.096 272.266 101.479 270.747C101.377 270.495 101.373 270.192 101.375 269.915C101.401 267.948 101.079 266.01 100.943 264.057C100.784 261.757 100.326 259.497 100.291 257.178C100.244 253.891 100.055 250.596 99.7687 247.321C99.5153 244.396 99.5742 241.451 99.0458 238.54C98.7453 236.899 98.8239 235.192 98.6294 233.527C98.2543 230.327 97.8163 227.134 97.3881 223.944C97.2487 222.905 97.1603 221.88 97.3626 220.729C99.3523 220.698 101.157 221.219 103.027 221.43C103.489 223.277 103.341 225.1 103.381 226.91C103.461 230.624 103.373 234.348 103.607 238.052C103.844 241.825 103.994 245.596 104.07 249.371C104.131 252.309 104.135 255.246 104.227 258.181C104.351 262.312 104.485 266.447 104.718 270.574C104.834 272.669 105.119 274.76 105.449 276.835C105.677 278.267 105.292 279.434 104.245 280.785C103.202 278.958 102.456 277.347 102.295 275.48ZM104.818 295.037C104.838 295.017 104.952 295.051 104.954 295.065C104.97 295.32 104.974 295.576 104.987 295.987C104.534 295.574 104.532 295.305 104.818 295.037ZM105.39 292.598C104.52 291.96 104.544 291.53 105.5 290.908C105.816 291.5 105.808 292.057 105.39 292.598ZM105.952 288.66C105.18 287.839 105.19 287.623 106.085 286.095C106.447 287.035 106.309 287.816 105.952 288.66ZM107.633 295.682C107.474 295.423 107.346 295.283 107.313 295.122C107.297 295.043 107.484 294.834 107.527 294.848C107.694 294.895 107.839 295.015 107.991 295.106C107.896 295.261 107.8 295.413 107.633 295.682ZM108.346 292.385C108.269 292.49 107.908 292.543 107.851 292.474C107.423 291.964 107.623 291.376 108.366 290.871C108.76 291.378 108.715 291.901 108.346 292.385ZM109.03 288.166C108.986 288.455 108.776 288.506 107.947 288.487C107.943 287.883 107.886 287.269 107.959 286.671C107.996 286.372 108.228 286.055 108.454 285.831C108.609 285.679 108.908 285.679 109.332 285.557C109.22 286.547 109.144 287.359 109.03 288.166ZM108.368 280.514C107.256 278.387 106.706 276.302 106.537 274.011C106.343 271.369 106.209 268.719 105.942 266.081C105.49 261.624 105.522 257.152 105.394 252.685C105.209 246.39 105.093 240.094 104.746 233.809C104.634 231.79 104.872 229.784 104.655 227.774C104.52 226.525 104.545 225.258 104.504 224.001C104.483 223.308 104.465 222.616 104.443 221.886C106.046 221.074 107.643 221.548 109.169 221.384C109.654 222.329 109.739 223.218 109.731 224.131C109.719 225.183 109.741 226.233 109.743 227.284C109.748 230.295 109.908 233.319 109.709 236.319C109.485 239.747 109.699 243.164 109.644 246.589C109.589 250.018 109.693 253.448 109.703 256.877C109.717 261.779 109.703 266.683 109.717 271.585C109.723 273.336 109.778 275.085 109.809 276.835C109.837 278.24 109.085 279.31 108.368 280.514ZM110.666 295.124C110.611 295.078 110.556 295.033 110.501 294.99C110.448 295.033 110.393 295.076 110.34 295.124C110.304 295.013 110.257 294.903 110.247 294.791C110.243 294.752 110.33 294.707 110.375 294.663C110.416 294.728 110.458 294.791 110.501 294.864C110.546 294.791 110.589 294.728 110.628 294.663C110.672 294.707 110.758 294.754 110.756 294.791C110.744 294.903 110.697 295.015 110.666 295.124ZM111.976 288.166C111.86 287.359 111.783 286.549 111.669 285.557C112.096 285.679 112.394 285.679 112.547 285.831C112.775 286.055 113.007 286.372 113.046 286.671C113.117 287.269 113.06 287.883 113.056 288.487C112.227 288.506 112.015 288.455 111.976 288.166ZM112.638 290.869C113.378 291.374 113.581 291.962 113.152 292.472C113.095 292.541 112.734 292.488 112.657 292.383C112.29 291.901 112.243 291.378 112.638 290.869ZM113.372 295.682C113.203 295.413 113.107 295.261 113.011 295.106C113.164 295.015 113.307 294.895 113.472 294.848C113.518 294.834 113.704 295.045 113.689 295.122C113.657 295.283 113.529 295.423 113.372 295.682ZM112.638 280.514C111.917 279.312 111.167 278.24 111.194 276.837C111.225 275.085 111.28 273.336 111.286 271.587C111.302 266.683 111.286 261.781 111.3 256.879C111.312 253.448 111.416 250.018 111.359 246.591C111.304 243.168 111.518 239.749 111.294 236.321C111.096 233.321 111.257 230.297 111.261 227.286C111.263 226.235 111.282 225.185 111.273 224.133C111.265 223.22 111.349 222.329 111.834 221.386C113.361 221.55 114.957 221.076 116.562 221.888C116.538 222.618 116.519 223.31 116.497 224.003C116.456 225.26 116.485 226.527 116.35 227.776C116.132 229.786 116.37 231.792 116.258 233.811C115.912 240.096 115.794 246.392 115.609 252.687C115.482 257.154 115.513 261.626 115.062 266.083C114.792 268.721 114.661 271.373 114.466 274.013C114.297 276.3 113.747 278.385 112.638 280.514ZM114.92 286.093C115.812 287.621 115.827 287.839 115.054 288.658C114.692 287.816 114.557 287.035 114.92 286.093ZM115.613 292.598C115.195 292.059 115.189 291.5 115.503 290.908C116.458 291.53 116.483 291.958 115.613 292.598ZM116.018 295.987C116.03 295.578 116.034 295.32 116.049 295.065C116.051 295.051 116.165 295.017 116.185 295.037C116.474 295.305 116.472 295.574 116.018 295.987ZM117.31 288.201C116.888 287.499 116.931 286.753 116.965 286.024C118.332 285.676 118.73 285.853 118.892 286.824C118.947 287.167 119.043 287.54 118.958 287.855C118.878 288.154 118.634 288.471 118.373 288.64C118.061 288.839 117.523 288.557 117.31 288.201ZM118.069 291.986C117.929 291.778 117.925 291.477 117.855 291.189C117.982 291.022 118.098 290.745 118.214 290.745C118.446 290.747 118.758 290.837 118.892 291.004C119.045 291.197 119.11 291.528 119.078 291.779C119.049 291.998 118.848 292.332 118.687 292.354C118.491 292.381 118.196 292.175 118.069 291.986ZM119.357 295.666C119.296 295.83 119.078 296.021 118.921 296.036C118.782 296.048 118.51 295.844 118.491 295.71C118.442 295.324 118.487 294.927 118.497 294.478C119.483 294.948 119.585 295.078 119.357 295.666ZM119.522 270.747C118.907 272.266 118.848 273.887 118.711 275.48C118.546 277.347 117.801 278.958 116.757 280.785C115.71 279.434 115.325 278.267 115.553 276.835C115.883 274.762 116.167 272.669 116.285 270.574C116.519 266.447 116.649 262.312 116.776 258.181C116.867 255.246 116.872 252.309 116.931 249.371C117.008 245.596 117.159 241.823 117.395 238.052C117.629 234.348 117.542 230.624 117.621 226.91C117.66 225.1 117.511 223.277 117.974 221.43C119.844 221.219 121.649 220.698 123.641 220.729C123.843 221.88 123.757 222.905 123.615 223.944C123.185 227.134 122.749 230.329 122.374 233.527C122.178 235.192 122.256 236.899 121.956 238.54C121.423 241.451 121.488 244.396 121.233 247.321C120.946 250.596 120.761 253.889 120.71 257.178C120.675 259.497 120.217 261.757 120.056 264.057C119.925 266.008 119.601 267.948 119.626 269.915C119.63 270.192 119.626 270.493 119.522 270.747ZM120.477 287.54C120.29 286.889 120.111 286.232 120.439 285.489C120.852 285.475 121.241 285.465 121.865 285.445C121.889 286.187 121.908 286.791 121.922 287.395C121.93 287.78 121.72 288.038 121.372 288.164C121.017 288.296 120.616 288.018 120.477 287.54ZM121.604 296.074C121.435 295.889 121.166 295.725 121.119 295.513C120.981 294.929 120.816 294.288 121.681 293.896C121.793 294.437 121.944 294.947 121.979 295.466C121.995 295.659 121.74 295.871 121.604 296.074ZM121.926 291.478C121.83 291.72 121.437 291.848 121.17 292.035C120.732 291.443 120.64 290.92 120.92 290.385C120.979 290.271 121.317 290.178 121.431 290.241C121.903 290.509 122.119 290.985 121.926 291.478ZM122.94 275.344C122.973 277.237 122.058 278.694 121.188 280.207C121.007 280.522 120.74 280.748 120.251 280.532C119.907 279.168 119.624 277.789 119.903 276.283C120.657 272.22 121.097 268.113 121.372 263.988C121.47 262.525 121.577 261.059 121.694 259.594C121.877 257.361 122.095 255.132 122.248 252.9C122.423 250.386 122.535 247.868 122.686 245.352C122.771 243.955 122.875 242.56 122.981 241.166C123.154 238.931 123.325 236.698 123.523 234.468C123.629 233.285 123.79 232.107 123.934 230.931C124.293 228.016 124.711 225.106 124.998 222.181C125.149 220.639 125.173 220.149 127.029 219.911C128.909 219.669 129.58 218.505 129.219 216.656C129.032 215.694 128.836 214.73 128.704 213.758C128.622 213.144 128.655 212.517 128.636 211.858C129.278 211.651 129.906 211.525 130.458 211.25C131.59 210.685 132.438 209.906 132.157 208.445C132.108 208.187 132.199 207.9 132.222 207.658C133.395 206.659 134.613 205.87 136.137 205.278C136.482 206.155 136.347 206.842 136.217 207.532C136.013 208.634 135.807 209.737 135.628 210.843C135.113 214.014 134.697 217.202 134.094 220.36C132.851 226.877 131.511 233.376 130.207 239.879C130.111 240.357 129.958 240.823 129.869 241.301C129.248 244.671 128.714 248.058 128.003 251.41C127.045 255.915 125.929 260.388 124.925 264.885C124.407 267.204 123.975 269.543 123.519 271.872C123.297 273.023 122.916 274.19 122.94 275.344ZM123.67 285.544C123.678 285.156 123.937 284.94 124.328 284.904C124.786 284.863 125.155 285.119 125.198 285.565C125.24 285.971 125.251 286.386 125.21 286.793C125.185 287.049 125.102 287.387 124.923 287.517C124.678 287.694 124.317 287.708 123.733 287.869C123.702 286.891 123.657 286.216 123.67 285.544ZM124.291 289.667C124.764 289.602 125.326 290.086 125.352 290.654C125.145 290.774 124.892 291.004 124.601 291.069C124.067 291.187 123.778 290.93 123.763 290.438C123.753 290.05 123.886 289.722 124.291 289.667ZM123.959 295.82C123.857 294.844 123.743 294.048 123.985 293.109C124.507 293.154 124.933 293.192 125.342 293.225C125.495 295.485 125.462 295.55 123.959 295.82ZM126.033 280.172C125.426 280.189 124.89 280.207 124.183 280.227C124.189 278.651 123.941 277.274 124.208 275.885C125.006 271.697 125.739 267.495 126.583 263.315C127.235 260.091 128.025 256.899 128.732 253.686C129.514 250.136 130.317 246.585 131.03 243.021C131.829 239.045 132.544 235.05 133.291 231.063C134.167 226.387 135.058 221.713 135.909 217.029C136.618 213.105 137.301 209.173 137.936 205.233C138.075 204.373 138.468 203.84 139.205 203.452C140.383 202.837 141.532 202.158 142.713 201.552C145.453 200.148 148.204 198.767 150.956 197.392C151.318 197.213 151.728 197.004 152.211 197.543C151.832 198.715 151.347 199.947 151.039 201.224C150.035 205.372 148.843 209.466 147.529 213.528C146.623 216.323 145.745 219.126 144.818 221.916C143.453 226.033 141.874 230.087 140.715 234.261C139.181 239.801 137.136 245.167 135.494 250.663C134.556 253.808 133.444 256.905 132.546 260.06C131.438 263.951 130.236 267.818 129.349 271.772C129.058 273.06 128.699 274.353 128.204 275.578C127.575 277.126 126.78 278.61 126.033 280.172ZM130.211 277.384C130.079 277.685 130.044 278.082 129.582 278.108C129.284 278.124 129.046 277.603 129.158 277.083C129.233 276.741 129.362 276.414 129.453 276.078C130.032 273.987 130.604 271.896 131.187 269.807C133.049 263.136 134.919 256.468 137.127 249.896C138.128 246.91 139.083 243.912 140.047 240.914C142.214 234.19 144.294 227.435 146.566 220.749C148.305 215.646 149.927 210.512 151.359 205.317C152.229 202.148 153.101 198.979 154.219 195.975C157.039 194.246 159.783 192.568 162.523 190.884C163.407 190.34 164.34 189.907 165.033 189.045C165.489 188.475 166.255 188.154 166.881 187.719C166.995 187.798 167.109 187.875 167.223 187.955C166.31 190.277 165.648 192.686 164.581 194.954C163.12 198.058 161.676 201.168 160.245 204.284C158.728 207.593 157.237 210.914 155.725 214.226C154.069 217.855 152.396 221.471 151.155 225.279C150.489 227.337 149.613 229.33 148.752 231.316C147.116 235.105 145.425 238.872 143.754 242.649C142.988 244.376 142.233 246.111 141.444 247.826C140.275 250.366 138.932 252.835 137.928 255.439C136.37 259.476 134.948 263.575 133.634 267.698C132.599 270.967 131.598 274.241 130.211 277.384ZM195.477 166.296C193.816 169.376 192.142 172.447 190.485 175.531C189.658 177.071 188.868 178.629 188.051 180.174C186.871 182.402 185.682 184.629 184.498 186.854C181.506 192.478 178.552 198.127 175.506 203.724C173.597 207.231 171.474 210.62 169.572 214.132C165.499 221.656 160.632 228.69 156.23 236.014C154.427 239.014 152.396 241.88 150.611 244.889C147.674 249.837 144.319 254.497 141.108 259.259C138.753 262.753 136.704 266.404 134.915 270.212C134.825 270.405 134.624 270.541 134.163 271.044C134.414 270.053 134.534 269.518 134.685 268.991C136.369 262.979 138.6 257.166 141.139 251.473C143.164 246.933 145.205 242.401 147.238 237.865C148.44 235.182 149.699 232.522 150.819 229.804C151.885 227.217 152.732 224.536 153.802 221.951C155.299 218.331 156.874 214.742 158.495 211.177C160.463 206.84 162.517 202.542 164.519 198.222C165.169 196.827 165.813 195.425 166.398 194C167.357 191.671 168.313 189.336 169.174 186.972C169.561 185.91 170.258 185.225 171.134 184.609C172.507 183.647 173.862 182.65 175.194 181.633C177.197 180.103 183.429 175.681 183.95 175.216C186.668 172.793 189.371 170.352 192.105 167.948C193.156 167.023 194.279 166.183 195.377 165.314C195.472 165.239 195.631 165.239 196.014 165.137C195.774 165.664 195.646 165.991 195.477 166.296ZM205.518 144.221C203.768 147.824 201.749 151.253 199.148 154.324C197.929 155.766 196.723 157.229 195.652 158.781C193.645 161.693 191.093 164.09 188.536 166.463C186.23 168.603 183.712 170.511 181.383 172.624C179.091 174.701 176.453 175.984 173.145 176.656C173.43 174.827 174.088 173.354 174.512 171.819C174.805 170.761 175.441 169.98 176.258 169.27C177.729 167.983 179.179 166.665 180.558 165.277C181.638 164.189 182.573 162.955 183.618 161.826C185.863 159.401 187.705 156.682 189.434 153.883C191.054 151.263 192.645 148.629 194.234 145.993C194.704 145.212 195.189 144.463 196.057 144.148C196.259 144.24 196.393 144.288 196.514 144.358C199.127 145.865 201.694 145.812 204.21 144.12C204.442 143.965 204.677 143.81 204.921 143.676C205.151 143.548 205.388 143.324 205.673 143.654C205.626 143.833 205.606 144.046 205.518 144.221ZM206.702 140.509C205.601 141.25 204.499 141.998 203.442 142.8C201.401 144.347 199.313 144.236 197.015 143.062C196.998 142.425 196.98 141.947 196.966 141.362C197.795 141.146 198.596 140.936 199.402 140.727C200.146 140.534 200.902 140.371 201.639 140.151C202.44 139.913 203.24 139.649 204.023 139.35C204.74 139.077 205.436 138.738 206.141 138.435C206.865 138.13 207.512 137.566 208.431 137.613C208.278 138.955 207.69 139.844 206.702 140.509ZM216.782 98.7509C216.741 102.04 216.702 105.331 216.549 108.618C216.307 113.752 215.019 118.693 213.581 123.599C213.402 124.201 213.064 124.768 212.97 125.378C212.611 127.669 211.866 129.839 211.083 132.011C210.674 133.15 209.979 133.941 208.955 134.48C207.472 135.264 205.978 136.024 204.485 136.787C202.729 137.688 200.879 138.292 198.926 138.573C198.612 138.618 198.288 138.597 197.901 138.608C197.948 138.264 197.946 138.056 198.009 137.867C198.952 135.085 199.869 132.296 200.857 129.532C201.967 126.418 202.482 123.175 203.031 119.939C203.511 117.112 203.89 114.271 204.332 111.441C204.833 108.258 205.231 105.073 205.121 101.841C205.07 100.301 204.996 98.7647 204.954 97.2225C204.937 96.6736 204.982 96.1189 205 95.5071C208.724 93.9885 212.41 92.5466 216.474 91.3211C216.572 92.1985 216.67 92.7453 216.686 93.2941C216.739 95.1137 216.806 96.9313 216.782 98.7509Z" fill="black"/>
</svg>
