<svg width="102" height="200" viewBox="0 0 102 200" fill="none" xmlns="http://www.w3.org/2000/svg">
<path fill-rule="evenodd" clip-rule="evenodd" d="M101.634 179.344C99.497 168.032 94.882 157.573 90.2857 147.141C88.705 143.561 87.2065 139.935 85.8425 136.261C85.0727 134.176 85.4203 133.677 87.4419 132.919C88.9142 132.367 90.4501 132.002 91.8963 131.401C94.9792 130.122 97.9836 128.507 98.6861 124.8C99.1943 122.125 99.5082 119.227 99.0859 116.572C97.3894 105.998 93.5554 96.1101 89.4113 86.3455C84.6842 75.2158 79.8412 64.1345 75.2299 52.9526C71.9377 44.9671 69.0417 36.81 65.7944 28.8059C63.713 23.6774 61.5717 18.4259 57.805 14.4089C54.1616 10.5262 49.9726 7.18053 45.8994 3.75658C41.0677 -0.305168 35.4101 -0.722901 29.704 0.847344C23.37 2.58916 17.6676 5.75203 12.8022 10.4292C7.30904 15.7069 3.75155 22.0885 1.9915 29.6339C-0.527136 40.413 -0.437443 51.3451 1.04235 62.1354C3.20224 77.8826 7.21191 93.2344 12.806 108.075C16.4643 117.791 20.3357 127.418 24.2182 137.045C25.3393 139.816 26.6845 142.512 28.1643 145.097C32.6224 152.896 38.5453 154.955 46.658 151.703C48.6086 150.919 50.5817 150.207 52.6519 149.424C53.1713 150.397 53.5974 151.057 53.9001 151.781C57.394 160.069 60.8916 168.349 64.3295 176.659C66.5343 181.992 68.7278 187.315 72.1507 191.981C76.1342 197.411 81.1752 200.503 87.9875 199.933C89.1608 199.836 94.2729 198.37 95.6107 197.613C101.01 194.569 102.868 185.864 101.634 179.344ZM51.8971 20.8652C49.2626 21.1971 45.7874 20.4847 43.833 18.3699C43.5976 18.1946 43.3659 18.0044 43.1379 17.7993C41.2247 16.0649 39.6141 13.9687 37.9363 11.9696C37.1366 11.0185 36.3444 9.99651 35.8287 8.86638C35.328 7.76236 35.1822 6.47934 34.872 5.24478C34.9131 5.2224 34.9504 5.20745 34.9915 5.18508C34.9915 4.21533 35.5035 3.31277 36.6732 3.07779C38.2127 2.76822 39.7037 3.06285 41.135 3.67827C43.3247 4.62564 45.3576 5.76693 47.2148 7.30733C49.1206 8.88503 50.6191 10.8507 52.267 12.6969C53.4553 14.0322 55.4919 15.3935 55.5555 17.4039C55.6302 19.6492 53.7767 20.6339 51.8971 20.8652ZM77.4981 189.922C76.5452 188.415 75.428 186.987 74.6694 185.379C72.4049 180.597 70.2712 175.749 68.1038 170.915C64.9088 163.78 61.7174 156.637 58.5411 149.487C58.1674 148.652 57.7901 147.786 57.6668 146.895C57.6145 146.548 58.1899 145.955 58.6046 145.746C58.8475 145.623 59.4754 145.933 59.6921 146.231C60.0172 146.675 60.1107 147.29 60.3424 147.82C66.1009 161.139 71.8667 174.458 77.614 187.785C77.8569 188.352 77.9204 189.012 78.0662 189.631C77.8756 189.732 77.685 189.829 77.4981 189.922ZM83.0287 192.19C81.022 187.926 79.0714 183.633 77.1955 179.311C72.6029 168.763 68.0626 158.189 63.5186 147.619C63.1113 146.667 62.6667 145.683 62.5471 144.676C62.4798 144.098 63.0328 143.441 63.6345 142.084C67.1919 148.335 69.2098 154.448 72.0237 160.147C74.8786 165.917 77.629 171.739 80.4503 177.524C83.2604 183.294 85.8388 189.157 87.9614 195.494C84.7178 196.132 83.8994 194.028 83.0287 192.19ZM95.8311 185.428C95.577 187.46 94.9903 189.497 94.2355 191.395C93.7721 192.563 92.7034 193.469 91.8626 194.543C90.0017 192.35 68.5336 145.757 67.2854 141.308C70.8728 139.227 74.7367 137.619 78.9743 136.149C79.4974 136.97 79.8785 137.41 80.0915 137.925C84.6953 149.2 90.4314 159.994 93.6712 171.847C94.8782 176.275 96.4215 180.713 95.8311 185.428Z" fill="black"/>
</svg>
