<svg width="430" height="300" viewBox="0 0 430 300" fill="none" xmlns="http://www.w3.org/2000/svg">
<path fill-rule="evenodd" clip-rule="evenodd" d="M429.607 40.966C428.423 39.2798 426.772 38.0921 424.927 37.3853C422.897 36.6076 420.732 36.0292 418.578 35.7545C414.06 35.1762 409.553 34.4273 404.983 34.2655C400.997 34.1237 397.014 33.8489 393.028 33.8179C389.507 33.7869 385.981 33.9376 382.465 34.1348C378.934 34.332 375.407 34.64 371.889 34.9878C369.715 35.205 367.554 35.5728 365.392 35.8985C362.923 36.2708 360.468 36.9045 357.99 37.0042C354.412 37.146 350.996 37.9592 347.576 38.8411C345.524 39.3706 332.053 42.599 327.561 44.3915C325.714 45.1272 323.842 45.8141 321.972 46.4899C319.31 47.4515 316.606 48.3134 313.973 49.3504C309.18 51.236 304.4 53.1593 299.659 55.1734C295.815 56.8064 283.937 62.933 281.652 63.9611C277.489 65.8357 273.323 67.7058 269.147 69.5471C268.705 69.7443 268.177 69.7509 267.574 69.8683C267.095 68.2974 266.658 66.866 266.19 65.3216C267.392 65.1111 268.341 64.9782 269.277 64.7743C272.665 64.0387 275.286 62.1752 276.418 58.8915C277.686 55.2089 278.057 51.3667 277.108 47.487C276.682 45.7387 276.289 43.9727 276.043 42.1913C275.892 41.1011 275.759 40.0752 275.224 39.0626C274.945 38.5353 274.994 37.6645 275.215 37.0684C276.14 34.5957 277.163 32.1539 278.201 29.7254C280.854 23.5013 283.702 17.3637 285.128 10.6787C285.625 8.34776 285.383 6.24057 284.605 4.06912C284.186 2.90585 283.449 2.08602 282.491 1.39248C279.428 -0.832139 276.356 -0.351321 272.862 2.54911C270.174 4.78038 268.013 7.51685 265.744 10.1713C260.966 15.7573 256.372 21.4784 252.14 27.4831C248.578 32.5372 245.211 37.731 241.746 42.856C239.035 46.8599 236.309 50.8505 233.585 54.8433C231.549 57.8257 229.504 60.7992 227.47 63.7817C225.906 66.0728 224.336 68.3594 222.803 70.6682C219.986 74.907 217.337 79.2632 214.354 83.38C211.431 87.4149 209.086 91.7889 206.446 95.9899C204.936 98.3874 203.583 100.885 202.097 103.298C201.416 104.403 200.517 105.307 199.273 105.861C197.698 106.564 196.152 107.339 194.633 108.152C188.723 111.314 182.814 114.474 176.936 117.696C172.42 120.173 167.915 122.679 163.474 125.291C160.194 127.219 157.004 129.304 153.814 131.376C149.438 134.221 145.097 137.119 140.747 140.004C137.309 142.284 133.855 144.548 130.451 146.882C127.314 149.033 124.211 151.236 121.145 153.482C118.961 155.082 116.913 156.877 114.706 158.443C107.606 163.486 100.463 168.472 93.3299 173.468C90.1536 175.693 86.8485 177.701 83.2795 179.245C82.6718 179.509 82.0241 179.695 81.3963 179.916C81.2899 179.777 81.1834 179.639 81.0814 179.502C84.6038 174.776 88.3591 170.202 91.1539 164.874C89.5924 162.753 88.8382 162.523 86.6999 163.435C86.2851 163.611 85.8859 163.823 85.4799 164.018C80.9372 166.194 76.2746 168.064 71.3903 169.314C70.1126 169.642 69.1744 170.229 68.3781 171.219C66.9296 173.025 65.4967 174.856 63.9418 176.568C61.3399 179.427 58.6404 182.196 55.9964 185.015C55.3176 185.739 54.5834 185.948 53.5675 185.775C48.7675 184.948 44.0938 183.701 39.7751 181.434C36.8649 179.905 34.1122 178.086 31.2907 176.395C30.4057 175.864 29.5273 175.325 28.6489 174.78C27.613 174.135 26.4929 173.586 25.5701 172.804C23.9775 171.457 22.1387 170.595 20.2599 169.804C19.6632 169.553 18.8247 169.498 18.217 169.706C16.3959 170.329 14.6147 171.084 12.8579 171.873C11.8021 172.345 10.8705 173.098 9.79912 173.515C6.92884 174.634 4.14507 175.919 1.54985 177.576C0.955385 177.958 -0.178085 177.955 0.0237657 179.028C0.172381 179.821 0.611572 180.57 0.982002 181.308C1.11953 181.58 1.4212 181.773 1.66297 181.988C3.00717 183.187 4.36911 184.361 5.69334 185.578C8.21315 187.889 10.7197 190.215 13.2195 192.548C16.0964 195.236 18.8869 198.017 21.8436 200.612C25.5235 203.844 29.3254 206.942 33.0985 210.073C34.1876 210.979 35.381 211.763 36.4789 212.663C37.883 213.817 38.0072 214.544 37.2198 216.204C36.7784 217.134 36.3791 218.096 35.8579 218.98C33.8637 222.364 31.8541 225.743 29.7957 229.088C26.6215 234.242 23.4052 239.372 20.1933 244.501C19.3416 245.86 18.4099 247.171 17.587 248.547C17.3519 248.942 17.1722 249.538 17.2987 249.943C17.5671 250.814 19.0776 251.53 19.9893 251.219C22.1187 250.502 24.3102 249.879 26.3043 248.873C31.8896 246.057 37.395 243.083 42.9138 240.141C44.9234 239.068 46.7312 237.741 47.9645 235.749C48.712 234.541 49.5926 233.418 50.329 232.204C52.3697 228.851 54.4614 225.552 56.8969 222.452C58.108 220.908 59.6297 219.951 61.1957 218.956C61.5196 218.75 61.9055 218.643 62.2294 218.44C67.1913 215.255 72.4683 212.67 77.987 210.638C84.708 208.161 91.327 205.449 97.8683 202.541C109.07 197.563 120.416 192.949 131.837 188.498C140.969 184.939 149.966 181.031 159.027 177.284C160.349 176.739 161.684 176.232 163.417 175.549C162.549 177.592 161.755 179.143 161.225 180.776C159.559 185.91 156.742 190.474 154.218 195.183C151.383 200.461 148.413 205.666 145.671 210.995C142.579 217.004 139.725 223.135 136.677 229.168C134.248 233.974 131.671 238.705 129.186 243.482C127.853 246.041 126.622 248.656 125.262 251.197C123.046 255.339 120.72 259.42 118.519 263.568C116.716 266.971 114.997 270.423 113.3 273.882C110.294 280.009 107.282 286.135 104.39 292.315C103.746 293.687 103.491 295.264 103.23 296.78C103.012 298.036 103.44 298.823 104.418 299.16C106.317 299.818 108.287 300.374 110.288 299.68C113.147 298.69 115.995 297.66 118.792 296.505C120.624 295.752 122.352 294.746 124.133 293.866C126.434 292.727 128.749 291.615 131.041 290.461C131.495 290.23 131.919 289.9 132.287 289.543C134.772 287.124 137.387 284.817 139.667 282.218C142.493 278.994 145.168 275.615 147.677 272.134C150.767 267.847 153.619 263.391 156.569 259.003C158.078 256.761 159.546 254.494 161.085 252.274C163.215 249.205 165.431 246.194 167.538 243.108C168.407 241.833 169.091 240.433 169.854 239.088C170.299 238.302 170.856 237.872 171.872 237.936C172.511 237.976 173.203 237.619 173.826 237.344C174.529 237.034 175.166 236.571 175.869 236.256C177.81 235.386 179.762 234.541 181.723 233.717C183.741 232.871 185.793 232.102 187.796 231.224C190.802 229.904 193.787 228.535 196.764 227.145C197.458 226.822 198.026 226.23 198.732 225.944C203.09 224.169 205.559 220.733 206.866 216.439C208.476 211.141 208.205 205.874 205.954 200.76C205.637 200.04 205.379 199.293 205.098 198.564C205.353 198.478 205.417 198.433 205.473 198.44C205.794 198.476 206.109 198.526 206.429 198.564C210.619 199.034 214.356 197.955 217.038 194.673C219.445 191.733 220.844 188.155 221.008 184.35C221.186 180.229 220.776 176.076 219.547 172.115C218.695 169.376 218.557 166.269 216.066 164.18C216.155 163.936 216.217 163.688 216.33 163.466C217.779 160.59 219.223 157.71 220.696 154.845C221.292 153.688 222.055 152.676 223.267 152.055C228.832 149.193 234.377 146.29 239.949 143.445C242.868 141.954 245.861 140.6 248.775 139.095C253.125 136.846 312.751 110.135 319.576 107.259C321.056 106.637 357.489 89.6817 362.348 87.446C366.674 85.4562 370.984 83.431 375.294 81.4036C377.802 80.2226 380.349 79.1081 382.78 77.7786C385.936 76.0525 388.986 74.1293 392.094 72.3145C395.718 70.2007 399.403 68.1888 402.974 65.9908C406.374 63.9013 409.659 61.6146 413.004 59.4343C416.624 57.0768 420.255 54.7369 423.152 51.4576C423.793 50.733 424.572 50.1259 425.195 49.3903C426.883 47.4005 429.068 45.8096 429.842 43.0842C430.088 42.2134 430.073 41.6307 429.607 40.966ZM273.108 58.4793C271.802 61.4263 269.031 62.2328 266.152 62.707C265.797 62.7646 265.504 62.6649 265.249 62.4478C264.854 62.4876 264.46 62.5098 264.065 62.5209C263.26 62.5408 263.262 61.2934 264.065 61.2734C267.691 61.1781 271.58 59.8487 272.54 55.9489C272.813 54.8433 272.829 53.7443 272.824 52.6098C272.82 51.2693 272.811 49.9221 272.727 48.5838C272.665 47.6132 272.549 46.6671 272.385 45.7099C272.316 45.3089 272.248 44.91 272.161 44.5134C272.134 44.3849 272.11 44.2608 272.077 44.1345C272.063 44.088 272.052 44.0569 272.043 44.0326C271.873 43.811 271.842 43.503 272.112 43.2615C272.117 43.2571 272.121 43.2526 272.128 43.2482C272.27 43.1241 272.476 43.0421 272.667 43.0687C272.747 42.8915 272.86 42.7053 273.019 42.5059C273.536 43.2881 273.605 44.0592 273.519 44.9854C273.521 44.9942 273.521 45.0053 273.523 45.0142C273.696 45.9913 273.858 46.9729 273.931 47.9656C273.942 48.1184 273.949 48.2758 273.96 48.4286C273.993 48.3799 274.024 48.3245 274.06 48.2713C274.421 51.7545 274.552 55.2222 273.108 58.4793ZM262.057 67.0144C262.097 66.928 262.133 66.846 262.171 66.7618L262.164 66.7641C261.824 66.7641 261.541 66.4804 261.541 66.1414V66.0462C261.472 65.9487 261.427 65.829 261.427 65.6939C261.427 65.3726 261.711 65.0468 262.051 65.0712C262.071 65.0734 262.088 65.0779 262.106 65.0823C262.279 65.0624 262.461 65.1133 262.603 65.2551C262.656 65.3083 262.712 65.3615 262.763 65.4147C262.807 65.3194 262.847 65.2219 262.894 65.1222C264.014 66.8571 264.442 68.5189 264.566 70.2605C264.661 71.6299 264.426 71.847 262.588 72.2525C262.738 71.2554 262.785 70.4821 262.985 69.7531C263.28 68.6674 263.331 67.7035 262.057 67.0144ZM212.575 95.035C214.676 91.5717 216.967 88.2126 218.919 84.6696C221.359 80.2492 224.205 76.1301 227.215 72.093C229.952 68.4259 232.483 64.6081 235.136 60.879C236.369 59.1485 237.689 57.4822 238.949 55.7672C239.594 54.8898 240.233 54.0013 240.799 53.0729C246.681 43.4299 253.063 34.1237 259.644 24.9527C262.124 21.4961 264.575 18.0107 267.15 14.625C269.612 11.3833 272.363 8.38542 275.526 5.80185C276.883 4.69618 278.312 3.72346 280.224 3.81874C281.067 3.86084 281.632 4.12673 281.746 4.95321C281.883 5.95917 282.069 7.00944 281.928 7.99545C281.708 9.51989 281.333 11.0399 280.841 12.5001C279.916 15.2476 278.884 17.9619 277.851 20.6718C276.063 25.3692 274.297 30.0777 272.412 34.7375C271.42 37.1837 270.194 39.5324 269.076 41.9254C266.347 47.7661 263.479 53.5382 261.19 59.5783C259.134 65.0047 256.758 70.296 253.93 75.3723C253.185 76.7106 252.391 77.9337 250.88 78.707C245.033 81.7027 239.281 84.889 233.448 87.9113C226.177 91.6781 218.857 95.3518 211.559 99.0632C211.231 99.2316 210.896 99.3867 210.565 99.5485C210.461 99.4421 210.357 99.3357 210.253 99.2316C211.025 97.829 211.748 96.3999 212.575 95.035ZM61.0715 184.806C64.2944 181.126 67.513 177.441 70.7825 173.801C71.2772 173.251 71.9737 172.784 72.6679 172.533C76.0573 171.306 79.4776 170.167 82.8914 169.006C82.9956 168.968 83.1331 169.032 83.6145 169.095C83.3195 169.755 83.1708 170.322 82.8514 170.767C80.7597 173.692 78.668 176.624 76.4942 179.486C75.5249 180.763 74.458 182.004 73.2469 183.041C72.5038 183.679 71.4435 184.08 70.4631 184.284C67.3732 184.928 64.2567 185.431 61.1491 185.974C60.9916 186.003 60.8075 185.888 60.4748 185.797C60.7011 185.416 60.8386 185.07 61.0715 184.806ZM173.758 233.498C175.432 229.458 178.32 226.279 180.414 222.598C182.526 218.889 184.815 215.28 187.215 211.316C187.754 216.698 187.969 221.92 192.669 225.472C186.279 228.182 180.019 230.841 173.758 233.498ZM202.857 217.496C201.89 219.891 200.249 221.943 197.756 223.07C197.438 223.214 197.064 223.226 196.392 223.367C196.828 222.734 197.033 222.353 197.316 222.042C198.778 220.458 199.368 218.479 199.799 216.456C201.18 209.964 200.275 203.654 198.088 197.485C197.434 195.642 197.27 194.017 199.126 192.524C199.43 193.151 199.697 193.701 199.956 194.254C200.919 196.293 201.948 198.3 202.824 200.377C205.226 206.067 205.135 211.832 202.857 217.496ZM216.33 171.098C217.278 174.911 218.096 178.762 217.817 182.715C217.561 186.307 216.448 189.659 214.225 192.533C212.311 195.008 209.645 195.965 206.562 195.848C205.606 195.81 204.989 195.369 204.896 194.219C205.118 194.159 205.348 194.013 205.548 194.051C208.234 194.545 210.333 193.164 212.271 191.704C213.234 190.982 213.981 189.741 214.394 188.582C215.035 186.779 215.43 184.857 215.692 182.954C215.853 181.775 215.756 180.495 215.465 179.334C214.731 176.413 213.822 173.535 212.99 170.637C212.921 170.4 212.799 170.096 212.883 169.903C213.394 168.769 213.629 167.453 214.973 166.593C215.454 168.171 215.962 169.617 216.33 171.098ZM223.848 141.448C220.918 146.904 218.003 152.37 215.004 157.787C213.817 159.928 212.422 161.951 211.129 164.032C209.292 166.987 207.5 169.974 205.617 172.901C202.405 177.882 199.146 182.834 195.888 187.789C191.88 193.878 187.985 200.029 184.387 206.372C182.036 210.518 179.378 214.489 176.972 218.603C174.048 223.607 171.264 228.692 168.376 233.717C166.801 236.456 165.122 239.135 163.521 241.86C162.478 243.633 161.569 245.485 160.455 247.209C158.885 249.642 157.201 252.004 155.524 254.368C153.402 257.362 151.221 260.315 149.096 263.309C148.169 264.616 147.386 266.027 146.428 267.308C143.961 270.61 141.473 273.898 138.915 277.128C137.759 278.586 136.475 279.958 135.151 281.267C133.414 282.98 131.593 284.613 129.776 286.248C128.29 287.589 126.618 288.624 124.797 289.495C122.436 290.622 120.203 292.007 117.874 293.201C117.21 293.543 116.405 293.769 115.669 293.76C114.662 293.749 113.859 294.143 113.284 294.803C112.067 296.206 110.532 296.53 108.662 296.574C108.498 294.447 109.289 292.803 110.05 291.179C112.377 286.215 114.771 281.281 117.122 276.331C119.382 271.571 121.538 266.761 123.896 262.048C126.105 257.63 128.592 253.351 130.817 248.939C133.656 243.309 136.318 237.59 139.135 231.947C140.137 229.937 141.395 228.054 142.488 226.086C144.392 222.654 146.193 219.164 148.156 215.765C150.824 211.139 153.608 206.579 156.336 201.983C157.816 199.49 159.331 197.015 160.744 194.487C163.235 190.045 165.726 185.602 168.09 181.093C169.494 178.412 170.495 175.514 171.981 172.886C172.884 171.288 173.414 169.664 173.984 167.953C174.807 165.474 176.3 163.218 177.453 160.841C178.305 159.082 179.509 157.881 181.419 157.156C183.327 156.434 185.001 155.111 186.882 154.289C189.595 153.101 192.401 152.137 195.16 151.06C199.368 149.421 203.567 147.757 207.775 146.119C211.444 144.688 215.124 143.29 218.79 141.861C220.578 141.167 222.353 140.44 224.566 139.558C224.225 140.46 224.096 140.985 223.848 141.448ZM423.454 44.5843C422.793 45.1959 422.065 45.7365 421.349 46.2816C419.561 47.6398 417.738 48.925 416.008 50.3874C411.183 54.4555 406.234 58.4217 401.022 61.9714C397.309 64.4996 393.107 66.312 389.097 68.3926C383.711 71.1845 378.312 73.9476 372.894 76.6796C370.243 78.0179 367.532 79.2366 364.866 80.5505C359.483 83.2006 354.137 85.9326 348.729 88.5295C344.832 90.3996 340.848 92.0836 336.92 93.885C332.348 95.9833 327.814 98.1636 323.225 100.222C320.281 101.543 317.24 102.651 314.295 103.964C306.689 107.355 299.109 110.802 291.523 114.241C284.41 117.463 277.327 120.756 270.185 123.92C259.09 128.836 247.963 133.682 236.835 138.53C233.94 139.791 230.997 140.937 228.058 142.144C227.896 140.835 230.855 133.015 230.611 132.656C229.859 131.535 229.455 131.373 228.2 131.872C225.5 132.942 218.429 135.654 217.624 136.009C216.064 136.693 214.52 137.427 213.001 138.202C207.866 140.824 173.809 156.186 173.425 156.946C172.172 159.418 170.878 161.873 169.638 164.355C168.838 165.966 167.762 167.169 166.014 167.885C160.941 169.963 155.906 172.141 150.891 174.35C146.581 176.247 142.34 178.299 138.019 180.18C133.82 182.006 129.515 183.603 125.336 185.48C119.566 188.068 113.863 190.798 108.154 193.514C104.776 195.121 101.32 196.526 97.8394 197.904C92.873 199.874 88.0818 202.284 83.2174 204.513C79.1139 206.397 75.0125 208.278 70.92 210.186C69.5781 210.813 68.2738 211.524 66.9474 212.193C66.0424 212.65 65.1351 213.097 64.2257 213.549C64.1214 213.45 64.015 213.352 63.9107 213.252C64.463 212.441 64.971 211.591 65.5788 210.822C67.3023 208.653 69.0657 206.514 70.8158 204.365C71.6254 203.37 71.601 202.497 70.7337 201.648C69.8731 200.804 69.1544 200.806 68.327 201.761C66.5969 203.756 64.8401 205.732 63.2209 207.815C62.0807 209.282 61.2512 210.99 60.1177 212.461C54.9161 219.2 49.6747 225.909 44.4021 232.592C43.1666 234.156 41.8225 235.647 40.4051 237.05C37.588 239.833 34.0678 241.406 30.368 242.649C28.935 243.13 27.5465 243.744 25.7032 244.468C26.3354 243.504 26.7191 242.937 27.0829 242.363C30.7828 236.536 34.4893 230.713 38.1692 224.874C39.5821 222.636 40.8065 220.272 42.3548 218.136C43.557 216.479 45.2051 215.154 46.5094 213.563C47.7693 212.027 49.2732 210.908 51.0521 210.062C54.8984 208.236 58.7136 206.341 62.5532 204.502C63.283 204.152 64.046 203.9 63.7222 202.849C63.4338 201.914 62.4867 201.407 61.4153 201.66C60.7942 201.806 60.1776 202.021 59.5876 202.262C56.3047 203.612 52.9864 204.892 49.7612 206.37C47.248 207.525 44.7171 207.234 42.2084 206.751C39.4579 206.222 37.0268 204.795 34.6578 203.35C29.9021 200.452 25.5679 197.002 21.3423 193.375C18.288 190.754 15.6217 187.813 12.9555 184.842C11.5781 183.309 10.0875 181.873 8.66343 180.379C8.40613 180.109 8.22202 179.766 7.90261 179.314C8.45271 179.077 8.89412 178.886 9.33553 178.695C11.5892 177.727 13.8384 176.765 16.0898 175.795C16.977 175.412 17.8332 174.931 18.7515 174.645C20.5017 174.098 22.1897 173.865 23.9198 175.028C26.4884 176.752 29.2522 178.184 31.8475 179.872C39.5111 184.862 47.8225 188.017 56.9679 188.784C61.839 189.196 66.5547 188.352 71.2838 187.095C74.0831 186.353 76.7205 185.234 79.4577 184.37C82.1527 183.517 84.6237 181.959 87.3232 181.128C90.7081 180.087 93.2922 177.829 96.096 175.93C102.293 171.731 108.342 167.313 114.458 162.999C116.873 161.295 119.282 159.578 121.751 157.956C124.417 156.201 127.199 154.619 129.847 152.835C133.8 150.176 137.657 147.371 141.599 144.692C145.168 142.268 148.772 139.902 152.401 137.569C157.066 134.569 161.695 131.509 166.473 128.695C173.09 124.795 179.818 121.077 186.527 117.339C189.287 115.803 192.02 114.108 194.965 113.045C198.831 111.649 202.068 109.191 205.686 107.399C209.328 105.595 212.841 103.543 216.448 101.667C225.38 97.0203 234.315 92.376 243.29 87.8094C247.717 85.5537 252.233 83.4775 256.712 81.3194C256.769 81.2884 256.836 81.2706 256.885 81.233C259.5 79.1679 262.727 78.3082 265.631 76.8148C268.889 75.1419 272.239 73.6418 275.55 72.0752C280.39 69.7908 285.215 67.4842 290.075 65.2441C294.118 63.3806 298.209 61.6191 302.266 59.7822C304.781 58.6411 307.243 57.3914 309.774 56.2902C312.678 55.0272 315.614 53.8329 318.567 52.6829C321.062 51.7124 323.593 50.8239 326.12 49.9464C326.639 49.767 349.21 44.1744 352.212 43.78C356.171 43.2593 360.164 42.969 364.145 42.5968C366.685 42.3575 369.229 42.1425 371.773 41.9232C372.02 41.901 372.272 41.921 372.918 41.921C372.41 42.63 372.137 43.1928 371.709 43.5872C369.096 45.9802 366.457 48.3467 363.806 50.702C361.741 52.5367 359.685 54.3824 357.557 56.1439C355.971 57.4557 354.312 58.6876 352.629 59.8731C347.085 63.7684 341.263 67.2139 335.345 70.4998C334.728 70.8433 334.078 71.1491 333.413 71.3773C329.067 72.8751 325.073 75.1175 320.993 77.1759C320.246 77.5548 320.261 77.5858 320.026 79.4559C319.412 79.713 318.72 80.0054 317.992 80.3112C317.64 79.8659 317.38 79.5069 317.087 79.1745C315.783 77.69 313.951 77.7609 312.948 79.4825C312.456 80.3267 312.36 81.4014 311.959 82.8283C311.542 83.0654 310.719 83.5352 309.872 84.0204C308.898 83.2604 308.496 81.7515 307.035 81.8512C306.159 81.9088 305.238 82.1016 304.457 82.4805C303.137 83.1186 303.002 83.9894 303.614 86.5552C303.126 86.8101 302.592 87.0915 301.973 87.4172C300.742 85.8351 299.469 84.53 297.375 85.5692C295.664 86.4179 295.174 87.6964 295.418 90.5436C293.886 91.7157 293.739 91.7313 292.75 90.2777C292.024 89.2075 291.051 88.6137 289.806 88.8419C288.484 89.0812 287.32 89.808 286.932 91.1596C286.621 92.2409 286.643 93.4174 286.488 94.8178C286.24 94.9419 285.745 95.1856 285.168 95.4692C284.05 93.9958 282.91 92.8015 280.947 93.9448C279.503 94.789 279.184 95.6022 279.579 98.2168C278.913 98.5071 278.225 98.8106 277.407 99.1674C276.127 97.8623 274.592 96.956 272.651 97.86C270.599 98.8173 271.411 100.71 271.351 102.36C270.24 102.775 269.311 102.976 268.461 101.806C267.785 100.876 266.758 100.386 265.562 100.823C264.276 101.288 263.623 102.312 263.515 103.628C263.459 104.319 263.612 105.028 263.688 105.928C263.025 106.244 262.297 106.59 261.649 106.898C261.461 106.812 261.383 106.803 261.35 106.759C260.602 105.722 259.742 104.853 258.315 105.23C256.749 105.642 255.733 106.643 255.392 108.259C255.352 108.447 255.361 108.646 255.325 108.835C255.07 110.16 254.352 110.479 253.404 109.524C252.295 108.405 251.144 108.478 249.853 108.968C248.383 109.524 247.859 110.317 247.939 111.915C247.959 112.3 248.008 112.686 248.052 113.138C247.231 113.833 246.55 113.971 245.561 113.186C243.602 111.642 240.364 112.544 239.554 114.819C239.315 115.497 239.517 116.333 239.517 117.297C239.282 117.412 238.845 117.625 238.652 117.718C237.467 116.84 236.513 116.003 235.424 115.402C235.052 115.198 234.291 115.491 233.803 115.739C231.84 116.738 231.549 117.742 232.274 120.645C231.837 121.239 231.327 121.449 230.631 121.01C230.03 120.636 229.42 120.255 228.774 119.969C226.427 118.932 224.367 120.401 224.595 122.929C224.637 123.377 224.742 123.815 224.835 124.361C224.427 124.613 224.01 124.875 223.588 125.138C223.369 125.014 223.187 124.945 223.047 124.828C222.747 124.582 222.488 124.285 222.18 124.055C221.044 123.206 219.403 122.993 218.544 123.561C217.466 124.27 216.94 125.856 217.298 127.312C217.344 127.498 217.368 127.686 217.435 128.03C216.949 128.238 216.455 128.449 216.007 128.639C213.835 126.66 212.098 126.233 210.404 127.226C208.443 128.378 209.255 130.108 209.585 131.766C209.121 132.056 208.7 132.322 208.279 132.585C208.068 132.459 207.904 132.366 207.744 132.262C207.263 131.941 206.821 131.524 206.298 131.309C205.147 130.833 203.811 130.452 202.784 131.236C201.788 131.994 201.613 133.332 201.717 134.6C201.755 135.038 201.881 135.468 202.019 136.162C201.46 136.069 201.039 136.082 200.69 135.925C200.047 135.63 199.446 135.242 198.831 134.885C197.518 134.119 196.121 134.159 194.99 135.018C193.956 135.803 193.426 137.044 193.563 138.439C193.608 138.885 193.665 139.33 193.741 139.991C193.064 140.356 192.354 140.737 191.791 141.043C190.95 140.285 190.283 139.594 189.526 139.022C187.648 137.609 185.698 138.482 184.961 140.717C184.518 142.062 184.862 143.212 185.172 144.568C184.407 144.85 183.717 145.102 183.049 145.35C181.488 143.485 178.99 142.778 177.391 143.697C175.765 144.635 175.497 145.873 176.366 148.723C176.135 148.874 175.887 149.06 175.621 149.215C175.35 149.37 175.062 149.496 174.654 149.7C172.966 147.808 171.054 146.937 168.736 148.643C167.365 149.651 167.205 150.471 168.013 153.157C167.225 153.547 166.398 153.954 165.455 154.422C164.63 152.775 163.8 151.224 162.037 150.823C161.312 150.659 160.362 150.934 159.661 151.293C156.895 152.705 156.598 153.925 158.029 157.351C157.204 158.177 156.467 158.084 155.513 157.391C154.71 156.804 153.703 156.358 152.723 156.177C150.381 155.738 148.872 157.355 149.256 159.729C149.327 160.165 149.42 160.599 149.522 161.133C148.812 161.494 148.145 161.831 147.49 162.166C145.472 159.199 144.522 158.683 142.839 159.569C140.942 160.568 140.556 162.122 141.659 164.889C141.004 165.361 140.304 165.866 139.516 166.433C139.099 165.944 138.8 165.543 138.451 165.188C136.781 163.493 133.769 163.892 132.64 165.984C132.445 166.345 132.394 166.85 132.449 167.264C132.522 167.827 132.764 168.37 132.944 168.955C132.323 169.66 131.713 169.921 130.972 169.196C130.741 168.973 130.517 168.738 130.266 168.536C128.712 167.289 126.902 167.368 125.409 168.727C124.814 169.265 124.592 169.888 124.95 170.628C125.169 171.087 125.46 171.507 125.841 172.157C124.834 172.7 123.852 173.229 123.084 173.643C121.727 172.746 120.662 171.753 119.409 171.335C118.81 171.135 117.812 171.962 117.06 172.429C115.502 173.4 115.334 174.138 116.002 176.422C114.589 177.322 114.589 177.322 113.484 176.32C111.931 174.909 109.238 175.221 108.112 177.027C107.848 177.45 107.872 178.117 107.923 178.656C107.961 179.07 108.251 179.455 108.478 179.963C107.637 180.448 106.872 180.889 106.029 181.376C104.68 179.859 103.593 177.771 101.122 179.245C99.0661 180.47 98.6357 181.829 99.5496 184.255C99.0483 184.561 98.5248 184.88 97.9215 185.25C96.218 183.373 94.2882 182.589 91.9968 183.845C90.6859 184.561 90.2046 186.302 90.6549 188.505C90.2001 188.471 89.772 188.531 89.4149 188.396C88.694 188.126 88.0352 187.696 87.3143 187.428C85.2781 186.672 83.3017 187.844 82.2614 188.99C81.2388 190.111 81.4141 191.274 82.0063 192.604C81.7291 192.415 81.4385 192.245 81.179 192.037C80.1941 191.257 79.1183 190.718 77.8362 190.652C75.6114 190.539 73.7437 192.557 74.123 194.76C74.2029 195.221 74.4957 195.743 74.8528 196.043C76.7959 197.656 79.125 197.72 81.3786 196.614C86.5868 194.06 91.8527 191.62 97.0897 189.125C98.1389 188.624 99.1548 188.057 100.206 187.563C106.277 184.716 112.355 181.873 118.437 179.046C122.352 177.226 126.272 175.412 130.211 173.643C131.917 172.877 133.693 172.27 135.408 171.519C138.181 170.307 140.929 169.041 143.682 167.787C150.199 164.816 156.656 161.696 163.248 158.904C170.22 155.953 176.881 152.408 183.611 148.98C188.322 146.578 193.071 144.249 197.782 141.85C200.828 140.299 203.813 138.626 206.87 137.103C212.358 134.371 217.888 131.721 223.384 129.011C226.336 127.556 229.24 126 232.201 124.562C240.269 120.651 248.345 116.76 256.437 112.896C262.197 110.146 267.991 107.472 273.754 104.724C279.514 101.981 285.226 99.1363 291.006 96.4331C298.253 93.0496 305.533 89.7393 312.82 86.4444C316.75 84.6674 320.754 83.0521 324.676 81.2574C326.998 80.196 329.365 79.2477 331.592 77.947C333.522 76.8214 335.671 76.0459 337.774 75.2526C345.273 72.432 352.551 69.1128 359.747 65.6096C362.18 64.4264 364.582 63.1745 367.022 62.009C368.402 61.3487 375.571 58.0739 377.683 56.8951C379.027 56.1439 388.924 49.6739 389.647 49.3593C390.65 48.9183 393.793 45.6191 394.578 44.6818C395.323 43.7955 396.018 42.8494 396.599 41.8501C397.258 40.7222 398.078 40.2968 399.425 40.3057C404.01 40.3323 408.599 40.0641 413.177 40.1705C416.97 40.2614 420.714 40.9394 424.377 42.0583C424.461 43.113 424.146 43.9439 423.454 44.5843Z" fill="black"/>
</svg>
