<svg width="332" height="300" viewBox="0 0 332 300" fill="none" xmlns="http://www.w3.org/2000/svg">
<path fill-rule="evenodd" clip-rule="evenodd" d="M111.12 214.955C111.851 214.568 112.539 212.928 112.294 212.185C112.042 211.411 110.666 210.864 109.683 210.539C109.014 210.324 108.166 210.705 107.398 210.754C100.501 211.159 97.307 208.303 97.6939 201.191C97.8966 197.42 97.1534 194.901 92.9768 193.52C89.3224 200.153 91.2264 206.627 92.8663 213.18C95.5626 218.094 101.004 217.915 106.409 216.988C108.049 216.362 109.634 215.735 111.12 214.955Z" fill="black"/>
<path fill-rule="evenodd" clip-rule="evenodd" d="M326.662 64.9214C321.435 51.4888 315.268 38.8179 305.269 27.8975C299.772 21.8845 293.98 16.5471 287.629 11.6704C277.342 3.75948 265.315 0.835886 252.675 0.178693C237.388 -0.613623 222.285 1.37028 207.157 3.348C196.378 4.7668 185.844 6.76292 175.907 11.3141C173.284 12.5118 170.569 13.5192 167.867 14.5265C158.488 18.0212 148.894 21.0247 139.761 25.0599C127.612 30.4403 115.74 36.484 103.873 42.4847C92.5414 48.2213 80.8715 53.5034 70.2582 60.3947C58.8525 67.7958 48.3129 76.5851 37.7794 85.2514C30.108 91.5592 22.4552 98.0021 18.6288 107.835C16.694 112.81 13.3588 117.227 10.9573 122.048C6.25252 131.507 5.10409 141.954 3.05881 152.131C2.07609 157.027 0.952078 161.971 0.724825 166.934C0.190472 178.659 0.159692 190.396 0 198.54C0.669477 209.676 0.847671 217.212 1.65227 224.681C2.35246 231.191 4.01691 237.591 4.77237 244.083C5.46028 250.016 6.59035 255.526 11.8602 259.254C12.4437 259.672 12.8613 260.415 13.1807 261.115C16.9949 269.382 23.7081 272.367 32.4421 271.962C33.8424 271.9 35.8753 272.091 36.6124 272.981C40.2239 277.336 45.6595 278.749 50.0326 281.82C58.6191 287.839 68.2006 290.91 78.6788 291.438C80.1959 291.524 82.1614 292.384 83.0274 293.563C86.7126 298.495 91.2885 300.847 97.4673 299.717C98.0324 299.607 98.6281 299.68 99.2054 299.73C118.301 301.554 134.589 293.888 150.399 284.565C157.026 280.64 163.733 276.863 170.403 273.012C179.377 267.84 188.338 262.644 197.324 257.491C201.003 255.378 204.602 253.124 208.416 251.288C219.158 246.104 230.128 241.368 240.754 235.951C248.972 231.775 256.508 226.167 264.886 222.414C275.468 217.667 283.41 209.35 293.065 203.368C300.638 198.682 305.595 191.004 310.428 183.492C315.336 175.889 317.43 167.806 316.472 158.777C315.876 153.237 316.159 147.599 315.594 142.059C314.912 135.235 316.656 129.296 320.127 123.418C325.421 114.444 330.181 105.115 331.305 94.5012C331.686 90.7055 327.423 66.8745 326.662 64.9214ZM44.118 114.567C53.3555 116.348 66.9784 125.537 66.008 140.419C55.0998 139.995 33.8178 132.919 30.0528 122.754C32.7491 116.397 37.6198 113.32 44.118 114.567ZM24.1994 133.46C25.9929 134.633 27.0679 135.302 28.1059 136.021C29.1991 136.776 30.2555 137.575 31.7234 138.644C26.7116 161.308 23.5117 184.248 22.6272 207.569C18.7578 183.026 18.7945 158.568 24.1994 133.46ZM37.3188 258.75C32.135 242.953 28.1611 226.959 28.0813 210.155C27.9769 187.503 31.0723 165.238 35.6296 143.115C35.7402 142.605 36.2132 142.175 36.938 141.045C40.359 142.648 43.4792 144.122 47.0047 145.781C43.3932 165.822 39.7325 185.845 39.8185 206.285C39.9045 226.505 42.128 246.552 45.678 267.601C41.4585 264.843 38.5411 262.454 37.3188 258.75ZM64.0732 279.043C56.8134 275.899 52.3666 270.297 51.3164 262.546C49.5782 249.771 47.4408 236.94 47.0355 224.091C46.5134 208.116 47.1398 192.079 48.1348 176.116C48.7183 166.805 50.9663 157.592 52.5387 147.838C57.8638 149.005 61.9543 149.902 66.4563 150.897C64.2637 161.731 61.512 172.29 60.1177 183.02C58.7358 193.694 58.1094 204.547 58.2323 215.32C58.3551 226.247 59.1904 237.253 60.7996 248.051C62.372 258.646 65.3016 269.032 67.7461 279.971C66.7572 279.743 65.3262 279.584 64.0732 279.043ZM75.7246 282.225C75.0121 281.316 74.0601 280.499 73.624 279.479C67.1749 264.21 64.3189 248.143 63.3853 231.707C62.6483 218.84 61.7086 205.984 63.152 193.068C64.2883 182.921 65.6026 172.836 68.5508 163.021C68.7043 162.505 69.0852 162.051 69.3555 161.572C69.7547 161.621 70.1539 161.676 70.547 161.725C71.0691 168.015 71.7937 174.298 72.0885 180.6C72.801 196.182 73.495 211.758 73.8574 227.346C74.0846 237.542 73.4889 247.762 73.7284 257.97C73.8512 263.295 74.9323 268.596 75.6202 273.927C75.9519 276.55 76.3695 279.154 75.7246 282.225ZM295.479 168.856C292.856 181.889 285.553 191.606 274.946 199.812C259.425 211.832 241.736 219.982 225.006 229.834C210.087 238.635 194.462 246.288 179.93 255.667C168.548 262.994 156.387 268.756 144.76 275.542C138.526 279.191 131.825 282.022 125.223 285.044C124.983 285.437 124.609 285.763 124.062 285.941C118.289 287.851 112.81 291.34 106.502 290.775C100.741 290.259 96.9206 285.763 96.6872 280.124C96.5766 277.231 97.0372 274.363 97.0802 271.476C97.1478 267.398 96.9022 263.32 96.8838 259.242C96.8347 251.06 95.7291 242.935 95.6861 234.747C95.6799 233.593 96.6564 232.616 97.8173 232.622C98.0814 232.622 98.3394 232.622 98.5974 232.634L98.6097 232.622C99.2854 232.272 99.9917 232.272 100.723 232.278C101.343 232.278 101.889 232.555 102.276 232.972C102.467 233.04 102.669 233.126 102.829 233.249C103.032 233.402 103.222 233.587 103.376 233.765C104.267 234.059 104.758 234.944 104.623 236.799C104.401 240.054 104.309 243.322 104.193 246.577C104.107 249.07 104.93 251.03 108.253 252.43C108.584 250.065 109.112 248.125 109.051 246.202C108.947 243.315 108.332 240.459 108.124 237.579C107.915 234.809 108.75 232.684 111.999 232.315C115.04 231.971 118.067 231.529 121.077 231.038C122.539 230.804 124.105 230.626 125.395 229.963C133.269 225.909 141.296 222.095 148.845 217.507C157.714 212.114 166.251 206.138 174.733 200.131C177.172 198.405 178.892 195.666 181.465 192.81C182.822 194.659 184.026 196.354 185.285 198C192.951 207.999 204.215 210.72 215.633 205.518C220.528 203.282 225.552 201.316 230.564 199.345C245.987 193.246 249.451 181.81 247.074 167.179C246.613 164.391 246.331 161.572 245.962 158.765C246.988 158.654 247.498 158.445 247.719 158.605C257.319 165.472 266.955 163.31 276.733 158.968C282.329 156.48 288.114 154.422 294.177 152.033C297.266 157.893 296.56 163.506 295.479 168.856ZM236.854 173.641C238.764 178.653 236.141 182.264 233.267 185.599C225.724 194.345 215.602 196.857 204.639 196.231C199.627 195.961 196.574 191.87 194.173 187.915C190.752 182.282 190.531 175.87 190.727 169.464C190.739 169.083 190.862 168.715 190.961 168.34C194.087 156.216 210.296 145.805 222.377 148.164C229.053 149.46 236.276 157.61 236.755 164.458C236.866 165.988 236.774 167.529 236.774 169.077C236.774 170.607 236.338 172.308 236.854 173.641ZM314.501 91.2521C314.599 93.1807 312.959 95.1338 312.498 97.173C312.295 98.0329 313.119 99.1138 313.469 100.097C314.286 99.7649 315.373 99.6543 315.864 99.0524C316.877 97.8117 317.559 96.307 319.052 93.7642C319.648 99.5807 318.812 103.88 317.215 107.854C311.804 121.329 303.574 132.864 292.217 141.991C290.319 143.514 287.863 144.46 285.517 145.259C281.69 146.561 277.71 147.427 273.853 148.643C264.978 151.437 256.803 150 249.125 144.884C241.417 139.755 232.8 136.893 223.63 136.666C216.063 136.482 208.914 138.515 202.342 142.796C188.774 151.64 180.593 164.293 175.231 179.193C170.084 193.504 172.375 191.846 159.071 198.307C145.381 204.959 131.961 212.182 118.375 219.073C113.879 221.364 109.155 222.918 103.554 221.794V221.665C102.061 221.825 100.563 221.861 99.0703 221.702C93.6101 221.081 90.0662 218.047 88.1745 212.98C85.0175 207.305 84.3418 200.942 84.0347 194.609C83.7276 188.271 84.09 181.883 84.2435 175.52C84.6735 157.469 81.7315 140.222 72.58 124.339C71.0629 121.692 70.0434 118.694 69.1712 115.752C65.0008 101.571 53.3985 97.8056 40.9917 101.822C40.5065 101.976 39.966 101.97 39.1122 102.08C39.2351 99.5683 40.4266 98.3031 42.5517 98.082C46.3536 97.695 50.1863 97.2344 54.0005 97.3019C56.2976 97.3388 58.613 97.6828 58.9569 94.8882C59.3009 92.0936 56.8257 91.6943 54.6698 91.2828C52.2376 90.816 49.83 90.2694 47.0231 89.6675C47.8707 88.4022 48.448 87.1984 49.3201 86.2587C56.9976 78.0346 65.3508 70.6151 75.4667 65.4742C87.1426 59.5411 98.9045 53.7552 110.648 47.9388C117.208 44.6835 123.81 41.5266 130.37 38.2714C141.978 32.504 154.293 28.6162 166.522 24.4949C169.629 23.4508 172.756 22.4004 175.716 21.0185C185.648 16.3874 196.175 14.4834 207.016 13.6419C211.604 13.2857 216.118 11.6643 220.7 11.48C232.007 11.0194 243.229 9.8339 254.677 11.5229C261.127 12.475 266.396 14.8151 271.531 18.1257C280.928 24.1817 290.246 30.3604 298.464 38.0502C303.144 42.4356 307.406 47.0421 309.648 53.2086C310.103 54.4554 310.987 55.5364 311.614 56.7157C313.886 60.9905 319.125 83.4088 319.537 85.4786C316.06 86.0928 314.322 87.6345 314.501 91.2521Z" fill="black"/>
<path fill-rule="evenodd" clip-rule="evenodd" d="M248.806 45.6491C256.692 45.9501 263.811 44.1013 268.54 37.1424C269.247 36.0983 269.548 33.8012 268.897 32.9659C265.457 28.5867 262.785 23.323 256.871 21.4374C255.44 20.9767 253.972 20.2028 252.854 19.2078C248.757 15.5902 243.358 15.7437 238.856 15.9464C232.739 16.2289 226.167 16.6343 220.645 20.4915C219.14 21.5418 217.132 21.8796 215.541 22.4692C208.975 18.4278 207.249 18.5384 201.359 23.1817C200.604 23.7775 199.824 24.3486 199.093 24.9751C196.949 26.7931 194.677 27.7329 191.704 27.217C188.271 26.6335 185.286 28.0461 182.669 30.2757C180.919 31.7682 179.107 33.1932 176.773 35.0849C170.029 30.6811 165.202 34.0469 160.632 38.42C158.857 40.1152 157.155 41.8963 155.558 43.4932C144.847 39.6544 136.095 41.6015 129.123 50.36C122.109 48.413 117.128 51.6129 112.939 56.637C111.594 58.2585 110.378 60.0152 109.279 61.8209C108.198 63.596 106.932 64.3944 104.709 64.6094C98.868 65.1499 94.0527 67.7233 91.0309 73.0669C89.7288 75.3885 88.3099 77.6549 86.7376 80.2653C79.92 77.1206 75.9522 81.4077 72.1135 86.0019C68.4221 90.3934 68.0783 92.2667 71.1493 96.7749C75.7926 103.568 81.7196 109.047 89.3786 112.32C96.8166 115.49 104.924 111.534 107.307 103.863C109.002 98.421 110.231 92.7765 115.224 88.9685C116.643 87.8875 117.177 85.7071 118.277 84.1409C118.989 83.1275 119.843 81.8131 120.887 81.4875C127.146 79.5651 131.285 75.149 135.014 69.738C142.703 72.4773 149.318 70.5179 155.497 65.5614C156.805 64.5111 159.625 64.4742 161.406 65.0454C166.915 66.8266 171.251 65.1561 175.078 61.3357C176.963 59.4624 178.726 57.4601 180.575 55.4885C187.46 57.7672 193.295 56.2072 198.497 51.6559C200.874 49.5738 203.62 48.1427 206.899 48.4007C211.831 48.7815 216.051 47.1661 219.626 43.9354C221.425 42.3017 223.28 41.7612 225.418 42.7132C228.353 44.0214 231.504 43.8004 233.721 42.0622C238.488 38.334 241.884 41.5032 245.606 43.5915C246.724 44.2118 247.719 45.6 248.806 45.6491ZM99.9183 89.4414C96.3866 88.5754 94.3476 86.5547 94.2923 83.8645C94.2125 79.7371 97.1115 75.9536 101.067 74.8727C103.776 78.3674 106.159 81.42 108.751 84.7673C106.847 88.471 103.634 90.3566 99.9183 89.4414ZM120.383 72.8028C117.976 72.6369 115.187 69.7318 115.249 67.4408C115.329 64.4312 119.499 60.0643 122.318 60.0459C125.217 60.0213 126.949 62.3553 126.876 66.151C126.814 69.7318 123.59 73.0239 120.383 72.8028ZM136.205 55.4885C139.061 49.9669 141.235 49.3158 148.121 51.8402C148.802 55.0218 149.466 58.1173 150.117 61.1821C142.237 63.9399 139.374 62.7422 136.205 55.4885ZM164.673 56.5265C160.331 48.6279 160.577 47.0679 166.258 43.3151C167.609 46.7301 168.967 50.1573 170.606 54.297C168.893 54.9419 166.897 55.6912 164.673 56.5265ZM184.549 46.4967C183.087 45.2499 181.588 42.8729 181.76 41.1716C182.067 38.3094 184.481 36.7432 187.442 36.8783C188.48 40.2564 189.475 43.4748 190.648 47.2521C188.811 49.1438 186.299 47.9953 184.549 46.4967ZM207.722 39.0587C205.855 37.0748 204.529 36.086 203.792 34.7532C203.141 33.5924 202.502 31.4979 203.067 30.8162C203.847 29.8703 205.763 29.8641 207.722 29.3052C207.722 32.7447 207.722 35.2445 207.722 39.0587ZM230.497 34.9436C227.966 33.5002 226.499 32.9659 225.448 31.9832C224.472 31.0619 223.2 29.5018 223.415 28.5129C223.624 27.5302 225.62 26.1667 226.646 26.3141C228.028 26.5045 229.735 27.7329 230.356 28.9797C231.001 30.2757 230.497 32.1367 230.497 34.9436Z" fill="black"/>
<path fill-rule="evenodd" clip-rule="evenodd" d="M91.8595 148.594C91.5832 141.463 90.6004 134.425 87.2469 128.012C85.9141 125.463 83.5862 124.254 79.7229 125.199C80.1098 126.692 80.2879 127.589 80.5889 128.448C82.6464 134.431 84.7409 140.395 86.7923 146.371C87.1117 147.28 87.0441 148.441 87.6092 149.104C88.2357 149.853 89.3474 150.486 90.2871 150.541C90.7969 150.566 91.878 149.264 91.8595 148.594Z" fill="black"/>
<path fill-rule="evenodd" clip-rule="evenodd" d="M92.4427 160.484C91.7303 160.632 91.024 160.773 90.3054 160.92C90.2992 162.45 90.2194 163.991 90.287 165.533C90.4467 169.151 90.7107 172.762 90.8827 176.38C90.9502 177.903 90.4897 179.592 90.9811 180.943C92.0498 183.867 91.9822 187.626 95.7473 189.21C97.3442 184.77 96.9142 174.433 94.7645 165.828C94.2916 163.973 93.2351 162.266 92.4427 160.484Z" fill="black"/>
<path fill-rule="evenodd" clip-rule="evenodd" d="M70.7924 101.481C69.3306 99.9821 66.6588 101.536 66.8738 103.729C67.0151 105.135 67.789 106.628 68.6796 107.776C70.5345 110.19 72.6104 112.432 74.6619 114.692C75.6507 115.773 76.7809 116.713 78.6358 118.476C79.1087 116.565 79.4711 115.841 79.4281 115.141C79.121 108.98 74.5881 105.387 70.7924 101.481Z" fill="black"/>
<path fill-rule="evenodd" clip-rule="evenodd" d="M125.794 210.885C130.849 209.122 136.475 208.09 138.059 201.414C131.776 202.366 126.727 205.806 121.249 208.115C122.041 211.18 123.7 211.622 125.794 210.885Z" fill="black"/>
<path fill-rule="evenodd" clip-rule="evenodd" d="M196.93 130.184C191.845 131.977 189.357 136.234 187.373 140.871C187.312 141.018 187.803 141.411 188.172 141.847C191.845 139.219 195.604 136.67 199.166 133.875C199.823 133.365 200.13 131.658 199.78 130.878C199.516 130.3 197.753 129.889 196.93 130.184Z" fill="black"/>
<path fill-rule="evenodd" clip-rule="evenodd" d="M277.195 137.115C281.648 139.977 284.209 139.388 288.778 135.334C290.707 133.62 291.954 131.993 289.294 129.223C285.081 131.974 281.279 134.45 277.195 137.115Z" fill="black"/>
<path fill-rule="evenodd" clip-rule="evenodd" d="M235.514 128.228C231.491 125.974 228.248 126.858 225.601 130.924C229.507 132.177 233.414 133.424 237.314 134.671C238.659 131.354 238.192 129.733 235.514 128.228Z" fill="black"/>
<path fill-rule="evenodd" clip-rule="evenodd" d="M256.323 143.526C260.199 146.413 264.037 147.058 267.931 145.928C269.885 145.369 271.334 143.551 270.075 140.664C265.647 141.659 260.715 139.571 256.323 143.526Z" fill="black"/>
<path fill-rule="evenodd" clip-rule="evenodd" d="M149.134 198.429C156.443 197.6 160.453 194.007 159.133 188.891C149.717 194.253 149.244 194.713 149.134 198.429Z" fill="black"/>
<path fill-rule="evenodd" clip-rule="evenodd" d="M308.126 108.675C307.555 108.417 306.388 108.466 306.05 108.866C303.821 111.457 301.628 114.105 299.718 116.936C299.38 117.434 300.399 118.865 300.713 119.645C303.673 119.424 309.619 112.569 309.361 110.376C309.293 109.738 308.697 108.927 308.126 108.675Z" fill="black"/>
<path fill-rule="evenodd" clip-rule="evenodd" d="M175.569 157.623C175.354 158.318 176.699 159.509 177.792 161.198C180.605 156.457 182.902 152.599 185.193 148.736C184.769 148.417 184.339 148.091 183.922 147.766C179.039 149.16 176.969 153.183 175.569 157.623Z" fill="black"/>
<path fill-rule="evenodd" clip-rule="evenodd" d="M243.075 134.653C244.782 138.621 246.342 139.972 252.165 142.736C255.463 139.702 251.913 137.964 250.648 136.121C248.774 133.4 246.023 133.253 243.075 134.653Z" fill="black"/>
<path fill-rule="evenodd" clip-rule="evenodd" d="M205.179 131.789C209.964 131.304 214.54 131.666 218.747 127.287C211.542 124.984 207.636 126.39 205.179 131.789Z" fill="black"/>
<path fill-rule="evenodd" clip-rule="evenodd" d="M170.71 174.369C170.2 174.019 168.665 174.271 168.284 174.787C166.711 176.851 165.403 179.123 164.003 181.322C168.48 182.028 170.003 179.375 171.422 176.783C171.723 176.23 171.269 174.762 170.71 174.369Z" fill="black"/>
<path fill-rule="evenodd" clip-rule="evenodd" d="M185.722 239.381C183.081 241.285 180.452 243.208 177.811 245.112C176.11 246.352 174.298 247.452 172.719 248.846C172.197 249.313 172.025 250.523 172.191 251.278C172.289 251.696 173.444 252.224 174.058 252.144C175.152 252.003 176.318 251.604 177.24 251.002C180.593 248.785 183.922 246.518 187.116 244.092C188.559 243.011 189.69 241.5 190.857 240.278C189.063 237.317 187.399 238.171 185.722 239.381Z" fill="black"/>
<path fill-rule="evenodd" clip-rule="evenodd" d="M108.155 260.976C108.131 260.675 107.695 260.411 107.24 259.883C106.675 260.085 105.723 260.098 105.41 260.577C102.922 264.305 105.103 275.416 108.874 278.094C109.5 278.524 110.759 278.647 111.417 278.296C112.098 277.934 112.798 276.859 112.78 276.104C112.755 275.023 112.295 273.801 111.662 272.91C109.144 269.298 108.419 265.22 108.155 260.976Z" fill="black"/>
<path fill-rule="evenodd" clip-rule="evenodd" d="M205.584 231.167C209.533 232.377 212.918 231.198 220.89 226.671C222.653 225.67 224.207 224.797 223.537 221.855C216.48 222.74 211.142 226.419 205.584 231.167Z" fill="black"/>
<path fill-rule="evenodd" clip-rule="evenodd" d="M156.308 259.617C150.995 262.148 146.413 264.334 140.861 266.981C143.035 267.976 144.749 269.512 145.971 269.186C149.773 268.179 153.876 267.245 156.056 263.394C156.511 262.621 156.222 261.441 156.308 259.617Z" fill="black"/>
<path fill-rule="evenodd" clip-rule="evenodd" d="M247.338 207.06C244.414 208.424 241.626 210.168 239.015 212.054C237.891 212.858 239.089 215.1 240.539 214.756C245.354 213.608 250.163 212.293 253.197 207.988C253.019 207.41 252.823 206.839 252.632 206.262C250.851 206.495 248.892 206.329 247.338 207.06Z" fill="black"/>
<path fill-rule="evenodd" clip-rule="evenodd" d="M264.191 198.427C270.486 199.139 275.382 196.203 276.573 191.37C272.403 190.774 267.397 193.513 264.191 198.427Z" fill="black"/>
<path fill-rule="evenodd" clip-rule="evenodd" d="M117.717 273.773C118.221 277.489 121.286 280.18 124.037 279.854C126.617 279.553 127.981 276.869 127.268 273.773C124.203 273.773 121.194 273.773 117.717 273.773Z" fill="black"/>
<path fill-rule="evenodd" clip-rule="evenodd" d="M282.501 182.184C288.373 181.883 289.78 180.581 291.377 173.941C285.695 174.433 284.86 178.671 282.501 182.184Z" fill="black"/>
<path fill-rule="evenodd" clip-rule="evenodd" d="M287.862 168.36C292.462 165.123 292.991 162.046 288.851 158.109C288.464 162.12 288.2 164.915 287.862 168.36Z" fill="black"/>
<path fill-rule="evenodd" clip-rule="evenodd" d="M212.113 158.112C201.241 163.627 197.028 175.193 201.978 187.034C202.697 188.76 205.32 189.983 207.322 190.769C208.821 191.364 210.743 190.885 212.475 190.885C219.907 191.057 226.596 189.319 231.558 183.282C235.968 177.932 236.122 168.363 231.89 162.78C227.505 156.975 218.691 154.777 212.113 158.112Z" fill="black"/>
</svg>
