<svg width="227" height="200" viewBox="0 0 227 200" fill="none" xmlns="http://www.w3.org/2000/svg">
<path fill-rule="evenodd" clip-rule="evenodd" d="M221.963 146.872C223.02 148.385 224.17 149.817 225.085 151.39C225.987 152.923 226.35 157.428 226.451 157.899C227.339 161.637 227.043 165.423 226.317 169.087C225.153 174.957 221.472 179.253 216.789 182.783C213.539 185.231 209.953 186.925 206.023 188.001C204.294 188.472 202.686 189.426 201.071 190.253C193.279 194.254 184.976 196.48 176.35 197.945C170.785 198.893 165.227 198.934 159.649 199.236C154.165 199.532 148.668 200.05 143.191 199.996C135.096 199.922 127.022 199.398 119.176 197.085C114.015 195.565 108.76 194.328 103.862 192.029C98.0953 189.332 92.2548 186.757 86.6095 183.826C81.3948 181.123 76.3617 178.043 71.2816 175.065C69.263 173.888 67.2242 172.879 64.8759 172.563C56.9832 171.501 49.8105 168.462 43.1356 164.28C37.3961 160.689 32.0603 156.527 27.1147 151.881C24.3022 149.232 21.5299 146.542 18.7981 143.819C16.3489 141.372 13.7516 139.025 11.6321 136.316C9.32415 133.357 7.4805 130.043 5.44845 126.882C3.57788 123.951 1.78807 120.992 0.859511 117.583C0.0857152 114.753 -0.365099 111.962 0.381782 109.038C0.960446 106.745 2.11102 104.896 4.16999 103.807C6.20204 102.737 8.36869 101.924 10.4815 101.016C11.3293 100.646 12.1906 100.324 12.7289 100.108C10.7304 92.3425 9.22322 84.8859 8.63783 77.2679C8.46288 74.9146 9.08864 72.7698 10.2392 70.6451C13.1056 65.3065 17.4658 61.7093 22.7949 59.0871C24.3492 58.3273 25.9103 57.5137 27.3233 56.5119C28.0298 56.0076 28.5748 55.0998 28.9045 54.2593C29.5505 52.6523 29.9878 50.958 30.5194 49.3039C31.7844 45.3907 33.6819 41.7667 36.5819 38.8755C38.8831 36.5827 41.5746 34.6732 44.1853 32.7099C45.6521 31.6072 47.3141 30.787 48.8348 29.765C51.8021 27.7949 55.2943 27.2973 58.5913 26.2484C62.0768 25.139 65.1249 22.8798 68.866 22.4562C69.337 22.4025 69.8215 21.8444 70.1646 21.4141C71.1268 20.2173 72.1698 19.0472 72.91 17.7159C76.6646 10.9922 82.7068 7.22689 89.6239 4.55758C95.2423 2.39254 101.069 1.11507 107.071 0.476314C113.746 -0.229677 120.374 -0.222824 126.995 0.987446C132.095 1.92204 136.462 4.17436 140.331 7.57656C141.313 8.4372 142.552 9.01542 143.709 9.6609C146.488 11.2074 149.334 12.6328 152.059 14.2666C156.13 16.7006 160.134 19.2557 162.758 23.411C162.966 23.7405 163.309 24.0026 163.444 24.3522C165.153 28.9445 169.332 30.9952 172.911 33.7116C175.589 35.7489 178.348 37.8064 180.595 40.2874C184.962 45.115 186.725 51.1597 187.654 57.48C187.741 58.0515 187.775 58.6297 187.829 59.2147C187.983 60.8284 188.676 61.8841 190.224 62.7649C196.098 66.0999 201.051 70.5912 204.933 76.1114C206.46 78.2899 207.772 80.7912 208.486 83.3395C209.522 87.0174 210.074 90.8634 210.551 94.6757C210.773 96.5449 210.397 98.5015 210.195 100.411C210.027 102.031 210.43 103.101 212.072 103.833C217.132 106.093 220.523 110.302 223.45 114.706C225.772 118.189 226.424 122.404 226.633 126.62C226.895 131.791 226.451 136.867 224.648 141.742C223.995 143.51 222.898 145.117 221.963 146.872ZM46.1635 137.781C47.0719 137.459 48.061 137.291 48.8483 136.793C52.2799 134.628 55.6913 132.436 59.0153 130.123C64.7481 126.143 69.8282 121.382 75.0968 116.824C81.3006 111.438 87.8812 106.496 94.2532 101.292C96.1036 99.7656 97.7588 97.9971 99.5285 96.37C101.157 94.8639 102.718 93.2435 104.494 91.9459C109.891 88.0192 115.28 84.0656 120.865 80.428C126.275 76.8981 131.86 73.6237 137.498 70.4635C143.743 66.9537 150.377 64.2509 157.133 61.8707C163.733 59.5376 170.475 57.9306 177.561 58.5626C179.068 58.7038 180.555 58.9929 182.358 59.2619C182.237 58.2332 182.21 57.4934 182.062 56.7807C180.656 49.5393 176.787 43.8578 171.229 39.0907C167.771 36.139 163.881 34.5252 159.474 33.9402C158.593 33.8192 157.597 33.4561 156.776 34.3504C158.781 36.1456 160.887 37.7259 162.61 39.6488C164.595 41.861 166.27 44.3621 167.999 46.7961C168.282 47.1995 168.147 47.8853 168.215 48.5375C167.771 48.4165 167.636 48.4233 167.596 48.3695C167.374 48.0602 167.172 47.7307 166.963 47.408C163.801 42.419 159.737 38.3444 154.502 35.554C153.257 34.8884 151.75 34.2764 150.404 34.3504C146.313 34.5924 142.814 36.5625 139.012 38.7544C140.022 39.373 140.647 39.7766 141.307 40.1397C148.554 44.0798 150.707 49.1898 149.65 56.6599C149.583 57.1103 149.273 57.5339 149.085 57.9643C148.681 56.0413 148.708 54.2055 148.668 52.3767C148.621 50.3663 147.84 48.5913 146.609 47.0515C144.247 44.1066 141.266 42.0625 137.633 40.9329C136.348 40.5295 135.163 40.5363 133.979 41.1145C130.595 42.7753 127.217 44.4428 123.859 46.1641C123.341 46.4263 122.944 46.944 122.534 47.3206C122.729 47.6164 122.763 47.744 122.837 47.7642C123.294 47.9054 123.752 48.0466 124.223 48.1407C127.87 48.84 131.261 50.131 134.417 52.1212C136.913 53.6946 138.077 56.0413 138.696 58.7442C138.817 59.2619 138.514 59.8804 138.38 60.5595C138.037 60.3175 137.936 60.2771 137.902 60.2099C137.801 59.9477 137.68 59.6787 137.646 59.4031C137.296 56.6262 135.56 54.8847 133.246 53.661C129.262 51.5565 124.956 50.4538 120.529 49.8151C119.714 49.694 118.658 49.6874 118.032 50.111C115.099 52.0877 112.32 54.2796 109.689 57.1977C110.974 57.6347 111.896 57.8901 112.77 58.2599C114.809 59.1273 116.956 59.8334 118.806 61.0034C121.679 62.8188 124.216 65.0846 125.79 68.2111C126.49 69.6097 126.766 71.0283 125.118 72.837C124.97 69.4818 123.698 67.2766 121.612 65.4074C118.174 62.3279 114.056 60.768 109.716 59.6316C108.383 59.2753 107.044 59.4972 106.035 60.7142C103.687 63.5382 101.285 66.3084 98.9498 69.1458C98.6941 69.4551 98.7412 70.0198 98.6605 70.3829C98.9229 70.6317 99.0508 70.7931 99.2055 70.8872C99.4545 71.0284 99.7237 71.1494 99.9995 71.2301C104.42 72.4202 107.684 75.1433 110.207 78.8817C110.94 79.971 111.25 80.9862 110.328 82.2436C109.951 81.8401 109.696 81.672 109.581 81.43C107.253 76.6898 103.108 74.4574 98.2703 73.1261C96.4804 72.6352 95.0944 72.9916 93.9236 74.5179C92.4567 76.4342 90.8553 78.2564 89.301 80.1055C88.1436 81.4906 86.9661 82.8553 85.8088 84.227C88.7492 85.4171 91.4608 86.4054 94.0783 87.6157C95.7739 88.3889 97.1196 89.6733 97.8329 91.4887C98.2702 92.6183 98.4385 93.6872 97.4157 94.5142C96.4872 93.1224 95.8816 91.4618 94.6973 90.5608C91.8915 88.4361 88.6079 87.2192 85.0485 86.9435C84.416 86.8964 83.5883 86.9635 83.1577 87.3333C80.5537 89.5051 78.4409 92.0803 76.9808 95.3346C78.1852 96.1145 79.3829 96.6389 80.2375 97.4996C81.7245 98.9855 83.0972 100.606 84.3016 102.314C84.9879 103.275 84.9475 104.425 83.4067 105.218C82.2628 101.366 79.5444 99.3755 76.2272 97.9972C75.1102 97.5399 74.3028 97.6073 73.4348 98.6226C71.6719 100.68 69.7138 102.556 67.9173 104.573C67.3252 105.232 66.9417 106.086 66.3563 107.034C67.3588 107.464 68.0451 107.612 68.5565 107.995C70.1579 109.199 71.7997 110.382 73.2262 111.781C74.148 112.689 74.2893 113.912 72.8359 115.358C71.8132 111.519 68.9064 110.537 65.9054 109.549C64.4991 109.085 63.51 109.374 62.4738 110.268C60.5023 111.983 58.4837 113.63 56.5189 115.351C56.1287 115.687 55.8999 116.192 55.5029 116.763C56.9765 117.355 58.4231 117.597 59.3921 118.41C60.4417 119.285 61.2896 120.589 61.7942 121.887C62.2383 123.016 62.4603 124.455 61.0944 125.719C60.3139 123.843 60.6705 121.712 58.6519 120.549C56.7948 119.479 54.8906 119.036 52.8384 119.15C50.7929 119.264 49.3193 120.428 47.7784 122.156C48.707 122.808 49.4808 123.312 50.2209 123.877C52.179 125.356 53.9621 126.97 54.3321 129.599C54.5004 130.822 54.4061 131.898 52.65 132.571C52.3472 129.794 51.2908 127.568 48.7945 126.19C46.1703 124.737 43.5797 124.677 41.366 126.412C41.6688 126.775 41.911 127.205 42.2744 127.481C45.0466 129.619 46.0828 132.483 45.9348 135.899C45.9011 136.537 46.1097 137.183 46.177 137.802C44.7371 137.687 44.4141 136.887 44.2728 135.495C43.8421 131.159 39.6637 127.582 35.5256 127.931C35.6467 131.535 36.8376 134.863 38.143 138.151C38.3314 138.642 39.4147 139.14 40.0068 139.066C42.086 138.763 44.118 138.225 46.1635 137.781ZM141.118 74.3835C151.077 83.3933 154.973 89.9892 153.539 95.1598C153.432 95.0119 153.284 94.8773 153.237 94.7159C153.048 94.0705 152.887 93.4116 152.719 92.7594C151.009 86.3719 147.006 81.645 141.811 77.8192C139.678 76.2526 137.418 76.0241 135.063 77.5773C133.131 78.8548 131.086 79.971 129.114 81.2014C128.166 81.7931 127.277 82.4721 126.006 83.3596C127.594 84.348 128.818 85.0741 130.003 85.8474C133.522 88.167 136.503 91.0382 138.595 94.7295C139.9 97.029 140.055 98.394 139.483 100.566C139.403 100.532 139.281 100.519 139.248 100.458C139.073 100.122 138.871 99.779 138.757 99.4226C136.57 92.4569 131.146 88.7454 124.976 85.8071C123.557 85.128 122.218 85.2625 120.885 86.1568C118.227 87.9386 115.516 89.6127 112.865 91.3676C112.037 91.9122 111.31 92.6115 110.005 93.6537C114.984 94.5681 118.301 96.8205 121.02 100.196C123.967 103.86 125.313 108.701 123.88 111.303C123.429 109.575 123.213 107.619 122.426 105.931C119.795 100.33 115.563 96.6457 109.224 95.8859C108.437 95.7851 107.394 95.9801 106.789 96.4441C104.299 98.3671 101.931 100.445 99.3805 102.576C101.52 103.921 103.445 105.003 105.241 106.281C108.498 108.6 110.725 111.707 111.802 115.573C111.936 116.037 111.62 116.629 111.405 117.664C110.853 116.81 110.57 116.514 110.449 116.165C109.157 112.265 106.385 109.663 103.007 107.579C98.3981 104.734 96.8236 104.741 92.5307 107.908C90.5458 109.374 88.507 110.826 86.7844 112.836C88.8367 114.006 90.8485 114.813 92.4163 116.138C94.0783 117.543 95.5115 119.325 96.7226 121.147C99.0104 124.623 98.9498 124.811 98.1087 127.091C97.5772 126.116 97.2004 125.39 96.7967 124.684C94.3071 120.367 91.1513 116.857 86.0308 115.64C84.5169 115.284 83.0702 115.324 81.8994 116.292C79.531 118.249 77.2903 120.347 74.6931 122.653C76.0993 123.272 77.1423 123.695 78.165 124.179C81.637 125.807 84.2477 128.267 85.5665 131.932C85.9568 133.008 86.3269 134.171 84.5371 134.635C83.3124 130.258 80.1836 127.804 76.355 126.096C74.1346 125.114 71.8603 124.973 69.7273 126.459C68.0653 127.622 66.3899 128.765 64.7548 129.962C64.2838 130.311 63.9407 130.836 63.4898 131.327C63.9137 131.555 64.0819 131.703 64.2569 131.73C69.5322 132.517 72.19 136.094 73.8856 140.72C74.2086 141.601 74.3297 142.32 73.2262 142.784C72.2909 141.17 71.5709 139.577 70.5482 138.218C68.2268 135.126 64.9365 134.218 61.1684 133.862C58.3962 133.606 57.0034 134.958 55.3145 136.578C57.0909 137.909 58.6586 139.019 60.1457 140.236C61.626 141.439 62.6756 143.033 62.6891 144.942C62.7026 146.684 63.4629 148.728 61.1617 150.563C61.007 149.158 60.7849 148.25 60.8253 147.356C60.9262 144.862 59.7689 143.053 57.7772 141.782C56.5728 141.015 55.0319 140.733 53.9149 139.879C51.358 137.909 49.104 139.368 46.5471 140.02C47.9668 141.802 49.4 143.255 50.4093 144.962C51.5196 146.845 50.9813 149.064 49.3933 150.637C48.3302 148.956 49.5009 146.395 47.2805 145.238C46.7758 145.487 44.1181 143.718 43.4586 142.569C42.1802 140.336 42.1061 140.303 39.2263 141.688C40.2154 144.162 41.4131 146.603 42.1869 149.165C43.2097 152.574 45.7195 153.475 48.8012 153.73C58.0464 154.51 66.6859 152.338 74.8074 148.123C81.8389 144.478 88.8501 140.747 95.2087 135.953C97.2138 134.44 99.3401 133.102 101.365 131.616C106.304 127.992 111.902 125.511 117.171 122.465C126.51 117.052 136.516 113.199 146.521 109.327C149.401 108.21 152.261 106.94 155.249 106.207C164.359 103.975 173.497 101.843 182.681 99.927C187.782 98.8646 192.963 98.0711 198.231 99.0999C200.371 99.5235 202.551 99.7521 204.926 100.095C204.926 98.5553 204.987 97.2306 204.913 95.9061C204.361 85.5784 199.725 77.4294 191.455 71.3713C187.97 68.8163 183.791 68.1507 179.458 67.6665C185.117 73.4086 187.29 79.8902 184.572 87.5619C184.316 86.9837 184.236 86.345 184.33 85.7398C185.393 78.6799 182.452 73.3816 177.13 69.0717C174.937 67.2899 172.454 66.3754 169.681 66.2544C165.281 66.0729 161.129 67.4177 156.924 68.4329C156.796 68.4598 156.736 68.722 156.433 69.2129C160.066 72.1848 164.379 74.5987 166.768 78.9623C169.217 83.4269 169.904 88.0125 168.094 92.8132C167.824 92.4568 167.791 92.0871 167.824 91.7173C168.558 84.0253 165.395 78.2294 159.178 73.9128C157.59 72.8168 156.056 71.6267 154.421 70.6115C153.721 70.1811 152.671 69.6634 152.025 69.8853C148.372 71.1359 144.691 72.3059 141.118 74.3835ZM130.467 121.322C132.627 122.848 134.74 124.159 136.637 125.726C138.709 127.44 139.329 129.915 139.463 132.497C139.517 133.525 139.416 134.608 137.969 134.776C137.135 129.041 135.365 126.291 131.631 124.852C127.594 123.305 123.819 123.494 120.273 126.472C121.935 127.743 123.469 128.893 124.97 130.069C127.069 131.71 127.607 134.043 127.681 136.517C127.715 137.492 127.526 138.46 126.174 138.568C126.12 138.218 126.039 137.936 126.033 137.654C125.838 132.524 121.37 128.281 116.337 128.805C113.437 129.101 111.095 130.863 108.505 132.651C109.79 133.525 110.745 134.151 111.68 134.81C114.957 137.156 115.866 140.464 115.435 144.263C115.388 144.693 114.877 145.057 114.466 145.601C113.935 143.288 113.766 141.157 112.932 139.321C111.977 137.23 109.911 136 107.684 135.522C104.938 134.937 102.368 135.408 100.376 137.835C101.877 138.73 103.471 139.362 104.636 140.457C105.86 141.607 106.917 143.093 107.583 144.633C108.161 145.991 108.599 147.719 107.024 149.064C106.809 148.761 106.614 148.62 106.6 148.452C106.17 143.658 103.196 140.874 98.3981 140.491C94.6771 140.195 92.5307 142.878 89.2875 144.599C90.4314 145.5 91.2119 146.146 92.026 146.758C93.614 147.948 94.7983 149.42 95.4241 151.343C95.8143 152.56 95.5183 153.367 94.3004 153.858C94.0581 153.582 93.7217 153.394 93.6948 153.165C93.3112 150.046 90.9158 148.613 88.5406 147.39C87.4573 146.825 85.8155 146.704 84.638 147.067C82.4915 147.739 80.4932 148.903 78.3333 149.911C83.1308 154.429 83.5547 155.909 80.4595 157.408C80.3316 156.722 80.2375 156.09 80.1096 155.458C79.7261 153.535 76.3012 151 74.4239 151.458C72.3986 151.955 70.4405 152.728 68.5229 153.36C68.5632 153.804 68.5027 154.046 68.6036 154.174C69.3505 155.169 70.1445 156.137 70.8913 157.146C72.2775 159.022 72.2707 159.99 70.9182 161.557C69.0948 159.163 67.2713 156.756 65.5286 154.456C63.4764 154.927 61.7538 155.324 59.8362 155.761C60.6503 157.368 61.5722 158.679 61.9692 160.124C62.3191 161.409 63.0928 163.069 61.1079 164.3C60.7983 163.264 60.5763 162.444 60.3139 161.631C59.5334 159.21 57.8848 156.978 55.6846 156.433C52.8518 155.727 49.7095 156.265 46.7018 156.265C46.6211 156.46 46.5471 156.662 46.4731 156.857C48.0274 158.248 49.6625 159.566 51.1293 161.046C53.7737 163.701 57.5013 164.091 60.6032 165.786C60.8253 165.913 61.1752 165.846 61.4645 165.806C64.23 165.389 67.0358 165.147 69.7542 164.515C76.2339 163.002 82.5387 160.837 89.1125 159.64C96.393 158.316 103.162 155.283 109.944 152.5C120.448 148.183 131.402 145.386 142.242 142.212C147.147 140.774 152.214 139.873 157.233 138.837C165.012 137.23 172.824 135.905 180.838 136.773C183.623 137.075 186.436 137.196 189.215 137.553C195.634 138.387 202.08 138.992 208.264 141.177C210.215 141.869 212.435 142.172 214.508 142.071C217.529 141.91 219.696 140.269 220.638 137.183C222.165 132.207 222.078 127.272 220.611 122.33C219.548 118.753 218.007 115.459 215.187 112.884C213.337 111.189 211.312 109.844 208.23 109.353C209.259 110.618 209.973 111.485 210.686 112.352C213.135 115.338 214.669 118.76 215.268 122.552C215.746 125.598 214.077 129.128 211.44 130.567C211.816 129.693 211.998 129.094 212.308 128.57C213.552 126.452 213.788 124.253 213.108 121.88C211.46 116.044 208.042 111.451 203.163 108.009C201.4 106.765 199.16 106.456 196.495 107.014C198.467 110.127 199.981 113.085 200.371 116.528C200.923 121.288 200.452 124.428 198.534 126.237C198.507 125.907 198.399 125.605 198.48 125.363C199.907 120.972 199.005 116.729 197.417 112.628C195.876 108.648 192.323 106.193 188.582 106.321C185.299 106.442 182.015 106.718 178.738 106.953C178.415 106.98 178.119 107.263 177.554 107.552C179.391 109.555 181.154 111.324 182.735 113.247C186.281 117.563 186.335 122.424 182.957 126.808C182.627 127.232 182.055 127.481 181.598 127.797C181.551 126.963 181.739 126.412 182.076 125.968C184.538 122.707 184.518 119.291 182.385 115.99C181.302 114.316 179.781 112.897 178.348 111.478C174.237 107.397 169.897 106.846 164.46 109.656C164.635 109.878 164.77 110.14 164.978 110.302C169.937 114.06 172.602 119.184 173.846 125.134C174.149 126.587 174.257 128.086 172.655 129.558C172.487 128.61 172.312 128.086 172.299 127.561C172.198 121.396 169.13 116.736 164.662 112.884C162.892 111.357 160.746 110.261 158.256 110.819C156.608 111.196 155.026 111.821 153.048 112.453C156.002 114.813 158.707 116.918 159.925 120.199C161.102 123.352 161.816 126.566 159.622 130.284C159.38 129.384 159.158 129.027 159.218 128.745C160.578 123.003 157.839 119.009 153.566 115.795C151.978 114.591 150.047 113.475 147.934 114.087C145.862 114.692 143.911 115.721 141.589 116.703C142.686 117.597 143.413 118.202 144.16 118.794C147.659 121.557 148.762 125.349 148.722 129.585C148.708 130.453 148.776 131.515 147.329 131.851C147.248 131.145 147.1 130.58 147.14 130.029C147.349 127.387 146.542 125.013 145.014 122.962C143.366 120.75 141.226 118.747 138.319 118.921C135.648 119.143 132.822 119.614 130.467 121.322ZM150.047 160.097C149.946 159.291 149.845 158.484 149.751 157.677C149.307 153.912 147.551 150.873 144.489 148.687C142.04 146.946 139.45 148.21 136.933 148.694C136.577 148.768 136.254 148.977 135.729 149.198C136.079 149.804 136.247 150.375 136.624 150.718C138.783 152.728 139.423 155.532 140.56 158.067C140.984 159.022 141.098 159.997 139.436 160.131C139.207 159.512 138.985 158.887 138.736 158.282C137.727 155.741 136.523 153.286 134.275 151.632C133.394 150.98 132.136 150.268 131.18 150.415C127.674 150.98 124.33 152.184 120.912 153.777C122.446 155.956 124.586 157.731 123.059 160.481C129.929 161.994 136.597 163.533 143.298 164.905C150.054 166.283 156.776 167.951 162.838 171.171C170.724 175.354 177.776 180.813 183.603 187.678C185.554 189.978 187.573 190.563 190.244 189.393C195.378 187.147 200.438 184.747 205 181.425C208.613 178.796 212.173 176.181 214.252 172.025C216.654 167.211 218.484 162.33 218.215 156.783C218.02 152.661 215.208 150.711 212.207 148.936C210.975 148.203 209.347 148.136 207.611 147.692C211.54 157.912 211.446 163.009 207.126 166.028C207.47 164.925 207.725 164.138 207.967 163.345C209.091 159.681 208.667 156.124 207.362 152.567C206.386 149.904 204.294 148.728 201.885 147.813C201.629 147.706 201.421 147.47 201.178 147.309C199.086 145.904 194.006 144.969 191.132 145.541C191.832 146.321 192.391 147.08 193.07 147.692C196.112 150.449 197.417 154.019 197.908 157.953C198.224 160.521 197.713 162.962 196.468 165.234C196.085 165.934 195.627 166.633 194.167 166.754C196.132 163.533 196.428 160.481 195.856 157.233C195.25 153.824 193.528 151.054 191.126 148.775C186.463 144.344 180.838 143.194 174.23 144.431C177.043 147.087 179.142 149.81 180.091 153.246C181.013 156.568 182.15 159.882 180.784 163.365C180.34 162.888 180.158 162.377 180.023 161.852C179.155 158.706 178.496 155.485 177.379 152.426C176.208 149.232 173.86 146.852 170.724 145.5C167.528 144.122 164.164 144.512 160.84 145.077C160.719 145.097 160.652 145.373 160.443 145.702C161.022 146.684 161.755 147.719 162.267 148.842C163.538 151.646 164.749 154.483 165.887 157.347C166.176 158.067 166.559 159.049 165.045 159.694C164.709 158.914 164.406 158.154 164.07 157.422C162.906 154.887 161.883 152.264 160.51 149.844C159.414 147.901 157.752 145.991 155.484 145.789C152.685 145.554 149.778 145.897 146.892 146.731C148.224 148.977 149.617 150.947 150.612 153.098C151.951 155.976 151.81 158.363 150.047 160.097ZM106.129 17.8638C105.598 18.1261 105.423 18.2942 105.275 18.2808C104.804 18.2068 104.326 18.0991 103.868 17.9445C98.7345 16.277 93.4592 15.8267 88.11 16.1427C86.7844 16.2234 85.2839 16.331 84.1939 16.9832C80.5806 19.1079 78.0035 22.3285 75.2784 25.9593C78.0843 26.3627 80.4797 26.4838 82.7472 27.0956C84.9341 27.6873 87.5515 27.4116 89.3817 29.6439C88.1436 30.4037 87.242 29.9465 86.2192 29.6776C82.6598 28.7161 79.0465 28.0503 75.339 28.7562C74.6056 28.9042 73.6703 29.0723 73.2464 29.5766C71.2816 31.9366 69.5994 34.4849 68.4758 37.5711C72.4255 38.4721 76.3281 38.9494 79.9279 40.5496C79.3358 42.002 78.4342 41.5919 77.5931 41.4574C75.117 41.054 72.6408 40.59 70.1512 40.3211C68.395 40.1261 66.511 40.2203 65.3806 41.8138C63.6648 44.2209 62.1576 46.7826 60.3745 49.5662C61.5587 49.9024 62.3729 50.0974 63.1668 50.3597C64.9903 50.9782 66.8609 51.516 68.6238 52.2893C69.6869 52.7599 70.5078 53.6408 69.4245 55.0528C68.4286 54.6292 67.5741 54.1855 66.6725 53.9031C64.7414 53.2912 62.8035 52.639 60.8185 52.2692C60.0178 52.128 58.6721 52.4037 58.2684 52.9752C56.4046 55.6445 54.8098 58.4887 53.8207 61.7564C57.0101 63.3768 60.5561 63.8408 63.4831 65.7839C62.3325 67.2699 62.3325 67.2832 61.1684 66.8999C58.9682 66.1738 56.7611 65.4545 54.5743 64.688C53.2757 64.2308 52.1386 64.4795 51.6339 65.7234C50.6852 68.0969 49.9518 70.5509 49.1376 72.9244C51.1898 73.7917 52.9258 74.4037 54.5474 75.2508C55.9605 75.9972 55.9066 76.2393 54.6551 77.9875C53.8611 77.4967 53.0806 76.9453 52.2395 76.5015C49.5951 75.1097 48.0139 75.614 46.5807 78.2429C46.2106 78.922 45.8002 79.5741 45.4301 80.2532C44.5487 81.9005 43.6739 83.5546 42.779 85.249C44.4208 85.9953 45.7666 86.5265 47.0114 87.2527C47.3007 87.4208 47.3612 88.268 47.2468 88.7387C47.193 88.9471 46.4058 89.1757 46.029 89.0748C45.2013 88.8664 44.4343 88.3822 43.6066 88.1402C41.5611 87.5552 41.5006 87.6696 40.35 89.4043C38.9168 91.5761 37.3625 93.6738 35.8889 95.8186C35.539 96.3229 35.3237 96.9214 34.9065 97.7686C36.8847 98.2258 38.5467 98.6494 40.2289 98.9923C41.7226 99.2949 42.1062 100.088 41.615 101.399C41.292 101.494 41.0969 101.615 40.9354 101.574C39.5291 101.238 38.1295 100.855 36.7232 100.525C33.0023 99.658 31.67 100.384 30.0148 104.284C32.3025 106.2 34.6374 108.157 37.2413 110.342C38.6611 108.6 39.9934 107.101 41.1776 105.487C43.2837 102.596 45.3494 99.6714 47.3478 96.6995C51.7685 90.1372 56.2834 83.6354 60.4956 76.9385C66.0467 68.1103 70.9385 58.8583 77.7882 50.8975C78.737 49.8015 79.6453 48.6719 80.5133 47.5087C86.8383 38.9965 94.2667 31.5669 102.57 25.0045C104.824 23.2227 107.441 21.8848 108.915 19.2154C109.352 18.422 110.281 17.8505 111.082 17.326C117.42 13.1842 123.927 9.41222 131.617 8.37004C131.866 8.3297 132.088 8.10768 132.519 7.85891C131.981 7.43531 131.584 7.05881 131.133 6.78986C127.789 4.79291 124.054 4.29547 120.273 4.05342C108.74 3.30709 98.7076 7.66406 89.0251 13.2111C88.8703 13.3053 88.8569 13.6414 88.803 13.7826C91.8579 14.112 94.8588 14.1928 97.7521 14.8046C100.565 15.4165 103.492 16.0148 106.129 17.8638ZM92.8806 165.053C94.6839 167.756 94.704 170.775 95.2221 173.673C95.35 174.365 96.1104 175.118 96.7698 175.502C100.942 177.929 105.174 180.248 109.366 182.649C110.321 183.2 111.001 184.041 111.748 184.895C113.955 187.416 116.613 189.884 120.105 190.233C122.446 190.462 124.573 191.235 126.82 191.645C128.717 191.988 130.581 192.587 132.479 192.916C141.051 194.395 149.644 193.81 158.229 193.064C159.279 192.977 160.335 192.735 161.358 192.466C162.307 192.224 163.188 191.887 163.35 190.664C163.424 190.112 163.72 189.547 164.043 189.083C165.967 186.293 165.765 183.22 165.247 180.134C164.938 178.332 163.989 176.94 162.226 176.154C161.358 175.764 160.537 175.199 159.811 174.587C157.994 173.047 155.847 172.402 153.156 171.77C154.058 175.038 154.757 177.996 153.997 181.116C153.102 184.753 151.373 187.893 149.072 188.606C149.684 187.322 150.141 186.313 150.639 185.332C152.443 181.795 152.799 178.11 151.46 174.379C151.057 173.263 150.289 172.046 149.341 171.407C147.194 169.975 144.745 169.181 141.899 169.215C142.235 171.131 142.619 172.805 142.794 174.506C142.975 176.335 142.915 178.158 141.852 179.832C140.109 182.582 140.149 182.608 138.117 182.857C138.326 182.266 138.36 181.62 138.703 181.271C141.354 178.521 141.078 175.448 140.143 172.079C139.423 169.45 138.191 167.749 135.386 167.393C134.726 167.312 134.114 166.929 133.461 166.788C132.196 166.532 130.951 165.86 129.633 166.303C130.016 168.589 130.749 170.755 130.628 172.873C130.521 174.91 130.433 177.337 127.405 178.904C127.89 177.277 128.193 176.234 128.509 175.199C129.834 170.802 127.304 166.398 122.877 165.49C120.993 165.1 119.082 164.838 117.164 164.589C116.666 164.522 116.135 164.723 115.798 164.77C116.296 167.137 117.111 169.262 117.124 171.393C117.144 174.587 116.148 176.268 114.251 177.425C114.614 176.235 114.89 175.34 115.152 174.446C116.417 170.096 113.921 165.94 111.277 165.134C109.473 164.582 107.556 164.387 105.685 164.098C104.716 163.957 103.734 163.944 102.18 163.829C103.068 165.087 103.552 165.766 104.03 166.458C105.295 168.28 105.827 170.311 105.53 172.503C105.389 173.531 105.113 174.634 103.505 174.466C103.458 173.76 103.357 173.095 103.377 172.436C103.512 169.275 101.937 167.285 99.3469 165.611C97.2071 164.212 95.1347 165.671 92.8806 165.053ZM118.598 39.3866C118.328 39.1513 118.012 38.9494 117.797 38.6738C115.267 35.4464 111.788 33.9133 107.879 33.1872C104.683 32.5955 101.756 32.8308 99.5218 35.6548C98.8153 36.549 97.7723 37.1812 96.9716 38.0217C96.5746 38.4453 96.3862 39.0503 96.1036 39.568C97.9406 40.0387 99.5352 40.449 101.116 40.8658C103.66 41.5449 105.557 43.1653 107.172 45.142C107.798 45.9018 108.39 46.7692 107.576 48.1879C105.342 44.389 101.984 42.8156 98.1828 42.1499C96.5073 41.8541 94.5156 41.5784 93.0623 42.2037C89.6441 43.6896 87.565 46.6751 85.6675 49.9831C92.9546 51.0656 97.1129 53.5938 97.0793 56.7136C96.9783 56.7136 96.864 56.7539 96.7899 56.7068C96.541 56.5724 96.2651 56.458 96.07 56.263C93.3718 53.6206 89.9671 52.6256 86.3471 52.2491C85.4252 52.1482 84.2478 52.1684 83.5547 52.6592C80.7489 54.6226 79.0801 57.4734 77.5124 60.7748C83.4941 61.7295 87.6053 65.1519 91.3061 69.2668C92.4567 68.3053 93.4525 67.6799 94.1927 66.8193C96.689 63.8878 99.1113 60.8957 101.534 57.897C109.978 47.3945 120.562 39.5815 132.398 33.3486C132.956 33.0595 133.427 32.6089 134.053 32.145C132.162 29.4891 129.828 27.6468 127.271 26.06C122.11 22.8461 117.03 22.5773 112.01 26.4569C110.644 27.5125 109.103 28.3528 107.663 29.3345C107.26 29.6101 106.957 30.0204 106.674 30.3028C109.352 31.271 112.037 31.8626 114.332 33.167C116.579 34.4177 118.894 36.0315 118.598 39.3866ZM44.8986 120.273C46.2981 119.298 47.7919 118.424 49.104 117.328C58.7798 109.246 67.5068 100.263 75.1371 90.2044C79.6857 84.2001 84.4092 78.3371 89.0587 72.4202C89.671 71.6403 90.3775 70.8536 89.5297 69.8652C86.3269 66.1402 82.4714 63.5919 77.4316 63.1884C76.1599 63.0809 75.2111 63.5247 74.4844 64.6139C73.3002 66.3755 72.0352 68.0835 70.8106 69.8182C70.1781 70.7124 69.5658 71.6201 68.8727 72.6287C76.8731 74.4239 79.0532 76.0241 78.7975 79.7423C78.6159 79.7221 78.3938 79.7558 78.2525 79.6616C78.0103 79.5204 77.768 79.3321 77.5998 79.1035C75.0833 75.5736 71.3691 75.2711 67.5203 75.4324C67.0224 75.4526 66.3697 75.8561 66.0804 76.2797C64.1358 79.1036 62.2652 81.9813 60.1659 85.1415C61.451 85.3432 62.2047 85.4641 62.9448 85.5851C65.643 86.0423 68.1865 86.9098 70.3733 88.6176C71.4431 89.4514 71.7863 90.3726 70.5886 91.4955C70.1108 91.1727 69.6734 90.9507 69.3236 90.6347C66.9618 88.4965 64.0752 87.9183 61.0271 87.7099C59.4324 87.6023 58.154 88.1941 57.2658 89.4581C55.9335 91.334 54.6887 93.2772 53.3363 95.3077C54.6685 96.1011 55.8393 96.7533 56.963 97.4727C58.1002 98.2056 59.2104 98.9856 60.2803 99.8059C61.2156 100.512 62.1373 101.285 61.2088 102.784C60.6638 102.576 60.0986 102.455 59.6478 102.159C58.1944 101.218 56.8352 100.135 55.3482 99.2546C52.4347 97.5266 50.9476 97.8761 49.003 100.687C47.7448 102.502 46.6076 104.385 45.2485 106.509C47.6035 107.578 49.8777 108.621 52.1453 109.656C51.5397 111.297 50.7121 111.263 49.6826 110.839C48.2629 110.241 46.8499 109.569 45.3628 109.219C44.5218 109.024 43.3039 109.098 42.6714 109.589C41.2449 110.678 40.0674 112.104 38.7553 113.428C40.72 115.62 42.6377 117.758 44.8986 120.273ZM33.8905 89.2765C33.6617 91.2533 32.39 90.628 31.2865 90.5204C28.1307 90.2178 27.9423 90.5138 27.2695 93.5529C26.7312 95.9802 25.8363 98.3401 25.0961 100.72C24.8202 101.615 23.2054 102.522 24.6117 103.376C25.8026 104.096 26.3544 102.542 26.9734 101.803C32.6053 95.1195 36.9049 87.5754 40.969 79.8902C41.9581 78.0278 43.1155 76.246 42.9944 73.9464C42.9473 73.1463 43.425 72.279 43.7883 71.4923C48.5589 61.037 53.269 50.5547 58.2011 40.1665C59.7218 36.9661 61.8413 34.0479 63.685 31.0021C64.2098 30.1414 64.7548 29.2942 65.2931 28.4403C65.1249 28.2991 64.95 28.1647 64.7817 28.0167C56.196 31.8762 47.6371 35.7826 42.9136 44.9135C49.8509 46.8768 49.8509 46.8767 50.7727 48.9611C49.2655 48.5509 47.987 48.2214 46.7153 47.8516C42.2542 46.5741 40.6326 47.1524 38.4794 51.1328C37.3557 53.2172 35.9965 55.241 35.7005 57.9708C36.6155 57.9708 37.4095 57.8162 38.1026 58.0045C40.0405 58.5357 41.9581 59.1609 43.8287 59.8803C44.1382 60.0014 44.1786 60.8082 44.3333 61.299C43.8422 61.4268 43.3308 61.6891 42.853 61.6286C42.4157 61.5815 42.0119 61.1915 41.588 60.9562C39.9059 60.0148 38.0824 59.9141 36.2455 60.1965C35.5457 60.3041 34.5432 60.6806 34.3278 61.1983C33.4195 63.3902 32.4775 65.6493 33.2109 68.0833C38.6611 69.5289 38.6611 69.5289 39.1254 71.9091C38.0824 71.62 37.2144 71.3443 36.333 71.1628C35.4044 70.9678 34.4557 70.7325 33.5204 70.7526C33.0494 70.7594 32.2823 71.1964 32.1747 71.5931C31.5624 73.7918 31.1115 76.0309 30.5396 78.5052C31.6565 78.5724 32.4169 78.5455 33.1503 78.6732C33.9914 78.8144 34.8661 78.9692 35.6063 79.3524C36.3733 79.7491 36.6626 80.4684 35.7947 81.3559C35.4178 81.3088 34.9536 81.282 34.5028 81.1946C33.9309 81.087 33.3791 80.8719 32.8072 80.7912C31.0914 80.5626 30.2705 80.9929 29.7322 82.6133C29.1535 84.3279 28.7363 86.0963 28.2047 87.9588C30.257 88.5101 32.3832 87.7099 33.8905 89.2765ZM135.123 31.614C138.999 30.0272 142.7 28.3731 146.495 26.9813C150.33 25.5895 154.394 25.9861 158.99 26.2954C156.944 23.0277 154.818 20.7753 152.019 19.1481C147.901 16.7679 143.325 16.6873 138.77 16.6873C133.004 16.694 127.695 18.4959 122.137 21.2862C127.56 23.8547 132.149 26.7729 135.123 31.614ZM8.90025 105.514C13.9064 107.256 17.2639 110.382 18.8519 115.102C20.4735 119.937 21.8933 124.845 23.2727 129.76C24.4233 133.855 25.7825 137.856 27.5857 141.722C29.712 146.314 33.5137 149.494 36.7367 153.159C36.9184 153.367 37.3288 153.374 38.116 153.629C37.4095 152.224 36.9857 151.263 36.4676 150.375C33.3656 144.983 31.0913 139.254 29.3217 133.31C27.579 127.461 25.446 121.772 22.3373 116.494C21.7587 115.506 20.958 114.571 20.6889 113.509C19.5584 109.011 16.2412 106.671 12.3924 104.869C11.3495 104.378 10.1518 104.203 8.90025 105.514ZM24.2214 85.3633C25.2509 81.3492 25.6008 76.7435 25.6748 72.0839C20.0563 71.8486 15.8644 75.2106 16.8535 78.8817C21.9471 75.9502 22.8151 75.8291 23.6629 78.3236C20.736 78.0681 18.677 79.4868 16.9881 81.6048C15.7298 83.1647 15.5011 87.2528 16.5575 88.8867C18.9596 87.7907 21.3685 86.6812 24.2214 85.3633ZM164.796 191.094C170.516 191.094 175.515 191.094 180.609 191.094C179.337 187.631 171.33 180.484 167.797 179.657C168.147 183.691 167.528 187.503 164.796 191.094ZM20.4399 100.747C22.4854 97.3517 22.9026 93.5124 23.4408 89.7068C23.5956 88.5705 22.768 88.0259 21.8193 88.2276C19.6324 88.6848 18.1387 90.2245 16.8535 91.9391C16.6651 92.2013 16.7055 92.6989 16.7593 93.0687C17.0688 94.958 17.4995 96.8406 17.7282 98.7434C17.9301 100.397 18.9192 100.747 20.4399 100.747ZM122.406 160.864C121.955 159.795 121.693 159.082 121.37 158.416C120.253 156.097 119.028 155.552 116.518 156.218C116.242 156.292 115.92 156.547 115.711 156.467C112.697 155.33 110.355 157.341 107.764 158.141C106.937 158.396 106.136 158.753 105.322 159.055C105.376 159.196 105.43 159.345 105.483 159.486C111.014 159.929 116.539 160.38 122.406 160.864ZM34.9805 124.912C37.7998 125.188 39.7781 123.742 41.8034 122.539C42.1196 122.35 42.2676 121.1 42.0052 120.824C40.5384 119.345 38.9841 117.926 37.3288 116.662C36.3733 115.936 35.3775 116.42 34.4489 117.113C33.4935 117.819 33.4598 118.673 33.7021 119.661C34.0991 121.335 34.5162 123.003 34.9805 124.912ZM84.2814 166.767C84.6918 167.971 84.934 168.899 85.3108 169.773C85.5665 170.358 85.903 171.158 86.4076 171.353C88.3118 172.119 90.3035 172.677 92.4365 173.37C93.1094 170.741 92.4163 168.744 90.6803 167.393C88.8905 165.988 86.7037 165.651 84.2814 166.767ZM27.1887 62.6775C24.4434 63.6054 20.7696 67.922 20.1035 70.9006C22.1759 70.4971 24.1878 70.1073 26.2804 69.6971C26.5966 67.2699 26.8859 65.0308 27.1887 62.6775ZM11.0332 125.793C11.7801 124.556 12.2309 123.843 12.6548 123.117C13.5228 121.624 14.2899 120.071 15.2723 118.653C16.8535 116.367 16.8939 116.225 14.7407 113.825C12.3655 116.01 10.4882 121.51 11.0332 125.793ZM17.6139 120.132C14.3774 123.541 13.22 128.039 14.6263 131.219C17.634 127.851 18.8788 123.42 17.6139 120.132ZM20.5678 137.17C21.0388 135.966 21.9202 134.857 21.6779 134.117C21.0589 132.228 21.2406 129.962 19.5652 128.361C16.8064 132.658 16.9545 134.595 20.5678 137.17ZM89.6239 176.167C94.307 179.462 99.3199 182.138 104.636 184.236C100.228 180.423 94.8992 178.346 89.6239 176.167ZM8.08607 119.641C8.65801 118.854 9.00788 118.464 9.24338 118.02C10.2258 116.185 11.1207 114.289 12.1771 112.494C12.6077 111.761 13.0182 111.156 12.1973 110.537C11.188 109.777 10.5218 110.497 10.1854 111.303C9.27029 113.495 8.45616 115.728 7.68909 117.967C7.56798 118.31 7.86403 118.78 8.08607 119.641ZM75.1641 169.282C78.0036 170.156 80.1634 171.85 82.8616 170.56C82.2359 167.204 79.6117 167.11 75.1641 169.282ZM28.9113 106.671C28.7969 106.792 28.6825 106.926 28.5681 107.061C30.008 109.293 31.4479 111.525 33.0696 114.04C33.877 113.26 34.6306 112.52 35.6467 111.539C33.1772 109.75 31.0443 108.217 28.9113 106.671ZM5.40805 108.621C4.42566 110.49 4.76884 112.016 5.67048 114.148C6.7807 112.144 7.60836 110.651 8.6042 108.869C7.24501 108.769 6.41062 108.701 5.40805 108.621ZM23.064 138.837C22.842 138.951 22.62 139.059 22.3912 139.173C22.7209 139.745 23.0506 140.323 23.3803 140.895C23.5553 140.794 23.7369 140.7 23.9119 140.599C23.636 140.014 23.3534 139.429 23.064 138.837Z" fill="black"/>
</svg>
