<svg width="227" height="200" viewBox="0 0 227 200" fill="none" xmlns="http://www.w3.org/2000/svg">
<path fill-rule="evenodd" clip-rule="evenodd" d="M2.31231 141.74C0.507532 136.882 0.0596195 131.801 0.32309 126.627C0.533866 122.414 1.17923 118.201 3.51094 114.725C6.44864 110.315 9.82115 106.115 14.8798 103.851C16.5265 103.113 16.9349 102.047 16.7637 100.428C16.5661 98.5187 16.184 96.5574 16.4211 94.688C16.8822 90.8832 17.4354 87.0387 18.4761 83.3524C19.2006 80.8115 20.5049 78.3104 22.033 76.125C25.9192 70.5956 30.8724 66.1193 36.7346 62.7754C38.2891 61.8933 38.9741 60.8401 39.1453 59.2077C39.198 58.6284 39.2376 58.0489 39.3166 57.4696C40.2519 51.1635 42.0042 45.1076 46.3778 40.2891C48.6304 37.8009 51.3704 35.7471 54.0578 33.7065C57.641 30.9945 61.817 28.9539 63.5295 24.3461C63.6613 24.0038 64.0038 23.7404 64.2146 23.4244C66.8361 19.2642 70.8409 16.7105 74.9247 14.2749C77.6384 12.6424 80.4971 11.2205 83.2767 9.66703C84.436 9.02193 85.6743 8.4428 86.6491 7.58706C90.5221 4.17728 94.8957 1.91277 99.9939 0.991209C106.62 -0.219988 113.246 -0.233173 119.925 0.477748C125.919 1.12284 131.729 2.39993 137.354 4.57218C144.27 7.23155 150.317 10.9967 154.071 17.7241C154.822 19.067 155.863 20.2256 156.824 21.4236C157.167 21.8449 157.654 22.4107 158.129 22.4634C161.87 22.8847 164.939 25.1494 168.404 26.2553C171.698 27.3085 175.202 27.8085 178.152 29.7832C179.681 30.797 181.34 31.6264 182.816 32.7322C185.424 34.6807 188.112 36.603 190.417 38.8938C193.328 41.7901 195.212 45.4105 196.477 49.3338C197.017 50.9794 197.452 52.6778 198.097 54.284C198.427 55.1265 198.967 56.0348 199.678 56.5351C201.088 57.5356 202.655 58.352 204.21 59.1024C209.532 61.7223 213.892 65.3294 216.764 70.6613C217.91 72.7941 218.542 74.9267 218.358 77.2833C217.778 84.9059 216.277 92.3708 214.261 100.125C214.801 100.336 215.657 100.665 216.514 101.02C218.622 101.929 220.795 102.745 222.824 103.811C224.892 104.904 226.038 106.76 226.618 109.051C227.369 111.987 226.908 114.778 226.144 117.595C225.208 121.005 223.43 123.967 221.546 126.89C219.517 130.063 217.673 133.38 215.355 136.329C213.234 139.041 210.651 141.398 208.188 143.834C205.461 146.559 202.695 149.245 199.876 151.891C194.936 156.538 189.6 160.698 183.857 164.292C177.178 168.466 169.998 171.507 162.12 172.573C159.762 172.889 157.733 173.903 155.718 175.074C150.633 178.05 145.601 181.117 140.384 183.829C134.732 186.765 128.897 189.332 123.127 192.031C118.226 194.322 112.97 195.559 107.819 197.087C99.9675 199.404 91.8921 199.917 83.8036 199.996C78.3234 200.049 72.83 199.535 67.3367 199.232C61.7643 198.93 56.2052 198.89 50.6328 197.929C42.0173 196.481 33.7179 194.243 25.9192 190.241C24.2988 189.411 22.6918 188.463 20.966 187.989C17.0271 186.91 13.457 185.225 10.2163 182.763C5.52652 179.235 1.83795 174.93 0.67868 169.071C-0.0458636 165.411 -0.335609 161.62 0.547017 157.867C0.652406 157.407 1.00814 152.904 1.91712 151.364C2.82609 149.797 3.97218 148.362 5.03923 146.848C4.06439 145.137 2.97098 143.53 2.31231 141.74ZM186.926 139.068C187.506 139.147 188.586 138.647 188.797 138.159C190.088 134.881 191.286 131.537 191.405 127.943C187.268 127.601 183.079 131.182 182.658 135.5C182.513 136.895 182.197 137.699 180.748 137.817C180.814 137.185 181.024 136.54 180.998 135.908C180.84 132.485 181.88 129.628 184.647 127.482C185.003 127.193 185.253 126.772 185.556 126.416C183.343 124.678 180.748 124.744 178.126 126.179C175.636 127.561 174.569 129.786 174.266 132.551C172.514 131.879 172.422 130.8 172.593 129.576C172.962 126.956 174.74 125.336 176.703 123.849C177.454 123.296 178.232 122.782 179.154 122.137C177.626 120.399 176.137 119.228 174.095 119.122C172.053 119.004 170.143 119.438 168.286 120.505C166.27 121.677 166.626 123.796 165.835 125.678C164.465 124.415 164.689 122.98 165.137 121.848C165.638 120.557 166.481 119.254 167.548 118.372C168.509 117.569 169.959 117.319 171.434 116.726C171.039 116.16 170.802 115.647 170.42 115.318C168.457 113.593 166.428 111.948 164.465 110.236C163.438 109.341 162.45 109.038 161.027 109.512C158.023 110.499 155.125 111.473 154.111 115.318C152.662 113.869 152.793 112.645 153.729 111.723C155.151 110.341 156.785 109.143 158.405 107.932C158.906 107.563 159.604 107.405 160.605 106.984C160.012 106.036 159.63 105.181 159.038 104.509C157.233 102.508 155.283 100.612 153.518 98.5715C152.662 97.5577 151.845 97.4787 150.725 97.9395C147.405 99.3218 144.692 101.31 143.546 105.167C142.004 104.377 141.978 103.232 142.65 102.258C143.875 100.546 145.232 98.927 146.72 97.4525C147.577 96.5968 148.775 96.0702 149.987 95.2934C148.538 92.0284 146.417 89.4612 143.809 87.289C143.374 86.9335 142.544 86.8546 141.912 86.9073C138.368 87.1837 135.075 88.3948 132.269 90.5144C131.083 91.4096 130.464 93.0815 129.555 94.477C128.528 93.6344 128.686 92.5683 129.134 91.4493C129.858 89.6325 131.202 88.3554 132.888 87.5786C135.496 86.3674 138.21 85.3801 141.161 84.1821C139.989 82.8129 138.816 81.4435 137.657 80.0611C136.116 78.2048 134.508 76.3882 133.033 74.4661C131.861 72.9389 130.491 72.5833 128.699 73.0836C123.864 74.4133 119.715 76.6514 117.396 81.3777C117.278 81.641 117.014 81.7993 116.645 82.2074C115.723 80.9435 116.013 79.9429 116.764 78.8502C119.28 75.1113 122.534 72.3861 126.96 71.188C127.224 71.1222 127.5 70.9906 127.764 70.859C127.922 70.7668 128.027 70.5954 128.304 70.3584C128.225 70.0029 128.278 69.4369 128.027 69.1209C125.682 66.2772 123.298 63.4995 120.94 60.6822C119.939 59.471 118.595 59.2471 117.264 59.6026C112.93 60.7348 108.807 62.3013 105.382 65.3688C103.287 67.2514 102.009 69.45 101.865 72.8072C100.218 71.0035 100.481 69.5951 101.193 68.1864C102.76 65.0663 105.316 62.7886 108.175 60.9718C110.032 59.8001 112.179 59.1022 114.208 58.2201C115.078 57.8646 116.013 57.6015 117.291 57.1671C114.656 54.2444 111.876 52.0459 108.939 50.0843C108.306 49.663 107.253 49.6628 106.449 49.7813C102.023 50.4396 97.7148 51.5323 93.7364 53.6387C91.4179 54.8631 89.679 56.601 89.3364 59.3788C89.2969 59.6553 89.1785 59.9186 89.0731 60.1819C89.0468 60.2478 88.9412 60.2873 88.5987 60.5243C88.467 59.8528 88.1772 59.2341 88.2958 58.7075C88.915 56.0086 90.0743 53.6517 92.5641 52.0851C95.7257 50.0971 99.1114 48.8072 102.76 48.0963C103.222 48.0042 103.683 47.8591 104.144 47.7275C104.223 47.7143 104.249 47.5828 104.447 47.2932C104.025 46.9245 103.643 46.3977 103.116 46.1212C99.7568 44.4097 96.3711 42.7378 92.9987 41.079C91.8131 40.4997 90.6275 40.5 89.3497 40.895C85.727 42.0272 82.7366 44.0678 80.3785 47.0168C79.1402 48.5439 78.3629 50.3343 78.3234 52.3354C78.2707 54.1653 78.3103 55.9951 77.9151 57.9304C77.7044 57.496 77.4013 57.0618 77.3354 56.6142C76.2815 49.1364 78.442 44.0282 85.6875 40.0919C86.3462 39.7364 86.9653 39.315 87.9796 38.7094C84.1856 36.5239 80.6815 34.5494 76.5977 34.3124C75.2408 34.2202 73.7259 34.8386 72.4876 35.5101C67.2446 38.3011 63.187 42.3695 60.0385 47.3591C59.8278 47.675 59.6303 48.0041 59.4064 48.3201C59.3668 48.3728 59.2218 48.3595 58.787 48.478C58.8529 47.8329 58.7213 47.1353 59.0112 46.7403C60.7369 44.3048 62.4099 41.8163 64.3991 39.6045C66.1117 37.6692 68.2194 36.0896 70.2218 34.2991C69.3919 33.4171 68.4038 33.7857 67.5212 33.9042C63.1081 34.4835 59.2219 36.0895 55.7705 39.0517C50.198 43.8175 46.3251 49.5048 44.9287 56.7456C44.7838 57.4697 44.7441 58.194 44.6255 59.2209C46.4303 58.9444 47.9189 58.6547 49.4207 58.523C56.508 57.8779 63.2398 59.4842 69.853 61.8276C76.611 64.2105 83.2503 66.9091 89.4814 70.411C95.1196 73.5707 100.705 76.849 106.12 80.3773C111.705 84.0241 117.08 87.9736 122.468 91.8969C124.259 93.2002 125.814 94.8328 127.448 96.3336C129.213 97.9661 130.873 99.7301 132.717 101.257C139.08 106.458 145.653 111.407 151.871 116.779C157.114 121.347 162.213 126.113 167.943 130.089C171.276 132.406 174.688 134.605 178.1 136.764C178.89 137.264 179.891 137.435 180.787 137.751C182.816 138.252 184.858 138.778 186.926 139.068ZM74.938 69.9108C74.2925 69.687 73.2385 70.2004 72.5403 70.6481C70.9068 71.6618 69.3656 72.8467 67.7847 73.9526C61.5668 78.2576 58.4051 84.0502 59.1428 91.7518C59.1692 92.1204 59.1429 92.5024 58.8662 92.8579C57.0615 88.0526 57.7333 83.471 60.1967 78.9948C62.5943 74.6371 66.902 72.2149 70.5247 69.2527C70.2217 68.7656 70.169 68.4893 70.0373 68.4761C65.8349 67.4624 61.6722 66.1061 57.2722 66.2905C54.5058 66.4089 52.0291 67.3305 49.8291 69.1209C44.507 73.4259 41.5693 78.7182 42.6363 85.7879C42.7285 86.3935 42.6365 87.0387 42.373 87.618C39.6593 79.9427 41.8328 73.4655 47.4974 67.7123C43.1633 68.1994 38.9873 68.8709 35.5094 71.4118C27.2233 77.481 22.5995 85.63 22.033 95.9515C21.9671 97.2812 22.0197 98.598 22.0197 100.138C24.4041 99.7961 26.5778 99.5588 28.7251 99.1376C33.9813 98.1107 39.1718 98.9008 44.2699 99.9672C53.4519 101.876 62.5943 104.022 71.6972 106.247C74.6876 106.971 77.5462 108.248 80.4312 109.354C90.4431 113.237 100.442 117.095 109.782 122.493C115.038 125.534 120.637 128.022 125.577 131.642C127.592 133.13 129.727 134.473 131.742 135.974C138.092 140.766 145.113 144.492 152.148 148.151C160.263 152.351 168.905 154.524 178.152 153.76C181.222 153.497 183.738 152.601 184.766 149.192C185.543 146.624 186.728 144.189 187.73 141.714C184.845 140.332 184.766 140.358 183.501 142.596C182.829 143.741 180.181 145.519 179.667 145.255C177.454 146.414 178.627 148.981 177.56 150.653C175.966 149.086 175.426 146.861 176.545 144.979C177.56 143.267 178.996 141.819 180.405 140.029C177.849 139.384 175.597 137.922 173.041 139.884C171.921 140.74 170.38 141.029 169.168 141.806C167.192 143.083 166.033 144.873 166.138 147.375C166.164 148.27 165.954 149.192 165.796 150.587C163.503 148.744 164.268 146.704 164.281 144.966C164.294 143.044 165.335 141.45 166.81 140.266C168.299 139.041 169.866 137.935 171.645 136.606C169.945 134.986 168.562 133.631 165.796 133.894C162.028 134.236 158.735 135.158 156.416 138.238C155.389 139.594 154.664 141.2 153.742 142.82C152.635 142.359 152.754 141.622 153.07 140.753C154.77 136.119 157.43 132.551 162.713 131.761C162.898 131.735 163.042 131.59 163.49 131.366C163.029 130.866 162.674 130.352 162.213 130.01C160.579 128.799 158.906 127.653 157.233 126.495C155.099 125.007 152.82 125.139 150.607 126.139C146.786 127.838 143.651 130.286 142.426 134.67C140.634 134.197 141.016 133.038 141.398 131.959C142.729 128.299 145.337 125.836 148.815 124.204C149.829 123.73 150.87 123.296 152.28 122.69C149.684 120.373 147.445 118.28 145.074 116.331C143.901 115.37 142.452 115.318 140.951 115.673C135.826 116.898 132.678 120.399 130.188 124.717C129.779 125.428 129.397 126.153 128.87 127.14C128.04 124.863 127.974 124.665 130.253 121.202C131.465 119.359 132.888 117.595 134.548 116.187C136.116 114.857 138.131 114.054 140.186 112.882C138.461 110.868 136.432 109.407 134.443 107.958C130.148 104.786 128.567 104.786 123.97 107.629C120.584 109.709 117.805 112.329 116.527 116.213C116.408 116.555 116.131 116.858 115.578 117.701C115.367 116.674 115.051 116.081 115.183 115.621C116.263 111.75 118.49 108.643 121.743 106.326C123.535 105.049 125.458 103.969 127.592 102.627C125.05 100.494 122.679 98.4268 120.189 96.4915C119.583 96.0307 118.542 95.8333 117.752 95.9387C111.415 96.7022 107.174 100.388 104.552 105.984C103.748 107.669 103.551 109.63 103.09 111.355C101.667 108.748 103.011 103.917 105.962 100.244C108.662 96.8733 111.982 94.6089 116.975 93.7137C115.67 92.6604 114.946 91.9625 114.116 91.4228C111.455 89.6455 108.741 87.9735 106.093 86.2094C104.75 85.3142 103.419 85.1825 101.996 85.8671C95.818 88.8161 90.4036 92.5155 88.2168 99.4799C88.0982 99.8353 87.9006 100.191 87.7294 100.52C87.6898 100.586 87.5581 100.586 87.4791 100.625C86.9126 98.453 87.0707 97.0971 88.3617 94.7932C90.4563 91.107 93.4335 88.2367 96.9508 85.9065C98.1364 85.1297 99.3615 84.4057 100.956 83.4183C99.6777 82.5494 98.7952 81.8516 97.8467 81.2592C95.8838 80.0348 93.8287 78.9159 91.9054 77.6388C89.5473 76.0985 87.2815 76.3222 85.1474 77.902C79.9438 81.7199 75.9523 86.4331 74.2529 92.8314C74.0685 93.4896 73.9235 94.1481 73.7259 94.7932C73.6732 94.9512 73.5283 95.0827 73.4229 95.2275C71.987 90.0536 75.8864 83.4579 85.8324 74.4661C82.2624 72.3201 78.5738 71.1483 74.938 69.9108ZM88.5987 118.991C85.6742 118.806 83.5403 120.821 81.8936 123.032C80.3654 125.086 79.5487 127.469 79.7594 130.102C79.8121 130.642 79.6539 131.208 79.5749 131.919C78.1258 131.59 78.1917 130.536 78.1917 129.654C78.139 125.415 79.2455 121.624 82.7497 118.859C83.5006 118.267 84.212 117.661 85.3186 116.779C82.9869 115.805 81.0373 114.778 78.969 114.172C76.8613 113.553 74.9247 114.672 73.3307 115.87C69.0756 119.083 66.3355 123.085 67.6792 128.812C67.7451 129.101 67.5211 129.457 67.284 130.352C65.0972 126.64 65.8086 123.427 66.9811 120.255C68.2062 116.976 70.8936 114.87 73.8444 112.513C71.8816 111.881 70.2875 111.25 68.6408 110.881C66.1511 110.315 64.0038 111.421 62.2517 112.935C57.7727 116.779 54.7166 121.44 54.6112 127.601C54.598 128.141 54.4267 128.654 54.2554 129.602C52.6614 128.14 52.7669 126.613 53.0699 125.178C54.3213 119.228 56.9824 114.093 61.9357 110.341C62.1596 110.183 62.2781 109.92 62.4625 109.696C57.0219 106.879 52.6878 107.432 48.5776 111.513C47.1417 112.935 45.6137 114.357 44.5335 116.029C42.3994 119.333 42.373 122.756 44.8364 126.021C45.1657 126.455 45.3634 127.008 45.3239 127.851C44.8628 127.522 44.283 127.285 43.9405 126.85C40.5681 122.48 40.6208 117.609 44.1777 113.304C45.7585 111.368 47.5238 109.617 49.355 107.603C48.7885 107.313 48.4985 107.023 48.1692 107.01C44.889 106.76 41.6088 106.497 38.3286 106.379C34.5874 106.234 31.0304 108.695 29.4891 112.684C27.8951 116.779 26.9994 121.018 28.4222 125.415C28.5144 125.652 28.3958 125.955 28.3695 126.284C26.4593 124.468 25.9851 121.334 26.5252 116.568C26.9204 113.132 28.4485 110.17 30.4114 107.05C27.7503 106.497 25.5109 106.8 23.7456 108.05C18.8714 111.5 15.4462 116.081 13.7995 121.927C13.1277 124.31 13.3649 126.495 14.6032 128.615C14.9062 129.141 15.1037 129.747 15.4726 130.603C12.8247 129.181 11.1648 125.639 11.6391 122.598C12.2319 118.807 13.7601 115.383 16.2235 112.408C16.9349 111.539 17.6462 110.67 18.6869 109.406C15.6043 109.907 13.5756 111.25 11.7313 112.935C8.91219 115.502 7.37095 118.806 6.31707 122.387C4.85481 127.337 4.76251 132.261 6.27747 137.238C7.22596 140.318 9.38647 141.964 12.4164 142.122C14.4846 142.241 16.7108 141.924 18.6737 141.24C24.8521 139.054 31.294 138.449 37.7095 137.633C40.4891 137.277 43.2951 137.146 46.0879 136.843C54.0974 135.974 61.9092 137.291 69.6948 138.897C74.7007 139.937 79.7725 140.832 84.6862 142.267C95.5149 145.453 106.462 148.244 116.975 152.562C123.759 155.34 130.517 158.368 137.802 159.698C144.375 160.896 150.673 163.068 157.154 164.569C159.881 165.201 162.687 165.437 165.453 165.859C165.743 165.911 166.086 165.977 166.323 165.846C169.418 164.161 173.146 163.752 175.794 161.106C177.257 159.632 178.89 158.315 180.458 156.92C180.379 156.722 180.3 156.538 180.234 156.327C177.217 156.327 174.069 155.801 171.236 156.511C169.05 157.051 167.39 159.29 166.613 161.712C166.349 162.528 166.125 163.344 165.809 164.371C163.82 163.134 164.597 161.488 164.939 160.211C165.335 158.763 166.27 157.446 167.073 155.84C165.163 155.406 163.438 154.998 161.383 154.537C159.63 156.828 157.813 159.237 155.995 161.633C154.651 160.066 154.625 159.092 156.021 157.209C156.772 156.209 157.562 155.248 158.313 154.234C158.405 154.102 158.353 153.865 158.392 153.418C156.469 152.773 154.519 152.009 152.49 151.509C150.607 151.048 147.195 153.576 146.799 155.511C146.668 156.143 146.576 156.775 146.457 157.459C143.374 155.945 143.796 154.458 148.591 149.955C146.431 148.955 144.441 147.783 142.281 147.112C141.095 146.756 139.462 146.875 138.382 147.427C135.997 148.665 133.613 150.087 133.218 153.207C133.191 153.444 132.862 153.628 132.612 153.905C131.4 153.418 131.11 152.601 131.492 151.403C132.111 149.481 133.297 148.007 134.891 146.809C135.707 146.203 136.484 145.558 137.631 144.65C134.39 142.925 132.23 140.252 128.515 140.555C123.733 140.924 120.755 143.715 120.321 148.507C120.307 148.665 120.11 148.81 119.912 149.113C118.332 147.757 118.766 146.045 119.346 144.676C120.018 143.136 121.072 141.661 122.297 140.516C123.456 139.423 125.05 138.778 126.552 137.896C124.563 135.473 121.98 135 119.24 135.579C117.014 136.066 114.946 137.29 113.997 139.384C113.167 141.214 112.996 143.346 112.469 145.663C112.061 145.124 111.547 144.755 111.508 144.321C111.073 140.516 111.982 137.212 115.249 134.868C116.184 134.197 117.133 133.565 118.424 132.696C115.842 130.905 113.497 129.141 110.585 128.852C105.553 128.338 101.087 132.577 100.903 137.699C100.89 137.988 100.811 138.264 100.758 138.62C99.4011 138.501 99.2167 137.541 99.2562 136.566C99.3352 134.078 99.8753 131.761 101.97 130.128C103.472 128.944 105 127.798 106.66 126.534C103.129 123.546 99.3352 123.362 95.3041 124.915C91.576 126.35 89.7976 129.088 88.9809 134.842C87.5318 134.67 87.4264 133.578 87.4791 132.551C87.624 129.984 88.2431 127.496 90.3114 125.784C92.2215 124.217 94.3294 122.901 96.4899 121.373C94.1318 119.636 91.3125 119.162 88.5987 118.991ZM76.3342 153.115C77.3222 150.956 78.7188 148.981 80.0493 146.743C77.1511 145.913 74.266 145.571 71.46 145.822C69.1942 146.019 67.5211 147.915 66.4277 149.863C65.0577 152.299 64.0302 154.906 62.8577 157.446C62.5284 158.184 62.2254 158.934 61.8961 159.711C60.3811 159.079 60.7632 158.091 61.053 157.367C62.1991 154.51 63.411 151.667 64.6757 148.863C65.1763 147.73 65.9141 146.703 66.5069 145.729C66.2961 145.4 66.2302 145.124 66.0984 145.097C62.7787 144.531 59.4194 144.149 56.2314 145.519C53.0961 146.875 50.7381 149.244 49.5656 152.444C48.4459 155.485 47.7872 158.723 46.9309 161.87C46.786 162.396 46.6279 162.897 46.1536 163.384C44.7836 159.895 45.9298 156.577 46.8519 153.247C47.8004 149.811 49.9081 147.085 52.7141 144.426C46.1141 143.201 40.4759 144.347 35.8256 148.783C33.4149 151.061 31.7024 153.839 31.0964 157.249C30.53 160.487 30.8197 163.555 32.7825 166.767C31.3334 166.649 30.8592 165.938 30.4904 165.253C29.2389 162.976 28.7252 160.54 29.0545 157.973C29.5288 154.036 30.8461 150.469 33.876 147.717C34.5742 147.085 35.1275 146.335 35.8126 145.558C32.9407 144.979 27.8556 145.914 25.7742 147.322C25.5239 147.493 25.3263 147.73 25.0628 147.822C22.6389 148.744 20.5575 149.916 19.5827 152.575C18.2785 156.143 17.8439 159.698 18.9768 163.358C19.2139 164.148 19.4641 164.937 19.8066 166.043C15.4857 163.028 15.3935 157.933 19.3324 147.704C17.5935 148.138 15.9601 148.218 14.7218 148.942C11.7314 150.719 8.92541 152.667 8.72781 156.801C8.45116 162.344 10.2822 167.228 12.693 172.033C14.7612 176.18 18.3312 178.813 21.9407 181.447C26.5119 184.764 31.5575 187.16 36.6952 189.398C39.3563 190.57 41.3718 189.991 43.3346 187.687C49.1573 180.815 56.205 175.364 64.096 171.178C70.169 167.965 76.8875 166.293 83.6323 164.898C90.3377 163.542 97.0036 161.988 103.867 160.474C102.339 157.723 104.486 155.945 106.014 153.773C102.589 152.18 99.243 150.969 95.7389 150.416C94.7904 150.258 93.5258 150.969 92.6564 151.627C90.4037 153.286 89.2047 155.748 88.2035 158.276C87.9532 158.894 87.7293 159.513 87.4922 160.132C85.8323 160 85.9378 159.026 86.3725 158.078C87.5054 155.551 88.1509 152.733 90.3114 150.732C90.6802 150.39 90.8515 149.81 91.194 149.205C90.6671 148.981 90.3508 148.784 89.9952 148.705C87.479 148.218 84.884 146.954 82.4337 148.705C79.3774 150.877 77.6253 153.918 77.1774 157.683C77.0852 158.5 76.9798 159.303 76.8876 160.119C75.1355 158.381 74.9905 155.985 76.3342 153.115ZM129.186 14.841C132.085 14.2091 135.075 14.1301 138.144 13.8141C138.092 13.6693 138.079 13.3269 137.907 13.2347C128.238 7.6922 118.2 3.33442 106.673 4.08484C102.892 4.32181 99.164 4.83536 95.8179 6.8233C95.3568 7.09977 94.9748 7.46831 94.4347 7.8896C94.8563 8.13974 95.0801 8.36356 95.3304 8.40306C103.024 9.44311 109.518 13.2084 115.868 17.3686C116.672 17.882 117.594 18.4614 118.029 19.2645C119.517 21.9239 122.125 23.2798 124.378 25.044C132.677 31.6134 140.107 39.0516 146.43 47.5563C147.3 48.7149 148.222 49.8473 149.157 50.94C156.008 58.8918 160.908 68.1601 166.454 76.9807C170.657 83.6818 175.175 90.1851 179.588 96.7414C181.591 99.7036 183.659 102.64 185.767 105.523C186.952 107.142 188.283 108.643 189.706 110.381C192.301 108.195 194.646 106.247 196.925 104.325C195.278 100.415 193.934 99.6906 190.219 100.573C188.823 100.889 187.413 101.284 186.017 101.613C185.859 101.652 185.661 101.521 185.332 101.428C184.845 100.112 185.227 99.335 186.715 99.019C188.402 98.6899 190.061 98.2556 192.037 97.7948C191.616 96.9523 191.392 96.3597 191.049 95.8463C189.587 93.7003 188.033 91.6071 186.583 89.4348C185.437 87.697 185.372 87.5784 183.33 88.1708C182.487 88.4078 181.736 88.895 180.893 89.0925C180.524 89.1978 179.733 88.9741 179.681 88.7635C179.562 88.3027 179.628 87.4469 179.918 87.289C181.169 86.5517 182.513 86.025 184.146 85.2877C183.264 83.5894 182.381 81.9438 181.498 80.2982C181.143 79.6136 180.721 78.9555 180.352 78.2841C178.917 75.6642 177.322 75.1505 174.688 76.546C173.845 76.9805 173.068 77.5334 172.264 78.0205C171.012 76.2696 170.96 76.0329 172.382 75.2825C173.99 74.4267 175.728 73.8343 177.784 72.9522C176.967 70.5825 176.229 68.1338 175.294 65.7509C174.793 64.5002 173.647 64.2631 172.356 64.7107C170.169 65.4874 167.956 66.1984 165.756 66.9224C164.597 67.3042 164.584 67.2909 163.438 65.8164C166.362 63.8811 169.906 63.4071 173.094 61.7878C172.106 58.5229 170.512 55.6661 168.641 53.0067C168.246 52.4275 166.889 52.1512 166.099 52.296C164.11 52.6515 162.173 53.3228 160.25 53.9284C159.354 54.2049 158.484 54.6526 157.496 55.0738C156.403 53.6652 157.22 52.7828 158.3 52.3089C160.065 51.5321 161.923 50.9924 163.754 50.3868C164.557 50.1235 165.361 49.926 166.547 49.5837C164.755 46.7926 163.253 44.2387 161.541 41.8295C160.408 40.2365 158.524 40.1443 156.772 40.3418C154.282 40.6182 151.805 41.0922 149.342 41.4872C148.499 41.6188 147.59 42.027 146.997 40.5788C150.594 38.9858 154.506 38.4988 158.458 37.5904C157.325 34.5229 155.639 31.9558 153.689 29.5992C153.268 29.0858 152.319 28.9144 151.595 28.7696C147.893 28.0587 144.27 28.7301 140.713 29.678C139.699 29.9544 138.803 30.4154 137.565 29.6519C139.396 27.4138 142.017 27.7031 144.204 27.1107C146.47 26.4919 148.868 26.3737 151.66 25.9656C148.934 22.3452 146.365 19.1196 142.742 16.9869C141.649 16.3418 140.16 16.2234 138.829 16.1444C133.481 15.8284 128.198 16.2891 123.074 17.9479C122.626 18.1059 122.152 18.2111 121.677 18.277C121.519 18.3033 121.361 18.1321 120.834 17.8688C123.456 16.0388 126.381 15.4466 129.186 14.841ZM127.579 165.622C124.997 167.307 123.43 169.282 123.548 172.455C123.574 173.113 123.469 173.771 123.43 174.469C121.823 174.653 121.533 173.547 121.401 172.52C121.111 170.335 121.651 168.294 122.903 166.465C123.377 165.78 123.864 165.095 124.76 163.845C123.206 163.963 122.218 163.976 121.243 164.121C119.372 164.411 117.462 164.608 115.657 165.161C113.009 165.977 110.506 170.124 111.771 174.469C112.048 175.364 112.311 176.259 112.667 177.457C110.77 176.299 109.782 174.614 109.795 171.428C109.808 169.295 110.625 167.175 111.126 164.806C110.796 164.753 110.269 164.542 109.755 164.621C107.832 164.871 105.935 165.122 104.038 165.503C99.612 166.412 97.0825 170.822 98.3999 175.219C98.716 176.246 99.0322 177.286 99.5064 178.919C96.4897 177.365 96.3975 174.917 96.2921 172.889C96.1735 170.77 96.9113 168.597 97.2933 166.319C95.976 165.885 94.7376 166.557 93.4598 166.807C92.8011 166.938 92.182 167.32 91.5365 167.412C88.7306 167.768 87.5053 169.466 86.7808 172.086C85.8586 175.456 85.5821 178.524 88.2168 181.275C88.5593 181.618 88.5988 182.276 88.8096 182.868C86.7809 182.605 86.8204 182.579 85.0684 179.84C84.0145 178.168 83.9485 176.352 84.1461 174.522C84.3174 172.823 84.6994 171.151 85.0288 169.242C82.1833 169.203 79.7331 170.006 77.599 171.428C76.6373 172.073 75.86 173.284 75.4648 174.403C74.1343 178.129 74.5032 181.828 76.2948 185.357C76.7954 186.331 77.2564 187.344 77.8755 188.621C75.557 187.91 73.8314 184.777 72.9487 181.144C72.1715 178.023 72.8827 175.061 73.7785 171.796C71.0911 172.428 68.9307 173.073 67.1128 174.627C66.3882 175.246 65.5715 175.799 64.702 176.181C62.9236 176.984 61.9752 178.366 61.6722 180.169C61.1452 183.25 60.9345 186.331 62.871 189.122C63.1872 189.582 63.4902 190.149 63.556 190.702C63.7273 191.926 64.6097 192.255 65.5451 192.505C66.5726 192.782 67.6265 193.019 68.6672 193.111C77.2563 193.861 85.8587 194.44 94.4214 192.953C96.3316 192.637 98.176 192.031 100.086 191.689C102.326 191.281 104.46 190.504 106.805 190.28C110.296 189.938 112.943 187.463 115.157 184.948C115.908 184.093 116.593 183.25 117.554 182.697C121.73 180.288 125.985 177.984 130.148 175.549C130.807 175.167 131.558 174.403 131.689 173.718C132.216 170.809 132.23 167.807 134.034 165.095C131.808 165.688 129.74 164.227 127.579 165.622ZM112.601 33.1669C114.906 31.8636 117.581 31.2578 120.268 30.2967C119.991 30.0202 119.675 29.6121 119.267 29.3357C117.844 28.3614 116.29 27.519 114.933 26.4658C109.914 22.5821 104.829 22.8586 99.6777 26.0709C97.122 27.6639 94.7903 29.5071 92.8934 32.1533C93.5257 32.6141 93.9868 33.0614 94.5533 33.3642C106.383 39.6045 116.961 47.4117 125.406 57.9043C127.83 60.9191 130.253 63.9075 132.756 66.8433C133.494 67.699 134.495 68.3179 135.641 69.2921C139.343 65.1714 143.453 61.7617 149.434 60.8007C147.867 57.4962 146.194 54.6394 143.388 52.691C142.689 52.2038 141.517 52.1774 140.595 52.2828C136.985 52.6514 133.573 53.6387 130.873 56.298C130.675 56.4955 130.412 56.6008 130.148 56.7456C130.069 56.7851 129.951 56.7456 129.872 56.7456C129.832 53.6255 133.995 51.0979 141.28 50.0184C139.383 46.7007 137.301 43.7122 133.876 42.2377C132.427 41.6058 130.425 41.8822 128.752 42.1718C124.958 42.8432 121.599 44.4101 119.372 48.2148C118.569 46.793 119.148 45.9239 119.767 45.1734C121.388 43.1987 123.298 41.5796 125.827 40.895C127.408 40.4737 129.002 40.0656 130.846 39.5916C130.57 39.0782 130.372 38.4593 129.977 38.038C129.173 37.1954 128.146 36.5768 127.434 35.6684C125.208 32.851 122.27 32.6139 119.082 33.2063C115.17 33.9304 111.692 35.4578 109.163 38.6832C108.939 38.9597 108.623 39.1703 108.346 39.4072C108.043 36.0501 110.375 34.4308 112.601 33.1669ZM188.177 113.461C186.847 112.119 185.688 110.697 184.252 109.617C183.619 109.13 182.407 109.051 181.564 109.248C180.089 109.591 178.666 110.275 177.257 110.868C176.216 111.289 175.386 111.328 174.78 109.683C177.046 108.656 179.325 107.616 181.683 106.55C180.313 104.417 179.18 102.521 177.942 100.731C175.992 97.9132 174.49 97.5708 171.592 99.2954C170.117 100.178 168.747 101.257 167.298 102.205C166.85 102.495 166.283 102.613 165.743 102.837C164.808 101.323 165.73 100.56 166.665 99.8487C167.732 99.0193 168.839 98.2556 169.985 97.5052C171.105 96.7811 172.277 96.136 173.594 95.346C172.238 93.3186 171.012 91.3702 169.669 89.5007C168.786 88.2368 167.508 87.6445 165.901 87.7498C162.871 87.9604 159.973 88.5395 157.615 90.6723C157.272 90.9882 156.825 91.2122 156.337 91.5413C155.138 90.4222 155.494 89.5008 156.561 88.6582C158.748 86.9599 161.29 86.0909 163.991 85.6433C164.742 85.5117 165.479 85.3932 166.771 85.1957C164.676 82.0361 162.805 79.1528 160.856 76.3222C160.579 75.901 159.92 75.4929 159.42 75.4797C155.573 75.3218 151.871 75.6244 149.342 79.1527C149.171 79.3897 148.934 79.5608 148.683 79.7188C148.538 79.7978 148.328 79.7715 148.143 79.7847C147.88 76.0853 150.067 74.4794 158.063 72.6758C157.365 71.6752 156.745 70.7667 156.113 69.8714C154.888 68.1336 153.636 66.4222 152.451 64.6581C151.713 63.5654 150.778 63.1309 149.5 63.2362C144.454 63.6443 140.595 66.1982 137.407 69.9108C136.564 70.8982 137.262 71.6881 137.868 72.4649C142.531 78.376 147.247 84.2479 151.805 90.2512C159.42 100.323 168.154 109.288 177.836 117.385C179.154 118.477 180.642 119.359 182.039 120.334C184.291 117.78 186.228 115.634 188.177 113.461ZM198.716 87.9736C198.203 86.1041 197.781 84.3531 197.201 82.6284C196.661 81.0091 195.831 80.5878 194.132 80.8116C193.552 80.8906 193.012 81.1012 192.433 81.2066C191.985 81.2987 191.524 81.3251 191.142 81.3777C190.272 80.4957 190.562 79.7715 191.339 79.3765C192.077 78.9947 192.946 78.8371 193.789 78.6923C194.527 78.5606 195.278 78.587 196.398 78.5211C195.831 76.0329 195.383 73.8077 194.764 71.6091C194.646 71.2273 193.895 70.7798 193.407 70.7798C192.485 70.7535 191.524 71.0037 190.601 71.188C189.719 71.3723 188.849 71.6489 187.809 71.9385C188.27 69.5556 188.27 69.5554 193.71 68.1073C194.461 65.6717 193.5 63.4336 192.591 61.235C192.367 60.7084 191.365 60.3398 190.667 60.2213C188.836 59.9449 187.018 60.05 185.332 60.9979C184.91 61.2349 184.502 61.6166 184.067 61.6693C183.593 61.722 183.079 61.4587 182.592 61.3403C182.75 60.8531 182.789 60.037 183.092 59.9316C184.963 59.2076 186.873 58.5756 188.81 58.049C189.508 57.8515 190.298 58.0228 191.221 58.0228C190.918 55.2845 189.561 53.2699 188.441 51.1767C186.294 47.1876 184.673 46.6085 180.208 47.8986C178.93 48.2541 177.665 48.5966 176.15 49.0047C177.059 46.9246 177.059 46.9244 184.015 44.9496C179.285 35.8262 170.723 31.9162 162.147 28.0588C161.975 28.2037 161.804 28.3351 161.633 28.4799C162.173 29.3225 162.713 30.1782 163.24 31.034C165.097 34.0883 167.218 36.998 168.733 40.1971C173.66 50.5845 178.376 61.064 183.145 71.5303C183.501 72.3203 183.975 73.176 183.949 73.9791C183.817 76.2699 184.976 78.0602 185.964 79.9165C190.035 87.5918 194.33 95.1355 199.942 101.823C200.574 102.574 201.127 104.127 202.313 103.403C203.722 102.547 202.102 101.639 201.825 100.744C201.087 98.3609 200.192 96.0174 199.665 93.5819C198.993 90.5276 198.809 90.2378 195.647 90.5537C194.54 90.6591 193.263 91.2913 193.039 89.2902C194.54 87.7235 196.688 88.5265 198.716 87.9736ZM104.802 21.3184C99.2431 18.5142 93.9473 16.7236 88.1641 16.7105C83.6061 16.7105 79.0481 16.7893 74.9116 19.1854C72.1188 20.8047 69.9847 23.0559 67.956 26.334C72.5536 26.0181 76.611 25.61 80.4445 27.0187C84.2385 28.3878 87.9401 30.0465 91.8131 31.6527C94.7903 26.7947 99.388 23.8724 104.802 21.3184ZM214.538 104.891C210.678 106.708 207.371 109.025 206.238 113.527C205.962 114.594 205.158 115.528 204.578 116.516C201.483 121.795 199.349 127.482 197.61 133.328C195.831 139.278 193.552 145.005 190.457 150.403C189.943 151.285 189.521 152.259 188.81 153.654C189.587 153.391 190.009 153.391 190.18 153.181C193.407 149.521 197.215 146.335 199.335 141.753C201.14 137.883 202.497 133.881 203.643 129.786C205.026 124.876 206.436 119.965 208.069 115.133C209.65 110.42 213.023 107.287 218.029 105.549C216.79 104.219 215.579 104.391 214.538 104.891ZM210.388 88.9213C211.429 87.2757 211.192 83.1947 209.953 81.628C208.254 79.5084 206.199 78.0866 203.274 78.3367C204.117 75.8485 204.987 75.967 210.085 78.9028C211.073 75.2429 206.884 71.8727 201.272 72.1097C201.338 76.7702 201.68 81.3648 202.708 85.3801C205.566 86.7098 207.964 87.8155 210.388 88.9213ZM59.1559 179.669C55.6122 180.498 47.616 187.647 46.3382 191.109C51.4363 191.109 56.429 191.109 62.1464 191.109C59.4194 187.515 58.8002 183.711 59.1559 179.669ZM209.203 98.7691C209.44 96.8602 209.874 94.9907 210.177 93.0949C210.23 92.7263 210.27 92.226 210.072 91.9627C208.781 90.2513 207.292 88.7108 205.119 88.25C204.157 88.0525 203.327 88.5923 203.485 89.7245C204.025 93.5292 204.447 97.3733 206.502 100.77C208.017 100.77 209.005 100.415 209.203 98.7691ZM121.467 159.5C121.52 159.355 121.572 159.224 121.625 159.079C120.808 158.776 120.018 158.421 119.174 158.17C116.592 157.354 114.248 155.353 111.244 156.485C111.033 156.564 110.704 156.314 110.427 156.248C107.924 155.577 106.699 156.13 105.579 158.447C105.263 159.118 105 159.829 104.552 160.896C110.414 160.395 115.934 159.947 121.467 159.5ZM193.236 119.688C193.486 118.701 193.447 117.845 192.485 117.148C191.563 116.45 190.562 115.963 189.6 116.7C187.94 117.964 186.386 119.386 184.937 120.86C184.66 121.137 184.818 122.374 185.148 122.572C187.15 123.783 189.152 125.218 191.958 124.941C192.419 123.032 192.841 121.36 193.236 119.688ZM136.261 167.426C134.522 168.768 133.824 170.769 134.495 173.402C136.63 172.705 138.632 172.139 140.529 171.388C141.029 171.178 141.359 170.388 141.622 169.795C142.004 168.939 142.255 167.992 142.663 166.794C140.239 165.675 138.052 166.017 136.261 167.426ZM200.653 69.7135C202.747 70.1217 204.75 70.5163 206.831 70.9245C206.159 67.9491 202.484 63.631 199.744 62.7095C200.047 65.0397 200.337 67.278 200.653 69.7135ZM212.18 113.843C210.032 116.239 210.072 116.371 211.653 118.662C212.628 120.07 213.405 121.624 214.274 123.125C214.696 123.862 215.13 124.573 215.881 125.81C216.448 121.532 214.577 116.029 212.18 113.843ZM212.298 131.235C213.708 128.062 212.562 123.572 209.321 120.163C208.056 123.441 209.308 127.864 212.298 131.235ZM207.371 128.378C205.698 129.984 205.87 132.248 205.25 134.144C205 134.894 205.896 136 206.357 137.198C209.967 134.604 210.125 132.683 207.371 128.378ZM122.297 184.264C127.606 182.157 132.625 179.485 137.315 176.193C132.032 178.379 126.71 180.446 122.297 184.264ZM219.241 117.99C218.463 115.752 217.66 113.514 216.751 111.328C216.422 110.525 215.75 109.788 214.748 110.552C213.919 111.171 214.34 111.776 214.762 112.5C215.816 114.304 216.698 116.186 217.699 118.03C217.936 118.477 218.292 118.872 218.859 119.649C219.069 118.793 219.359 118.319 219.241 117.99ZM144.086 170.585C146.773 171.875 148.934 170.177 151.766 169.295C147.326 167.136 144.705 167.228 144.086 170.585ZM191.287 111.552C192.301 112.526 193.052 113.277 193.855 114.041C195.476 111.539 196.911 109.301 198.361 107.076C198.242 106.944 198.123 106.8 198.018 106.681C195.884 108.235 193.763 109.775 191.287 111.552ZM218.332 108.88C219.32 110.671 220.163 112.158 221.269 114.159C222.165 112.026 222.508 110.512 221.533 108.63C220.518 108.722 219.689 108.788 218.332 108.88ZM203.011 140.608C203.195 140.713 203.367 140.819 203.551 140.898C203.88 140.331 204.21 139.752 204.539 139.186C204.315 139.067 204.091 138.949 203.867 138.857C203.59 139.449 203.301 140.042 203.011 140.608Z" fill="black"/>
</svg>
