<svg width="100" height="200" viewBox="0 0 100 200" fill="none" xmlns="http://www.w3.org/2000/svg">
<path fill-rule="evenodd" clip-rule="evenodd" d="M99.945 175.269C98.3997 174.897 97.3446 173.783 96.1127 172.948C94.6418 171.945 93.2516 170.831 91.7901 169.813C91.0019 169.261 90.9026 168.33 90.4123 167.632C89.0903 165.757 87.2192 164.751 84.9322 164.488C84.3084 164.419 83.7002 164.221 83.0672 164.081C83.1355 162.505 83.815 161.406 84.5846 160.4C87.7808 156.223 89.1772 151.655 88.1904 146.37C87.7436 143.986 86.7382 141.922 85.3697 140.026C84.6498 139.03 84.3581 138.083 84.6839 136.932C85.2177 135.06 85.6893 133.164 86.3161 131.321C87.5077 127.811 87.2378 124.276 86.6606 120.726C86.4806 119.627 86.1269 118.556 86.0151 117.451C85.7762 115.117 85.4442 112.802 84.6777 110.583C83.514 107.225 81.5963 104.274 79.5296 101.409C76.1628 96.7417 72.2994 92.6048 67.3375 89.5727C64.613 87.9092 62.1305 85.9168 59.9862 83.5395C59.6542 83.1733 59.378 82.7544 59.1236 82.3292C57.1159 78.9526 54.7451 75.8461 52.1354 72.9133C48.905 69.2822 45.684 65.6355 42.4505 62.0014C40.1884 59.4596 38.0627 56.7379 34.9503 55.1458C33.0574 54.1744 32.502 52.483 32.6478 50.6768C32.9736 46.6143 31.9558 42.9429 30.0691 39.4204C29.2778 37.9463 28.6231 36.4007 27.8131 34.939C26.5254 32.6021 25.4765 30.0696 23.0002 28.6265C22.4603 28.31 22.4168 27.8197 22.4261 27.1897C22.4665 22.702 22.0755 18.2672 20.496 14.003C19.9344 12.4885 19.5496 10.9087 19.0686 9.3632C18.4759 7.44525 18.0539 5.44352 17.2067 3.6404C16.3347 1.769 15.0128 0.13345 12.6079 0C9.90509 2.4021 8.99277 5.64212 7.70808 8.64008C6.54441 11.3494 5.69106 14.1892 4.65462 16.9544C4.18915 18.2051 3.50647 19.3844 3.09686 20.6506C1.52669 25.489 0.456112 30.4514 0.102357 35.5256C-0.145892 39.0357 -0.00935555 42.555 1.26602 45.9253C1.77183 47.2598 1.81216 48.6378 1.58253 50.0561C1.31567 51.7071 1.01777 53.3737 0.992946 55.0372C0.961915 57.2438 1.16672 59.4534 1.30015 61.66C1.3529 62.5352 1.45841 63.4135 1.59495 64.2825C2.07593 67.4263 2.56002 70.5671 3.08755 73.7047C3.5375 76.3488 4.26362 78.9092 5.50177 81.3113C5.97654 82.2392 6.50097 83.1765 6.34271 84.3248C6.16894 85.5817 6.14101 86.8572 5.99206 88.1234C5.65382 90.9818 5.99516 93.8028 6.54441 96.5866C7.04091 99.0911 7.90669 101.524 8.29457 104.038C8.94313 108.234 10.4512 112.107 12.3224 115.85C14.0136 119.23 15.8227 122.547 17.6691 125.843C18.3983 127.144 18.4635 128.397 18.2711 129.837C17.517 135.532 16.7599 141.23 17.4767 147.003C18.088 151.922 19.7885 156.484 21.8583 160.925C22.8233 162.995 24.0925 164.882 25.4082 166.756C26.6433 168.516 28.0304 170.102 29.796 171.291C32.0985 172.842 34.3452 174.562 37.2156 175.018C37.4607 175.058 37.678 175.266 38.1186 175.511C37.6159 176.033 37.2435 176.489 36.7998 176.871C34.3204 179.012 32.0924 181.315 31.09 184.57C30.1405 187.655 29.042 190.697 28.0955 193.785C27.5091 195.706 26.7084 197.431 24.9862 198.61C24.71 198.8 24.4587 199.206 24.4308 199.532C24.3315 200.656 28.5765 199.504 29.7681 198.704C33.9263 195.904 36.6291 192.081 37.6655 187.131C37.8362 186.318 37.9014 185.222 38.4413 184.809C39.6174 183.906 40.8028 182.898 42.3823 182.485C41.3272 184.04 41.2776 185.849 40.7531 187.509C40.477 188.375 40.4832 189.213 40.5514 190.132C40.7159 192.394 39.5522 198.747 41.3024 199.678C43.2915 198.778 45.1813 197.642 46.5218 195.777C48.4458 193.105 49.7367 190.141 50.1401 186.867C50.4504 184.35 51.4806 182.323 53.4449 180.728C53.7769 180.458 54.0407 179.881 54.0314 179.456C54.0096 178.304 54.5248 177.367 55.1423 176.529C55.9553 175.421 56.911 174.403 57.8947 173.438C58.1306 173.208 58.9684 173.14 59.0956 173.317C59.9676 174.515 61.8326 174.444 62.4191 175.986C62.5091 176.231 62.959 176.535 63.198 176.501C64.1537 176.362 64.7464 176.967 65.4508 177.389C65.8201 177.612 66.2452 177.764 66.6672 177.879C67.4182 178.084 68.1878 178.224 68.9418 178.416C71.204 178.987 73.3855 179.887 75.7749 179.971C76.3521 179.99 76.9758 180.468 77.4568 180.877C78.2574 181.557 78.8997 182.432 79.7189 183.081C80.7585 183.897 81.8477 184.71 83.03 185.269C84.7863 186.1 90.6171 188.844 91.6101 188.279C92.029 186.718 90.5922 184.527 90.4278 184.061C89.3541 180.983 87.3681 178.692 84.6001 177.001C83.6568 176.424 82.8469 175.639 81.9532 174.974C81.0378 174.292 80.1006 173.64 79.0673 172.898C80.3954 172.138 81.4691 172.411 82.4962 173.072C83.2441 173.556 83.9268 174.155 84.7025 174.586C86.1082 175.375 87.5233 176.185 89.0159 176.784C90.1361 177.237 91.3897 177.37 92.5751 177.653C93.5557 177.885 94.4773 178.069 95.52 177.693C96.2027 177.439 100.535 175.409 99.945 175.269ZM35.1489 182.438C36.2878 181.603 36.4212 181.628 37.1628 182.64C36.4398 183.047 35.9402 182.497 35.1489 182.438ZM77.8974 114.723C78.5522 115.887 79.1945 117.063 79.7903 118.258C80.5599 119.801 81.2581 121.383 82.0339 122.926C82.9927 124.825 82.729 126.852 82.6824 128.85C82.6793 129.068 82.4404 129.282 82.1083 129.825C80.4202 123.838 78.7383 118.187 75.2132 113.116C76.5507 113.187 77.3575 113.761 77.8974 114.723ZM79.0114 150.153C79.6755 147.921 80.2713 145.91 80.9198 143.722C82.1425 145.28 81.3605 147.847 79.0114 150.153ZM76.169 109.885C75.4149 109.789 74.8346 109.714 74.1302 109.624C73.9844 108.867 73.8447 108.153 73.6896 107.362C75.3901 107.678 75.8556 108.15 76.169 109.885ZM72.8455 114.565C74.4157 116.849 75.9052 119.202 77.2457 121.629C77.9595 122.926 78.3691 124.409 78.7911 125.843C79.4676 128.146 79.8648 130.511 79.9268 132.922C79.9362 133.17 79.8927 133.422 79.8741 133.67C79.7655 133.679 79.66 133.686 79.5514 133.695C78.3008 125.787 75.4646 118.624 69.4383 112.675C70.0683 112.675 70.4003 112.573 70.5647 112.694C71.3622 113.277 72.3087 113.786 72.8455 114.565ZM78.5397 144.172V143.462H78.7694V144.172C78.6949 144.172 78.6142 144.172 78.5397 144.172ZM78.5956 144.905C78.5708 145.181 78.546 145.457 78.5242 145.733L78.2139 145.702C78.2512 145.426 78.2822 145.15 78.3194 144.874C78.4156 144.889 78.5056 144.895 78.5956 144.905ZM77.975 146.931C77.9564 148.371 77.041 149.197 76.4731 150.125C76.7989 149.017 76.8206 147.794 77.975 146.931ZM71.8898 153.247C71.5546 153.588 71.1078 153.892 70.6547 154.017C70.3724 154.091 69.9224 153.871 69.6835 153.638C69.578 153.536 69.7486 153.036 69.91 152.794C70.5616 151.832 71.2257 150.876 71.9425 149.967C73.4755 148.036 73.8727 145.634 74.8874 143.275C75.3187 143.148 75.9331 142.968 76.7927 142.717C76.6996 143.716 76.7896 144.535 76.5258 145.218C75.4025 148.123 74.1209 150.969 71.8898 153.247ZM71.6695 106.912C71.9922 107.837 72.3708 108.777 72.0449 109.86C71.7563 109.922 71.4957 110.022 71.2319 110.028C70.4034 110.049 69.5811 110.034 68.706 110.034C68.3026 108.153 67.9457 106.481 67.592 104.814C69.6897 104.392 71.024 105.059 71.6695 106.912ZM71.0364 117.442C71.536 118.168 71.9798 118.944 72.3708 119.736C74.2947 123.637 75.8369 127.693 77.0844 131.852C77.4288 132.994 77.3388 134.288 77.3171 135.51C77.3109 135.836 76.8951 136.299 76.56 136.445C75.7563 136.798 74.8843 137 73.9192 137.298C73.7951 136.888 73.6275 136.547 73.5965 136.19C73.3017 132.671 72.2994 129.325 71.2909 125.961C70.3258 122.749 68.7277 119.922 66.8162 117.24C66.1149 116.263 65.1746 115.456 64.1444 114.36C64.7185 114.196 65.1591 113.926 65.5532 113.985C67.8744 114.326 69.7083 115.512 71.0364 117.442ZM38.7082 136.681C38.4413 135.557 38.6554 134.319 38.6554 133.13L39.1054 133.096C39.2792 133.428 39.4467 133.76 39.6298 134.086C40.2411 135.197 40.8028 136.345 41.4886 137.413C42.3202 138.716 42.2954 139.449 41.0914 140.69C39.6174 139.762 39.0681 138.207 38.7082 136.681ZM40.3839 143.412C40.1139 144.101 39.8408 144.799 39.5429 145.553C37.7369 143.784 36.837 141.122 37.3583 138.924C37.8765 139.765 38.2893 140.492 38.7547 141.181C39.2574 141.916 39.8036 142.618 40.3839 143.412ZM37.889 112.11C36.2164 109.618 35.692 106.912 35.6423 104.097C35.633 103.557 36.0333 103.008 36.3591 102.167C36.7191 102.843 36.9425 103.206 37.1132 103.591C37.7928 105.112 38.3979 106.667 39.1364 108.156C40.0642 110.022 39.8967 110.751 37.889 112.11ZM26.4943 99.8856C26.6464 100.211 26.8139 100.478 26.9008 100.767C27.2577 101.94 27.6021 103.119 27.9311 104.302C28.3034 105.639 28.0211 106.338 26.7798 107.232C25.1972 104.68 25.0421 101.627 26.4943 99.8856ZM27.1615 74.9677C28.1017 76.7398 28.0024 77.2519 26.3516 78.6081C26.2399 76.8454 26.4385 76.0043 27.1615 74.9677ZM27.9 96.1863C27.9187 95.488 28.3748 94.799 28.9489 94.138C29.2561 95.0007 29.5385 95.8759 29.8705 96.7293C30.2553 97.7069 30.6339 98.6908 31.0994 99.6342C31.8317 101.111 31.8658 101.111 30.789 102.415C30.5191 102.741 30.2057 103.033 29.7774 103.492C28.5579 101.071 27.8349 98.7156 27.9 96.1863ZM30.0784 66.3308C27.689 62.8207 25.4113 59.4721 23.115 56.0986C24.108 55.0217 24.2166 55.0217 25.2127 56.0272C26.7829 57.61 28.3872 59.1555 29.9233 60.7662C30.6494 61.5297 31.2793 62.3924 31.9 63.249C32.5051 64.0869 32.4523 64.3756 31.6517 65.0863C31.1924 65.4866 30.696 65.8435 30.0784 66.3308ZM31.5989 73.1678C31.0249 73.686 30.3701 74.2787 29.6533 74.9243C28.9427 73.1553 29.284 71.4949 30.6587 70.0953C30.9907 71.1784 31.2607 72.0536 31.5989 73.1678ZM30.3887 93.0765C29.7402 91.2517 30.7084 89.8955 31.9093 88.4803C32.1451 88.831 32.3996 89.0669 32.4864 89.3555C33.225 91.798 33.9759 94.2404 34.6338 96.7077C35.0062 98.1073 34.6555 98.6412 32.8867 99.5753C32.0179 97.3191 31.1521 95.2179 30.3887 93.0765ZM34.7176 67.1842C34.8479 68.0997 35.062 69.0153 35.0931 69.9401C35.1303 71.1536 34.0752 71.1691 33.1908 71.5446C32.1668 68.8663 32.7099 67.3797 34.7176 67.1842ZM33.5167 88.0241C32.9829 86.6027 33.1288 86.2768 34.5252 85.442C34.6897 85.6282 34.941 85.7958 35.031 86.0254C35.9619 88.412 36.8991 90.7955 37.7742 93.2038C38.28 94.6004 38.1155 94.8983 36.5577 95.9318C35.5151 93.2193 34.4973 90.6279 33.5167 88.0241ZM41.0293 89.8551C41.501 91.2207 41.2714 91.6396 39.5088 92.7693C38.2396 89.6782 37.0201 86.7113 35.7323 83.5706C36.2691 83.0213 36.7967 82.4813 37.5321 81.7303C38.0782 82.6272 38.5592 83.2261 38.8323 83.9089C39.6143 85.8734 40.3373 87.8596 41.0293 89.8551ZM39.0154 80.5541C39.5802 79.7285 40.328 79.0799 41.6996 79.052C42.8415 81.9692 43.5832 84.8865 44.1728 87.841C44.3434 88.6976 43.7973 89.1817 42.7391 89.343C41.5227 86.4754 40.2939 83.5738 39.0154 80.5541ZM39.0712 104.06C38.7516 103.417 38.6678 102.663 38.3668 102.011C37.7028 100.581 38.1527 99.566 39.6143 98.6597C40.7128 101.108 41.7647 103.473 42.9129 106.027C42.4847 106.536 41.9696 107.148 41.3986 107.827C40.0705 106.757 39.695 105.323 39.0712 104.06ZM41.3707 98.1104C40.9517 96.748 41.2869 95.7145 42.7174 95.0038C42.8819 95.3235 43.0588 95.6401 43.2046 95.9721C43.9245 97.6015 44.5793 99.2649 45.3706 100.857C46.1836 102.499 46.0874 102.918 44.1417 104.063C42.8508 102.17 42.013 100.187 41.3707 98.1104ZM55.9274 116.647C56.2656 117.423 56.2284 118.038 55.6171 118.612C54.9282 119.258 54.2424 119.9 53.3828 120.704C52.9515 119.385 52.4736 118.115 52.123 116.812C51.5985 114.866 51.3658 112.874 51.4837 110.853C51.5551 109.587 52.5729 109.072 53.6186 108.175C53.9879 110.015 54.2237 111.555 54.6209 113.047C54.9499 114.276 55.4185 115.477 55.9274 116.647ZM58.7729 104.913C59.6449 106.651 60.7993 108.302 60.9141 110.397C60.9265 110.614 60.9575 110.86 61.063 111.046C62.0064 112.684 61.2958 113.727 59.8652 114.577C59.2105 114.965 58.624 115.468 57.7551 116.104C57.302 115.124 56.9235 114.497 56.7218 113.82C56.2656 112.278 55.7753 110.726 55.5146 109.143C55.1609 106.965 55.9615 105.329 58.7729 104.913ZM53.209 96.8256C51.0648 98.4673 50.7514 98.4177 49.5505 95.9442C48.9671 94.74 48.5419 93.4614 48.0485 92.2138C47.5521 90.9631 47.6886 90.6776 48.9609 90.3145C49.175 90.2555 49.3953 90.2058 49.898 90.0817C50.3697 90.3951 51.0989 90.7179 51.6078 91.2486C52.3774 92.0524 53.0229 92.9804 53.6745 93.8866C54.6116 95.1994 54.4906 95.8449 53.209 96.8256ZM48.753 98.3184C49.3363 99.8019 49.2867 99.9135 47.4497 100.702C45.836 98.8149 44.9858 96.6394 44.4024 94.3676C44.0983 93.1821 44.9516 92.5335 46.0874 91.9221C46.4784 92.7663 46.8942 93.5824 47.2417 94.4297C47.7693 95.7145 48.244 97.0242 48.753 98.3184ZM43.9524 121.65C44.0393 120.4 44.0673 120.403 45.6778 118.358C45.9477 119.819 46.1401 121.089 46.4256 122.339C46.8228 124.077 47.2014 125.828 47.7631 127.516C47.9989 128.227 48.0734 128.776 47.6762 129.39C47.1983 130.126 46.7297 130.868 46.2581 131.603C46.1184 131.575 45.9819 131.544 45.8453 131.519C44.5669 128.357 43.7166 125.111 43.9524 121.65ZM47.4838 118.038C47.3038 116.548 47.6141 115.021 48.604 113.768C48.8274 113.482 49.1657 113.29 49.566 112.954C50.1276 115.372 50.6272 117.541 51.1268 119.711C51.1517 119.819 51.1455 119.943 51.2013 120.033C52.6629 122.637 51.2417 124.422 49.3922 126.237C49.1719 125.88 48.8802 125.598 48.8119 125.266C48.3309 122.867 47.7755 120.468 47.4838 118.038ZM50.1649 129.313C50.3604 128.674 50.891 128.143 51.2665 127.562C51.4123 127.606 51.5582 127.646 51.7071 127.69C52.2316 129.955 52.5698 132.283 53.3269 134.471C54.0903 136.665 55.2664 138.716 56.309 140.932C55.8467 141.14 55.2571 141.429 54.6551 141.677C53.5566 142.133 52.9918 142.05 52.365 141.05C50.109 137.435 48.8647 133.589 50.1649 129.313ZM54.2207 149.87C54.8537 148.868 55.5488 147.763 56.8955 147.44C55.8125 149.566 54.894 151.754 52.9639 153.508C52.4705 151.779 53.5938 150.863 54.2207 149.87ZM53.7862 128.286C53.6683 126.628 54.0345 125.12 54.5899 123.54C56.8366 128.844 59.8869 133.742 61.9722 139.3C61.392 139.443 61.0723 139.529 60.7465 139.601C58.5805 140.076 58.0964 139.945 57.0631 138.049C55.4029 134.995 54.0376 131.842 53.7862 128.286ZM63.0676 136.901C61.5874 133.664 59.9149 130.514 58.4036 127.289C57.6961 125.784 57.1686 124.195 56.5728 122.637C56.4952 122.436 56.4332 122.175 56.4952 121.979C56.6876 121.371 56.79 120.483 57.2152 120.266C57.6124 120.064 58.5371 120.412 58.9529 120.809C61.544 123.289 63.8 126.051 64.9388 129.518C65.7363 131.948 66.3414 134.44 66.99 136.916C67.142 137.484 67.1172 138.096 67.1855 138.819C66.6735 138.878 66.4562 138.906 66.2328 138.924C63.9489 139.092 64.0451 139.048 63.0676 136.901ZM65.8511 145.47C65.2584 147.838 63.6417 149.33 62.1243 150.87C61.9412 151.056 61.3826 151.009 61.0785 150.876C60.9296 150.811 60.8303 150.224 60.9513 150.013C61.9505 148.266 63.0831 146.612 64.7774 145.445C64.9078 145.355 65.0878 145.308 65.246 145.308C65.4012 145.305 65.5563 145.386 65.8511 145.47ZM66.1273 127.929C65.004 124.713 62.9683 122.041 60.5231 119.686C60.2003 119.375 59.8714 119.071 59.5518 118.755C59.437 118.64 59.3439 118.5 59.1515 118.264C59.3222 118.056 59.4153 117.92 59.5301 117.805C61.7798 115.589 62.506 115.564 64.734 117.898C66.6424 119.9 68.0854 122.259 68.9977 124.841C69.9783 127.625 70.7292 130.498 71.3747 133.378C71.7098 134.874 71.6043 136.469 71.7067 138.121C70.782 138.291 70.0403 138.431 69.1125 138.598C68.9853 137.922 68.9294 137.388 68.7867 136.882C67.9209 133.89 67.1513 130.865 66.1273 127.929ZM64.9326 103.961C65.2398 104.116 65.4632 104.51 65.6432 104.836C66.4779 106.341 66.8472 108.942 66.5152 110.884C65.578 111.232 64.613 111.595 63.4772 112.014C62.4873 109.295 61.5316 106.682 60.5479 103.985C62.0064 103.036 63.4803 103.231 64.9326 103.961ZM60.2438 92.5738C59.1763 92.2355 58.9963 91.2518 58.2175 90.5038C59.4525 90.9414 59.7442 91.2548 60.2438 92.5738ZM53.6621 80.5261C54.6613 81.5348 55.3719 82.7141 55.8063 84.1479C54.1555 84.3899 54.1338 84.3899 53.8141 83.2634C53.5814 82.4347 53.3859 81.5905 53.1749 80.7557C53.3425 80.6781 53.5038 80.6037 53.6621 80.5261ZM53.9724 89.4579C54.9964 90.479 56.0639 91.4721 56.9824 92.5862C57.8482 93.6414 57.7489 93.7966 56.278 94.5631C55.2012 92.701 54.1803 90.9414 53.0042 88.9086C53.4852 89.1724 53.78 89.2655 53.9724 89.4579ZM49.957 77.8043C50.3262 77.9285 50.7731 78.3102 50.8724 78.6609C51.3813 80.4578 51.7847 82.2857 52.2378 84.154C51.6947 84.334 51.341 84.4737 50.9717 84.5606C49.808 84.8368 49.7273 84.7499 49.3829 83.5737C48.8119 81.6092 48.1975 79.6571 47.4869 77.3233C48.4861 77.5064 49.2495 77.5654 49.957 77.8043ZM45.6467 77.4071C46.9749 80.0637 47.5583 82.7637 47.9989 85.6685C47.4465 86.0875 46.8632 86.5345 45.9881 87.2017C44.9485 83.8965 44.0393 80.9978 43.0556 77.8664C43.9773 77.705 44.8058 77.5561 45.6467 77.4071ZM41.1224 66.5355C41.9727 66.8087 42.4381 66.9577 43.0339 67.147C42.9967 67.6125 42.9657 68.078 42.9315 68.5249C42.0999 68.7515 41.4048 68.7452 41.0603 68.0501C40.8897 67.7056 41.0852 67.1811 41.1224 66.5355ZM39.3909 72.1156C39.7477 72.516 40.0022 73.0591 40.148 73.5836C40.4273 74.583 40.5949 75.6102 40.8121 76.6281C40.6849 76.6809 40.5607 76.7306 40.4366 76.7802C39.5926 75.2502 38.7485 73.717 37.8983 72.1684C38.3513 71.4235 38.944 71.616 39.3909 72.1156ZM39.2698 66.0545C39.2109 67.029 39.1581 67.898 39.0992 68.8694C38.4351 69.0525 37.8176 69.2201 37.2249 69.3815C36.0674 67.2867 36.7749 66.1352 39.2698 66.0545ZM35.2172 59.5869C36.3467 60.5707 37.4794 61.5607 38.6803 62.6097C37.1784 62.9573 37.1721 62.9635 36.4088 61.9456C35.8968 61.2597 35.4065 60.5552 34.91 59.8569C35.0124 59.7669 35.1148 59.6769 35.2172 59.5869ZM28.5362 45.6801C28.6758 45.6801 28.8124 45.6801 28.952 45.6801C29.5043 47.3964 29.3058 49.1374 29.1599 51.0616C28.7999 50.863 28.5548 50.7885 28.5548 50.7171C28.53 49.0382 28.5362 47.3591 28.5362 45.6801ZM29.4299 55.4344C31.1769 56.8123 32.2103 58.7489 33.4205 60.5458C33.9915 61.3962 34.8758 62.0977 34.9658 63.3111C34.1435 63.668 33.8611 63.1652 33.6191 62.7618C32.1327 60.2418 30.2801 58.0475 27.9776 56.2382C27.6301 55.962 27.3384 55.6144 27.0374 55.2854C26.9722 55.214 26.9722 55.0868 26.9039 54.8571C27.8814 54.5251 28.6758 54.8385 29.4299 55.4344ZM26.8791 40.1126C27.0746 40.5346 27.267 40.9535 27.6052 41.6953C26.3423 41.3818 26.5471 40.7829 26.8791 40.1126ZM26.8077 44.5753C27.0467 46.7757 26.9939 48.9916 26.8357 51.1423C26.1623 51.3533 25.7154 51.3068 25.6472 50.7296C25.3834 48.4733 25.1693 46.214 24.9241 43.8461C26.2616 43.393 26.6898 43.5015 26.8077 44.5753ZM23.3012 38.8246C23.6829 38.4025 24.1236 38.0983 24.7597 38.3777C25.402 38.6601 25.2252 39.2033 25.1755 39.6595C25.1134 40.1995 24.9366 40.727 24.769 41.4222C24.0429 41.5029 23.3292 41.5804 22.6248 41.6549C22.3858 40.4415 22.6279 39.5632 23.3012 38.8246ZM22.1624 45.6336C22.1903 44.9912 22.2276 44.9913 22.932 44.4357C24.0894 46.9216 24.2694 51.0958 23.143 52.6475C22.0941 50.3199 22.0724 47.983 22.1624 45.6336ZM25.1786 62.1876C25.9047 63.2396 26.5098 64.3787 27.2174 65.4463C28.7037 67.6839 28.71 67.7553 27.0094 69.7663C26.8295 69.9743 26.6929 70.2256 26.4416 70.5949C25.9916 70.1015 25.6472 69.8222 25.4393 69.4684C24.3997 67.6839 23.385 65.8839 22.3765 64.0807C21.7714 62.9976 21.3307 61.9393 21.5821 60.5862C21.7342 59.7793 21.309 58.8669 21.1415 58.0041C21.2408 57.9389 21.337 57.8738 21.4363 57.8086C23.0251 58.96 24.0801 60.5986 25.1786 62.1876ZM12.0152 44.9695C12.3659 47.3002 11.767 49.0072 9.87095 50.5217C9.36825 48.0637 10.7243 46.664 12.0152 44.9695ZM9.00209 26.9165C9.18207 26.8731 9.35893 26.8296 9.53891 26.7831C10.1037 28.5334 10.6685 30.287 11.2332 32.0342C11.0967 32.0808 10.9601 32.1241 10.8236 32.1707L9.00209 26.9165ZM10.1906 60.94C10.6033 62.0914 11.0408 63.2397 11.5808 64.3321C12.2045 65.589 12.161 66.0235 10.8267 67.299C9.17585 64.4128 8.88105 61.3683 9.38686 58.1438C9.65063 59.0748 9.86165 60.0276 10.1906 60.94ZM11.1029 55.5741C11.2425 55.5244 11.3853 55.481 11.5249 55.4314C11.8787 56.3221 12.2169 57.2189 12.5986 58.0972C12.9989 59.0189 13.3309 59.9935 13.8926 60.8066C14.5846 61.8121 14.3891 62.5476 13.3713 63.5097C11.6801 60.9649 10.7522 58.4386 11.1029 55.5741ZM13.1168 51.5892C14.0881 54.2365 15.0594 56.862 16.0058 59.4938C16.0368 59.5807 15.8506 59.7452 15.7638 59.8817C13.9453 58.1407 12.3876 53.2558 13.1168 51.5892ZM12.2573 20.7344C13.5854 23.2792 14.0633 26.0693 14.7428 29.1542C13.1913 27.4441 11.6646 22.3823 12.2573 20.7344ZM18.088 55.0962C18.6155 56.1979 18.541 56.2351 17.4456 57.8179C16.1485 55.031 14.7553 52.5638 14.808 49.6123C14.8297 48.4485 15.3045 47.9395 16.8964 47.1667C16.9585 47.5609 17.0888 47.9178 17.0578 48.2622C16.8467 50.6271 17.0453 52.9113 18.088 55.0962ZM17.877 31.0659C17.9887 31.0255 18.0973 30.9914 18.2059 30.9541L18.5255 31.8821C18.4014 31.9162 18.2742 31.9473 18.147 31.9783L17.877 31.0659ZM15.41 67.5877C15.9468 69.276 16.3006 70.6136 16.8002 71.8984C17.5543 73.8195 18.3828 75.7157 19.2393 77.5902C19.6178 78.4188 19.7264 79.1109 19.1865 79.9365C17.8832 81.9382 16.6575 83.9895 15.1525 86.4133C14.7708 84.8895 14.3394 83.6761 14.1812 82.4285C13.8336 79.7129 13.5854 76.985 13.3651 74.257C13.1789 71.9232 14.3736 69.996 15.41 67.5877ZM16.9088 65.5331C16.673 64.0248 17.2564 62.8486 18.3269 61.5359C20.5177 65.3562 22.5875 68.9718 24.7411 72.7364C23.7233 74.0057 22.6154 75.3868 21.3183 77.0068C20.6729 75.9206 20.0368 75.0857 19.6396 74.1454C18.4697 71.3646 17.3774 68.5466 16.9088 65.5331ZM23.5526 82.8413C22.9506 81.1003 23.6302 79.6571 24.2477 78.183C24.8373 79.8061 25.4641 81.4603 23.5526 82.8413ZM23.8163 106.012C23.9498 105.975 24.0801 105.941 24.2104 105.903C24.558 107.008 24.98 108.097 25.2252 109.224C25.4424 110.214 24.8093 110.869 23.9808 111.458C22.4355 109.599 23.0995 107.806 23.8163 106.012ZM20.1019 54.7083C17.9732 51.6762 18.0104 46.543 20.4681 45.0067C20.4681 46.1302 20.3843 47.0147 20.4867 47.8774C20.676 49.485 20.9708 51.0741 21.219 52.6724C21.4083 53.8858 21.3494 53.982 20.1019 54.7083ZM20.0212 34.7404C20.9863 35.3176 20.9615 36.047 20.9491 36.6863C20.946 36.8818 20.4712 37.068 20.2105 37.2573C20.0926 37.1642 19.9716 37.0649 19.8537 36.9718C19.9002 36.3045 19.953 35.6373 20.0212 34.7404ZM20.735 39.495C21.0887 41.9281 20.8436 42.3781 18.6062 43.3836C17.7715 41.6519 18.8172 39.7432 20.735 39.495ZM18.6093 26.4945C18.2307 26.1593 18.0104 26.0507 18.0135 25.9483C18.0787 24.1545 18.1687 22.3637 18.3362 20.573C18.8172 22.432 19.0717 24.3003 18.6093 26.4945ZM16.915 13.6429C17.7342 15.5453 18.1718 17.2151 18.3331 18.9623C18.2276 19.0027 18.1221 19.0399 18.0135 19.0802C17.7218 18.2609 17.3867 17.454 17.1509 16.6192C16.915 15.7781 16.0151 15.0302 16.915 13.6429ZM16.5737 42.254V44.3395C15.7141 44.4078 14.9663 44.4698 14.2463 44.5257C14.4108 42.794 15.0066 42.1547 16.5737 42.254ZM14.5101 7.03559C15.4907 8.53457 15.621 9.13048 15.2766 10.6667C14.4574 9.60842 14.3053 8.90078 14.5101 7.03559ZM15.7017 25.4051C14.8359 23.0589 14.1626 20.6693 13.9702 18.1616C15.1897 20.421 15.5683 22.882 15.7017 25.4051ZM12.5148 5.10216C12.6327 5.68872 12.7165 6.07666 12.7879 6.4677C13.092 8.21807 13.3123 9.98393 13.7188 11.7095C13.9143 12.5288 13.9422 13.1992 13.4519 13.8912C12.9772 14.5616 12.5365 15.2598 11.9314 16.1754C10.9663 13.0595 11.2549 7.24977 12.5148 5.10216ZM12.8189 30.349C12.6886 30.3925 12.5614 30.4328 12.431 30.4793C11.8942 28.8376 11.3573 27.1927 10.8205 25.5541C11.7732 27.0562 12.5676 28.6111 12.8189 30.349ZM9.53271 12.5412C9.88026 14.4157 10.2371 16.253 10.5536 18.0965C10.6157 18.4596 10.6219 18.891 10.4885 19.2199C10.1223 20.1355 9.65994 21.0137 9.2224 21.9416C7.6243 19.4806 7.81669 14.7106 9.53271 12.5412ZM8.20147 29.8059C9.73131 32.9093 9.77785 33.6728 8.54592 34.6256C7.94702 32.8845 7.78255 31.0317 8.20147 29.8059ZM6.45132 56.4244C6.27444 54.1899 6.30858 52.002 7.89427 49.7861C8.31629 52.4582 7.66774 54.5065 6.45132 56.4244ZM3.21167 37.788C3.40717 35.628 3.60576 33.468 3.80126 31.3111C3.93159 31.3204 4.05882 31.3328 4.18915 31.3452C4.56152 33.558 4.73219 35.7522 3.65231 37.8532C3.50336 37.8284 3.35752 37.8066 3.21167 37.788ZM4.41258 61.1294V57.9824C4.95873 59.0252 5.34972 60.0742 4.41258 61.1294ZM6.68095 21.1347C7.14642 22.4878 7.525 23.5648 7.89117 24.6448C7.94392 24.8 7.98116 24.9923 7.93151 25.1351C7.35743 26.7955 6.76474 28.4496 5.98586 30.0603C5.09527 27.0531 5.28455 24.173 6.68095 21.1347ZM6.30547 34.7032C7.00988 36.5994 6.9261 36.9718 5.56383 37.8159C5.78415 36.888 6.00447 35.9601 6.30547 34.7032ZM6.55062 75.1663C6.06654 72.7177 5.42419 70.5111 5.68796 68.1152C5.83691 68.4225 5.99827 68.7235 6.13791 69.037C6.56924 69.9959 6.95712 70.9735 7.42569 71.9139C8.10838 73.2701 8.01529 73.7791 6.55062 75.1663ZM9.13242 71.0046C7.27055 68.078 6.81128 65.0304 7.09056 61.48C7.37915 61.9238 7.59017 62.1007 7.60878 62.2962C7.80738 64.6642 8.44973 66.8894 9.58857 68.978C9.94233 69.6329 9.88647 70.2566 9.13242 71.0046ZM11.3667 96.9155C10.0789 91.0158 10.8112 85.1937 11.8352 79.3281C11.9004 79.5609 11.9904 79.7906 12.0369 80.0264C12.611 82.7451 13.1789 85.4669 13.7374 88.1886C13.8119 88.5641 13.9329 88.9955 13.8243 89.3338C13.0392 91.8724 12.1952 94.3924 11.3667 96.9155ZM14.5349 109.904C13.8926 107.787 13.0485 106.204 13.2347 104.333C14.1501 105.726 15.0004 107.151 15.3448 108.799C15.3883 109.025 14.9538 109.351 14.5349 109.904ZM16.2479 105.332C15.0438 103.725 14.4543 102.35 14.2029 100.739C14.9539 101.093 16.1858 102.8 16.4123 103.824C16.4868 104.175 16.3378 104.572 16.2479 105.332ZM17.2967 101.149C14.9756 98.5387 14.9104 95.7579 16.0927 92.6483C16.223 92.9276 16.3254 93.1014 16.3875 93.2845C16.7816 94.5414 16.9802 95.9069 17.6039 97.0397C18.4231 98.5418 17.9297 99.7335 17.2967 101.149ZM19.0624 95.4972C17.7653 93.2938 17.6598 91.3448 18.5814 89.1103C18.8203 89.6503 18.8855 90.0879 19.14 90.3238C20.9925 92.0152 19.6023 93.5762 19.0624 95.4972ZM21.3245 82.8754C22.2306 84.3775 22.0786 87.2824 20.9211 89.3741C19.6334 87.3258 19.8723 84.2348 21.3245 82.8754ZM21.3028 115.437C21.5076 114.19 21.6597 113.252 21.8148 112.315C22.7985 113.864 22.7768 113.972 21.3028 115.437ZM24.3935 152.527C24.3749 152.732 24.226 152.93 24.1235 153.157C22.814 150.981 21.6007 141.432 22.3175 138.22C22.5099 139.244 22.693 139.973 22.7706 140.721C22.9382 142.32 23.5743 143.704 24.4804 145.001C24.7194 145.342 24.9335 145.811 24.9086 146.205C24.7845 148.315 24.5859 150.423 24.3935 152.527ZM25.6099 142.428C24.3935 141.615 24.4525 140.488 24.3656 139.564C24.0925 136.662 23.2143 133.81 23.3788 130.871C23.5029 130.861 23.624 130.852 23.7481 130.843C24.3284 132.224 24.9055 133.605 25.4827 134.986C25.5479 135.141 25.5448 135.343 25.6472 135.458C27.7325 137.804 25.8861 140.001 25.6099 142.428ZM28.2817 132.36C28.0273 133.018 27.8659 133.71 27.478 134.381C25.6844 131.253 24.7131 127.994 25.07 124.453C25.2345 124.403 25.3927 124.36 25.5541 124.313C25.6844 124.543 25.8365 124.766 25.942 125.008C26.5936 126.47 27.1305 127.997 27.9187 129.384C28.4834 130.39 28.6944 131.29 28.2817 132.36ZM29.4423 128.161C27.8876 125.738 27.3042 123.211 26.9877 120.614C26.9195 120.024 27.1677 119.394 27.2701 118.783C27.416 118.767 27.5649 118.749 27.7139 118.733C28.1204 119.661 28.5362 120.589 28.9303 121.52C29.1909 122.138 29.4019 122.774 29.675 123.385C30.6556 125.586 30.6618 125.582 29.4423 128.161ZM31.5493 122.488C31.2576 121.995 30.9256 121.573 30.7394 121.092C30.1622 119.59 29.5695 118.078 29.1165 116.533C28.6944 115.099 29.2592 113.87 30.2025 112.694C30.8945 114.407 31.5369 115.983 32.173 117.563C32.2568 117.771 32.3065 117.994 32.4089 118.19C33.4081 120.114 33.2995 120.775 31.5493 122.488ZM31.9868 111.368C31.7975 110 32.0024 108.83 32.8278 107.744C33.1567 107.306 33.4577 106.847 33.9542 106.136C34.1528 107.176 34.2087 107.955 34.4631 108.662C34.9876 110.124 35.5554 111.58 36.2257 112.976C36.5732 113.696 36.7284 114.283 36.2629 114.987C35.6951 115.847 35.1924 116.75 34.5562 117.811C33.2529 115.608 32.3003 113.64 31.9868 111.368ZM35.9681 165.332C35.8285 165 35.692 164.665 35.5523 164.336C35.6702 164.283 35.7882 164.236 35.9092 164.184C36.0488 164.516 36.1916 164.848 36.3343 165.177C36.2133 165.229 36.0892 165.282 35.9681 165.332ZM35.543 159.957C35.8471 160.478 36.0767 160.875 36.3871 161.406C35.1272 161.015 35.1272 161.015 35.543 159.957ZM35.0093 156.158C36.4677 156.844 36.6912 157.101 36.8867 158.402C36.204 157.589 35.6733 156.956 35.0093 156.158ZM37.2094 154.212C35.7168 152.992 35.0279 151.419 35.0031 149.544C35.9216 151.022 37.5786 152.167 37.2094 154.212ZM37.9945 149.895C36.3902 147.726 35.9588 146.444 35.9464 143.887C36.2505 144.206 36.4708 144.377 36.6105 144.601C37.1939 145.538 37.7276 146.5 38.3203 147.431C38.8602 148.291 38.4817 148.973 37.9945 149.895ZM39.366 181.153C39.1271 180.908 38.8851 180.66 38.643 180.415C38.7144 180.334 38.792 180.247 38.8633 180.166C39.1364 180.378 39.4095 180.592 39.6826 180.803C39.5771 180.921 39.4716 181.035 39.366 181.153ZM41.0169 147.304C42.5126 149.318 42.3078 151.183 40.1573 151.978C39.7943 150.302 40.5049 148.874 41.0169 147.304ZM40.3001 177.895C41.4327 176.958 41.6934 177.063 42.2085 178.649C41.2403 179.167 40.7531 178.624 40.3001 177.895ZM42.1713 124.468C42.3606 125.055 42.5312 125.53 42.6647 126.014C43.2698 128.261 43.7756 130.539 44.4955 132.752C45.0137 134.337 44.3527 135.405 43.366 136.594C40.4211 133.928 39.6484 127.907 42.1713 124.468ZM44.6382 138.803C44.7437 138.927 44.933 139.039 44.9392 139.16C45.0572 141.283 45.5754 143.319 46.227 145.324C46.4225 145.923 46.3325 146.419 45.7616 146.767C45.1596 147.124 44.5513 147.481 43.8345 147.903C42.494 144.793 42.9005 140.914 44.6382 138.803ZM43.819 161.043C44.5389 161.778 44.359 162.287 43.9649 162.781C43.8004 162.737 43.639 162.7 43.4746 162.657C43.5801 162.166 43.6856 161.676 43.819 161.043ZM46.0471 176.247C46.0005 176.796 45.3271 177.147 44.7686 176.892C44.1417 176.607 43.6887 176.147 43.7694 175.226C44.269 175.226 44.753 175.204 45.2402 175.232C45.8671 175.266 46.0967 175.691 46.0471 176.247ZM45.9695 158.942C44.0424 155.959 45.8112 152.241 48.452 151.785C47.6265 154.172 46.8259 156.471 45.9695 158.942ZM47.7662 144.144C46.7297 140.808 46.1991 137.435 47.1828 133.981C47.2231 133.847 47.4186 133.76 47.7258 133.484C48.2751 137.059 49.3674 140.327 51.3658 143.387C50.5186 143.902 49.8794 144.315 49.2184 144.691C48.5357 145.079 47.9927 144.871 47.7662 144.144ZM49.6932 155.966C49.6249 156.161 49.3053 156.267 49.0291 156.462C49.0322 154.553 49.8422 152.542 51.642 150.426C50.9996 152.272 50.3666 154.125 49.6932 155.966ZM55.9491 170.003C55.9149 170.037 55.8808 170.065 55.8467 170.096C55.8343 170.111 55.825 170.127 55.8126 170.142C55.3626 170.586 54.7513 170.844 54.1213 170.844C53.4883 170.844 52.877 170.589 52.4302 170.142C51.9988 169.711 51.7009 169.068 51.7288 168.451C51.7475 168.019 51.825 167.535 52.0702 167.169C52.3184 166.8 52.5698 166.489 52.9701 166.269C53.3952 166.036 53.7676 165.931 54.2548 165.922C54.8816 165.912 55.5053 166.182 55.946 166.623C56.3928 167.073 56.6473 167.684 56.6473 168.314C56.6473 168.944 56.3928 169.559 55.9491 170.003ZM57.7427 158.582C57.2648 158.985 56.6938 159.038 56.0142 158.423C56.548 158.088 56.9669 157.825 57.6248 157.412C57.6899 157.964 57.8792 158.467 57.7427 158.582ZM57.3951 151.025C58.0902 148.567 59.9056 147.211 61.3609 145.575C61.3919 146.863 60.3059 147.561 59.7566 148.526C58.5185 150.714 58.4781 150.693 57.3951 151.025ZM60.0297 157.703C60.5262 157.412 60.8892 157.43 61.0196 158.408C60.4858 158.237 60.2003 158.147 59.918 158.06C59.9707 157.88 59.9707 157.741 60.0297 157.703ZM65.3826 168.081C65.1933 168.407 64.8178 168.814 64.4733 168.978C63.8931 169.258 63.8403 169.264 63.1917 169.323C63.1483 169.326 63.108 169.329 63.0645 169.329C62.4315 169.329 61.8202 169.075 61.3733 168.625C60.9234 168.178 60.672 167.566 60.672 166.933C60.672 166.303 60.9234 165.692 61.3733 165.242C61.5968 165.022 61.8605 164.845 62.1491 164.727C62.5091 164.519 62.9187 164.404 63.3407 164.404C63.8434 164.404 64.3337 164.568 64.7402 164.863C64.765 164.869 64.7899 164.876 64.8116 164.882C65.4043 165.025 65.7208 165.509 65.6463 166.145C65.7084 166.359 65.7394 166.579 65.7301 166.797C65.7053 167.29 65.6308 167.65 65.3826 168.081ZM65.4291 159.364C65.4384 159.246 65.4508 159.125 65.4601 159.004C65.7487 159.035 66.0342 159.066 66.3197 159.091C66.3104 159.206 66.298 159.317 66.2887 159.429C66.0063 159.407 65.7177 159.386 65.4291 159.364ZM65.8139 174.493C65.5098 173.438 65.758 173.075 66.3104 172.932C66.4066 172.904 66.6765 173.171 66.6672 173.187C66.4593 173.544 66.2204 173.888 65.8139 174.493ZM65.9287 149.588C65.9132 149.619 65.9008 149.653 65.8853 149.684C65.8666 149.703 65.848 149.721 65.8263 149.74C65.7611 150.569 65.4818 151.217 64.6595 151.419C64.5478 151.317 64.4361 151.217 64.3244 151.115C64.8271 150.656 65.3267 150.196 65.8263 149.74C65.8294 149.706 65.8325 149.669 65.8356 149.638C65.8697 149.622 65.9008 149.603 65.9287 149.588C66.5555 148.08 67.1793 146.568 67.8216 145.066C68.0792 144.467 68.0978 144.473 69.3359 144.542C68.3088 146.388 67.9209 148.499 65.9287 149.588ZM68.0885 150.041C68.9822 148.322 69.9534 146.643 70.8844 144.945C70.993 144.75 71.0116 144.449 71.1667 144.355C71.4615 144.179 71.8401 144.014 72.1535 144.054C72.3087 144.076 72.5538 144.616 72.4887 144.846C72.2528 145.699 71.958 146.546 71.5888 147.353C70.6299 149.451 68.8829 151.475 67.0458 152.598C66.9279 151.391 67.7037 150.786 68.0885 150.041ZM68.5105 174.841C68.9108 173.5 69.8169 173.354 71.0364 173.24C70.3724 174.22 70.0093 175.185 68.5105 174.841ZM73.581 174.984C73.311 175.558 72.9169 176.07 72.5507 176.591C72.197 177.097 71.8339 176.973 71.4026 176.458C71.7532 174.909 72.7369 173.981 74.1147 173.292C74.4623 174.093 73.8137 174.487 73.581 174.984ZM72.6842 169.034C73.0472 168.069 73.3358 167.095 74.4343 166.635C74.7384 168.42 74.1644 169.205 72.6842 169.034ZM75.5484 177.55C75.1698 177.367 74.8967 177.237 74.5212 177.057C75.0643 176.21 75.5484 175.452 76.1566 174.503C76.6438 175.85 75.8121 176.57 75.5484 177.55ZM76.47 169.838C75.7283 169.034 76.1038 168.535 76.4265 167.992C77.0596 166.924 77.0409 166.915 78.2046 166.592C77.9346 167.877 77.2985 168.845 76.47 169.838ZM78.3722 156.26C78.1767 156.487 77.8384 156.592 77.5685 156.754C77.4506 156.651 77.3295 156.546 77.2116 156.437C78.1674 155.062 79.1759 153.715 80.0603 152.297C80.9385 150.885 81.6956 149.399 82.4993 147.962C83.3558 147.816 83.5854 148.319 83.362 148.93C83.002 149.911 82.6203 150.932 82.0152 151.773C80.895 153.334 79.6165 154.786 78.3722 156.26ZM79.5172 158.47C79.8306 157.465 82.0556 154.6 83.3868 153.486C83.784 155.733 81.5684 158.591 79.5172 158.47Z" fill="black"/>
</svg>
