<svg width="474" height="300" viewBox="0 0 474 300" fill="none" xmlns="http://www.w3.org/2000/svg">
<path fill-rule="evenodd" clip-rule="evenodd" d="M474 137.357C474 135.821 473.834 134.271 473.567 132.754C473.121 130.152 472.541 127.57 472.012 124.988C471.33 121.691 470.718 118.389 469.954 115.118C469.183 111.828 468.035 108.614 467.436 105.299C466.117 97.9917 464.378 90.8507 460.153 84.6213C457.317 80.4323 453.532 77.8181 448.887 79.0678C434.479 82.9444 419.739 85.2908 405.459 89.8752C389.706 94.9441 374.496 101.301 359.113 107.275C348.248 111.496 337.619 116.336 326.849 120.799C316.864 124.93 306.694 128.673 296.848 133.13C292.126 135.266 287.366 136.707 282.313 137.434C279.668 137.816 277.03 138.218 274.373 138.46C267.478 139.104 260.583 139.729 253.682 140.214C251.394 140.367 249.068 140.118 246.768 139.965C244.837 139.831 243.69 138.811 243.467 136.79C243.136 133.761 242.798 130.739 242.333 127.729C241.772 124.127 240.102 121.188 236.368 120.199C232.538 119.192 229.282 117.133 225.796 115.443C223.496 114.321 222.929 112.791 222.763 110.642C222.566 107.983 222.508 105.292 222.062 102.672C221.412 98.9418 222.521 94.5806 218.513 91.9282C218.169 91.7051 218.13 91.0482 217.901 90.621C215.199 85.6414 211.662 81.4269 206.966 78.1624C201.97 74.6875 198 70.2052 195.751 64.5369C193.336 58.4414 190.672 52.5053 187.435 46.7988C185.714 43.7638 184.249 40.4993 183.254 37.1583C182.184 33.5749 180.514 30.4379 178.08 27.7217C172.702 21.7282 165.488 19.7262 157.873 18.7634C156.223 18.553 154.369 18.9865 153.814 16.672C153.75 16.4106 153.209 16.2895 152.954 16.0472C151.577 14.7274 150.067 13.516 148.882 12.0367C146.008 8.43429 143.191 4.87012 139.196 2.33884C135.64 0.0944803 131.95 -0.753544 128.121 0.770324C125.718 1.72035 123.125 3.12936 121.589 5.09955C119.639 7.6117 118.537 10.8252 117.313 13.8411C115.669 17.8899 114.025 21.9641 112.821 26.1532C111.89 29.3858 109.889 30.5463 106.843 31.0309C96.6604 32.644 87.4841 36.4568 79.6716 43.3876C78.0722 44.8094 77.2246 46.225 77.1418 48.3163C77.0271 50.956 76.7213 53.5829 76.4791 56.3118C75.6826 56.4648 75.1027 56.5987 74.5164 56.6943C68.3352 57.689 67.4749 58.4732 66.2641 64.5241C64.9833 70.9639 64.2186 77.461 64.2505 84.0411C64.2569 85.3482 64.2505 86.6615 64.2505 88.1726C60.4844 88.6891 57.139 89.1355 53.7871 89.6137C49.1353 90.2704 44.6937 91.5265 41.3801 95.1162C39.787 96.8505 37.9518 98.6294 37.6969 101.084C37.3401 104.585 37.3017 108.123 37.2444 111.637C37.1743 115.641 37.2316 119.645 37.2316 123.878C35.3263 124.178 33.8861 124.344 32.4651 124.637C24.9712 126.199 17.4837 127.793 10.0025 129.381C8.2374 129.757 6.485 130.318 4.70074 130.484C1.56553 130.777 -0.39719 132.869 0.0679932 136.05C0.883656 141.572 1.68021 147.106 2.80174 152.577C6.26831 169.543 10.9839 186.147 18.2293 201.927C22.2247 210.643 26.3731 219.168 35.1606 224.473C40.9659 227.98 46.0447 232.685 51.8244 236.23C63.9893 243.684 77.1801 248.982 90.7214 253.401C96.9535 255.435 103.262 257.233 109.424 259.458C122.303 264.125 135.086 269.079 147.964 273.785C155.471 276.539 162.978 279.307 170.637 281.583C177.252 283.553 184.025 285.058 190.806 286.378C201.862 288.526 212.95 290.586 224.089 292.25C233.673 293.685 243.333 294.596 252.974 295.565C258.372 296.107 263.814 296.171 269.218 296.656C276.565 297.313 283.887 298.358 291.241 298.894C298.142 299.391 305.075 299.448 311.989 299.665C316.959 299.818 321.93 300.029 326.9 299.997C331.138 299.971 335.376 299.614 339.62 299.442C345.992 299.181 352.383 299.117 358.743 298.639C362.21 298.377 365.683 297.657 369.041 296.745C373.094 295.648 377.083 294.265 381.002 292.754C383.111 291.938 385.163 290.802 386.979 289.457C389.401 287.665 391.822 285.893 394.078 283.916C398.303 277.795 402.661 271.853 407.817 266.453C412.991 261.027 418.185 255.683 422.824 249.786C422.957 249.607 423.327 249.129 423.493 248.912C423.525 248.868 423.556 248.829 423.588 248.785C424.168 248.013 424.748 247.235 425.315 246.451C426.449 244.889 427.571 243.308 428.648 241.707C430.713 238.666 432.714 235.586 434.651 232.468C444.936 215.954 454.29 198.956 462.269 181.212C462.6 180.478 462.938 179.751 463.25 179.012C463.326 178.846 463.492 178.432 463.619 178.138C463.983 177.265 464.327 176.391 464.671 175.511C465.538 173.254 466.366 170.991 467.143 168.708C468.373 165.067 469.629 161.408 470.47 157.652C471.164 154.572 471.814 151.448 473.006 148.503C473.114 148.254 473.21 148.005 473.318 147.763C473.516 145.844 473.637 143.918 473.592 141.98C473.573 140.45 474 138.9 474 137.357ZM244.372 147.865C247.634 149.204 250.432 150.352 253.229 151.493C253.204 151.735 253.185 151.984 253.159 152.233C250.349 153.106 247.526 153.967 244.372 154.949V147.865ZM233.8 133.621C233.806 133.117 234.89 132.639 235.546 132.084C237.267 136.318 236.827 139.442 234.151 140.705C234.004 138.25 233.749 135.935 233.8 133.621ZM235.215 154.636C234.45 151.302 233.927 148.012 234.845 144.722C236.107 146.654 236.215 149.995 235.215 154.636ZM226.383 157.697C224.369 158.105 222.336 158.494 219.577 159.029C219.131 155.491 218.723 152.303 218.322 149.14C221.011 146.864 224.235 147.731 227.364 146.641C227.721 149.822 228.052 152.672 228.352 155.535C228.492 156.944 227.549 157.461 226.383 157.697ZM227.746 124.159C225.65 125.243 224.936 125.083 224.719 122.973C225.739 123.375 226.376 123.623 227.746 124.159ZM227.734 133.793C227.587 136.949 227.472 139.531 227.326 142.675C224.292 143.14 221.597 143.561 218.659 144.014C218.328 141.285 218.028 138.83 217.678 135.948C220.845 135.26 224.05 134.577 227.734 133.793ZM215.358 126.799C213.211 127.124 211.522 127.379 209.432 127.698C209.241 125.275 209.082 123.304 208.922 121.29C210.694 120.856 212.083 120.512 213.982 120.046C214.447 122.304 214.861 124.337 215.358 126.799ZM211.688 150.116C212.089 153.82 212.44 157.123 212.841 160.853C209.7 161 206.972 161.121 203.538 161.28C203.34 157.722 203.174 154.764 203.002 151.531C206.074 151.034 208.648 150.607 211.688 150.116ZM202.442 146.5C202.314 143.778 202.212 141.54 202.085 138.862C205.309 138.499 208.323 138.154 211.172 137.829C211.51 138.486 211.701 138.684 211.713 138.894C212.019 144.785 212.026 144.804 206.533 145.971C205.386 146.214 204.194 146.284 202.442 146.5ZM207.89 115.736C207.692 114.123 207.489 112.567 207.259 110.693C208.846 110.278 209.865 109.972 210.904 109.749C211.35 109.653 211.828 109.736 212.261 109.736C214.014 114.072 213.861 114.295 207.89 115.736ZM212.045 97.5646V105.12C210.719 105.394 209.362 105.675 207.801 105.994C207.457 103.501 207.151 101.282 206.781 98.5593C208.387 98.2469 210.044 97.9408 212.045 97.5646ZM205.666 128.323C201.505 128.743 197.618 129.145 193.31 129.585C193.132 126.977 192.972 124.758 192.807 122.367C196.675 121.5 200.262 120.537 204.347 121.558C204.736 123.604 205.15 125.696 205.666 128.323ZM162.34 154.369C164.061 156.811 163.201 159.833 164.43 163.053H154.337C154.184 160.075 154.037 157.359 153.884 154.369H162.34ZM153.527 142.114C156.541 141.189 159.447 141.648 162.735 142.554C162.576 145.104 162.436 147.227 162.289 149.542H153.973C152.54 147.164 152.884 144.722 153.527 142.114ZM164.201 166.61C164.43 168.23 164.66 169.811 164.972 171.941C161.716 172.132 158.778 172.304 155.401 172.495C155.127 170.532 154.885 168.836 154.572 166.61H164.201ZM149.666 126.767V117.483C155.796 118.586 161.595 119.626 167.782 120.735V129.317C161.41 128.973 155.305 127.978 149.666 126.767ZM89.9121 144.396C92.7223 145.162 95.354 145.786 97.9093 146.654C98.4892 146.845 99.0755 147.884 99.1328 148.585C99.2985 150.479 99.1902 152.398 99.1902 155.025C96.106 153.807 93.6271 152.921 91.2502 151.818C90.6385 151.531 90.0522 150.6 89.9758 149.899C89.7846 148.254 89.9121 146.583 89.9121 144.396ZM89.3704 140.163C89.2302 137.217 89.1028 134.603 88.9626 131.746C92.7796 131.447 95.5006 133.474 98.5211 134.137V142.069C95.4305 141.425 92.6394 140.845 89.3704 140.163ZM90.9253 156.479C93.6845 157.225 96.1123 157.844 98.502 158.577C98.999 158.723 99.7127 159.291 99.7318 159.705C99.9739 163.518 101.064 167.286 100.522 171.45C97.1765 170.799 94.1369 170.219 90.9188 169.594V156.479H90.9253ZM99.9548 115.15C96.2971 113.543 92.7286 111.719 89.0135 110.253C86.6876 109.335 85.9038 107.747 85.9229 105.503C85.9357 104.055 86.0503 102.621 86.1396 100.67C87.3949 100.976 88.5165 101.148 89.5743 101.518C93.1173 102.748 96.6158 104.145 100.184 105.286C102.115 105.904 102.924 106.963 102.918 108.958C102.905 111.19 103.122 113.409 103.262 116.03C101.758 115.647 100.802 115.519 99.9548 115.15ZM82.6157 142.025C83.0171 142.413 83.3612 143.013 83.4377 143.555C83.6544 145.219 83.7372 146.902 83.9093 149.051C79.8628 148.809 76.8806 147.043 73.7326 145.857C73.2165 145.665 72.7321 144.785 72.6429 144.16C72.4326 142.624 72.4517 141.055 72.3816 139.512C74.0576 139.429 81.9211 141.33 82.6157 142.025ZM72.4199 124.127C76.0903 125.415 79.4932 126.614 83.0043 127.851V138.754C79.525 137.262 76.4281 135.961 73.3694 134.565C72.9297 134.36 72.4772 133.627 72.4581 133.117C72.3752 130.356 72.4199 127.583 72.4199 124.127ZM73.0889 150.677C76.6702 151.939 80.0412 153.074 83.3484 154.375C83.8519 154.573 84.3044 155.497 84.3745 156.128C84.7504 159.718 84.999 163.32 85.324 167.433C81.0162 166.681 77.7536 165.067 74.612 163.346C73.6816 162.842 73.2483 160.885 73.14 159.552C72.9361 156.81 73.0889 154.031 73.0889 150.677ZM85.2856 80.5534C85.4258 79.7437 85.4832 78.9147 85.6362 77.6203C91.3076 79.6862 95.8765 83.3587 101.344 85.2333V92.0557C99.923 91.4946 98.7313 91.0929 97.5907 90.5701C94.5192 89.161 91.5115 87.5861 88.3954 86.2854C85.7063 85.1696 84.8077 83.2951 85.2856 80.5534ZM85.496 89.7221C90.9125 91.7114 95.9849 93.5732 101.306 95.5243C101.44 97.8834 101.561 99.8855 101.688 102.174C96.1123 100.912 91.4031 98.4063 86.5474 96.3341C86.0439 96.1237 85.6043 95.2246 85.5469 94.6125C85.4067 93.095 85.496 91.5647 85.496 89.7221ZM93.6463 74.7257C91.0145 73.0935 91.3395 70.0457 91.4478 67.4953C91.5561 65.0023 92.4418 62.5539 92.9771 60.1501C95.9912 59.9652 98.6231 61.0554 105.18 65.117C104.734 69.8288 104.269 74.6492 103.759 80.0306C100.031 78.0987 96.7114 76.6258 93.6463 74.7257ZM104.798 136.477C106.053 136.56 106.665 136.516 107.232 136.643C109.813 137.249 112.387 137.893 115.37 138.632C115.255 140.966 115.153 143.179 115.013 145.92C111.871 145.327 109.15 144.938 106.518 144.237C105.817 144.052 104.983 142.981 104.874 142.222C104.632 140.462 104.798 138.658 104.798 136.477ZM115.064 150.651C115.408 153.304 115.72 155.663 116.083 158.475C112.496 158.806 109.373 157.812 106.009 156.836C105.824 154.305 105.639 151.958 105.429 149.057C108.908 149.631 111.922 150.135 115.064 150.651ZM115.669 162.466C116.083 162.555 116.6 163.32 116.651 163.818C116.995 167.159 117.224 170.519 117.504 174.064C114.012 174.887 110.941 174.313 107.353 174.262C107.035 169.767 106.741 165.609 106.41 160.827C109.864 161.414 112.789 161.867 115.669 162.466ZM108.175 117.936C108.29 114.314 105.473 111.662 106.64 108.155C111.508 109.239 116.313 110.406 121.169 111.356C123.265 111.764 123.921 112.79 123.94 114.831C123.96 116.833 124.425 118.822 124.794 121.532C118.874 120.251 113.585 119.109 108.175 117.936ZM127.745 99.9173C127.745 98.8461 127.687 98.0173 127.764 97.2076C127.828 96.4998 128.038 95.7984 128.216 94.9121C131.167 94.7272 133.652 96.2064 136.316 96.7803C139.03 97.3733 141.745 97.9088 144.784 98.5337V102.748C138.826 102.908 133.499 100.778 127.745 99.9173ZM144.581 107.377V112.395C141.063 112.701 130.192 110.661 127.222 109.112V105.26C133.085 104.999 138.61 106.81 144.581 107.377ZM142.535 91.9154C136.551 91.1503 131.135 88.8549 125.349 86.6679V74.3049C131.925 75.4844 137.679 78.5386 143.383 80.5025C143.089 84.3982 142.828 87.9623 142.535 91.9154ZM134.111 71.0149C129.312 68.9809 125.094 67.1828 120.869 65.4166C119.48 64.83 119.066 63.8163 119.614 62.4901C120.487 60.3797 121.379 58.2629 122.424 56.2353C122.972 55.1705 123.838 54.2715 124.59 53.3215C129.943 46.5055 132.734 46.1548 140.043 51.1663C136.672 57.1406 135.659 63.8164 134.111 71.0149ZM121.64 72.3219V84.7169C119.55 84.7998 110.495 82.6128 109.29 81.6182C108.723 81.1527 108.258 80.2728 108.194 79.5459C107.837 75.4334 107.837 71.3336 109.157 66.8003C113.413 68.6812 117.555 70.5175 121.64 72.3219ZM121.761 91.858C121.984 94.1661 122.163 95.9387 122.36 97.9917C116.848 97.9216 112.534 94.7399 107.449 94.0003V87.6562C112.451 89.1227 117.033 90.468 121.761 91.858ZM112.069 99.7706C114.401 100.415 116.714 101.142 119.053 101.766C123.297 102.914 123.437 103.093 123.036 108.474C117.466 107.212 112.183 106.013 106.716 104.782V98.4317C108.653 98.9099 110.374 99.3052 112.069 99.7706ZM121.615 139.933C125.119 139.398 128.382 139.997 131.708 140.679V148.496C127.993 147.82 124.922 147.259 121.615 146.654V139.933ZM131.88 152.054C132.664 154.885 132.957 157.544 132.499 160.745C129.153 160.324 125.992 159.916 122.449 159.463C122.214 156.919 121.991 154.598 121.755 152.054H131.88ZM123.348 163.422C126.362 163.824 128.981 164.162 131.6 164.506C132.964 164.685 133.352 165.648 133.442 166.821C133.588 168.861 133.697 170.908 133.862 173.484H124.074C123.22 170.328 123.329 167.031 123.348 163.422ZM129.389 122.508C129.918 119.441 126.298 117.094 128.172 113.517C133.703 114.55 139.247 115.583 144.823 116.622C145.071 119.747 145.281 122.406 145.536 125.587C139.935 125.938 134.958 123.247 129.389 122.508ZM138.176 141.801C138.374 141.674 138.469 141.578 138.584 141.553C147.002 139.838 148.111 140.89 147.008 150.097C144.561 149.886 142.063 149.803 139.636 149.357C139.03 149.242 138.342 147.954 138.246 147.145C138.03 145.359 138.176 143.542 138.176 141.801ZM147.314 154.139C147.531 156.613 147.767 159.316 148.009 162.096C144.651 163.461 142.274 161.306 139.349 160.56C139.132 158.143 138.915 155.778 138.667 153.036C141.656 153.418 144.262 153.75 147.314 154.139ZM148.34 165.839C148.493 168.447 148.621 170.468 148.761 172.814H140.668C140.432 170.838 140.196 168.836 139.903 166.375C142.733 166.196 145.211 166.037 148.34 165.839ZM156.389 72.3092C156.675 69.5739 156.707 66.8387 156.707 64.097C156.707 62.4328 158.797 59.2703 158.855 58.7028C161.072 58.6646 162.226 58.4669 163.08 58.8686C163.226 58.8495 163.385 58.8431 163.538 58.8431H164.481C166.999 58.8431 169.101 60.9407 169.101 63.4656C169.101 64.0203 171.587 74.9488 173.02 80.1261C167.145 80.6298 162.347 79.9222 157.338 78.1305C157.567 77.3335 156.248 73.6865 156.389 72.3092ZM149.13 108.946C152.349 107.856 161.117 108.563 167.304 110.521C167.387 112.229 167.47 114.091 167.585 116.38C161.824 115.679 156.796 115.054 151.756 114.455C149.22 114.155 148.041 112.293 149.13 108.946ZM149.245 98.6103C154.802 99.063 160.085 99.4965 165.686 99.9492C165.998 101.919 166.291 103.768 166.693 106.319C160.403 105.605 154.878 104.967 149.494 104.355C148.155 102.302 148.882 100.625 149.245 98.6103ZM167.088 93.9112C166.826 91.2715 166.597 88.9187 166.342 86.3938H179.558C180.075 88.9506 180.54 91.2588 181.075 93.9112H167.088ZM185.549 93.841V86.464C188.818 86.0304 191.965 85.6095 194.948 85.2142C195.279 85.8136 195.502 86.024 195.477 86.2025C195.177 88.3193 195.062 90.4999 194.432 92.5147C194.132 93.4775 188.008 94.2171 185.549 93.841ZM187.39 110.304V118.07C185.536 118.07 183.643 118.153 181.763 118.051C179.476 117.923 177.188 117.674 174.913 117.419C172.065 117.088 171.644 116.629 171.568 113.772C171.542 112.714 171.682 111.656 171.759 110.304H187.39ZM186.339 100.115C186.574 102.092 186.804 104.055 187.091 106.472C181.916 106.835 177.035 106.727 171.682 106.504V100.115H186.339ZM180.094 142.248V149.402H168.827C168.579 147.157 168.33 144.932 168.031 142.248H180.094ZM174.531 153.546C176.455 153.438 178.38 153.521 180.712 153.521C181.132 156.683 181.547 159.75 182.018 163.276C178.08 163.563 174.626 163.824 170.72 164.111C170.191 160.687 169.732 157.646 169.21 154.254C171.421 153.954 172.969 153.642 174.531 153.546ZM172.836 167.828C175.824 167.752 178.813 167.618 182.796 167.471C181.999 168.6 181.655 169.62 181.139 169.722C178.405 170.251 175.633 170.634 172.855 170.857C172.288 170.902 171.249 170.143 171.134 169.601C170.892 168.504 171.618 167.854 172.836 167.828ZM176.914 131.192C174.263 131.185 173.498 130.299 173.11 127.71C172.848 125.925 172.772 124.108 172.6 122.144C173.237 121.959 173.792 121.647 174.346 121.653C177.87 121.704 181.387 121.8 184.911 121.934C188.078 122.048 188.161 122.131 188.728 125.485C188.964 126.907 189.091 128.335 189.372 130.599C184.86 130.835 180.884 131.198 176.914 131.192ZM194.769 140.023C196.018 142.037 196.05 142.337 195.483 147.782C192.615 148.222 189.894 148.649 186.829 149.121C186.6 146.501 186.396 144.154 186.16 141.489C189.187 140.972 192.004 140.488 194.769 140.023ZM196.343 152.558C196.554 155.65 196.751 158.487 196.955 161.554C193.845 161.848 191.258 162.09 188.454 162.351C187.995 159.265 187.581 156.549 187.173 153.763C190.194 152.124 193.138 152.405 196.343 152.558ZM196.987 166.693C194.068 167.892 191.5 168.319 188.824 167.612C190.927 165.935 192.271 165.839 196.987 166.693ZM198.535 117.885C196.394 118.197 194.209 118.255 192.067 118.421C191.653 117.668 191.443 117.47 191.424 117.254C190.787 109.15 189.589 110.859 197.095 110.304C199.128 110.157 201.18 110.278 203.034 110.278C203.359 110.731 203.589 110.916 203.614 111.114C204.347 117.604 204.653 116.979 198.535 117.885ZM202.779 106.23C198.835 106.446 194.846 106.669 190.793 106.893C190.691 105.917 190.621 105.445 190.615 104.973C190.595 103.424 190.608 101.881 190.608 99.9173C194.03 99.5348 197.223 99.1777 200.332 98.8207C202.786 100.765 203.538 103.067 202.779 106.23ZM200.976 84.0602C201.237 84.1431 201.505 84.2133 201.772 84.2962C201.205 86.2409 200.645 88.1855 200.077 90.1365C199.803 90.0791 199.529 90.0155 199.249 89.9581C199.498 87.8859 199.313 85.686 200.976 84.0602ZM195.324 76.2623C195.324 76.2623 195.33 76.2623 195.336 76.2623C195.336 76.2623 195.33 76.2686 195.33 76.275C195.814 77.0274 196.292 77.7799 196.84 78.6343C194.897 78.7235 194.89 78.7234 195.33 76.275L195.324 76.2623C193.469 76.3516 193.469 76.3516 192.788 74.3368C193.82 75.1274 194.572 75.6885 195.324 76.2623ZM186.014 60.7877C187.804 62.2032 187.862 64.6325 189.092 66.3732C188.83 66.539 188.569 66.711 188.314 66.8768C187.237 65.0213 186.167 63.166 185.096 61.3106C185.402 61.132 185.708 60.9599 186.014 60.7877ZM182.203 61.8972C185.599 67.1957 188.894 72.5706 190.933 78.5895C191.003 78.7808 190.876 79.0423 190.799 79.6226C187.288 80.6427 183.618 80.4323 179.711 80.3048C178.494 73.5781 174.652 67.7122 174.512 60.5519C176.487 60.5519 178.169 60.4115 179.82 60.6155C180.661 60.7176 181.763 61.2214 182.203 61.8972ZM154.693 31.7003C154.929 29.9532 154.732 28.1424 154.732 25.6239C156.745 26.6568 158.16 27.2436 159.415 28.0661C162.06 29.8004 164.615 31.6493 167.222 33.441C168.216 34.1296 169.152 35.1242 170.261 35.4175C177.634 37.3686 179.004 43.5789 180.584 49.6616C181.005 51.3003 181.387 52.9517 181.98 55.3809C179.552 55.6423 177.43 56.0185 175.295 56.0695C169.802 56.2098 164.418 55.349 159.11 53.9399C156.771 53.3214 155.452 52.1992 155.203 49.483C154.668 43.5533 153.884 37.6746 154.693 31.7003ZM162.054 85.6287C162.379 88.1791 162.716 90.8761 163.137 94.2044C157.427 93.5987 152.31 93.0631 146.792 92.4766C146.658 88.6828 146.014 85.3227 147.518 81.8414C152.355 83.1038 157.013 84.3152 162.054 85.6287ZM144.313 56.4647C145.027 54.7432 146.307 54.1057 148.136 54.6668C148.716 54.8453 149.309 55.0239 149.908 55.0813C152.049 55.2917 153.241 56.3818 153.266 58.6007C153.298 60.998 153.451 63.4146 153.298 65.8056C153.081 69.1721 152.629 72.5387 152.24 76.1411C147.76 75.7394 142.79 74.0753 140.069 71.9903C140.732 70.3517 141.624 63.9248 141.974 62.5794C142.522 60.4817 143.478 58.4796 144.313 56.4647ZM126.451 10.5064C128.312 12.2598 130.007 13.7902 131.619 15.3969C134.41 18.1769 137.507 20.5295 141.184 21.945C142.822 22.5762 143.491 23.6027 143.497 25.2159C143.516 31.4197 143.561 37.6174 143.504 43.8149C143.491 45.3515 143.147 46.8817 142.898 48.8965C140.12 47.4619 137.788 46.212 135.417 45.0516C131.046 42.8965 120.767 34.6269 119.416 33.4665C117.657 31.949 119.142 28.576 119.206 28.5378C118.715 25.6367 124.444 13.5158 126.451 10.5064ZM119.818 40.4354C122.061 41.5512 124.157 42.954 126.477 44.3503C122.086 50.3374 117.014 55.4574 114.159 62.0502C108.768 60.4944 102.701 57.5422 100.324 55.3043C101.841 52.3522 104.231 50.1206 106.824 48.1312C110.195 45.549 113.687 43.1071 117.218 40.7352C117.88 40.3017 119.148 40.0975 119.818 40.4354ZM88.2743 43.9104C89.6253 42.5651 91.1546 41.1623 92.8815 40.4673C98.7186 38.1145 104.715 36.189 111.043 35.5769C111.502 35.5323 111.967 35.5705 112.967 35.5705C109.188 38.1145 105.55 40.0402 102.574 42.7118C99.5598 45.428 97.2147 48.8774 94.258 52.3842C92.1169 50.8157 90.1861 49.5659 88.4528 48.0867C86.5602 46.4863 86.5028 45.6766 88.2743 43.9104ZM84.3808 52.8751C85.8082 53.8698 87.2612 54.5774 88.2361 55.6932C88.7778 56.3117 88.7522 57.6763 88.5674 58.6263C87.8728 62.2989 87.0062 65.9396 86.044 70.3072C84.0367 68.828 82.0676 67.3868 79.6844 65.6398C84.9288 62.5538 82.2588 57.1726 84.3808 52.8751ZM71.9037 67.846C74.064 69.2997 75.6825 70.5239 77.4158 71.5377C80.003 73.0488 81.0926 75.2421 80.9206 78.1751C80.8632 79.1123 80.9079 80.0497 80.9079 81.2421C76.7531 80.139 73.8856 77.5566 71.9611 74.4132C71.018 72.883 71.8591 70.2625 71.9037 67.846ZM70.5719 82.1091C74.2806 84.0793 77.4795 85.6988 80.5892 87.4904C81.1946 87.8411 81.6853 88.7594 81.7937 89.4862C81.9848 90.7614 81.8509 92.0877 81.8509 94.1599C77.83 92.2024 74.3762 90.5957 71.0243 88.804C70.5018 88.5235 70.2278 87.3822 70.2023 86.6298C70.1641 85.3355 70.3999 84.0347 70.5719 82.1091ZM69.8773 93.1461C74.0512 95.2311 78.0276 97.2139 82.2334 99.318V106.689C78.3972 104.017 74.3634 102.837 71.0561 100.019C68.5582 97.8897 68.8641 95.8687 69.8773 93.1461ZM67.1563 147.891V159.316C64.4161 157.812 62.052 156.683 59.8982 155.229C59.1462 154.719 58.5855 153.45 58.5154 152.481C58.337 149.714 58.4516 146.934 58.4516 143.434C61.6506 145.066 64.2951 146.418 67.1563 147.891ZM66.621 143.351C65.1107 142.643 64.1166 142.203 63.1608 141.725C57.3811 138.849 56.7502 137.383 58.4389 130.197C59.4075 130.777 60.3188 131.243 61.1472 131.823C61.8354 132.307 62.3452 133.143 63.0844 133.449C67.7171 135.33 66.997 139.092 66.621 143.351ZM65.5314 120.148C65.9519 120.448 66.3088 121.143 66.3215 121.672C66.4043 124.408 66.3597 127.143 66.3597 130.758C63.4412 128.539 61.0707 126.792 58.7767 124.937C58.3752 124.618 58.1904 123.885 58.1394 123.317C57.9164 120.818 57.7762 118.312 57.5404 114.875C60.7776 116.992 63.1863 118.523 65.5314 120.148ZM63.0589 93.5541C63.7089 95.6837 63.4029 96.8058 61.3893 97.0609C57.9418 97.5008 54.5135 98.2469 51.0533 98.419C49.3965 98.5019 47.6951 97.5647 45.2354 96.8824C51.4166 93.3565 57.3684 94.281 63.0589 93.5541ZM44.63 136.044C47.0133 137.313 49.3583 138.467 51.5759 139.825C52.1685 140.195 52.6145 141.183 52.6846 141.929C52.9523 144.671 53.0351 147.419 53.2072 150.543C45.0569 147.992 43.5595 145.347 44.63 136.044ZM43.9418 130.58C43.6933 127.022 43.553 123.464 43.33 119.013C46.65 121.545 49.3456 123.483 51.8945 125.606C52.3979 126.027 52.4553 127.149 52.4807 127.953C52.5508 130.478 52.5062 133.009 52.5062 136.465C49.4475 134.673 47.1535 133.385 44.9295 131.995C44.4707 131.708 43.98 131.083 43.9418 130.58ZM43.6996 103.29C46.6245 105.694 49.1416 107.703 51.5695 109.826C52.041 110.234 52.366 111.069 52.3787 111.726C52.468 114.735 52.4171 117.732 52.4171 121.341C48.9505 119.664 46.5863 117.477 44.254 115.252C43.9163 114.933 43.5849 114.448 43.5531 114.021C43.2918 110.591 43.1707 107.16 43.6996 103.29ZM37.0469 129.33C37.2699 129.572 37.3973 129.649 37.4228 129.744C39.1561 135.668 38.4807 136.586 32.6564 137.963C27.7496 139.124 22.9448 140.724 17.42 142.324C15.5465 140.175 13.2334 137.517 10.4614 134.354C19.6822 132.614 28.2849 130.988 37.0469 129.33ZM15.7186 165.533C13.0932 164.258 11.5765 162.415 11.1241 159.469C10.455 155.057 9.75406 150.664 9.67759 146.214C9.93248 146.112 10.181 146.01 10.4359 145.908C12.1883 147.387 13.9661 148.834 15.6994 150.333C25.9207 159.189 37.3336 166.1 50.0592 170.595C61.0388 174.472 72.0185 178.572 83.8264 179.299C89.5233 179.656 95.2202 179.943 100.93 180.159C104.811 180.3 108.71 180.357 112.591 180.3C121.098 180.172 129.599 179.924 138.106 179.783C141.63 179.72 145.154 179.936 148.678 179.79C162.277 179.222 175.818 178.068 189.225 175.626C198.421 173.943 207.705 172.731 216.85 170.831C226.351 168.855 235.769 166.464 245.149 163.984C252.885 161.93 260.577 159.667 268.16 157.129C272.391 155.714 276.342 153.489 280.471 151.742C284.129 150.199 287.857 148.802 291.553 147.342C296.861 145.257 302.188 143.242 307.465 141.087C313.977 138.422 320.458 135.674 326.926 132.9C328.57 132.199 330.08 131.173 331.718 130.433C338.122 127.519 344.596 124.746 350.962 121.749C358.093 118.389 365.084 114.71 372.24 111.381C384.545 105.656 396.964 100.211 410.193 96.876C412.883 96.2002 436.371 89.1928 444.91 88.1726C446.707 87.9558 448.472 87.4905 450.435 87.0952C451.168 90.2067 450.097 93.0122 449.479 95.7539C448.135 101.652 446.306 107.435 444.999 113.339C444.432 115.883 443.12 117.126 440.787 117.694C435.122 119.077 429.515 120.748 423.799 121.812C414.495 123.553 405.064 124.605 395.798 126.512C388.457 128.016 381.282 130.356 374.024 132.327C372.278 132.798 370.526 133.289 368.754 133.685C359.954 135.655 351.319 138.052 343.226 142.171C341.499 143.051 339.639 143.67 337.816 144.346C330.635 146.979 323.421 149.535 316.258 152.22C309.771 154.649 303.38 157.308 296.867 159.667C288.424 162.727 280 165.947 271.391 168.466C261.603 171.322 251.604 173.433 241.715 175.951C233.348 178.075 225.089 180.625 216.652 182.41C206.781 184.489 196.783 185.936 186.842 187.67C181.821 188.55 176.806 189.488 171.778 190.348C170.465 190.565 169.108 190.718 167.789 190.648C159.498 190.195 151.361 191.809 143.147 192.357C141.095 192.497 139.037 192.688 136.978 192.676C129.561 192.644 122.112 192.969 114.745 192.35C104.581 191.496 94.4236 190.24 84.368 188.531C74.0767 186.784 63.7981 184.699 53.7234 181.958C46.4079 179.962 38.9585 178.068 32.2739 174C27.004 170.78 21.2944 168.256 15.7186 165.533ZM389.044 274.996C387.948 276.999 386.38 278.765 384.927 280.544C384.328 281.27 383.519 281.921 382.671 282.335C379.096 284.089 375.509 285.804 371.876 287.423C366.16 289.974 360.075 291.185 353.894 291.523C344.928 292.02 335.93 291.931 326.958 292.409C318.31 292.875 309.727 292.142 301.118 291.67C296.02 291.383 290.916 291.249 285.83 290.866C280.267 290.458 274.723 289.795 269.16 289.323C257.422 288.329 245.646 287.678 233.953 286.326C223.961 285.172 214.033 283.394 204.124 281.602C194.572 279.874 185.007 278.102 175.601 275.742C168.553 273.976 161.709 271.337 154.834 268.92C146.008 265.821 137.227 262.576 128.446 259.35C126.05 258.47 123.737 257.373 121.328 256.532C113.292 253.739 105.238 251.029 97.1893 248.268C85.6872 244.321 74.1405 240.502 63.2947 234.878C55.8135 231.002 48.721 226.532 42.1766 221.24C40.3095 219.736 31.2862 211.708 30.9039 211.134C26.4369 204.414 22.811 197.273 20.3003 189.59C20.2366 189.398 20.3767 189.131 20.5169 188.372C22.4223 189.048 24.2766 189.711 26.1246 190.374C28.2976 191.145 30.426 192.331 32.6564 192.612C38.0984 193.281 42.8266 195.819 47.6823 197.936C57.3301 202.138 67.2137 205.313 77.6707 206.639C86.3563 207.736 95.0099 209.202 103.721 209.936C112.916 210.701 122.169 210.892 131.402 211.141C149.188 211.612 166.884 209.974 184.586 208.533C189.678 208.125 194.808 208.106 199.88 207.57C206.998 206.811 214.084 205.746 221.176 204.796C227.555 203.948 233.959 203.215 240.306 202.189C245.691 201.322 251.031 200.193 256.365 199.052C263.349 197.541 270.365 196.151 277.24 194.238C286.213 191.751 295.255 189.43 303.851 185.713C306.636 184.514 309.574 183.685 312.416 182.608C318.31 180.37 324.116 177.902 330.08 175.888C334.534 174.389 339.193 173.497 343.73 172.26C347.935 171.106 352.084 169.76 356.302 168.657C364.746 166.438 373.208 164.27 381.69 162.173C390.274 160.056 398.857 157.939 407.492 156.058C415.304 154.349 423.174 152.953 431.018 151.442C431.586 151.327 432.191 151.423 433.3 151.423C433.179 152.959 433.255 154.075 432.994 155.102C430.158 166.285 427.552 177.545 424.315 188.608C420.772 200.722 416.929 212.773 412.66 224.645C409.378 233.769 405.523 242.708 401.406 251.488C397.653 259.496 393.281 267.224 389.044 274.996ZM452.665 192.892C449.658 198.962 446.605 205.026 443.145 210.841C433.434 227.17 421.791 242.096 409.27 256.346C408.97 256.684 408.505 256.869 408.116 257.124C407.849 256.991 407.581 256.85 407.32 256.716C407.657 255.76 407.791 254.663 408.358 253.873C409.843 251.775 426.704 204.025 427.367 201.851C428.782 197.234 430.235 192.637 431.739 188.047C432.325 186.249 438.487 161.172 438.723 159.45C438.818 158.768 439.073 158.105 439.385 156.951C440.131 157.882 440.692 158.424 441.068 159.08C442.737 162.045 444.114 165.208 446.038 167.981C450.18 173.949 451.76 180.829 453.43 187.658C453.819 189.271 453.424 191.375 452.665 192.892ZM465.48 145.99C465.213 146.022 464.945 146.054 464.671 146.086C462.969 142.528 461.338 138.945 459.56 135.419C457.164 130.656 454.94 125.766 452.098 121.277C450.346 118.51 450.722 115.877 451.302 113.256C451.799 111.005 456.444 92.3362 456.865 91.8006C458.776 94.2553 458.77 97.1437 459.426 99.7706C460.51 104.125 461.427 108.525 462.307 112.924C463.887 120.882 466.035 128.762 466.022 136.956C466.022 139.965 465.671 142.981 465.48 145.99Z" fill="black"/>
</svg>
