<svg width="182" height="300" viewBox="0 0 182 300" fill="none" xmlns="http://www.w3.org/2000/svg">
<path fill-rule="evenodd" clip-rule="evenodd" d="M163.803 260.897C162.739 257.056 160.547 253.786 158.884 250.25C157.682 247.682 156.455 245.033 154.724 242.827C149.592 236.273 144.223 229.907 138.899 223.506C136.903 221.098 134.803 218.768 132.7 216.448C126.136 209.199 121.961 200.585 118.404 191.605C115.911 185.31 113.641 178.908 110.861 172.745C104.438 158.509 96.9338 144.851 87.9754 132.038C85.5638 128.59 83.1628 125.104 80.3859 121.958C77.5345 118.721 75.4776 114.958 72.7149 111.642C68.2179 106.244 62.5719 102.538 56.3514 100.009C48.0597 96.6399 39.4275 97.3138 31.0329 100.381C24.9826 102.591 20.1204 106.662 15.705 111.11C9.67595 117.185 5.83868 124.725 2.89155 132.722C0.898423 138.124 -0.0768452 143.77 0.00472403 149.444C0.146584 159.218 1.84886 168.773 5.78547 177.82C7.38493 181.497 8.73614 185.324 10.7293 188.782C14.7439 195.747 19.2408 202.401 24.2591 208.72C29.6533 215.505 35.3171 221.945 42.2363 227.233C48.0135 231.649 53.7801 236.071 60.3234 239.316C66.5369 242.398 72.2006 246.314 77.1621 251.091C82.106 255.847 86.6596 261.01 91.3587 266.018C96.2741 271.249 100.959 276.672 104.704 282.821C107.889 288.045 112.162 292.135 117.33 295.337C122.451 298.511 127.888 300.554 134.055 299.87C137.272 299.515 140.488 299.15 144.506 298.699C146.092 298.118 148.432 297.419 150.631 296.397C152.305 295.621 153.88 294.55 155.345 293.415C157.036 292.106 158.66 290.68 160.132 289.131C161.342 287.857 162.391 286.396 163.31 284.896C164.115 283.584 164.945 282.155 165.225 280.679C166.498 273.976 165.608 267.412 163.803 260.897ZM140.361 236.965C141.13 235.919 142.396 235.894 143.4 236.99C147.12 241.054 150.372 245.473 153.043 250.303C153.692 251.484 153.529 252.58 152.309 253.368C151.497 253.892 150.681 254.417 149.865 254.935C148.237 251.832 147.17 248.757 145.233 246.399C143.379 244.147 140.616 242.643 138.073 240.671C138.74 239.582 139.456 238.203 140.361 236.965ZM118.894 262.078C118.408 262.227 117.681 262.131 117.252 261.858C115.528 260.762 113.875 259.546 111.982 258.226C113.407 255.722 115.372 254.286 117.521 253.084C117.989 252.821 118.645 252.719 119.181 252.797C122.312 253.233 125.313 256.088 126.299 259.56C123.845 260.407 121.383 261.298 118.894 262.078ZM124.16 269.27C122.986 269.774 122.139 270.139 121.199 270.543C120.326 269.316 119.575 268.188 118.748 267.128C117.989 266.156 118.099 265.312 119.05 264.631C119.876 264.036 120.706 264.128 121.32 265.032C122.227 266.376 123.125 267.724 124.16 269.27ZM118.911 272.083C117.819 273.029 117.028 273.714 116.181 274.448C113.801 273.366 112.687 271.363 111.659 269.561C112.78 268.54 113.773 267.628 115.056 266.458C116.801 267.805 117.55 269.983 118.911 272.083ZM95.0506 225.425C95.9621 228.531 96.299 231.702 96.4515 235.319C95.0223 235.096 93.8661 234.919 92.3766 234.692C93.898 233.025 94.0647 231.702 93.7278 229.737C93.0007 225.495 92.9866 221.108 94.2491 216.902C94.4974 216.888 94.7456 216.87 94.9939 216.853C95.3415 217.75 95.7777 218.622 96.0047 219.548C96.1181 220.027 96.0543 220.793 95.7422 221.098C94.4194 222.41 94.6002 223.9 95.0506 225.425ZM99.927 251.474C99.2851 252.023 98.7957 252.438 97.7743 253.307C98.0155 251.974 98.1467 251.254 98.3418 250.162C99.0404 250.74 99.4305 251.062 99.927 251.474ZM88.1988 197.499C88.3726 200.879 87.2803 204.216 89.2379 207.231C83.9714 205.394 83.5529 201.542 88.1988 197.499ZM88.7059 220.559C89.2095 225.127 89.7132 229.698 90.238 234.465C87.7874 234.791 85.5212 235.085 83.0564 235.408C82.8046 229.414 85.8652 225.073 88.7059 220.559ZM69.64 187.207C69.2286 187.502 68.7357 187.725 68.4236 188.105C66.1645 190.814 63.9479 193.552 61.7172 196.279C60.7064 197.521 59.6921 198.549 57.8054 198.386C56.8585 198.304 55.8478 198.989 54.8228 199.344C53.9681 197.567 54.8015 196.602 55.8016 195.566C58.8268 192.449 61.7845 189.261 64.7671 186.097C64.6004 185.927 64.4373 185.757 64.2706 185.587C61.0078 188.686 57.7416 191.793 54.1844 195.169C53.7695 193.212 53.312 191.804 53.2304 190.371C53.1843 189.615 53.5993 188.622 54.149 188.08C55.8087 186.424 57.5926 184.877 59.4332 183.416C59.9545 182.998 60.9866 182.671 61.515 182.905C63.7316 183.877 65.8666 183.693 68.2392 182.685C68.9201 185.892 70.9699 187.523 73.91 187.991C73.3284 190.587 67.5369 198.936 63.8592 202.589C62.4371 202.365 60.866 202.365 59.5609 200.925C61.4902 198.638 63.4549 196.474 65.2353 194.173C66.895 192.027 69.1329 190.25 70.1614 187.668C69.9841 187.516 69.8103 187.363 69.64 187.207ZM31.7635 123.696C32.7459 122.923 33.6325 122.225 34.7745 121.324C35.4271 122.051 36.1328 122.586 36.5087 123.303C38.9133 127.849 41.9277 132.119 43.1832 137.315C41.8639 138.308 40.917 138.436 40.0552 137.368C39.0303 136.095 33.4303 126.395 31.7635 123.696ZM39.814 146.738C40.4382 151.402 41.2859 156.041 42.2008 160.658C44.2826 171.152 46.7084 181.583 48.5278 192.119C49.7584 199.251 50.911 206.5 49.1023 213.764C49.0136 214.125 48.8789 214.476 48.6767 215.111C43.9103 211.515 40.761 207.238 38.4877 202.035C35.6789 195.613 33.058 189.172 32.0118 182.235C30.8592 174.599 31.4869 166.957 32.6714 159.367C33.5013 154.037 34.4269 148.721 35.3136 143.401C35.3703 143.046 35.4554 142.699 35.5334 142.308C38.1933 142.755 39.4629 144.114 39.814 146.738ZM46.8503 132.162C48.01 132.641 48.8257 132.875 49.5421 133.286C56.6918 137.418 64.3522 140.443 71.9169 143.688C77.1338 145.922 81.3895 149.416 84.9006 153.93C89.6032 159.974 91.9439 167.244 95.5826 173.837C95.6961 174.039 95.6145 174.355 95.6358 174.975C94.9513 174.521 94.4513 174.263 94.0399 173.911C87.8406 168.641 81.613 163.41 75.4811 158.062C69.8706 153.171 64.4905 148.004 58.77 143.245C55.791 140.769 52.8438 138.077 49.0775 136.74C46.9318 135.978 47.4639 134.12 46.8503 132.162ZM64.4976 127.246C64.3877 127.019 64.2742 126.789 64.1642 126.558C64.5969 125.462 65.0261 124.37 65.5616 123.012C67.3774 124.973 68.8917 126.633 69.7216 129.357C67.7214 128.452 66.966 125.881 64.4976 127.246ZM67.0511 133.435C65.3807 132.516 64.6324 131.009 63.8805 129.427C67.1362 131.19 67.2816 131.382 67.0511 133.435ZM62.9194 118.22C61.6179 117.188 60.3518 116.124 59.0786 115.061C58.8623 114.876 58.7097 114.617 58.465 114.316C58.6743 112.582 60.1745 112.227 61.4547 111.457C63.877 113.5 66.2319 115.49 68.7392 117.607C65.8276 120.26 65.5332 120.288 62.9194 118.22ZM64.6962 120.948C64.1891 121.817 63.806 122.466 63.4159 123.129C63.0294 123.037 62.7067 123.044 62.4868 122.898C60.6816 121.728 58.809 120.639 57.1315 119.302C55.603 118.082 55.7023 117.962 57.0358 115.688C59.8553 116.993 62.1676 119.001 64.6962 120.948ZM62.5151 124.711C62.2952 125.445 62.0293 126.328 61.6463 127.608C59.4155 126.463 57.4118 125.548 55.5179 124.438C53.5532 123.288 53.578 123.132 54.2979 120.88C54.4149 120.512 54.61 120.171 54.8122 119.721C57.4153 121.409 59.8411 122.976 62.5151 124.711ZM59.951 128.08C61.1072 128.672 61.0717 128.739 60.5007 130.729C58.0643 129.491 55.6456 128.268 53.1595 127.005C53.202 126.402 53.2375 125.838 53.2765 125.314C53.5461 125.239 53.7588 125.101 53.8759 125.157C55.908 126.111 57.9508 127.051 59.951 128.08ZM106.605 246.363C104.906 247.292 103.296 248.371 101.083 249.732C101.541 247.498 100.87 245.526 103.122 244.551C103.47 244.398 103.605 243.537 103.665 242.987C103.768 242.033 103.736 241.068 103.768 239.792C106.91 240.32 109.467 241.703 112.478 243.501C110.191 244.608 108.357 245.409 106.605 246.363ZM113.804 246.221C116.475 249.846 116.475 249.864 114.017 251.183C113.141 250.112 112.24 249.002 111.056 247.548C112.141 247.023 112.999 246.608 113.804 246.221ZM51.8757 184.296C51.3508 182.646 51.982 181.434 53.2127 180.409C53.2836 180.345 53.3794 180.309 53.4574 180.246C56.7485 177.586 56.8088 177.596 59.5254 181.441C57.7132 183.707 55.376 185.377 52.5247 187.282C52.2516 186.002 52.1346 185.126 51.8757 184.296ZM49.4924 159.321C48.6129 159.318 47.7369 159.261 46.4992 159.211L45.9601 156.686C48.3611 156.409 50.6308 156.147 52.9963 155.877L54.415 162.563C51.4785 164.449 48.1412 163.903 47.1269 161.289C48.4285 159.853 50.8791 161.807 52.2941 159.229C51.1131 159.268 50.3046 159.325 49.4924 159.321ZM47.7795 154.909C45.2615 155.016 45.0239 154.718 44.8856 151.427C47.5738 151.611 50.2194 151.795 53.0353 151.99C53.1382 152.764 53.2162 153.374 53.351 154.402C51.2479 154.597 49.5172 154.831 47.7795 154.909ZM47.5383 164.68C48.7193 164.786 49.7017 164.882 51.0848 165.01C50.0741 166.357 49.3115 167.372 48.3753 168.624L47.5383 164.68ZM52.397 166.091C52.2268 168.68 52.0743 170.904 51.8898 173.681C51.6593 173.809 50.8649 174.255 49.918 174.784C48.4285 171.088 50.4145 168.705 52.397 166.091ZM53.6205 174.617C54.2696 175.426 54.8441 176.149 55.5817 177.071C54.0355 178.174 52.7233 179.114 51.3862 180.072C49.6697 176.873 49.8258 176.465 53.6205 174.617ZM58.0146 163.878C58.8516 162.013 58.7807 160.442 57.323 158.644C55.0462 155.838 55.6208 151.299 58.3764 147.781C60.4937 149.625 62.6002 151.462 64.8629 153.427C63.1429 155.328 62.5151 157.417 62.4868 159.732C62.4513 162.389 64.4479 163.619 66.4411 165.176C63.345 168.624 63.533 171.84 66.9376 174.908C69.6542 177.359 71.5126 177.813 74.7895 176.33C76.6869 178.093 78.7864 179.543 81.7442 178.997C84.7232 178.444 86.1454 176.291 87.6704 173.44C90.0111 175.688 88.5109 177.887 88.0321 179.604C86.9256 183.572 84.1062 186.487 79.8681 186.498C75.6123 186.502 71.8353 184.828 70.8316 179.831C69.8209 179.98 69.0052 179.94 68.3101 180.221C64.7211 181.664 60.6284 178.791 58.9438 175.951C56.596 172.003 56.135 168.077 58.0146 163.878ZM76.8146 175.234C75.0661 174.348 75.0662 174.348 72.2574 175.475C74.2399 172.635 75.6939 170.046 78.3538 168.443C78.6056 168.29 78.868 168.131 79.1517 168.074C81.9995 167.492 83.0315 170.269 85.014 171.305C86.3085 171.975 86.1489 173.209 85.2587 174C83.2089 175.185 81.159 176.369 78.9567 177.642C77.9956 175.936 79.4319 175.103 80.127 174.121C80.8895 173.039 81.8151 172.071 82.762 170.943C80.8718 170.744 80.8717 170.744 76.8146 175.234ZM70.1649 174.954C68.2037 174.167 68.3172 172.897 69.1967 171.805C71.0303 169.528 72.9702 167.322 75.0165 165.237C76.1408 164.091 77.116 164.91 78.1693 166.255C75.3818 169.283 72.7538 172.138 70.1649 174.954ZM74.1831 164.46C71.807 166.875 69.4485 169.301 66.8277 171.993C66.3915 171.007 66.0013 170.124 65.7956 169.659C67.2142 168.155 68.3917 167.077 69.3563 165.832C70.5728 164.265 72.0233 163.084 73.7469 162.247C74.7434 162.946 75.0378 163.591 74.1831 164.46ZM70.9061 162.485C69.8705 163.229 68.9024 164.527 67.1929 163.375C67.6292 161.438 69.0797 160.378 70.5196 159.31C72.6014 160.889 72.6616 161.222 70.9061 162.485ZM65.4765 162.08C63.7139 159.261 63.9692 157.282 66.434 154.92C67.3632 155.792 68.1789 156.551 69.2145 157.523C67.9023 159.122 66.7284 160.552 65.4765 162.08ZM88.3265 185.739C89.3337 186.711 90.0182 187.374 90.653 187.988C89.8408 191.059 87.3051 194.421 83.8828 196.333C84.6523 194.659 85.4574 193.002 86.1738 191.311C86.8866 189.608 87.5072 187.871 88.3265 185.739ZM90.7168 176.373C92.029 177.178 93.3235 177.976 94.5825 178.752C94.3343 180.831 94.0931 182.81 93.859 184.778C90.3976 184.647 88.1066 181.905 90.7168 176.373ZM95.8769 183.207C95.9408 182.253 96.0862 181.306 96.228 180.058C99.2532 181.785 100.094 183.973 99.317 187.339C95.9904 186.693 95.6713 186.321 95.8769 183.207ZM56.518 146.38C52.5602 146.054 49.2158 145.777 45.875 145.504C45.7651 145.248 45.6516 144.997 45.5416 144.741C46.2119 143.965 46.8787 143.191 47.6128 142.337C50.223 144.16 53.8121 143.33 56.518 146.38ZM43.4989 144.83C43.1832 142.496 43.1832 142.496 47.6411 139.773C46.8184 141.784 44.8501 142.784 43.4989 144.83ZM43.6513 147.153C47.5667 146.979 51.2089 147.671 55.2023 147.671C54.6632 148.93 54.3653 149.632 54.078 150.302C53.7057 150.412 53.4184 150.575 53.1524 150.554C50.5315 150.355 47.9142 150.153 45.3005 149.894C43.8287 149.756 43.889 148.589 43.6513 147.153ZM67.1894 201.298C69.6542 197.631 72.2113 194.027 74.6406 190.335C75.6088 188.867 76.6372 188.282 78.3963 189.374C76.389 193.637 74.4455 197.701 72.5659 201.794C72.0516 202.908 71.314 203.511 70.0904 203.507C68.952 203.5 67.8171 203.507 66.3241 203.507C66.7142 202.489 66.8383 201.815 67.1894 201.298ZM77.0132 195.318C77.5203 194.155 78.2332 193.084 78.7581 191.924C79.7936 189.654 81.4073 188.147 83.936 187.757C83.5742 192.36 81.7477 197.308 79.5347 199.358C78.1232 200.666 76.6337 201.915 74.1299 202.326C75.1797 199.762 76.0521 197.517 77.0132 195.318ZM103.385 252.321C104.364 253.513 105.353 254.69 106.311 255.893C107.864 257.843 107.843 257.918 105.609 260.099C104.495 258.606 103.463 257.318 102.53 255.964C101.349 254.24 101.395 254.148 103.385 252.321ZM105.098 250.85C106.506 249.92 107.499 249.268 108.637 248.519C109.499 249.779 110.254 250.786 110.918 251.85C111.967 253.541 111.943 253.556 110.045 255.144C108.531 253.825 106.999 252.495 105.098 250.85ZM116.081 245.111C117.237 244.413 117.805 244.037 118.404 243.721C118.649 243.593 118.965 243.59 119.557 243.462C120.206 244.508 120.89 245.622 121.695 246.924C120.738 247.381 120.053 247.707 119.092 248.172C118.199 247.268 117.287 246.338 116.081 245.111ZM131.906 267.149C126.618 268.93 126.04 268.642 123.493 263.117C127.409 260.677 129.813 261.787 131.906 267.149ZM122.639 250.569C124.405 249.218 126.387 248.257 128.483 247.526C128.898 247.381 129.554 247.378 129.874 247.612C133.264 250.101 136.764 252.531 137.729 257.042C137.786 257.308 137.679 257.606 137.63 258.116C135.016 258.347 132.604 258.56 130.487 258.748C127.813 255.964 125.288 253.329 122.639 250.569ZM121.6 242.154C122.49 241.575 123.036 241.221 123.834 240.707C124.767 242.012 125.646 243.242 126.632 244.622C125.905 245.086 125.359 245.438 124.557 245.952C123.568 244.686 122.653 243.508 121.6 242.154ZM135.197 262.135C136.222 263.613 137.116 265.185 138.275 267.05C133.711 267.142 133.083 266.593 131.477 261.571C133.796 260.29 133.899 260.266 135.197 262.135ZM136.534 260.872C138.658 259.755 139.864 260.17 140.786 261.631C141.761 263.177 142.74 264.716 143.818 266.422C141.988 267.22 140.761 267.05 139.783 265.568C138.775 264.043 137.708 262.564 136.534 260.872ZM141.24 257.372C140.02 255.201 138.963 252.981 137.594 250.977C136.282 249.051 134.64 247.349 133.147 245.548C134.91 243.143 135.381 243.129 137.885 244.31C142.531 246.505 145.074 250.186 146.056 255.286C144.705 256.506 143.492 258.123 141.24 257.372ZM142.613 259.766L145.765 259.099C146.521 260.085 147.347 261.138 148.145 262.213C148.89 263.213 149.596 264.227 150.55 265.557L146.606 266.394C145.017 264.479 143.088 262.691 142.613 259.766ZM135.715 229.953C137.332 230.493 137.413 230.613 138.034 233.347C136.307 232.755 135.509 231.737 135.715 229.953ZM129.093 243.083C128.15 241.884 127.228 240.714 126.139 239.33C127.175 238.557 128.068 237.887 129.129 237.096C130.133 238.157 130.98 239.057 132.111 240.253C132.792 239.444 133.339 238.795 134.012 237.997C133.154 237.302 132.434 236.72 131.427 235.901C132.136 235.11 132.796 234.372 133.597 233.482C134.665 234.688 135.544 235.678 136.41 236.656C135.229 239.568 132.292 242.118 129.093 243.083ZM113.496 193.559C115.521 198.031 117.323 202.62 119.617 206.944C121.309 210.132 123.579 213.022 125.696 215.97C127.416 218.36 129.257 220.665 131.108 222.956C132.299 224.421 132.395 225.871 131.682 227.606C129.945 231.819 127.352 235.277 123.419 237.66C121.49 238.83 119.589 240.054 117.659 241.217C116.23 242.075 114.961 242.168 113.308 241.238C110.676 239.767 107.818 238.646 104.956 237.667C103.339 237.114 102.481 236.334 102.282 234.642C102.133 233.383 101.743 232.149 101.48 230.9C101.378 230.422 101.136 229.865 101.278 229.457C102.913 224.864 100.438 221.14 98.7603 217.25C98.4872 216.626 98.129 216.037 97.824 215.427C97.7921 215.363 97.863 215.246 98.0049 214.657C103.339 217.353 107.878 220.718 110.506 225.974C111.496 227.953 112.677 228.475 114.549 228.475C115.329 227.361 114.649 226.652 113.996 225.886C113.17 224.925 112.248 224.002 111.645 222.914C109.581 219.169 106.697 216.36 102.778 214.643C102.324 214.445 101.814 214.367 101.495 213.913C103.559 213.044 105.123 214.129 106.648 214.87C107.843 215.455 109.059 216.374 109.779 217.47C111.173 219.591 113.581 220.098 115.266 221.619C116.436 220.871 115.854 220.289 115.337 219.651C111.588 215.016 107.109 211.54 101.073 210.451C100.711 210.387 100.374 210.199 99.2639 209.784C100.693 209.228 101.484 208.756 102.332 208.625C105.765 208.082 109.18 208.075 112.478 209.433C113.23 209.738 114.024 209.933 115.177 210.306C113.847 208.004 113.847 208.004 104.782 205.649C107.3 204.415 109.471 203.348 111.879 202.163C110.375 200.939 109.251 201.603 108.169 202.103C105.137 203.496 102.126 204.936 99.1007 206.341C98.512 206.617 97.8807 206.805 96.8416 207.195C97.5474 204.032 99.2107 202.06 101.534 200.712C104.747 198.851 108.088 197.209 111.35 195.432C111.79 195.194 112.102 194.719 112.833 194.006C107.524 194.077 102.991 194.495 99.6966 198.673C98.7603 199.858 97.2849 200.599 96.1749 201.656C95.2918 202.5 94.5825 203.525 93.4334 204.908C93.6746 201.745 93.6639 199.085 94.1356 196.517C94.5683 194.137 95.5152 191.853 96.2422 189.498C99.2177 189.74 101.966 189.782 104.647 190.236C106.594 190.566 108.3 190.594 109.893 189.3C110.169 189.073 110.616 189.066 111.311 188.864C112.049 190.445 112.787 191.995 113.496 193.559ZM102.03 185.498C102.402 186.14 102.775 186.778 103.144 187.42C102.938 187.541 102.732 187.661 102.527 187.782C101.878 187.307 101.743 186.526 102.03 185.498ZM110.503 186.388C109.499 186.746 108.889 186.959 108.002 187.275C106.633 184.026 105.243 180.93 104.027 177.759C103.278 175.805 103.403 175.759 105.938 174.497C107.868 178.21 109.137 182.15 110.503 186.388ZM104.754 172.12C104.601 173.617 103.53 173.833 102.321 173.78C101.686 172.11 102.59 171.493 103.881 171.283C104.137 171.244 104.782 171.862 104.754 172.12ZM103.761 169.145C102.491 169.787 101.647 170.205 100.824 170.62C99.1149 167.868 99.1184 167.804 101.349 165.208C102.126 166.481 102.846 167.648 103.761 169.145ZM100.143 162.591C100.849 163.524 100.282 164.212 99.4766 164.74C99.2497 164.889 98.9731 164.96 98.6716 165.084C98.4624 164.832 98.246 164.641 98.129 164.403C97.6289 163.403 98.1112 162.676 98.9411 162.236C99.2177 162.091 99.9306 162.311 100.143 162.591ZM97.3239 161.098C95.3273 158.998 95.1783 158.285 96.533 156.594C98.8631 159.161 98.9057 159.466 97.3239 161.098ZM95.8982 154.629C95.1712 155.051 94.6392 155.36 93.9299 155.771C93.054 154.469 92.4085 153.519 91.6424 152.384C92.2134 151.749 92.7525 151.143 93.6143 150.185C94.4583 151.834 95.1322 153.143 95.8982 154.629ZM92.795 149.026C91.763 149.699 90.9225 150.249 89.8976 150.923C89.1245 149.955 88.4932 149.16 87.6704 148.125C88.7308 147.213 89.6741 146.405 90.7948 145.444C91.5609 146.82 92.1106 147.798 92.795 149.026ZM86.1064 146.635C85.5141 145.929 84.9999 145.312 84.3509 144.539C85.5389 143.44 86.5781 142.489 87.8265 141.34C88.6138 142.262 89.206 142.957 90.0536 143.954C88.518 144.997 87.4115 145.745 86.1064 146.635ZM82.6095 143.156C81.2264 142.131 80.0738 141.276 78.9212 140.422C81.3364 137.609 81.7406 137.538 84.8332 138.957C85.4751 139.251 86.2163 139.326 87.5356 139.656C85.6241 141.014 84.1132 142.085 82.6095 143.156ZM85.7517 136.9C85.0247 136.985 84.7197 137.123 84.5743 137.024C82.8472 135.861 81.3328 136.059 79.8255 137.499C79.0559 138.233 78.0416 138.702 76.921 139.432C74.4952 138.092 71.9772 136.705 68.8456 134.981C70.7324 133.662 71.5196 132.531 71.2182 130.935C73.1759 128.757 75.2435 126.796 78.7155 127.129C78.7333 127.736 78.7545 128.275 78.7687 128.81C82.8756 129.913 83.0954 134.144 85.7517 136.9ZM71.8566 118.891C74.0767 120.143 75.2293 122.466 77.0416 124.306C75.9989 125.498 75.013 125.587 74.2859 124.512C73.1759 122.863 72.2751 121.068 71.282 119.334C71.4771 119.189 71.6651 119.036 71.8566 118.891ZM71.9523 126.583C71.0905 127.151 70.5408 126.658 69.9663 126.058C68.5867 124.608 67.7214 122.952 68.0406 120.909C68.1115 120.458 68.6399 120.072 69.1542 119.394C70.3103 121.288 71.3175 122.916 72.2963 124.565C72.7325 125.306 72.7857 126.033 71.9523 126.583ZM69.2463 115.756C67.4518 115.401 66.2567 114.341 65.324 112.418C67.5583 112.812 68.3952 114.294 69.2463 115.756ZM72.8674 240.433C67.1398 237.185 61.32 234.277 55.9187 230.727C46.4531 224.502 37.6188 217.448 30.7811 208.252C26.4438 202.429 21.8405 196.744 18.1025 190.548C9.62279 176.5 4.50876 161.431 5.72166 144.663C6.28556 136.822 8.75391 129.697 12.8608 123.072C14.0524 121.15 15.0879 119.093 16.503 117.359C21.0992 111.748 26.575 107.159 33.2708 104.247C38.0408 102.176 43.1513 101.69 48.2937 101.889C52.9538 102.07 56.9932 104.006 60.9724 106.95C55.7591 112.72 52.2019 119.423 48.9923 126.186C44.8607 125.267 41.8817 123.164 39.4097 120.309C36.5158 116.969 29.9513 117.55 27.3659 122.725C27.0893 123.285 27.0573 124.104 27.2134 124.721C27.8553 127.278 28.3057 129.952 29.4193 132.304C30.501 134.588 30.6712 136.73 30.3272 139.127C29.5789 144.369 28.7951 149.614 28.3305 154.888C27.6603 162.509 26.9935 170.149 26.8091 177.791C26.5821 187.211 28.3128 196.329 32.0472 205.068C34.8773 211.689 39.5693 216.431 45.6764 219.988C50.9997 223.091 56.667 225.595 61.586 229.386C62.3981 230.014 63.533 230.642 64.4728 230.574C65.3771 230.51 66.4482 229.712 67.0192 228.929C67.6363 228.077 66.6929 225.996 65.629 225.35C65.1325 225.049 64.5295 224.928 63.9905 224.694C62.5719 224.084 61.1781 223.403 59.7418 222.839C56.5854 221.598 55.3867 218.824 54.3015 215.97C54.1029 215.441 54.0674 214.803 54.1206 214.232C54.3653 211.692 54.4823 209.121 55.0427 206.653C55.3229 205.44 56.4577 204.419 57.2699 203.216C59.419 204.305 62.0115 203.869 63.0826 206.206C64.2387 206.082 65.3772 205.727 66.4376 205.883C71.8601 206.688 77.0132 206.149 81.7832 203.255C82.0137 203.117 82.3365 203.128 82.6876 203.05C83.3118 204.521 83.9182 205.944 84.592 207.525C82.0421 208.88 79.2475 208.146 76.3642 208.554C77.4671 210.476 78.9709 210.079 80.3185 210.338C80.7512 211.004 81.2158 211.728 81.691 212.462C79.8149 214.278 76.8819 214.601 75.6052 217.459C78.8751 219.438 80.9072 215.388 83.8579 215.98C81.8364 221.956 77.648 227.251 77.8608 234.493C79.0418 233.83 79.6127 233.507 80.4213 233.057C80.5951 234.199 80.7335 235.128 80.8682 236.029C78.0488 237.589 75.4102 239.04 72.8674 240.433ZM85.4858 251.155C82.7408 248.516 79.9036 245.966 76.9565 243.235C82.0315 236.444 89.5997 235.429 96.4337 237.66C97.3381 242.395 96.7636 247.133 95.6075 251.814C95.0152 254.215 94.1711 256.552 93.3306 259.294C90.4969 256.776 88.1917 253.758 85.4858 251.155ZM97.1324 260.454C98.7815 262.237 100.427 264.025 102.069 265.805C99.466 267.039 96.9657 264.716 97.1324 260.454ZM101.654 262.535C100.278 261.166 99.0262 259.684 97.4232 257.925C98.1432 257.173 98.7071 256.584 99.4341 255.818C101.037 257.957 102.473 259.865 103.963 261.851C103.505 263.085 102.768 263.645 101.654 262.535ZM108.456 261.049C111.003 261.854 111.655 262.376 112.975 264.688C110.552 267.298 108.119 269.916 105.57 272.664C103.282 268.905 103.498 268.093 108.456 261.049ZM112.627 278.761C111.638 277.973 110.645 277.236 109.715 276.427C107.435 274.455 107.467 273.342 109.666 271.192C110.818 272.888 111.989 274.601 113.145 276.324C113.663 277.101 113.645 277.115 112.627 278.761ZM127.891 287.591C126.533 286.981 125.174 286.364 123.813 285.751C123.827 285.584 123.837 285.417 123.852 285.251L127.458 284.485C127.792 285.428 128.076 286.226 128.359 287.024L127.891 287.591ZM127.661 282.009C125.38 282.68 123.174 283.389 120.936 283.953C120.451 284.077 119.812 283.772 119.302 283.531C118.784 283.286 118.34 282.875 117.855 282.548C114.301 280.162 114.237 279.952 116.649 276.438C118.018 274.445 120.004 273.168 122.238 272.391C122.905 272.161 124.001 272.395 124.593 272.831C127.696 275.115 128.391 278.278 127.661 282.009ZM135.768 269.242C140.35 269.008 143.123 271.497 143.779 276.026C143.918 276.959 143.957 277.906 144.035 278.729C139.712 279.452 135.633 280.133 131.551 280.818C131.118 279.161 130.899 277.282 130.132 275.661C129.366 274.037 128.054 272.671 126.522 270.561C130.008 270.043 132.874 269.391 135.768 269.242ZM130.487 286.62C130.242 285.733 130.023 284.928 129.714 283.822C131.736 283.222 133.562 282.676 135.541 282.091C136.225 283.47 136.782 284.58 137.506 286.031C135.105 286.233 133.016 286.41 130.487 286.62ZM138.445 281.938C141.343 281.002 141.417 281.013 142.368 283.279C142.85 284.424 143.237 285.605 143.691 286.84C140.066 287.052 139.144 286.169 138.445 281.938ZM146.638 287.294C144.705 285.754 144.872 283.733 144.382 281.499C145.599 281.378 146.45 281.289 147.624 281.172C148.099 282.68 148.553 284.119 149.074 285.776C148.205 286.322 147.422 286.808 146.638 287.294ZM151.021 284.314L150.468 281.697C151.397 281.098 152.362 280.757 152.741 281.874C153.16 283.109 152.117 283.722 151.021 284.314ZM157.178 271.072C157.373 273.083 157.15 275.172 156.834 277.182C156.721 277.878 155.83 278.924 155.213 278.981C152.543 279.239 149.84 279.2 147.071 279.268C147 275.565 146.223 272.501 144.024 269.689C147.046 268.791 149.713 267.869 152.443 267.245C154.508 266.766 156.951 268.678 157.178 271.072ZM152.614 264.511C150.957 262.436 149.472 260.581 147.723 258.393C149.032 257.662 149.918 257.169 151.011 256.563C152.543 258.443 153.947 260.17 155.685 262.305C154.536 263.131 153.717 263.72 152.614 264.511ZM153.529 255.091C153.766 254.992 154.007 254.893 154.249 254.797C154.61 255.623 154.976 256.457 155.532 257.737C153.958 256.875 153.341 256.148 153.529 255.091Z" fill="black"/>
<path fill-rule="evenodd" clip-rule="evenodd" d="M169.644 47.7727C167.194 38.7894 164.179 30.1891 158.342 22.745C155.611 19.2587 153.015 15.7122 149.337 13.1233C147.574 11.882 145.947 10.4386 144.109 9.32142C140.85 7.34601 137.626 5.20037 134.126 3.75694C128.473 1.43042 122.412 0.593442 116.337 0.065011C113.234 -0.204524 110.287 0.362919 107.513 1.78862C99.8386 5.7217 94.0507 11.6621 90.0255 19.1559C85.4434 27.6959 82.6913 36.853 81.5565 46.5492C80.6273 54.4863 81.0635 62.2922 83.2588 69.8888C85.4647 77.5103 88.153 85.0076 90.8767 92.4695C93.799 100.488 97.0085 108.404 100.09 116.366C101.367 119.661 102.963 122.874 103.857 126.271C106.478 136.241 108.815 146.288 111.262 156.3C111.223 156.31 111.187 156.321 111.145 156.332C112.595 163.155 113.918 170.011 115.532 176.799C116.986 182.913 118.649 189.006 121.713 194.556C123.657 198.074 125.831 201.472 127.966 204.883C128.789 206.203 129.601 207.628 130.743 208.636C135.03 212.416 139.712 215.64 145.141 217.608C151.334 219.86 157.519 219.648 163.463 216.913C169.332 214.218 173.297 209.43 176.077 203.766C178.099 199.649 179.351 195.265 180.387 190.719C182.319 182.2 180.738 174.117 178.723 166.01C176.567 157.339 174.035 148.763 171.893 140.089C170.169 133.116 169.353 125.991 169.673 118.788C169.875 114.281 170.041 109.759 170.538 105.28C171.215 99.144 172.524 93.0582 172.935 86.9121C173.308 81.3618 173.035 75.7406 172.691 70.169C172.23 62.6504 171.651 55.1459 169.644 47.7727ZM160.398 36.1366C158.93 35.1897 153.965 27.0965 152.33 22.7946C156.036 26.022 159.781 32.3667 160.398 36.1366ZM157.377 35.4628C155.373 35.6472 153.692 35.7997 151.593 35.9912C150.284 32.2745 148.862 28.5471 147.681 24.7417C147.191 23.1564 148.603 22.6244 150.153 22.0073C152.525 26.4263 154.866 30.7814 157.377 35.4628ZM150.287 38.7185C149.355 38.7433 148.532 38.7681 147.369 38.8001C146.308 35.6046 145.216 32.4873 144.255 29.3309C143.783 27.7846 144.049 26.3979 146.014 25.6992C147.482 29.4869 148.972 33.2781 150.401 37.0942C150.546 37.4879 150.344 38.0198 150.287 38.7185ZM89.529 75.3505C89.0608 74.0595 88.5821 72.7686 88.192 71.4564C84.3405 58.5187 85.0675 45.6803 89.0254 32.9093C90.6603 27.6356 92.5647 22.4719 95.7708 17.9323C96.7461 16.5492 98.2569 15.5243 99.5762 14.4C101.732 12.5629 103.924 10.772 106.112 8.97032C109.01 6.57997 112.042 4.31728 115.943 4.10804C118.27 3.98391 120.678 4.16833 122.958 4.65065C126.597 5.42025 130.189 6.46291 133.74 7.57652C135.112 8.00919 136.389 8.85682 137.591 9.6867C140.584 11.7366 143.538 13.8503 146.45 16.0137C147.358 16.684 148.092 17.5919 149.184 18.6665C143.822 23.3053 139.006 28.0222 135.679 34.0725C134.098 33.0902 132.654 32.1503 131.172 31.2779C129.321 30.1856 127.381 29.228 125.576 28.0647C122.813 26.2808 120.603 23.9366 119.064 21.0036C118.564 20.0496 118.131 19.0602 117.635 18.099C116.663 16.2017 115.44 14.4142 113.078 14.4497C110.393 14.4922 108.091 15.6023 106.804 18.1168C105.378 20.8937 104.79 23.7806 105.609 26.937C105.963 28.2882 105.985 29.8699 105.666 31.2318C104.371 36.6686 102.779 42.0309 101.502 47.4677C100.31 52.5251 99.3492 57.6321 98.3739 62.732C98.0547 64.3917 97.4837 65.8103 96.5829 67.2892C94.8593 70.1194 93.5684 73.2225 92.1463 76.23C91.7349 77.1024 91.4796 78.0458 91.0362 79.2835C89.9191 77.9713 89.9652 76.5563 89.529 75.3505ZM112.248 33.6895C111.51 30.2778 111.081 26.8093 110.024 23.4578C109.659 22.3017 109.758 20.9469 109.904 19.7127C109.96 19.2056 110.638 18.4998 111.141 18.3899C111.663 18.2764 112.517 18.6133 112.868 19.0495C113.471 19.7836 113.982 20.7057 114.202 21.6314C115.209 25.8056 116.255 29.9799 116.979 34.2109C117.468 37.0694 116.567 37.7326 113.049 37.4488C112.773 36.1473 112.51 34.9166 112.248 33.6895ZM119.252 38.183C119.922 39.2256 120.529 40.1832 121.153 41.1301C122.504 43.18 123.788 45.276 125.253 47.2443C126.264 48.5991 126.366 49.9716 125.714 51.376C125.43 51.9824 124.767 52.5996 124.136 52.8194C121.646 53.6954 119.032 54.238 116.606 55.2488C115.049 55.8978 113.737 57.1427 111.865 58.4265C111.943 52.3265 112.014 46.606 112.088 40.5911C115.078 41.4635 116.911 39.6051 119.252 38.183ZM111.489 83.5252C110.709 80.3014 110.744 80.2056 113.283 79.3261C114.922 78.7622 116.567 78.2444 118.692 77.5458C118.472 79.1098 118.337 80.0567 118.153 81.3831C116 82.0747 113.759 82.7981 111.489 83.5252ZM118.163 82.7556C118.447 84.0997 118.681 85.2133 118.958 86.5043C116.447 87.1781 113.957 87.8519 111.109 88.6215C111.085 87.5115 111.06 86.5113 111.035 85.5077C113.496 84.5607 115.741 83.6919 118.163 82.7556ZM115.844 77.1556C114.422 77.3755 113.024 77.7408 111.613 78.0387C111.432 77.8649 111.251 77.6982 111.07 77.5245C111.45 76.8471 111.67 75.8718 112.248 75.5455C114.443 74.3078 116.748 73.2686 119.036 72.2011C119.337 72.0593 119.752 72.1586 120.117 72.1444C120.16 75.1838 118.667 76.7159 115.844 77.1556ZM112.305 73.4424C111.07 70.1264 111.648 68.5695 114.706 67.2396C116.106 66.6331 117.543 66.1224 118.777 65.6401C119.33 67.4134 119.816 68.988 120.32 70.6194C117.738 71.5273 115.021 72.4849 112.305 73.4424ZM112.212 66.4274C111.645 63.1682 111.595 63.0653 114.014 61.8843C117.142 60.3664 120.359 59.0329 123.54 57.625C123.696 57.8732 123.855 58.1179 124.015 58.3662C121.955 63.7427 117.305 65.3351 112.212 66.4274ZM114.411 59.8876C116.429 57.2845 118.936 56.0964 124.558 55.1956C123.944 56.6958 121.334 57.8555 114.411 59.8876ZM108.01 100.027C103.914 92.3241 101.821 84.7558 101.516 76.6946C101.413 73.9602 103.172 56.8696 104.332 51.8406C105.215 48.021 106.315 44.2475 107.386 40.4705C107.655 39.5165 107.68 38.3319 109.184 37.6155C106.836 58.3733 107.091 78.8899 108.01 100.027ZM111.553 97.5446C111.808 97.5162 112.063 97.4843 112.319 97.4594C112.404 98.3 112.492 99.1476 112.578 99.9916C112.34 100.016 112.099 100.045 111.861 100.073C111.755 99.2327 111.655 98.3886 111.553 97.5446ZM113.844 89.4869C114.578 89.2102 115.298 88.8981 116.043 88.657C119.252 87.5966 119.734 87.82 121.642 91.3701C118.231 92.6184 115.039 93.7817 111.858 94.9414C110.372 91.519 110.705 90.6785 113.844 89.4869ZM126.764 94.1435C122.263 95.9699 118.011 97.6971 113.599 99.4845C113.34 98.2716 113.152 97.3601 112.929 96.3246C115.911 95.0868 118.77 93.881 121.646 92.7213C123.529 91.9623 124.99 92.9518 126.764 94.1435ZM114.507 101.137C118.571 98.6227 122.919 96.7963 128.062 95.7678C128.189 96.9239 128.271 97.6616 128.377 98.5872C123.476 99.7079 119.387 102.953 113.801 103.137C114.106 102.219 114.117 101.378 114.507 101.137ZM128.551 101.478C128.764 101.666 128.984 101.85 129.196 102.038C128.909 104.343 127.189 105.762 125.529 107.528C124.504 106.755 123.536 106.021 122.228 105.028C124.593 103.698 126.572 102.588 128.551 101.478ZM131.339 102.818C132.505 101.637 133.867 102.815 135.084 102.964C133.466 105.613 131.995 108.025 130.445 110.567C129.579 110.113 128.64 109.628 127.643 109.106C127.93 106.329 129.65 104.524 131.339 102.818ZM137.201 102.644C138.719 104.145 140.07 105.478 141.609 107.003C140.712 109 139.758 111.11 138.687 113.497C136.676 112.819 134.782 112.177 132.686 111.472C133.31 107.783 135.796 105.634 137.201 102.644ZM141.609 110.582C142.57 107.571 142.631 107.549 145.801 107.567C146.372 107.571 146.943 107.446 147.663 107.365C148.028 109.241 147.493 110.904 147.042 112.525C146.904 113.014 146.113 113.582 145.574 113.635C144.156 113.777 142.709 113.646 140.765 113.617C141.148 112.234 141.35 111.397 141.609 110.582ZM149.596 107.07C151.479 107.574 152.954 107.964 154.891 108.486C154.742 109.759 154.611 110.876 154.44 112.334C152.635 112.631 150.897 112.919 148.649 113.291C149.007 110.933 149.287 109.106 149.596 107.07ZM151.461 106.258C150.607 105.811 149.387 105.741 148.411 105.911C146.766 106.198 145.159 106.922 143.836 105.251C141.347 105.652 140.276 103.854 138.978 102.265C138.573 101.768 137.644 101.588 136.924 101.478C135.984 101.336 135.009 101.41 133.974 101.389C133.998 100.623 134.016 100.091 134.041 99.3568C133.261 99.4703 132.612 99.5696 131.59 99.7186C130.768 97.4914 129.916 95.1897 128.945 92.5475C128.771 92.5049 128.221 92.3383 127.664 92.2461C123.391 91.5332 121.103 88.7137 120.444 84.7452C119.766 80.6631 119.781 76.5208 122.114 72.7757C122.674 71.8749 123.118 70.9031 123.721 69.7682C120.096 68.5092 119.798 67.3282 122.093 64.7606C122.32 64.5052 122.565 64.1754 122.604 63.8562C122.987 60.9126 125.26 59.6394 127.512 58.4619C128.14 58.1357 129.129 58.5222 129.955 58.5435C130.491 58.5577 131.03 58.5009 131.913 58.4619C133.846 61.9517 135.928 65.7039 138.13 69.6831C135.413 70.3995 134.055 72.3927 132.768 74.4745C131.342 76.7797 130.679 79.1275 132.48 81.525C133.452 82.8194 132.115 83.4507 131.856 84.2061C133.232 86.7844 133.608 89.423 133.53 92.3879C135.743 91.7744 136.424 93.2001 136.626 94.4733C140.325 97.9524 143.734 94.8421 146.432 94.7996C149.284 96.5764 151.6 97.9701 153.855 99.4526C154.547 99.9065 155.281 100.509 155.639 101.222C156.373 102.691 156.873 104.276 157.515 105.925C155.352 107.031 153.525 107.351 151.461 106.258ZM150.185 95.0939C147.489 92.5085 147.461 91.7531 150.138 89.76C152.479 93.083 152.479 93.154 150.185 95.0939ZM153.004 95.0726C153.355 95.8671 153.706 96.6615 154.132 97.6368C151.816 97.1722 151.827 97.1651 153.004 95.0726ZM144.51 93.1823C143.095 94.4272 141.443 95.1755 139.219 93.8562C141.233 90.2068 143.4 86.9121 147.354 84.5678C148.202 86.0361 148.833 87.1107 149.504 88.2704C147.816 89.9515 146.241 91.6609 144.51 93.1823ZM137.751 92.168C136.382 90.9055 136.502 89.8557 137.541 88.7386C139.208 86.9511 140.84 85.1247 142.478 83.3159C143.028 82.7095 143.56 82.0924 144.102 81.4788C143.843 81.2554 143.588 81.0284 143.329 80.8015C140.786 83.3833 138.251 85.9687 135.623 88.6357C133.942 84.7026 135.878 81.337 142.414 76.4818C143.737 78.6381 145.046 80.7766 146.408 83.0039C143.45 86.1354 140.613 89.1393 137.751 92.168ZM134.708 81.0816C131.796 77.5741 134.169 73.7723 139.981 72.6622C140.506 73.5347 141.081 74.4887 141.528 75.2334C139.091 77.3223 136.903 79.202 134.708 81.0816ZM157.888 107.652C158.934 110.738 158.838 111.06 156.71 111.571C155.777 108.702 155.777 108.702 157.888 107.652ZM143.616 71.162C140.574 66.2465 137.9 61.1006 134.885 56.1674C132.083 51.5711 129.019 47.1273 126.132 42.5806C124.458 39.942 122.912 37.2219 121.305 34.5372C120.575 33.3207 119.837 32.1149 119.472 30.4906C120.383 31.0899 121.309 31.668 122.203 32.2922C125.26 34.4272 128.352 36.509 131.331 38.7469C133.041 40.0378 134.566 41.5805 136.155 43.031C140.715 47.2053 145.262 51.3937 149.816 55.568C154.391 59.76 157.1 64.9804 158.338 71.0095C159.792 78.0777 160.445 85.1743 159.037 92.3489C158.76 93.764 158.771 95.2358 158.647 96.6863C154.043 87.7597 148.777 79.4928 143.616 71.162ZM142.627 30.2601C143.819 33.42 144.844 36.1366 145.922 38.9951C145.113 39.4739 144.492 39.8356 143.992 40.1335C142.248 39.4207 141.382 33.569 142.627 30.2601ZM97.4518 72.8856C97.4624 74.0595 97.4731 75.237 97.4873 76.5314C96.5794 76.8577 95.7992 77.1414 95.0154 77.4252C94.831 77.2301 94.6465 77.0421 94.4621 76.8435C95.2388 75.4746 96.019 74.1021 96.7957 72.7296C97.0156 72.7828 97.2319 72.8324 97.4518 72.8856ZM97.4022 78.3012C97.7178 80.2978 98.0264 82.2378 98.3491 84.2593C96.4411 84.6636 94.8523 85.0041 93.0542 85.3836C92.4939 81.3476 93.5472 79.5921 97.4022 78.3012ZM93.5046 87.093C95.3133 86.5007 96.7461 86.029 98.3384 85.5077C98.9378 87.2632 99.4307 88.7031 100.034 90.4551C98.3739 90.9197 96.9341 91.3275 95.2637 91.7921C94.6856 90.2529 94.1855 88.9194 93.5046 87.093ZM95.902 93.4625C97.3241 92.7816 98.5122 92.2106 100.101 91.4481C101.307 94.8421 102.42 97.9808 103.598 101.3C101.332 101.066 101.332 101.066 101.303 99.0164C96.9979 99.9349 97.1362 96.3848 95.902 93.4625ZM121.259 179.692C120.554 177.288 120 175.412 119.451 173.539C119.66 173.497 119.876 173.454 120.086 173.408C120.657 175.259 122.969 176.614 121.259 179.692ZM118.302 166.095C117.869 164.396 117.528 163.127 117.223 161.854C116.837 160.226 116.55 158.577 116.099 156.974C115.365 154.36 117.27 149.377 116.755 148.87C118.841 148.05 120.674 148.143 122.49 148.6C125.692 149.412 128.505 150.976 130.913 153.243C132.452 154.686 132.133 156.023 130.197 156.686C129.207 157.027 128.274 157.545 127.292 157.928C126.122 158.382 124.93 158.782 124.153 159.062C122.196 161.414 120.422 163.545 118.302 166.095ZM145.478 162.212C148.95 161.495 151.209 163.159 152.933 165.992C154.274 168.198 154.877 170.369 154.731 173.802C152.731 173.153 150.961 172.617 149.231 171.989C148.812 171.841 148.507 171.365 148.05 170.936C146.954 171.67 145.751 173.021 144.985 170.777C143.872 171.408 143.067 171.858 142.145 172.376C140.577 169.837 139.159 167.546 137.619 165.052C139.949 163.152 142.751 162.769 145.478 162.212ZM140.779 158.098C140.989 157.881 141.198 157.665 141.407 157.449C141.726 157.892 142.123 158.303 142.326 158.793C142.414 159.013 142.12 159.392 142.003 159.694C141.542 159.477 141.031 159.321 140.641 159.013C140.52 158.921 140.723 158.413 140.779 158.098ZM147.986 158.371C149.521 157.959 150 158.342 150.298 159.875C149.369 159.272 148.855 158.938 147.986 158.371ZM153.855 176.245C156.139 177.416 156.746 178.895 156.625 182.753C154.036 181.1 154.419 178.643 153.855 176.245ZM152.015 181.583C150.713 179.526 150.188 177.263 149.872 174.607C150.607 174.82 151.277 174.805 151.564 175.132C152.327 176.001 152.66 179.763 152.015 181.583ZM149.06 180.26C149.326 181.377 148.365 181.413 147.667 181.21C147.174 178.877 146.702 176.657 146.216 174.376C146.929 174.288 147.096 174.249 147.103 174.266C147.784 176.252 148.585 178.217 149.06 180.26ZM144.074 174.192C144.556 176.458 145.024 178.678 145.5 180.902C142.233 181.444 141.939 181.242 141.581 178.345C141.485 177.575 141.297 176.781 141.407 176.032C141.609 174.596 142.397 173.773 144.074 174.192ZM138.439 159.985C138.577 161.229 137.708 161.637 136.268 161.864C135.796 160.644 135.385 159.577 134.871 158.247C135.86 157.938 136.641 157.697 137.715 157.357C138.006 158.378 138.346 159.165 138.439 159.985ZM139.382 172.33C134.615 174.437 130.161 176.405 125.512 178.462C126.299 175.412 128.055 173.085 129.895 170.848C130.948 169.567 132.193 168.439 133.392 167.29C134.147 166.567 135.091 166.028 135.956 167.014C137.343 168.61 139.144 169.968 139.382 172.33ZM138.059 178.504C137.676 177.632 137.314 176.82 136.899 175.862C137.648 175.543 138.212 175.295 138.783 175.047C139.591 177.373 139.591 177.373 138.059 178.504ZM139.712 179.944C139.747 180.299 139.637 180.668 139.588 181.037C139.279 180.895 138.822 180.827 138.701 180.593C138.584 180.356 138.797 179.944 139.052 178.707C139.46 179.455 139.683 179.693 139.712 179.944ZM131.619 184.236C130.416 182.728 130.136 181.047 129.959 179.359C129.927 179.047 130.388 178.685 130.846 178.019C132.58 181.654 132.661 182.32 131.619 184.236ZM126.313 164.262C126.026 162.836 127.253 162.315 128.764 161.623C129.321 163.407 129.767 164.868 130.268 166.471C129.462 166.911 128.824 167.269 127.867 167.794C127.278 166.507 126.551 165.432 126.313 164.262ZM131.686 164.687C131.2 163.013 130.778 161.552 130.31 159.935C131.069 159.502 131.704 159.133 132.307 158.789C134.963 161.549 134.871 163.336 131.686 164.687ZM122.483 174.915C122.029 173.334 121.571 171.752 120.993 169.734C123.706 172.362 123.955 173.075 122.483 174.915ZM124.863 165.939C125.341 167.659 126.944 168.517 126.044 170.447C124.916 169.794 123.941 169.234 122.813 168.581C123.508 167.688 124.008 167.042 124.863 165.939ZM127.572 180.256C129.97 183.877 130.168 185.75 128.179 187.775C125.583 181.629 125.579 181.622 127.572 180.256ZM139.244 204.589C136.403 203.16 135.399 200.528 134.275 197.627C135.41 197.386 136.364 197.184 137.616 196.914C138.183 199.603 138.715 202.096 139.244 204.589ZM137.974 193.364C135.57 194.145 133.108 194.939 130.15 195.897C129.87 192.052 131.062 189.527 133.637 187.254C134.215 188.562 134.722 189.353 136.24 189.591C137.584 189.8 138.354 191.446 137.974 193.364ZM134.541 181.061C132.686 178.469 132.757 177.714 135.13 176.394C136.297 179.905 136.297 179.905 134.541 181.061ZM144.134 201.004C144.266 202.138 144.297 203.287 144.386 204.525C142.928 204.997 141.967 204.88 141.506 203.436C140.903 201.557 140.293 199.677 139.644 197.666C143.595 197.709 143.758 197.826 144.134 201.004ZM139.464 187.97C139.286 187.321 138.978 186.715 138.666 185.941C142.056 184.494 145.556 184.7 149.089 184.697C152.025 188.484 154.657 192.393 154.646 197.741C152.036 197.592 147.918 194.783 146.4 194.432C142.797 193.595 140.464 191.552 139.464 187.97ZM149.16 206.029C146.408 205.678 145.624 203.979 146.092 199.237C147.12 199.532 148.085 199.815 149.298 200.17C149.252 202.181 149.206 204.096 149.16 206.029ZM154.189 205.476C154.029 206.423 153.756 207.352 153.529 208.299C152.188 208.593 151.447 208.249 151.355 206.972C151.227 205.252 151.149 203.522 151.007 200.996C152.586 201.762 153.501 202.206 154.465 202.67C154.362 203.749 154.334 204.621 154.189 205.476ZM158.955 205.731C158.732 207.38 157.508 207.575 155.912 207.724C155.898 207.139 155.852 206.845 155.891 206.568C156.033 205.607 156.199 204.656 156.405 203.433C157.157 203.312 157.962 203.178 159.186 202.979C159.097 204.1 159.065 204.922 158.955 205.731ZM161.643 206.047C160.941 203.589 161.115 203.465 164.509 204.199C163.374 204.93 162.537 205.472 161.643 206.047ZM164.913 194.109C165.25 196.095 165.573 198.085 165.931 200.245C163.385 200.305 161.257 200.354 159.132 200.401C157.884 200.429 157.086 199.929 156.884 198.606C156.724 197.546 156.338 196.507 156.285 195.443C156.132 192.52 155.196 189.892 153.692 187.417C153.305 186.778 153.061 186.048 152.578 184.973C160.179 185.899 163.888 188.023 164.913 194.109ZM152.692 160.552C152.848 160.261 153.004 159.97 153.164 159.68C153.376 159.846 153.685 159.974 153.759 160.19C153.823 160.371 153.61 160.648 153.486 160.96C153.164 160.793 152.926 160.673 152.692 160.552ZM158.203 165.592C160.398 166.074 162.562 166.705 164.771 167.095C165.86 167.287 166.633 167.673 167.041 168.673C168.201 171.511 168.956 174.401 168.016 177.933C164.441 176.94 161.129 176.086 157.877 175.05C157.359 174.883 156.852 173.933 156.76 173.284C156.402 170.784 156.214 168.262 155.919 165.322C156.643 165.404 157.441 165.425 158.203 165.592ZM156.15 160.921C157.799 160.963 158.934 161.226 158.622 163.262C157.153 163.152 156.217 162.676 156.15 160.921ZM160.764 162.52C160.959 162.446 161.044 162.386 161.133 162.386C162.033 162.407 162.977 162.481 163.058 163.637C163.076 163.9 162.473 164.446 162.15 164.453C160.764 164.489 160.668 163.552 160.764 162.52ZM170.662 184.977C170.715 185.367 170.215 186.137 169.871 186.197C169.453 186.271 168.711 185.895 168.513 185.505C168.073 184.654 167.818 183.693 167.619 182.746C167.282 181.139 168.68 180.998 169.651 179.983C170.077 181.973 170.463 183.462 170.662 184.977ZM161.257 184.197C160.519 183.888 159.934 183.831 159.774 183.54C158.785 181.746 158.554 179.774 158.522 177.699C160.515 178.363 160.888 179.224 161.257 184.197ZM164.371 185.222C163.608 183.196 162.966 181.125 162.243 178.944C165.176 178.87 165.236 178.863 165.622 180.927C165.885 182.328 165.945 183.76 166.147 185.658C165.218 185.445 164.463 185.459 164.371 185.222ZM172.134 198.319C171.364 199.844 169.669 199.635 168.034 199.851C167.311 196.446 166.594 193.07 165.807 189.357C168.758 189.364 171.272 189.371 174.169 189.374C173.868 192.474 173.545 195.528 172.134 198.319ZM173.716 185.647C173.442 185.661 173.169 185.675 172.896 185.69C172.942 184.853 172.989 184.009 173.038 183.168C173.215 183.168 173.4 183.165 173.581 183.165C173.623 183.987 173.669 184.817 173.716 185.647ZM173.57 177.781C172.393 177.884 171.339 177.976 169.995 178.093C170.07 176.568 170.215 175.419 170.166 174.281C170.105 172.834 170.077 171.344 169.701 169.964C168.949 167.177 168.924 167.106 172.591 166.51C172.918 170.298 173.23 173.851 173.57 177.781ZM169.392 164.893C169.669 164.347 169.751 163.985 169.885 163.96C170.481 163.854 171.098 163.843 171.705 163.804C171.733 164.052 171.765 164.301 171.786 164.549C171.098 164.648 170.407 164.747 169.392 164.893ZM166.264 98.8922C164.005 109.479 163.92 120.168 165.044 130.825C165.644 136.453 167.371 141.961 168.573 147.529C169.52 151.92 170.442 156.314 171.4 160.832C169.573 161.297 167.857 161.226 166.19 160.548C164.097 159.697 161.931 158.981 159.976 157.878C156.682 156.023 153.185 154.661 149.536 153.991C146.025 153.349 142.386 153.388 138.637 153.118C138.786 149.739 141.513 146.862 142.013 143.309C142.503 139.872 142.78 136.407 143.202 132.453C145.854 136.351 148.766 139.585 149.968 144.415C152.195 137.737 148.869 133.088 145.624 128.311C148.351 129.006 150.497 130.29 151.883 132.673C152.273 133.343 152.607 134.329 153.199 134.549C155.21 135.29 155.487 137.056 156.1 138.681C156.38 139.425 156.214 140.482 157.785 140.918C157.104 133.698 153.079 128.967 147.681 125.136C148.709 123.562 149.95 123.856 151.007 124.246C154.486 125.541 158.047 126.7 160.955 129.187C161.569 129.711 162.36 130.031 163.236 130.197C161.147 126.874 157.607 125.452 154.064 123.395C155.132 123.033 155.745 122.828 156.38 122.611C156.281 122.42 156.217 122.168 156.136 122.161C154.203 122.005 152.266 121.852 150.326 121.764C149.39 121.725 148.454 121.831 147.319 121.881C147.777 119.224 149.915 118.519 151.486 117.146C149.621 117.004 149.617 116.997 147.17 118.905C145.89 119.898 144.613 120.902 143.368 121.881C141.971 120.267 146.067 119.111 143.092 117.508C142.074 118.653 141.056 119.799 139.91 121.083C138.357 120.757 136.69 120.572 135.144 120.04C133.051 119.317 128.558 120.785 128.012 120.966C129.033 122.962 130.863 122.572 132.36 122.941C133.835 123.306 135.296 123.736 136.765 124.136C136.736 124.356 136.701 124.576 136.672 124.8C136.187 124.856 135.708 124.934 135.225 124.959C132.676 125.087 130.126 125.193 127.579 125.317C126.093 125.392 125.093 126.119 124.49 127.58C126.093 128.704 127.547 126.998 129.413 127.654C125.756 129.701 123.405 132.63 121.054 135.631C119.866 137.145 119.798 138.308 120.844 139.915C122.263 135.602 125.561 133.393 129.094 131.421C129.296 131.573 129.498 131.722 129.7 131.868C129.239 132.644 128.796 133.435 128.313 134.201C126.831 136.56 125.65 139.057 125.717 141.894C125.739 142.745 126.267 143.727 126.849 144.387C127.576 145.206 128.604 145.752 129.753 146.6C130.225 145.114 130.672 143.713 131.158 142.17C132.477 143.167 131.938 145.994 134.736 144.976C132.64 142.578 133.481 140.032 133.888 137.439C134.491 137.312 135.041 137.195 135.64 137.067C135.428 133.801 137.222 131.648 139.63 129.743C140.017 133.134 141.013 136.287 139.24 139.713C137.357 143.334 136.318 147.391 134.867 151.242C134.569 152.03 134.059 152.732 133.583 153.587C127.831 148.958 122.189 144.717 114.379 147.976C112.51 140.862 110.907 133.467 108.588 126.303C106.3 119.249 103.286 112.426 100.555 105.425C105.258 104.811 106.722 105.78 107.942 109.858C109.095 113.706 110.336 117.526 111.492 121.374C111.716 122.115 111.567 122.984 111.854 123.686C112.393 125.026 112.993 126.374 113.822 127.537C114.177 128.038 115.287 128.438 115.823 128.247C116.394 128.045 117.05 127.073 117.036 126.452C117.004 125.122 116.621 123.785 116.269 122.484C115.918 121.175 115.195 119.927 115.05 118.611C114.659 115.004 114.479 111.376 114.234 107.755C114.202 107.28 114.283 106.794 114.308 106.258C115.847 106.152 117.287 105.975 118.72 105.985C119.33 105.989 120.114 106.216 120.511 106.631C123.27 109.518 126.813 111.383 130.268 113.018C133.544 114.571 137.389 115.142 141.052 115.6C146.255 116.249 151.422 115.348 156.526 114.224C157.182 114.082 157.841 113.944 158.891 113.72C158.657 115.153 158.462 116.288 158.285 117.416C158.185 118.086 157.994 118.77 158.058 119.427C158.164 120.522 158.859 121.242 159.976 121.313C161.243 121.398 162.136 120.693 162.218 119.466C162.292 118.313 162.158 117.089 161.821 115.986C160.994 113.277 161.923 108.542 160.962 109.014C161.98 103.109 162.956 97.4311 163.959 91.5864C164.846 91.3984 165.764 91.1998 167.179 90.9019C166.864 93.7569 166.8 96.3777 166.264 98.8922ZM145.042 132.258C147.11 133.162 148.209 134.666 147.94 136.755C146.971 135.255 146.01 133.758 145.042 132.258ZM135.059 130.194C132.885 134.847 130.711 139.5 128.413 144.419C127.994 143.929 127.476 143.593 127.381 143.163C127.175 142.216 126.962 141.181 127.154 140.259C128.076 135.744 130.721 132.414 134.31 129.797C134.562 129.928 134.811 130.063 135.059 130.194ZM164.293 89.4159C164.743 87.7775 164.743 87.7775 166.956 86.9653C167.552 89.0329 167.46 89.1216 164.293 89.4159ZM164.466 85.5361C163.597 81.6562 163.817 79.9609 167.548 78.9715C168.687 83.7841 168.314 84.6211 164.466 85.5361ZM158.756 55.7027C158.6 55.5041 158.448 55.3091 158.295 55.1069C158.93 54.614 159.565 54.121 160.207 53.628C160.395 53.8195 160.583 54.0111 160.767 54.2026C160.097 54.7026 159.427 55.2027 158.756 55.7027ZM162.306 55.1601C162.431 55.3658 162.558 55.5715 162.686 55.7772C161.721 56.405 160.757 57.0327 159.792 57.664C159.654 57.4193 159.515 57.171 159.377 56.9298C160.352 56.3411 161.328 55.7488 162.306 55.1601ZM168.013 76.6378C166.715 77.1875 165.576 77.6628 164.42 78.1487C163.739 75.3434 164.271 74.3716 167.619 72.4459C167.754 73.8786 167.875 75.1944 168.013 76.6378ZM167.289 69.8214C167.069 70.9528 165.381 71.804 164.176 72.9566C161.895 67.9808 161.906 66.5799 166.626 63.9803C167.566 65.8742 167.64 67.9879 167.289 69.8214ZM162.314 64.6967C161.792 63.1682 161.792 63.1682 166.406 60.3097C166.598 60.9481 166.768 61.5297 166.974 62.2071C165.36 63.0689 163.846 63.8775 162.314 64.6967ZM161.392 61.2495C160.328 60.5721 160.211 59.7884 161.001 59.072C162.406 57.7988 163.796 56.4369 166.332 56.178C166.257 59.8522 163.08 59.7777 161.392 61.2495ZM160.59 52.0286C159.111 52.401 157.749 53.245 156.402 53.855C150.667 48.5565 145.954 43.1162 145.581 41.1514C146.454 41.6408 147.145 42.038 148.021 42.5345C148.39 41.8962 148.759 41.2684 149.138 40.6123C150.365 40.474 151.614 40.3357 152.805 40.208C153.646 37.1013 154.614 36.5764 157.629 37.3247C160.484 38.0305 162.477 39.3462 163.019 42.6055C163.509 45.5562 164.583 48.4111 165.509 51.6881C163.58 51.8016 162.026 51.6739 160.59 52.0286Z" fill="black"/>
<path fill-rule="evenodd" clip-rule="evenodd" d="M134.655 238.362C134.619 238.32 134.58 238.306 134.527 238.309C134.375 237.962 134.148 237.447 133.757 237.412C133.342 237.377 133.045 237.859 132.867 238.355C132.779 238.238 132.686 238.125 132.573 238.015C132.36 237.809 131.41 239.295 131.81 239.678C132.413 240.26 132.449 241.203 133.133 241.717C133.413 241.927 133.811 241.04 133.945 240.529C134.112 240.841 134.318 241.111 134.63 241.217C135.144 241.391 135.552 239.951 135.456 239.614C135.321 239.15 134.956 238.742 134.655 238.362Z" fill="black"/>
<path fill-rule="evenodd" clip-rule="evenodd" d="M163.424 273.259C161.807 274.727 159.615 275.039 157.554 275.468C155.316 275.933 152.781 275.479 150.543 275.227C146.436 274.762 142.311 274.351 138.176 274.61C133.874 274.88 129.324 275.873 125.256 277.298C123.536 277.901 121.859 278.699 120.309 279.657C119.568 280.114 118.848 280.643 118.209 281.235C117.844 281.579 117.029 282.441 116.798 282.519C116.302 282.693 115.904 284.303 116.213 284.196C116.582 284.065 116.798 283.756 117.099 283.508C117.816 282.902 118.468 282.246 119.234 281.689C121.008 280.412 123.072 279.536 125.125 278.813C129.346 277.334 134.126 276.429 138.588 276.227C143.141 276.029 147.631 276.731 152.149 277.132C155.863 277.465 160.374 277.252 163.282 274.617C163.59 274.344 164.108 272.642 163.424 273.259Z" fill="black"/>
<path fill-rule="evenodd" clip-rule="evenodd" d="M147.694 239.277C146.794 240.841 146.148 242.59 145.439 244.246C145.02 245.214 143.676 246.154 142.868 246.764C141.828 247.555 140.676 248.197 139.491 248.739C137.147 249.81 134.842 250.807 132.402 251.64C130.065 252.438 127.749 253.35 125.539 254.456C123.351 255.556 121.376 256.843 119.34 258.198C117.184 259.627 114.925 260.879 112.808 262.383C110.843 263.784 108.988 265.337 107.264 267.025C105.665 268.589 104.346 270.667 103.246 272.607C102.877 273.249 102.97 274.395 103.59 273.299C104.729 271.295 106.126 269.33 107.796 267.734C109.697 265.919 111.825 264.34 113.999 262.865C116.042 261.482 118.216 260.329 120.23 258.897C122.419 257.34 124.83 256.123 127.291 255.049C131.721 253.119 136.37 251.892 140.63 249.544C142.541 248.488 144.066 247.058 145.496 245.427C146.081 244.76 146.347 243.721 146.677 242.916C147.07 241.958 147.514 240.87 148.035 239.969C148.404 239.33 148.319 238.185 147.694 239.277Z" fill="black"/>
<path fill-rule="evenodd" clip-rule="evenodd" d="M174.474 193.972C170.438 194.777 165.579 194.972 161.869 192.944C160.256 192.064 159.132 190.546 157.543 189.628C156.681 189.131 155.557 188.979 154.599 188.787C153.365 188.543 152.163 188.294 150.95 187.968C148.953 187.432 146.914 187.103 144.843 187.071C142.577 187.039 140.544 186.833 138.385 187.713C136.665 188.411 135.069 189.578 133.739 190.858C132.189 192.355 130.944 194.118 129.206 195.419C128.852 195.685 128.387 197.324 128.834 196.987C130.323 195.873 131.511 194.472 132.756 193.107C134.285 191.422 136.125 190.071 138.239 189.209C140.317 188.365 142.555 188.72 144.729 188.755C147.049 188.791 149.357 189.383 151.574 190.025C153.556 190.596 155.66 190.522 157.44 191.699C158.993 192.727 160.118 194.143 161.82 194.983C165.317 196.707 170.19 196.387 173.896 195.65C174.385 195.55 174.86 193.894 174.474 193.972Z" fill="black"/>
</svg>
