<svg width="265" height="200" viewBox="0 0 265 200" fill="none" xmlns="http://www.w3.org/2000/svg">
<path fill-rule="evenodd" clip-rule="evenodd" d="M231.914 55.0368C229.267 57.1104 227.839 59.1891 226.364 59.2198C219.637 59.3529 216.652 64.6981 212.668 68.5125C208.47 72.5316 204.282 80.6466 201.932 87.8964C207.042 90.2772 211.808 88.4187 216.56 86.7445C217.747 86.3298 218.802 85.5567 219.949 85.0088C226.18 82.07 227.916 83.1349 229.119 90.0826C229.656 93.1648 230.706 96.1753 231.684 99.1602C235.831 111.76 239.958 124.371 244.269 136.915C245.702 141.092 247.617 145.122 249.383 149.182C251.529 154.117 255.276 157.824 259.065 161.48C260.555 162.919 262.112 164.296 264.108 166.134C261.062 167.824 259.07 169.477 259.505 173.056C259.721 174.797 258.512 177.736 257.089 178.463C253.664 180.214 253.582 182.866 253.587 185.892C253.592 187.366 253.484 188.846 253.408 190.32C253.275 192.809 251.918 194.278 249.47 194.483C247.586 194.642 245.682 194.534 243.782 194.457C232.959 194.027 222.176 194.176 211.65 197.222C204.272 199.352 196.756 200.238 189.066 199.946C166.871 199.106 144.768 197.56 122.896 193.403C106.476 190.279 90.0618 186.962 73.5091 184.745C63.0952 183.347 52.4355 183.654 41.8834 183.567C39.5845 183.552 37.0758 184.77 35.0022 185.999C27.9265 190.182 21.3422 195.246 13.2784 197.601C8.61413 198.963 7.41095 198.517 4.95851 194.089C4.65131 193.546 4.43628 192.793 3.96013 192.517C-1.47723 189.399 -0.197252 184.714 1.2824 180.239C8.45029 158.469 12.2851 135.916 16.975 113.573C18.1372 108.043 18.47 102.329 18.982 96.6771C19.3352 92.7962 21.4293 90.3643 24.8852 89.2123C28.8839 87.8862 32.9593 86.5243 37.1116 85.9304C48.8669 84.2715 58.7074 79.1312 67.2474 70.9854C72.7513 65.7375 78.4498 60.6278 84.4555 55.9737C94.5161 48.1812 106.517 46.0257 118.841 44.2645C135.383 41.9042 143.027 38.6787 153.185 24.7064C159.918 15.4394 168.458 8.3739 177.618 1.87672C181.99 -1.22083 184.519 -0.524544 187.427 4.2677C190.387 9.14186 192.952 14.2618 196.039 19.054C200.488 25.9608 205.117 32.7652 209.929 39.4262C213.611 44.5205 218.91 47.6743 224.46 50.4545C226.641 51.5552 228.648 53.0093 231.914 55.0368ZM44.5969 167.102C52.2563 162.55 60.8885 157.676 69.2544 152.392C81.2504 144.82 92.545 135.952 105.094 129.506C116.291 123.756 128.579 119.778 140.775 116.43C151.578 113.465 161.567 109.113 170.793 103.118C181.34 96.2675 190.719 88.0961 196.561 76.4893C200.007 69.6388 204.651 63.582 210.646 58.6464C211.88 57.6326 212.843 56.2912 214.179 54.8269C212.028 53.0759 210.283 51.5911 208.47 50.2036C207.124 49.1796 205.746 48.1761 204.287 47.3313C199.096 44.3157 194.933 45.1503 192.004 50.3521C189.209 55.298 186.675 60.4435 184.596 65.7221C181.125 74.5284 176.66 82.4847 169.211 88.6235C161.664 94.839 153.37 97.2659 143.775 94.7674C140.493 93.9124 137.165 93.2621 133.868 92.4685C122.389 89.6987 111.545 97.6243 107.685 108.965C105.406 115.662 102.406 121.519 96.7586 125.635C84.5886 134.503 72.8589 134.692 62.1224 123.429C57.8575 118.949 56.9871 113.465 58.3285 107.46C60.0335 99.8156 63.8222 93.3901 68.7629 87.3896C75.982 78.614 90.9885 74.257 102.621 82.5257C103.706 82.0495 105.073 81.7833 105.985 80.9999C112.636 75.281 120.392 73.4378 128.989 73.6017C133.033 73.6733 137.098 72.7466 142.664 72.0913C136.146 65.0156 136.162 56.1172 130.898 50.7515C122.834 51.6731 115.513 52.4615 108.207 53.3831C106.343 53.6186 104.326 53.9156 102.734 54.8064C93.5177 59.9519 84.1841 64.9592 77.1289 73.1562C75.7516 74.7587 74.2157 76.2333 72.6592 77.6618C66.9658 82.8892 60.4789 86.8879 53.1216 89.2277C48.3293 90.7534 45.4724 93.2724 45.6209 98.6944C45.6926 101.198 45.0884 103.753 44.5355 106.231C41.1103 121.591 39.948 137.186 39.436 152.858C39.2824 157.742 37.5673 163.001 44.5969 167.102ZM248.221 169.155C248.134 167.9 248.308 166.963 247.986 166.257C244.043 157.614 240.034 149.013 236.041 140.391C235.155 138.481 234.003 136.648 233.435 134.646C230.721 125.093 228.172 115.493 225.54 105.913C224.501 102.12 223.4 98.341 222.207 94.1171C218.039 95.3254 214.614 96.3238 209.996 97.655C213.431 99.0988 215.408 100.154 217.512 100.753C219.949 101.454 221.029 103.082 221.239 105.335C222.309 116.435 227.291 126.439 229.938 137.078C231.177 142.06 234.321 146.745 233.174 152.766C230.675 153.268 228.243 154.03 225.781 154.194C216.283 154.839 206.765 155.198 197.268 155.828C182.056 156.836 167.219 155.29 153.175 149.105C139.459 143.058 125.451 139.167 110.229 140.14C105.826 140.422 101.92 141.118 98.3049 143.576C91.8333 147.974 85.3105 152.3 78.885 156.77C77.8559 157.486 77.2108 158.766 76.3558 159.826C92.0074 161.751 107.106 163.41 122.143 165.504C140.083 168.003 157.962 170.916 175.882 173.578C187.443 175.299 199.034 175.084 210.615 173.814C220.251 172.754 229.621 169.626 239.512 170.404C242.154 170.619 244.883 169.677 248.221 169.155ZM54.2326 173.711C73.0841 176.225 91.951 178.601 110.772 181.314C118.503 182.431 126.065 184.75 133.811 185.692C149.141 187.566 164.531 188.969 179.911 190.372C191.124 191.39 202.408 191.518 213.308 188.365C221.772 185.922 230.22 184.719 238.98 185.513C240.859 185.682 242.799 185.692 244.653 185.41C246.895 185.078 247.827 183.316 247.673 181.222C247.53 179.2 246.091 178.376 244.125 178.437C242.431 178.488 240.715 178.381 239.046 178.596C231.489 179.558 223.968 180.736 216.406 181.586C202.07 183.199 187.724 184.207 173.342 181.888C148.501 177.879 123.679 173.752 98.7913 170.071C90.2564 168.807 81.5576 168.535 72.9203 168.161C66.1415 167.87 59.8491 169.902 54.2326 173.711ZM107.987 96.3648C108.698 96.4314 108.959 96.5388 109.093 96.4569C110.48 95.5302 111.852 94.5728 113.24 93.6359C121.263 88.219 129.695 85.1471 139.525 88.3982C142.705 89.4529 146.125 89.842 149.468 90.3437C156.411 91.3728 162.145 88.9819 167.424 84.4252C173.603 79.0902 176.89 72.1732 179.84 64.867C183.669 55.3696 187.304 45.6725 197.053 39.5952C189.987 38.5968 187.361 39.4415 184.581 45.2014C178.181 58.4466 167.506 67.0584 154.854 73.5299C150.979 75.5114 146.627 76.8733 142.336 77.6259C137.16 78.5372 131.81 78.3887 126.557 78.8905C122.998 79.2284 119.194 79.2745 115.994 80.6211C112.615 82.0342 109.174 84.3586 107.014 87.2309C105.836 88.8027 107.234 92.3303 107.505 94.9722C107.541 95.3715 107.772 95.7607 107.987 96.3648ZM80.7077 127.12C83.9281 126.224 87.553 125.989 90.3075 124.32C103.189 116.496 106.917 105.995 101.976 91.8183C100.547 87.7275 97.3116 84.3125 92.9085 83.7237C88.961 83.1912 78.6137 86.8469 77.7996 87.7428C71.9475 94.1735 66.331 100.727 63.6174 109.298C62.3733 113.235 63.1566 116.496 65.6244 119.348C69.5104 123.833 74.3385 126.741 80.7077 127.12ZM201.44 105.806C202.418 121.212 206.366 135.568 210.247 150.411C213.237 149.955 215.925 149.612 218.592 149.131C221.239 148.649 223.861 148.04 226.421 147.503C226.502 146.412 226.723 145.746 226.564 145.188C223.164 133.039 219.775 120.884 216.201 108.781C215.853 107.598 214.45 106.164 213.288 105.878C209.689 104.987 205.982 104.234 201.44 105.806ZM199.433 128.252C194.201 137.488 186.444 138.502 177.049 136.341C176.737 140.893 176.466 144.943 176.169 149.356C186.137 151.194 195.378 150.549 204.989 150.119C203.622 143.376 202.347 136.986 201.01 130.607C200.898 130.059 200.36 129.598 199.433 128.252ZM145.628 124.186C140.012 124.084 123.121 130.259 120.029 133.397C128.241 135.42 136.515 137.452 144.983 139.536C147.302 134.39 147.011 129.311 145.628 124.186ZM177.269 46.1998C183.833 39.5542 184.069 37.8953 180.126 31.4647C178.027 28.0395 176.061 24.5272 173.957 21.1071C172.994 19.5353 171.832 18.0864 170.752 16.5658C164.802 21.0918 164.777 21.2403 167.588 27.0462C168.325 28.5669 168.842 30.1847 169.615 31.6848C172.088 36.4668 174.633 41.213 177.269 46.1998ZM171.735 134.032C168.581 135.302 165.678 137.017 162.575 137.57C159.165 138.174 155.566 137.703 151.634 137.703C151.526 139.418 151.419 141.195 151.322 142.797C154.936 144.123 158.034 145.378 161.203 146.386C164.531 147.446 167.936 148.271 171.735 149.315C171.735 143.837 171.735 139.055 171.735 134.032ZM185.256 132.46C191.375 132.122 194.058 130.254 195.404 125.318C196.925 119.747 193.366 115.918 187.888 117.525C185.758 118.15 183.679 119.435 181.959 120.879C179.164 123.224 179.271 125.016 181.637 127.77C182.789 129.107 183.802 130.566 185.256 132.46ZM175.861 118.391C179.543 116.522 182.553 114.443 185.881 113.455C189.071 112.508 192.598 112.702 196.536 112.334C196.116 109.861 195.681 107.311 195.291 104.987C179.753 102.964 175.216 106.108 175.861 118.391ZM193.771 32.4016C188.871 24.7883 184.156 17.4566 179.389 10.0583C175.544 13.1866 175.401 13.2378 176.327 15.8643C178.467 21.8956 181.903 27.1538 186.383 31.7054C188.354 33.7073 190.663 33.9478 193.771 32.4016ZM163.773 63.0341C165.366 60.7609 166.702 59.7062 166.717 58.6361C166.743 56.624 166.379 54.4275 165.514 52.6202C162.58 46.5019 159.826 40.2454 155.858 34.4957C152.156 37.0813 152.893 40.0098 154.107 42.708C156.943 49.0004 160.015 55.1801 163.773 63.0341ZM40.3832 94.3783C29.529 91.6186 26.1499 94.2451 26.8513 104.546C26.8922 105.13 27.2814 105.693 27.4964 106.231C39.9071 105.821 40.9362 104.895 40.3832 94.3783ZM148.219 41.638C144.717 43.0306 142.997 44.7355 144.461 48.0737C147.487 54.9754 150.595 61.8361 155.51 67.5755C158.797 66.6027 159.278 64.8107 157.967 62.1433C156.221 58.5798 154.634 54.9344 152.934 51.3454C151.429 48.1762 149.873 45.0376 148.219 41.638ZM13.8928 173.394C21.2399 173.527 26.1243 168.499 32.5293 166.421C32.6982 164.393 32.8672 162.442 33.0976 159.744C28.3617 161.5 24.5422 163.175 20.5691 164.327C16.1967 165.591 13.5344 167.87 13.8928 173.394ZM160.169 121.007C155.74 122.072 153.774 125.502 152.32 129.445C158.489 134.339 163.717 134.099 167.362 128.979C165.043 126.403 162.724 123.833 160.169 121.007ZM19.6015 149.346C23.6104 147.497 26.9793 145.844 30.4199 144.374C34.9407 142.449 34.9663 142.511 34.2444 136.31C31.5923 136.991 29.0272 137.626 26.4673 138.307C19.1714 140.253 19.1765 140.253 19.6015 149.346ZM21.8542 134.477C27.0407 133.177 31.4029 132.086 36.0774 130.924C36.2361 127.975 36.3846 125.425 36.533 122.712C24.276 124.463 22.6017 125.712 21.8542 134.477ZM163 27.6043C160.005 29.3963 160.338 31.2036 161.408 33.2874C164.024 38.3561 166.518 43.4862 169.154 48.5447C170.071 50.306 171.259 51.9239 173.301 55.1545C173.962 53.2858 174.525 52.5281 174.341 52.0826C170.946 43.8344 167.521 35.5862 163 27.6043ZM33.7888 147.979C27.906 150.564 22.6529 152.868 17.0774 155.316C17.0774 156.78 17.0774 158.382 17.0774 160.932C22.2178 158.889 26.8052 157.02 31.4336 155.228C34.2342 154.143 34.2188 151.936 33.7888 147.979ZM38.2994 111.259C27.266 109.564 25.0337 110.972 25.1054 120.034C29.0119 119.138 32.7597 118.288 36.6252 117.403C37.2345 115.165 37.7567 113.24 38.2994 111.259ZM138.501 47.1675C137.795 47.3825 137.093 47.6027 136.387 47.8177C136.551 49.3742 136.3 51.1303 136.955 52.441C139.489 57.4892 142.331 62.3839 145.019 67.3604C145.577 68.3998 145.976 69.5313 146.442 70.6219C147.231 70.0331 148.024 69.4392 148.813 68.8453C144.64 61.9538 143.073 53.8695 138.501 47.1675ZM207.257 99.2627C207.262 98.807 207.267 98.3564 207.272 97.9059C202.116 97.9059 196.966 97.9059 191.81 97.9059C196.884 99.4316 202.055 99.6006 207.257 99.2627ZM165.642 115.457C165.647 116.169 165.657 116.87 165.662 117.577C166.845 117.49 168.043 117.464 169.195 117.234C169.328 117.208 169.252 116.076 169.272 115.457C168.064 115.457 166.85 115.457 165.642 115.457Z" fill="black"/>
<path fill-rule="evenodd" clip-rule="evenodd" d="M95.3915 105.109C95.5809 115.369 88.2799 119.644 80.129 120.187C74.7275 120.55 70.053 114.729 70.2168 108.462C70.4523 99.7226 76.755 92.9542 84.6192 93.0002C91.2546 93.0361 95.4939 97.8027 95.3915 105.109ZM86.1654 114.043C82.8989 112.717 80.1392 111.601 77.2362 110.428C77.2004 116.091 79.1511 116.838 86.1654 114.043Z" fill="black"/>
</svg>
