<svg width="296" height="300" viewBox="0 0 296 300" fill="none" xmlns="http://www.w3.org/2000/svg">
<path fill-rule="evenodd" clip-rule="evenodd" d="M293.626 166.771C291.989 166.079 289.988 166.087 288.153 166.102C286.22 166.11 285.421 165.373 285.55 163.359C286.175 162.994 286.92 162.69 287.514 162.204C290.307 159.939 290.041 156.961 286.715 155.676C285.048 155.03 283.069 154.932 281.25 155.015C278.092 155.152 278.084 155.281 276.6 152.029C276.737 151.808 276.851 151.55 277.034 151.36C278.343 150.083 280.405 148.829 279.279 146.778C278.168 144.756 275.671 145.41 274.172 146.17C271.28 147.644 269.377 146.261 267.908 144.376C266.98 143.183 266.957 141.291 266.455 139.452C265.511 139.217 264.377 138.935 263.631 138.753C262.946 137.096 262.68 135.432 261.728 134.384C260.244 132.75 258.197 133.365 256.507 134.262C254.072 135.561 251.964 135.432 250.008 133.35C250.167 132.978 250.274 132.575 250.495 132.263C251.279 131.123 251.964 130.044 250.913 128.631C249.97 127.37 248.676 127.005 247.359 127.37C245.723 127.826 244.132 128.547 242.656 129.383C240.707 130.478 239.185 130.235 237.663 128.426C238.059 127.795 238.485 127.286 238.713 126.701C239.002 125.911 239.566 124.71 239.238 124.292C238.675 123.563 237.488 122.894 236.605 122.947C235.189 123.023 233.812 123.722 232.411 124.125C231.429 124.414 230.318 125.075 229.466 124.839C227.609 124.322 225.874 123.335 223.918 122.453C225.645 120.584 227.046 119.064 228.423 117.567C227.403 115.599 226.148 114.687 224.344 115.059C222.677 115.401 221.01 115.887 219.435 116.556C217.616 117.331 216.299 117.491 214.982 115.538C214.16 114.314 212.593 113.585 211.375 112.627C210.477 111.913 209.594 111.191 208.254 110.112C210.522 108.767 212.41 107.772 212.41 105.158C212.41 102.543 210.69 101.616 208.574 100.849C209.442 98.9186 209.259 96.9125 211.793 96.3806C213.833 95.9475 215.751 94.9519 217.692 94.116C219.458 93.3561 220.074 91.8135 219.435 90.1417C218.658 88.1051 217.494 86.2206 216.322 83.9333C217.296 79.7918 217.304 79.8298 221.954 79.0167C222.989 78.8343 224.047 78.4467 224.945 77.8996C228.621 75.6199 228.484 71.3797 224.717 69.2368C224.07 68.8644 223.415 68.4995 222.829 68.1728C223.575 65.0496 224.519 62.9979 228.218 62.5876C232.571 62.0936 234.405 58.2864 232.815 54.1297C232.206 52.5263 230.76 51.2421 229.451 49.4791C229.679 48.6356 230.022 47.3741 230.372 46.0975C233.88 45.3148 238.028 45.3071 238.515 40.8084C238.949 36.8341 235.38 36.1122 232.297 35.1471C232.67 33.5285 232.997 32.1379 233.34 30.6257C235.007 30.4129 236.483 30.3141 237.922 30.0025C241.232 29.2806 242.61 26.3778 240.631 23.7485C239.36 22.0387 237.404 20.8457 235.753 19.4246C235.57 19.5538 235.379 19.6984 235.197 19.8428C235.067 18.6725 234.953 17.4869 234.809 16.0506C236.338 15.6023 237.625 15.5112 238.561 14.8881C239.33 14.3714 240.144 13.2314 240.136 12.3803C240.113 9.09747 235.646 5.65508 232.244 6.05784C229.336 6.39979 227.54 5.38912 226.391 2.78263C225.234 0.138155 223.864 -0.690101 221.376 0.594143C219.062 1.7872 216.855 3.42872 215.081 5.32849C213.064 7.47903 210.933 8.87714 208.117 7.86647C205.979 7.09136 204.51 7.75259 202.942 8.93045C200.712 10.5946 199.266 12.7451 198.429 15.4048C197.561 18.1633 193.794 21.2104 191.176 21.484C186.761 21.9399 184.539 24.1589 183.709 28.4372C183.42 29.9114 182.674 31.416 181.769 32.6319C180.657 34.1213 179.249 35.4361 177.803 36.6139C176.936 37.3206 175.786 37.9057 174.698 38.0805C170.535 38.7644 167.909 41.0594 166.996 45.0945C166.79 45.9912 166.836 47.146 166.28 47.754C162.323 52.1006 158.243 56.3563 154.179 60.6117C153.92 60.8853 153.479 61.0068 153.098 61.1284C150.876 61.8959 149.78 63.7653 148.745 65.6422C147.459 67.9751 146.249 70.3386 145.038 72.7096C143.935 74.8677 142.55 76.4861 139.795 76.2505C139.209 76.1973 138.493 76.6077 137.968 76.9724C135.152 78.933 132.374 80.9393 129.223 83.1887C128.203 82.6947 126.81 82.1856 125.646 81.3573C125.007 80.9014 124.497 79.9287 124.375 79.1308C123.454 72.74 119.892 70.5666 114.07 73.0971C112.677 73.6974 111.535 73.781 110.264 73.0971C108.24 72.0028 106.801 70.8932 106.337 68.1348C105.492 62.9674 101.755 60.566 98.2621 62.5266C95.3167 64.1832 93.6042 63.5298 91.4884 61.2045C92.5768 59.3579 92.0897 57.5721 90.6512 55.8927C88.6115 53.5066 85.9553 53.6509 83.2382 53.8257C79.7677 54.0385 76.297 51.1434 75.848 47.6858C75.3685 44.0002 72.5296 41.4924 69.1885 42.6247C65.0405 44.0381 62.628 41.4013 59.7663 39.6231C59.3477 39.3572 59.203 38.5213 59.0812 37.9209C58.2136 33.5211 54.2941 30.9906 49.9254 31.8645C48.1293 32.2217 46.2341 32.4494 44.4227 32.2594C41.1196 31.9099 37.8621 31.1804 34.5819 30.656C33.5239 30.4889 32.4584 30.4053 31.3853 30.3369C28.8966 30.2002 27.8843 30.8842 27.6559 33.3691C27.4581 35.4817 27.694 37.6397 27.6559 39.775C27.5798 44.3421 29.2543 48.9092 27.108 53.5066C26.0044 55.8699 26.8264 56.7134 29.3303 58.1573C30.1447 58.6208 30.9971 59.5022 31.2635 60.3685C31.9789 62.6634 32.4279 65.0344 32.8694 67.3978C33.0064 68.1349 32.915 69.0087 32.641 69.7078C30.4796 75.3083 31.3244 77.8539 36.5683 80.3161C38.6309 81.2887 39.7648 82.5883 39.643 84.9136C39.5898 85.985 39.6203 87.0793 39.8334 88.1204C40.3205 90.4837 41.5078 92.7102 43.9509 93.0293C46.1428 93.3105 47.1779 94.4732 48.3804 95.9474C49.8645 97.7636 49.1871 99.3899 48.426 101.168C47.6117 103.06 48.2509 104.8 49.1566 106.518C49.9177 107.961 51.1583 107.946 52.5359 108.121C55.7781 108.524 57.384 111.632 56.0826 114.854C55.3062 116.769 55.6335 118.501 56.4783 120.272C57.658 122.749 60.0326 122.711 62.3844 122.825C63.6021 126.671 66.2278 129.832 64.9568 134.346C64.3251 136.587 65.1928 139.323 68.0925 140.63C71.1369 141.998 71.2586 144.908 68.6252 147.158C67.1107 148.457 65.5581 149.764 64.2871 151.291C63.0541 152.766 62.5823 154.46 63.5565 156.497C64.759 159.012 64.074 160.524 61.3569 161.254C57.346 162.325 55.0323 164.886 53.4797 168.595C51.5237 173.238 48.1597 176.566 43.1289 177.82C40.016 178.603 37.8546 180.366 36.6216 183.276C34.6732 187.851 34.658 187.874 29.9088 187.577C25.6391 187.304 22.473 189.173 21.3161 193.216C20.8214 194.964 19.8396 195.951 18.561 196.932C17.3889 197.828 16.1788 198.687 15.1133 199.705C13.6824 201.073 12.1298 201.742 10.1053 201.833C5.7214 202.046 3.4153 204.713 3.24786 209.113C3.14892 211.484 2.98914 213.878 2.51727 216.203C2.09867 218.262 1.23857 220.23 0.538365 222.236C-0.991421 226.613 0.78202 229.342 5.31049 229.623C6.47495 229.691 7.63934 229.919 8.9408 230.101C9.23762 232.495 9.07023 235.064 11.7036 235.983C14.6718 237.024 17.153 236.158 19.2307 233.772C19.7254 233.202 20.7909 232.944 21.6205 232.883C23.3482 232.746 25.1063 232.883 26.8416 232.83C28.3181 232.784 29.3684 233.164 30.0001 234.699C30.6774 236.363 31.8495 237.556 33.9045 237.663C36.964 237.83 39.057 236.599 39.7572 233.445C40.1606 231.629 41.013 231.089 42.6646 230.778C45.6557 230.231 48.2967 229.98 50.8387 232.396C53.1143 234.547 55.5118 233.977 58.1527 232.29C60.299 230.922 59.5379 228.779 60.1088 227.115C61.0906 226.91 61.8745 226.705 62.666 226.598C64.7285 226.302 66.5552 225.93 68.6558 227.48C71.5022 229.577 75.7415 228.354 77.6061 224.843C79.3186 221.606 81.9215 220.891 84.9658 220.451C87.0816 223.946 89.4791 224.433 92.3256 221.743C93.5357 220.595 94.2968 218.961 95.2253 217.51C95.6439 216.864 95.8418 215.686 96.3365 215.557C98.7567 214.941 101.245 214.333 103.719 214.25C105.66 214.181 107.623 214.888 109.496 215.238C111.566 218.938 111.467 218.954 112.137 223.232C112.342 224.569 112.981 226.188 113.986 226.978C116.064 228.658 116.049 230.983 116.422 233.126C116.581 234.03 115.645 235.178 115.105 236.15C113.758 238.575 114.747 242.465 117.152 243.932C120.714 246.128 120.714 246.128 119.352 250.087C118.393 252.876 119.283 255.049 122.137 256.06C123.644 256.592 124.2 257.359 124.481 258.864C124.733 260.224 125.235 261.835 126.194 262.694C128.5 264.768 129.489 266.896 128.911 270.095C128.31 273.469 129.185 274.647 132.412 275.157C135.342 275.635 137.176 277.482 138.935 279.442C139.513 280.088 139.612 281.365 139.528 282.322C139.444 283.204 138.828 284.04 138.455 284.898C137.854 286.289 138.409 287.292 139.688 287.809C140.655 288.204 141.728 288.455 142.755 288.523C144.529 288.637 146.317 288.554 148.227 288.554C148.517 290.423 148.692 292.004 149.019 293.539C149.833 297.285 151.302 297.916 154.636 296.062C158.221 294.063 160.032 294.549 161.988 298.03C163.32 300.401 165.23 300.743 166.554 298.448C168.617 294.861 172.727 292.315 171.966 287.437C178.199 287.832 179.988 286.662 182.248 280.689C180.551 279.724 178.785 278.721 176.966 277.687C177.742 274.951 178.481 272.292 179.257 269.556C183.017 269.655 186.396 269.434 187.621 265.194C187.18 261.889 184.904 260.384 181.19 260.232C181.807 257.534 182.317 255.27 182.819 253.089C187.226 253.461 190.415 251.774 190.43 249.145C190.437 247.891 189.79 246.576 189.22 245.398C188.177 243.271 185.833 244.509 183.907 243.719C184.166 240.368 184.417 237.1 184.676 233.871C189.022 233.772 191.8 232.07 191.883 229.722C191.975 227.358 189.661 225.968 185.232 225.975C185.125 224.463 185.011 222.92 184.919 221.37C184.79 219.037 184.904 217.107 187.53 215.709C190.171 214.303 190.004 211.355 187.659 209.371C186.997 208.809 186.183 208.421 185.262 207.852C186.601 207.107 187.804 206.59 188.839 205.838C191.305 204.052 190.985 201.491 188.146 200.306C187.309 199.948 186.297 199.987 185.437 199.667C185.026 199.515 184.547 198.96 184.524 198.558C184.501 198.163 184.935 197.638 185.315 197.357C185.726 197.046 186.282 196.818 186.792 196.78C190.118 196.536 191.495 194.682 191.412 191.476C191.381 190.313 191.685 189.31 193.208 189.469C195.986 194.667 201.854 195.404 206.801 189.386C207.318 190.161 207.805 190.913 208.3 191.658C210.127 194.363 213.209 195.207 215.88 193.489C216.961 192.798 217.852 191.665 218.537 190.548C219.389 189.15 220.28 188.686 221.855 189.583C221.893 190.275 221.885 190.936 221.969 191.589C222.335 194.477 223.004 194.941 225.797 194.994C227.776 195.032 229.101 194.021 230.303 192.745C231.011 191.985 231.498 191.035 232.389 189.735C233.5 190.799 234.649 191.506 235.258 192.539C238.348 197.775 242.305 198.33 246.392 193.907C247.565 192.63 248.691 191.62 250.502 192.585C252.458 196.757 253.501 197.729 256.309 197.813C260.929 197.965 261.47 193.998 262.741 191.149C265.047 190.526 265.793 192.061 266.904 193.223C268.928 195.343 271.432 196.043 274.248 194.941C276.866 193.915 277.719 191.81 277.658 189.165C277.643 188.497 277.711 187.828 277.757 186.931C278.944 186.27 280.192 185.571 281.41 184.895C282.567 185.852 283.397 186.749 284.401 187.326C287.164 188.914 290.254 188.276 291.936 185.913C293.192 184.15 292.872 182.676 290.947 181.665C290.048 181.186 289.082 180.844 288.199 180.457C289.219 175.776 289.219 175.791 292.91 173.671C293.481 173.336 293.999 172.888 294.486 172.432C296.723 170.282 296.518 167.994 293.626 166.771ZM255.069 144.232C256.058 143.867 257.573 144.08 258.517 144.619C265.473 148.571 270.542 154.513 275.367 160.532C272.795 162.044 270.527 163.374 268.259 164.712C268.03 164.848 267.779 165.114 267.566 165.084C263.357 164.476 259.171 166.93 254.955 165.198C254.216 164.894 253.417 164.734 252.664 164.476C251.02 163.906 249.353 163.389 247.762 162.698C246.103 161.968 244.246 161.345 243.006 160.129C241.864 159.005 241.43 157.166 240.357 154.985C243.934 149.802 249.087 146.413 255.069 144.232ZM232.099 132.271C238.728 135.045 245.274 138.008 251.849 140.919C251.956 140.964 252.002 141.132 252.329 141.648C246.842 144.68 242.146 148.374 238.256 153.024C237.922 153.427 237.412 154.042 237.062 153.997C232.716 153.404 228.674 156.786 224.146 154.78C221.619 153.655 218.742 153.328 216.055 152.515C212.402 151.405 211.253 148.693 213.582 145.585C216.033 142.302 218.963 139.361 221.885 136.473C223.293 135.083 225.227 134.27 226.795 133.031C228.469 131.701 230.356 131.534 232.099 132.271ZM209.541 120.751C214.32 125.052 220.188 127.195 226.871 129.353C225.417 130.675 224.481 131.754 223.332 132.507C218.255 135.881 213.924 139.954 210.614 145.121C210.073 145.965 208.78 146.443 207.729 146.816C205.248 147.674 202.721 148.434 200.179 149.111C199.342 149.339 198.383 149.27 197.485 149.194C194.022 148.882 190.567 148.419 187.104 148.199C185.3 148.085 184.044 147.439 183.184 145.395C186.815 138.943 191.883 133.798 196.914 128.639C199.517 125.964 202.485 123.661 205.225 121.116C206.641 119.809 208.171 119.52 209.541 120.751ZM170.033 126.344C170.786 125.173 171.631 124.436 173.199 124.3C178.663 123.806 183.412 121.344 187.994 118.524C191.061 116.64 194.129 114.732 197.356 112.719C199.608 114.436 201.793 116.085 204.434 118.083C203.68 118.973 203.102 119.976 202.249 120.637C196.693 124.9 191.838 129.847 187.431 135.257C185.916 137.119 184.174 138.867 182.986 140.926C180.969 144.422 177.811 146.041 174.15 146.405C165.961 147.234 158.258 145.357 150.229 141.207C151.599 139.642 152.421 138.639 153.312 137.704C155.336 135.584 157.444 133.525 159.438 131.367C160.755 129.938 162.041 128.737 164.233 129.087C166.729 129.497 168.678 128.471 170.033 126.344ZM171.098 114.626C172.681 112.156 174.104 109.573 175.725 107.126C176.182 106.434 177.141 105.56 177.803 105.621C181.076 105.879 182.651 103.858 184.067 101.48C184.752 100.324 185.452 99.5646 187.043 99.2226C191.046 98.3563 194.951 96.9581 198.893 95.7879C199.745 95.5371 200.613 95.3015 202.272 94.8303C200.697 100.013 199.449 104.352 198.01 108.63C197.759 109.405 196.846 110.089 196.069 110.538C190.628 113.646 185.209 116.807 179.653 119.702C176.837 121.176 174.462 121.237 170.984 120.842C169.515 118.783 169.743 116.746 171.098 114.626ZM205.629 88.4167C205.309 89.0931 204.677 89.8151 204.015 90.1039C199.608 92.0188 195.225 94.0477 190.673 95.5599C188.801 96.1754 186.464 95.8259 184.44 95.4307C182.842 95.1268 182.05 93.7665 182.811 92.0187C184.676 87.7404 186.487 83.4241 188.496 79.2066C188.885 78.4011 190.057 77.9301 190.917 77.3906C192.363 76.4863 194.403 75.9847 195.225 74.7005C197.181 71.6304 200.21 71.0984 203.239 70.2701C207.082 69.2063 210.911 68.0892 215.538 66.7593C212.151 74.1836 208.917 81.3192 205.629 88.4167ZM224.511 46.4699C223.537 49.388 222.586 52.3514 221.155 55.0567C219.861 57.4808 218.331 60.1101 216.2 61.7059C210.835 65.703 204.51 67.39 197.881 67.77C196.907 66.3945 196.077 65.2167 195.194 63.9704C197.599 58.3319 199.981 52.7163 202.417 46.9866C203.338 47.093 203.985 47.1384 204.616 47.2296C208.764 47.8832 209.168 47.6401 211.382 43.9697C211.968 42.9971 212.821 41.69 213.749 41.5076C218.628 40.5197 222.487 37.7309 226.688 34.4329C226.901 38.9771 225.759 42.754 224.511 46.4699ZM226.673 11.9169C229.786 16.8487 229.588 22.3807 228.088 27.2821C226.094 33.7641 220.188 36.6062 213.917 38.4907C212.204 36.9709 210.743 35.664 209.274 34.3417C211.192 30.0406 223.659 13.7559 226.673 11.9169ZM199.928 23.2014C200.126 22.0312 201.054 20.7165 202.036 19.987C206.291 16.8334 210.621 13.771 215.058 10.8833C216.946 9.65987 219.161 8.862 221.779 10.625C215.492 18.9536 209.457 27.3657 202.698 35.7779C199.624 31.568 199.205 27.4493 199.928 23.2014ZM196.336 25.77C196.937 28.7109 197.211 31.3249 198.041 33.7566C198.87 36.2035 199.723 38.5593 199.137 41.1658C198.817 42.5944 198.634 44.0836 198.071 45.4287C195.872 50.7404 193.436 55.9612 191.335 61.3109C190.338 63.8414 188.946 65.4067 185.254 65.4219C182.377 59.5022 179.47 53.5218 176.342 47.0777C181.898 39.2963 188.793 32.5484 196.336 25.77ZM161.067 64.8445C165.177 59.7683 169.37 54.7604 173.998 49.1751C175.429 51.5308 176.593 53.2405 177.537 55.0643C179.371 58.6207 181.038 62.2608 182.872 65.8247C183.435 66.9266 184.014 67.8383 183.428 69.1758C182.636 70.9844 182.895 72.7246 183.945 74.518C184.455 75.3842 184.554 76.8737 184.196 77.8312C182.644 81.9575 180.825 85.9775 179.158 90.0658C178.268 92.2468 177.301 94.1995 174.485 94.2983C173.96 94.3135 173.45 95.0127 172.742 95.5446C168.51 90.2328 164.72 84.9972 162.779 78.8268C161.584 75.0424 161.166 71.0073 160.511 67.0633C160.405 66.3642 160.633 65.3916 161.067 64.8445ZM144.567 85.2934C148.022 82.459 150.549 78.4923 153.502 75.0423C154.605 73.7428 155.785 72.4967 157.589 70.5058C158.632 74.1229 159.377 76.7826 160.176 79.4422C162.239 86.3194 165.984 92.3454 170.398 97.8699C173.001 101.115 173.305 103.972 171.128 107.278C168.876 110.705 167.574 114.808 163.891 117.225C161.349 118.882 160.983 118.927 158.776 116.769C153.015 111.115 147.991 104.876 144.118 97.7941C143.227 96.1679 142.573 94.3744 142.131 92.5811C141.438 89.7238 141.85 87.5352 144.567 85.2934ZM128.097 90.195C131.674 91.1449 135.061 92.9079 138.409 90.5598C138.744 91.0005 138.988 91.1829 139.049 91.4109C141.69 101.898 148.235 109.945 155.435 117.559C158.905 121.229 159.248 124.55 155.975 128.509C153.426 131.595 150.579 134.437 147.9 137.416C146.446 139.019 144.665 139.338 142.786 138.563C138.333 136.739 133.744 135.098 129.604 132.712C127.724 131.633 126.719 129.019 125.418 127.028C125.197 126.678 125.311 125.941 125.524 125.515C128.934 118.486 128.15 110.887 128.454 103.47C128.607 99.6329 128.036 95.7575 127.823 91.8972C127.8 91.426 127.983 90.9321 128.097 90.195ZM98.81 144.27C104.389 142.112 109.587 138.973 115.31 136.086C117.693 138.297 120.463 138.905 123.477 137.704C124.847 137.165 125.996 137.264 127.29 137.894C130.418 139.429 133.607 140.82 136.75 142.317C139.688 143.715 140.114 144.962 138.059 147.545C134.886 151.52 131.506 155.342 128.104 159.134C125.966 161.52 123.743 163.807 120.159 164.126C118.918 164.24 117.753 165.228 116.148 166.011C105.782 159.605 94.2664 155.501 81.678 153.845C81.5486 152.112 81.442 150.554 81.343 149.247C87.3785 147.576 93.2845 146.413 98.81 144.27ZM80.6277 144.589C80.0568 142.401 79.5012 140.098 78.8543 137.818C78.1846 135.523 77.4235 133.259 76.5406 130.523C78.8543 129.923 80.9702 129.224 83.1393 128.852C87.0436 128.175 90.5446 126.648 93.863 124.55C97.2041 122.445 100.583 122.445 103.993 124.596C107.486 126.807 111.079 128.867 114.945 131.184C108.43 137.058 94.3805 144.673 80.6277 144.589ZM125.334 174.415C126.125 173.139 126.559 171.475 126.643 169.962C126.734 168.237 127.206 166.999 128.47 165.783C133.089 161.337 137.572 156.755 142.131 152.249C142.656 151.725 143.334 151.345 144.681 150.349C144.361 152.439 144.422 153.784 143.927 154.901C142.649 157.819 141.263 160.714 139.673 163.465C136.461 169.005 133.15 174.491 129.756 179.925C127.785 183.071 125.562 186.073 123.34 189.302C121.985 184.621 123.058 178.048 125.334 174.415ZM108.019 92.8925C108.255 88.6978 108.735 84.5033 109.13 80.0426C114.055 82.7631 118.69 85.3467 123.332 87.8924C125.235 88.9259 125.76 90.7496 125.798 92.5961C126.004 101.677 126.384 110.781 124.573 119.763C124.314 121.055 123.857 122.339 123.317 123.54C122.061 126.351 119.983 127.21 117.19 125.804C113.377 123.874 109.656 121.746 105.972 119.573C104.237 118.547 103.346 116.024 104.648 113.904C108.696 107.285 107.616 100.013 108.019 92.8925ZM89.0453 68.0589C89.913 68.3705 90.5674 68.4919 91.085 68.8186C95.1492 71.3947 99.0612 74.2369 103.278 76.5395C105.591 77.8085 106.154 79.4119 106.01 81.7068C105.812 85.172 105.629 88.6372 105.454 92.0948C105.287 95.4384 105.173 98.7819 104.944 102.11C104.83 103.835 104.678 105.583 104.267 107.255C103.171 111.792 103.118 111.594 98.4067 111.655C95.9636 111.693 94.0075 111.123 92.2798 109.496C89.6541 107.034 87.0208 104.58 84.4102 102.088C83.2458 100.978 82.9489 99.6482 83.3751 98.0524C84.0753 95.4839 84.4483 92.8167 85.3007 90.2938C87.447 83.9106 88.7789 77.4133 88.8398 70.6653C88.8398 69.9054 88.954 69.1456 89.0453 68.0589ZM65.6875 66.4098C67.4609 62.3823 68.1306 58.2561 67.7501 53.9094C67.7196 53.5295 67.9022 53.1343 68.1534 51.9413C70.1246 53.2939 71.662 54.274 73.1233 55.3607C76.3275 57.7544 79.5317 60.1405 82.6598 62.633C84.4331 64.0389 86.351 65.6118 86.2825 68.0967C86.0466 76.2277 85.1409 84.2524 81.6095 91.6843C79.623 91.4639 77.8878 91.4412 76.2514 91.0081C75.1631 90.7269 73.991 90.0656 73.2755 89.2221C70.3453 85.757 67.5521 82.1627 64.7589 78.5911C63.8076 77.3677 63.3814 76.2809 64.7894 74.7459C65.5657 73.9024 65.2689 72.056 65.3907 70.6426C65.5125 69.2216 65.1548 67.6257 65.6875 66.4098ZM39.6811 41.4088C39.1255 40.5653 38.9429 39.471 38.296 37.632C41.0131 38.0043 42.8853 38.0273 44.5977 38.5364C51.105 40.4514 56.6838 44.1749 62.1865 47.9592C63.2444 48.6887 63.8533 50.3531 64.2262 51.7133C65.5658 56.5615 64.7894 61.2957 62.7649 65.7867C61.4254 68.7579 57.9321 68.9023 56.075 66.1135C52.6729 60.9917 49.4307 55.771 46.0515 50.6417C43.9813 47.5184 41.7361 44.5244 39.6811 41.4088ZM48.936 75.9541C46.8049 71.0983 44.7956 66.4858 42.7483 61.8807C42.109 60.4521 41.5458 58.9551 40.6629 57.686C39.5061 56.0294 39.9856 54.4716 40.3052 51.9867C42.383 54.6844 44.1639 56.7285 45.6328 58.9627C47.8171 62.2911 49.8264 65.7486 51.8509 69.1758C54.1951 73.1501 54.0505 73.5072 48.936 75.9541ZM61.1666 100.986C60.5806 99.3973 59.165 98.1435 58.4115 96.6009C57.7341 95.2179 57.4373 93.6601 56.9731 92.1859C56.5773 90.9321 56.3186 89.6174 55.763 88.4471C54.2256 85.2023 52.5587 82.026 50.7854 78.5C51.8737 77.8085 52.6348 77.3145 53.2437 76.9193C54.3777 77.6792 55.253 78.6366 56.2881 78.8722C58.99 79.4877 60.6034 81.2357 62.1561 83.3559C64.1044 86.0459 66.1137 88.7588 68.4579 91.0841C70.9619 93.5614 70.6498 96.6467 71.0836 99.6027C71.1598 100.104 70.6194 100.834 70.1779 101.259C69.5082 101.898 68.7242 102.437 67.9099 102.893C64.4621 104.793 63.1378 106.32 61.1666 100.986ZM64.6524 108.41C67.5979 106.328 70.155 104.436 72.796 102.673C74.4856 101.548 77.2865 102.217 79.2349 104.139C81.5258 106.396 83.7252 108.744 85.9857 111.032C86.8305 111.883 87.6448 112.848 88.6571 113.463C91.5644 115.219 92.8735 117.779 92.9039 121.321C88.0025 125.667 81.48 125.667 74.8129 127.461C71.3804 121.032 68.0697 114.808 64.6524 108.41ZM32.0094 197.236C35.7235 194.629 39.4909 192.091 43.1518 189.409C44.6435 188.314 45.8916 188.284 47.5584 189.082C52.9774 191.688 58.0081 195.305 62.8562 200.45C62.3006 204.44 60.0555 206.119 56.3718 206.499C54.1419 206.727 51.9346 207.433 49.7807 208.125C46.9875 209.022 44.4379 208.414 41.6143 207.943C37.0325 207.16 32.9303 206.354 30.4796 201.886C30.1067 201.21 28.927 200.982 27.7321 200.344C29.3304 199.181 30.6623 198.193 32.0094 197.236ZM10.326 220.534C9.9531 216.491 12.1831 210.77 15.1285 208.376C16.879 206.947 18.8197 205.693 20.8366 204.683C24.5051 202.859 27.9147 203.892 30.1827 207.304C30.9058 208.399 31.4766 209.592 32.329 211.111C28.8356 213.475 24.6649 213.589 21.1715 215.359C17.6401 217.137 14.0325 218.771 10.326 220.534ZM34.559 221.94C33.6457 225.512 32.5193 226.507 28.8281 226.986C23.2797 227.715 17.9673 227.039 12.1602 224.547C14.0858 223.338 15.3568 222.525 16.6279 221.735C20.616 219.25 24.9541 217.578 29.5359 216.59C33.113 215.815 35.4799 218.376 34.559 221.94ZM65.718 218.163C64.6753 218.741 63.5565 219.242 62.4073 219.592C54.7507 221.948 47.1322 224.463 39.1256 225.436C38.3492 225.535 37.5577 225.375 36.2486 225.314C36.9716 223.035 37.5197 221.287 38.1133 219.402C42.2613 219.09 44.1106 216.271 45.237 213.118C49.4687 212.031 53.5329 211.271 57.3993 209.926C61.3721 208.543 64.0739 210.868 66.9204 212.616C68.3208 213.452 67.3771 217.244 65.718 218.163ZM67.438 199.538C65.4896 197.707 63.5488 195.822 61.3645 194.295C57.11 191.346 52.6957 188.641 48.0074 185.601C51.6987 182.265 55.4204 178.61 59.477 175.388C60.7785 174.347 63.0693 173.868 64.7589 174.112C73.3288 175.35 81.853 176.87 89.2584 181.885C92.2343 183.907 92.2038 183.808 90.9708 187.174C90.4837 188.512 90.438 190.009 90.0803 192.076C84.4787 194.789 78.4662 197.684 72.4764 200.64C70.4367 201.658 68.9373 200.959 67.438 199.538ZM97.7521 200.154C97.5999 202.395 97.7217 204.66 97.7217 206.917C89.3193 209.956 81.1223 212.935 72.2404 216.165C72.6286 211.811 72.9558 208.148 73.2679 204.744C79.1587 201.848 84.296 199.318 89.441 196.81C90.2782 196.4 91.1458 195.799 92.0211 195.746C96.1766 195.503 98.0033 196.179 97.7521 200.154ZM93.7184 180.525C87.0741 175.358 79.4556 172.713 71.2282 171.52C69.1429 171.224 67.0498 170.882 64.0892 170.434C65.6951 169.134 66.753 168.23 67.8565 167.409C71.5022 164.689 75.2696 162.128 77.9182 158.26C78.4357 157.5 80.0264 156.93 80.9701 157.105C86.214 158.047 91.5949 158.723 96.58 160.486C102.684 162.66 108.757 165.213 114.055 169.218C114.519 173.466 112.844 176.247 109.656 178.291C108.643 178.937 107.837 179.872 106.885 180.616C102.456 184.066 98.2773 184.082 93.7184 180.525ZM116.178 199.447C115.402 201.195 114.473 202.274 112.289 202.061C110.006 201.84 107.829 202.357 105.812 203.695C104.777 204.386 103.407 204.576 101.763 205.138C101.428 200.442 100.804 196.468 101.032 192.547C101.131 190.83 102.653 188.861 104.077 187.63C107.798 184.401 111.817 181.505 115.744 178.519C116.635 177.835 117.571 176.482 118.811 177.592C119.489 178.192 120.021 179.423 119.953 180.32C119.458 186.84 118.849 193.345 116.178 199.447ZM119.641 203.854C119.649 200.883 120.257 198.55 121.567 196.392C122.883 194.219 124.238 192.068 125.585 189.918C131.575 180.434 137.565 170.95 143.562 161.474C144.11 160.608 144.734 159.787 145.32 158.951C145.571 158.989 145.815 159.027 146.074 159.065C146.66 163.739 147.253 168.42 147.862 173.306C144.734 174.681 143.44 177.06 143.57 180.32C143.6 181.034 143.212 181.901 142.755 182.486C141.104 184.575 139.513 186.779 137.58 188.595C132.701 193.155 127.663 197.54 122.655 201.947C121.886 202.623 120.904 203.057 119.641 203.854ZM124.131 216.796C123.074 214.417 122.267 212.168 121.11 210.093C120.029 208.148 120.539 206.78 122.084 205.564C123.979 204.082 126.087 202.836 127.838 201.195C133.173 196.149 138.379 190.959 143.638 185.837C144.308 185.191 145.023 184.591 145.731 183.937C148.22 184.545 149.323 186.05 149.285 188.527C149.232 191.741 149.232 194.956 149.285 198.17C149.316 199.964 148.646 201.552 147.086 202.145C138.752 205.291 132.686 211.818 125.334 216.4C125.106 216.537 124.832 216.575 124.131 216.796ZM128.569 234.593C127.503 230.565 126.415 226.864 125.616 223.103C125.402 222.092 125.699 220.413 126.407 219.85C132.062 215.443 137.032 210.047 143.859 207.038C147.055 209.5 149.742 212.099 149.841 216.408C149.879 218.004 150.092 219.6 150.183 221.203C150.366 224.501 148.631 227.579 145.571 228.703C140.069 230.732 134.497 232.548 128.569 234.593ZM133.401 252.678C132.077 247.982 130.76 243.286 129.406 238.445C134.535 235.094 140.099 233.399 145.921 231.842C147.078 233.665 147.535 235.565 146.492 237.488C143.356 243.301 138.904 248.073 134.551 252.914C134.162 252.838 133.774 252.762 133.401 252.678ZM139.422 265.946C138.478 264.472 137.58 263.188 136.796 261.835C134.612 258.036 134.84 256.638 137.542 253.286C140.883 249.13 144.072 244.844 147.36 240.642C148.075 239.73 148.928 238.932 149.727 238.088C150.046 238.202 150.366 238.316 150.686 238.438C151.706 243.765 152.033 249.183 152.086 254.616C152.086 255.3 151.629 256.189 151.104 256.653C147.893 259.449 144.605 262.17 141.324 264.883C140.822 265.285 140.19 265.513 139.422 265.946ZM141.332 268.234C144.239 265.855 146.888 263.446 149.788 261.387C152.566 259.419 153.395 259.882 154.362 263.294C155.123 265.977 155.77 268.712 156.691 271.349C157.741 274.359 159.058 277.277 160.23 280.248C160.656 281.319 161.006 282.421 161.44 283.629C157.147 283.409 145.952 274.86 141.332 268.234ZM153.646 189.903C152.84 186.589 153.806 184.188 156.637 181.825C161.767 184.917 166.714 188.018 171.783 190.89C173.358 191.787 173.975 192.744 174.234 194.561C174.926 199.295 176.03 203.976 176.913 208.687C177.073 209.546 176.936 210.458 176.936 211.187C170.976 209.045 165.116 206.955 159.278 204.819C156.736 203.892 154.057 199.819 154.004 197.046C153.943 194.66 154.194 192.182 153.646 189.903ZM167.392 282.003C166.258 278.743 165.184 275.514 163.997 272.337C163.457 270.878 162.658 269.51 162.041 268.074C161.364 266.539 160.77 264.974 160.184 263.53C161.737 262.147 162.909 261.113 164.111 260.05C167.125 261.699 170.139 263.34 173.085 264.943C174.12 270.749 171.25 279.572 167.392 282.003ZM176.601 244.464C176.464 247.374 175.999 250.201 176.464 253.203C176.799 255.399 175.748 257.8 175.33 260.118C174.911 260.27 174.5 260.414 174.089 260.566C171.258 258.628 168.411 256.698 165.595 254.73C165.291 254.517 164.994 254.13 164.91 253.765C163.997 249.798 161.448 248.241 156.965 248.947C156.554 245.193 155.983 241.675 155.861 238.134C155.762 235.459 159.004 232.928 161.668 233.422C167.087 234.418 171.661 237.207 175.718 240.763C176.509 241.455 176.654 243.21 176.601 244.464ZM176.73 235.611C171.494 233.202 166.783 231.036 161.623 228.665C161.166 226.218 159.963 223.718 156.607 222.882C155.945 222.723 155.207 221.613 155.077 220.846C154.674 218.619 154.506 216.347 154.362 214.083C154.187 211.248 156.577 210.04 158.091 208.361C164.362 209.576 169.972 212.137 175.109 215.686C176 216.302 177.042 217.419 177.126 218.376C177.598 223.931 177.986 229.509 176.73 235.611ZM174.401 187.934C170.345 185.601 166.28 183.314 162.247 180.943C159.621 179.4 157.117 177.638 154.453 176.179C152.55 175.138 151.972 173.656 151.82 171.627C151.394 165.912 150.83 160.205 150.282 154.498C150.168 153.321 149.795 152.15 149.689 150.972C149.582 149.726 149.666 148.465 149.666 146.823C156.539 149.149 162.833 151.238 169.538 151.474C170.048 151.497 170.786 151.603 171.007 151.938C172.826 154.726 175.733 156.588 176.038 160.646C176.471 166.459 178.032 172.181 179.211 177.934C179.47 179.211 180.132 180.404 180.604 181.612C178.663 183.61 176.745 185.556 174.401 187.934ZM188.139 183.595C187.111 183.276 185.955 182.493 185.445 181.589C183.999 179.051 182.537 176.445 181.67 173.686C179.95 168.192 179.082 162.515 178.914 157.006C179.204 156.626 179.265 156.52 179.363 156.436C185.528 150.919 192.431 153.959 199 155.084C200.506 155.342 202.402 158.055 202.691 159.863C203.939 167.599 206.823 174.795 209.312 182.129C209.434 182.493 209.465 182.896 209.64 183.853C202.356 183.443 195.263 185.784 188.139 183.595ZM232.495 185.427C227.586 184.887 222.669 184.287 217.745 183.785C215.584 183.572 213.978 182.683 212.95 180.715C209.548 174.203 207.174 167.356 206.078 160.638C210.553 156.482 214.511 157.698 218.628 159.248C221.322 160.266 224.222 160.745 227.213 161.512C226.931 164.354 227.677 166.421 230.295 167.5C230.767 167.69 231.041 168.557 231.262 169.165C233.066 174.172 234.854 179.188 236.62 184.211C236.742 184.56 236.681 184.971 236.742 185.799C235.243 185.67 233.873 185.578 232.495 185.427ZM257.314 187.25C254.901 187.304 252.474 187.372 250.076 187.182C240.136 186.399 243.15 188.314 238.15 179.332C236.346 176.095 235.045 172.554 234.641 168.541C237.594 167.029 240.388 166.968 242.884 167.652C247.123 168.807 251.203 170.548 255.32 172.105C257.619 172.972 258.859 174.735 259.567 177.075C260.518 180.236 261.744 183.314 262.992 186.832C260.975 186.992 259.148 187.205 257.314 187.25ZM277.962 182.6C275.321 183.557 272.665 184.53 269.925 185.077C268.822 185.297 267.147 184.803 266.325 184.013C264.095 181.878 262.619 179.218 262.421 175.745C265.869 175.305 268.22 177.729 271.059 178.474C273.875 179.218 276.722 179.849 280.086 180.662C279.18 181.513 278.663 182.341 277.962 182.6ZM280.055 174.408C276.631 173.306 273.206 172.166 269.849 170.859C268.152 170.19 267.794 168.595 269.012 167.409C270.435 166.018 271.973 164.734 274.301 165.183C275.694 165.449 277.156 165.35 279.271 165.449C280.717 168.131 282.384 171.193 284.47 175.039C282.339 174.75 281.144 174.758 280.055 174.408Z" fill="black"/>
</svg>
