<svg width="306" height="300" viewBox="0 0 306 300" fill="none" xmlns="http://www.w3.org/2000/svg">
<path fill-rule="evenodd" clip-rule="evenodd" d="M299.839 105.324C300.992 100.784 301.415 96.1806 301.638 91.5173C301.794 88.2223 302.38 84.9432 302.863 81.6641C303.374 78.2095 304.04 74.7747 304.534 71.3201C304.854 69.1022 304.969 66.8643 305.22 64.6343C306.178 56.0576 306.298 47.5128 304.606 38.992C303.429 33.0601 300.047 29.0152 294.633 26.4861C291.725 25.1258 288.897 23.59 286.021 22.1539C284.892 21.5874 283.759 21.0089 282.574 20.5661C278.19 18.9226 273.786 17.3229 269.39 15.7113C260.243 12.3564 251.303 8.49499 241.502 7.09081C232.861 5.8422 224.38 5.91797 215.923 7.96441C214.248 8.37529 213.143 8.20377 211.778 6.89931C205.643 1.01531 197.992 -0.524478 189.83 0.1457C186.842 0.397017 183.894 1.27056 180.958 2.00856C170.543 4.62544 161.06 9.42439 151.674 14.4906C145.766 17.6819 140.652 21.8865 135.761 26.3743C133.731 28.2413 131.194 30.1401 133.136 33.9537C129.051 35.322 125.405 36.7102 121.667 37.7594C109.935 41.0385 99.1766 46.5914 88.2822 51.8211C81.6004 55.0364 75.0303 58.495 68.2327 61.435C59.9074 65.0293 51.3985 68.1966 42.9614 71.5395C41.6011 72.078 40.2089 72.5368 38.8366 73.0554C35.2863 74.4037 31.6721 75.6205 28.2095 77.1723C25.7961 78.2533 23.9651 80.0683 22.7205 82.5975C20.7817 86.5308 18.7831 90.4043 17.9534 94.7764C16.5173 102.344 14.9137 109.875 13.6252 117.467C13.0268 121.005 13.1146 124.659 12.6957 128.23C11.7303 136.475 10.5894 144.701 9.61608 152.946C8.77836 160.023 8.1481 167.124 7.29841 174.201C5.54717 188.733 2.65099 203.118 2.0207 217.794C1.73348 224.416 1.17505 231.03 0.772143 237.652C0.572686 240.967 0.604551 244.298 0.249516 247.589C-0.608152 255.488 0.744217 262.955 4.32249 270.012C5.7546 272.844 7.74121 275.182 10.4538 276.953C12.1452 278.058 13.6012 279.534 15.177 280.827C15.7793 281.317 16.3857 281.816 17.0519 282.219C19.226 283.523 21.3801 284.872 23.626 286.044C28.1098 288.394 32.4739 291.111 37.1931 292.814C44.968 295.622 53.0221 297.705 61.1999 298.997C66.0586 299.767 76.7097 300.058 77.0887 299.99C80.998 299.308 84.9992 298.949 88.7929 297.868C92.3991 296.839 96.1449 296.049 99.408 293.891C102.22 292.028 105.216 290.417 108.204 288.841C110.402 287.684 112.688 286.671 114.994 285.745C118.823 284.205 122.246 281.999 125.661 279.726C133.045 274.815 141.466 271.831 148.933 267.004C154.367 263.498 160.526 261.132 166.186 257.949C171.089 255.196 175.713 251.937 180.535 249.037C184.281 246.779 188.115 244.673 191.964 242.599C195.65 240.616 199.428 238.809 203.118 236.822C208.428 233.958 213.669 230.978 218.975 228.098C223.846 225.457 228.792 222.952 233.635 220.251C236.431 218.692 239.004 216.713 241.821 215.197C247.705 212.018 253.529 208.766 259.114 205.092C265.744 200.736 271.799 195.718 276.766 189.523C282.083 182.889 284.453 174.978 286.069 166.777C287.193 161.056 288.338 155.34 289.667 149.659C290.844 144.637 292.367 139.698 293.576 134.676C295.443 126.925 297.202 119.146 298.934 111.355C299.352 109.377 299.344 107.286 299.839 105.324ZM296.528 30.9658C297.111 31.5164 297.689 32.0589 298.271 32.6133C298.136 32.7689 298 32.9325 297.856 33.092C297.238 32.5774 296.612 32.059 295.99 31.5444C296.169 31.3489 296.349 31.1613 296.528 30.9658ZM290.52 32.4777C295.172 34.6678 299.209 37.4603 300.765 42.8576C298.2 40.504 295.834 37.8911 293.026 35.8766C290.161 33.8222 286.87 32.3661 283.799 30.6627C284.856 30.2239 287.122 30.8741 290.52 32.4777ZM261.057 16.3655C268.253 19.1021 275.441 21.8347 282.63 24.5952C283.511 24.9343 284.329 25.421 285.466 25.9874C283.779 27.268 282.187 27.3756 280.583 27.591C278.577 27.8702 276.507 28.0857 274.624 28.7678C264.719 32.3341 254.857 36.0281 244.988 39.7061C243.448 40.2766 241.96 40.9866 240.341 41.6807C237.002 37.7993 233.316 34.5042 228.473 32.6452C229.474 29.6534 228.397 27.3996 226.59 25.1058C229.506 23.546 232.454 22.1498 235.61 21.2682C241.897 19.521 248.231 17.9213 254.498 16.0983C256.788 15.4361 258.902 15.5477 261.057 16.3655ZM239.675 83.148C241.705 82.6294 243.688 81.9194 245.706 81.2851C246.528 84.8474 245.124 87.6318 242.315 88.7767C237.269 90.8351 232.263 92.9574 227.233 95.0397C226.71 95.2551 226.155 95.3788 225.238 95.662C225.405 93.3404 225.302 91.2061 225.82 89.2354C226.084 88.2381 227.42 86.8899 228.369 86.8061C232.45 86.4391 235.833 84.1293 239.675 83.148ZM240.261 66.613C240.472 66.593 240.68 66.581 240.891 66.5611C240.971 67.5145 241.047 68.4759 241.123 69.4373C240.907 69.4533 240.696 69.4732 240.476 69.4892C240.401 68.5238 240.333 67.5704 240.261 66.613ZM240.828 74.0846C240.927 74.0726 241.039 74.0607 241.139 74.0527C241.218 74.4995 241.29 74.9543 241.366 75.4051L240.72 75.3732C240.756 74.9424 240.788 74.5114 240.828 74.0846ZM228.218 167.283C228.728 162.736 229.526 158.216 230.065 153.664C230.731 148.04 231.437 142.407 231.804 136.762C232.359 128.174 233.539 119.677 234.808 111.18C235.458 106.832 235.949 102.46 236.519 98.1034C236.607 97.4532 236.755 96.8069 236.87 96.1607C237.122 96.1687 237.377 96.1846 237.624 96.1926C237.696 97.4931 237.931 98.8135 237.808 100.098C237.237 106.022 236.591 111.946 235.921 117.866C235.007 125.916 234.026 133.962 233.128 142.012C232.466 147.932 231.868 153.856 231.277 159.78C231.07 161.818 231.05 163.877 230.783 165.903C229.849 172.956 228.832 180.001 227.871 187.058C227.655 188.605 227.54 190.161 227.344 191.713C227.193 192.941 226.81 193.987 225.023 193.959C225.03 193.245 224.927 192.587 225.062 191.984C226.854 183.838 227.292 175.533 228.218 167.283ZM226.754 142.622C227.951 135.394 229.028 128.162 229.391 120.83C229.618 116.25 229.817 111.651 230.392 107.111C230.819 103.796 231.832 100.553 232.59 97.2815C232.941 97.2776 233.284 97.2736 233.635 97.2696C233.679 98.1512 233.886 99.0488 233.735 99.8985C233.057 103.84 232.199 107.753 231.581 111.702C231.321 113.398 231.485 115.157 231.457 116.892C231.449 117.471 231.469 118.049 231.401 118.624C230.851 123.371 230.268 128.118 229.738 132.861C228.848 140.811 228.002 148.77 227.133 156.724C226.335 163.992 225.633 171.276 224.695 178.537C224.029 183.663 223.06 188.757 222.178 193.855C222.059 194.553 221.684 195.203 221.424 195.882C221.193 195.85 220.97 195.818 220.738 195.794C220.79 194.429 220.814 193.065 220.894 191.705C221.129 187.524 221.221 183.316 221.684 179.155C222.414 172.565 223.363 165.995 224.269 159.425C225.05 153.812 225.832 148.203 226.754 142.622ZM217.14 197.549C215.879 195.554 216.318 193.556 216.641 191.557L217.487 191.597C217.371 193.584 217.256 195.566 217.14 197.549ZM238.434 117.734C238.366 124.543 236.838 131.209 236.208 137.971C235.394 134.429 236.89 121.049 238.434 117.734ZM230.28 47.118C231.529 52.2959 231.928 57.4778 231.648 62.7435C231.621 63.294 231.405 63.8245 230.891 64.3431C230.855 63.7368 230.847 63.1224 230.767 62.5161C230.041 57.023 229.431 51.5101 228.505 46.0529C228.014 43.1687 226.072 41.0305 223.734 39.2872C222.37 38.27 221.085 37.1411 219.765 36.06C224.723 38.3777 228.892 41.3297 230.28 47.118ZM219.829 26.9648C221.568 27.8264 222.856 28.4687 224.835 29.4461C223.219 30.0364 222.274 30.3794 221.149 30.7943C220.694 29.4819 220.371 28.5365 219.829 26.9648ZM233.392 80.8143C232.323 79.2945 232.694 77.4754 232.805 75.8398C233.128 70.981 233.783 66.1463 234.122 61.2875C234.557 55.1801 233.703 49.2083 231.585 43.46C231.086 42.1116 230.057 40.9667 229.419 39.6583C229.351 39.5266 229.307 39.391 229.271 39.2394C228.924 38.6689 228.537 38.1264 228.114 37.6357C227.903 37.528 227.739 37.3166 227.596 37.0852C227.137 36.6304 226.63 36.2316 226.072 35.8925C225.98 35.9045 225.884 35.9283 225.788 35.9483C225.868 35.9084 225.948 35.8845 226.024 35.8566C225.561 35.5853 225.058 35.342 224.52 35.1545C224.021 34.975 226.794 35.2861 227.58 35.9363C228.106 36.1198 228.513 36.5108 228.78 37.1251C229.175 37.5759 229.534 38.0745 229.857 38.5971C230.38 39.1436 230.887 39.6861 231.174 40.3324C235.219 49.2681 237.74 58.4631 235.873 68.428C235.446 70.7018 235.618 73.0874 235.522 75.4251C235.474 76.5979 235.502 77.7667 235.386 78.9275C235.267 79.9886 234.772 80.7904 233.392 80.8143ZM233.93 40.0452C236.244 41.6807 236.244 41.6808 235.147 43.2685C234.804 42.3589 234.461 41.4573 233.93 40.0452ZM242.726 11.2475C241.183 13.0785 221.839 19.3495 218.883 19.7444C219.785 17.1514 218.141 15.3364 216.761 13.1383C225.29 9.17311 233.835 9.63985 242.726 11.2475ZM215.951 27.958C216.378 26.8171 216.633 26.1669 216.972 25.2533C217.742 25.7081 218.313 26.0432 219.262 26.6137C218.022 27.1163 217.22 27.4434 215.951 27.958ZM217.527 32.2344C216.37 32.4099 215.476 32.5496 214.116 32.761C214.523 31.4685 214.766 30.6827 215.089 29.6654C215.935 30.559 216.581 31.2371 217.527 32.2344ZM210.805 37.8113C212.756 37.0533 214.192 37.8192 215.676 38.8085C215.919 38.9641 216.206 39.0519 216.47 39.1915C221.967 42.0478 222.039 42.1514 223.491 48.5221C222.059 48.941 220.559 49.1325 219.298 49.7827C209.744 54.7253 199.723 58.5469 189.703 62.3804C186.607 63.5692 183.531 64.8138 180.48 66.1262C178.78 66.8523 177.46 66.7047 175.928 65.492C174.356 64.2434 172.433 63.3977 170.579 62.56C167.471 61.1479 164.351 59.7476 161.144 58.6147C158.049 57.5256 154.829 56.7797 150.94 55.6787C152.045 54.9487 152.691 54.426 153.413 54.071C158.547 51.51 163.669 48.945 168.851 46.4678C176.853 42.6462 184.935 39.008 192.882 35.0707C196.368 33.3473 199.448 32.2225 202.911 35.1824C204.243 36.3193 206.25 36.7102 207.985 37.3245C208.89 37.6437 210.043 38.1104 210.805 37.8113ZM181.808 101.921C184.054 101.135 184.939 101.889 184.648 104.187C184.465 105.627 184.146 107.059 183.862 108.619C176.873 111.18 170.128 113.649 163.386 116.118C162.724 114.387 162.125 112.827 161.423 110.992C163.215 109.042 165.887 107.789 168.676 106.748C173.044 105.124 177.4 103.457 181.808 101.921ZM179.634 82.3222C180.711 87.2528 180.416 92.1795 180.057 97.0902C179.758 97.0742 179.454 97.0582 179.155 97.0422L179.634 82.3222ZM160.885 182.697C162.289 174.129 163.542 165.528 164.866 156.947C165.046 155.814 165.273 154.69 165.472 153.557C165.696 153.585 165.907 153.62 166.127 153.648C164.842 166.142 163.789 178.668 162.205 191.13C160.665 203.206 158.575 215.213 156.692 227.464C156.441 226.997 156.022 226.574 156.022 226.159C156.018 223.427 156.026 220.694 156.17 217.966C156.605 209.489 156.948 201 158.739 192.658C159.449 189.339 160.334 186.044 160.885 182.697ZM148.092 240.5C148.662 241.306 149.627 242.136 148.514 242.922C147.417 243.692 146.5 242.626 145.802 241.857C144.884 240.847 144.88 239.024 145.658 237.76C146.652 236.132 148.144 235.187 149.839 234.532C150.018 234.776 150.198 235.015 150.377 235.255C149.855 235.701 149.352 236.172 148.81 236.603C147.058 237.971 146.859 238.745 148.092 240.5ZM167.092 142.136C167.527 134.205 167.962 126.271 168.396 118.316C169.079 118.165 169.521 118.065 170.283 117.897C169.665 126.139 169.797 134.233 167.092 142.136ZM170.431 146.739C171.68 137.847 172.792 128.959 173.215 119.988C173.279 118.775 173.235 117.559 173.239 116.346C173.511 116.326 173.786 116.302 174.057 116.278C174.217 116.884 174.52 117.487 174.52 118.085C174.52 125.305 174.803 132.542 173.57 139.702C172.493 145.945 171.169 152.16 170.379 158.443C169.063 168.899 168.077 179.402 166.968 189.89C165.768 201.247 164.575 212.604 163.378 223.961C163.342 224.236 163.207 224.5 163.087 224.867C162.03 225.258 161.344 225.018 161.368 223.786C161.399 222.126 161.431 220.459 161.655 218.827C162.544 212.349 163.633 205.894 164.427 199.408C165.504 190.684 166.354 181.939 167.339 173.207C168.333 164.379 169.202 155.535 170.431 146.739ZM171.428 176.135C172.258 167.59 173.391 159.07 174.504 150.553C175.876 140.009 177.348 129.486 177.384 118.815C177.388 117.279 177.232 115.484 178.605 114.307C178.856 114.343 178.952 114.335 179.032 114.371C179.115 114.419 179.219 114.475 179.255 114.555C179.347 114.822 179.498 115.109 179.474 115.376C176.929 144.928 175.138 174.572 169.609 203.76C169.589 203.018 169.513 202.276 169.561 201.542C170.156 193.069 170.614 184.584 171.428 176.135ZM169.721 100.932C169.485 100.936 169.25 100.936 169.019 100.944C168.947 98.1831 168.871 95.4107 168.795 92.6502C168.732 89.7262 168.943 86.7622 168.52 83.894C168.125 81.2093 167.06 78.6163 166.194 75.6723C170.902 79.0272 173.068 96.0689 169.721 100.932ZM170.495 66.3377C174.017 67.0637 175.74 70.0955 174.899 74.1405C173.415 71.5156 171.955 68.9267 170.495 66.3377ZM174.045 99.9503C174.001 94.557 173.961 89.1557 173.917 83.7584C174.113 83.7584 174.304 83.7544 174.496 83.7544C175.358 89.1477 175.286 94.545 174.707 99.9463C174.488 99.9503 174.264 99.9503 174.045 99.9503ZM115.995 103.832C115.424 100.21 116.043 99.352 119.374 99.3041C119.182 100.361 119.047 101.41 118.795 102.432C118.313 104.362 118.285 104.358 115.995 103.832ZM117.259 107.298C117.084 107.833 116.956 108.399 116.709 108.906C116.33 109.68 115.867 110.422 115.444 111.168C113.29 109.995 113.238 109.883 114.044 108.172C114.858 106.441 114.966 106.413 117.259 107.298ZM112.628 98.6618C113.948 95.0556 114.439 94.7525 116.872 96.053C115.464 96.9146 114.244 97.6685 112.628 98.6618ZM108.99 115.057C109.397 116.023 109.792 116.948 110.191 117.89C108.727 119.605 107.733 121.169 105.432 121.787C105.958 119.038 105.791 116.398 108.99 115.057ZM110.211 106.656C111.344 106.094 112.129 106.082 112.552 107.159C112.624 107.342 112.409 107.797 112.213 107.901C111.092 108.475 110.689 107.685 110.211 106.656ZM112.632 103.82C112.457 103.788 112.333 103.481 112.185 103.293C112.54 103.138 112.891 102.938 113.262 102.851C113.334 102.839 113.502 103.253 113.737 103.664C113.266 103.744 112.935 103.868 112.632 103.82ZM107.809 94.1341C107.083 93.1807 106.963 92.3749 107.953 92.0957C109.868 91.5611 111.818 90.903 113.825 91.6011C113.849 91.8564 113.877 92.1077 113.909 92.355C111.854 92.9574 109.8 93.5557 107.809 94.1341ZM111.148 95.1554C110.542 97.0382 109.864 98.6139 107.801 99.7588C107.538 95.8574 107.538 95.8575 111.148 95.1554ZM104.291 124.942C104.398 124.687 104.63 124.436 104.861 124.304C106.848 123.195 108.846 122.11 110.996 120.941C111.942 122.114 111.846 123.359 110.697 124.412C108.759 126.191 107.326 128.756 104.127 128.704C103.664 128.7 103.613 126.526 104.291 124.942ZM111.97 115.719C111.567 114.415 111.28 113.466 110.989 112.52C111.148 112.396 111.304 112.269 111.463 112.141C112.153 112.504 112.847 112.863 113.996 113.458C113.175 114.375 112.7 114.902 111.97 115.719ZM115.265 115.253C117.603 116.697 117.383 117.65 114.144 120.096C112.62 117.83 112.656 117.674 115.265 115.253ZM117.124 112.373C117.842 110.625 118.835 108.998 119.769 107.346C119.844 107.211 120.279 107.274 120.961 107.203C120.786 109.839 119.649 111.782 118.628 113.749C117.515 113.741 116.789 113.186 117.124 112.373ZM120.977 94.5251C119.246 94.8642 117.431 95.4905 116.378 93.1489C119.142 90.4283 121.887 93.101 124.875 92.7739C124.855 97.4492 123.395 101.187 121.48 104.869C120.383 101.466 122.776 97.9678 120.977 94.5251ZM121.895 88.1106C111.459 86.2117 101.303 86.3793 91.9482 92.2753C89.8858 93.5757 87.7637 94.7724 85.7731 96.1646C84.8875 96.7829 84.1455 97.0382 83.0963 96.771C77.8187 95.4186 72.553 94.0304 67.2354 92.8496C63.8167 92.0957 60.3222 91.6848 56.8597 91.1143C56.2174 91.0106 55.5712 90.883 54.8491 90.7553C54.9529 89.3512 56.1097 88.9802 56.9434 88.4576C63.0588 84.6241 69.1422 80.6987 75.9318 78.1137C90.6039 72.5289 105.296 66.988 120 61.4909C120.834 61.1758 121.975 61.0919 122.788 61.3951C125.744 62.5081 128.8 62.899 131.908 63.3059C134.588 63.657 137.169 64.7341 139.83 65.3604C141.41 65.7394 143.049 65.867 144.661 66.0984C145.419 66.2021 146.249 66.1223 146.923 66.4136C151.67 68.452 156.277 70.7457 160.227 75.1218C158.707 75.8877 157.542 76.5779 156.309 77.0885C148.463 80.3197 140.6 83.511 132.745 86.7143C132.386 86.8619 132.019 87.0055 131.672 87.1811C128.533 88.7289 125.417 90.532 121.895 88.1106ZM89.3114 108.543C90.0255 108.83 91.1943 108.946 91.3738 109.429C92.024 111.16 93.0971 113.015 91.0667 115.392C90.213 112.963 89.5188 110.996 88.8287 109.026C88.9843 108.866 89.1479 108.706 89.3114 108.543ZM88.346 107.103C88.2543 105.878 88.1785 104.957 88.1107 104.079C88.4498 103.943 88.6293 103.804 88.7848 103.82C89.7741 103.979 91.2621 103.792 91.2661 105.12C91.2701 106.78 89.455 106.297 88.346 107.103ZM93.4362 100.445C91.7248 101.666 91.2063 101.498 89.6346 99.0767C91.2502 98.0196 92.6344 96.9944 94.1304 96.1726C95.9454 95.1793 96.0731 95.279 97.5929 97.3334C96.2127 98.3746 94.8523 99.4437 93.4362 100.445ZM101.945 107.29C101.929 108.814 100.748 108.994 99.412 109.552C99.4798 107.143 99.5915 107.059 101.945 107.29ZM101.426 104.267C102.24 103.225 102.819 102.839 103.82 104.223C102.871 104.243 102.272 104.251 101.426 104.267ZM103.485 110.39C103.684 112.277 102.727 113.438 101.243 114.339C99.6473 112.193 100.026 111.559 103.485 110.39ZM101.502 97.8919C102.887 97.4412 103.812 97.142 105.308 96.6513C105.164 98.3986 105.077 99.4238 104.937 101.123C103.633 99.8905 102.763 99.0767 101.502 97.8919ZM103.704 95.2192C102.867 95.4625 102.037 95.7657 101.207 96.0489C100.322 96.3521 99.5356 96.1207 99.4319 95.1873C99.3841 94.7684 99.9904 94.0344 100.469 93.835C101.626 93.3523 102.879 93.1009 104.259 92.71C104.937 93.9785 105.104 94.8123 103.704 95.2192ZM99.3162 98.9171C100.246 99.8945 101.071 100.76 101.917 101.65C99.2963 103.728 98.8096 103.712 95.0718 101.335C96.6914 100.409 97.916 99.7149 99.3162 98.9171ZM94.4016 112.644C94.0944 111.144 93.8392 109.895 93.5559 108.495C94.6928 108.228 95.5026 108.044 96.2605 107.865C97.8403 110.841 97.7246 111.2 94.4016 112.644ZM95.6582 118.795C96.5956 120.447 95.4587 121.049 94.25 121.943C93.7514 121.129 93.2647 120.435 92.8937 119.693C92.5068 118.911 92.2315 118.077 91.8246 117.06C94.0585 116.545 94.5532 116.856 95.6582 118.795ZM97.4932 113.821C100.226 115.265 100.306 115.875 97.8921 118.197C95.5904 115.696 95.5744 115.484 97.4932 113.821ZM97.3616 122.034C98.5344 123 99.6832 123.941 100.884 124.934L100.377 127.731C97.7485 128.018 96.9786 125.804 95.3709 124.264C96.1488 123.387 96.6515 122.828 97.3616 122.034ZM101.778 117.566C102.603 119.378 102.603 119.378 101.379 122.561C98.7019 120.351 98.7378 120.04 101.778 117.566ZM159.844 70.3029C156.022 67.8575 151.889 65.895 147.876 63.7488C147.178 63.3738 146.436 63.0746 145.327 62.556C151.526 60.6851 163.901 67.718 166.238 73.9451C163.745 73.3627 161.93 71.6432 159.844 70.3029ZM190.361 27.7786C191.554 28.1456 192.579 28.4606 192.878 30.2557C179.442 36.6982 165.752 42.67 151.71 47.8879C150.693 44.1301 151.654 41.206 154.578 39.4428C159.656 36.3751 164.675 33.1758 169.928 30.4313C173.798 28.4048 177.994 27.0286 182.047 25.3492C183.428 24.7747 184.58 25.0141 185.865 25.8478C187.221 26.7174 188.801 27.3079 190.361 27.7786ZM189.782 23.155C193.165 22.3173 196.544 21.4797 200.433 20.5143C199.735 22.9357 199.205 24.7707 198.594 26.8929C195.391 25.772 192.595 24.7907 189.802 23.8054C189.794 23.586 189.79 23.3705 189.782 23.155ZM211.735 12.8711C209.381 13.3738 207.035 13.8763 204.339 14.4547C204.131 10.5772 202.061 7.9325 199.34 5.57491C203.824 4.81697 210.147 8.57879 211.735 12.8711ZM194.418 6.32081C197.318 8.61058 200.653 10.4217 202.236 14.0359C202.388 14.383 202.488 14.7539 202.699 15.3682C199.947 17.8934 196.464 17.2751 193.145 18.6753C194.111 13.9761 191.286 11.2595 189.032 8.29554C188.402 7.47378 187.672 6.7238 186.85 5.78235C189.655 4.62151 192.032 4.42995 194.418 6.32081ZM191.202 18.8787C188.554 19.6925 185.985 20.4704 183.376 21.2722C181.289 16.2818 177.32 13.1064 173.495 9.78746C181.517 4.23056 190.476 10.7448 191.202 18.8787ZM167.615 12.8272C173.822 12.5639 176.973 16.8802 180.404 20.8573C180.571 21.0488 180.559 21.4079 180.711 22.0461C178.294 22.9876 176.052 23.8612 173.499 24.8505C171.42 20.0675 167.395 17.1634 163.035 14.4349C164.435 12.895 165.899 12.903 167.615 12.8272ZM158.787 17.3349C163.897 18.057 168.987 21.5435 170.838 25.9635C168.412 27.2839 166.135 28.5245 163.673 29.8689C161.284 25.2015 158.635 21.0289 152.875 19.8641C154.718 17.9453 156.413 16.9879 158.787 17.3349ZM149.711 22.9637C151.786 23.5142 153.892 23.949 155.918 24.6311C158.244 25.421 159.321 26.8969 160.937 30.914C159.556 32.5296 157.554 33.2596 155.444 34.4723C152.871 30.2039 149.596 27.0764 145.275 24.9303C146.376 23.0833 147.792 22.461 149.711 22.9637ZM142.527 28.7918C147.765 29.4062 151.135 31.652 152.831 35.8925C150.852 38.0786 150.904 37.9788 148.618 36.794C146.999 35.9523 145.243 35.35 143.504 34.7715C141.334 34.0575 139.379 33.14 138.25 30.7664C139.204 29.1987 140.528 28.5605 142.527 28.7918ZM146.983 42.8415L147.577 39.5505C148.738 41.1981 147.892 42.0237 146.983 42.8415ZM135.115 50.3651C138.219 50.1218 141.151 50.3572 142.886 52.8983C144.633 53.365 146.053 53.7479 147.868 54.2346C145.914 56.5164 143.56 57.2983 141.633 58.6706C138.741 60.729 135.937 60.8806 132.69 59.1373C129.885 57.6374 126.706 56.8555 123.702 55.7306C123.199 55.5431 122.749 55.2119 121.971 54.7771C125.07 52.0445 127.93 49.699 132.227 50.5247C133.144 50.6923 134.15 50.4369 135.115 50.3651ZM120.148 44.7245C123.123 43.5197 126.111 42.3628 129.091 41.1741C130.583 40.5797 132.063 39.9415 133.771 39.2274L132.889 44.1261C131.206 44.8801 129.746 45.3068 128.533 46.1086C123.798 49.2441 123.582 49.3 119.039 46.2922C118.887 46.2005 118.819 45.981 118.584 45.618C119.09 45.3188 119.589 44.9439 120.148 44.7245ZM107.662 49.5753C111.188 48.0036 114.718 46.1366 118.297 49.5313C118.767 49.9741 119.489 50.1537 120.471 50.6404C119.174 51.9249 118.153 52.9381 117.172 53.9075C113.498 52.8384 109.955 51.8053 106.162 50.6963C106.704 50.2854 107.131 49.8146 107.662 49.5753ZM41.3817 81.2452C43.8111 78.8238 46.4998 76.8092 49.6592 75.3452C57.7093 71.6114 65.6477 67.6342 73.7138 63.9323C79.4742 61.2835 85.3582 58.9179 91.1943 56.4486C92.8817 55.7265 94.5971 55.0683 96.2965 54.3822C96.3842 54.3423 96.472 54.2705 96.5637 54.2665C102.763 54.0551 108.946 53.9434 114.73 57.4459C112.086 58.4432 109.556 59.3527 107.055 60.334C99.5117 63.278 91.9602 66.1861 84.4606 69.2218C77.687 71.9744 70.9215 74.7549 64.2556 77.7587C58.4593 80.3756 53.1497 83.89 48.2351 87.931C46.9586 88.9801 45.7937 89.3911 44.2539 89.0919C42.8298 88.8206 41.4017 88.5733 39.6863 88.2661C39.8658 86.475 39.9735 84.656 40.2807 82.8688C40.3804 82.2784 40.923 81.6999 41.3817 81.2452ZM36.0163 79.4899C36.0083 81.0058 35.9963 82.0311 35.9884 83.3435L31.0977 82.4578C31.0538 82.2504 31.0139 82.0431 30.97 81.8356C32.5098 81.1255 34.0457 80.4074 36.0163 79.4899ZM35.2583 86.5029C34.9592 87.2688 34.8196 87.951 34.4605 88.4895C33.559 89.8339 32.0471 89.6583 31.333 88.1943C30.9501 87.4124 30.5312 86.6465 30.0046 85.6333C31.9194 84.8674 33.4912 85.8447 35.2583 86.5029ZM31.8357 92.1116C30.4634 93.5717 29.1151 95.0117 27.3519 96.8866C26.7615 95.1513 26.3466 93.9547 25.9676 92.8258C28.7481 90.2089 29.0114 90.1769 31.8357 92.1116ZM26.9809 84.4365C27.8186 85.6492 27.5753 86.435 25.9118 87.2768C26.4025 85.9803 26.6936 85.2064 26.9809 84.4365ZM25.3134 88.8964C26.1152 90.4841 25.5767 90.9548 24.1047 91.5173C24.5754 90.4961 24.8467 89.9056 25.3134 88.8964ZM21.2444 102.627C20.5703 99.1526 22.4013 97.3135 23.9292 94.8682C24.4996 96.2564 24.9225 97.3056 25.453 98.6021C24.1526 99.8507 22.8521 101.091 21.2444 102.627ZM13.0547 272.816C8.42731 267.128 5.85432 260.825 5.54317 253.286C5.15223 243.779 5.45542 234.397 6.7479 224.974C8.18799 214.479 9.95515 204.015 10.3541 193.388C10.4817 190.01 11.3872 186.667 11.7543 183.292C12.6757 174.855 13.3699 166.394 14.3991 157.961C15.0613 152.547 16.2501 147.19 17.0279 141.781C18.6156 130.643 20.7219 119.625 24.2802 108.93C24.34 108.746 24.4956 108.551 24.4637 108.379C23.9611 105.216 26.2429 103.756 28.1776 101.961C31.5245 98.8573 34.6999 95.5702 38.1066 92.2113C39.2435 92.335 40.552 92.4827 42.2154 92.6662C41.653 93.5637 41.3538 94.2698 40.8551 94.7964C37.6598 98.1433 35.9086 102.208 34.6959 106.6C33.0564 112.528 30.9301 118.344 29.7055 124.352C27.7548 133.91 26.0913 143.548 24.8387 153.218C23.622 162.6 23.0396 172.066 22.2657 181.509C21.6115 189.487 21.1846 197.489 20.4626 205.468C19.948 211.204 19.1143 216.908 18.4361 222.633C16.6888 237.373 14.9017 252.117 15.1171 267.004C15.149 269.426 15.2847 271.847 15.3804 274.408C14.0521 274.476 13.6172 273.507 13.0547 272.816ZM77.4916 289.762C74.5795 293.54 70.5185 295.14 65.6677 294.442C57.5178 293.277 49.6313 291.21 41.9123 288.278C35.6772 285.901 29.7493 283.049 24.1087 279.498C22.868 278.72 22.2617 277.946 22.2537 276.526C22.2457 272.234 22.0463 267.938 22.138 263.653C22.3215 254.869 22.5489 246.081 22.9239 237.305C23.5263 223.243 24.9743 209.265 27.0008 195.339C28.0939 187.808 28.6563 180.196 29.5619 172.633C30.3956 165.656 31.2613 158.679 32.2984 151.734C33.4952 143.723 34.6481 135.689 36.2716 127.755C37.9591 119.533 40.3685 111.467 44.0904 103.908C45.5424 100.956 47.5848 98.2868 49.3919 95.5104C50.4012 93.9586 51.7176 93.4959 53.6563 93.9028C60.039 95.2431 66.4695 96.3681 72.8761 97.5888C73.7378 97.7564 74.6074 97.9239 75.4451 98.1712C78.1458 98.969 80.8385 99.8067 83.4075 100.589C84.4327 104.638 85.1946 108.854 86.6148 112.835C88.0429 116.856 89.9018 120.778 91.9961 124.508C94.1144 128.281 97.1342 131.377 101.119 133.579C100.246 140.145 99.3561 146.524 98.5583 152.918C96.9627 165.704 95.3829 178.493 93.8591 191.294C92.786 200.31 91.7249 209.329 90.8433 218.36C90.3287 223.602 90.2808 228.892 89.8619 234.146C88.9524 245.435 88.0668 256.728 86.9299 267.993C86.0962 276.179 82.4421 283.328 77.4916 289.762ZM79.8531 293.815C81.2653 292.343 82.6815 290.871 84.2492 289.236C84.317 292.08 83.196 293.341 79.8531 293.815ZM89.7902 289.539C88.2384 287.157 88.2383 287.157 90.4962 284.848C90.6956 284.939 90.8872 285.031 91.0866 285.123C90.6877 286.475 90.2928 287.84 89.7902 289.539ZM93.153 290.688C93.3285 288.502 93.496 286.443 93.6875 284.13C94.8843 284.892 95.7699 285.466 96.6355 286.025C96.7193 289.124 96.2884 289.746 93.153 290.688ZM147.82 263.286C143.468 265.7 139.056 268.009 134.72 270.447C129.706 273.259 124.707 276.104 119.773 279.059C115.492 281.628 111.044 283.799 106.277 285.271C105.476 285.514 104.478 285.693 103.728 285.446C100.936 284.533 98.2591 283.296 96.1249 281.202C94.0147 279.135 92.9615 276.786 93.2807 273.59C93.5639 270.734 92.8658 267.79 92.6783 264.878C92.5626 263.047 92.3312 261.168 92.5865 259.373C93.9468 249.608 94.9042 239.818 95.4906 229.965C96.2525 217.104 97.3695 204.259 98.674 191.434C99.8468 179.873 101.458 168.356 102.894 156.82C103.625 151 104.375 145.187 105.144 139.375C105.308 138.127 105.583 136.886 105.827 135.522C111.535 133.738 116.071 130.013 120.331 125.976C123.431 123.036 125.31 119.166 126.558 115.157C128.21 109.855 129.562 104.434 130.723 98.997C131.241 96.5716 131.002 93.9746 131.126 91.0187C141.131 86.8739 151.534 82.5617 162.201 78.1417C164.18 80.1602 164.531 82.7331 164.631 85.2343C164.858 90.9867 164.794 96.751 164.95 102.507C164.994 104.127 164.108 104.705 162.856 105.256C159.337 106.8 156.413 109.197 153.892 112.026C149.923 116.481 151.407 120.869 157.267 122.11C158.695 122.413 160.255 122.11 162.046 122.086C162.465 124.667 162.273 127.559 161.93 130.388C160.897 139.116 159.62 147.812 158.579 156.545C158.076 160.701 157.969 164.91 157.538 169.082C156.569 178.501 155.527 187.919 154.466 197.33C153.457 206.353 152.392 215.369 151.339 224.388C151.223 225.357 150.992 226.311 150.872 227.284C150.74 228.385 150.09 228.936 149.117 229.394C145.235 231.225 141.952 237.253 142.347 241.482C142.519 243.384 143.652 244.461 145.168 245.295C146.38 245.961 147.613 246.584 148.921 247.274L149.173 245.894C150.577 245.774 151 246.66 150.912 247.832C150.581 252.212 150.158 256.585 149.827 260.965C149.707 262.297 148.73 262.78 147.82 263.286ZM155.93 118.44C154.67 116.45 154.809 115.317 156.389 113.609C156.593 115.269 156.816 116.777 155.93 118.44ZM160.781 256.046C160.099 251.674 161.276 247.757 161.467 243.811C161.483 243.472 162.014 243.165 162.309 242.846C162.58 242.946 162.848 243.045 163.111 243.145C162.728 247.142 162.361 251.147 161.938 255.141C161.91 255.38 161.411 255.571 160.781 256.046ZM155.424 241.13C153.553 239.351 153.732 237.193 153.944 235.083C153.996 234.588 154.406 233.954 154.833 233.707C158.699 231.533 162.433 229.079 167.008 228.533C168.041 228.409 169.003 227.711 170.411 227.097C170.1 230.061 169.864 232.342 169.565 235.191C165.564 237.879 160.43 239.335 155.424 241.13ZM209.947 228.058C202.201 232.191 194.49 236.387 186.798 240.632C182.267 243.125 177.819 245.762 173.319 248.315C172.525 248.762 171.648 249.073 170.235 249.715C170.451 247.657 170.571 246.233 170.758 244.821C170.954 243.301 171.137 241.777 171.488 240.293C171.644 239.651 172.07 238.913 172.605 238.546C175.657 236.387 178.246 233.85 179.977 230.48C182.235 226.087 179.702 221.105 174.867 220.491C174.492 220.439 174.133 220.279 173.542 220.1C173.957 214.95 174.831 196.947 175.11 194.465C176.335 183.711 177.763 172.98 178.892 162.213C179.853 153.11 180.512 143.979 181.305 134.859C181.924 127.775 182.57 120.694 183.144 113.609C183.26 112.249 183.627 111.563 185.147 111.303C186.85 111.012 188.546 110.362 190.074 109.556C193.145 107.961 194.338 105.092 194.529 101.809C194.649 99.7908 192.252 97.3374 190.01 97.13C187.772 96.9265 185.49 96.1288 182.829 98.0156C183.436 88.302 183.256 79.2904 180.643 70.1473C183.264 69.0622 185.821 67.9413 188.422 66.9361C198.977 62.8591 209.656 59.0734 219.777 53.9513C221.325 53.1735 222.793 52.2241 224.727 51.1071C225.354 61.9417 225.964 72.4251 226.57 82.8887C226.431 83.0602 226.327 83.3115 226.183 83.3395C222.246 84.1732 219.569 86.7582 216.881 89.5546C212.122 94.4972 215.863 98.8533 220.12 99.8625C221.428 100.174 222.773 100.357 224.181 100.613C224.013 102.42 223.818 104.039 223.71 105.671C223.299 112.006 223.052 118.352 222.481 124.667C222.019 129.817 221.109 134.931 220.527 140.069C219.346 150.449 218.46 160.869 217.064 171.213C215.931 179.53 214.268 187.768 212.72 196.025C212.445 197.521 211.595 198.909 211.029 200.286C205.763 201.71 203.154 205.575 204.135 210.386C204.785 213.573 207.969 215.377 212.022 214.726C212.524 216.039 212.118 217.307 211.938 218.628C211.631 220.838 211.356 223.08 211.412 225.298C211.447 226.658 211.208 227.388 209.947 228.058ZM175.968 231.469C175.637 232.969 174.687 233.575 173.128 234.261C173.187 232.063 173.882 231.154 175.968 231.469ZM221.333 90.4361C218.847 92.8855 218.843 92.8576 220.742 95.5024C221.001 95.8655 221.061 96.3681 221.325 97.13C217.439 96.3122 216.49 94.2539 218.464 91.5692C219.226 90.528 220.291 89.7023 221.217 88.7847C221.376 88.8845 221.54 88.9962 221.7 89.0919C221.588 89.5506 221.62 90.1489 221.333 90.4361ZM209.876 210.374C209.501 210.709 209.166 211.144 208.731 211.332C208.595 211.395 208.168 210.785 207.877 210.482C208.352 210.171 208.831 209.86 209.305 209.544L209.876 210.374ZM218.919 223.275C218.365 220.838 218.389 220.535 219.334 216.829C219.992 218.376 219.908 220.299 218.919 223.275ZM224.225 218.863C224.001 219.94 223.818 221.001 222.222 221.161C222.17 215.979 222.765 212.145 223.91 210.071C224.767 211.304 224.899 215.48 224.225 218.863ZM230.731 203.09C230.627 203.433 229.993 203.684 229.554 203.844C224.624 205.615 219.685 207.37 214.156 209.345L215.317 202.914C220.794 200.337 226.455 197.673 232.554 194.805C232.367 197.844 231.521 200.469 230.731 203.09ZM295.068 92.7419C293.58 98.9011 292.032 105.045 290.461 111.184C289.148 116.286 287.708 121.356 286.44 126.466C284.704 133.479 282.985 140.496 281.445 147.545C279.905 154.606 278.633 161.718 277.201 168.791C276.343 173.004 275.621 177.264 274.404 181.369C273.794 183.435 272.266 185.25 271.041 187.105C266.039 194.657 258.691 199.412 251.048 203.832C245.894 206.808 240.871 210.003 235.741 213.023C234.373 213.829 233.017 214.958 230.954 214.507C231.206 212.612 231.409 210.789 231.72 208.986C231.868 208.136 232.386 207.65 233.264 207.131C236.802 205.073 240.157 202.715 241.889 198.754C242.974 196.28 243.085 193.835 241.574 191.482C240.261 189.451 238.893 189.012 236.571 189.766C235.925 189.978 235.259 190.129 234.62 190.349C234.022 190.556 233.44 190.819 232.582 191.162C232.542 190.428 232.442 189.966 232.51 189.531C233.87 180.655 235.334 171.799 236.599 162.911C237.676 155.376 238.546 147.808 239.467 140.253C240.209 134.153 240.971 128.054 241.585 121.939C242.136 116.505 242.351 111.036 242.986 105.611C243.456 101.55 244.378 97.5408 245.06 93.4998C245.287 92.1834 246.197 91.8444 247.306 91.5811C248.814 91.2141 250.37 90.9069 251.778 90.2926C253.804 89.423 255.308 87.9669 256.098 85.7848C257.227 82.6773 255.412 78.2454 252.312 77.3279C251.088 76.9688 249.675 77.272 248.351 77.256C247.434 77.248 246.512 77.2162 245.559 77.1922C245.531 66.4135 243.923 56.1334 241.486 45.614C243.233 44.7165 244.873 43.6912 246.644 43.0171C254.574 39.9933 262.588 37.181 270.487 34.0614C273.614 32.8288 276.447 32.4857 279.893 33.0761C287.796 34.4404 293.508 38.5492 297.793 45.0316C298.65 46.3241 298.957 47.7721 299.057 49.4276C299.727 60.8406 297.366 71.9505 295.862 83.156C295.619 84.9751 295.647 86.83 295.507 88.677C295.411 90.0333 295.383 91.4295 295.068 92.7419ZM235.765 201.427L237.473 191.964C241.019 195.175 240.48 198.61 235.765 201.427Z" fill="black"/>
<path fill-rule="evenodd" clip-rule="evenodd" d="M136.391 59.1833C137.915 59.4585 140.436 57.823 140.688 56.2832C140.604 55.0226 139.575 54.7114 138.506 54.5359C136.284 54.1808 134.496 55.0545 134.281 56.5663C134.098 57.8748 134.939 58.916 136.391 59.1833Z" fill="black"/>
<path fill-rule="evenodd" clip-rule="evenodd" d="M130.052 55.5553C131.345 55.7069 133.124 54.6816 133.391 53.6405C133.635 52.6711 132.498 51.7097 130.782 51.4145C129.191 51.1472 127.503 51.8853 127.356 52.9224C127.2 53.9836 128.64 55.3917 130.052 55.5553Z" fill="black"/>
</svg>
