<svg width="488" height="300" viewBox="0 0 488 300" fill="none" xmlns="http://www.w3.org/2000/svg">
<path fill-rule="evenodd" clip-rule="evenodd" d="M486.323 107.489C485.828 105.124 485.544 102.438 483.197 100.797C481.125 99.3481 479.237 97.6062 477.101 96.2861C472.801 93.6183 468.034 92.2799 463.038 93.3066C457.354 94.4617 451.798 96.2219 446.866 99.4306C439.77 104.042 432.784 108.827 425.652 113.393C419.262 117.472 412.845 121.515 406.253 125.256C399.588 129.042 394.445 135.377 386.534 137.045C382.344 140.355 378.081 143.582 373.983 147.02C367.978 152.062 362.23 157.453 356.097 162.348C349.478 167.629 342.556 172.542 335.736 177.566C334.516 178.465 333.086 179.079 331.445 180.005C331.143 178.584 330.95 177.878 330.84 177.154C328.732 164.447 322.315 154.455 311.653 147.313C304.612 142.601 297.278 138.356 290.274 133.608C281.537 127.667 272.626 122.001 262.991 117.683C258.013 115.446 252.705 113.705 247.378 112.568C243.528 111.752 239.393 112.183 235.387 112.274C221.26 112.577 209.002 117.188 200.752 129.152C196.305 135.597 192.785 142.711 189.136 149.669C186.826 154.07 185.057 158.754 183.012 163.366C178.795 160.285 174.807 157.453 170.92 154.51C168.445 152.64 165.86 151.411 162.669 151.851C158.911 152.365 155.152 152.86 151.356 153.373C151.127 152.915 150.779 152.539 150.751 152.144C150.146 146.406 149.065 140.667 150.898 134.937C151.292 133.681 151.375 132.297 151.375 130.967C151.43 123.395 151.778 115.85 150.504 108.287C148.909 98.8164 145.122 90.4005 139.447 82.8006C138.256 81.2054 136.358 80.1328 134.415 78.5193C138.403 75.2281 141.685 72.4778 145.012 69.7825C147.167 68.0407 149.064 65.9413 149.11 63.1452C149.174 59.2764 150.816 57.0486 154.492 56.141C154.904 56.0402 155.253 55.6919 155.656 55.4994C165.639 50.5489 175.614 45.5799 185.625 40.6844C193.628 36.7606 201.586 32.7269 209.745 29.1332C215.842 26.4471 222.149 24.2194 228.484 22.1292C230.812 21.3591 233.48 21.2674 235.955 21.4324C238.99 21.6158 239.833 23.4126 238.87 26.3462C238.275 28.1706 237.706 30.0316 237.34 31.9202C235.68 40.3819 234.177 48.862 232.499 57.3145C231.353 63.0443 231.133 67.9856 236.239 72.6611C240.438 76.4932 244.38 77.6025 249.441 76.1173C254.382 74.6597 257.646 71.2952 259.186 66.4822C260.726 61.6875 261.56 56.6453 263.256 51.9057C266.263 43.5448 267.501 34.9455 267.785 26.1354C267.941 21.4691 268.033 16.6102 264.98 12.9248C262.294 9.67943 258.783 7.02086 255.299 4.5731C249.707 0.621848 242.84 0.750233 236.45 0.172673C230.776 -0.349883 224.817 0.374315 219.179 1.52944C211.221 3.17044 203.392 5.55401 195.608 7.92843C191.795 9.09272 188.174 10.8896 184.516 12.5306C176.118 16.2893 167.821 20.2589 159.369 23.8893C154.198 26.117 148.854 27.9231 143.546 29.8483C142.748 30.1325 141.804 29.995 140.924 30.0683C138.577 30.2792 136.156 30.2241 133.919 30.8109C131.068 31.5718 128.355 32.8735 125.595 33.9461C116.886 37.329 108.122 40.5927 99.4767 44.1498C94.2695 46.2858 89.2639 48.9262 84.1667 51.3281C82.0123 52.3457 79.8763 53.3999 77.3461 52.6482C74.9258 51.9331 72.5055 51.1539 70.021 50.7597C66.2256 50.1547 62.3019 49.1737 58.5615 49.5496C51.8049 50.228 45.1126 51.5023 38.6953 54.1151C33.048 56.4253 28.6291 59.9273 25.998 65.3545C22.9452 71.6252 19.9199 77.9417 17.5822 84.4965C16.3629 87.9069 14.7771 89.9146 11.4126 91.2164C3.81261 94.1684 0.0263438 99.8706 0.264702 108.176C0.365546 111.596 0.218835 115.025 0.0629852 118.444C-0.212044 124.22 0.145315 129.638 6.75518 131.691C6.75518 132.544 6.77373 132.975 6.74623 133.415C5.86613 149.477 6.01262 165.474 8.89125 181.408C10.7523 191.73 15.7487 200.018 23.9537 206.261C33.6622 213.641 43.976 220.15 55.1513 225.082C63.7047 228.85 72.5238 232.013 81.0864 235.753C87.7696 238.669 94.8197 239.64 101.897 240.227C105.527 240.53 109.625 240.392 112.861 238.971C120.782 235.524 127.685 230.299 134.085 224.468C134.625 223.964 135.111 223.359 135.441 222.708C137.917 217.812 141.025 213.1 142.647 207.93C145.819 197.754 148.148 187.312 150.907 176.65C158.104 174.624 164.549 176.356 170.691 180.922C169.967 182.205 169.435 183.076 168.958 183.993C165.117 191.318 163.43 199.009 164.888 207.269C165.731 212.092 166.3 216.969 167.235 221.764C168.582 228.749 169.967 235.726 171.681 242.62C172.79 247.057 174.67 251.302 175.962 255.711C177.108 259.644 179.263 262.679 182.765 264.723C187.752 267.647 192.583 270.966 197.846 273.322C207.316 277.549 217.052 281.206 226.696 285.029C230.556 286.56 234.479 287.954 238.394 289.311C247.094 292.299 255.721 295.526 264.907 296.782C267.208 297.094 269.445 298.029 271.636 298.872C274.633 300.037 277.65 300.293 280.794 299.67C285.351 298.753 288.687 295.7 292.428 293.289C299.78 288.522 305.171 282.004 308.361 274.01C313.147 262.046 318.189 250.119 320.242 237.183C322.351 236.523 324.322 235.918 326.284 235.277C329.034 234.378 330.987 232.701 332.903 230.39C336.763 225.715 341.016 221.268 345.637 217.345C351.953 211.972 359.205 207.746 364.311 200.916C366.117 198.496 368.73 196.562 371.242 194.811C378.75 189.567 385.149 183.104 391.136 176.292C396.618 170.076 401.184 163.063 406.629 156.82C412.075 150.577 417.566 144.169 424.029 139.081C433.224 131.866 443.309 125.76 453.045 119.242C455.126 117.857 457.509 117.207 460.205 117.243C460.782 120.654 460.085 123.679 459.132 126.64C457.711 131.031 456.29 135.404 454.667 139.713C453.411 143.032 451.661 146.176 450.46 149.513C448.91 153.831 447.59 158.223 446.389 162.651C446.059 163.861 446.444 165.282 446.655 166.593C447.022 168.765 447.379 170.966 447.993 173.083C448.296 174.128 448.929 175.357 449.781 175.944C454.933 179.427 461.864 178.868 465.797 174C466.815 172.735 467.896 171.433 468.557 169.966C470.454 165.777 472.068 161.459 473.919 157.251C478.815 146.094 483.83 135.01 486.158 122.918C487.203 117.747 487.396 112.604 486.323 107.489ZM240.548 58.9189C240.09 60.4132 239.503 61.8616 238.971 63.3284C238.651 63.2918 238.321 63.2551 237.991 63.2276C237.706 62.0174 237.028 60.7524 237.211 59.6248C238.843 49.5771 240.631 39.5569 242.464 28.9866C244.674 30.6184 244.784 32.3694 244.875 34.0838C245.178 40.3728 244.664 46.5242 242.391 52.4924C241.612 54.5734 241.208 56.792 240.548 58.9189ZM232.407 6.64496C237.477 4.82977 242.648 4.62813 247.8 5.54489C253.374 6.52583 257.71 9.42276 259.635 15.1617C260.479 17.6736 261.194 20.2131 261.469 22.8075C262.001 23.2567 262.349 23.9351 262.349 24.8427C262.303 30.5267 261.515 36.1923 260.332 41.757C259.177 47.1568 257.499 52.4648 256.518 57.9012C255.748 62.1275 255.363 67.4539 251.925 70.5067C250.266 71.9827 248.405 72.5328 246.819 72.1294C246.718 72.2028 246.636 72.2853 246.562 72.3495C244.179 71.451 243.299 70.0392 243.344 68.1965C243.188 67.5089 243.335 66.8031 243.693 66.2072C245.169 60.5782 246.489 54.8942 248.121 49.302C250.596 40.8952 250.193 32.4519 248.121 24.1735C246.333 17.0503 240.026 14.575 233.067 17.1053C228.199 18.8746 223.112 20.0205 218.152 21.5424C215.741 22.2849 213.274 23.0092 211.056 24.1735C199.991 30.0225 188.32 34.3955 176.76 39.1168C170.883 41.5187 165.493 45.094 159.891 48.156C157.975 49.1919 156.087 50.2738 154.208 51.3281C153.502 48.4036 153.291 46.185 152.42 44.269C151.43 42.1237 152.053 40.822 153.804 39.8136C156.756 38.1084 159.708 36.3572 162.788 34.9363C176.815 28.4914 190.851 22.0467 204.987 15.8218C210.13 13.5574 215.521 11.8339 220.856 10.0462C224.67 8.76271 228.64 7.99261 232.407 6.64496ZM147.799 32.7269C156.252 30.2425 163.916 25.9796 171.782 22.1658C186.514 15.0334 201.788 9.40445 217.758 5.70073C218.014 5.63655 218.317 5.79239 219.279 5.97574C217.666 6.77333 216.566 7.37846 215.42 7.88268C201.137 14.0983 186.835 20.2772 172.561 26.5204C166.584 29.1423 160.671 31.9386 154.712 34.5972C153.364 35.1931 151.879 35.5047 150.513 36.0639C148.157 37.0448 146.965 35.8072 145.746 33.6895C146.571 33.2952 147.158 32.9102 147.799 32.7269ZM6.85618 125.292C5.81107 124.229 5.00429 123.798 4.99512 123.349C4.84844 118.27 5.16016 113.246 6.85618 108.415V125.292ZM141.419 54.711C140.887 51.7407 140.777 48.6053 139.714 45.8367C138.733 43.2422 136.743 41.0328 135.304 38.8142C140.346 40.0793 143.197 46.4509 141.419 54.711ZM131.023 39.9418C134.277 41.6012 136.487 44.2231 137.073 48.1836C137.963 54.2159 137.752 59.9823 135.111 65.5929C134.204 67.4906 133.003 68.7099 130.949 69.2233C131.169 65.5837 131.343 62.0542 131.609 58.5338C132.123 51.7498 130.473 45.8917 124.569 41.8029C124.239 41.5737 124.055 41.1153 123.634 40.5102C126.072 38.7867 128.731 38.7867 131.023 39.9418ZM127.218 51.493C128.74 57.9929 128.447 64.3919 125.33 70.7451C122.524 70.2409 122.854 68.6733 122.964 66.9406C123.166 63.6952 123.221 60.4315 123.092 57.1861C122.891 51.9331 119.746 48.8253 115.117 46.9368C114.374 46.6342 113.631 46.3134 112.66 45.8917C120.095 41.6837 125.421 43.8014 127.218 51.493ZM105.436 49.0086C109.882 48.3394 113.714 49.8978 117.143 52.5381C117.473 52.7856 117.28 53.7391 117.271 54.445C117.326 54.445 117.381 54.4542 117.427 54.445C117.372 54.4909 117.317 54.5366 117.262 54.5733C117.271 54.5825 117.262 54.6009 117.262 54.6101C118.72 54.8393 119.196 55.7927 119.187 57.1404C119.169 60.5324 119.178 63.9335 119.178 67.3989C112.724 66.4454 112.146 65.7762 111.596 58.928C113.439 57.5162 115.346 56.0585 117.262 54.5733C117.262 54.5366 117.271 54.4816 117.271 54.4358C117.024 54.4266 116.767 54.3992 116.556 54.4634C109.378 56.6819 109.378 56.6911 104.977 49.6687C105.133 49.4396 105.252 49.0361 105.436 49.0086ZM101.063 51.1722C102.374 52.6482 103.786 53.9592 104.812 55.5177C105.353 56.3611 105.747 58.0296 105.298 58.6163C104.602 59.5148 102.796 60.5232 102.016 60.1931C99.1101 58.9738 95.6813 58.268 93.8936 54.2159C96.3872 53.1433 98.5325 52.2449 101.063 51.1722ZM136.028 201.751C136.743 196.094 137.403 190.429 138.228 184.781C138.357 183.919 139.283 183.177 140.291 182.535C139.888 189.173 138.953 195.645 136.028 201.751ZM319.683 204.767C319.573 205.353 319.399 205.949 319.427 206.527C319.876 217.189 315.732 226.943 313.303 237.009C311.469 244.655 308.902 252.127 306.592 259.672C303.878 268.546 299.221 276.192 292.024 282.151C291.135 282.884 290.035 283.425 288.944 283.81C287.019 284.488 284.874 284.681 283.095 285.598C277.026 288.779 270.563 288.724 264.393 287.028C253.814 284.113 243.344 280.702 233.049 276.898C224.707 273.817 206.087 266.309 205.198 266.006C194.197 262.385 185.689 254.428 181.875 243.418C178.208 232.792 178.777 221.039 181.591 210.286C181.83 209.369 184.607 193.225 182.545 187.55C180.363 181.508 176.622 176.916 170.379 174.779C164.503 172.763 158.745 170.223 152.31 170.434C151.338 170.461 150.339 169.765 149.33 169.673C147.735 169.545 146.021 169.297 144.536 169.719C136.826 171.91 130.197 180.491 129.895 188.613C129.647 195.746 128.987 202.814 127.878 209.882C126.787 216.85 123.468 222.378 118.875 227.365C118.234 228.071 117.088 228.758 116.199 228.722C111.202 228.511 106.316 229.373 101.164 228.438C93.9852 227.127 87.0638 224.981 79.9955 223.349C73.8715 221.947 68.096 219.673 62.8613 216.116C61.7704 215.383 60.4777 214.897 59.2217 214.448C51.9426 211.826 44.8467 208.846 38.5669 204.217C28.345 196.681 22.2211 186.532 18.5815 174.431C14.3186 160.276 14.7862 145.947 15.7121 131.536C16.033 126.53 17.2613 102.218 18.499 96.002C19.1132 92.9491 30.5545 69.1316 36.8527 63.0626C39.383 60.6149 42.3808 59.4414 45.9104 58.7722C57.9108 56.5078 69.5352 58.9005 81.1781 61.0824C83.8917 61.5866 86.4862 62.9618 89.0073 64.2086C97.2215 68.2607 105.647 71.9827 113.467 76.6857C124.239 83.1855 133.645 91.2805 139.402 102.942C142.299 108.827 143.802 114.988 143.839 121.415C143.885 129.143 143.39 136.862 143.142 144.581C143.005 148.89 142.904 153.162 141.217 157.278C140.933 157.966 141.694 159.68 142.427 160.075C144.416 161.129 146.525 161.165 148.753 160.075C153.932 157.535 159.286 156.261 164.869 159.103C166.19 159.772 167.546 160.441 168.967 160.826C172.937 161.881 175.99 164.237 178.062 167.592C179.758 170.324 182.013 171.397 184.992 171.727C187.779 172.029 188.403 171.782 189.31 169.178C189.989 167.207 190.713 165.218 191.052 163.192C192.042 157.223 194.188 151.732 197.607 146.763C201.641 140.896 205.482 134.864 209.956 129.335C214.008 124.302 219.93 121.965 226.238 121.121C231.216 120.452 236.304 119.847 241.291 120.122C245.215 120.333 249.23 121.497 252.906 123.001C260.048 125.907 267.135 129.07 273.955 132.663C278.264 134.928 282.123 138.063 286.066 140.951C291.328 144.82 296.508 148.798 301.678 152.786C304.502 154.959 307.27 157.187 309.975 159.479C315.219 163.952 317.272 170.113 319.087 176.485C321.792 185.9 321.526 195.297 319.683 204.767ZM339.595 190.392C338.825 198.331 337.762 206.252 336.579 214.154C336.378 215.493 334.984 216.657 334.15 217.895C333.847 217.776 333.545 217.666 333.242 217.555C333.169 216.776 332.93 215.96 333.05 215.218C333.994 209.846 335.002 204.473 335.983 199.11C336.488 196.314 336.918 193.628 335.103 190.979C334.406 189.97 334.608 188.338 334.407 186.963C339.11 186.459 339.934 186.844 339.595 190.392ZM426.413 117.857C431.721 114.355 437.111 110.973 442.493 107.59C442.969 107.296 443.611 107.26 444.18 107.095C446.811 104.28 450.056 102.483 453.897 100.952C452.366 103.849 449.91 105.463 444.427 107.379C439.614 112.568 430.767 118.729 424.442 120.975C425.349 119.508 425.661 118.353 426.413 117.857ZM350.56 186.789C349.735 192.473 348.791 198.138 347.635 203.767C347.351 205.124 346.086 206.279 344.748 208.351C344.308 206.554 344.069 205.894 344.005 205.225C343.483 199.816 343.088 194.38 342.465 188.989C342.263 187.183 341.466 185.441 340.796 183.223C343.107 183.012 345.362 182.563 347.59 182.654C349.625 182.755 350.89 184.515 350.56 186.789ZM354.355 198.368C354.181 198.679 353.659 198.808 352.467 199.504C353.026 195.452 353.558 192.106 353.915 188.76C354.603 182.26 353.75 181.068 347.461 179.464C349.423 176.778 354.484 175.439 356.904 177.08C357.564 177.539 358.233 178.437 358.334 179.189C359.223 186.037 357.628 192.39 354.355 198.368ZM360.177 192.858C360.544 189.521 361.103 186.202 361.231 182.884C361.497 176.219 361.038 175.678 354.777 173.487C356.995 170.232 360.076 169.187 363.321 168.765C364.403 168.619 366.081 169.16 366.722 169.985C371.517 176.118 368.134 191.565 360.177 192.858ZM372.525 184.497C372.223 184.735 371.719 184.735 370.976 184.937C372.645 177.062 372.755 169.737 364.77 164.447C366.227 163.173 367.447 162.128 368.712 161.028C370.096 161.441 371.389 161.761 372.635 162.192C376.743 163.595 378.915 166.088 378.86 170.379C378.778 175.889 377.146 180.922 372.525 184.497ZM387.836 169.792C386.891 172.029 384.333 173.588 382.509 175.458C382.197 175.302 381.895 175.155 381.583 174.999C382.656 167.372 381.162 161.156 372.461 159.039C373.937 155.784 376.596 154.418 379.025 152.658C379.603 152.832 380.171 152.96 380.712 153.162C383.142 154.07 386.176 153.978 387.212 157.159C388.569 161.312 389.55 165.703 387.836 169.792ZM392.199 164.182C391.475 161.275 390.861 158.314 389.972 155.454C388.982 152.245 385.864 151.466 382.766 150.137C384.462 147.084 386.937 145.663 389.476 144.526C392.227 143.289 394.354 144.389 395.28 147.332C397.177 153.373 395.445 158.855 392.199 164.182ZM403.576 136.615C409.04 131.6 415.384 127.914 421.976 124.486C416.356 130.472 410.26 135.854 402.293 139.071C402.724 138.237 402.944 137.192 403.576 136.615ZM451.44 164.117C450.89 160.221 451.541 156.508 453.1 152.942C454.988 148.587 456.868 144.233 458.536 139.787C460.26 135.221 461.928 130.61 463.212 125.907C464.018 122.964 464.064 119.801 464.477 116.739C464.55 116.198 464.779 115.685 464.999 114.979C467.566 116.015 467.31 118.215 467.374 119.948C467.438 121.671 467.044 123.514 466.43 125.146C461.928 137.238 457.326 149.312 452.733 161.367C452.366 162.321 451.871 163.201 451.44 164.117ZM480.383 121.039C478.788 127.979 477.229 134.937 475.24 141.767C473.58 147.441 471.591 153.061 469.262 158.489C467.64 162.293 465.21 165.74 463.157 169.361C461.873 171.607 460.04 172.882 456.528 172.671C456.638 170.892 456.62 169.334 456.84 167.812C458.408 157.269 463.248 147.854 466.961 138.035C469.042 132.526 470.198 126.649 471.454 120.865C471.839 119.077 471.472 116.987 470.958 115.171C469.73 110.734 465.559 108.112 461.14 109.552C456.079 111.184 451.193 113.402 446.389 115.703C437.597 119.902 430.116 125.953 422.856 132.416C417.676 137.018 411.671 140.712 405.969 144.719C405.327 145.168 404.236 144.975 403.347 145.085C403.191 144.783 403.045 144.48 402.889 144.178C404.631 142.509 406.271 140.731 408.114 139.191C414.046 134.268 419.913 129.244 426.083 124.623C433.912 118.756 441.512 112.605 449.946 107.535C455.282 104.326 460.517 101.172 466.512 99.2381C474.121 96.772 482.409 102.465 482.17 110.551C482.069 114.062 481.18 117.582 480.383 121.039Z" fill="black"/>
<path fill-rule="evenodd" clip-rule="evenodd" d="M127.016 103.167C120.315 91.9188 110.634 83.6129 99.8618 76.7922C93.9486 73.0518 87.1738 70.3106 80.0322 69.0638C76.6952 68.4863 73.4316 67.5054 70.0854 67.0012C67.7568 66.6528 54.418 66.8086 50.6134 69.0638C46.7905 71.3374 42.9858 73.6753 39.3738 76.2697C34.9367 79.4692 29.2069 94.9166 28.4643 97.7952C27.2908 102.397 25.8332 106.935 24.9072 111.574C23.8438 116.946 22.8722 122.374 22.478 127.819C21.9187 135.648 21.8546 143.505 21.6896 151.353C21.552 158.036 21.552 164.673 23.1105 171.292C24.449 176.939 27.8042 181.505 30.4812 186.382C35.6701 195.861 44.2144 201.784 53.8862 206.138C58.3509 208.146 62.9254 209.897 67.3442 212.024C79.748 218.001 92.4453 219.642 105.738 215.315C108.663 214.362 111.285 213.124 113.247 210.805C116.327 207.174 119.37 203.526 122.258 199.758C124.834 196.402 126.155 192.515 126.796 188.298C127.603 183.027 128.859 177.819 129.803 172.557C130.922 166.287 132.214 160.034 132.856 153.718C133.351 148.859 133.617 130.67 133.406 126.517C133.012 118.303 131.334 110.41 127.016 103.167ZM116.749 126.985C117.73 128.342 119.187 129.506 117.583 131.871C117.005 130.359 116.437 128.846 115.859 127.333C116.153 127.223 116.455 127.104 116.749 126.985ZM111.67 129.094C112.733 131.01 113.797 132.935 114.851 134.851C114.594 134.998 114.319 135.135 114.053 135.282C112.495 133.622 111.101 131.871 111.67 129.094ZM115.19 148.355C114.988 146.76 114.869 145.632 114.723 144.449C115.098 144.477 115.474 144.404 115.557 144.532C118.985 149.84 118.976 149.84 115.694 153.773C114.228 150.848 111.468 149.207 111.266 145.494C112.632 146.494 113.659 147.245 115.19 148.355ZM59.0749 177.288C58.3232 175.72 58.5982 175.473 61.1743 173.052C66.8399 178.819 67.5093 181.303 63.7139 185.768C61.9812 182.633 60.3951 180.029 59.0749 177.288ZM60.9637 189.224C60.2761 187.711 59.5792 186.199 58.8824 184.686C61.2477 185.474 63.0356 186.51 60.9637 189.224ZM49.1281 177.691C49.7423 179.369 52.0528 180.936 49.825 183.522C46.6255 180.258 46.5887 176.362 45.7361 172.704C48.028 173.639 48.4405 175.848 49.1281 177.691ZM43.9668 155.68C48.1931 159.512 49.2565 163.335 46.6071 166.993C45.5895 162.83 42.2158 160.062 43.9668 155.68ZM52.9968 145.962C54.4086 148.437 57.1498 150.17 57.434 154.139C54.5646 151.591 53.8769 148.721 52.9968 145.962ZM57.929 164.783C54.7111 161.923 54.7113 161.923 57.0398 159.933C57.2965 161.309 57.5439 162.693 57.929 164.783ZM54.6013 156.138C54.8855 156.78 54.042 157.935 53.6753 159.008C48.5139 156.881 50.7601 152.315 49.4675 149.097C49.8159 148.905 50.1641 148.703 50.5217 148.511C51.9152 151.032 53.4279 153.507 54.6013 156.138ZM50.2925 166.773C51.0351 169.119 51.6401 171.063 52.4927 173.777C47.9455 170.165 47.8906 169.972 50.2925 166.773ZM50.1734 174.886C51.7869 175.94 54.5554 176.463 52.3735 179.937C51.4751 177.875 50.8151 176.38 50.1734 174.886ZM52.6852 164.05C53.0244 163.793 53.3727 163.536 53.7119 163.289C55.6463 165.535 57.59 167.79 59.7352 170.302C58.8551 171.466 58.1125 172.447 57.1316 173.767C55.1972 170.33 52.9052 167.653 52.6852 164.05ZM67.1791 162.748C63.9888 159.796 63.2097 156.312 62.1463 153.003C61.9904 152.535 62.687 151.802 63.2279 150.683C65.2356 154.671 68.5268 157.623 67.1791 162.748ZM67.7384 144.569C70.0395 148.923 72.1206 152.049 72.5698 156.862C69.0586 154.149 67.3624 151.298 66.2257 148.135C65.9781 147.484 66.9133 146.402 67.7384 144.569ZM63.5947 165.727C63.3105 165.874 63.0079 166.012 62.7145 166.168C61.2293 163.179 59.735 160.19 58.2499 157.192C58.5891 157.027 58.9283 156.853 59.2766 156.67C61.0185 159.539 63.2096 162.18 63.5947 165.727ZM68.1234 184.952C71.4329 191.736 71.8363 193.771 70.0303 196.219C68.6918 193.955 67.436 191.883 66.2534 189.765C65.1074 187.702 66.6657 186.547 68.1234 184.952ZM69.0494 177.526C67.2984 174.409 65.1165 171.916 64.6581 168.67C64.9515 168.496 65.2448 168.322 65.529 168.148C66.455 169.202 67.3626 170.256 68.3802 171.411C70.5163 170.513 69.5718 169.248 69.031 167.891C68.5451 166.672 68.3711 165.352 67.8394 163.225C75.1093 169.11 75.2834 171.934 69.0494 177.526ZM76.0259 174.418C77.1718 176.71 78.4094 178.901 79.3445 181.202C79.6929 182.055 79.6564 183.329 79.2438 184.136C78.4096 185.777 77.2087 187.216 76.0628 188.885C70.1038 181.652 69.7002 179.461 76.0259 174.418ZM74.4124 161.547C75.9984 160.832 77.2819 159.814 77.7677 160.117C79.4271 161.125 80.3347 162.757 79.1887 165.801C77.5019 164.297 76.2734 163.197 74.4124 161.547ZM77.3553 172.264C80.4632 170.394 81.38 172.53 82.4251 174.171C84.387 177.224 84.3501 177.343 81.8382 180.331C80.1972 177.389 78.813 174.895 77.3553 172.264ZM82.1224 171.008C80.6373 169.404 80.8023 169.248 81.609 166.122C83.4334 169.156 84.9461 171.668 86.7888 174.721C83.4701 174.822 83.2867 172.264 82.1224 171.008ZM108.681 148.685C113.485 153.159 113.815 157.962 109.194 162.152C108.571 161.263 108.14 160.694 107.755 160.089C103.987 154.084 103.996 154.085 108.681 148.685ZM106.38 166.397C105.243 168.157 104.088 169.963 102.566 172.319C100.559 169.248 98.9268 166.727 97.1482 164.013C98.5967 162.134 99.8986 160.438 101.585 158.237C103.355 161.254 104.766 163.646 106.38 166.397ZM102.722 151.38C99.1193 146.191 98.8626 143.89 101.53 140.571C106.252 145.916 106.463 147.832 102.722 151.38ZM99.3302 156.752C98.4868 158.247 97.2125 159.493 95.6632 161.419C94.0589 158.833 92.6652 156.578 91.1709 154.158C92.876 151.866 94.4254 149.785 96.3139 147.273C97.6433 149.675 98.8625 151.508 99.66 153.525C100.008 154.433 99.8252 155.872 99.3302 156.752ZM92.1702 147.612C88.3748 141.937 88.1732 140.645 90.5201 137.858C94.7922 142.286 95.223 144.459 92.1702 147.612ZM87.9988 137.262C84.6801 132.275 83.461 128.534 83.8369 124.812C87.0914 127.141 87.2654 130.973 88.9889 133.861C89.2914 134.392 88.5213 135.575 87.9988 137.262ZM89.979 156.294C90.9141 158.219 91.7026 159.768 92.436 161.345C93.5636 163.793 92.6836 167.304 90.465 168.579C89.8783 168.899 88.9066 168.533 88.109 168.478C88.1915 169.413 88.2739 170.293 88.3656 171.457C87.733 171.063 87.403 170.962 87.2655 170.751C82.8375 163.729 82.975 162.885 89.979 156.294ZM85.8171 180.671C90.3459 185.135 90.9783 187.546 88.3197 190.104C83.5342 185.291 83.0302 183.384 85.8171 180.671ZM87.7607 178.461C88.0632 178.269 88.3748 178.085 88.6957 177.893C90.0342 179.992 91.3544 182.073 92.6928 184.173C92.3903 184.402 92.0784 184.64 91.7576 184.86C89.7682 183.109 88.4208 180.991 87.7607 178.461ZM90.2084 174.73C90.4835 174.574 90.7585 174.427 91.0335 174.272C92.2436 176.398 93.4537 178.544 94.6638 180.671C94.2971 180.863 93.9304 181.074 93.5545 181.266C92.1336 179.25 90.5752 177.288 90.2084 174.73ZM97.0565 192.781C96.2222 191.58 95.3972 190.379 94.5721 189.169C96.7815 189.352 97.3957 190.709 97.0565 192.781ZM96.5157 180.056C94.6455 177.196 93.1144 174.886 91.3267 172.163C92.5002 170.449 93.7195 168.679 95.3605 166.268C97.1848 169.34 98.7252 171.916 100.403 174.721C99.156 176.454 97.9825 178.058 96.5157 180.056ZM102.026 177.884C107.609 184.118 107.783 186.089 102.905 190.26C101.53 187.959 99.9077 185.85 98.9634 183.485C97.9275 180.872 100.385 179.708 102.026 177.884ZM104.968 176.435C104.556 175.555 104.721 174.116 105.161 173.199C105.711 172.053 106.829 171.182 107.929 169.945C113.247 177.609 113.265 177.994 108.58 182.367C107.334 180.359 105.949 178.489 104.968 176.435ZM114.704 161.098C119.591 168.551 119.673 169.367 115.218 173.199C109.754 167.442 109.057 166.241 114.704 161.098ZM105.637 118.239C108.534 120.879 109.112 122.08 109.24 125.857C106.655 124.161 106.197 123.18 105.637 118.239ZM102.245 102.067C103.639 105.029 105.041 107.99 106.692 111.519C103.3 108.512 102.135 106.119 102.245 102.067ZM102.282 123.135C103.456 125.335 104.629 127.544 105.802 129.763C105.482 129.928 105.161 130.111 104.822 130.285C103.584 128.122 102.346 125.949 101.118 123.786C101.512 123.566 101.897 123.355 102.282 123.135ZM100.109 135.96C100.797 137.757 99.7334 138.93 98.0466 139.572C93.5453 133.723 93.417 132.889 96.864 129.414C98.0099 131.661 99.2568 133.732 100.109 135.96ZM92.5918 129.644C91.0333 125.922 89.5024 122.374 88.1272 118.762C87.9805 118.377 88.7691 117.643 89.53 116.406C91.4552 119.614 93.197 122.264 94.6546 125.06C95.5714 126.857 95.3696 126.967 92.5918 129.644ZM92.711 100.912C94.7279 102.15 95.2504 103.672 94.3245 105.634C93.3344 104.231 91.4917 103.195 92.711 100.912ZM90.1349 112.363C88.2005 109.383 86.1011 107.586 86.147 103.818C88.9156 106.174 90.3824 108.292 90.1349 112.363ZM86.4038 115.223C85.1753 113.078 83.9561 110.923 82.5351 108.43C85.5421 109.722 86.6605 111.446 86.4038 115.223ZM87.9347 153.709C86.3579 155.9 84.5978 158.366 82.8101 160.841C77.9788 156.569 77.7678 152.783 81.8841 148.511C85.001 148.639 87.0088 150.161 87.9347 153.709ZM79.0695 89.5811C79.7204 90.6812 79.7023 90.6904 79.0147 93.2206C78.5471 91.5613 78.2812 90.5987 77.9695 89.4894C78.5929 89.5353 78.9962 89.4619 79.0695 89.5811ZM77.117 117.46C77.4195 118.597 77.7221 119.743 78.0338 120.879C77.7588 120.962 77.4745 121.054 77.1903 121.136C76.8052 119.972 76.4111 118.817 76.0169 117.652C76.3836 117.597 76.7503 117.524 77.117 117.46ZM76.8601 134.292C78.2078 137.39 79.6288 140.434 80.8573 143.542C81.664 145.577 80.0047 146.732 78.4828 148.923C77.0344 145.348 75.9252 142.497 74.7059 139.682C73.7158 137.372 74.2565 135.676 76.8601 134.292ZM70.6721 91.2771C72.909 92.8631 73.3675 94.9808 73.6884 97.5478C70.6355 94.8708 70.4246 94.4216 70.6721 91.2771ZM74.8343 130.863C75.1643 131.587 74 132.99 73.5233 134.081C73.1199 133.971 72.7256 133.861 72.3222 133.751C70.9196 130.505 69.1871 127.37 69.3429 122.731C72.3866 125.335 73.615 128.159 74.8343 130.863ZM66.8767 96.9152C67.711 98.6387 68.5452 100.381 69.3703 102.104C66.7392 101.206 65.6024 99.6105 66.8767 96.9152ZM66.3082 83.998C67.83 85.9232 69.4712 87.0233 69.1778 89.9111C67.1426 88.3067 65.4648 87.2342 66.3082 83.998ZM66.189 116.002C66.9958 117.368 67.8026 118.734 68.6093 120.091C68.1968 120.329 67.7751 120.577 67.3534 120.815C66.6842 119.367 66.015 117.909 65.3458 116.451C65.6208 116.305 65.914 116.149 66.189 116.002ZM66.1616 129.249C67.17 131.175 68.1876 133.109 69.196 135.034C68.866 135.217 68.5359 135.419 68.2059 135.612C67.2341 133.632 66.2532 131.651 65.2814 129.671C65.5656 129.524 65.8682 129.396 66.1616 129.249ZM61.8069 133.494C64.6764 135.557 65.4007 138.738 66.3174 141.699C66.5466 142.469 65.575 143.606 65.0341 144.871C61.4496 139.737 60.5051 136.391 61.8069 133.494ZM60.9086 150.097C58.8367 146.622 57.2048 143.863 55.5638 141.112C59.1575 142.075 61.1469 145.586 60.9086 150.097ZM58.0666 93.1015C59.6434 94.4308 60.9176 95.925 59.9825 98.602C59.0749 96.9151 58.1676 95.2374 57.2508 93.5414C57.5258 93.3947 57.8008 93.2481 58.0666 93.1015ZM59.13 132.247C58.1308 129.699 57.315 127.636 56.499 125.582C60.3861 128.754 60.5785 129.213 59.13 132.247ZM54.7661 87.3441C55.3253 88.1325 55.8754 88.9209 56.4255 89.7093C56.1229 89.9385 55.8114 90.1769 55.4997 90.4061C54.9221 89.6269 54.3629 88.8477 53.7945 88.0592C54.1062 87.8209 54.4453 87.5733 54.7661 87.3441ZM55.2339 105.808C54.7113 103.663 54.2071 101.499 53.5287 98.6662C56.7832 101.389 57.3241 103.213 55.2339 105.808ZM52.3461 122.08C52.6303 122.97 52.9144 123.841 53.2078 124.73C52.9144 124.858 52.6209 124.968 52.3184 125.096C51.9058 124.262 51.4935 123.419 51.0809 122.594C51.5026 122.42 51.9244 122.245 52.3461 122.08ZM51.2091 143.193C49.3755 140.535 47.918 138.747 48.413 136.107C49.9348 137.913 51.4749 139.7 51.2091 143.193ZM47.3588 88.9851C47.4688 88.8935 47.973 89.2876 49.6874 90.1861C48.4681 90.5344 47.918 90.8003 47.3496 90.8186C47.0654 90.8278 46.4695 90.2961 46.5153 90.2044C46.6895 89.746 46.983 89.2877 47.3588 88.9851ZM45.4427 108.787C46.5061 110.227 48.0831 111.538 46.4971 113.811C44.6086 112.225 45.1676 110.437 45.4427 108.787ZM43.5449 126.16C44.9109 128.773 47.3313 130.579 47.2396 134.044C44.0126 132.137 42.509 128.938 43.5449 126.16ZM45.8646 147.86C45.507 147.988 45.1402 148.107 44.7827 148.236C44.1043 146.439 43.4352 144.633 42.7476 142.836C45.2687 143.909 45.2137 146.035 45.8646 147.86ZM40.3731 162.445C41.1707 165.232 41.9683 168.019 42.9034 171.32C39.9606 168.249 38.9705 165.342 40.3731 162.445ZM40.0522 147.612C43.2609 150.72 43.4993 151.554 41.8767 154.726C39.8139 152.444 39.493 150.216 40.0522 147.612ZM39.557 130.23C42.9032 137.289 43.0318 138.115 41.0516 140.599C40.1073 137.308 37.0726 134.75 39.557 130.23ZM39.2454 98.0428C39.2454 99.8122 39.2454 100.976 39.2454 102.865C37.2927 100.949 37.3752 99.7847 39.2454 98.0428ZM36.2935 156.734C36.7977 157.596 37.2835 158.448 37.7878 159.301C37.5952 159.429 37.4118 159.539 37.2285 159.668C36.6784 158.833 36.1376 158.008 35.5784 157.183C35.8167 157.027 36.0551 156.881 36.2935 156.734ZM29.7935 131.816C30.8753 133.201 31.6179 134.163 32.3697 135.117C29.9952 135.346 29.4268 134.218 29.7935 131.816ZM32.5347 158.247C36.7152 162.189 36.7609 163.06 32.9197 167.011C29.931 164.261 29.8028 161.235 32.5347 158.247ZM36.7795 180.139C36.3394 180.249 35.89 180.35 35.45 180.46C34.8999 178.846 34.3684 177.242 33.8183 175.638C36.2019 176.591 36.9078 178.195 36.7795 180.139ZM36.8709 166.36C37.806 170.091 42.4998 172.897 38.6036 177.444C33.7814 171.586 33.5614 170.302 36.8709 166.36ZM44.3152 191.085C42.8208 189.435 41.2806 187.876 39.8779 186.199C38.5303 184.567 36.2659 182.944 39.9146 181.092C40.6663 180.707 40.6848 178.855 41.1157 177.444C46.8363 183.128 47.7989 187.189 44.3152 191.085ZM48.2205 190.709C49.2565 192.726 49.9991 194.184 51.1176 196.347C47.0197 194.275 47.0196 194.275 48.2205 190.709ZM55.8298 195.981C54.3722 193.46 52.7311 191.039 51.5577 188.399C51.1176 187.427 51.5117 185.832 52.0159 184.75C52.6027 183.467 53.7395 182.431 55.3346 180.386C56.5631 184.979 57.645 188.775 58.5526 192.616C58.901 194.074 58.6993 194.129 55.8298 195.981ZM58.5159 199.171C58.4059 198.593 59.2217 197.832 60.0743 196.366C61.1194 198.621 61.7245 199.923 62.6138 201.857C60.4777 201.298 58.8643 201.05 58.5159 199.171ZM68.1418 201.481C65.4374 198.428 63.8146 195.852 63.072 192.818C62.9529 192.341 63.6589 191.663 64.3557 190.434C66.125 193.038 67.7751 195.073 68.921 197.365C69.3335 198.181 68.5452 199.611 68.1418 201.481ZM76.1084 208.403C74.5682 207.889 73.2573 207.642 72.1205 207.046C69.4711 205.68 69.187 203.049 71.268 201.023C72.0473 200.262 72.6248 199.281 73.7983 197.732C74.3759 201.582 78.5928 203.938 76.1084 208.403ZM79.1979 200.794C78.3362 199.263 77.4744 197.732 76.6218 196.201C76.9702 196.017 77.3094 195.825 77.6486 195.623C78.492 197.163 79.3264 198.703 80.1606 200.244C79.8398 200.427 79.5188 200.601 79.1979 200.794ZM79.9771 196.265C76.6401 191.433 76.732 190.865 81.2792 186.831C85.5055 191.956 85.7345 195.165 82.0491 199.052C81.334 198.107 80.628 197.2 79.9771 196.265ZM82.7368 206.698C81.9025 204.571 83.3143 201.784 86.9905 198.768C88.5123 202.829 89.9699 206.725 91.4918 210.796C85.8537 210.933 84.0294 210.016 82.7368 206.698ZM92.8394 204.011C92.2069 203.012 91.6934 202.306 91.2808 201.545C90.3641 199.877 89.5025 198.181 88.6683 196.586C89.7776 194.67 90.7857 192.937 91.8309 191.158C97.6065 196.256 97.9275 199.318 92.8394 204.011ZM100.091 209.952C98.9633 211.355 97.5701 211.657 96.2958 210.539C95.049 209.448 94.3613 207.807 95.3697 206.175C96.2773 204.727 97.4783 203.452 98.8168 201.774C100.201 203.993 101.329 205.799 102.511 207.697C101.549 208.568 100.714 209.173 100.091 209.952ZM101.255 198.208C105.417 198.841 105.491 201.94 106.884 204.378C104.235 203.562 104.235 203.562 101.255 198.208ZM110.579 201.857C108.974 199.409 107.416 197.227 106.077 194.908C104.721 192.543 106.527 191.122 108.14 189.352C112.99 196.943 113.164 197.75 110.579 201.857ZM114.897 192.919C113.228 190.434 111.853 188.362 110.175 185.86C111.34 184.292 112.614 182.596 113.953 180.79C118.417 186.703 118.426 186.795 114.897 192.919ZM120.544 181.285C116.162 178.599 116.125 176.481 120.571 172.282C122.845 175.537 121.424 178.342 120.544 181.285ZM121.763 164.921C120.177 162.436 118.5 160.612 117.839 158.485C117.436 157.156 118.6 155.359 119.141 153.47C123.111 157.229 124.037 160.979 121.763 164.921ZM121.323 146.457C118.417 144.706 117.785 141.534 116.226 138.802C117.418 137.207 118.536 135.703 119.911 133.861C121.442 136.254 123.148 138.243 124.074 140.553C125.1 143.065 123.725 145.082 121.323 146.457Z" fill="black"/>
<path fill-rule="evenodd" clip-rule="evenodd" d="M297.223 161.154C292.336 155.846 286.542 151.326 280.95 146.697C273.46 140.49 264.32 137.611 255.244 134.852C244.518 131.588 234.122 133.816 223.762 137.126C220.004 138.327 217.143 140.976 213.559 142.296C208.911 144.029 206.17 148.209 204.327 151.968C200.422 159.898 197.873 168.497 194.857 176.858C194.096 178.948 193.528 181.121 193.106 183.294C190.64 195.569 189.558 207.982 189.494 220.496C189.494 222.88 189.567 225.272 189.484 227.638C189.264 233.725 190.796 239.51 193.252 244.909C194.618 247.907 197.195 250.382 199.303 253.014C200.128 254.022 201.164 254.884 202.172 255.736C204.675 257.836 207.215 259.853 209.882 261.668C214.265 263.712 219.05 264.904 223.542 266.747C226.21 267.828 228.832 269.048 231.472 270.203C234.213 270.973 236.955 271.734 239.687 272.486C241.832 273.072 243.977 273.687 246.159 274.09C252.714 275.3 259.278 276.4 265.842 277.546C270.004 278.271 273.946 278.142 278.035 276.464C287.129 272.733 291.731 265.069 294.912 256.726C299.074 245.789 301.806 234.302 305.822 223.283C308.829 215.032 309.306 206.47 310.268 197.962C311.075 190.912 309.058 184.192 306.977 177.445C305.015 171.119 301.486 165.774 297.223 161.154ZM298.561 190.903C297.479 192.003 296.572 192.929 295.022 194.497C294.307 192.746 293.326 191.508 293.638 190.94C294.885 188.593 293.665 187.071 292.492 185.301C291.502 183.816 290.805 182.12 290.393 180.278C292.694 181.158 293.152 183.367 294.307 185.045C295.517 186.796 296.81 188.492 298.561 190.903ZM245.38 180.369C245.701 180.113 246.03 179.856 246.351 179.599C247.864 181.02 249.377 182.45 250.889 183.88C250.66 184.211 250.431 184.55 250.202 184.889C249.313 184.403 248.423 183.926 247.534 183.441C248.011 184.696 248.487 185.952 249.111 187.648C245.737 186.695 245.737 186.695 244.023 182.579C245.37 182.845 246.361 183.055 247.351 183.257C246.691 182.295 246.04 181.341 245.38 180.369ZM244.344 161.292C247.158 163.895 249.193 166.315 250.037 169.515C250.165 169.964 249.395 170.642 248.441 172.164C247.442 167.8 244.289 165.582 244.344 161.292ZM269.059 191.215C268.619 189.858 268.17 188.492 267.73 187.126C268.051 186.988 268.372 186.86 268.693 186.722C270.93 188.666 272.305 191.123 273.029 194.726C271.993 194.249 271.443 193.992 270.893 193.745C271.076 194.845 271.251 195.936 271.489 197.421C267.804 194.249 267.198 193.277 265.823 188.006C267.336 189.5 268.198 190.362 269.059 191.215ZM266.52 171.202C268.299 174.181 270.618 176.18 270.719 179.608C266.758 177.674 264.916 174.383 266.52 171.202ZM273.13 200.437C276.128 203.343 278.539 206.589 279.676 210.476C279.978 211.484 278.704 212.979 277.787 215.087C274.909 210.668 271.737 207.533 270.041 203.435C270.279 203.252 270.536 203.05 270.783 202.858C271.232 203.298 271.7 203.719 272.131 204.168C272.488 204.544 272.809 204.966 273.983 205.058C273.698 203.499 273.414 201.968 273.13 200.437ZM283.728 205.369C284.149 206.085 283.269 207.57 282.994 208.706C282.554 208.752 282.105 208.798 281.665 208.844C279.575 205.846 277.429 202.876 275.422 199.823C274.432 198.301 274.542 198.219 276.531 195.533C279.483 198.457 281.674 201.895 283.728 205.369ZM278.456 192.195C281.894 193.974 284.773 198.512 285.644 203.307C283.031 200.071 280.345 196.843 278.456 192.195ZM255.601 239.171C256.417 241.077 255.464 242.159 253.621 243.516C251.559 240.225 249.56 237.209 247.754 234.082C246.709 232.267 248.102 231.112 249.551 229.81C250.468 230.672 251.375 231.534 252.283 232.377C251.861 231.039 251.439 229.7 250.898 227.931C254.446 230.195 257.673 235.173 258.013 238.795C256.784 238.006 255.776 237.364 254.776 236.714C255.042 237.539 255.271 238.382 255.601 239.171ZM237.101 205.498C239.787 207.524 240.823 210.118 242.134 212.419C242.95 213.85 242.446 214.39 238.357 217.865C236.624 215.28 235.002 213.052 233.636 210.687C233.37 210.219 234.103 209.183 234.571 207.881C236.129 209.678 237.349 211.09 238.559 212.484C238.605 212.41 237.431 206.405 237.101 205.498ZM243.592 232.102C241.942 233.982 240.686 235.421 239.201 237.126C236.634 235.265 235.68 232.121 234.259 229.361C234.002 228.857 234.599 227.72 235.066 227.069C235.799 226.024 236.771 225.126 238.137 223.613C240.237 226.886 241.969 229.572 243.592 232.102ZM241.74 224.374C241.19 222.861 241.327 220.927 241.685 219.295C242.162 217.15 244.719 216.737 246.076 218.543C247.387 220.294 248.451 222.247 249.872 224.511C248.497 225.217 247.607 225.685 246.645 226.18C246.507 227.253 246.37 228.408 246.223 229.535C245.59 229.535 245.15 229.655 245.059 229.517C243.894 227.839 242.409 226.244 241.74 224.374ZM256.848 181.158C261.863 184.962 262.78 187.263 260.002 190.848C261.469 186.301 256.014 185.439 256.848 181.158ZM260.277 194.964C262.551 198.063 264.494 200.694 266.768 203.793C264.631 206.497 262.523 209.137 260.231 212.034C258.819 210.027 257.793 208.587 256.601 206.9C257.563 205.122 258.938 203.059 255.666 201.482C257.187 199.346 258.499 197.476 260.277 194.964ZM257.389 215.179C255.574 217.608 253.942 219.781 252.182 222.119C249.358 220.038 248.038 217.388 246.782 214.794C246.443 214.088 246.8 212.74 247.296 211.989C248.496 210.164 249.963 208.505 251.568 206.479C253.64 209.587 255.492 212.355 257.389 215.179ZM254.071 226.336C253.722 225.767 253.933 224.502 254.355 223.879C255.702 221.871 257.279 220.028 259.049 217.782C261.414 221.009 263.605 223.916 265.677 226.904C266.025 227.408 265.897 228.243 265.934 228.939C266.062 230.975 262.853 229.398 262.927 231.818C262.954 232.982 261.606 234.174 260.699 235.659C257.508 232.762 255.968 229.398 254.071 226.336ZM261.634 214.344C263.944 211.429 266.007 208.835 268.399 205.809C270.985 209.825 273.185 213.254 275.642 217.067C273.552 219.607 271.571 222.036 269.151 224.988C266.511 221.248 264.256 218.067 261.634 214.344ZM268.134 231.323C270.068 232.845 271.755 234.229 273.506 235.54C276.559 237.814 276.715 238.712 274.294 241.49C273.735 242.113 272.993 242.572 272.094 243.314C270.261 240.39 268.546 237.685 266.85 234.963C265.851 233.386 266.309 232.221 268.134 231.323ZM270.765 227.216C272.699 224.759 274.588 222.366 277.155 219.112C279.355 222.861 281.152 225.694 282.664 228.664C283.003 229.334 282.582 230.672 282.105 231.433C281.078 233.028 279.767 234.449 278.438 236.127C274.734 234.037 273.066 230.58 270.765 227.216ZM269.115 201.501C263.412 196.018 262.66 194.497 264.008 190.949C266.511 194.02 269.371 196.394 269.115 201.501ZM259.223 178.288C262.413 180.342 263.146 183.074 264.146 185.668C261.707 184.11 260.048 181.983 259.223 178.288ZM259.186 172.476C258.067 171.046 256.94 169.597 255.812 168.167C256.142 167.92 256.473 167.654 256.803 167.406C257.884 168.864 258.966 170.331 260.048 171.798C259.764 172.018 259.47 172.256 259.186 172.476ZM257.976 175.941C256.115 175.235 255.711 173.787 255.079 172.192C257.215 173.448 257.215 173.448 257.976 175.941ZM254.63 180.131C250.77 177.225 250.028 175.199 252.09 172.146C253.786 174.896 256.729 176.647 254.63 180.131ZM251.43 188.574C252.09 188.281 252.594 187.63 253.254 187.071C259.736 190.371 260.094 192.865 254.529 198.228C252.915 196.55 251.302 194.882 249.707 193.204C249.679 193.195 249.652 193.186 249.624 193.186C250.174 194.304 250.706 195.441 251.311 196.532C251.898 197.577 252.576 198.567 253.2 199.585C252.888 199.823 252.576 200.071 252.255 200.309C250.679 198.558 249.019 196.853 247.589 194.982C247.25 194.524 247.672 193.488 247.754 192.718C248.377 192.874 249.01 193.021 249.633 193.186C249.615 193.14 249.597 193.094 249.569 193.057C249.615 193.103 249.67 193.149 249.716 193.204H249.734C248.827 191.123 249.221 189.564 251.43 188.574ZM249.826 204.471C248.772 205.699 247.965 206.635 246.966 207.781C245.655 206.662 244.6 205.773 243.546 204.884C243.555 204.893 243.555 204.902 243.564 204.911C243.528 204.884 243.491 204.847 243.454 204.819C243.528 205.617 243.601 206.415 243.711 207.652C241.804 206.222 239.998 205.113 239.687 201.84C241.254 203.077 242.363 203.949 243.454 204.819C243.454 204.819 243.454 204.81 243.454 204.801C243.482 204.828 243.519 204.856 243.546 204.884C243.042 203.866 242.281 202.876 242.079 201.785C241.877 200.731 242.263 199.566 242.492 197.549C245.389 200.281 247.488 202.262 249.826 204.471ZM239.641 187.401C240.906 189.5 242.043 191.398 243.399 193.644C239.182 192.901 237.77 190.527 239.641 187.401ZM240.86 196.559C237.688 195.789 237.633 195.716 236.496 192.471C236.762 192.278 237.028 192.076 237.294 191.884C238.485 193.442 239.677 195.001 240.86 196.559ZM238.119 198.659L237.184 199.291C236.377 198.09 235.57 196.889 234.754 195.688C235.048 195.487 235.35 195.285 235.634 195.093C236.459 196.284 237.294 197.476 238.119 198.659ZM235.488 202.738C235.203 202.931 234.91 203.133 234.626 203.325C234.085 202.518 233.553 201.712 233.021 200.914C233.287 200.721 233.572 200.538 233.838 200.346C234.378 201.152 234.938 201.941 235.488 202.738ZM234.305 217.223C236.909 221.413 236.881 221.495 232.527 225.116C230.684 222.65 228.86 220.203 226.733 217.37C228.42 215.481 229.657 214.079 231.161 212.392C232.38 214.262 233.361 215.729 234.305 217.223ZM227.75 212.419C227.2 213.079 226.577 213.694 225.972 214.326C222.36 210.522 222.36 210.522 223.891 205.534C225.55 207.093 227.154 208.615 229.125 210.476C228.584 211.246 228.218 211.878 227.75 212.419ZM224.881 220.459C227.613 222.229 228.942 224.933 229.914 227.619C230.821 230.113 228.483 231.451 226.659 233.514C224.963 230.672 223.276 228.307 222.066 225.703C220.829 223.026 222.965 221.789 224.881 220.459ZM221.397 220.083C221.095 220.533 220.581 220.835 220.178 221.193C216.272 217.269 215.777 215.729 217.299 212.713C220.196 213.492 220.205 213.501 222.626 217.92C222.259 218.589 221.892 219.378 221.397 220.083ZM216.474 196.266C219.298 197.219 221.379 200.061 221.663 203.756C218.363 202.097 217.18 200.291 216.474 196.266ZM218.913 227.794C220.224 229.673 221.599 231.552 222.855 233.514C224.642 236.329 224.541 236.594 221.058 239.345C219.765 237.19 218.583 235.008 217.208 232.982C215.64 230.681 216.364 229.178 218.913 227.794ZM226.054 238.428C227.567 240.885 228.777 242.727 229.877 244.634C231.61 247.623 231.582 247.641 227.888 250.428C226.21 247.687 224.56 244.992 222.873 242.232C223.982 240.922 224.807 239.913 226.054 238.428ZM228.979 237.089C228.612 236.393 228.933 235.073 229.354 234.266C229.895 233.257 230.867 232.487 232.05 231.167C233.709 233.633 235.396 235.778 236.68 238.144C238.275 241.096 235.506 242.205 233.599 244.424C231.894 241.774 230.271 239.519 228.979 237.089ZM239.393 242.443C241.722 246.092 243.849 249.438 246.241 253.179C244.94 254.691 243.684 256.167 242.281 257.808C240.136 254.499 238.247 251.693 236.478 248.824C235.112 246.541 235.387 246.019 239.393 242.443ZM241.456 240.041C244.71 242.095 247.387 247.1 247.525 251.043C244.967 247.275 242.428 244.139 241.456 240.041ZM243.839 239.161C242.831 237.484 243.528 236.42 245.251 235.421C248.442 237.658 249.67 241.444 251.907 244.442C252.778 245.615 252.402 245.991 249.45 248.586C247.433 245.203 245.646 242.177 243.839 239.161ZM254.346 248.274C255.51 249.631 256.683 251.006 258.058 252.619C258.535 249.328 253.154 246.514 258.068 243.241C259.81 246.101 261.588 248.796 263.119 251.648C263.522 252.399 263.577 253.848 263.101 254.471C261.533 256.516 259.654 258.331 257.618 260.531C255.702 258.102 254.199 256.277 252.796 254.38C250.706 251.547 250.844 250.978 254.346 248.274ZM259.8 240.537C263.238 242.434 266.575 247.834 266.117 251.153C261.964 248.026 259.397 243.553 259.8 240.537ZM265.521 245.313C264.228 242.993 263.036 240.628 261.799 238.245C262.395 237.374 262.844 236.622 263.394 235.943C263.733 235.503 264.191 235.164 264.998 234.403C266.997 237.639 269.05 240.5 270.581 243.617C271.801 246.092 269.472 247.22 267.785 248.732C266.951 247.504 266.144 246.45 265.521 245.313ZM272.47 247.77C273.414 249.337 273.946 250.181 274.432 251.043C276.999 255.736 276.953 255.911 271.975 259.706C270.444 258.038 268.895 256.351 267.107 254.398C268.821 252.271 270.407 250.3 272.47 247.77ZM274.074 245.67C275.303 244.213 276.43 242.856 277.934 241.059C279.63 243.534 281.17 245.799 282.893 248.338C281.683 249.677 280.629 250.85 279.611 251.978C276.531 250.346 276.531 250.346 274.074 245.67ZM279.749 238.428C281.463 236.393 283.077 234.495 285.066 232.139C287.147 234.807 289.082 237.282 291.52 240.408C289.476 242.177 287.596 243.809 285.58 245.579C282.866 243.947 281.106 241.728 279.749 238.428ZM285.296 226.877C282.27 224.099 281.674 219.891 279.007 216.957C280.079 215.72 280.932 214.739 282.05 213.455C283.682 216.031 285.167 218.342 286.616 220.679C288.422 223.613 288.413 223.622 285.296 226.877ZM284.443 212.529C283.572 211.191 284.406 210.072 286.02 209.366C288.724 211.878 290.732 214.885 292.199 218.241C292.364 218.607 291.612 219.378 291.227 220.065C287.67 218.479 286.258 215.289 284.443 212.529ZM291.071 212.172C290.622 211.292 290.173 210.421 289.732 209.559C289.925 209.449 290.136 209.348 290.338 209.247C290.787 210.118 291.236 210.989 291.676 211.869C291.474 211.97 291.273 212.071 291.071 212.172ZM288.467 201.501C285.919 197.449 282.93 194.258 281.362 190.133C281.234 189.803 281.812 189.198 282.38 188.107C283.288 189.72 283.792 190.875 284.535 191.856C285.112 192.608 285.928 193.571 286.735 193.672C289.164 194.002 289.989 195.89 291.603 197.65C290.631 198.851 289.742 199.924 288.467 201.501ZM287.496 183.532L288.293 183.028C288.898 184.027 289.522 185.036 290.127 186.035C289.87 186.2 289.604 186.356 289.357 186.521C288.733 185.531 288.119 184.522 287.496 183.532ZM293.225 170.212C292.95 170.386 292.666 170.551 292.391 170.725C290.924 168.341 289.457 165.949 287.991 163.574C290.998 164.995 292.098 167.608 293.225 170.212ZM284.516 168.671C286.029 171.183 287.541 173.704 289.467 176.904C285.91 175.235 284.25 172.558 284.516 168.671ZM285.616 180.03C282.747 177.812 281.454 175.602 280.858 171.944C283.609 174.309 285.259 177.133 285.616 180.03ZM279.401 186.704C278.594 185.806 277.787 184.907 276.98 184.009C277.265 183.734 277.558 183.45 277.851 183.165C278.64 184.119 279.428 185.054 280.217 185.998C279.942 186.237 279.676 186.466 279.401 186.704ZM276.999 164.473C277.787 165.609 278.566 166.746 279.355 167.883C278.997 168.103 278.649 168.332 278.291 168.552C277.576 167.37 276.861 166.187 276.146 165.004C276.421 164.83 276.715 164.656 276.999 164.473ZM277.191 189.922C272.617 185.586 271.929 184.256 272.8 180.993C274.679 183.825 276.944 185.861 277.191 189.922ZM272.736 172.824C271.003 171.853 269.756 170.542 268.849 167.782C271.737 169.212 271.956 171.202 272.736 172.824ZM264.531 159.137C265.658 160.998 266.795 162.859 267.932 164.72C265.282 163.886 264.641 161.777 263.706 159.843C263.981 159.614 264.256 159.366 264.531 159.137ZM263.412 166.361C264.283 167.452 265.182 168.91 262.486 170.532C261.194 168.286 260.011 166.224 258.59 163.758C261.624 163.061 262.395 165.087 263.412 166.361ZM257.206 161.64C256.078 159.834 255.418 158.752 254.758 157.67C256.591 158.046 257.655 158.89 257.206 161.64ZM253.722 164.629C251.595 162.547 249.129 160.732 248.405 157.661C251.311 159.137 253.016 161.53 253.722 164.629ZM243.803 150.95C244.683 151.931 245.544 152.921 246.855 154.388C243.922 154.443 243.821 152.729 243.124 151.565C243.354 151.363 243.574 151.161 243.803 150.95ZM240.402 154.067C241.254 155.387 242.116 156.699 242.959 158.009C242.638 158.202 242.308 158.394 241.978 158.587C241.227 157.221 240.475 155.846 239.714 154.48C239.943 154.342 240.163 154.205 240.402 154.067ZM243.39 177.491C240.282 176.418 238.641 174.089 237.734 171.137C240.548 172.393 242.299 174.64 243.39 177.491ZM236.02 174.749C236.716 175.886 237.404 177.014 238.11 178.151C237.899 178.279 237.679 178.398 237.477 178.527C236.79 177.408 236.111 176.29 235.414 175.18C235.616 175.034 235.818 174.896 236.02 174.749ZM232.545 148.824C233.123 149.713 233.7 150.602 234.278 151.491C234.048 151.638 233.819 151.775 233.59 151.922C233.022 151.024 232.462 150.125 231.894 149.227C232.105 149.089 232.334 148.961 232.545 148.824ZM232.013 175.666C234.388 178.976 236.753 181.552 237.477 185.357C233.975 183.633 231.225 179.058 232.013 175.666ZM231.252 207.185C230.271 204.746 227.182 203.142 228.75 199.63C233.434 203.197 234.002 204.893 231.252 207.185ZM227.704 170.065C228.548 171.266 229.382 172.476 230.216 173.686C229.767 173.979 229.327 174.291 228.887 174.585C228.218 173.228 227.539 171.889 226.87 170.542C227.145 170.377 227.429 170.221 227.704 170.065ZM226.696 197.467C223.726 195.771 222.598 192.837 221.562 189.784C224.248 191.691 226.549 193.901 226.696 197.467ZM219.197 176.015C219.774 176.931 220.37 177.839 220.957 178.756C220.765 178.93 220.581 179.104 220.398 179.288C219.958 178.912 219.417 178.609 219.087 178.151C218.738 177.665 218.592 177.032 218.372 176.455C218.647 176.308 218.922 176.152 219.197 176.015ZM220.049 186.906C216.951 185.457 216.437 182.936 215.548 180.654C218.014 181.79 219.509 183.642 220.049 186.906ZM214.604 227.848C213.027 225.602 210.955 223.815 211.303 220.615C216.052 223.109 216.868 224.768 214.604 227.848ZM214.906 169.322C216.016 171.128 216.703 172.238 217.391 173.365C215.447 172.953 214.549 171.944 214.906 169.322ZM214.567 211.31C212.092 209.321 210.323 207.13 210.313 203.609C214.622 205.975 216.061 208.532 214.567 211.31ZM211.505 214.436C209.397 212.594 207.462 210.622 207.288 207.652C209.91 209.165 210.818 211.732 211.505 214.436ZM210.616 227.087C210.387 227.216 210.158 227.326 209.938 227.454C209.397 226.593 208.856 225.731 208.315 224.86C208.608 224.676 208.902 224.493 209.204 224.301C209.662 225.236 210.139 226.162 210.616 227.087ZM207.527 235.43C204.996 234.467 204.135 232.432 203.419 229.224C206.353 230.975 206.903 233.193 207.527 235.43ZM206.335 197.861C206.793 198.219 207.352 198.503 207.691 198.961C208.049 199.475 208.187 200.135 208.425 200.721C208.242 200.822 208.076 200.914 207.893 201.006C207.517 200.685 207.059 200.419 206.784 200.043C206.408 199.511 206.17 198.888 206.335 197.861ZM204.07 206.149C203.557 203.958 203.209 202.454 202.869 200.951C204.978 202.042 206.655 203.215 204.07 206.149ZM203.099 213.73C204.318 216.444 206.701 218.278 206.582 221.633C202.411 218.653 201.549 216.829 203.099 213.73ZM199.651 194.084C200.651 195.881 200.532 197.155 199.266 198.879C198.423 197.009 198.249 195.716 199.651 194.084ZM199.899 222.403C201.412 223.98 203.043 225.199 201.448 228.096C200.284 226.116 197.635 225.245 199.899 222.403ZM202.063 243.259C199.074 239.06 198.991 236.778 201.842 233.826C203.19 235.421 204.336 236.759 205.775 238.465C204.538 240.051 203.346 241.6 202.063 243.259ZM210.524 252.665C209.167 251.18 208.196 250.144 207.251 249.081C203.933 245.368 203.951 245.148 208.021 241.206C209.892 243.617 211.743 245.991 213.779 248.622C212.697 249.952 211.762 251.125 210.524 252.665ZM221.81 258.624C219.728 258.863 214.21 256.176 213.861 254.462C213.659 253.481 214.494 252.289 215.163 250.318C218.051 253.435 220.114 255.654 222.176 257.872C222.057 258.138 221.965 258.624 221.81 258.624ZM225.284 253.179C223.891 251.272 222.497 249.356 220.939 247.211C223.643 247.421 223.991 247.816 226.036 252.491C225.788 252.72 225.541 252.949 225.284 253.179ZM238.091 263.016C237.294 264.244 236.313 265.353 235.313 266.637C230.931 264.088 229.547 260.302 227.365 257.121C227.714 256.818 228.053 256.516 228.401 256.213C229.602 257.451 230.803 258.688 232.004 259.926C232.196 259.816 232.38 259.715 232.582 259.605C232.096 258.45 231.656 257.286 231.142 256.158C229.703 253.078 229.694 253.078 233.104 249.933C235.112 253.582 237.129 257.093 238.944 260.705C239.182 261.228 238.55 262.328 238.091 263.016ZM239.448 266.848C240.09 265.94 240.502 265.372 241.217 264.372C242.116 265.757 242.639 266.563 243.61 268.049C241.823 267.535 240.814 267.242 239.448 266.848ZM243.482 260.852C244.72 259.312 245.902 257.854 247.167 256.259C248.166 256.727 249.047 257.13 250.055 257.597C250.174 256.662 250.275 255.874 250.376 255.085C250.578 255.021 250.788 254.957 250.981 254.893C252.31 257.735 253.649 260.559 255.189 263.841C253.548 265.573 252.173 267.04 250.77 268.534C247.176 266.765 245.535 263.813 243.482 260.852ZM258.92 270.918C257.618 270.551 256.335 270.175 254.547 269.671C255.427 268.287 255.867 267.572 256.61 266.407C257.655 267.874 258.508 269.057 259.351 270.249C259.204 270.469 259.067 270.698 258.92 270.918ZM264.063 268.699C261.606 267.691 260.616 265.399 259.287 263.016C261.047 260.852 262.798 258.688 264.567 256.516C271.287 263.346 269.903 263.923 264.063 268.699ZM267.758 271.615C267.602 271.331 267.446 271.037 267.29 270.744C268.473 269.24 269.646 267.728 271.067 265.903C271.847 267.04 272.342 267.709 272.791 268.406C273.176 268.993 273.506 269.625 274.23 270.881C271.755 271.175 269.756 271.395 267.758 271.615ZM280.354 267.581C278.484 268.901 277.402 267.627 276.32 266.353C273.341 262.85 273.515 261.961 278.365 258.037C279.492 259.779 280.51 261.21 281.381 262.722C282.6 264.867 282.252 266.243 280.354 267.581ZM285.635 261.631C283.682 259.275 282.133 257.405 279.868 254.673C281.592 253.289 282.82 252.28 284.498 250.923C285.919 252.445 287.276 253.903 288.889 255.636C287.881 257.469 286.936 259.22 285.635 261.631ZM291.034 251.593C289.577 250.227 288.605 249.31 287.056 247.861C289.21 245.716 290.906 244.038 292.932 242.031C294.27 245.936 291.969 248.173 291.034 251.593ZM293.675 236.576C292.29 235.228 290.686 233.917 289.384 232.35C287.12 229.636 287.267 229.031 290.42 226.079C292.153 228.279 293.968 230.406 295.563 232.68C296.911 234.55 296.7 234.853 293.675 236.576ZM297.653 227.28C295.343 226.125 293.675 224.768 293.29 222.375C293.555 222.055 293.656 221.835 293.73 221.844C294.399 221.972 295.077 222.128 295.948 222.33C296.132 221.697 296.352 220.964 296.663 219.882C298.891 222.265 299.377 224.484 297.653 227.28ZM294.876 210.613C293.354 208.477 291.85 206.305 290.209 203.967C291.19 202.812 291.997 201.867 293.18 200.474C296.022 204.251 299.029 207.35 300.789 211.512C298.158 213.309 296.37 212.704 294.876 210.613ZM300.367 193.91C300.706 197.119 301.009 199.951 301.403 203.71C296.663 198.173 296.517 196.734 300.367 193.91Z" fill="black"/>
</svg>
