<svg width="1333" height="200" viewBox="0 0 1333 200" fill="none" xmlns="http://www.w3.org/2000/svg">
<path fill-rule="evenodd" clip-rule="evenodd" d="M1332.78 76.9669C1330.1 76.3773 1220.06 67.8528 1200.49 69.3904C1198.43 69.5577 1196.27 69.0239 1194.24 68.4981C1187.2 66.6259 1180.26 64.2676 1173.16 62.7459C1167.17 61.4632 1160.94 61.3516 1154.9 60.2681C1137.72 57.177 1120.54 54.0461 1103.44 50.5645C1091.16 48.0629 1078.87 46.0711 1066.31 45.9117C1060.17 45.84 1053.98 45.84 1047.9 45.1549C1030.76 43.2269 1013.64 41.1158 996.559 38.7894C977.88 36.248 959.232 33.5551 940.617 30.6392C915.557 26.7115 890.593 22.1226 865.222 20.4415C852.366 19.5891 839.517 18.5216 826.684 17.4381C809.885 16.02 793.085 14.5939 776.302 12.9687C766.44 12.0206 756.619 10.6263 746.765 9.5906C736.912 8.54693 727.01 7.85379 717.157 6.73842C696.247 4.36428 675.305 2.45234 654.236 2.42844C646.318 2.42047 638.401 2.27688 630.491 2.43622C614.615 2.74693 598.732 2.97807 582.872 3.68713C566.431 4.42008 550.014 6.18083 533.573 6.57917C507.709 7.20856 482.163 10.4033 456.792 15.064C448.15 16.6494 439.539 18.4099 430.936 20.2264C427.208 20.5689 423.488 20.9833 419.8 21.4056C416.494 21.788 413.204 22.3219 409.891 22.6246C406.242 22.9513 402.578 23.0388 398.946 23.5726C395.784 24.0426 393.346 24.7915 390.558 26.353C389.22 27.1019 387.842 27.6516 386.575 28.5439C385.826 29.0777 385.133 29.707 384.48 30.3603C383.644 30.5436 382.8 30.7429 381.947 30.9341C381.469 30.7827 379.677 29.7072 377.94 29.8028C373.32 30.0657 368.74 30.8942 364.128 31.3404C363.22 31.428 362.208 30.9022 361.3 30.5198C358.926 29.524 356.545 28.5201 354.227 27.3968C334.568 17.8923 314.693 8.92929 293.25 4.1571C283.181 1.91839 273.081 -0.129075 262.638 0.00636315C258.719 0.0541647 256.273 1.49627 254.8 5.03359C251.884 11.9967 248.802 18.8961 248.579 26.6399C248.547 27.7473 248.085 28.8307 247.742 30.2648C246.252 29.97 245.121 29.8027 244.022 29.5159C238.988 28.1855 236.981 29.2371 235.714 34.081C235.172 36.1842 234.75 38.3352 234.479 40.4943C233.595 47.545 232.791 54.6039 232.01 61.2244C221.695 64.0845 218.699 72.7922 214.9 80.6476C212.885 80.8468 211.116 81.0858 209.34 81.1893C193.512 82.1613 177.676 83.0855 161.849 84.0814C157.141 84.3762 152.33 85.6509 148.466 81.4762C148.028 80.9982 146.937 81.1813 146.188 80.9423C141.528 79.4127 136.837 79.6835 132.065 80.3926C120.698 82.0656 69.75 91.0605 61.9039 92.128C20.4109 97.7607 9.84858 132.401 5.40376 137.683C2.41665 141.228 0.616352 154.716 0.313658 157.274C-1.59013 173.351 5.22832 182.696 19.2478 190.121C23.605 192.424 28.2649 194.407 33.0124 195.658C40.0381 197.507 47.2231 198.98 54.44 199.833C59.084 200.375 63.8793 199.434 68.6188 199.347C74.0673 199.227 79.1416 197.865 84.0245 195.475C89.6323 192.726 96.3632 181.525 95.8614 175.398C95.2401 167.806 86.7805 160.07 78.9582 160.731C72.6893 161.257 66.4364 162.547 60.2949 164.005C54.472 165.384 48.9519 165.185 43.4476 162.874C38.8116 160.922 36.8041 157.114 36.8997 152.477C37.0351 145.921 39.1938 140.328 42.7385 135.468C44.8893 134.106 47.0321 132.719 49.2466 131.461C54.4243 128.521 77.891 124.84 83.6183 123.454C89.5447 122.02 104.01 118.881 105.309 118.753C115.529 117.765 125.884 118.22 136.144 117.566C139.131 117.375 142.835 116.355 144.794 114.348C150.131 108.867 157.237 109.639 163.569 108.285C169.392 107.05 175.621 107.775 181.643 107.289C188.295 106.755 194.914 106.078 201.597 106.875C202.959 107.042 204.369 106.779 205.755 106.707C208.041 106.58 210.328 106.461 212.972 106.309C213.323 108.962 213.769 111.081 213.848 113.208C214.008 117.176 213.896 121.152 214.023 125.127C214.231 131.301 215.115 132.353 221.822 134.361C222.372 138.161 223.072 142.24 223.534 146.351C223.813 148.9 223.519 151.529 223.845 154.079C224.331 157.879 225.494 158.532 229.326 157.951C230.632 157.767 231.994 157.927 233.149 157.927C234.87 163.886 236.503 169.582 238.366 176.067C240.908 176.203 243.632 176.824 246.197 176.41C251.43 175.573 256.552 173.988 261.778 173.056C271.87 171.255 281.277 168.053 289.267 161.337C291.37 159.576 293.568 157.648 296.062 156.708C308.679 151.952 320.476 145.721 331.859 138.495C341.729 132.233 350.889 124.832 363.786 124.163C366.605 124.02 369.401 123.924 372.189 123.932C372.811 124.8 373.456 125.653 374.141 126.473C376.865 129.756 380.282 131.54 384.369 132.616C393.298 134.982 402.467 136.05 411.675 136.552C421.457 137.085 431.326 137.531 441.1 136.727C451.033 135.906 460.903 134.48 470.868 134.01C471.258 133.994 471.648 133.883 472.022 133.715C473.122 133.819 474.213 133.906 475.32 133.994C485.357 134.783 495.402 135.659 505.446 136.225C511.755 136.575 518.088 136.289 524.405 136.528C533.693 136.886 542.972 137.587 552.268 137.906C567.068 138.408 581.876 138.718 596.685 139.109C611.867 139.523 627.05 140.001 642.232 140.32C646.566 140.415 650.907 139.794 655.232 139.93C664.679 140.216 674.119 140.726 683.558 141.252C691.046 141.658 698.517 142.375 706.005 142.662C712.465 142.917 718.949 142.527 725.401 142.845C747.307 143.889 769.22 144.981 791.11 146.335C805.305 147.203 819.467 146.813 833.638 146.199C844.83 145.706 856.006 144.662 867.19 143.849C871.133 143.562 875.083 143.339 879.019 142.893C891.74 141.467 904.437 139.945 917.158 138.472C917.74 138.408 918.345 138.559 918.942 138.503C922.654 138.145 926.366 137.802 930.062 137.38C933.567 136.99 937.064 136.44 940.577 136.105C943.7 135.803 946.989 136.241 949.929 135.388C956.954 133.349 964.211 133.628 971.34 132.64C984.778 130.768 998.376 129.971 1011.85 128.234C1020.62 127.095 1029.44 125.677 1037.96 123.358C1050.62 119.917 1063.51 118.268 1076.43 116.547C1083.27 115.63 1090.1 114.491 1096.9 113.296C1102.91 112.236 1108.85 110.778 1114.87 109.822C1123.48 108.444 1132.14 107.432 1140.76 106.126C1148.93 104.891 1157.11 103.648 1165.21 102.094C1173.91 100.413 1183.07 99.7763 1190.4 94.0162C1195.23 90.208 1200.81 88.9093 1206.58 88.2958C1219.37 86.9653 1338.79 78.2814 1332.78 76.9669ZM213.012 98.6369C193.265 100.214 173.638 101.784 153.015 103.425C153.222 99.37 153.278 96.4621 153.549 93.5701C153.78 91.0764 155.564 90.6301 157.778 90.4867C172.746 89.5147 187.665 87.7938 202.712 88.4232C206.034 88.5666 209.372 88.4473 212.877 88.4473C214.486 91.8651 214.717 95.1952 213.012 98.6369ZM897.571 42.9083C904.421 41.4583 911.255 42.502 918.066 43.3863C921.053 43.7767 924.001 44.4539 926.972 45.0036C926.916 45.5772 926.86 46.1587 926.805 46.7403C916.242 46.3499 905.68 45.9676 895.117 45.5772C894.982 45.2266 894.846 44.8761 894.711 44.5176C895.667 43.9679 896.551 43.1155 897.571 42.9083ZM885.821 40.1437C876.868 47.0988 867.038 44.9 857.519 44.5495C866.298 40.2951 875.131 36.2638 885.821 40.1437ZM834.196 35.5628C836.116 34.8538 838.322 34.4234 840.337 34.5828C845.746 34.9971 851.123 35.7857 856.508 36.4311C842.807 45.8798 828.094 48.1983 811.446 45.9197C813.135 44.5733 813.987 43.5217 815.086 43.0756C821.427 40.4704 827.776 37.9211 834.196 35.5628ZM791.014 34.328C796.025 31.3723 801.234 30.8624 806.93 31.922C811.486 32.7744 816.209 32.8141 820.853 33.2125C821.069 33.5471 821.3 33.8818 821.515 34.2164C819.77 35.3238 818.089 36.5348 816.289 37.5227C811.438 40.1757 806.563 42.8128 801.617 45.2825C799.896 46.135 797.897 47.0431 796.072 46.9555C789.365 46.6368 782.674 45.9916 775.999 45.2507C774.987 45.1391 774.103 43.9122 772.311 42.5658C777.743 40.0562 782.148 37.9767 786.593 35.9849C788.027 35.3396 789.676 35.1167 791.014 34.328ZM769.149 28.1695C774.055 29.3087 779.177 29.4761 785.629 30.2409C776.334 35.2521 768.352 39.825 760.092 43.8164C758.029 44.8123 755.065 44.0236 752.524 43.928C747.849 43.7368 743.181 43.4421 738.505 43.1792C738.425 42.7808 738.353 42.3826 738.282 41.9922C743.746 38.5505 749.617 35.6106 754.555 31.5315C759.144 27.7233 763.541 26.8788 769.149 28.1695ZM721.928 27.7394C724.796 25.8034 727.584 25.636 730.826 25.875C736.529 26.2734 742.265 26.1778 747.984 26.3611C749.051 26.4009 750.103 26.7913 751.154 27.0144C751.186 27.4446 751.226 27.8747 751.266 28.3129C743.953 32.9178 736.657 37.5465 729.297 42.0717C728.357 42.6533 727.034 42.9083 725.903 42.8765C718.423 42.6932 710.952 42.3744 702.436 42.0637C703.615 40.2552 704.053 38.8849 704.985 38.2874C710.601 34.6943 716.432 31.4679 721.928 27.7394ZM703.448 23.3815C706.794 24.0188 710.259 24.0027 713.684 24.2816C713.803 24.7197 713.915 25.158 714.026 25.6042C712.712 26.5762 711.414 27.58 710.075 28.5201C707.646 30.217 704.81 31.5075 702.843 33.6188C695.706 41.2829 686.792 42.8128 676.986 42.0559C673.967 41.8169 670.9 42.016 667.826 41.53C676.086 34.6864 684.546 28.6475 694.288 24.672C697.251 23.4611 700.142 22.7441 703.448 23.3815ZM683.773 21.9395C683.98 22.3538 684.195 22.76 684.402 23.1663C682.029 24.8633 679.687 26.592 677.289 28.2412C671.594 32.1769 665.874 36.0727 660.171 39.9844C659.207 40.6457 658.275 41.8169 657.263 41.8806C650.955 42.279 644.63 42.4382 638.313 42.5896C637.939 42.5975 637.54 41.8327 636.592 40.8368C643.092 36.3913 649.314 31.9618 655.726 27.8429C658.53 26.0424 661.764 24.9348 664.759 23.4211C670.956 20.306 677.377 21.3499 683.773 21.9395ZM632.195 21.796C637.198 18.9837 642.806 19.621 648.214 19.3103C651.066 19.1429 653.958 19.613 658.187 19.8918C656.212 21.6366 655.312 22.7917 654.117 23.4211C646.024 27.6595 638.544 32.7745 631.98 39.14C629.081 41.9524 625.823 43.1155 621.816 42.98C616.32 42.7968 610.824 42.9322 605.335 42.9322C605.144 42.5099 604.937 42.0957 604.746 41.6735C611.939 36.3356 617.929 29.4602 626.293 25.5723C628.38 24.5924 630.156 22.9353 632.195 21.796ZM612.329 19.7963C615.205 20.1468 618.184 19.5333 621.131 19.4457C621.784 19.4297 622.446 19.8121 623.959 20.2662C620.414 22.9989 617.451 25.158 614.615 27.4843C609.111 32.0095 603.734 36.7099 598.166 41.1714C596.565 42.4541 594.518 43.8724 592.606 43.9839C586.321 44.3345 580.005 44.1194 572.23 44.1194C574.524 41.3628 575.807 39.1957 577.655 37.7219C583.502 33.0293 589.484 28.4962 595.561 24.0985C600.524 20.4974 606.092 19.0474 612.329 19.7963ZM586.775 20.0909C587.66 20.0591 588.568 20.4814 590.44 20.9195C588.528 22.6723 587.429 24.0028 586.051 24.8792C578.969 29.3725 572.907 35.005 567.172 41.0758C565.866 42.4701 564.225 44.207 562.536 44.4619C555.399 45.5215 548.19 46.0713 540.168 46.8998C543.936 40.4466 548.962 36.6303 553.527 32.3919C554.244 31.7227 555.255 31.3323 555.885 30.5993C564.121 21.031 575.432 20.4813 586.775 20.0909ZM533.565 27.8748C536.265 25.8114 539.802 24.5127 543.164 23.716C547.122 22.76 551.304 22.712 556.617 22.1464C555.287 24.0505 554.841 25.0385 554.1 25.6997C547.186 31.89 539.866 37.6821 534.561 45.4896C533.939 46.3979 532.768 47.3937 531.765 47.5052C525.966 48.1585 520.151 48.5489 514.336 49.027C514.105 48.5649 513.874 48.1186 513.643 47.6645C515.555 45.2744 517.259 42.6614 519.434 40.5422C523.982 36.1444 528.547 31.7069 533.565 27.8748ZM527.623 24.9986C524.142 28.7908 520.947 32.1928 517.841 35.6902C515.228 38.646 512.384 41.4902 510.25 44.7646C507.868 48.4214 505.16 50.5168 500.595 50.1981C497.513 49.983 494.39 50.4372 491.044 50.6124C491.013 46.1589 494.191 44.0874 496.278 41.9762C501.392 36.8136 507.143 32.2406 512.814 27.6596C517.251 24.0825 522.477 24.8472 527.623 24.9986ZM480.888 37.1879C486.624 36.6701 490.2 32.3521 494.589 29.5478C497.29 27.819 499.878 27.1736 504.315 28.4403C500.986 31.8661 498.237 34.567 495.625 37.3793C492.415 40.8449 489.451 44.5495 486.082 47.8558C484.505 49.4014 482.338 50.8275 480.227 51.2657C476.26 52.0863 472.134 52.1578 467.291 52.6119C468.223 50.8512 468.573 49.7439 469.282 48.9472C472.325 45.5613 475.448 42.2471 478.586 38.9567C479.247 38.2477 480.06 37.2596 480.888 37.1879ZM477.105 33.5393C473.894 37.5785 471.584 40.9404 468.82 43.8881C459.564 53.7831 459.508 53.7273 445.823 53.6477C445.441 53.6477 445.059 53.4643 444.684 53.3608C446.747 43.5535 461.086 34.3838 477.105 33.5393ZM448.691 40.2234C448.165 41.0759 447.791 41.9442 447.186 42.6134C445.736 44.2387 443.681 45.5213 442.757 47.3856C439.196 54.5399 432.848 54.811 426.204 54.6596C423.878 54.6038 421.56 54.6516 418.549 54.6516C423.536 45.2187 438.065 36.5746 448.691 40.2234ZM422.389 42.3744C418.796 46.7164 415.912 50.3893 412.79 53.839C411.985 54.7154 410.376 55.2571 409.15 55.2492C404.816 55.2253 400.491 54.8825 396.166 54.6674C390.861 54.3965 385.556 54.1416 379.94 53.8548C387.284 49.2101 413.244 42.0557 422.389 42.3744ZM331.27 33.1488C326.682 32.2884 322.563 32.8222 318.485 29.1016C323.575 29.261 327.582 29.0936 331.27 33.1488ZM302.721 30.5675C304.218 30.9419 305.7 31.3085 307.19 31.683C307.118 32.0016 307.054 32.3203 306.991 32.6389C305.493 32.2964 303.987 31.9618 302.49 31.6193C302.562 31.2687 302.641 30.918 302.721 30.5675ZM300.236 22.2181C296.484 25.2535 293.513 22.3775 290.159 22.497C294.022 18.7127 294.023 18.7127 300.236 22.2181ZM293.401 28.2492C290.47 29.7868 288.343 28.767 286.415 26.6956C288.797 26.4327 291.426 25.3333 293.401 28.2492ZM286.861 17.1274C280.218 26.0902 278.051 26.9824 269.648 24.5685C272.26 17.8045 277.135 15.5978 286.861 17.1274ZM262.351 14.3628C264.167 13.2235 267.346 14.2274 270.946 14.2752C265.354 22.768 261.754 24.927 254.879 24.433C256.019 19.9875 258.83 16.5776 262.351 14.3628ZM239.338 44.6372C240.422 44.8444 241.489 44.9718 242.62 45.0117C244.779 45.0834 246.699 45.5852 248.786 46.0632C250.689 46.5014 252.808 46.2543 254.752 46.2543C256.632 46.2543 258.488 46.4616 260.368 46.5891C262.893 46.7564 265.458 46.7482 268.023 46.7004C272.308 47.4334 276.602 48.1426 280.903 48.8118C288.909 50.0467 296.938 51.17 304.975 52.1738C310.232 52.8271 315.538 53.6079 320.811 53.5601C327.749 53.5044 333.835 55.9899 339.896 58.7544C341.553 59.5113 343.011 60.6906 341.545 63.4551C330.003 62.507 318.652 61.5749 307.293 60.6747C307.07 60.6587 306.791 61.2242 306.377 61.7101C317.003 66.6974 328.896 65.3193 340.581 68.8407C339.928 72.1629 339.315 75.3018 338.678 78.5523C334.026 78.5523 330.083 78.6639 326.14 78.5285C315.665 78.2019 305.174 77.8433 294.7 77.3493C288.367 77.0386 281.994 76.8315 275.741 75.8835C265.45 74.3379 255.19 74.9114 244.898 75.254C242.955 75.3177 241.003 75.262 238.51 75.262C238.255 65.0962 237.347 55.1536 239.338 44.6372ZM225.988 76.1701C226.315 76.2657 226.641 76.3533 226.968 76.441C227.294 78.3132 227.645 80.1856 227.94 82.0658C228.497 85.5075 228.234 85.7225 222.571 85.7145C223.853 82.1214 224.921 79.1418 225.988 76.1701ZM232.799 92.2635C229.525 93.2434 226.259 95.1553 222.045 93.1397C225.837 90.184 229.533 93.4027 232.799 92.2635ZM223.208 114.204C225.104 110.141 225.104 110.141 232.408 112.284C229.74 112.842 227.063 113.4 223.208 114.204ZM306.704 135.619C292.222 142.925 278.187 151.314 261.905 154.366C257.827 155.13 253.908 156.74 249.829 157.369C245.273 158.078 244.118 157.09 243.337 152.669C242.891 150.175 242.923 147.602 242.724 144.797C264.972 140.495 286.925 139.212 308.759 132.974C307.906 134.082 307.484 135.221 306.704 135.619ZM329.055 119.327C312.065 126.904 294.11 130.935 275.781 133.612C268.724 134.64 261.706 135.938 254.664 137.046C249.582 137.85 244.5 138.918 239.386 139.141C235.276 139.308 233.253 141.252 231.954 144.718C231.277 146.526 230.449 148.279 229.692 150.063C229.27 150.023 228.856 149.976 228.433 149.928C227.884 143.124 227.334 136.328 226.745 129.063C229.158 128.553 231.612 127.947 234.105 127.509C248.841 124.864 263.554 122.147 278.306 119.654C294.572 116.897 309.874 110.779 325.67 106.413C330.163 105.178 334.544 102.835 340 104.062C341.147 106.444 342.382 109.034 343.855 112.117C338.566 114.706 333.89 117.168 329.055 119.327ZM361.029 78.2574C361.691 81.3645 361.436 83.7387 359.078 85.7463C354.824 89.3633 355.127 93.6256 357.246 98.111C359.253 102.357 361.436 106.54 363.889 111.44C361.483 112.42 359.882 113.073 357.74 113.949C355.589 104.811 352.403 96.1434 351.757 87.2841C350.993 76.8236 353.319 66.3471 357.708 56.6513C360.066 51.433 362.782 46.3021 365.968 41.5538C369.401 36.447 370.548 35.3318 377.152 39.1002C376.084 40.9007 375.129 42.7648 373.95 44.4777C372.253 46.9156 370.381 49.234 368.613 51.6241C368.023 52.4128 366.98 53.329 367.067 54.0938C367.752 60.1566 363.196 64.0524 361.308 69.0238C360.265 71.7724 360.392 75.3017 361.029 78.2574ZM1012.9 107.185C994.026 109.512 975.076 111.193 956.198 113.447C939.072 115.495 922.001 118.052 904.883 120.219C892.488 121.781 880.078 123.255 867.644 124.426C851.649 125.932 835.63 127.27 819.611 128.354C801.402 129.573 783.176 130.664 764.895 129.557C759.55 129.23 754.173 129.604 748.812 129.485C739.708 129.302 730.746 127.955 721.705 126.752C701.265 124.035 680.611 123.701 659.972 123.111C639.707 122.53 619.498 123.804 599.274 123.231C579.248 122.657 559.23 121.693 539.221 120.737C522.963 119.972 506.713 119.072 490.471 118.06C478.403 117.303 466.351 116.268 454.283 115.359C446.182 114.746 438.041 114.395 429.964 113.471C414.399 111.695 398.97 108.922 383.954 104.469C379.462 103.13 374.523 101.768 370.636 97.8482C371.464 97.3383 371.918 96.8044 372.333 96.8363C383.341 97.7047 394.278 98.9556 405.398 98.5015C412.822 98.1987 420.318 99.9117 427.789 100.533C436.281 101.242 444.788 101.816 453.287 102.31C474.46 103.529 495.625 104.692 516.805 105.823C522.357 106.118 527.917 106.221 533.47 106.452C539.985 106.723 546.509 107.042 553.025 107.345C571.187 108.197 589.348 109.193 607.51 109.878C622.127 110.428 636.76 110.723 651.385 110.97C661.891 111.145 672.422 110.81 682.921 111.129C700.533 111.655 718.137 112.531 735.749 113.232C748.223 113.718 760.705 114.141 773.179 114.682C776.732 114.842 780.277 115.439 783.829 115.59C793.484 116.021 803.138 116.658 812.8 116.594C827.393 116.507 841.994 115.997 856.587 115.439C860.307 115.304 863.98 114.077 867.707 113.79C881.384 112.73 895.085 112.005 908.746 110.882C919.341 110.014 929.887 108.588 940.474 107.679C949.746 106.883 959.057 106.492 968.345 105.855C980.389 105.042 992.425 104.246 1004.46 103.29C1013.87 102.533 1023.24 101.497 1032.65 100.732C1034.12 100.613 1035.64 101.258 1037.14 101.561C1037.15 101.935 1037.17 102.31 1037.18 102.684C1029.08 104.206 1021.05 106.182 1012.9 107.185ZM1124.88 77.8672C1108.25 78.7595 1091.6 79.341 1074.98 80.4643C1060.52 81.4283 1046.12 83.181 1031.66 84.1689C1021.38 84.87 1011.03 84.639 1000.73 85.2445C980.923 86.4077 961.144 88.1048 941.326 89.1405C925.084 89.977 908.802 90.0407 892.544 90.7179C880.062 91.2357 867.596 92.2555 855.122 92.9087C844.615 93.4585 834.092 94.024 823.578 94.1913C806.117 94.4701 788.625 94.9243 771.18 94.4064C755.36 93.9364 739.532 93.3788 723.745 91.403C707.431 89.3555 690.91 88.9968 674.477 87.7699C658.259 86.5589 642.073 84.87 625.839 83.9618C611.182 83.1412 596.485 83.0695 581.821 82.695C571.306 82.4321 560.792 82.0737 550.277 82.0259C539.372 81.9781 528.459 82.1771 517.554 82.448C510.425 82.6313 503.296 83.1414 496.158 83.5078C495.76 83.5238 495.33 83.436 494.972 83.5635C484.003 87.2681 473.074 84.9496 462.034 83.7546C452.387 82.7189 442.621 82.727 432.911 82.3605C419.617 81.8506 406.322 81.3566 393.027 80.9822C387.874 80.8308 382.712 81.1416 377.558 81.0221C372.444 80.8946 369.608 78.6798 368.262 74.2183C366.956 69.8843 368.063 67.6774 372.643 67.1038C378.339 66.3867 384.106 66.0045 389.841 65.9567C402.968 65.8531 416.104 66.0124 429.231 66.1239C437.938 66.2116 446.644 66.61 455.334 66.5064C468.191 66.3391 481.04 65.7096 493.888 65.5025C506.307 65.2954 518.749 65.5582 531.167 65.2555C549.138 64.8093 567.1 64.0126 585.071 63.423C592.415 63.184 599.759 63.1363 607.104 62.9292C622.095 62.5229 637.078 62.1085 652.054 61.6384C656.809 61.4791 661.565 60.7702 666.296 60.9455C674.15 61.2323 681.989 62.1643 689.843 62.6024C701.481 63.2557 713.126 64.0287 724.78 64.1721C747.761 64.4748 770.75 64.3633 793.73 64.4429C804.795 64.4828 815.859 64.4986 826.923 64.634C838.601 64.7774 850.271 65.2475 861.932 65.2236C874.988 65.1918 888.076 65.2556 901.083 64.3792C913.725 63.5268 926.342 63.8931 938.896 64.4986C956.492 65.3351 974.009 67.6216 991.589 68.8166C1009.92 70.0674 1028.29 70.6731 1046.62 71.7566C1061.22 72.617 1075.79 74.0192 1090.39 74.7203C1102.21 75.286 1114.07 75.1584 1125.91 75.3576C1127.94 75.3974 1129.97 75.5567 1132 75.6603C1132.02 76.0427 1132.04 76.425 1132.06 76.8154C1129.67 77.1819 1127.29 77.7397 1124.88 77.8672Z" fill="black"/>
</svg>
