<svg width="46" height="46" viewBox="0 0 46 46" fill="none" xmlns="http://www.w3.org/2000/svg">
<path d="M41.4571 36.6016C37.2653 42.2437 30.5463 45.907 22.9863 45.907C15.4938 45.907 8.82714 42.3086 4.62811 36.7517H16.1715C16.4562 36.7516 16.7366 36.8215 16.9879 36.9551C17.2392 37.0888 17.4536 37.2821 17.6124 37.5181L17.6259 37.5385L21.8671 43.0173L21.8822 43.036C22.8461 44.1985 23.7841 44.4688 24.4484 44.4688C24.5049 44.4688 24.5586 44.4668 24.6114 44.4633C25.6891 44.3907 26.6863 43.6344 27.5753 42.2154L30.757 37.6573C30.9845 37.3315 31.2874 37.0653 31.64 36.8815C31.9926 36.6977 32.3845 36.6017 32.7823 36.6016H41.4571Z" fill="#664C31"/>
<path d="M37.9495 22.6789C37.6574 22.1809 37.2401 21.7676 36.739 21.48C36.2378 21.1924 35.6702 21.0404 35.0922 21.0391C34.5141 21.0377 33.9458 21.1871 33.4433 21.4724C32.9408 21.7577 32.5217 22.169 32.2272 22.6657L27.4774 33.2623C26.9057 34.4979 25.9776 36.1479 24.5254 36.2125C24.4954 36.2125 24.4651 36.2144 24.4351 36.2144C23.2652 36.2144 22.1545 35.195 20.8474 32.9279L20.61 32.5223C20.596 32.5223 20.5825 32.5223 20.5674 32.5223H2.09515C2.53655 33.4787 3.04328 34.4037 3.61178 35.2907H16.1717C16.6916 35.2903 17.2038 35.4168 17.6636 35.6591C18.1234 35.9015 18.5169 36.2523 18.81 36.6811L23.0162 42.1126C23.3742 42.5441 23.925 43.0454 24.5149 43.0058C25.0933 42.9668 25.7267 42.4203 26.3475 41.4257L26.3684 41.3941L29.5606 36.8208C29.9226 36.3025 30.4046 35.8791 30.9655 35.5867C31.5265 35.2942 32.1499 35.1412 32.7827 35.1408H42.4553C42.7895 34.6106 43.1021 34.0663 43.3931 33.5079L37.9495 22.6789ZM35.2955 31.3964C34.8103 31.3964 34.3361 31.2528 33.9327 30.9836C33.5293 30.7145 33.2149 30.332 33.0292 29.8844C32.8436 29.4368 32.795 28.9443 32.8896 28.4691C32.9843 27.994 33.2179 27.5576 33.561 27.215C33.904 26.8724 34.3411 26.6392 34.8169 26.5447C35.2928 26.4501 35.786 26.4986 36.2342 26.684C36.6824 26.8694 37.0655 27.1834 37.3351 27.5862C37.6046 27.989 37.7485 28.4626 37.7485 28.947C37.7485 29.2688 37.6851 29.5874 37.5617 29.8847C37.4384 30.1819 37.2576 30.452 37.0297 30.6795C36.8018 30.907 36.5312 31.0873 36.2335 31.2104C35.9357 31.3334 35.6166 31.3966 35.2944 31.3964H35.2955Z" fill="#6FA553"/>
<path d="M27.1176 30.5004L26.1509 32.6589C25.2862 34.5256 24.6814 34.7489 24.4611 34.7599C24.143 34.7745 23.4146 34.4607 22.113 32.2024L21.2003 30.6429L18.7465 26.4161C19.1042 26.1836 19.5055 26.0261 19.926 25.9529C20.3465 25.8798 20.7775 25.8927 21.1929 25.9908C21.6082 26.0889 21.9993 26.2701 22.3425 26.5236C22.6857 26.777 22.9737 27.0974 23.1893 27.4653L23.4016 27.8299H23.4261C23.9078 28.5342 24.482 29.1389 25.103 29.5938C25.7447 30.0648 26.42 30.3679 27.1176 30.5004Z" fill="#046858"/>
<path d="M43.241 12.1085C41.9855 12.4407 40.7707 12.4627 39.2819 12.191C36.8725 11.7502 34.721 10.4115 33.263 8.44608C31.805 6.48065 31.1496 4.03537 31.4294 1.60547C36.4934 3.60857 40.6804 7.35847 43.241 12.1085Z" fill="#F7941D"/>
<path d="M43.9027 13.4362C43.0189 13.7005 42.1012 13.8344 41.1787 13.8336C40.4927 13.8336 39.781 13.7629 39.0185 13.6235C36.1858 13.1075 33.6645 11.5132 31.9863 9.17686C30.308 6.84051 29.6039 3.94469 30.0225 1.10001C27.7489 0.369212 25.3748 -0.0019409 22.9863 7.6324e-06C10.3116 7.63241e-06 1.13936e-05 10.2968 1.13936e-05 22.9532C-0.00275891 25.7248 0.499683 28.4737 1.48277 31.0657H19.7572L16.8675 26.1277L16.8834 26.1124L11.094 16.1397C10.9597 15.9025 10.7645 15.7054 10.5285 15.5686C10.2925 15.4317 10.0243 15.3602 9.75139 15.3612H9.74863C9.47662 15.3597 9.20908 15.4303 8.97341 15.5659C8.73774 15.7016 8.54241 15.8973 8.40743 16.1332L3.8256 24.0279C3.67411 24.2889 3.59413 24.5851 3.59371 24.8867C3.59328 25.1884 3.67243 25.4848 3.82317 25.7463C3.97392 26.0077 4.19096 26.2249 4.45245 26.3759C4.71394 26.527 5.01066 26.6066 5.31276 26.6068H12.3856C12.5194 26.6068 12.6508 26.5718 12.7669 26.5054C12.883 26.439 12.9797 26.3434 13.0473 26.2282C13.115 26.1129 13.1513 25.982 13.1527 25.8484C13.154 25.7149 13.1204 25.5832 13.0551 25.4666L9.97694 19.9722C9.95599 19.9347 9.92535 19.9035 9.88821 19.8818C9.85107 19.8602 9.8088 19.8489 9.7658 19.8492C9.72281 19.8494 9.68067 19.8612 9.64379 19.8833C9.6069 19.9054 9.57663 19.9369 9.55613 19.9746L7.56801 23.625C7.54907 23.6598 7.53951 23.699 7.54029 23.7386C7.54107 23.7783 7.55215 23.8171 7.57245 23.8511C7.59275 23.8852 7.62157 23.9134 7.65608 23.933C7.6906 23.9526 7.72962 23.9629 7.76933 23.963H9.75524C9.94533 23.9682 10.1259 24.0472 10.2585 24.1833C10.3911 24.3194 10.4653 24.5018 10.4653 24.6917C10.4653 24.8816 10.3911 25.064 10.2585 25.2001C10.1259 25.3362 9.94533 25.4152 9.75524 25.4205H7.76933C7.47643 25.4205 7.18854 25.3445 6.93393 25.2C6.67932 25.0554 6.46674 24.8472 6.31705 24.5958C6.16736 24.3444 6.08572 24.0584 6.08014 23.766C6.07455 23.4736 6.14522 23.1848 6.2852 22.9279L8.27331 19.2775C8.4186 19.0107 8.6329 18.7876 8.8939 18.6316C9.15489 18.4756 9.453 18.3924 9.75717 18.3906H9.76736C10.0697 18.3906 10.3666 18.4712 10.6275 18.6239C10.8883 18.7767 11.1036 18.9961 11.2512 19.2596L14.3296 24.7544C14.5197 25.0929 14.6177 25.4751 14.614 25.8631C14.6103 26.2512 14.505 26.6315 14.3086 26.9663C14.1122 27.3011 13.8315 27.5788 13.4943 27.7718C13.1571 27.9647 12.7753 28.0662 12.3867 28.0662H5.31386C4.75514 28.0662 4.20628 27.9192 3.72253 27.6401C3.23878 27.3609 2.83722 26.9594 2.55828 26.476C2.27933 25.9926 2.13284 25.4444 2.13355 24.8865C2.13426 24.3286 2.28215 23.7807 2.56234 23.298L7.14417 15.4033C7.40629 14.9454 7.7856 14.5653 8.24325 14.3019C8.7009 14.0386 9.22044 13.9014 9.74863 13.9045H9.75387C10.2829 13.9023 10.8031 14.0407 11.2609 14.3056C11.7186 14.5705 12.0975 14.9523 12.3586 15.4118L18.0117 25.1512C18.753 24.6868 19.6114 24.4424 20.4865 24.4467H20.5V19.5434L17.3221 16.9383C17.1724 16.8156 17.0776 16.6386 17.0586 16.4461C17.0397 16.2536 17.098 16.0614 17.2209 15.9119C17.3438 15.7624 17.5212 15.6677 17.7139 15.6488C17.9067 15.6298 18.0991 15.6881 18.2489 15.8108L20.5 17.6564V15.1264L17.2941 12.2114C17.2231 12.1469 17.1657 12.0692 17.1248 11.9825C17.084 11.8959 17.0607 11.8021 17.0562 11.7065C17.0517 11.6108 17.0661 11.5153 17.0986 11.4252C17.1311 11.3351 17.181 11.2523 17.2456 11.1815C17.3101 11.1107 17.388 11.0533 17.4747 11.0125C17.5615 10.9718 17.6555 10.9485 17.7512 10.944C17.847 10.9395 17.9427 10.9539 18.0329 10.9864C18.1231 11.0188 18.206 11.0687 18.277 11.1331L20.5 13.1541V10.7137L17.2693 7.4866C17.2007 7.41907 17.1463 7.33867 17.109 7.25003C17.0717 7.16139 17.0524 7.06627 17.052 6.97013C17.0517 6.87399 17.0705 6.77875 17.1072 6.68987C17.1439 6.60099 17.1978 6.52023 17.2659 6.45225C17.334 6.38427 17.4148 6.33041 17.5038 6.29376C17.5928 6.25712 17.6882 6.23841 17.7845 6.23872C17.8808 6.23904 17.9761 6.25836 18.0648 6.29559C18.1536 6.33281 18.2341 6.38721 18.3017 6.45563L20.5 8.65068V3.97953C20.4973 3.88215 20.5142 3.7852 20.5497 3.69445C20.5851 3.60369 20.6385 3.52096 20.7065 3.45114C20.7745 3.38131 20.8559 3.32581 20.9458 3.28791C21.0357 3.25001 21.1322 3.23048 21.2298 3.23048C21.3274 3.23048 21.4239 3.25001 21.5138 3.28791C21.6037 3.32581 21.6851 3.38131 21.7531 3.45114C21.8211 3.52096 21.8745 3.60369 21.9099 3.69445C21.9454 3.7852 21.9623 3.88215 21.9596 3.97953V8.68973L24.197 6.45563C24.3342 6.32039 24.5194 6.24483 24.7122 6.24546C24.905 6.24609 25.0897 6.32285 25.2261 6.45899C25.3624 6.59512 25.4393 6.77958 25.4399 6.9721C25.4405 7.16463 25.3649 7.34958 25.2294 7.4866L21.9596 10.7517V13.1337L24.208 10.983C24.2772 10.9167 24.3588 10.8648 24.4482 10.83C24.5375 10.7953 24.6329 10.7785 24.7287 10.7805C24.8246 10.7826 24.9191 10.8035 25.0069 10.842C25.0947 10.8805 25.174 10.936 25.2403 11.0051C25.3066 11.0742 25.3587 11.1557 25.3935 11.245C25.4282 11.3342 25.4451 11.4294 25.443 11.5251C25.441 11.6208 25.4201 11.7152 25.3815 11.8029C25.3429 11.8905 25.2874 11.9697 25.2181 12.0359L21.9602 15.1522V17.5761L24.2206 15.5089C24.3635 15.3783 24.5524 15.3097 24.7459 15.3182C24.9394 15.3268 25.1215 15.4116 25.2523 15.5543C25.3831 15.6969 25.4518 15.8856 25.4432 16.0788C25.4347 16.2719 25.3497 16.4539 25.2069 16.5844L21.9602 19.5544V24.6922C22.8699 25.0022 23.6596 25.5888 24.2184 26.3697H24.23L24.3622 26.584C24.3776 26.6084 24.3928 26.6332 24.4079 26.658L24.4434 26.7187C24.7764 27.2619 25.9716 28.9913 27.7386 29.1112L29.3205 25.5816L26.6797 25.3517C26.5842 25.3434 26.4912 25.3163 26.4062 25.2722C26.3211 25.228 26.2456 25.1675 26.184 25.0942C26.1223 25.0208 26.0758 24.9361 26.0469 24.8448C26.0181 24.7535 26.0075 24.6574 26.0158 24.562C26.0242 24.4667 26.0512 24.3739 26.0955 24.2889C26.1398 24.204 26.2003 24.1286 26.2738 24.067C26.3472 24.0055 26.432 23.959 26.5235 23.9302C26.6149 23.9014 26.7111 23.8908 26.8067 23.8991L29.952 24.1741L30.2825 23.4399L27.4313 21.8628C27.2626 21.7687 27.1383 21.6117 27.0853 21.4262C27.0324 21.2408 27.0552 21.0419 27.1488 20.8732C27.2424 20.7044 27.3991 20.5796 27.5846 20.526C27.7702 20.4725 27.9694 20.4945 28.1388 20.5873L30.8812 22.1042L30.9261 22.0038L30.9448 21.9714C31.065 21.764 31.2001 21.5655 31.3491 21.3777L29.5383 18.9766C29.4261 18.822 29.3792 18.6295 29.4075 18.4406C29.4359 18.2518 29.5374 18.0815 29.6901 17.9665C29.8428 17.8515 30.0346 17.801 30.2242 17.8256C30.4139 17.8503 30.5863 17.9483 30.7044 18.0986L32.4265 20.3797C32.6919 20.2023 32.9749 20.0525 33.2708 19.9326L32.6374 17.198C32.5938 17.0096 32.6269 16.8116 32.7295 16.6476C32.8321 16.4836 32.9957 16.367 33.1844 16.3235C33.373 16.2799 33.5713 16.313 33.7355 16.4154C33.8998 16.5178 34.0165 16.6812 34.0601 16.8696L34.6919 19.5984C34.8216 19.5883 34.9524 19.5822 35.0846 19.5822C35.2743 19.5825 35.4638 19.5936 35.6522 19.6155L36.1934 16.8319C36.2117 16.738 36.2483 16.6485 36.3012 16.5686C36.3541 16.4888 36.4222 16.4201 36.5017 16.3665C36.5811 16.313 36.6704 16.2756 36.7643 16.2565C36.8583 16.2373 36.9551 16.2369 37.0492 16.2551C37.1433 16.2734 37.2329 16.3099 37.3129 16.3627C37.3929 16.4156 37.4616 16.4836 37.5153 16.5629C37.5689 16.6423 37.6064 16.7314 37.6255 16.8252C37.6447 16.919 37.6451 17.0157 37.6269 17.1097L37.0642 20.0032C37.3348 20.1254 37.593 20.2732 37.8353 20.4446L39.5896 17.9421C39.6446 17.8637 39.7145 17.7968 39.7954 17.7453C39.8762 17.6939 39.9664 17.6588 40.0608 17.6422C40.1552 17.6255 40.252 17.6276 40.3456 17.6483C40.4392 17.669 40.5279 17.7079 40.6064 17.7628C40.685 17.8177 40.7519 17.8875 40.8035 17.9682C40.855 18.049 40.8901 18.139 40.9068 18.2333C40.9234 18.3276 40.9214 18.4242 40.9006 18.5177C40.8799 18.6112 40.8409 18.6997 40.786 18.7781L38.8956 21.4753C39.0145 21.6337 39.1239 21.7989 39.2231 21.9703L39.2432 22.0077L39.293 22.1067L42.2415 20.3368C42.4074 20.2372 42.6062 20.2075 42.7941 20.2542C42.982 20.3009 43.1436 20.4203 43.2434 20.586C43.3431 20.7517 43.3729 20.9502 43.3261 21.1378C43.2793 21.3254 43.1598 21.4868 42.9939 21.5864L39.9499 23.4135L40.2558 24.0224L43.689 23.6005C43.7847 23.5876 43.8821 23.5938 43.9754 23.6187C44.0687 23.6437 44.1561 23.6869 44.2326 23.7458C44.3091 23.8047 44.3731 23.8782 44.4209 23.962C44.4688 24.0458 44.4995 24.1383 44.5113 24.234C44.5231 24.3298 44.5157 24.4269 44.4896 24.5197C44.4636 24.6126 44.4193 24.6994 44.3594 24.7751C44.2995 24.8508 44.2251 24.9138 44.1406 24.9606C44.0561 25.0073 43.9632 25.0369 43.8671 25.0476L40.9515 25.4051L44.1828 31.8326C45.4093 28.913 46.0175 25.7716 45.9691 22.6059C45.9207 19.4402 45.2168 16.3187 43.9016 13.4379L43.9027 13.4362ZM14.3883 9.85876L13.4795 10.1613C13.3191 10.2146 13.1734 10.3045 13.0539 10.4238C12.9344 10.5431 12.8444 10.6886 12.791 10.8488L12.488 11.7563C12.4855 11.7635 12.4808 11.7697 12.4746 11.7741C12.4683 11.7786 12.4609 11.781 12.4532 11.781C12.4455 11.781 12.4381 11.7786 12.4318 11.7741C12.4256 11.7697 12.4209 11.7635 12.4184 11.7563L12.1154 10.8488C12.062 10.6886 11.972 10.5431 11.8525 10.4238C11.733 10.3044 11.5873 10.2146 11.4269 10.1613L10.5181 9.85876C10.5107 9.85637 10.5043 9.85171 10.4998 9.84546C10.4952 9.83921 10.4928 9.83169 10.4928 9.82397C10.4928 9.81624 10.4952 9.80872 10.4998 9.80247C10.5043 9.79622 10.5107 9.79156 10.5181 9.78918L11.4269 9.48668C11.5873 9.43344 11.7331 9.34358 11.8526 9.22423C11.9721 9.10488 12.0621 8.95934 12.1154 8.79918L12.4184 7.89167C12.4208 7.88433 12.4254 7.87793 12.4317 7.87339C12.4379 7.86884 12.4455 7.8664 12.4532 7.8664C12.4609 7.8664 12.4685 7.86884 12.4747 7.87339C12.481 7.87793 12.4857 7.88433 12.488 7.89167L12.791 8.79918C12.8443 8.95934 12.9343 9.10488 13.0538 9.22423C13.1733 9.34358 13.3191 9.43344 13.4795 9.48668L14.3883 9.78918C14.3955 9.7917 14.4018 9.7964 14.4062 9.80263C14.4107 9.80886 14.413 9.81632 14.413 9.82397C14.413 9.83161 14.4107 9.83907 14.4062 9.8453C14.4018 9.85154 14.3955 9.85624 14.3883 9.85876Z" fill="#F4AD3B"/>
</svg>
