<svg width="150" height="150" viewBox="0 0 150 150" fill="none" xmlns="http://www.w3.org/2000/svg">
<path d="M135.265 119.594C121.588 138.029 99.6651 149.999 74.9985 149.999C50.552 149.999 28.8003 138.241 15.0999 120.084H52.7634C53.6923 120.084 54.6071 120.312 55.427 120.749C56.2469 121.186 56.9467 121.818 57.4647 122.589L57.5087 122.655L71.3467 140.557L71.3961 140.618C74.5411 144.416 77.6016 145.3 79.769 145.3C79.9532 145.3 80.1284 145.293 80.301 145.282C83.8171 145.044 87.0708 142.573 89.9713 137.937L100.353 123.043C101.095 121.979 102.083 121.109 103.234 120.508C104.384 119.908 105.663 119.594 106.961 119.594H135.265Z" fill="#046858"/>
<path d="M123.821 74.1083C122.868 72.4809 121.506 71.1306 119.871 70.1908C118.236 69.251 116.384 68.7544 114.498 68.75C112.612 68.7457 110.757 69.2337 109.118 70.166C107.479 71.0982 106.111 72.4422 105.15 74.0652L89.6526 108.69C87.7872 112.727 84.759 118.119 80.0235 118.332C79.9256 118.336 79.8267 118.338 79.7288 118.338C75.9117 118.338 72.2877 115.007 68.0231 107.599L67.2486 106.274C67.2027 106.274 67.1587 106.278 67.1093 106.278H6.83594C8.27611 109.404 9.92948 112.426 11.7844 115.324H52.7645C54.4609 115.323 56.1319 115.736 57.6322 116.528C59.1325 117.32 60.4166 118.466 61.3728 119.867L75.0967 137.615C76.2648 139.025 78.062 140.663 79.9867 140.533C81.8737 140.406 83.9404 138.62 85.9657 135.37L86.034 135.267L96.4494 120.324C97.6306 118.63 99.2032 117.247 101.034 116.291C102.864 115.336 104.898 114.836 106.963 114.834H138.522C139.612 113.102 140.632 111.324 141.582 109.499L123.821 74.1083ZM115.161 102.593C113.578 102.593 112.031 102.123 110.715 101.244C109.398 100.364 108.373 99.1143 107.767 97.6519C107.161 96.1894 107.003 94.5802 107.311 93.0277C107.62 91.4752 108.383 90.0491 109.502 88.9298C110.621 87.8105 112.047 87.0483 113.6 86.7395C115.152 86.4306 116.762 86.5891 118.224 87.1949C119.686 87.8006 120.936 88.8264 121.816 90.1426C122.695 91.4588 123.165 93.0062 123.165 94.5891C123.165 95.6405 122.958 96.6815 122.555 97.6528C122.153 98.6242 121.563 99.5067 120.82 100.25C120.076 100.993 119.193 101.583 118.222 101.985C117.25 102.387 116.209 102.593 115.158 102.593H115.161Z" fill="#046858"/>
<path d="M88.4802 99.6481L85.3262 106.701C82.5047 112.8 80.5314 113.534 79.8125 113.566C78.7747 113.613 76.398 112.588 72.1513 105.209L69.1735 100.114L61.1672 86.3028C62.3344 85.5431 63.6436 85.0281 65.0156 84.7893C66.3876 84.5504 67.7939 84.5924 69.1491 84.9129C70.5044 85.2334 71.7805 85.8257 72.9001 86.6538C74.0198 87.4819 74.9597 88.5287 75.663 89.7307L76.3557 90.9222H76.4357C78.0073 93.2234 79.8808 95.1994 81.9071 96.6856C84.0008 98.2248 86.2041 99.215 88.4802 99.6481Z" fill="#046858"/>
<path d="M141.085 39.5608C136.988 40.6462 133.025 40.7181 128.167 39.8303C120.306 38.3899 113.286 34.0157 108.529 27.5937C103.772 21.1717 101.633 13.1818 102.546 5.24219C119.069 11.7873 132.73 24.0427 141.085 39.5608Z" fill="#046858"/>
<path d="M143.245 43.9026C140.361 44.7663 137.367 45.2037 134.357 45.201C132.118 45.201 129.797 44.9701 127.308 44.5145C118.066 42.8284 109.84 37.6192 104.364 29.9852C98.8882 22.3512 96.591 12.8892 97.9567 3.59425C90.5384 1.20639 82.7923 -0.00634184 74.9991 2.49387e-05C33.6443 2.49387e-05 3.71749e-05 33.6447 3.71749e-05 74.9989C-0.00900171 84.0551 1.63035 93.0373 4.83794 101.506H64.4634L55.0347 85.3719L55.0868 85.3216L36.1971 52.7363C35.7589 51.9613 35.122 51.3171 34.3521 50.8699C33.5821 50.4228 32.7069 50.189 31.8166 50.1925H31.8076C30.9201 50.1874 30.0472 50.4182 29.2782 50.8614C28.5093 51.3046 27.872 51.9442 27.4316 52.7147L12.4821 78.5123C11.9878 79.3651 11.7269 80.333 11.7255 81.3187C11.7241 82.3043 11.9823 83.273 12.4742 84.1272C12.966 84.9814 13.6742 85.691 14.5273 86.1846C15.3805 86.6782 16.3487 86.9384 17.3343 86.939H40.4114C40.8479 86.9389 41.2768 86.8247 41.6556 86.6077C42.0343 86.3906 42.3497 86.0784 42.5705 85.7019C42.7913 85.3253 42.9098 84.8976 42.9142 84.4611C42.9187 84.0246 42.8089 83.5946 42.5958 83.2136L32.5525 65.2604C32.4842 65.1379 32.3842 65.036 32.263 64.9653C32.1418 64.8946 32.0039 64.8578 31.8636 64.8586C31.7233 64.8594 31.5858 64.8979 31.4655 64.97C31.3452 65.0421 31.2464 65.1452 31.1795 65.2685L24.6927 77.1959C24.6309 77.3098 24.5997 77.4378 24.6023 77.5673C24.6048 77.6968 24.641 77.8235 24.7072 77.9348C24.7734 78.0462 24.8675 78.1384 24.9801 78.2025C25.0927 78.2665 25.22 78.3002 25.3496 78.3003H31.8292C32.4494 78.3173 33.0385 78.5756 33.4711 79.0203C33.9038 79.465 34.1458 80.061 34.1458 80.6814C34.1458 81.3019 33.9038 81.8978 33.4711 82.3425C33.0385 82.7872 32.4494 83.0456 31.8292 83.0626H25.3496C24.3939 83.0629 23.4546 82.8146 22.6239 82.3422C21.7931 81.8698 21.0995 81.1895 20.6111 80.3681C20.1227 79.5467 19.8563 78.6123 19.8381 77.6568C19.8199 76.7014 20.0505 75.7575 20.5072 74.9181L26.994 62.9907C27.468 62.1188 28.1672 61.3899 29.0188 60.8802C29.8703 60.3706 30.843 60.0986 31.8355 60.0928H31.8687C32.8553 60.0929 33.824 60.356 34.675 60.8551C35.526 61.3542 36.2286 62.0712 36.7102 62.9322L46.7544 80.8863C47.373 81.9924 47.6916 83.241 47.6787 84.5082C47.6657 85.7755 47.3216 87.0173 46.6804 88.1105C46.0393 89.2036 45.1234 90.1102 44.0237 90.7401C42.924 91.37 41.6787 91.7014 40.4114 91.7014H17.3379C15.515 91.7013 13.7241 91.2211 12.1458 90.3089C10.5674 89.3968 9.25722 88.0849 8.34708 86.5054C7.43693 84.9259 6.95897 83.1345 6.96129 81.3116C6.96362 79.4886 7.44615 77.6984 8.36033 76.1213L23.3098 50.3255C24.1651 48.8293 25.4027 47.5873 26.8959 46.7268C28.3891 45.8663 30.0842 45.4181 31.8076 45.4284H31.8247C33.5509 45.421 35.248 45.8733 36.7416 46.7388C38.2352 47.6044 39.4715 48.8519 40.3233 50.3534L58.7683 82.1731C61.187 80.6554 63.9874 79.8569 66.8428 79.8709H66.8868V63.8497L56.5183 55.3385C56.0297 54.9376 55.7205 54.359 55.6585 53.73C55.5966 53.101 55.7871 52.4732 56.188 51.9847C56.589 51.4961 57.1676 51.1869 57.7966 51.125C58.4256 51.0631 59.0534 51.2535 59.5419 51.6545L66.8868 57.6847V49.4179L56.4266 39.8932C55.9594 39.468 55.6802 38.8745 55.6506 38.2435C55.6209 37.6124 55.8432 36.9954 56.2684 36.5282C56.6937 36.061 57.2872 35.7818 57.9183 35.7522C58.5494 35.7225 59.1664 35.9447 59.6336 36.37L66.8868 42.9735V34.9943L56.3457 24.4587C56.1222 24.2381 55.9444 23.9754 55.8228 23.6857C55.7012 23.3961 55.638 23.0853 55.637 22.7712C55.636 22.457 55.6971 22.1458 55.8168 21.8554C55.9365 21.565 56.1126 21.3011 56.3347 21.079C56.5568 20.8569 56.8207 20.6809 57.1111 20.5612C57.4015 20.4414 57.7127 20.3803 58.0269 20.3813C58.341 20.3823 58.6518 20.4455 58.9415 20.5671C59.2311 20.6888 59.4938 20.8665 59.7145 21.0901L66.8868 28.2623V12.9995C66.8781 12.6813 66.9332 12.3645 67.049 12.068C67.1647 11.7714 67.3387 11.5011 67.5607 11.2729C67.7826 11.0448 68.0481 10.8634 68.3414 10.7396C68.6346 10.6158 68.9497 10.552 69.2681 10.552C69.5864 10.552 69.9015 10.6158 70.1947 10.7396C70.488 10.8634 70.7534 11.0448 70.9754 11.2729C71.1974 11.5011 71.3714 11.7714 71.4871 12.068C71.6029 12.3645 71.658 12.6813 71.6493 12.9995V28.3899L78.9492 21.0901C79.397 20.6482 80.0013 20.4013 80.6304 20.4033C81.2594 20.4054 81.8622 20.6562 82.307 21.101C82.7518 21.5459 83.0026 22.1486 83.0047 22.7776C83.0067 23.4067 82.7599 24.011 82.318 24.4587L71.6493 35.1273V42.9088L78.9852 35.8812C79.2111 35.6648 79.4774 35.495 79.769 35.3815C80.0605 35.268 80.3715 35.2131 80.6843 35.2198C80.9971 35.2265 81.3055 35.2947 81.5919 35.4206C81.8783 35.5465 82.1371 35.7276 82.3535 35.9535C82.5699 36.1795 82.7397 36.4457 82.8532 36.7373C82.9667 37.0288 83.0216 37.3399 83.0149 37.6526C83.0082 37.9654 82.9399 38.2738 82.814 38.5602C82.6881 38.8466 82.507 39.1054 82.2811 39.3218L71.6493 49.506V57.4259L79.0247 50.6714C79.4907 50.2448 80.1072 50.0207 80.7384 50.0485C81.3697 50.0763 81.9641 50.3537 82.3908 50.8197C82.8175 51.2857 83.0416 51.9022 83.0138 52.5334C82.9859 53.1647 82.7085 53.759 82.2425 54.1857L71.6493 63.8856V80.6778C74.6174 81.6907 77.194 83.6074 79.0175 86.159H79.0553L79.4866 86.859C79.5369 86.939 79.5863 87.0199 79.6357 87.1007L79.7571 87.2975C80.8434 89.0722 84.7432 94.7232 90.5084 95.1149L95.6698 83.582L87.0534 82.8308C86.7418 82.8036 86.4386 82.7153 86.161 82.5709C85.8835 82.4265 85.6372 82.2289 85.436 81.9893C85.2349 81.7497 85.0829 81.4728 84.9888 81.1745C84.8947 80.8762 84.8602 80.5622 84.8874 80.2506C84.9146 79.939 85.0029 79.6357 85.1473 79.3582C85.2917 79.0807 85.4894 78.8344 85.729 78.6332C85.9686 78.4321 86.2454 78.2801 86.5438 78.186C86.8421 78.0918 87.156 78.0574 87.4677 78.0846L97.7302 78.9832L98.8085 76.584L89.5011 71.4227C88.951 71.1153 88.5451 70.6024 88.3723 69.9963C88.1996 69.3902 88.274 68.7404 88.5794 68.1891C88.8848 67.6378 89.3962 67.23 90.0016 67.055C90.607 66.8799 91.2571 66.9519 91.8096 67.2552L100.758 72.2116L100.904 71.8837L100.965 71.7777C101.357 71.0998 101.798 70.4514 102.284 69.8376L96.377 62.0023C96.0109 61.4969 95.8576 60.868 95.9502 60.2508C96.0428 59.6337 96.3738 59.0774 96.872 58.7017C97.3703 58.3259 97.9961 58.1606 98.6149 58.2413C99.2337 58.322 99.7963 58.6422 100.182 59.1331L105.8 66.5912C106.666 66.0115 107.59 65.5219 108.555 65.1301L106.489 56.1949C106.418 55.8901 106.408 55.5744 106.46 55.2658C106.512 54.9573 106.623 54.6619 106.789 54.3966C106.955 54.1313 107.171 53.9012 107.426 53.7194C107.68 53.5377 107.968 53.4079 108.273 53.3375C108.578 53.267 108.894 53.2573 109.202 53.3089C109.511 53.3604 109.806 53.4722 110.071 53.638C110.337 53.8037 110.567 54.02 110.749 54.2746C110.93 54.5293 111.06 54.8172 111.131 55.122L113.192 64.0384C113.615 64.0051 114.042 63.9854 114.473 63.9854C115.092 63.9862 115.71 64.0225 116.325 64.0941L118.091 54.9989C118.15 54.6918 118.27 54.3994 118.443 54.1385C118.615 53.8776 118.837 53.6533 119.097 53.4783C119.356 53.3032 119.647 53.181 119.954 53.1185C120.26 53.0561 120.576 53.0546 120.883 53.1142C121.19 53.1738 121.483 53.2933 121.744 53.4658C122.005 53.6384 122.229 53.8607 122.404 54.12C122.579 54.3793 122.701 54.6705 122.764 54.977C122.826 55.2835 122.828 55.5993 122.768 55.9064L120.932 65.3611C121.815 65.7604 122.657 66.2433 123.448 66.8032L129.172 58.6264C129.351 58.3701 129.58 58.1516 129.843 57.9835C130.107 57.8153 130.401 57.7008 130.709 57.6464C131.018 57.592 131.333 57.5988 131.639 57.6664C131.944 57.734 132.233 57.8611 132.49 58.0405C132.746 58.2199 132.964 58.4479 133.132 58.7117C133.301 58.9755 133.415 59.2699 133.47 59.5779C133.524 59.886 133.517 60.2017 133.45 60.5071C133.382 60.8126 133.255 61.1017 133.075 61.358L126.911 70.1647C127.299 70.6821 127.656 71.2222 127.98 71.7821L128.045 71.9043L128.208 72.2278L137.828 66.4447C138.369 66.1192 139.018 66.022 139.631 66.1747C140.244 66.3274 140.771 66.7174 141.097 67.2588C141.423 67.8003 141.52 68.4488 141.367 69.0619C141.214 69.6749 140.824 70.2022 140.283 70.5278L130.351 76.4978L131.349 78.4872L142.551 77.1088C142.863 77.0666 143.181 77.0869 143.485 77.1683C143.79 77.2498 144.075 77.3909 144.325 77.5834C144.574 77.776 144.783 78.0161 144.939 78.29C145.095 78.5638 145.195 78.8659 145.234 79.1787C145.272 79.4916 145.248 79.8089 145.163 80.1124C145.078 80.4159 144.934 80.6995 144.738 80.9468C144.543 81.194 144.3 81.4 144.024 81.5528C143.749 81.7056 143.446 81.8022 143.132 81.837L133.619 83.0051L144.162 104.007C148.164 94.4673 150.148 84.2027 149.99 73.8589C149.832 63.515 147.536 53.3157 143.245 43.9026ZM46.9458 32.2097L43.9805 33.1981C43.4573 33.3724 42.9819 33.6661 42.592 34.056C42.2021 34.4459 41.9084 34.9213 41.7341 35.4445L40.7457 38.4097C40.7374 38.4333 40.7221 38.4537 40.7017 38.4682C40.6813 38.4826 40.657 38.4904 40.632 38.4904C40.607 38.4904 40.5827 38.4826 40.5623 38.4682C40.5419 38.4537 40.5266 38.4333 40.5183 38.4097L39.5299 35.4445C39.3557 34.9213 39.062 34.4459 38.6721 34.056C38.2821 33.666 37.8067 33.3723 37.2835 33.1981L34.3182 32.2097C34.2942 32.2019 34.2733 32.1867 34.2584 32.1663C34.2436 32.1458 34.2356 32.1213 34.2356 32.096C34.2356 32.0708 34.2436 32.0462 34.2584 32.0258C34.2733 32.0054 34.2942 31.9901 34.3182 31.9823L37.2835 30.9939C37.8068 30.82 38.2824 30.5264 38.6724 30.1364C39.0623 29.7464 39.356 29.2709 39.5299 28.7475L40.5183 25.7823C40.5261 25.7583 40.5413 25.7374 40.5617 25.7225C40.5822 25.7077 40.6068 25.6997 40.632 25.6997C40.6572 25.6997 40.6818 25.7077 40.7023 25.7225C40.7227 25.7374 40.7379 25.7583 40.7457 25.7823L41.7341 28.7475C41.908 29.2709 42.2017 29.7464 42.5916 30.1364C42.9816 30.5264 43.4572 30.82 43.9805 30.9939L46.9458 31.9823C46.9694 31.9906 46.9898 32.006 47.0043 32.0264C47.0187 32.0467 47.0265 32.071 47.0265 32.096C47.0265 32.121 47.0187 32.1454 47.0043 32.1657C46.9898 32.1861 46.9694 32.2015 46.9458 32.2097Z" fill="#046858"/>
</svg>
