<svg xmlns="http://www.w3.org/2000/svg" width="3919" height="609" fill="none"><g clip-path="url(#a)"><path fill="url(#b)" d="M364.436 268.744c.066 2.971.368 5.905.893 8.794a58 58 0 0 0 2.238 8.529 63 63 0 0 0 3.513 8.219 70 70 0 0 0 4.719 7.868 80 80 0 0 0 5.856 7.473 92 92 0 0 0 6.925 7.036 106 106 0 0 0 7.925 6.556 120 120 0 0 0 8.856 6.034 136 136 0 0 0 9.718 5.469 151 151 0 0 0 10.51 4.862 165 165 0 0 0 11.236 4.21 179 179 0 0 0 11.891 3.519 190 190 0 0 0 12.478 2.783c4.249.8 8.585 1.47 12.995 2.004 4.41.533 8.895.93 13.444 1.183 4.548.253 9.161.362 13.824.32a120 120 0 0 0-8.919 4.283 106 106 0 0 0-8.043 4.743 93 93 0 0 0-7.148 5.154 81 81 0 0 0-6.242 5.516 71 71 0 0 0-5.319 5.831 62 62 0 0 0-4.383 6.097 55 55 0 0 0-3.432 6.314 50 50 0 0 0-2.466 6.483 46.6 46.6 0 0 0-1.485 6.602 44.6 44.6 0 0 0 .031 13.372 46 46 0 0 0 1.544 6.672 50 50 0 0 0 2.584 6.599 55 55 0 0 0 3.638 6.475 63 63 0 0 0 4.706 6.305 74 74 0 0 0 5.789 6.085 78 78 0 0 0 3.085 2.753 84 84 0 0 0 3.259 2.626 87 87 0 0 0 3.423 2.498 95 95 0 0 0 3.578 2.372 100 100 0 0 0 3.724 2.244 107 107 0 0 0 3.86 2.119 122 122 0 0 0 3.988 1.991 127 127 0 0 0 4.108 1.865 137 137 0 0 0-2.15 1.113 119 119 0 0 0-2.111 1.154 90 90 0 0 0-2.071 1.194q-.512.304-1.019.612-.507.309-1.007.624a83.318 83.318 0 0 0-3.912 2.601 73 73 0 0 0-1.88 1.368 70 70 0 0 0-1.825 1.413 74 74 0 0 0-5.881 5.222 64 64 0 0 0-4.929 5.468 55 55 0 0 0-3.986 5.67 49 49 0 0 0-3.05 5.826 44 44 0 0 0-2.122 5.939 41 41 0 0 0-1.203 6.008 40 40 0 0 0-.29 6.031q.081 3.016.613 6.012t1.51 5.947a46 46 0 0 0 2.398 5.838 51 51 0 0 0 3.279 5.685 58 58 0 0 0 4.151 5.487 65 65 0 0 0 5.017 5.245 75 75 0 0 0 5.872 4.96q3.15 2.402 6.722 4.628a99 99 0 0 0 7.563 4.253 87 87 0 0 0-5.807 1.083q-2.829.628-5.5 1.423a75 75 0 0 0-5.172 1.74 68 68 0 0 0-4.82 2.035 62 62 0 0 0-4.447 2.306 55 55 0 0 0-4.052 2.555 49 49 0 0 0-3.636 2.781 43 43 0 0 0-3.197 2.984 37 37 0 0 0-2.735 3.165 33 33 0 0 0-2.254 3.323 29 29 0 0 0-1.748 3.457 26 26 0 0 0-1.222 3.569 24.5 24.5 0 0 0-.672 3.659 24 24 0 0 0 .389 7.494 26 26 0 0 0 1.107 3.79 29 29 0 0 0 1.699 3.699 32 32 0 0 0 2.234 3.504 36 36 0 0 0 2.731 3.295 42 42 0 0 0 3.194 3.071 48 48 0 0 0 3.62 2.833 54 54 0 0 0 4.011 2.581 62 62 0 0 0 4.365 2.317 69 69 0 0 0 4.684 2.037 75 75 0 0 0 4.968 1.742 80 80 0 0 0 5.215 1.436c1.775.426 3.587.798 5.427 1.114q2.763.475 5.603.778a91.734 91.734 0 0 0 17.505.18 90 90 0 0 0 5.949-.704q-5.304.486-10.395 1.293-5.09.808-9.946 1.918c-3.234.74-6.388 1.576-9.452 2.505a130 130 0 0 0-8.914 3.054 119 119 0 0 0-8.333 3.565 107 107 0 0 0-7.707 4.04 96 96 0 0 0-7.038 4.476 85 85 0 0 0-6.324 4.876 74 74 0 0 0-5.566 5.238 65 65 0 0 0-4.764 5.561 57 57 0 0 0-3.918 5.848 50 50 0 0 0-3.028 6.097 46 46 0 0 0-2.094 6.309 43 43 0 0 0-1.115 6.483 42 42 0 0 0-.093 6.62q.214 3.34.973 6.719a46 46 0 0 0 2.031 6.623 50 50 0 0 0 3.011 6.336 56 56 0 0 0 3.931 6.022 64 64 0 0 0 4.793 5.679 73 73 0 0 0 5.596 5.309 84 84 0 0 0 6.341 4.91 96 96 0 0 0 7.027 4.484 108 108 0 0 0 7.653 4.029 119 119 0 0 0 8.221 3.546 130 130 0 0 0 8.729 3.035c2.988.924 6.051 1.757 9.179 2.497q4.695 1.11 9.571 1.928 4.875.82 9.902 1.334c3.35.342 6.745.581 10.177.711s6.898.151 10.39.059 7.012-.297 10.547-.62a31 31 0 0 0 1.085 4.677 33.6 33.6 0 0 0 1.786 4.498 37 37 0 0 0 2.447 4.297 42 42 0 0 0 3.066 4.074 48 48 0 0 0 3.648 3.832 56 56 0 0 0 4.189 3.568 63 63 0 0 0 4.692 3.284 72 72 0 0 0 5.152 2.978 80 80 0 0 0 5.574 2.651 88 88 0 0 0 5.957 2.305 95 95 0 0 0 6.298 1.937q3.23.874 6.602 1.548 3.372.673 6.865 1.138 3.492.463 7.088.707c2.395.162 4.821.248 7.27.256a115 115 0 0 0 14.756-.908q3.604-.46 7.06-1.138t6.744-1.559a95 95 0 0 0 6.395-1.953 88 88 0 0 0 6.015-2.324 80 80 0 0 0 5.6-2.669 72 72 0 0 0 5.155-2.989 63 63 0 0 0 4.674-3.282 56 56 0 0 0 4.162-3.552 49 49 0 0 0 3.618-3.795 43 43 0 0 0 3.04-4.013 37 37 0 0 0 2.429-4.205 33.6 33.6 0 0 0 1.787-4.374 31 31 0 0 0 1.11-4.515q.382-2.291.401-4.633a30 30 0 0 0-.34-4.723c4.418.121 8.794.099 13.116-.061s8.591-.458 12.794-.887 8.341-.988 12.403-1.672a184 184 0 0 0 11.946-2.419c3.899-.927 7.71-1.971 11.422-3.127a161 161 0 0 0 10.831-3.795 148 148 0 0 0 10.172-4.424 133 133 0 0 0 9.446-5.014 118 118 0 0 0 8.655-5.565 105 105 0 0 0 7.794-6.075 91 91 0 0 0 6.866-6.548 79 79 0 0 0 5.873-6.98 69 69 0 0 0 4.811-7.375 61.5 61.5 0 0 0 3.683-7.728 56 56 0 0 0 2.488-8.044 53.7 53.7 0 0 0 1.334-10.787q.026-1.23-.007-2.452a52 52 0 0 0-.696-7.252 53 53 0 0 0-1.011-4.738 57.545 57.545 0 0 0-3.278-9.211 62 62 0 0 0-2.241-4.456 66.904 66.904 0 0 0-2.624-4.344 73 73 0 0 0-1.452-2.128q1.495-.619 2.941-1.282 1.446-.664 2.841-1.371a76 76 0 0 0 2.735-1.459q1.341-.75 2.624-1.543a67 67 0 0 0 2.507-1.626 64 64 0 0 0 2.384-1.705 57 57 0 0 0 4.377-3.641 50 50 0 0 0 1.982-1.931 48 48 0 0 0 1.835-2.002 43 43 0 0 0 1.685-2.069 41 41 0 0 0 1.527-2.136q.723-1.083 1.365-2.199.64-1.116 1.195-2.26.555-1.146 1.021-2.319.466-1.175.84-2.375a45 45 0 0 0 1.608 6.758 48.5 48.5 0 0 0 2.617 6.495 54 54 0 0 0 3.571 6.203 61 61 0 0 0 4.467 5.88 70 70 0 0 0 5.305 5.527 80 80 0 0 0 6.085 5.144 92 92 0 0 0 6.808 4.731 104 104 0 0 0 7.473 4.288 116 116 0 0 0 8.08 3.815 127 127 0 0 0 8.629 3.312 138 138 0 0 0 9.122 2.779c3.115.834 6.304 1.574 9.555 2.216 3.251.641 6.565 1.184 9.933 1.622 3.366.439 6.787.773 10.251 1a165 165 0 0 0 31.836-1.016q5.207-.678 10.196-1.668c3.325-.659 6.573-1.42 9.735-2.275 3.17-.855 6.24-1.806 9.23-2.846 2.99-1.039 5.88-2.168 8.68-3.379q4.185-1.82 8.07-3.877c2.59-1.371 5.06-2.818 7.43-4.337a93 93 0 0 0 6.73-4.761 81 81 0 0 0 5.99-5.147 70 70 0 0 0 5.19-5.498 61 61 0 0 0 4.37-5.811 54 54 0 0 0 3.47-6.088 48 48 0 0 0 2.55-6.328 45 45 0 0 0 1.57-6.531c.35-2.207.54-4.441.54-6.698.01-2.255-.17-4.534-.53-6.826.06-.045.12-.089.19-.134l.18-.135.18-.135.18-.136c.06-.045.11-.091.17-.137l.18-.138c.06-.046.11-.092.17-.137s.11-.093.17-.139.12-.092.17-.138c.06-.047.12-.092.17-.138.06-.047.12-.093.17-.139.06-.046.12-.093.17-.139.06-.045.12-.092.17-.138.06-.046.12-.092.17-.138l.18-.138c.05-.046.11-.092.17-.137l.29-.012.29-.011.29-.012.29-.011.29-.012.29-.012.29-.012.29-.013.29-.013.3-.014.29-.014.29-.014.29-.015.29-.016.29-.018.29-.017c4.37-.274 8.66-.686 12.87-1.228 4.2-.541 8.33-1.213 12.36-2.008s7.97-1.712 11.81-2.745a167 167 0 0 0 11.2-3.437c3.62-1.256 7.13-2.621 10.52-4.086s6.66-3.03 9.8-4.689a125 125 0 0 0 9.02-5.248c2.87-1.837 5.59-3.76 8.17-5.762a97 97 0 0 0 7.28-6.231 85 85 0 0 0 6.32-6.658 74 74 0 0 0 5.3-7.038 65 65 0 0 0 4.24-7.375 59 59 0 0 0 3.1-7.667c.85-2.599 1.49-5.24 1.93-7.915.43-2.674.66-5.383.67-8.117a51.6 51.6 0 0 0-.62-8.276q.945 1.083 2.01 2.1 1.05 1.016 2.22 1.963c.77.632 1.58 1.239 2.41 1.824q1.26.877 2.61 1.682c.89.537 1.82 1.05 2.77 1.538s1.93.952 2.93 1.391q1.5.659 3.06 1.241a64 64 0 0 0 6.49 2.024c1.12.285 2.25.544 3.4.776a73.102 73.102 0 0 0 7.01 1.069 76 76 0 0 0 10.84.355 77 77 0 0 0 3.64-.225 80 80 0 0 0 2.39 2.773c.82.916 1.67 1.823 2.54 2.721a99 99 0 0 0 5.57 5.272c.98.859 1.99 1.707 3.02 2.545a100 100 0 0 0 3.18 2.479c1.08.815 2.19 1.619 3.32 2.412a127.41 127.41 0 0 0 7.1 4.607q1.86 1.113 3.78 2.188a139 139 0 0 0 7.99 4.132c1.37.66 2.78 1.306 4.21 1.937q2.13.946 4.35 1.846c1.47.601 2.97 1.185 4.49 1.754s3.07 1.121 4.63 1.657c4.18 1.429 8.42 2.705 12.71 3.833s8.63 2.108 13 2.941q6.555 1.25 13.2 2.067c4.42.545 8.86.947 13.3 1.21a214.5 214.5 0 0 0 39.6-1.33c4.31-.549 8.58-1.229 12.78-2.037q6.315-1.212 12.42-2.803c4.07-1.06 8.07-2.246 11.97-3.552s7.71-2.736 11.42-4.284c3.7-1.547 7.3-3.213 10.77-4.996 3.48-1.782 6.83-3.68 10.04-5.691s6.29-4.135 9.21-6.368q4.38-3.351 8.28-7.027a93 93 0 0 0 7.27-7.669 38 38 0 0 0 2.67 4.42q1.5 2.143 3.3 4.145a49 49 0 0 0 3.88 3.857 57 57 0 0 0 4.4 3.553 64 64 0 0 0 4.89 3.234 74 74 0 0 0 5.33 2.9c1.84.909 3.75 1.761 5.72 2.552 1.96.791 3.99 1.521 6.06 2.189 2.07.667 4.2 1.272 6.36 1.811 2.17.539 4.38 1.012 6.62 1.417a110.459 110.459 0 0 0 13.82 1.598 112 112 0 0 0 14.27-.152c2.4-.178 4.8-.434 7.19-.769 2.4-.336 4.79-.752 7.18-1.251a105.177 105.177 0 0 0 4.95-1.168 98 98 0 0 0 6.26-1.877c.51-.171 1.01-.346 1.51-.523a87.542 87.542 0 0 0 8.49-3.556c.44-.216.89-.436 1.32-.658.44-.222.87-.447 1.3-.675a47 47 0 0 0 3.97 2.051c.69.318 1.4.624 2.11.917a58 58 0 0 0 4.45 1.604c.77.241 1.55.468 2.33.682.79.213 1.59.413 2.39.598a67.113 67.113 0 0 0 7.49 1.273 70.4 70.4 0 0 0 15.93-.03 51 51 0 0 0-1.49 7.749 49 49 0 0 0-.24 7.658c.12 2.532.43 5.042.94 7.521s1.21 4.929 2.09 7.341a56 56 0 0 0 3.17 7.117 63 63 0 0 0 4.22 6.848 71 71 0 0 0 5.21 6.535 82 82 0 0 0 6.16 6.178 93 93 0 0 0 7.05 5.775c2.49 1.853 5.13 3.633 7.9 5.33a120 120 0 0 0 8.7 4.839c3.02 1.526 6.17 2.964 9.44 4.304s6.65 2.585 10.15 3.725c3.49 1.14 7.09 2.177 10.79 3.102 3.71.925 7.51 1.739 11.4 2.434 3.9.695 7.88 1.272 11.95 1.722 4.07.451 8.13.764 12.17.946a185.622 185.622 0 0 0 23.82-.443c3.89-.323 7.74-.767 11.52-1.328 3.79-.56 7.52-1.236 11.18-2.022 3.65-.787 7.24-1.684 10.74-2.687a155 155 0 0 0 10.26-3.321c3.33-1.209 6.57-2.518 9.7-3.923q4.695-2.107 9.06-4.493 4.365-2.385 8.37-5.032c2.66-1.764 5.2-3.613 7.59-5.541a87 87 0 0 0 6.76-6.018 76 76 0 0 0 5.85-6.463 67 67 0 0 0 4.87-6.879 60 60 0 0 0 3.82-7.262 55 55 0 0 0 2.7-7.614 49 49 0 0 0 3.04 6.302 54 54 0 0 0 3.94 5.959 61 61 0 0 0 4.78 5.595 72 72 0 0 0 5.57 5.206 85 85 0 0 0 6.28 4.794 94 94 0 0 0 6.95 4.358c2.42 1.378 4.94 2.678 7.55 3.899 2.6 1.221 5.3 2.361 8.08 3.417a129 129 0 0 0 8.55 2.91q4.395 1.326 8.97 2.381c3.05.703 6.16 1.313 9.32 1.828s6.36.933 9.61 1.252a157.187 157.187 0 0 0 29.94.062 155 155 0 0 0 15.46-2.241c1.75-.346 3.47-.72 5.17-1.122q2.55-.602 5.01-1.285 2.475-.682 4.86-1.441c1.59-.506 3.16-1.037 4.69-1.593a118 118 0 0 0 4.53-1.737c1.47-.602 2.92-1.228 4.34-1.876q2.13-.972 4.17-2.008a98 98 0 0 0 3.98-2.136c1.3-.732 2.57-1.485 3.8-2.256a89 89 0 0 0 3.59-2.372 83 83 0 0 0 6.59-5.063 76 76 0 0 0 2.98-2.679q1.44-1.364 2.76-2.771c.89-.938 1.73-1.89 2.54-2.856.96.652 1.96 1.272 2.99 1.861 1.03.588 2.1 1.143 3.19 1.667q1.65.784 3.39 1.47c1.15.457 2.34.881 3.54 1.271q1.815.585 3.69 1.068t3.81.862a72 72 0 0 0 7.88 1.092 74 74 0 0 0 12.12.01c1.35-.11 2.7-.257 4.04-.443a69 69 0 0 0 7.92-1.577q1.935-.51 3.84-1.14 1.89-.63 3.72-1.378c0 1.295.09 2.574.29 3.835q.285 1.893.87 3.727c.38 1.222.86 2.422 1.43 3.598a30 30 0 0 0 1.95 3.451 35 35 0 0 0 2.46 3.285q1.35 1.598 2.94 3.099a43 43 0 0 0 3.37 2.896q1.785 1.394 3.78 2.673 1.995 1.278 4.17 2.431a63 63 0 0 0 4.52 2.17c1.56.678 3.17 1.309 4.84 1.891a76 76 0 0 0 5.14 1.592q2.64.718 5.4 1.274c1.84.37 3.72.684 5.63.938q2.88.383 5.85.583a94 94 0 0 0 12.81-.022 89 89 0 0 0 9.76-1.233 83 83 0 0 0 6.15-1.372 75.974 75.974 0 0 0 8.59-2.816c.91-.361 1.8-.737 2.68-1.127.87-.391 1.73-.796 2.57-1.216a58 58 0 0 0 7.03-4.144c.72-.499 1.42-1.012 2.09-1.535 1.02.862 2.08 1.693 3.19 2.494 1.11.8 2.26 1.569 3.46 2.305a63 63 0 0 0 3.72 2.109c1.28.67 2.6 1.306 3.95 1.907q2.04.903 4.17 1.699t4.35 1.483a87 87 0 0 0 9.19 2.293 95 95 0 0 0 14.65 1.659c1.66.06 3.34.078 5.02.051a96 96 0 0 0 5.05-.21 95 95 0 0 0 10.13-1.232 91 91 0 0 0 5.02-1.035c1.11-.262 2.21-.542 3.28-.841 1.08-.298 2.13-.613 3.17-.945a73.852 73.852 0 0 0 8.77-3.417c.91-.425 1.81-.866 2.68-1.319.86-.454 1.71-.921 2.54-1.401.82-.481 1.63-.974 2.41-1.48s1.53-1.024 2.27-1.553a57 57 0 0 0 2.13-1.624 47 47 0 0 0 1.99-1.689c.64-.573 1.25-1.157 1.84-1.75s1.16-1.195 1.7-1.806c.54-.612 1.05-1.232 1.54-1.86s.95-1.264 1.39-1.907q.66-.966 1.23-1.952c.28.361.57.717.88 1.071.3.354.61.704.94 1.05.32.346.66.688 1 1.027q.525.507 1.08 1.004c.36.33.74.657 1.13.978a38 38 0 0 0 3.77 2.771 46 46 0 0 0 4.32 2.492 51 51 0 0 0 3.18 1.488 57.175 57.175 0 0 0 3.42 1.336 65.203 65.203 0 0 0 6.33 1.892c1.53.375 3.08.697 4.64.968 1.55.27 3.12.489 4.69.657a75 75 0 0 0 9.43.411 75 75 0 0 0 9.27-.747c1.52-.218 3.02-.481 4.49-.791 1.48-.309 2.93-.662 4.36-1.059 1.42-.398 2.82-.839 4.18-1.323 1.36-.483 2.69-1.01 3.98-1.577a55 55 0 0 0 3.74-1.826c1.2-.649 2.36-1.338 3.47-2.067a40 40 0 0 0 3.16-2.303c1.01-.806 1.95-1.65 2.84-2.53.88-.88 1.71-1.798 2.46-2.751a48 48 0 0 0-3.13 5.831 43 43 0 0 0-2.16 5.889c-.56 1.968-.96 3.94-1.2 5.908a37.5 37.5 0 0 0-.28 5.888c.06 1.955.28 3.899.63 5.827q.54 2.894 1.5 5.729a46 46 0 0 0 2.35 5.591 49 49 0 0 0 3.17 5.413 56 56 0 0 0 3.97 5.195 64 64 0 0 0 4.73 4.94 73 73 0 0 0 5.48 4.643 81 81 0 0 0 6.19 4.309 92 92 0 0 0 6.88 3.934c2.41 1.244 4.92 2.42 7.54 3.52 2.63 1.1 5.35 2.124 8.18 3.067 2.83.942 5.77 1.803 8.79 2.574 3.03.772 6.09 1.437 9.16 1.998q4.605.841 9.24 1.373 4.635.533 9.27.766a147 147 0 0 0 18.39-.225 143 143 0 0 0 17.77-2.452c2.88-.587 5.72-1.261 8.5-2.02 2.77-.759 5.5-1.603 8.15-2.527s5.24-1.931 7.75-3.016c2.51-1.086 4.95-2.249 7.29-3.489a89 89 0 0 0 6.76-3.945 80 80 0 0 0 6.18-4.384 70 70 0 0 0 5.52-4.806 61 61 0 0 0 4.82-5.211 54 54 0 0 0 4.04-5.6c.3.13.61.258.91.383a60 60 0 0 0 2.8 1.045c.32.108.63.213.95.315a71 71 0 0 0 1.92.578c.33.09.65.178.98.263.32.086.65.168.98.248a58.312 58.312 0 0 0 3.97.823 58 58 0 0 0 2.01.313c.33.046.67.091 1.01.132a57.875 57.875 0 0 0-.54 10.535c.08 1.755.23 3.508.47 5.257s.55 3.492.95 5.229q.6 2.608 1.44 5.188.84 2.582 1.92 5.131a67 67 0 0 0 2.4 5.058 71 71 0 0 0 2.88 4.972 77 77 0 0 0 3.36 4.869 83 83 0 0 0 3.83 4.753 89 89 0 0 0 4.3 4.62c1.51 1.517 3.11 3.009 4.77 4.474 1.67 1.466 3.42 2.904 5.24 4.313 1.83 1.409 3.73 2.788 5.71 4.135s4.04 2.662 6.17 3.944q3.195 1.922 6.63 3.737c3.58 1.892 7.26 3.649 11.03 5.274a170 170 0 0 0 11.57 4.478 181 181 0 0 0 12.03 3.685c4.07 1.097 8.2 2.063 12.38 2.898 4.17.836 8.4 1.541 12.65 2.116 4.25.577 8.53 1.023 12.83 1.341s8.61.507 12.92.569a218 218 0 0 0 25.76-1.152c4.25-.445 8.48-1.016 12.65-1.711 4.18-.696 8.32-1.517 12.39-2.462q6.12-1.417 12.03-3.205c3.94-1.192 7.81-2.507 11.58-3.944 3.78-1.437 7.47-2.997 11.05-4.677 3.58-1.681 7.06-3.484 10.41-5.406 3.36-1.923 6.6-3.966 9.7-6.129a45 45 0 0 0-3.2 2.862 38 38 0 0 0-2.73 2.998 33 33 0 0 0-2.27 3.113 31 31 0 0 0-1.79 3.205 29 29 0 0 0-1.33 3.277 27 27 0 0 0-.86 3.326q-.3 1.674-.39 3.355c-.05 1.12-.02 2.242.08 3.361a25.7 25.7 0 0 0 1.56 6.656c.42 1.095.91 2.18 1.49 3.252q.855 1.609 1.95 3.172a34 34 0 0 0 2.42 3.072 39 39 0 0 0 2.88 2.948q1.56 1.442 3.36 2.805a50 50 0 0 0 3.82 2.639q2.1 1.32 4.35 2.481c1.49.773 3.04 1.492 4.62 2.158a71 71 0 0 0 4.85 1.836c1.65.558 3.34 1.063 5.05 1.514s3.45.848 5.21 1.192 3.54.634 5.33.871 3.6.42 5.41.55a93 93 0 0 0 10.92.137c1.82-.084 3.63-.222 5.44-.413a88 88 0 0 0 10.63-1.784c1.73-.404 3.44-.861 5.12-1.371a78 78 0 0 0 4.94-1.691 70 70 0 0 0 4.72-2.009 65 65 0 0 0 4.47-2.328c-.01.011-.01.023-.01.034-.01.012-.01.023-.01.035-.01.011-.01.023-.02.034 0 .012 0 .023-.01.035 0 .011 0 .023-.01.034v.035c-.01.012-.01.023-.01.035-.01.012-.01.023-.01.035s-.01.024-.01.035v.035c0 .012-.01.024-.01.036v.143c0 .012 0 .025.01.037.01.064.02.128.04.19.02.063.05.123.07.183.03.06.07.118.1.175.04.056.08.112.13.165s.09.106.15.157c.05.05.11.098.17.144.06.047.12.091.19.133q.105.064.21.121c.07.039.15.074.23.108q.12.05.24.094c.08.028.17.055.26.078a4.093 4.093 0 0 0 .83.137 4 4 0 0 0 .6.001c-2.19 1.926-4.2 3.9-6.04 5.913a66 66 0 0 0-4.97 6.152 55 55 0 0 0-3.93 6.343 50 50 0 0 0-2.89 6.485 47 47 0 0 0-1.86 6.58 44 44 0 0 0-.85 6.625q-.18 3.318.15 6.623t1.14 6.572a50 50 0 0 0 2.12 6.473q1.305 3.206 3.09 6.326a60 60 0 0 0 4.04 6.129 66 66 0 0 0 4.98 5.885 74 74 0 0 0 5.91 5.592 88 88 0 0 0 6.82 5.251q3.645 2.535 7.74 4.862c2.72 1.551 5.6 3.028 8.62 4.424q4.29 1.977 8.76 3.651c2.97 1.116 6.01 2.131 9.09 3.046q4.62 1.374 9.36 2.449c3.16.717 6.36 1.335 9.58 1.857q4.83.781 9.72 1.272c3.26.328 6.53.559 9.8.695a171 171 0 0 0 19.61-.319c3.24-.241 6.47-.575 9.67-1.001 3.19-.426 6.36-.944 9.49-1.552a153 153 0 0 0 9.27-2.098c3.04-.79 6.03-1.669 8.96-2.637s5.8-2.025 8.59-3.168c2.8-1.144 5.53-2.377 8.17-3.695q3.975-1.977 7.68-4.213a97 97 0 0 0 7.12-4.726c-1.03.95-1.98 1.923-2.86 2.914s-1.68 2.003-2.41 3.03a32 32 0 0 0-1.96 3.125 29 29 0 0 0-1.51 3.201 27 27 0 0 0-1.07 3.256 25 25 0 0 0-.62 3.293 24.4 24.4 0 0 0-.18 3.309q.03 1.656.27 3.306.255 1.65.72 3.282c.31 1.088.7 2.169 1.16 3.239.46 1.071 1 2.131 1.61 3.177.6 1.046 1.29 2.079 2.04 3.094a36 36 0 0 0 2.5 2.991c.9.978 1.88 1.935 2.93 2.87 1.06.934 2.18 1.844 3.38 2.727s2.48 1.74 3.82 2.566c1.5.919 3.06 1.779 4.66 2.579s3.25 1.542 4.94 2.224 3.43 1.305 5.19 1.869q2.655.846 5.4 1.516c1.82.446 3.68.833 5.55 1.162s3.77.598 5.67.809a94.298 94.298 0 0 0 11.53.562 94 94 0 0 0 11.49-.843q2.835-.386 5.61-.947c1.86-.374 3.69-.806 5.48-1.296a79 79 0 0 0 5.3-1.646 72 72 0 0 0 5.08-1.995 64 64 0 0 0 4.8-2.343 57 57 0 0 0 4.5-2.691c2.97-.868 5.83-1.822 8.59-2.855s5.41-2.145 7.94-3.329a98 98 0 0 0 7.28-3.763 87 87 0 0 0 6.57-4.155 76 76 0 0 0 5.86-4.507 68 68 0 0 0 5.12-4.82 59 59 0 0 0 4.34-5.092 52 52 0 0 0 3.56-5.325 46 46 0 0 0 2.75-5.516 41 41 0 0 0 1.91-5.667c.5-1.91.85-3.839 1.06-5.78.2-1.94.26-3.893.17-5.85-.1-1.958-.34-3.921-.74-5.882-.4-1.962-.95-3.921-1.67-5.872a45 45 0 0 0-2.61-5.824 51 51 0 0 0-3.6-5.734c-.29-.404-.59-.804-.89-1.202q-.45-.596-.93-1.182c-.31-.39-.64-.778-.97-1.163a41 41 0 0 0-1-1.143c-.34-.378-.68-.753-1.03-1.124-.36-.372-.71-.74-1.08-1.105-.36-.365-.73-.727-1.1-1.085-.38-.359-.75-.714-1.14-1.066q-.57-.528-1.17-1.047-.585-.519-1.2-1.027-.6-.51-1.23-1.008-.615-.5-1.26-.989-.63-.49-1.29-.97c-.43-.32-.87-.637-1.31-.95-.45-.314-.89-.624-1.35-.931-.45-.307-.9-.611-1.37-.912a168 168 0 0 0 12.28-2.865 154 154 0 0 0 7.92-2.396 152.57 152.57 0 0 0 7.66-2.783q1.875-.744 3.72-1.536a126.714 126.714 0 0 0 10.66-5.181c1.14-.623 2.27-1.263 3.37-1.918 1.11-.655 2.2-1.326 3.28-2.013 1.07-.687 2.13-1.389 3.17-2.108 1.04-.718 2.06-1.452 3.07-2.202 1-.75 1.98-1.515 2.95-2.297a88 88 0 0 0 6.96-6.264 74 74 0 0 0 5.83-6.554 66 66 0 0 0 4.7-6.79 58 58 0 0 0 3.57-6.973 52 52 0 0 0 2.47-7.105c.64-2.384 1.09-4.78 1.37-7.181.27-2.4.36-4.805.28-7.206-.09-2.4-.36-4.796-.8-7.178a52 52 0 0 0-1.87-7.096 55.4 55.4 0 0 0-2.94-6.962 59.5 59.5 0 0 0-3.98-6.776 68 68 0 0 0-5.02-6.535 78 78 0 0 0-6.05-6.242 89 89 0 0 0-7.07-5.896 103 103 0 0 0-8.08-5.498c-2.86-1.76-5.89-3.445-9.08-5.046 1.42.002 2.83-.042 4.21-.129 1.39-.087 2.75-.219 4.1-.392 1.34-.172 2.66-.387 3.95-.641 1.29-.253 2.55-.547 3.79-.877q1.845-.496 3.6-1.1a48 48 0 0 0 6.58-2.817c1.02-.533 2-1.097 2.93-1.69.94-.593 1.82-1.213 2.67-1.86a33 33 0 0 0 2.38-2.018q1.11-1.046 2.07-2.161c.63-.743 1.22-1.508 1.74-2.292.52-.785.99-1.588 1.39-2.41.41-.821.75-1.66 1.03-2.514q.42-1.281.63-2.606c.15-.882.22-1.777.23-2.683q0-1.36-.21-2.684c-.13-.883-.34-1.753-.61-2.607s-.61-1.695-1.01-2.517q-.6-1.235-1.38-2.414a23 23 0 0 0-1.72-2.298 29 29 0 0 0-2.06-2.167 34 34 0 0 0-2.36-2.024 37 37 0 0 0-2.66-1.868c-.93-.595-1.9-1.161-2.92-1.698a45 45 0 0 0-3.16-1.516 52.622 52.622 0 0 0-6.99-2.43 59 59 0 0 0-7.73-1.541 63 63 0 0 0-4.09-.404 66 66 0 0 0-4.21-.141 82 82 0 0 0 6.29-4.173 71 71 0 0 0 5.49-4.47 62 62 0 0 0 4.69-4.726 54 54 0 0 0 3.89-4.943 46 46 0 0 0 3.08-5.119q1.35-2.598 2.28-5.255a37 37 0 0 0 1.47-5.351c.36-1.795.58-3.599.67-5.406q.12-2.712-.15-5.422a37.4 37.4 0 0 0-.97-5.398 38.4 38.4 0 0 0-1.77-5.333 44 44 0 0 0-2.6-5.228c-1-1.721-2.14-3.418-3.41-5.084a56 56 0 0 0-4.24-4.898 63 63 0 0 0-5.06-4.672 74 74 0 0 0-5.88-4.408 83 83 0 0 0-7.07-4.287 91 91 0 0 0-5.02-2.527c-.85-.399-1.71-.788-2.59-1.164q-1.305-.566-2.64-1.099c-.89-.355-1.78-.7-2.69-1.033q-1.35-.5-2.73-.967a113 113 0 0 0-5.59-1.737q-1.41-.402-2.85-.771-1.425-.369-2.88-.705a138 138 0 0 0-2.91-.639q-1.47-.304-2.94-.575-1.485-.271-2.97-.509a135 135 0 0 0 4.92-2.351 122 122 0 0 0 9.24-5.165c1.47-.911 2.9-1.846 4.3-2.805a108 108 0 0 0 4.07-2.946 95 95 0 0 0 3.84-3.083 84 84 0 0 0 3.59-3.213 80 80 0 0 0 3.34-3.339 77 77 0 0 0 3.07-3.46q1.455-1.758 2.79-3.575c.88-1.21 1.72-2.438 2.5-3.685a62 62 0 0 0 2.21-3.79 60 60 0 0 0 1.9-3.89 59 59 0 0 0 1.58-3.985c.47-1.343.89-2.702 1.25-4.074s.67-2.758.91-4.159c.31-1.76.53-3.512.65-5.255s.14-3.476.07-5.198a46 46 0 0 0-.47-5.129 48 48 0 0 0-1-5.045 52 52 0 0 0-1.52-4.95 56 56 0 0 0-2.02-4.841 59 59 0 0 0-2.51-4.72q-1.365-2.328-2.97-4.585a70 70 0 0 0-3.42-4.438 75 75 0 0 0-3.86-4.277 84 84 0 0 0-4.27-4.104 99 99 0 0 0-4.68-3.918 104 104 0 0 0-5.07-3.719 110 110 0 0 0-5.43-3.507 116 116 0 0 0-5.79-3.281 128 128 0 0 0-6.13-3.045 157 157 0 0 0 17.18-.307 155 155 0 0 0 11.3-1.245q2.79-.414 5.55-.932a141 141 0 0 0 10.84-2.48 128.299 128.299 0 0 0 10.39-3.294q2.52-.925 4.98-1.952c1.63-.683 3.24-1.401 4.82-2.152q2.37-1.126 4.65-2.353a95 95 0 0 0 8.72-5.305 87 87 0 0 0 4.03-2.951 77 77 0 0 0 6.02-5.2 66 66 0 0 0 5.06-5.455 57 57 0 0 0 4.13-5.665 50 50 0 0 0 3.18-5.831 45 45 0 0 0 2.26-5.952 43 43 0 0 0 1.33-6.028q.435-3.028.42-6.06a41 41 0 0 0-.5-6.048 42 42 0 0 0-1.39-5.99 47 47 0 0 0-2.29-5.888 50 50 0 0 0-3.18-5.742 57 57 0 0 0-4.06-5.55 65 65 0 0 0-4.93-5.314 76 76 0 0 0-5.8-5.034 87 87 0 0 0-6.66-4.708 100 100 0 0 0-7.52-4.338c2.62-.676 5.16-1.428 7.61-2.251a98 98 0 0 0 7.07-2.676 90 90 0 0 0 6.53-3.067 81 81 0 0 0 5.94-3.425 72 72 0 0 0 5.35-3.748 65 65 0 0 0 4.72-4.037 55 55 0 0 0 4.08-4.292 49 49 0 0 0 3.41-4.512 43 43 0 0 0 2.72-4.699 38.5 38.5 0 0 0 2.01-4.851c.54-1.638.97-3.297 1.27-4.969q.45-2.51.51-5.054t-.27-5.103a34.5 34.5 0 0 0-1.07-5.119 37 37 0 0 0-1.9-5.1 41 41 0 0 0-2.75-5.048c-.44-.691-.9-1.372-1.37-2.043q-.72-1.008-1.5-1.986a49 49 0 0 0-1.62-1.928 51 51 0 0 0-3.56-3.677 47 47 0 0 0-1.94-1.747 56 56 0 0 0-2.04-1.685 69 69 0 0 0-2.13-1.624 86 86 0 0 0-2.23-1.559 89 89 0 0 0-2.32-1.495c-.79-.487-1.59-.964-2.41-1.429q-1.215-.698-2.49-1.363a81 81 0 0 0-2.56-1.297 100 100 0 0 0-5.34-2.387c-.92-.374-1.84-.738-2.78-1.089 1.02-.26 2.04-.531 3.04-.817a106.472 106.472 0 0 0 8.81-2.907q1.425-.542 2.82-1.12a97.522 97.522 0 0 0 5.44-2.465c.88-.435 1.75-.883 2.6-1.343.86-.46 1.7-.933 2.53-1.417s1.65-.981 2.45-1.489a73 73 0 0 0 4.63-3.195 68 68 0 0 0 4.25-3.479c.67-.603 1.33-1.218 1.97-1.844q.96-.94 1.86-1.915a51 51 0 0 0 3.91-4.755 43 43 0 0 0 3.09-4.888 40.5 40.5 0 0 0 2.27-4.986 36 36 0 0 0 1.46-5.047c.35-1.688.58-3.38.67-5.071q.15-2.537-.09-5.06a34.5 34.5 0 0 0-.86-5.012 37.6 37.6 0 0 0-1.6-4.93 42 42 0 0 0-2.33-4.809 46 46 0 0 0-3.05-4.654 50 50 0 0 0-3.75-4.462 58 58 0 0 0-4.43-4.234 65 65 0 0 0-5.11-3.969 75 75 0 0 0-5.76-3.67 86 86 0 0 0-6.4-3.333 98 98 0 0 0-7.03-2.961c.83-1.892 1.5-3.788 2.02-5.683.51-1.896.87-3.789 1.09-5.676.21-1.886.27-3.765.19-5.631a38.4 38.4 0 0 0-.68-5.553 39 39 0 0 0-1.52-5.438 43 43 0 0 0-2.32-5.288 48 48 0 0 0-3.1-5.104 54 54 0 0 0-3.84-4.884 60 60 0 0 0-4.56-4.629 70 70 0 0 0-5.23-4.337 80 80 0 0 0-5.89-4.012 89 89 0 0 0-6.51-3.651 97 97 0 0 0-7.09-3.255 109 109 0 0 0-7.65-2.822c-2.64-.865-5.37-1.653-8.18-2.355q-4.215-1.057-8.67-1.854a137.719 137.719 0 0 0-17.83-1.981 139.5 139.5 0 0 0-17.56.312c-2.88.234-5.72.557-8.53.966q-4.215.614-8.31 1.48a126 126 0 0 0-8.01 1.973c-2.61.738-5.17 1.555-7.66 2.448s-4.92 1.86-7.27 2.901a97 97 0 0 0-6.81 3.336 86 86 0 0 0-6.29 3.75 75 75 0 0 0-5.73 4.146 66 66 0 0 0-5.11 4.52 58 58 0 0 0-4.43 4.875 51 51 0 0 0-3.7 5.21 47 47 0 0 0-2.91 5.525 72 72 0 0 0-2.77-10.596 76 76 0 0 0-4.36-10.168 85 85 0 0 0-5.84-9.693 98 98 0 0 0-7.23-9.172 114 114 0 0 0-8.54-8.606 129 129 0 0 0-9.76-7.992 147 147 0 0 0-10.87-7.333c-3.8-2.329-7.77-4.54-11.9-6.626a185 185 0 0 0-12.84-5.874 203 203 0 0 0-13.68-5.075 218 218 0 0 0-14.44-4.23c-4.92-1.263-9.96-2.379-15.09-3.337a245 245 0 0 0-15.67-2.4c-5.31-.64-10.7-1.114-16.15-1.416q-8.175-.456-16.53-.386c-5.56.048-11.18.277-16.83.691-5.64.415-11.19 1.008-16.63 1.768-5.43.76-10.76 1.688-15.96 2.774s-10.27 2.33-15.21 3.722a213 213 0 0 0-14.4 4.61 195 195 0 0 0-13.51 5.44c-4.34 1.946-8.53 4.02-12.54 6.214a156 156 0 0 0-11.51 6.927 139 139 0 0 0-10.4 7.582c-3.28 2.63-6.35 5.359-9.22 8.178s-5.53 5.729-7.97 8.717a95 95 0 0 0-6.64 9.197 84 84 0 0 0-5.24 9.619c-1.5 3.27-2.76 6.6-3.76 9.981a69 69 0 0 0-2.23 10.286 67 67 0 0 0-.6 10.533c.07 3.545.43 7.122 1.08 10.719a35.4 35.4 0 0 0-1.53-5.217 39 39 0 0 0-2.3-4.997 44 44 0 0 0-3.04-4.753 51 51 0 0 0-3.71-4.488c-1.35-1.449-2.8-2.85-4.36-4.199a65 65 0 0 0-4.94-3.888 75 75 0 0 0-5.48-3.555 84 84 0 0 0-5.98-3.2 94 94 0 0 0-6.43-2.823q-3.33-1.314-6.84-2.423t-7.2-2c-2.45-.594-4.96-1.114-7.51-1.556s-5.14-.806-7.78-1.089a125 125 0 0 0-8-.6 128.168 128.168 0 0 0-23.4 1.149q-3.405.486-6.69 1.145-3.27.66-6.42 1.482c-2.09.548-4.13 1.15-6.13 1.8a99 99 0 0 0-5.82 2.103 94 94 0 0 0-5.5 2.386c-1.78.84-3.49 1.726-5.15 2.652a77 77 0 0 0-4.77 2.9c-1.53 1.006-3 2.05-4.39 3.13a63 63 0 0 0-3.98 3.345 59 59 0 0 0-3.54 3.54 49 49 0 0 0-3.09 3.716 46 46 0 0 0-2.62 3.878 40 40 0 0 0-2.12 4.02 38 38 0 0 0-1.61 4.145c-.45 1.4-.8 2.818-1.07 4.251a36 36 0 0 0-1.18-4.671 41 41 0 0 0-1.77-4.549 46 46 0 0 0-2.35-4.407 51 51 0 0 0-2.9-4.246 55 55 0 0 0-3.43-4.065 60 60 0 0 0-3.92-3.865 68 68 0 0 0-4.41-3.644 76 76 0 0 0-4.85-3.404 85 85 0 0 0-5.29-3.145 93 93 0 0 0-5.69-2.866c-1.96-.907-3.99-1.763-6.07-2.567-2.09-.804-4.24-1.555-6.44-2.25-2.2-.694-4.45-1.332-6.76-1.91-2.31-.579-4.67-1.098-7.07-1.554-2.41-.456-4.86-.85-7.36-1.176q-3.75-.492-7.62-.78a138.066 138.066 0 0 0-17.82-.177c-2.91.16-5.79.411-8.62.75q-4.26.51-8.37 1.276-4.125.766-8.07 1.777a116 116 0 0 0-7.71 2.254q-3.765 1.242-7.32 2.705c-2.36.974-4.65 2.02-6.86 3.132a88 88 0 0 0-6.36 3.535 77 77 0 0 0-5.82 3.912 69 69 0 0 0-5.21 4.265 59 59 0 0 0-4.57 4.593 52 52 0 0 0-3.88 4.897 47 47 0 0 0-3.13 5.175 42 42 0 0 0-2.33 5.429 39.6 39.6 0 0 0-1.5 5.659 39 39 0 0 0-2.59-4.93 44 44 0 0 0-3.29-4.649 51 51 0 0 0-3.95-4.35 60 60 0 0 0-4.55-4.034 67 67 0 0 0-5.11-3.699 77 77 0 0 0-5.61-3.347 87 87 0 0 0-6.07-2.978q-3.15-1.395-6.48-2.59-3.33-1.197-6.84-2.186a110 110 0 0 0-7.14-1.764q-3.645-.773-7.41-1.323c-2.5-.366-5.04-.654-7.61-.865a124 124 0 0 0-23.61.333c-2.65.293-5.31.673-7.96 1.145-1.72.307-3.42.648-5.08 1.022a108 108 0 0 0-9.61 2.619 98 98 0 0 0-4.51 1.58c-1.47.555-2.9 1.14-4.3 1.75s-2.76 1.247-4.09 1.909c-1.32.662-2.61 1.349-3.86 2.06a70 70 0 0 0-3.64 2.203 70 70 0 0 0-3.4 2.337c-1.1.8-2.15 1.621-3.16 2.462-1.01.84-1.98 1.7-2.9 2.578-.93.878-1.81 1.773-2.65 2.686-.84.912-1.63 1.841-2.38 2.785a44.44 44.44 0 0 0-3.94 5.832q-.84 1.498-1.53 3.029-.45-.603-.93-1.194c-.32-.395-.66-.786-1.01-1.172q-.51-.58-1.08-1.145c-.37-.377-.76-.75-1.15-1.118-.4-.367-.81-.731-1.24-1.088-.42-.358-.85-.711-1.3-1.058a48 48 0 0 0-1.38-1.025c-.47-.335-.96-.666-1.45-.99a44.751 44.751 0 0 0-3.12-1.87c-.54-.299-1.09-.592-1.66-.877-.56-.286-1.14-.564-1.73-.836a62 62 0 0 0-3.66-1.539c-.64-.241-1.28-.474-1.93-.7a69 69 0 0 0-6.76-1.938c-1.6-.374-3.22-.692-4.84-.956a76 76 0 0 0-4.9-.633 78 78 0 0 0-9.82-.326 76.887 76.887 0 0 0-9.61.877c-1.57.242-3.13.533-4.65.87q-2.295.506-4.5 1.149c-1.47.428-2.91.902-4.31 1.419-1.4.518-2.77 1.079-4.09 1.683q-1.995.906-3.84 1.939a48 48 0 0 0-3.56 2.186c-1.13.77-2.21 1.579-3.23 2.427a37 37 0 0 0-2.88 2.661q-1.335 1.387-2.49 2.887a75 75 0 0 0-4.91-9.158 83 83 0 0 0-6.23-8.63 96 96 0 0 0-7.43-8.067 111 111 0 0 0-8.56-7.474 124 124 0 0 0-9.58-6.848 142 142 0 0 0-10.52-6.188 161 161 0 0 0-11.36-5.497 178 178 0 0 0-12.11-4.773 193 193 0 0 0-12.77-4.015 209 209 0 0 0-13.33-3.226c-4.53-.94-9.14-1.744-13.82-2.405q-7.005-.991-14.19-1.55a230.956 230.956 0 0 0-29.16-.405c-4.91.244-9.85.645-14.78 1.211a225 225 0 0 0-14.8 2.195c-3.93.717-7.77 1.529-11.53 2.43-3.75.9-7.42 1.89-11 2.964a188 188 0 0 0-10.46 3.472 174 174 0 0 0-9.88 3.948 164 164 0 0 0-9.29 4.394 149 149 0 0 0-8.65 4.811q-4.17 2.507-8.01 5.199a120 120 0 0 0-7.33 5.555q-3.495 2.863-6.63 5.883a99 99 0 0 0-5.9 6.18 89 89 0 0 0-5.15 6.448 82 82 0 0 0-4.37 6.686 72 72 0 0 0-3.55 6.893 66 66 0 0 0-2.73 7.073 64 64 0 0 0-1.88 7.22c-.47 2.429-.8 4.877-.98 7.34a43 43 0 0 0-1.54-1.662 45 45 0 0 0-3.44-3.176 43 43 0 0 0-1.9-1.509 53 53 0 0 0-4.14-2.841c-.72-.453-1.47-.896-2.23-1.327a68 68 0 0 0-2.34-1.26 71 71 0 0 0-2.45-1.191q-1.245-.578-2.55-1.117a70 70 0 0 0-2.65-1.041 74 74 0 0 0-2.74-.963 85.131 85.131 0 0 0-8.78-2.378 95.587 95.587 0 0 0-15.66-2.031 98 98 0 0 0-12.37.198c-2.03.162-4.04.387-6.02.671q-2.97.427-5.85 1.033a87 87 0 0 0-5.65 1.381c-1.85.517-3.66 1.09-5.41 1.715a76 76 0 0 0-5.13 2.036 67 67 0 0 0-4.81 2.343c-1.55.83-3.03 1.71-4.45 2.635a54 54 0 0 0-4.05 2.914 47 47 0 0 0-3.61 3.179 40 40 0 0 0-3.14 3.429 36 36 0 0 0-2.62 3.667 32 32 0 0 0-2.06 3.891 28 28 0 0 0-1.65-3.661 30 30 0 0 0-2.17-3.469 37 37 0 0 0-2.66-3.264 42 42 0 0 0-3.13-3.045 46 46 0 0 0-3.55-2.813 54 54 0 0 0-3.93-2.565 60 60 0 0 0-4.29-2.305c-1.48-.723-3.02-1.4-4.61-2.029a71 71 0 0 0-4.89-1.741 78 78 0 0 0-5.13-1.438 84 84 0 0 0-5.35-1.122 89.14 89.14 0 0 0-11.19-1.237 91 91 0 0 0-17.5.871 84.75 84.75 0 0 0-8.43 1.676q-2.025.513-3.96 1.113c-1.29.4-2.55.828-3.77 1.283-1.23.455-2.43.938-3.59 1.445q-1.755.762-3.39 1.597c-1.1.557-2.16 1.137-3.19 1.74a56 56 0 0 0-2.96 1.874 45.17 45.17 0 0 0-5.25 4.114 38.6 38.6 0 0 0-4.28 4.538 30.96 30.96 0 0 0-3.24 4.891c-.45.84-.85 1.692-1.21 2.554-.35.862-.66 1.734-.91 2.614a59 59 0 0 0-1.82-7.509 63 63 0 0 0-2.82-7.295 68 68 0 0 0-3.78-7.049 77 77 0 0 0-4.7-6.769 83 83 0 0 0-5.57-6.457 95 95 0 0 0-6.39-6.113 109 109 0 0 0-7.18-5.737 121 121 0 0 0-7.92-5.327 133 133 0 0 0-8.61-4.885 150 150 0 0 0-9.25-4.411q-4.785-2.083-9.87-3.904a173 173 0 0 0-10.42-3.365c-3.57-1.027-7.21-1.96-10.94-2.792s-7.54-1.563-11.41-2.188c-3.88-.626-7.83-1.144-11.84-1.551a214.13 214.13 0 0 0-22.46-1.08c-3.38.015-6.74.112-10.07.286s-6.63.427-9.89.754c-3.26.328-6.49.73-9.67 1.206-3.19.475-6.33 1.023-9.43 1.64q-4.65.928-9.15 2.06t-8.85 2.463c-2.89.886-5.73 1.836-8.51 2.848a160 160 0 0 0-8.15 3.218 149 149 0 0 0-7.76 3.572 137 137 0 0 0-7.34 3.91 122 122 0 0 0-6.89 4.23 119 119 0 0 0-6.42 4.535 107 107 0 0 0-5.9 4.824 97 97 0 0 0-5.37 5.095 91 91 0 0 0-4.8 5.352 6 6 0 0 0-.3-.489c-.1-.163-.2-.324-.31-.486l-.33-.484c-.11-.161-.23-.321-.34-.481l-.36-.479c-.12-.158-.25-.317-.37-.475l-.39-.472c-.13-.157-.26-.314-.4-.469-.13-.156-.27-.311-.41-.466s-.29-.309-.43-.463l-.45-.459c-.15-.152-.3-.304-.46-.455-.15-.151-.31-.302-.47-.451s-.32-.299-.49-.448c-.17-.148-.33-.296-.5-.443s-.35-.294-.52-.439c-.98-.81-2.01-1.578-3.08-2.305a44 44 0 0 0-3.37-2.056 47 47 0 0 0-3.62-1.804 54 54 0 0 0-3.83-1.548 61 61 0 0 0-4.02-1.291 65 65 0 0 0-4.18-1.031c-1.41-.3-2.85-.556-4.29-.769a72.644 72.644 0 0 0-17.74-.39q-2.22.225-4.41.588c-1.46.243-2.9.531-4.33.867q-2.145.503-4.23 1.149c-1.38.43-2.75.908-4.08 1.433-1.33.526-2.64 1.1-3.91 1.721a52 52 0 0 0-3.42-6.44 60 60 0 0 0-4.34-6.072 68 68 0 0 0-5.19-5.679 78 78 0 0 0-5.99-5.263 87 87 0 0 0-6.7-4.824 101 101 0 0 0-7.37-4.363 113 113 0 0 0-7.96-3.878c-2.74-1.21-5.58-2.335-8.49-3.37-2.91-1.037-5.9-1.985-8.96-2.84-3.05-.856-6.18-1.62-9.35-2.286-3.18-.667-6.42-1.238-9.7-1.71q-4.92-.707-9.96-1.109a162 162 0 0 0-20.49-.327c-3.45.163-6.92.438-10.39.828s-6.94.895-10.4 1.52a148.364 148.364 0 0 0-12.63 2.84q-3.045.826-5.97 1.766a136 136 0 0 0-5.72 1.984 121 121 0 0 0-10.69 4.578c-1.69.827-3.34 1.686-4.94 2.574s-3.16 1.805-4.67 2.75c-1.5.945-2.96 1.917-4.37 2.916a87 87 0 0 0-4.08 3.07 82 82 0 0 0-3.78 3.217 72 72 0 0 0-3.46 3.351 68 68 0 0 0-3.14 3.476 64 64 0 0 0-2.81 3.59 56 56 0 0 0-2.46 3.695 53 53 0 0 0-2.12 3.789 56 56 0 0 0-2.14-5.054 62 62 0 0 0-2.65-4.937 69 69 0 0 0-3.15-4.805 78 78 0 0 0-3.64-4.657 87 87 0 0 0-4.11-4.493 89 89 0 0 0-4.57-4.314 99 99 0 0 0-5.01-4.118c-1.74-1.338-3.56-2.64-5.44-3.906a113 113 0 0 0-5.85-3.68 130 130 0 0 0-6.25-3.434 137 137 0 0 0-6.64-3.177 144 144 0 0 0-7.01-2.9c-2.4-.92-4.85-1.79-7.37-2.61q-3.765-1.23-7.71-2.302c-2.62-.715-5.3-1.376-8.03-1.98a185 185 0 0 0-20.7-3.349 191 191 0 0 0-12.31-.89q-6.135-.243-12.21-.098c-4.04.095-8.05.318-12.02.664s-7.9.814-11.77 1.4c-3.87.585-7.69 1.29-11.44 2.107-3.74.817-7.42 1.747-11.02 2.787s-7.11 2.187-10.54 3.438a147 147 0 0 0-9.97 4.063 132 132 0 0 0-9.34 4.659 118 118 0 0 0-8.623 5.227 103 103 0 0 0-7.833 5.767 90 90 0 0 0-6.967 6.28 78 78 0 0 0-6.024 6.766 69 69 0 0 0-5.005 7.222 62 62 0 0 0-3.911 7.651 65 65 0 0 0-4.879-2.384 72 72 0 0 0-5.133-2.02 78 78 0 0 0-5.344-1.657 84 84 0 0 0-5.512-1.297 88 88 0 0 0-5.639-.94 92 92 0 0 0-5.721-.583 94.795 94.795 0 0 0-17.239.361 91 91 0 0 0-5.63.817 86 86 0 0 0-5.5 1.162 80 80 0 0 0-5.329 1.504 74 74 0 0 0-5.114 1.845 67 67 0 0 0-4.856 2.183 60 60 0 0 0-4.557 2.519 54 54 0 0 0-5.244 3.644 51 51 0 0 0-1.467 1.212 48 48 0 0 0-1.819 1.658 43 43 0 0 0-2.057 2.131 50 50 0 0 0-.757.868 87 87 0 0 0-4.163-4.941 95 95 0 0 0-4.633-4.756 104 104 0 0 0-5.083-4.555 113 113 0 0 0-5.516-4.342 123 123 0 0 0-5.932-4.115 134 134 0 0 0-6.328-3.874 143 143 0 0 0-6.709-3.62 153 153 0 0 0-7.071-3.352 163 163 0 0 0-7.415-3.072q-3.79-1.463-7.74-2.775a182 182 0 0 0-8.049-2.468 190 190 0 0 0-8.339-2.145 199 199 0 0 0-8.611-1.809 207 207 0 0 0-8.866-1.46 213 213 0 0 0-9.104-1.097q-4.608-.455-9.322-.72a221 221 0 0 0-14.282-.338c-4.717.04-9.385.233-13.993.57s-9.155.818-13.629 1.437c-4.473.62-8.873 1.377-13.187 2.264a195 195 0 0 0-12.67 3.051 182 182 0 0 0-12.078 3.796 168 168 0 0 0-11.409 4.502 153 153 0 0 0-10.664 5.165 137 137 0 0 0-9.843 5.79 121 121 0 0 0-8.946 6.372 106 106 0 0 0-7.973 6.916 92 92 0 0 0-6.924 7.417 80 80 0 0 0-5.798 7.878 70 70 0 0 0-4.597 8.299 63.6 63.6 0 0 0-3.32 8.68 60 60 0 0 0-1.967 9.018 18 18 0 0 0-1.442-1.271 21 21 0 0 0-1.605-1.149 23 23 0 0 0-1.752-1.026 26 26 0 0 0-1.88-.901 29 29 0 0 0-1.994-.772 31 31 0 0 0-2.089-.642 34 34 0 0 0-2.169-.509 36 36 0 0 0-4.507-.611 37.6 37.6 0 0 0-6.938.134 35 35 0 0 0-4.549.816 33 33 0 0 0-2.201.633 30 30 0 0 0-2.129.786q-1.045.432-1.995.919-.95.486-1.804 1.023-.853.536-1.611 1.116-.756.58-1.412 1.198-.657.618-1.212 1.27-.555.651-1.007 1.331-.453.68-.8 1.382-.347.7-.587 1.421-.24.719-.372 1.45a9.85 9.85 0 0 0 .211 4.421q.204.734.524 1.46.32.725.757 1.437.44.712.994 1.402.556.69 1.233 1.357a25 25 0 0 0-1.942-1.885 28 28 0 0 0-2.189-1.717 31 31 0 0 0-2.412-1.546 35 35 0 0 0-2.609-1.371 40 40 0 0 0-2.785-1.192 44 44 0 0 0-2.936-1.008 47 47 0 0 0-3.064-.821 50 50 0 0 0-3.166-.629 52 52 0 0 0-3.247-.435 53.699 53.699 0 0 0-9.982-.094 52 52 0 0 0-3.328.385 50 50 0 0 0-3.288.599 48 48 0 0 0-3.226.819q-1.595.465-3.14 1.041-1.545.578-2.959 1.238-1.414.661-2.695 1.394a32 32 0 0 0-2.427 1.537 28 28 0 0 0-2.152 1.662 25 25 0 0 0-1.87 1.775 22 22 0 0 0-1.583 1.87 19 19 0 0 0-1.288 1.952q-.57.993-.988 2.017a15 15 0 0 0-.682 2.069 14.5 14.5 0 0 0-.37 2.104 14.22 14.22 0 0 0 .222 4.255q.219 1.065.604 2.12.386 1.057.941 2.095.556 1.04 1.285 2.056a22 22 0 0 0 1.635 2c-4.663.042-9.269.234-13.805.569a206 206 0 0 0-13.385 1.426 197 197 0 0 0-12.901 2.238 187 187 0 0 0-12.35 3.006 175 175 0 0 0-11.73 3.731 162 162 0 0 0-11.043 4.412 146 146 0 0 0-10.291 5.049 131 131 0 0 0-9.471 5.642 116 116 0 0 0-8.585 6.191 102 102 0 0 0-7.631 6.697 89 89 0 0 0-6.609 7.158 77 77 0 0 0-5.523 7.576 68 68 0 0 0-4.368 7.949 61 61 0 0 0-3.146 8.279 57 57 0 0 0-1.857 8.566 56 56 0 0 0-.501 8.803"/><path fill="#fff" d="M-418.575 827.966a120 120 0 0 0-8.955 4.452 106 106 0 0 0-8.049 4.911 92 92 0 0 0-7.13 5.319 81 81 0 0 0-6.198 5.679 70 70 0 0 0-5.253 5.987 62 62 0 0 0-4.292 6.248 55 55 0 0 0-3.32 6.458 50 50 0 0 0-2.334 6.619 47 47 0 0 0-1.332 6.731 45.3 45.3 0 0 0 .387 13.6 47.6 47.6 0 0 0 1.749 6.769 52 52 0 0 0 2.803 6.682 57 57 0 0 0 3.873 6.546 66 66 0 0 0 4.953 6.362 77 77 0 0 0 6.049 6.126c2.2 1.997 4.533 3.9 6.986 5.706a99 99 0 0 0 7.706 5.13 112 112 0 0 0 8.346 4.544 125 125 0 0 0 8.91 3.95 138 138 0 0 0 9.395 3.347 149 149 0 0 0 9.804 2.736c3.328.809 6.71 1.515 10.133 2.116 3.424.601 6.892 1.097 10.387 1.487 3.495.389 7.02.673 10.562.849s7.099.244 10.66.204 7.124-.191 10.68-.451c3.554-.261 7.099-.632 10.621-1.114a162 162 0 0 0 10.485-1.787c3.465-.709 6.893-1.53 10.272-2.468a144 144 0 0 0 9.982-3.157 133 133 0 0 0 9.612-3.854 42 42 0 0 0-3.324 3.718 37 37 0 0 0-2.669 3.839 32 32 0 0 0-2.021 3.931 29 29 0 0 0-1.385 3.994 27 27 0 0 0-.759 4.027 26.5 26.5 0 0 0-.143 4.031q.082 2.014.464 4.008a28 28 0 0 0 1.06 3.953q.677 1.962 1.646 3.872a34 34 0 0 0 2.223 3.76 39 39 0 0 0 2.789 3.62 45 45 0 0 0 3.345 3.45 50 50 0 0 0 3.891 3.252 58 58 0 0 0 4.428 3.025 66 66 0 0 0 4.953 2.768 72 72 0 0 0 5.469 2.479c1.908.78 3.855 1.49 5.835 2.12 1.979.64 3.989 1.2 6.024 1.7 2.034.5 4.093.93 6.168 1.29s4.166.66 6.266.88c2.101.23 4.209.39 6.319.49 2.11.09 4.222.12 6.327.09 2.105-.04 4.204-.13 6.288-.3a98 98 0 0 0 12.279-1.72c1.998-.41 3.969-.89 5.9-1.42a80 80 0 0 0 5.68-1.78c1.852-.65 3.66-1.36 5.414-2.13a70 70 0 0 0 5.103-2.478 63 63 0 0 0 4.745-2.822 55 55 0 0 0 4.344-3.157 49 49 0 0 0 3.896-3.486 76 76 0 0 0 4.933 9.279 85 85 0 0 0 6.256 8.744 98 98 0 0 0 7.485 8.18 111 111 0 0 0 8.621 7.58c3.054 2.43 6.279 4.74 9.664 6.95s6.927 4.31 10.613 6.28c3.686 1.99 7.514 3.85 11.47 5.59s8.037 3.36 12.232 4.85a191 191 0 0 0 12.904 4.09c4.402 1.23 8.9 2.33 13.478 3.29s9.239 1.78 13.963 2.46 9.513 1.21 14.353 1.6c4.84.38 9.728.61 14.65.69s9.88.01 14.855-.23c4.975-.23 9.97-.63 14.965-1.19 4.997-.57 9.995-1.3 14.982-2.2 4.986-.9 9.842-1.95 14.558-3.14a201 201 0 0 0 13.724-3.99c4.429-1.46 8.71-3.05 12.834-4.77 4.126-1.71 8.093-3.55 11.895-5.49 3.803-1.95 7.44-4 10.903-6.16s6.754-4.42 9.86-6.76c3.107-2.35 6.03-4.79 8.763-7.31s5.275-5.13 7.616-7.8a90 90 0 0 0 6.415-8.22 79 79 0 0 0 5.163-8.592 71 71 0 0 0 3.859-8.899 65 65 0 0 0 2.502-9.147 61 61 0 0 0 1.095-9.337 60.6 60.6 0 0 0-.366-9.466 63 63 0 0 0-1.877-9.537 68.6 68.6 0 0 0-3.443-9.548 247 247 0 0 0 16.206 2.468 252 252 0 0 0 32.3 1.73c5.337-.057 10.64-.281 15.89-.668a247 247 0 0 0 15.581-1.642 241 241 0 0 0 15.171-2.581 230 230 0 0 0 14.659-3.485 214 214 0 0 0 14.046-4.354 197 197 0 0 0 13.332-5.186 179 179 0 0 0 12.515-5.984 159 159 0 0 0 11.598-6.747 140 140 0 0 0 10.578-7.473 123 123 0 0 0 9.457-8.165 107 107 0 0 0 8.235-8.821 94 94 0 0 0 6.911-9.441 83 83 0 0 0 5.486-10.028c1.379-3 2.536-6.01 3.478-9.02a69.5 69.5 0 0 0 2.178-9.024c.514-3.003.818-6.001.917-8.984a66 66 0 0 0-.308-8.902 67 67 0 0 0-1.498-8.778 71 71 0 0 0-2.648-8.609 77 77 0 0 0-3.762-8.398 85 85 0 0 0-4.839-8.143 95 95 0 0 0-5.88-7.847 107 107 0 0 0-6.882-7.505 119 119 0 0 0-7.848-7.121c-2.772-2.305-5.7-4.54-8.776-6.695a150 150 0 0 0-9.669-6.225 165 165 0 0 0-10.523-5.712 181 181 0 0 0-11.342-5.157 197 197 0 0 0-12.123-4.556l.503-.082.501-.086.499-.091.5-.096.498-.101q.248-.052.495-.107l.493-.112q.247-.058.492-.118.245-.061.489-.125a35 35 0 0 0 .971-.268 27 27 0 0 0 .959-.297q.24-.079.474-.161.237-.081.472-.168.235-.085.469-.176 1-.387 1.931-.816a31 31 0 0 0 1.789-.899 27 27 0 0 0 1.646-.975 25 25 0 0 0 1.5-1.044q.713-.539 1.351-1.108t1.203-1.165q.562-.597 1.048-1.215.487-.619.896-1.26a14 14 0 0 0 1.318-2.626q.251-.67.421-1.353a11.6 11.6 0 0 0 .35-2.758 11.6 11.6 0 0 0-.315-2.781 12 12 0 0 0-.412-1.383 82 82 0 0 0 5.786 8.001 92 92 0 0 0 6.859 7.489 106 106 0 0 0 7.85 6.949 120 120 0 0 0 8.763 6.384 136 136 0 0 0 9.595 5.794 152 152 0 0 0 10.348 5.178 168 168 0 0 0 11.019 4.535 183 183 0 0 0 11.613 3.868 196 196 0 0 0 12.124 3.174c4.117.939 8.308 1.759 12.557 2.454s8.556 1.266 12.909 1.709 8.752.756 13.182.938a220.738 220.738 0 0 0 26.863-.539c4.507-.367 9.018-.876 13.522-1.531s9-1.454 13.474-2.405a199 199 0 0 0 13.551-3.369 183 183 0 0 0 12.705-4.144 166 166 0 0 0 11.812-4.859 149 149 0 0 0 10.875-5.518 133 133 0 0 0 9.894-6.119 118 118 0 0 0 8.865-6.663 104 104 0 0 0 7.792-7.148 91 91 0 0 0 6.674-7.578 80 80 0 0 0 5.512-7.948 71 71 0 0 0 4.304-8.26 64 64 0 0 0 3.05-8.517 60 60 0 0 0 1.752-8.714c.361-2.932.499-5.887.406-8.855a58 58 0 0 0-.982-8.938 61.4 61.4 0 0 0-2.415-8.964 68 68 0 0 0-3.896-8.93 48 48 0 0 0 3.474 5.146 54 54 0 0 0 4.188 4.804 63 63 0 0 0 4.85 4.446 71 71 0 0 0 5.455 4.071 80 80 0 0 0 6.004 3.681 91 91 0 0 0 6.497 3.275 101 101 0 0 0 6.936 2.851c2.379.878 4.822 1.683 7.318 2.413s5.049 1.382 7.646 1.956a126 126 0 0 0 7.916 1.486c2.678.416 5.393.749 8.134.998a133.6 133.6 0 0 0 25.147-.094q4.23-.417 8.444-1.115a126 126 0 0 0 8.384-1.684 117 117 0 0 0 8.075-2.214 107 107 0 0 0 7.538-2.669 97 97 0 0 0 6.977-3.091 87 87 0 0 0 6.389-3.476 77 77 0 0 0 5.776-3.826 69 69 0 0 0 5.138-4.141 60 60 0 0 0 4.474-4.419 53 53 0 0 0 3.785-4.664 46 46 0 0 0 3.071-4.872 41.5 41.5 0 0 0 2.331-5.046 38 38 0 0 0 1.566-5.184q.587-2.621.776-5.286a35 35 0 0 0-.041-5.354 35 35 0 0 0-.883-5.385 38 38 0 0 0-1.75-5.382 42.5 42.5 0 0 0-2.642-5.343 104 104 0 0 0 8.201 6.594 117 117 0 0 0 9.028 5.918 132 132 0 0 0 9.764 5.235 146 146 0 0 0 10.412 4.541 161 161 0 0 0 10.968 3.838 176 176 0 0 0 11.434 3.124c3.878.921 7.821 1.722 11.809 2.401 3.989.68 8.026 1.236 12.095 1.67a201 201 0 0 0 12.289.928c4.119.184 8.255.243 12.392.176 4.138-.068 8.279-.262 12.407-.586s8.242-.774 12.33-1.356a187 187 0 0 0 12.163-2.137c4.017-.843 7.99-1.818 11.906-2.926a167 167 0 0 0 11.558-3.727 154 154 0 0 0 11.119-4.535 140 140 0 0 0 8.174-4.038 126 126 0 0 0 7.527-4.367 114 114 0 0 0 6.873-4.669 102 102 0 0 0 6.21-4.945 92 92 0 0 0 5.544-5.19 83 83 0 0 0 4.868-5.412 74 74 0 0 0 4.186-5.603 68 68 0 0 0 3.498-5.768 63 63 0 0 0 2.803-5.904 58 58 0 0 0 2.101-6.015 55 55 0 0 0 1.393-6.098 53 53 0 0 0-.143-18.51 55 55 0 0 0-1.509-6.152 59 59 0 0 0-2.253-6.096 104 104 0 0 0 6.313 5.346 116 116 0 0 0 6.897 4.987q3.59 2.401 7.442 4.613a141 141 0 0 0 7.944 4.225 153 153 0 0 0 8.404 3.82 165 165 0 0 0 8.824 3.401 176 176 0 0 0 9.201 2.967q4.69 1.373 9.538 2.517 4.847 1.145 9.833 2.053c3.322.605 6.687 1.13 10.086 1.573s6.834.803 10.297 1.078q5.19.413 10.47.567 5.265.154 10.59.043a210 210 0 0 0 21.41-1.553 204 204 0 0 0 15.6-2.556q2.4-.494 4.77-1.038c1.57-.364 3.13-.745 4.67-1.142 1.54-.398 3.07-.812 4.57-1.243a172 172 0 0 0 8.83-2.776 164 164 0 0 0 8.41-3.147c1.36-.554 2.71-1.124 4.03-1.706a131 131 0 0 0 3.92-1.791 144 144 0 0 0 7.5-3.823 133 133 0 0 0 7.02-4.13c1.13-.712 2.24-1.436 3.32-2.172a107 107 0 0 0 3.2-2.241c.37.666.74 1.33 1.14 1.991.39.662.8 1.32 1.22 1.976a66 66 0 0 0 2.69 3.898c.48.644.97 1.283 1.48 1.92q.765.955 1.56 1.899c.54.629 1.09 1.255 1.66 1.877q.84.933 1.74 1.853c.59.614 1.2 1.223 1.82 1.828q.945.907 1.92 1.801t2.01 1.774a92 92 0 0 0 4.27 3.46q1.125.85 2.28 1.684c.77.556 1.56 1.106 2.36 1.65q1.215.817 2.46 1.617c2.97 1.895 6.05 3.672 9.23 5.33s6.46 3.198 9.83 4.621a148 148 0 0 0 10.36 3.912c3.52 1.186 7.13 2.254 10.78 3.203 3.66.949 7.38 1.78 11.14 2.493q5.64 1.07 11.4 1.784c3.83.476 7.69.834 11.57 1.075 3.87.24 7.77.361 11.66.364s7.78-.111 11.66-.344c3.87-.233 7.74-.584 11.57-1.054a182 182 0 0 0 11.41-1.764c3.76-.705 7.48-1.53 11.14-2.473 3.67-.943 7.27-2.004 10.81-3.184 3.53-1.179 6.99-2.478 10.37-3.893 3.37-1.416 6.66-2.951 9.85-4.604s6.28-3.424 9.25-5.313a58 58 0 0 0 4.59 4.425 66 66 0 0 0 5.16 4.031 75 75 0 0 0 5.69 3.627 85 85 0 0 0 6.15 3.213 93 93 0 0 0 6.56 2.791c2.25.859 4.56 1.646 6.92 2.359s4.76 1.354 7.21 1.918a119 119 0 0 0 7.45 1.469c2.52.413 5.07.75 7.64 1.009q3.855.389 7.77.541c2.61.101 5.22.122 7.84.063s5.25-.2 7.86-.423q3.93-.334 7.83-.919c2.59-.391 5.17-.865 7.72-1.425 2.56-.56 5.09-1.206 7.58-1.939a103 103 0 0 0 8.25-2.797q.435-.168.87-.34c.28-.115.57-.231.85-.347.29-.117.57-.235.85-.352l.84-.358c.28-.121.56-.241.83-.364.28-.123.55-.245.82-.37.27-.124.55-.249.81-.374l.81-.381c.26-.128.53-.256.79-.386q.39-.194.78-.391t.78-.397c.26-.133.51-.267.77-.401l.75-.406.75-.412c.25-.137.5-.277.74-.416a88 88 0 0 0 1.8 8.699 90 90 0 0 0 2.68 8.579 97 97 0 0 0 3.56 8.432q1.995 4.176 4.41 8.258c1.61 2.72 3.36 5.406 5.24 8.054q2.835 3.972 6.06 7.822c2.16 2.566 4.45 5.089 6.86 7.563q3.63 3.713 7.65 7.276c2.67 2.375 5.48 4.695 8.41 6.959a175 175 0 0 0 9.15 6.616c3.18 2.144 6.47 4.227 9.89 6.243a205 205 0 0 0 10.59 5.843c3.65 1.878 7.41 3.685 11.29 5.415q5.82 2.598 11.97 4.959a265 265 0 0 0 12.62 4.474 278 278 0 0 0 13.27 3.96q5.835 1.587 11.73 2.932c3.92.897 7.87 1.712 11.83 2.451a309 309 0 0 0 23.87 3.488 320.702 320.702 0 0 0 35.91 1.807 324 324 0 0 0 23.68-.993q5.865-.463 11.67-1.135a310.832 310.832 0 0 0 22.9-3.511 302 302 0 0 0 11.15-2.361c3.69-.853 7.33-1.772 10.93-2.755 3.61-.982 7.16-2.03 10.67-3.142a260 260 0 0 0 10.39-3.522q2.85 3.498 6.03 6.866c2.12 2.244 4.34 4.445 6.67 6.598s4.77 4.256 7.3 6.31c2.54 2.054 5.17 4.057 7.9 6.006s5.56 3.843 8.47 5.681c2.92 1.837 5.93 3.618 9.02 5.338a211 211 0 0 0 19.58 9.571 232 232 0 0 0 10.5 4.196c3.58 1.33 7.24 2.591 10.96 3.779q5.58 1.783 11.37 3.342c3.86 1.039 7.79 2.002 11.77 2.886 3.99.884 8.04 1.689 12.14 2.412q6.165 1.084 12.48 1.919 6.33.833 12.81 1.407a310 310 0 0 0 32.08 1.165c6.26-.097 12.47-.382 18.59-.851 6.13-.469 12.17-1.118 18.13-1.942 5.95-.823 11.8-1.821 17.55-2.983 5.75-1.161 11.39-2.49 16.9-3.975a259 259 0 0 0 16.17-4.919 242 242 0 0 0 15.33-5.813q7.44-3.123 14.4-6.657c4.64-2.354 9.11-4.841 13.4-7.452q6.435-3.92 12.3-8.2c3.91-2.852 7.62-5.82 11.11-8.896 3.5-3.076 6.79-6.26 9.84-9.544a119 119 0 0 0 8.47-10.143c2.59-3.475 4.93-7.042 7.02-10.693a95 95 0 0 0 5.48-11.193 88.5 88.5 0 0 0 3.84-11.644c.07.813.19 1.622.35 2.424.17.801.38 1.597.64 2.385s.57 1.567.91 2.338c.36.77.75 1.53 1.19 2.28.43.749.92 1.488 1.44 2.213s1.09 1.439 1.7 2.137c.6.698 1.25 1.382 1.94 2.05.68.669 1.41 1.32 2.17 1.955a43 43 0 0 0 2.41 1.85 46.6 46.6 0 0 0 5.48 3.346c.98.515 1.99 1.007 3.05 1.476q1.575.703 3.24 1.333c1.12.419 2.26.812 3.44 1.179s2.38.706 3.62 1.016 2.5.593 3.8.845c1.65.322 3.31.587 4.97.796a79 79 0 0 0 9.94.605 79 79 0 0 0 4.9-.17 76 76 0 0 0 9.5-1.233q2.31-.452 4.53-1.041c1.48-.393 2.94-.83 4.35-1.31q2.13-.722 4.14-1.568a58 58 0 0 0 3.88-1.816 47 47 0 0 0 3.61-2.052 42 42 0 0 0 3.3-2.279 40 40 0 0 0 2.96-2.495c.92-.866 1.79-1.765 2.58-2.699.8-.932 1.53-1.897 2.18-2.893.66-.995 1.24-2.022 1.75-3.077.12 2.737.47 5.437 1.01 8.094a55.4 55.4 0 0 0 2.25 7.836q1.425 3.849 3.42 7.54a67 67 0 0 0 4.52 7.206 75 75 0 0 0 5.56 6.832c2.02 2.21 4.2 4.352 6.53 6.419a100 100 0 0 0 7.45 5.969 112 112 0 0 0 8.29 5.48c2.9 1.74 5.92 3.392 9.07 4.95s6.41 3.021 9.79 4.384c3.37 1.362 6.86 2.624 10.44 3.778s7.26 2.201 11.03 3.134c3.76.933 7.62 1.752 11.55 2.451s7.94 1.277 12.01 1.729c4.08.452 8.22.777 12.41.969a197.4 197.4 0 0 0 27.57-.671q3.63-.348 7.2-.827a182 182 0 0 0 13.93-2.421 166.723 166.723 0 0 0 13.2-3.39 159 159 0 0 0 6.31-2.038 149 149 0 0 0 11.95-4.719 132 132 0 0 0 11-5.522 122 122 0 0 0 5.12-3.04c1.65-1.043 3.27-2.116 4.83-3.217 1.57-1.1 3.09-2.228 4.55-3.383a99 99 0 0 0 4.26-3.541q-.3 3.53-.24 7.055.075 3.523.51 7.028t1.23 6.976a72 72 0 0 0 1.95 6.901 79.27 79.27 0 0 0 6.02 13.478 91 91 0 0 0 4.05 6.528 99 99 0 0 0 4.74 6.356q2.535 3.131 5.4 6.158c1.92 2.017 3.94 3.999 6.07 5.938 2.14 1.94 4.38 3.839 6.73 5.693a135 135 0 0 0 7.37 5.423 151 151 0 0 0 8 5.13c2.77 1.658 5.65 3.263 8.63 4.812 2.98 1.548 6.07 3.039 9.25 4.47 3.19 1.43 6.47 2.799 9.86 4.103q7.335 2.821 14.91 5.107a227 227 0 0 0 15.36 4.046 239 239 0 0 0 15.67 3.002 249 249 0 0 0 15.88 1.974c5.32.49 10.65.811 15.98.966a259 259 0 0 0 31.78-1.021q7.86-.74 15.57-1.952 7.71-1.213 15.21-2.888c5-1.117 9.92-2.387 14.73-3.806 4.82-1.42 9.54-2.991 14.15-4.709a193 193 0 0 0 13.44-5.591c4.34-2.009 8.56-4.161 12.62-6.455 4.05-2.294 7.95-4.729 11.68-7.302 3.73-2.574 7.28-5.285 10.64-8.132q5.04-4.271 9.48-8.943c3.43 1.306 6.92 2.497 10.46 3.575 3.53 1.078 7.11 2.044 10.73 2.897 3.62.854 7.27 1.597 10.94 2.229q5.52.95 11.1 1.573c3.71.417 7.44.725 11.17.928a200 200 0 0 0 22.32-.04c3.69-.213 7.37-.529 11.02-.945s7.26-.932 10.84-1.548a185 185 0 0 0 10.59-2.14 176 176 0 0 0 10.28-2.721c3.36-1.002 6.67-2.1 9.9-3.291s6.39-2.475 9.46-3.851 6.06-2.843 8.95-4.4c2.9-1.556 5.69-3.203 8.38-4.937s5.28-3.557 7.74-5.465q3.45 3.616 7.17 7.12c2.49 2.334 5.06 4.63 7.72 6.884q4.005 3.381 8.25 6.634c2.84 2.168 5.77 4.292 8.78 6.37 3 2.078 6.1 4.109 9.27 6.092 3.18 1.982 6.43 3.916 9.77 5.798 3.33 1.883 6.75 3.714 10.24 5.492 3.49 1.777 7.06 3.502 10.7 5.169s7.36 3.279 11.15 4.832q5.685 2.332 11.58 4.483c3.93 1.435 7.92 2.808 11.99 4.118s8.2 2.557 12.4 3.738q6.3 1.773 12.78 3.345a375 375 0 0 0 13.16 2.937c4.45.909 8.95 1.748 13.52 2.514 4.56.766 9.18 1.459 13.85 2.077a412.677 412.677 0 0 0 76.95 2.908 406 406 0 0 0 24.85-2.156c8.18-.965 16.26-2.175 24.21-3.618q11.925-2.167 23.43-5.023a356 356 0 0 0 22.51-6.366 334 334 0 0 0 21.45-7.65 302 302 0 0 0 20.23-8.874 273 273 0 0 0 18.89-10.039 244 244 0 0 0 17.4-11.145 217 217 0 0 0 15.76-12.19c4.96-4.23 9.63-8.626 13.98-13.175s8.38-9.253 12.07-14.102c3.68-4.848 7.02-9.841 10-14.969a130 130 0 0 0 7.79-15.774 28 28 0 0 0-.45 3.485q-.105 1.738.03 3.462c.08 1.149.24 2.291.47 3.424q.36 1.7.93 3.367t1.35 3.294a32 32 0 0 0 1.77 3.203 37 37 0 0 0 2.18 3.096c.8 1.012 1.65 2.004 2.58 2.971.92.968 1.9 1.912 2.95 2.83a52 52 0 0 0 3.33 2.671c1.16.862 2.39 1.695 3.68 2.495a60 60 0 0 0 4.02 2.304 73.853 73.853 0 0 0 9.03 3.962q2.415.875 4.98 1.623a91 91 0 0 0 10.47 2.387c1.73.292 3.48.535 5.22.731a99 99 0 0 0 15.62.506 97.995 97.995 0 0 0 10.13-.995 92.342 92.342 0 0 0 9.69-1.995 82.45 82.45 0 0 0 9.06-2.938 70.819 70.819 0 0 0 8.25-3.825c1.3-.708 2.55-1.45 3.76-2.226a55 55 0 0 0 3.49-2.426 51 51 0 0 0 3.2-2.62 76 76 0 0 0-5.01 7.943 68 68 0 0 0-3.79 8.095 62 62 0 0 0-2.59 8.197 60.5 60.5 0 0 0-1.4 8.248 60 60 0 0 0-.24 8.249c.12 2.744.42 5.479.92 8.198a61.5 61.5 0 0 0 2.04 8.099 65 65 0 0 0 3.15 7.947 74 74 0 0 0 4.24 7.746 83 83 0 0 0 5.32 7.495 92 92 0 0 0 6.37 7.191c2.3 2.342 4.77 4.625 7.4 6.84a118 118 0 0 0 8.43 6.437c2.97 2.072 6.11 4.069 9.42 5.982 3.3 1.913 6.77 3.743 10.4 5.479s7.42 3.38 11.36 4.923q4.365 1.702 8.82 3.189c2.98.991 5.98 1.908 9.02 2.754q4.545 1.27 9.18 2.326c3.08.704 6.19 1.338 9.31 1.902s6.26 1.058 9.41 1.483a222 222 0 0 0 19.01 1.729 226.257 226.257 0 0 0 28.49-.424 223 223 0 0 0 18.61-2.237c3.05-.5 6.09-1.064 9.09-1.69q4.5-.939 8.91-2.064t8.7-2.434c2.86-.872 5.68-1.806 8.45-2.799a136 136 0 0 0-8.11 7.865 125 125 0 0 0-7.13 8.185 114 114 0 0 0-6.13 8.466 106 106 0 0 0-5.12 8.707 96 96 0 0 0-4.09 8.908 86 86 0 0 0-3.06 9.069 82.785 82.785 0 0 0-2.96 18.466c-.13 3.101-.09 6.208.13 9.317.23 3.108.63 6.217 1.22 9.319a84 84 0 0 0 2.33 9.282 88 88 0 0 0 3.43 9.206 98 98 0 0 0 4.57 9.089c1.71 3.006 3.61 5.987 5.71 8.934 2.09 2.947 4.38 5.862 6.86 8.738a134 134 0 0 0 8.03 8.503c3.74 3.63 7.72 7.1 11.92 10.4 4.21 3.3 8.63 6.44 13.26 9.4 4.62 2.96 9.45 5.76 14.44 8.38 5 2.62 10.18 5.07 15.5 7.35a241 241 0 0 0 16.42 6.29 260 260 0 0 0 17.2 5.21c5.85 1.56 11.8 2.94 17.84 4.13a297 297 0 0 0 18.34 3.02c6.19.81 12.43 1.45 18.72 1.89 6.28.44 12.6.68 18.94.74 6.34.05 12.69-.09 19.04-.42 6.34-.34 12.68-.87 18.99-1.61 6.3-.73 12.58-1.66 18.81-2.8 6.22-1.14 12.39-2.47 18.49-4.02 6.09-1.55 12.11-3.3 18.03-5.26s11.74-4.13 17.43-6.51c7.22-.54 14.31-1.31 21.26-2.29 6.94-.99 13.74-2.18 20.38-3.58s13.13-3 19.43-4.79c6.31-1.79 12.44-3.76 18.39-5.92 5.94-2.15 11.69-4.48 17.24-6.98 5.54-2.5 10.88-5.16 16-7.97a198 198 0 0 0 14.68-8.88c4.66-3.099 9.09-6.342 13.26-9.711 4.18-3.368 8.1-6.864 11.75-10.475s7.04-7.334 10.14-11.161 5.92-7.754 8.45-11.772c2.52-4.018 4.74-8.124 6.65-12.308a96 96 0 0 0 4.77-12.77 89 89 0 0 0 2.79-13.157c.59-4.441.84-8.935.73-13.468a88 88 0 0 0-1.44-13.705 92 92 0 0 0-2.92-11.529 96 96 0 0 0-4.39-11.137 104 104 0 0 0-5.77-10.712 119 119 0 0 0-7.1-10.249 130 130 0 0 0-8.36-9.75 148 148 0 0 0-9.52-9.216 168 168 0 0 0-10.64-8.645 184 184 0 0 0-11.67-8.038 206 206 0 0 0-12.63-7.396 226 226 0 0 0-13.52-6.716 247 247 0 0 0-14.34-6.001q-7.365-2.818-15.09-5.25a283 283 0 0 0-15.76-4.463 297 297 0 0 0-16.37-3.64 309 309 0 0 0-16.9-2.78c-5.71-.78-11.5-1.41-17.35-1.885 2.13-.35 4.25-.745 6.33-1.182a141 141 0 0 0 12.21-3.122 133 133 0 0 0 5.83-1.927c1.91-.682 3.78-1.403 5.62-2.163s3.64-1.556 5.39-2.389a107 107 0 0 0 5.15-2.61c1.67-.907 3.3-1.848 4.88-2.825a91 91 0 0 0 4.6-3.031 86 86 0 0 0 4.29-3.231q2.07-1.665 3.96-3.424a69 69 0 0 0 3.63-3.61 61 61 0 0 0 3.26-3.79 55.299 55.299 0 0 0 5.36-8.088 51 51 0 0 0 2.05-4.284 45 45 0 0 0 1.94-5.559c.52-1.853.9-3.704 1.16-5.548q.39-2.769.39-5.514c.01-1.83-.11-3.65-.35-5.455a41 41 0 0 0-1.07-5.37 44.5 44.5 0 0 0-1.76-5.259 49 49 0 0 0-2.43-5.123 55 55 0 0 0-3.08-4.963 59 59 0 0 0-3.71-4.777 67 67 0 0 0-4.3-4.565 78 78 0 0 0-4.89-4.329 86 86 0 0 0-5.44-4.068c-1.9-1.309-3.9-2.57-5.97-3.779a103 103 0 0 0-6.49-3.468 114 114 0 0 0-6.97-3.13c-2.4-.984-4.88-1.908-7.43-2.766 6.67 1.443 13.4 2.672 20.15 3.692a336 336 0 0 0 20.3 2.434c6.79.605 13.58 1.005 20.36 1.206a347 347 0 0 0 40.33-1.155 339 339 0 0 0 19.75-2.303c6.51-.955 12.95-2.094 19.29-3.415 6.35-1.319 12.59-2.82 18.73-4.497a293 293 0 0 0 18.03-5.551 271 271 0 0 0 17.22-6.575 247 247 0 0 0 16.29-7.57 222 222 0 0 0 15.22-8.536c4.89-3.004 9.57-6.163 14.05-9.474a175 175 0 0 0 12.74-10.382c4.01-3.608 7.79-7.363 11.31-11.26 3.53-3.896 6.79-7.935 9.78-12.109 3.18-4.452 5.97-8.953 8.38-13.489s4.43-9.106 6.09-13.695a97 97 0 0 0 3.85-13.806 90.097 90.097 0 0 0 1.21-27.571c-.5-4.559-1.35-9.09-2.53-13.576a102 102 0 0 0-4.55-13.31 111 111 0 0 0-6.51-12.951c-2.5-4.247-5.31-8.417-8.42-12.497a142 142 0 0 0-10.27-11.947 160 160 0 0 0-12.07-11.305c-4.31-3.65-8.92-7.178-13.8-10.567a207 207 0 0 0-15.49-9.736 233 233 0 0 0-17.12-8.809 259 259 0 0 0-18.7-7.789 286 286 0 0 0-20.21-6.675 254 254 0 0 0 17.11-3.869 235 235 0 0 0 16.11-4.857c5.19-1.776 10.2-3.703 15.03-5.772 4.83-2.068 9.46-4.278 13.9-6.616a172 172 0 0 0 12.72-7.391c4.03-2.584 7.86-5.286 11.47-8.094 3.6-2.808 6.99-5.721 10.15-8.728s6.1-6.107 8.79-9.288c2.7-3.183 5.15-6.447 7.36-9.781a91 91 0 0 0 5.87-10.201 82 82 0 0 0 4.32-10.551 75 75 0 0 0 2.72-10.831c.63-3.648.98-7.332 1.04-11.039.07-3.706-.16-7.435-.68-11.176a74.5 74.5 0 0 0-2.47-11.243c-1.12-3.751-2.56-7.501-4.31-11.24a92 92 0 0 0-6.08-10.905c-2.28-3.53-4.83-6.953-7.62-10.262a117 117 0 0 0-9.05-9.58 135 135 0 0 0-10.39-8.861c-3.66-2.83-7.54-5.533-11.59-8.103-4.06-2.571-8.3-5.009-12.7-7.308a196 196 0 0 0-13.7-6.473 217 217 0 0 0-14.57-5.601c-5-1.717-10.12-3.282-15.35-4.69a249 249 0 0 0-16.01-3.742 263 263 0 0 0-16.55-2.754c-5.6-.749-11.27-1.329-17-1.73a276.174 276.174 0 0 0-34.86-.232q-8.805.498-17.64 1.574t-17.64 2.752a91 91 0 0 0-6.67-3.158 99 99 0 0 0-7-2.664c-2.38-.805-4.81-1.53-7.28-2.173-2.46-.642-4.96-1.205-7.49-1.685-2.52-.482-5.07-.882-7.64-1.203a127.769 127.769 0 0 0-23.33-.742c-2.58.154-5.16.386-7.71.696s-5.09.697-7.59 1.162-4.97 1.005-7.4 1.624a108 108 0 0 0-7.16 2.082 98 98 0 0 0-6.87 2.538 91 91 0 0 0-6.52 2.989 82 82 0 0 0-6.1 3.438 74 74 0 0 0-5.64 3.881c-1.68-2.899-3.51-5.76-5.47-8.576a131 131 0 0 0-6.32-8.313c-2.24-2.724-4.62-5.4-7.13-8.024-2.5-2.624-5.14-5.196-7.91-7.711a167 167 0 0 0-8.67-7.371 188 188 0 0 0-9.39-7.008c-3.25-2.272-6.62-4.48-10.1-6.619a221 221 0 0 0-10.77-6.204 239 239 0 0 0-11.42-5.765 254 254 0 0 0-12.04-5.3 271 271 0 0 0-12.62-4.811c-4.31-1.52-8.7-2.953-13.19-4.296a302 302 0 0 0-13.72-3.756 316 316 0 0 0-14.23-3.19c-4.83-.968-9.73-1.836-14.71-2.601a345 345 0 0 0-15.17-1.985 351 351 0 0 0-45.35-1.976c-7.45.157-14.83.552-22.13 1.173-7.29.62-14.5 1.469-21.59 2.535a327 327 0 0 0-20.93 3.838 311 311 0 0 0-20.12 5.082 289 289 0 0 0-19.2 6.267 267 267 0 0 0-18.15 7.395 243 243 0 0 0-16.95 8.462 216 216 0 0 0-15.64 9.471 190 190 0 0 0-14.18 10.422 163 163 0 0 0-12.61 11.312 142 142 0 0 0-10.9 12.146 125 125 0 0 0-9.07 12.92c-2.7 4.429-5.07 8.977-7.09 13.635s-3.7 9.424-5 14.291a40 40 0 0 0-3.07-3.799 47 47 0 0 0-3.6-3.514 52 52 0 0 0-4.06-3.218 59 59 0 0 0-4.5-2.913 66 66 0 0 0-4.88-2.596 74 74 0 0 0-5.22-2.27 81 81 0 0 0-5.52-1.934 89 89 0 0 0-5.77-1.586c-1.96-.47-3.96-.88-5.99-1.228a100.71 100.71 0 0 0-12.42-1.342 103 103 0 0 0-12.75.216 99 99 0 0 0-6.39.717 96 96 0 0 0-6.33 1.138q-3.15.676-6.24 1.568a80.68 80.68 0 0 0-8.76 3.062 75 75 0 0 0-4.01 1.802 67 67 0 0 0-3.73 1.968 58 58 0 0 0-3.47 2.121c-1.12.73-2.18 1.486-3.2 2.262a49 49 0 0 0-2.91 2.392 45.5 45.5 0 0 0-4.95 5.128c-.72.889-1.4 1.793-2.02 2.712-.62.918-1.2 1.851-1.71 2.796-.52.944-.99 1.901-1.4 2.867-.41.967-.77 1.943-1.07 2.928s-.55 1.977-.74 2.976-.32 2.003-.4 3.012q-.12 1.514-.06 3.037a47 47 0 0 0-2.81-4.057 53 53 0 0 0-3.3-3.874 59 59 0 0 0-3.74-3.675 67 67 0 0 0-4.17-3.463 75 75 0 0 0-4.56-3.237 87 87 0 0 0-4.94-2.998 92 92 0 0 0-5.29-2.744 105.378 105.378 0 0 0-11.53-4.671c-2.01-.684-4.08-1.317-6.18-1.9-2.1-.582-4.25-1.113-6.43-1.589-2.18-.477-4.4-.9-6.65-1.267a133 133 0 0 0-13.88-1.509 138 138 0 0 0-14.45-.049c-1.96.096-3.91.233-5.83.409q-2.88.264-5.7.646-2.805.38-5.55.873a127 127 0 0 0-5.39 1.092c-1.77.401-3.51.836-5.23 1.304a111.48 111.48 0 0 0-9.91 3.208c-1.58.598-3.14 1.228-4.66 1.886q-2.28.988-4.44 2.064a89 89 0 0 0-4.23 2.232q-2.055 1.157-3.99 2.393a80 80 0 0 0-3.75 2.544 70 70 0 0 0-3.49 2.687c-1.13.918-2.2 1.86-3.23 2.823a63 63 0 0 0-2.95 2.948 55 55 0 0 0-2.66 3.067c.39-3.35.56-6.692.51-10.017a77 77 0 0 0-.8-9.922 81 81 0 0 0-2.06-9.782c-.9-3.232-2-6.434-3.3-9.596a93 93 0 0 0-4.49-9.363c-1.7-3.077-3.58-6.107-5.66-9.084a113 113 0 0 0-6.78-8.758c-2.45-2.86-5.07-5.658-7.87-8.387s-5.78-5.387-8.92-7.969a158 158 0 0 0-9.94-7.505 174 174 0 0 0-10.92-6.994c-3.8-2.241-7.76-4.39-11.87-6.439a212 212 0 0 0-12.77-5.835 230 230 0 0 0-13.65-5.186 248 248 0 0 0-14.48-4.49 269 269 0 0 0-15.29-3.749 281 281 0 0 0-18.64-3.342 288 288 0 0 0-18.71-2.087 293.956 293.956 0 0 0-37.15-.564q-9.195.444-18.21 1.449c-6.01.668-11.95 1.52-17.8 2.55a273 273 0 0 0-17.27 3.615 258 258 0 0 0-16.62 4.641 236 236 0 0 0-15.85 5.629 215 215 0 0 0-14.97 6.579 195 195 0 0 0-13.95 7.49 171 171 0 0 0-12.82 8.364c-4.07 2.93-7.93 5.999-11.57 9.201a132 132 0 0 0-10.2 9.998 116 116 0 0 0-8.7 10.758 101.5 101.5 0 0 0-7.1 11.479 73.5 73.5 0 0 0-4.31-9.723 83 83 0 0 0-5.72-9.219 94 94 0 0 0-7.03-8.678c-2.55-2.798-5.31-5.5-8.25-8.098a121 121 0 0 0-9.38-7.483q-4.95-3.582-10.41-6.829a158 158 0 0 0-11.35-6.139c-3.93-1.927-8-3.734-12.19-5.411-4.2-1.678-8.52-3.23-12.95-4.646-4.43-1.417-8.98-2.7-13.61-3.843a222 222 0 0 0-14.18-3.004c-4.81-.857-9.7-1.568-14.65-2.127a238 238 0 0 0-15.03-1.212 240.9 240.9 0 0 0-46.45 2.223c-5.21.76-10.3 1.679-15.25 2.747a214 214 0 0 0-14.47 3.645 200 200 0 0 0-13.62 4.48 179 179 0 0 0-12.7 5.258c-4.08 1.876-8 3.871-11.75 5.976-3.74 2.105-7.32 4.32-10.71 6.634-3.4 2.315-6.61 4.729-9.63 7.233a114 114 0 0 0-8.5 7.774 101 101 0 0 0-7.29 8.253 89 89 0 0 0-6.03 8.674 78.5 78.5 0 0 0-4.71 9.036 71 71 0 0 0-3.34 9.337 66 66 0 0 0-1.9 9.58 62 62 0 0 0-.41 9.762c.12 3.278.5 6.577 1.15 9.886a67.5 67.5 0 0 0 2.75 9.95 73 73 0 0 0-5.73-5.583 85 85 0 0 0-6.46-5.089 93 93 0 0 0-7.13-4.582 106 106 0 0 0-7.7-4.065 120 120 0 0 0-8.23-3.533 131 131 0 0 0-8.68-2.993q-4.44-1.36-9.06-2.439a147 147 0 0 0-9.36-1.874 154 154 0 0 0-9.6-1.296c-3.23-.335-6.49-.572-9.77-.708a161 161 0 0 0-9.86-.108c-3.3.065-6.6.234-9.89.505-3.29.272-6.58.648-9.85 1.13-3.26.481-6.51 1.068-9.73 1.764-3.22.695-6.4 1.499-9.55 2.413-3.14.913-6.25 1.937-9.29 3.072-1.49.553-2.95 1.128-4.37 1.721a110.843 110.843 0 0 0-8.19 3.786q-1.95 1-3.81 2.054a92 92 0 0 0-3.62 2.156 90.807 90.807 0 0 0-6.67 4.59 86 86 0 0 0-3.04 2.426c-.98.822-1.93 1.657-2.84 2.506q-1.38 1.272-2.64 2.579a65 65 0 0 0-2.45 2.649c-.78.894-1.52 1.798-2.24 2.713a59 59 0 0 0-3.86 5.598 61 61 0 0 0-1.62 2.873c-.5.965-.97 1.938-1.4 2.917q-2.325-4.322-5.13-8.501a111 111 0 0 0-6.05-8.205 126 126 0 0 0-6.93-7.881c-2.45-2.57-5.05-5.081-7.78-7.529s-5.6-4.833-8.59-7.148a170 170 0 0 0-9.36-6.74 190 190 0 0 0-10.1-6.304 205 205 0 0 0-10.8-5.84 220 220 0 0 0-11.45-5.345 234 234 0 0 0-12.07-4.825 252 252 0 0 0-12.66-4.276 266 266 0 0 0-13.21-3.699 279 279 0 0 0-13.71-3.093q-6.975-1.391-14.19-2.46-7.2-1.068-14.61-1.797c-4.95-.486-9.95-.856-15.02-1.107-6.8-.338-13.55-.451-20.22-.35-6.68.099-13.28.414-19.8.933-6.51.518-12.94 1.241-19.26 2.158s-12.53 2.029-18.62 3.325a274 274 0 0 0-17.87 4.434 258 258 0 0 0-17.01 5.484 237 237 0 0 0-16.05 6.476 212 212 0 0 0-14.98 7.41c-4.8 2.619-9.41 5.385-13.81 8.286a170 170 0 0 0-12.52 9.104 148 148 0 0 0-11.13 9.864 127 127 0 0 0-9.64 10.565 112 112 0 0 0-8.03 11.208 98 98 0 0 0-6.33 11.793 88.6 88.6 0 0 0-4.5 12.319 84 84 0 0 0-2.59 12.788c-.06-2.194-.3-4.359-.7-6.492s-.97-4.231-1.69-6.293a46 46 0 0 0-2.63-6.063 53 53 0 0 0-3.52-5.799 60 60 0 0 0-4.36-5.507 69 69 0 0 0-5.14-5.182 80 80 0 0 0-5.88-4.826 90 90 0 0 0-6.57-4.439 99 99 0 0 0-7.2-4.02c-2.5-1.267-5.09-2.459-7.78-3.57a122 122 0 0 0-8.31-3.089c-2.86-.945-5.79-1.806-8.8-2.576-3-.769-6.08-1.448-9.22-2.031a148 148 0 0 0-9.6-1.455q-4.89-.58-9.93-.848a159 159 0 0 0-20.39.235c-3.35.256-6.64.617-9.88 1.078q-4.845.692-9.51 1.677c-3.1.655-6.14 1.405-9.1 2.243q-4.44 1.259-8.64 2.777t-8.13 3.279a106 106 0 0 0-7.57 3.747 95 95 0 0 0-6.97 4.184 84 84 0 0 0-6.31 4.588 73 73 0 0 0-5.6 4.959 67 67 0 0 0-4.85 5.297 58 58 0 0 0-4.04 5.604 50.5 50.5 0 0 0-3.19 5.878 46 46 0 0 0-2.28 6.119 43 43 0 0 0-1.33 6.328 41.4 41.4 0 0 0-.33 6.504 64 64 0 0 0-1.76-9.738 68 68 0 0 0-3.23-9.394 74 74 0 0 0-4.63-9.005 82 82 0 0 0-5.93-8.571 95 95 0 0 0-7.15-8.092 112 112 0 0 0-8.31-7.57 124 124 0 0 0-9.38-7.001 142 142 0 0 0-10.36-6.388 160 160 0 0 0-11.27-5.729 177 177 0 0 0-12.1-5.027 193 193 0 0 0-12.84-4.278c-4.4-1.296-8.91-2.461-13.52-3.485a218 218 0 0 0-14.09-2.647 228 228 0 0 0-14.61-1.764q-7.425-.655-15.03-.836a239 239 0 0 0-24.33.673c-2.95.234-5.88.522-8.77.862a221 221 0 0 0-16.96 2.658 210 210 0 0 0-16.11 3.835 192.466 192.466 0 0 0-15.13 4.932 184 184 0 0 0-7.17 2.851c-2.34.992-4.63 2.024-6.88 3.095a155.054 155.054 0 0 0-12.87 6.878 142 142 0 0 0-5.95 3.763 127 127 0 0 0-10.89 8.124 116 116 0 0 0-4.9 4.341l-.51-.778c-.17-.259-.34-.517-.52-.776l-.54-.771-.57-.767a36 36 0 0 0-1.19-1.523c-.2-.252-.41-.503-.62-.754-.22-.251-.43-.5-.65-.749-.22-.25-.44-.498-.67-.745l-.69-.739c-.23-.246-.47-.491-.71-.734-.24-.244-.49-.486-.74-.729-.25-.242-.5-.482-.76-.722q-.375-.36-.78-.717c-.26-.239-.53-.475-.8-.711a66.244 66.244 0 0 0-6.14-4.704 75 75 0 0 0-5.81-3.57 85 85 0 0 0-6.24-3.134 94 94 0 0 0-6.63-2.694c-2.26-.825-4.58-1.574-6.94-2.249-2.37-.676-4.78-1.275-7.22-1.8-2.45-.524-4.92-.973-7.43-1.343a123 123 0 0 0-7.58-.885q-3.825-.327-7.68-.42a126 126 0 0 0-15.43.571c-2.56.254-5.11.587-7.63 1.002-2.53.414-5.03.909-7.51 1.486q-3.705.864-7.32 1.974c-2.4.74-4.76 1.562-7.07 2.468a91 91 0 0 0-6.78 2.966c.62-4.341.88-8.652.81-12.919a81 81 0 0 0-1.21-12.663 84.5 84.5 0 0 0-3.14-12.336 92 92 0 0 0-4.99-11.94 103 103 0 0 0-6.75-11.477 117 117 0 0 0-8.41-10.943c-3.07-3.55-6.4-7.002-9.98-10.341s-7.4-6.566-11.46-9.669a174 174 0 0 0-12.86-8.93 199 199 0 0 0-14.16-8.121 218 218 0 0 0-15.38-7.243 240 240 0 0 0-16.5-6.294 258 258 0 0 0-17.53-5.28c-6-1.583-12.17-2.985-18.47-4.195a294 294 0 0 0-19.33-3.04 309 309 0 0 0-20.08-1.819c-6.82-.394-13.58-.564-20.28-.519-6.69.046-13.32.306-19.87.771-6.54.466-13 1.137-19.35 2.005-6.36.867-12.61 1.93-18.74 3.18a277 277 0 0 0-18.01 4.297 258 258 0 0 0-17.17 5.359 238 238 0 0 0-16.22 6.361 217 217 0 0 0-15.18 7.307 193 193 0 0 0-14.01 8.195 170 170 0 0 0-12.74 9.026 150 150 0 0 0-11.37 9.799 133 133 0 0 0-9.88 10.514c-3.03 3.617-5.8 7.345-8.28 11.172a98.5 98.5 0 0 0-6.58 11.772 91 91 0 0 0-4.78 12.317 86 86 0 0 0-2.85 12.801 38 38 0 0 0-2.64-4.344 44 44 0 0 0-3.26-4.074 49 49 0 0 0-3.82-3.788 57 57 0 0 0-4.343-3.489 64 64 0 0 0-4.817-3.175 73 73 0 0 0-5.247-2.847 81 81 0 0 0-5.632-2.503 89 89 0 0 0-5.97-2.145 97 97 0 0 0-6.263-1.774 102 102 0 0 0-6.511-1.386 106 106 0 0 0-6.714-.986 110 110 0 0 0-13.858-.709q-3.514.04-7.051.306-3.536.266-7.072.765t-7.05 1.239a100 100 0 0 0-6.817 1.685 92 92 0 0 0-6.393 2.076 84 84 0 0 0-5.945 2.435 75 75 0 0 0-5.475 2.767 67 67 0 0 0-4.982 3.07 60 60 0 0 0-4.466 3.344 52 52 0 0 0-3.928 3.589 46 46 0 0 0-3.367 3.804 41 41 0 0 0-2.783 3.992 36 36 0 0 0-2.175 4.15 32 32 0 0 0-1.547 4.279 30 30 0 0 0-.893 4.38 28.9 28.9 0 0 0 .26 8.945 31 31 0 0 0 1.201 4.508q.784 2.253 1.945 4.491a101 101 0 0 0-7.487-10.464 115 115 0 0 0-8.931-9.743 131 131 0 0 0-10.263-8.989 151 151 0 0 0-11.477-8.204 170 170 0 0 0-12.579-7.387 193 193 0 0 0-13.564-6.538 212 212 0 0 0-14.434-5.657 231 231 0 0 0-15.19-4.745 248 248 0 0 0-15.828-3.802 261 261 0 0 0-16.355-2.826 270 270 0 0 0-16.765-1.819 274 274 0 0 0-34.301-.489c-5.764.279-11.54.741-17.306 1.393a264 264 0 0 0-17.257 2.527 255 255 0 0 0-17.091 3.693 241 241 0 0 0-12.446 3.497 223 223 0 0 0-11.81 4.028 208 208 0 0 0-11.158 4.527 192 192 0 0 0-10.481 4.996 176 176 0 0 0-9.785 5.433 161 161 0 0 0-9.068 5.839 147 147 0 0 0-8.329 6.214 133 133 0 0 0-7.57 6.558 121 121 0 0 0-6.789 6.871 110 110 0 0 0-5.987 7.152 100 100 0 0 0-5.164 7.403 91 91 0 0 0-4.321 7.623 84 84 0 0 0-3.455 7.811 78 78 0 0 0-2.569 7.968 74 74 0 0 0-1.662 8.093 72 72 0 0 0-.733 8.189 88 88 0 0 0-4.402-5.844 96 96 0 0 0-4.995-5.62 106 106 0 0 0-5.565-5.382 116 116 0 0 0-6.111-5.123 128 128 0 0 0-6.632-4.848 139 139 0 0 0-7.129-4.554 150 150 0 0 0-7.6-4.242 161 161 0 0 0-8.049-3.914 173 173 0 0 0-8.472-3.568 184 184 0 0 0-8.871-3.202 194 194 0 0 0-9.246-2.82 205 205 0 0 0-9.597-2.42 214 214 0 0 0-9.923-2.002 219 219 0 0 0-10.225-1.566q-5.185-.672-10.503-1.114a237.157 237.157 0 0 0-26.042-.712c-5.041.14-10.022.441-14.933.895s-9.747 1.062-14.497 1.815a216 216 0 0 0-13.986 2.692 204 204 0 0 0-13.393 3.52 190 190 0 0 0-12.724 4.307 174 174 0 0 0-11.972 5.048 157 157 0 0 0-11.142 5.742 141 141 0 0 0-10.233 6.393 124 124 0 0 0-9.245 6.998 108 108 0 0 0-8.177 7.558 94 94 0 0 0-7.03 8.074 82 82 0 0 0-5.803 8.545 73 73 0 0 0-4.499 8.969 66 66 0 0 0-3.114 9.35 63 63 0 0 0-1.649 9.685 64.5 64.5 0 0 0-2.219-9.648 69 69 0 0 0-3.663-9.278 76 76 0 0 0-5.026-8.865 86 86 0 0 0-6.307-8.408 99 99 0 0 0-7.505-7.908 114 114 0 0 0-8.623-7.366 131 131 0 0 0-9.658-6.78 147 147 0 0 0-10.611-6.15 164 164 0 0 0-11.482-5.479 181 181 0 0 0-12.272-4.762 196 196 0 0 0-12.979-4.005 209 209 0 0 0-13.604-3.203 220 220 0 0 0-14.147-2.358 227 227 0 0 0-14.61-1.47 234.5 234.5 0 0 0-30.274-.105q-5.535.337-10.928.92-5.392.584-10.635 1.404a219 219 0 0 0-10.316 1.868q-5.077 1.048-9.974 2.313-4.9 1.264-9.608 2.737-4.71 1.472-9.216 3.143a178 178 0 0 0-8.8 3.529 166 166 0 0 0-8.358 3.895 154 154 0 0 0-7.894 4.243q-3.827 2.206-7.403 4.57a131 131 0 0 0-6.888 4.878 120 120 0 0 0-6.35 5.167 108 108 0 0 0-5.785 5.436 98 98 0 0 0-5.197 5.686 89 89 0 0 0-4.585 5.916 81 81 0 0 0-3.947 6.127 57 57 0 0 0-1.35-5.574 61 61 0 0 0-1.917-5.49 65 65 0 0 0-2.473-5.389 70 70 0 0 0-3.016-5.268 75 75 0 0 0-3.548-5.13 82 82 0 0 0-4.068-4.974 90 90 0 0 0-4.575-4.801 98 98 0 0 0-5.071-4.609 107 107 0 0 0-5.556-4.4 116 116 0 0 0-6.027-4.172 127 127 0 0 0-6.488-3.928 138 138 0 0 0-6.936-3.664 150 150 0 0 0-7.373-3.382 159 159 0 0 0-7.797-3.084 170 170 0 0 0-8.21-2.766 183 183 0 0 0-8.61-2.432 192 192 0 0 0-12.968-2.851 200 200 0 0 0-13.1-1.964c-4.38-.511-8.766-.876-13.145-1.103a208.772 208.772 0 0 0-26.076.285c-4.293.316-8.55.764-12.754 1.34a198 198 0 0 0-12.45 2.106c-4.09.827-8.113 1.778-12.056 2.849a177 177 0 0 0-11.575 3.568 163 163 0 0 0-11.008 4.264 147 147 0 0 0-10.351 4.934 131 131 0 0 0-9.607 5.582 115 115 0 0 0-8.777 6.206 101 101 0 0 0-7.856 6.807 88 88 0 0 0-6.849 7.382 78 78 0 0 0-5.756 7.936 200 200 0 0 0-13.289 2.269c-4.321.889-8.532 1.91-12.619 3.053a173 173 0 0 0-11.898 3.785 160 160 0 0 0-11.125 4.467 144 144 0 0 0-10.3 5.097 129 129 0 0 0-9.422 5.676 114 114 0 0 0-8.492 6.204 101 101 0 0 0-7.512 6.681 88 88 0 0 0-6.479 7.107 77 77 0 0 0-5.394 7.481 68 68 0 0 0-4.257 7.805 61 61 0 0 0-3.069 8.077 56.5 56.5 0 0 0-1.829 8.298 54.5 54.5 0 0 0 .272 17.055 58 58 0 0 0 2.204 8.655 63 63 0 0 0 2.397 6.051 67 67 0 0 0 3.029 5.839 73 73 0 0 0 3.631 5.616 79 79 0 0 0 4.206 5.38 87 87 0 0 0 4.752 5.135 96 96 0 0 0 5.269 4.876 106 106 0 0 0 5.755 4.606 118 118 0 0 0 6.215 4.326 127 127 0 0 0 6.645 4.033 140 140 0 0 0 7.047 3.728 151 151 0 0 0 7.418 3.412 161 161 0 0 0 7.764 3.085q3.963 1.46 8.078 2.745a179 179 0 0 0 8.363 2.396 189 189 0 0 0 8.621 2.033q4.372.924 8.85 1.66-5.258.632-10.407 1.499c-3.43.577-6.822 1.231-10.167 1.959a208 208 0 0 0-9.891 2.408 200 200 0 0 0-9.579 2.84 188 188 0 0 0-9.23 3.26 176 176 0 0 0-8.847 3.665q-4.321 1.931-8.424 4.056a151 151 0 0 0-7.966 4.432 137 137 0 0 0-7.473 4.795 124 124 0 0 0-6.943 5.144 112 112 0 0 0-6.374 5.477 101 101 0 0 0-5.773 5.798 91 91 0 0 0-5.132 6.104 83 83 0 0 0-4.457 6.396 77 77 0 0 0-3.746 6.674 71 71 0 0 0-2.995 6.937 65 65 0 0 0-2.738 9.552 61 61 0 0 0-1.19 9.496c-.146 3.15-.042 6.28.302 9.382a62 62 0 0 0 1.739 9.213 66.5 66.5 0 0 0 3.12 8.985 74 74 0 0 0 4.445 8.701 83 83 0 0 0 5.714 8.358 95 95 0 0 0 6.928 7.958 109 109 0 0 0 8.086 7.503 123 123 0 0 0 9.189 6.987 139 139 0 0 0 10.236 6.415 155 155 0 0 0 11.228 5.787 172 172 0 0 0 12.163 5.101 188 188 0 0 0 13.042 4.357 205 205 0 0 0 13.867 3.557 220 220 0 0 0 14.634 2.698 303 303 0 0 0-19.875-2.953 308 308 0 0 0-19.858-1.629 310 310 0 0 0-39.171.538 303 303 0 0 0-19.065 2.079 294 294 0 0 0-18.554 3.227 280 280 0 0 0-17.917 4.332 262 262 0 0 0-17.157 5.392 241 241 0 0 0-16.272 6.41 218 218 0 0 0-15.265 7.383 194 194 0 0 0-14.131 8.313 170 170 0 0 0-12.875 9.199 149 149 0 0 0-11.496 10.042 129 129 0 0 0-9.991 10.839 114 114 0 0 0-8.364 11.593 102 102 0 0 0-6.612 12.304 91.5 91.5 0 0 0-4.632 12.667 83.6 83.6 0 0 0-2.557 12.655 80.6 80.6 0 0 0-.548 12.566 81 81 0 0 0 1.392 12.398 86 86 0 0 0 3.262 12.15c1.392 4 3.083 7.945 5.064 11.824a105 105 0 0 0 6.797 11.418 119 119 0 0 0 8.461 10.934 136 136 0 0 0 10.058 10.371c3.612 3.353 7.476 6.6 11.586 9.727a175 175 0 0 0 13.044 9.007 197 197 0 0 0 14.434 8.205 220 220 0 0 0 15.756 7.326 242 242 0 0 0 17.008 6.367 264 264 0 0 0 18.192 5.33 296 296 0 0 0 19.323 4.202"/></g><defs><linearGradient id="b" x1="1861.28" x2="1861.28" y1="650.339" y2="-220.974" gradientUnits="userSpaceOnUse"><stop stop-color="#fff"/><stop offset=".097" stop-color="#fff"/><stop offset=".211" stop-color="#fff"/><stop offset=".33" stop-color="#A5CFF6"/><stop offset=".451" stop-color="#C6E1F9"/><stop offset=".576" stop-color="#DFEEFC"/><stop offset=".705" stop-color="#F1F7FE"/><stop offset=".842" stop-color="#FCFDFF"/><stop offset="1" stop-color="#fff"/></linearGradient><clipPath id="a"><path fill="#fff" d="M0 609h3919V0H0z"/></clipPath></defs></svg>