<svg width="169" height="98" viewBox="0 0 169 98" fill="none" xmlns="http://www.w3.org/2000/svg">
<path d="M123.807 1.75391C123.339 1.57154 122.827 1.53442 122.338 1.64746L122.095 1.71582L62.5184 21.9805L47.6942 14.4033L46.8641 13.9873C38.2579 9.75457 28.7957 7.65879 20.7264 8.29395L20.1561 8.34375C14.2877 8.90779 9.28665 10.9874 5.77625 14.5029L4.78796 15.4922V15.4932L4.65515 15.6357C4.5707 15.7347 4.49468 15.8404 4.42664 15.9512L4.33093 16.1211L3.69421 17.3672H3.69324L3.39148 17.9834C0.47879 24.1799 0.960042 31.1952 4.62488 37.3838L5.00183 37.999C8.39411 43.3649 13.9818 47.9711 21.8856 52.1172L22.6581 52.5176L93.7782 88.8721C105.149 94.6843 117.891 97.2562 130.626 96.3076V96.3066L133.169 96.1182L133.218 96.1143L133.374 96.0967V96.0977C141.093 95.2755 147.847 90.7727 151.578 84.0049L151.93 83.3428L166.864 54.127C167.492 52.8976 167.005 51.3911 165.775 50.7627L145.434 40.3652L145.289 40.2969C144.6 39.9989 143.814 40.0261 143.147 40.3711L143.007 40.4502L122.65 52.7178L111.868 47.2061L150.06 19.2285C151.562 18.1287 151.379 15.8324 149.722 14.9854L124.038 1.85742L123.807 1.75391Z" fill="#7CA640" stroke="#FBF9DC" stroke-width="3"/>
<path d="M125.456 85.9677C126.917 85.9681 128.38 85.9137 129.844 85.8046L132.232 85.6267C136.68 85.1532 140.528 82.5079 142.552 78.5487L153.376 57.3757C153.627 56.8839 153.432 56.2814 152.94 56.0301L145.113 52.0292C144.805 51.8719 144.438 51.8847 144.142 52.0632L123.547 64.4749C123.251 64.6533 122.883 64.6661 122.575 64.5088L93.305 49.5465C92.6421 49.2076 92.5686 48.2893 93.1692 47.8494L132.017 19.3912C132.617 18.9513 132.544 18.0329 131.881 17.6941L122.594 12.9468C122.387 12.841 122.146 12.8235 121.926 12.8983L62.0926 33.2504C61.8366 33.3375 61.5562 33.3172 61.3154 33.1941L42.9013 23.7813C31.2058 17.8028 18.1722 16.9955 13.2299 21.9447C13.1665 22.0081 13.1133 22.0813 13.0726 22.1612C11.428 25.3781 11.7161 28.9085 13.9051 32.3711C16.2871 36.139 20.8451 39.762 27.4527 43.1392L98.573 79.4943C106.916 83.7591 116.129 85.9677 125.456 85.9677ZM150.625 56.7789C151.116 57.0303 151.311 57.6327 151.06 58.1245L141.02 77.7658C139.261 81.206 135.918 83.5044 132.077 83.9133L129.717 84.0888C119.223 84.8706 108.725 82.7515 99.3562 77.9626L28.2359 41.6075C21.9067 38.3724 17.5748 34.9555 15.3597 31.4516C13.5525 28.5933 13.2529 25.8275 14.467 23.2261C14.5163 23.1203 14.585 23.0256 14.6716 22.9471C19.2293 18.8168 31.4127 19.8422 42.1184 25.313L61.2329 35.0842C61.44 35.19 61.6811 35.2075 61.9013 35.1327L121.735 14.7806C121.991 14.6935 122.271 14.7139 122.512 14.8369L128.613 17.9556C129.275 18.2945 129.349 19.2128 128.748 19.6528L89.9006 48.1109C89.3001 48.5508 89.3736 49.4692 90.0364 49.808L122.644 66.4762C122.952 66.6335 123.319 66.6207 123.616 66.4422L144.211 54.0306C144.507 53.8521 144.874 53.8393 145.182 53.9967L150.625 56.7789Z" fill="#FBF9DC"/>
</svg>
