<svg width="432" height="403" viewBox="0 0 432 403" fill="none" xmlns="http://www.w3.org/2000/svg">
<path d="M112.544 333.973C113.515 333.447 113.876 332.234 113.35 331.262C112.824 330.291 111.611 329.93 110.639 330.456L112.544 333.973ZM76.5779 270.541L76.5779 268.541L76.3161 268.541L76.0631 268.608L76.5779 270.541ZM60.3579 234.041L61.7142 235.511L62.0352 235.214L62.2035 234.811L60.3579 234.041ZM93.6149 212.541L93.6149 210.541L93.6149 212.541ZM111.592 229.541L113.26 230.644L113.335 230.53L113.394 230.407L111.592 229.541ZM76.5779 221.541L75.0565 222.839L76.5779 221.541ZM44.1146 145.041L42.1642 144.598L44.1146 145.041ZM70.3487 90.3327L68.8588 88.9985L70.3487 90.3327ZM150.76 62.4522L151.151 60.4907L150.76 62.4522ZM203.983 112.723L205.932 112.273L203.983 112.723ZM332.615 90.3326L331.375 88.7631L332.615 90.3326ZM400.734 89.213L401.906 87.5922L400.734 89.213ZM417.115 145.041L426.984 124.162L403.968 126.054L417.115 145.041ZM104.743 332.818C103.675 333.102 103.04 334.198 103.325 335.265C103.609 336.332 104.705 336.967 105.772 336.683L104.743 332.818ZM91.2958 336.865C92.3725 337.112 93.4452 336.439 93.6919 335.362C93.9385 334.286 93.2656 333.213 92.189 332.966L91.2958 336.865ZM80.4759 327.707C79.5619 327.087 78.3182 327.325 77.698 328.239C77.0779 329.153 77.3161 330.397 78.2302 331.017L80.4759 327.707ZM67.7624 321.466C68.4708 322.313 69.7321 322.426 70.5796 321.718C71.4272 321.009 71.54 319.748 70.8317 318.9L67.7624 321.466ZM63.8044 307.849C63.3417 306.846 62.1535 306.408 61.1505 306.871C60.1475 307.333 59.7095 308.522 60.1722 309.525L63.8044 307.849ZM56.3337 295.775C56.4326 296.875 57.4047 297.686 58.5048 297.587C59.6049 297.489 60.4165 296.517 60.3176 295.416L56.3337 295.775ZM62.3525 283.213C62.851 282.228 62.4562 281.025 61.4706 280.526C60.485 280.027 59.2817 280.422 58.7832 281.408L62.3525 283.213ZM69.2622 271.177C68.2792 271.681 67.8908 272.886 68.3947 273.869C68.8986 274.852 70.1039 275.241 71.0868 274.737L69.2622 271.177ZM81.549 273.222C82.6067 273.54 83.7221 272.94 84.0403 271.882C84.3584 270.825 83.7588 269.709 82.701 269.391L81.549 273.222ZM92.0616 277.822C91.6716 276.788 90.5176 276.267 89.4842 276.657C88.4508 277.047 87.9293 278.201 88.3193 279.234L92.0616 277.822ZM88.1536 287.936C87.6685 288.928 88.0798 290.126 89.0721 290.611C90.0645 291.096 91.2622 290.685 91.7473 289.692L88.1536 287.936ZM83.7461 297.349C84.7513 296.891 85.195 295.705 84.7372 294.7C84.2793 293.695 83.0933 293.251 82.0881 293.709L83.7461 297.349ZM73.5879 294.648C72.5021 294.445 71.4576 295.161 71.2549 296.247C71.0522 297.333 71.7681 298.377 72.8539 298.58L73.5879 294.648ZM63.079 294.304C63.9865 294.934 65.2326 294.708 65.8623 293.801C66.4919 292.893 66.2666 291.647 65.3591 291.017L63.079 294.304ZM57.1456 282.62C56.5465 281.692 55.3086 281.425 54.3806 282.025C53.4526 282.624 53.1859 283.862 53.785 284.79L57.1456 282.62ZM48.2605 269.784C48.4283 270.875 49.4494 271.624 50.5412 271.457C51.6329 271.289 52.3819 270.268 52.2141 269.176L48.2605 269.784ZM52.438 254.63C52.6311 253.542 51.906 252.504 50.8184 252.311C49.7308 252.118 48.6927 252.843 48.4996 253.931L52.438 254.63ZM53.9086 238.965C53.3411 239.913 53.6491 241.141 54.5967 241.708C55.5443 242.276 56.7726 241.968 57.3402 241.02L53.9086 238.965ZM64.6091 230.921C65.2937 230.054 65.146 228.797 64.2791 228.112C63.4123 227.427 62.1546 227.575 61.47 228.442L64.6091 230.921ZM69.1758 220.984C68.3047 221.663 68.1493 222.92 68.8285 223.791C69.5078 224.662 70.7645 224.818 71.6355 224.138L69.1758 220.984ZM79.9477 218.747C80.9237 218.23 81.2956 217.019 80.7784 216.043C80.2613 215.067 79.0508 214.695 78.0748 215.213L79.9477 218.747ZM88.0671 211.269C86.9939 211.53 86.3359 212.612 86.5975 213.686C86.859 214.759 87.941 215.417 89.0142 215.155L88.0671 211.269ZM100.747 215.319C101.823 215.565 102.896 214.893 103.143 213.816C103.39 212.74 102.717 211.667 101.64 211.42L100.747 215.319ZM114.703 221.682C114.451 220.606 113.375 219.938 112.3 220.19C111.224 220.441 110.556 221.517 110.808 222.592L114.703 221.682ZM106.876 231.771C105.992 232.434 105.813 233.687 106.475 234.571C107.138 235.455 108.391 235.634 109.275 234.972L106.876 231.771ZM97.8197 237.429C98.9076 237.621 99.9446 236.894 100.136 235.806C100.327 234.718 99.6006 233.681 98.5128 233.49L97.8197 237.429ZM89.6069 229.816C88.6641 229.241 87.4333 229.538 86.8577 230.481C86.2821 231.424 86.5798 232.655 87.5226 233.23L89.6069 229.816ZM78.9132 226.712C79.7314 227.454 80.9962 227.392 81.7383 226.574C82.4803 225.756 82.4185 224.491 81.6003 223.749L78.9132 226.712ZM73.548 214.78C72.8517 213.923 71.5921 213.792 70.7347 214.488C69.8772 215.185 69.7465 216.444 70.4428 217.302L73.548 214.78ZM61.68 205.82C62.3203 206.72 63.569 206.93 64.4691 206.29C65.3691 205.65 65.5796 204.401 64.9393 203.501L61.68 205.82ZM57.2239 191.647C56.6648 190.694 55.4394 190.375 54.4867 190.934C53.5341 191.493 53.2151 192.719 53.7742 193.672L57.2239 191.647ZM47.1486 180.703C47.5853 181.718 48.7617 182.187 49.7763 181.75C50.791 181.313 51.2595 180.137 50.8228 179.122L47.1486 180.703ZM46.4304 165.9C46.187 164.822 45.1162 164.146 44.0388 164.389C42.9614 164.633 42.2853 165.704 42.5287 166.781L46.4304 165.9ZM41.148 152.024C41.091 153.127 41.939 154.067 43.042 154.125C44.1451 154.182 45.0856 153.334 45.1427 152.231L41.148 152.024ZM47.8192 138.018C48.0828 136.945 47.4268 135.862 46.3542 135.599C45.2815 135.335 44.1983 135.991 43.9348 137.064L47.8192 138.018ZM48.2633 122.098C47.8961 123.139 48.443 124.282 49.4847 124.649C50.5265 125.016 51.6686 124.469 52.0358 123.427L48.2633 122.098ZM58.2592 109.785C58.8126 108.829 58.4862 107.606 57.5303 107.052C56.5744 106.499 55.3508 106.825 54.7974 107.781L58.2592 109.785ZM63.7875 94.9251C63.091 95.7824 63.2213 97.042 64.0786 97.7385C64.9359 98.435 66.1955 98.3047 66.892 97.4474L63.7875 94.9251ZM76.8936 86.5419C77.7053 85.7928 77.756 84.5275 77.0069 83.7158C76.2577 82.9041 74.9924 82.8534 74.1807 83.6025L76.8936 86.5419ZM86.1378 74.363C85.2101 74.9625 84.9441 76.2006 85.5437 77.1283C86.1433 78.056 87.3814 78.3219 88.3091 77.7223L86.1378 74.363ZM101.033 70.862C102.043 70.4151 102.5 69.234 102.053 68.2238C101.606 67.2137 100.425 66.7571 99.415 67.204L101.033 70.862ZM113.637 62.1857C112.57 62.4711 111.936 63.5674 112.222 64.6345C112.507 65.7016 113.603 66.3353 114.67 66.05L113.637 62.1857ZM128.875 63.4637C129.975 63.3576 130.78 62.3803 130.674 61.2809C130.568 60.1814 129.591 59.3761 128.491 59.4822L128.875 63.4637ZM143.629 59.4079C142.529 59.3076 141.556 60.118 141.456 61.218C141.355 62.318 142.166 63.291 143.266 63.3914L143.629 59.4079ZM156.091 65.7261C157.16 66.0041 158.252 65.363 158.53 64.294C158.808 63.225 158.167 62.133 157.098 61.8549L156.091 65.7261ZM168.708 65.6132C167.679 65.2112 166.519 65.7193 166.117 66.7481C165.715 67.7769 166.223 68.9368 167.252 69.3388L168.708 65.6132ZM177.873 74.2738C178.842 74.803 180.057 74.4459 180.587 73.4763C181.116 72.5068 180.759 71.2918 179.789 70.7627L177.873 74.2738ZM190.105 77.3688C189.221 76.7066 187.967 76.8866 187.305 77.7707C186.643 78.6548 186.823 79.9083 187.707 80.5704L190.105 77.3688ZM196.223 90.1662C196.673 91.1746 197.856 91.6267 198.865 91.176C199.873 90.7253 200.325 89.5425 199.874 88.534L196.223 90.1662ZM204.359 104.443C204.146 103.359 203.094 102.654 202.01 102.867C200.927 103.081 200.221 104.133 200.435 105.217L204.359 104.443ZM203.509 118.928C203.809 119.991 204.913 120.61 205.977 120.31C207.04 120.01 207.658 118.905 207.358 117.842L203.509 118.928ZM211.021 128.727C210.616 127.699 209.455 127.194 208.427 127.599C207.4 128.004 206.895 129.165 207.3 130.193L211.021 128.727ZM212.248 141.017C212.762 141.995 213.971 142.371 214.949 141.857C215.927 141.343 216.303 140.134 215.789 139.156L212.248 141.017ZM221.702 148.952C221.074 148.044 219.828 147.816 218.919 148.444C218.011 149.071 217.783 150.317 218.411 151.226L221.702 148.952ZM225.842 160.587C226.586 161.403 227.851 161.46 228.667 160.715C229.483 159.971 229.54 158.706 228.796 157.89L225.842 160.587ZM237.07 165.698C236.211 165.004 234.951 165.138 234.257 165.997C233.563 166.857 233.697 168.116 234.557 168.81L237.07 165.698ZM244.481 175.567C245.443 176.11 246.663 175.772 247.206 174.81C247.75 173.848 247.411 172.628 246.449 172.085L244.481 175.567ZM256.756 176.8C255.716 176.428 254.572 176.97 254.2 178.01C253.828 179.05 254.369 180.195 255.41 180.567L256.756 176.8ZM267.671 183.618C268.768 183.75 269.763 182.967 269.895 181.87C270.026 180.773 269.243 179.778 268.147 179.647L267.671 183.618ZM279.839 178.819C278.781 179.135 278.179 180.25 278.496 181.308C278.812 182.366 279.927 182.967 280.985 182.651L279.839 178.819ZM292.591 175.917C293.403 175.168 293.456 173.903 292.708 173.091C291.96 172.278 290.694 172.226 289.882 172.974L292.591 175.917ZM297.339 163.536C296.769 164.482 297.074 165.711 298.02 166.281C298.966 166.851 300.195 166.546 300.765 165.6L297.339 163.536ZM306.52 154.024C306.947 153.005 306.468 151.833 305.449 151.406C304.431 150.979 303.258 151.459 302.831 152.477L306.52 154.024ZM307.215 140.761C306.858 141.806 307.417 142.943 308.462 143.299C309.507 143.656 310.644 143.098 311.001 142.052L307.215 140.761ZM314.944 129.994C315.282 128.942 314.703 127.816 313.651 127.478C312.6 127.141 311.473 127.719 311.136 128.771L314.944 129.994ZM315.143 116.712C314.775 117.754 315.321 118.896 316.363 119.264C317.404 119.632 318.547 119.086 318.915 118.044L315.143 116.712ZM323.535 106.48C324.001 105.479 323.568 104.289 322.567 103.823C321.565 103.356 320.376 103.79 319.909 104.791L323.535 106.48ZM326.611 93.5661C325.921 94.4285 326.06 95.6871 326.923 96.3773C327.785 97.0674 329.044 96.9278 329.734 96.0654L326.611 93.5661ZM338.717 88.3596C339.635 87.7461 339.882 86.5042 339.269 85.5856C338.656 84.6671 337.414 84.4198 336.495 85.0332L338.717 88.3596ZM347.684 78.9976C346.663 79.4197 346.178 80.5893 346.6 81.6101C347.022 82.6308 348.191 83.1162 349.212 82.6941L347.684 78.9976ZM360.592 79.51C361.685 79.3488 362.44 78.3323 362.279 77.2395C362.118 76.1468 361.101 75.3916 360.008 75.5529L360.592 79.51ZM372.841 75.3822C371.745 75.2507 370.749 76.0331 370.618 77.1299C370.486 78.2266 371.268 79.2222 372.365 79.3537L372.841 75.3822ZM383.847 82.2021C384.881 82.5906 386.034 82.0672 386.423 81.0331C386.811 79.9991 386.288 78.846 385.254 78.4576L383.847 82.2021ZM396.643 84.0789C395.701 83.5022 394.469 83.7984 393.893 84.7405C393.316 85.6826 393.612 86.9138 394.554 87.4905L396.643 84.0789ZM403.901 95.8118C404.483 96.751 405.715 97.0411 406.655 96.4597C407.594 95.8783 407.884 94.6457 407.303 93.7065L403.901 95.8118ZM413.187 107.883C412.879 106.822 411.769 106.212 410.708 106.52C409.648 106.828 409.038 107.938 409.346 108.998L413.187 107.883ZM412.553 123.268C412.741 124.357 413.776 125.086 414.865 124.898C415.953 124.71 416.683 123.675 416.495 122.587L412.553 123.268ZM418.497 137.448C418.387 136.349 417.407 135.547 416.308 135.657C415.209 135.766 414.407 136.746 414.517 137.845L418.497 137.448ZM111.592 332.214L110.639 330.456C108.677 331.518 106.707 332.295 104.743 332.818L105.257 334.75L105.772 336.683C108.047 336.077 110.311 335.182 112.544 333.973L111.592 332.214ZM91.7424 334.916L92.189 332.966C88.117 332.034 84.1566 330.204 80.4759 327.707L79.3531 329.362L78.2302 331.017C82.2557 333.748 86.6687 335.805 91.2958 336.865L91.7424 334.916ZM69.2971 320.183L70.8317 318.9C67.9865 315.496 65.5945 311.73 63.8044 307.849L61.9883 308.687L60.1722 309.525C62.1146 313.735 64.6983 317.799 67.7624 321.466L69.2971 320.183ZM58.3257 295.596L60.3176 295.416C59.9164 290.954 60.5483 286.78 62.3525 283.213L60.5678 282.311L58.7832 281.408C56.5743 285.774 55.8799 290.729 56.3337 295.775L58.3257 295.596ZM70.1745 272.957L71.0868 274.737C72.8327 273.842 74.8271 273.077 77.0926 272.473L76.5779 270.541L76.0631 268.608C73.5498 269.278 71.2855 270.14 69.2622 271.177L70.1745 272.957ZM76.5779 270.541L76.5779 272.541C78.3587 272.541 80.0393 272.768 81.549 273.222L82.125 271.306L82.701 269.391C80.7655 268.809 78.6905 268.541 76.5779 268.541L76.5779 270.541ZM90.1905 278.528L88.3193 279.234C88.8195 280.559 89.1149 282.149 89.1149 284.041L91.1149 284.041L93.1149 284.041C93.1149 281.73 92.7536 279.655 92.0616 277.822L90.1905 278.528ZM91.1149 284.041L89.1149 284.041C89.1149 285.293 88.7926 286.629 88.1536 287.936L89.9504 288.814L91.7473 289.692C92.6205 287.906 93.1149 285.973 93.1149 284.041L91.1149 284.041ZM82.9171 295.529L82.0881 293.709C79.7121 294.791 76.8264 295.252 73.5879 294.648L73.2209 296.614L72.8539 298.58C76.9059 299.336 80.6265 298.77 83.7461 297.349L82.9171 295.529ZM64.219 292.661L65.3591 291.017C64.1691 290.192 62.9522 289.216 61.7158 288.072L60.3579 289.541L59 291.009C60.3637 292.27 61.7253 293.365 63.079 294.304L64.219 292.661ZM60.3579 289.541L61.7158 288.072C59.9376 286.428 58.4206 284.595 57.1456 282.62L55.4653 283.705L53.785 284.79C55.2336 287.034 56.9646 289.127 59 291.009L60.3579 289.541ZM50.2373 269.48L52.2141 269.176C51.4722 264.35 51.5995 259.354 52.438 254.63L50.4688 254.28L48.4996 253.931C47.5905 259.052 47.4468 264.49 48.2605 269.784L50.2373 269.48ZM55.6244 239.993L57.3402 241.02C58.6435 238.844 60.1192 236.982 61.7142 235.511L60.3579 234.041L59.0016 232.571C57.081 234.343 55.3741 236.518 53.9086 238.965L55.6244 239.993ZM60.3579 234.041L62.2035 234.811C62.6929 233.639 63.5016 232.324 64.6091 230.921L63.0396 229.682L61.47 228.442C60.2128 230.034 59.1827 231.664 58.5122 233.27L60.3579 234.041ZM70.4057 222.561L71.6355 224.138C74.1952 222.142 77.0432 220.286 79.9477 218.747L79.0112 216.98L78.0748 215.213C74.9585 216.864 71.9147 218.848 69.1758 220.984L70.4057 222.561ZM88.5406 213.212L89.0142 215.155C90.6756 214.75 92.2231 214.541 93.6149 214.541L93.6149 212.541L93.6149 210.541C91.8347 210.541 89.9631 210.807 88.0671 211.269L88.5406 213.212ZM93.6149 212.541L93.6149 214.541C96.0455 214.541 98.4879 214.801 100.747 215.319L101.194 213.369L101.64 211.42C99.0645 210.829 96.3206 210.541 93.6149 210.541L93.6149 212.541ZM112.755 222.137L110.808 222.592C111.174 224.159 110.999 226.155 109.789 228.675L111.592 229.541L113.394 230.407C114.901 227.269 115.323 224.335 114.703 221.682L112.755 222.137ZM111.592 229.541L109.923 228.438C108.957 229.9 107.928 230.982 106.876 231.771L108.075 233.372L109.275 234.972C110.739 233.875 112.073 232.44 113.26 230.644L111.592 229.541ZM98.1662 235.46L98.5128 233.49C95.583 232.974 92.5166 231.593 89.6069 229.816L88.5647 231.523L87.5226 233.23C90.6631 235.147 94.2129 236.795 97.8197 237.429L98.1662 235.46ZM80.2567 225.23L81.6003 223.749C79.9086 222.215 78.6807 220.924 78.0993 220.243L76.5779 221.541L75.0565 222.839C75.7744 223.68 77.1288 225.094 78.9132 226.712L80.2567 225.23ZM76.5779 221.541L78.0993 220.243C76.6268 218.517 75.1007 216.692 73.548 214.78L71.9954 216.041L70.4428 217.302C72.0189 219.242 73.5661 221.092 75.0565 222.839L76.5779 221.541ZM63.3096 204.66L64.9393 203.501C62.2474 199.717 59.6293 195.745 57.2239 191.647L55.4991 192.659L53.7742 193.672C56.2487 197.888 58.9328 201.959 61.68 205.82L63.3096 204.66ZM48.9857 179.913L50.8228 179.122C48.9381 174.743 47.4275 170.314 46.4304 165.9L44.4795 166.34L42.5287 166.781C43.5895 171.477 45.1854 176.142 47.1486 180.703L48.9857 179.913ZM43.1454 152.127L45.1427 152.231C45.2604 149.955 45.5612 147.704 46.065 145.484L44.1146 145.041L42.1642 144.598C41.607 147.054 41.2769 149.533 41.148 152.024L43.1454 152.127ZM44.1146 145.041L46.065 145.484C46.6626 142.85 47.2413 140.37 47.8192 138.018L45.877 137.541L43.9348 137.064C43.3493 139.447 42.765 141.951 42.1642 144.598L44.1146 145.041ZM50.1496 122.763L52.0358 123.427C53.7475 118.571 55.7218 114.168 58.2592 109.785L56.5283 108.783L54.7974 107.781C52.1217 112.403 50.0475 117.036 48.2633 122.098L50.1496 122.763ZM65.3398 96.1862L66.892 97.4474C68.4014 95.5895 70.0439 93.6712 71.8387 91.6669L70.3487 90.3327L68.8588 88.9985C67.0272 91.0439 65.3425 93.0111 63.7875 94.9251L65.3398 96.1862ZM70.3487 90.3327L71.8387 91.6669C73.4279 89.8922 75.1165 88.1821 76.8936 86.5419L75.5372 85.0722L74.1807 83.6025C72.3135 85.3259 70.5354 87.1261 68.8588 88.9985L70.3487 90.3327ZM87.2234 76.0426L88.3091 77.7223C92.3343 75.1207 96.6034 72.8218 101.033 70.862L100.224 69.033L99.415 67.204C94.7972 69.2469 90.3428 71.6451 86.1378 74.363L87.2234 76.0426ZM114.154 64.1179L114.67 66.05C119.362 64.7956 124.125 63.9221 128.875 63.4637L128.683 61.473L128.491 59.4822C123.513 59.9626 118.532 60.8768 113.637 62.1857L114.154 64.1179ZM143.448 61.3996L143.266 63.3914C145.666 63.6103 148.038 63.9496 150.37 64.4138L150.76 62.4522L151.151 60.4907C148.675 59.9981 146.164 59.6391 143.629 59.4079L143.448 61.3996ZM150.76 62.4522L150.37 64.4138C152.278 64.7933 154.187 65.2308 156.091 65.7261L156.595 63.7905L157.098 61.8549C155.119 61.34 153.134 60.8853 151.151 60.4907L150.76 62.4522ZM167.98 67.476L167.252 69.3388C170.893 70.7618 174.452 72.4071 177.873 74.2738L178.831 72.5183L179.789 70.7627C176.212 68.8108 172.499 67.0948 168.708 65.6132L167.98 67.476ZM188.906 78.9696L187.707 80.5704C189.267 81.7389 190.777 82.9633 192.229 84.2434L193.552 82.7431L194.874 81.2427C193.339 79.8899 191.747 78.5987 190.105 77.3688L188.906 78.9696ZM193.552 82.7431L192.229 84.2434C193.768 85.6 195.088 87.6271 196.223 90.1662L198.048 89.3501L199.874 88.534C198.617 85.7201 197.008 83.1241 194.874 81.2427L193.552 82.7431ZM202.397 104.83L200.435 105.217C201.004 108.103 201.513 110.913 202.034 113.173L203.983 112.723L205.932 112.273C205.429 110.096 204.949 107.43 204.359 104.443L202.397 104.83ZM203.983 112.723L202.034 113.173C202.479 115.099 202.97 117.019 203.509 118.928L205.433 118.385L207.358 117.842C206.837 115.996 206.362 114.138 205.932 112.273L203.983 112.723ZM209.16 129.46L207.3 130.193C208.757 133.893 210.406 137.513 212.248 141.017L214.018 140.087L215.789 139.156C214.017 135.786 212.428 132.298 211.021 128.727L209.16 129.46ZM220.056 150.089L218.411 151.226C220.684 154.516 223.16 157.65 225.842 160.587L227.319 159.238L228.796 157.89C226.242 155.094 223.878 152.103 221.702 148.952L220.056 150.089ZM235.813 167.254L234.557 168.81C237.657 171.314 240.965 173.579 244.481 175.567L245.465 173.826L246.449 172.085C243.132 170.209 240.006 168.069 237.07 165.698L235.813 167.254ZM256.083 178.683L255.41 180.567C257.278 181.235 259.192 181.83 261.153 182.35L261.665 180.416L262.177 178.483C260.325 177.992 258.518 177.43 256.756 176.8L256.083 178.683ZM261.665 180.416L261.153 182.35C263.418 182.949 265.589 183.369 267.671 183.618L267.909 181.633L268.147 179.647C266.265 179.422 264.277 179.039 262.177 178.483L261.665 180.416ZM280.412 180.735L280.985 182.651C285.439 181.319 289.266 178.977 292.591 175.917L291.236 174.445L289.882 172.974C286.944 175.678 283.639 177.682 279.839 178.819L280.412 180.735ZM299.052 164.568L300.765 165.6C302.911 162.037 304.801 158.124 306.52 154.024L304.676 153.251L302.831 152.477C301.162 156.458 299.356 160.186 297.339 163.536L299.052 164.568ZM309.108 141.407L311.001 142.052C312.364 138.056 313.661 133.99 314.944 129.994L313.04 129.382L311.136 128.771C309.848 132.781 308.564 136.806 307.215 140.761L309.108 141.407ZM317.029 117.378L318.915 118.044C320.37 113.924 321.883 110.027 323.535 106.48L321.722 105.636L319.909 104.791C318.183 108.498 316.621 112.527 315.143 116.712L317.029 117.378ZM328.173 94.8158L329.734 96.0654C331.029 94.4476 332.397 93.0531 333.854 91.9022L332.615 90.3326L331.375 88.7631C329.641 90.1325 328.062 91.7528 326.611 93.5661L328.173 94.8158ZM332.615 90.3326L333.854 91.9022C335.473 90.6238 337.094 89.4433 338.717 88.3596L337.606 86.6964L336.495 85.0332C334.78 86.1787 333.073 87.4221 331.375 88.7631L332.615 90.3326ZM348.448 80.8459L349.212 82.6941C353.002 81.1269 356.798 80.0699 360.592 79.51L360.3 77.5315L360.008 75.5529C355.872 76.1631 351.761 77.3119 347.684 78.9976L348.448 80.8459ZM372.603 77.368L372.365 79.3537C376.177 79.8109 380.006 80.7595 383.847 82.2021L384.55 80.3299L385.254 78.4576C381.132 76.9096 376.992 75.8798 372.841 75.3822L372.603 77.368ZM395.598 85.7847L394.554 87.4905C396.223 88.5119 397.893 89.6262 399.563 90.8337L400.734 89.213L401.906 87.5922C400.157 86.3277 398.403 85.1563 396.643 84.0789L395.598 85.7847ZM400.734 89.213L399.563 90.8337C401.087 91.9362 402.54 93.6122 403.901 95.8118L405.602 94.7591L407.303 93.7065C405.77 91.2299 403.989 89.098 401.906 87.5922L400.734 89.213ZM411.266 108.44L409.346 108.998C410.668 113.549 411.722 118.456 412.553 123.268L414.524 122.928L416.495 122.587C415.646 117.675 414.562 112.615 413.187 107.883L411.266 108.44Z" fill="#046858"/>
<path d="M269.317 61.2922C300.48 44.882 339.137 56.5389 355.989 87.5818C366.349 106.665 366.073 128.669 357.19 146.775L357.191 146.776C357.101 146.962 357.01 147.143 356.922 147.317L356.923 147.318C351.22 158.675 342.103 168.467 330.092 174.988C318.265 181.408 305.308 183.746 292.853 182.476L292.277 182.415L292.269 182.414C272.021 180.163 253.15 168.365 242.687 149.092C225.702 117.804 237.295 78.6706 268.583 61.6853L269.317 61.2922Z" fill="#046858" stroke="#FBF9DC" stroke-width="6"/>
<path d="M331.958 104.919L338.733 117.405L354.241 145.971C348.804 156.799 340.116 166.132 328.66 172.351C317.38 178.475 305.03 180.702 293.155 179.491C292.971 179.473 292.786 179.453 292.6 179.433L277.087 150.856L270.312 138.369L287.106 115.431L282.573 107.078C281.539 105.173 280.837 102.292 280.738 99.5599C280.653 97.1659 281.027 92.8652 284.497 90.9831C287.968 89.1002 291.776 91.129 293.737 92.5063C295.974 94.0782 298.006 96.2366 299.04 98.1417L303.573 106.497L331.958 104.919Z" fill="#FDFDFD" fill-opacity="0.8"/>
<path d="M332.514 150.04L320.565 151.826L321.391 154.641L317.814 156.582L315.882 154.347L307.837 163.431L305.39 158.92L305.437 158.767L309.17 146.579L306.644 143.656L298.677 128.975L278.767 146.172L275.312 139.804L292.107 116.866L286.452 106.446C285.699 105.056 285.141 102.694 285.065 100.566C284.97 97.9126 285.616 96.072 286.884 95.3836C288.152 94.6952 290.048 95.1562 292.221 96.6823C293.964 97.9059 295.641 99.6615 296.395 101.051L302.049 111.471L330.434 109.893L333.889 116.261L308.619 123.58L316.586 138.261L317.676 141.976L330.066 145.53L332.514 150.04ZM319.586 151.2L331.323 149.446L329.548 146.175L317.062 142.595L315.876 138.554L307.496 123.11L332.766 115.791L329.994 110.682L301.609 112.26L295.724 101.415C295.032 100.14 293.411 98.4509 291.783 97.3071C289.887 95.9759 288.235 95.5192 287.249 96.0542C286.263 96.5893 285.745 98.2237 285.828 100.538C285.899 102.527 286.432 104.807 287.123 106.081L293.009 116.927L276.214 139.865L278.986 144.974L298.896 127.776L307.276 143.219L310.023 146.399L309.962 146.601L306.214 158.837L307.989 162.108L315.89 153.187L317.99 155.618L320.485 154.264L319.586 151.2Z" fill="#2A2A2A"/>
<path d="M319.586 151.2L331.323 149.446L329.548 146.175L317.062 142.595L315.876 138.554L307.496 123.11L332.766 115.791L329.994 110.682L301.609 112.26L295.724 101.415C295.032 100.14 293.411 98.4509 291.783 97.3071C289.887 95.9759 288.235 95.5192 287.249 96.0542C286.263 96.5893 285.745 98.2237 285.828 100.538C285.899 102.527 286.432 104.807 287.123 106.081L293.009 116.927L276.214 139.865L278.986 144.974L298.896 127.776L307.276 143.219L310.023 146.399L309.962 146.601L306.214 158.837L307.989 162.108L315.89 153.187L317.99 155.618L320.485 154.264L319.586 151.2Z" fill="#6FA553"/>
<path d="M253.04 135.785L253.978 138.612L252.451 139.118L249.298 129.611L250.824 129.105L251.762 131.932L260.149 129.149L261.427 133.003L253.04 135.785Z" fill="white"/>
<path d="M248.592 125.915L248.315 119.901C248.28 119.125 248.331 118.442 248.467 117.852C248.605 117.262 248.811 116.765 249.088 116.361C249.365 115.957 249.705 115.647 250.107 115.431C250.51 115.216 250.959 115.097 251.455 115.074C252.068 115.046 252.618 115.166 253.106 115.434C253.594 115.703 253.992 116.116 254.299 116.673L258.513 114.286L258.724 118.868L255.01 120.698L255.05 121.554L258.832 121.38L259.018 125.436L248.592 125.915ZM253.769 121.367C253.754 121.034 253.693 120.74 253.588 120.482C253.482 120.224 253.34 120.008 253.161 119.834C252.981 119.659 252.772 119.528 252.531 119.441C252.29 119.353 252.03 119.316 251.749 119.329C251.468 119.342 251.212 119.403 250.98 119.512C250.749 119.621 250.552 119.77 250.389 119.961C250.227 120.151 250.105 120.379 250.023 120.646C249.942 120.912 249.909 121.211 249.924 121.543L249.935 121.782L253.78 121.612L253.769 121.367Z" fill="white"/>
<path d="M251.951 108.294L249.099 108.81L250.161 104.666L261.549 102.307L260.41 106.75L258.598 107.083L257.576 111.07L259.005 112.227L258.564 113.948L251.951 108.294ZM256.857 107.398L253.753 107.965L256.203 109.95L256.857 107.398Z" fill="white"/>
<path d="M252.53 97.3045L254.765 93.4614L261.793 94.7214L257.132 89.3935L258.047 87.8054L265.236 96.2206L263.566 99.0767L252.53 97.3045Z" fill="white"/>
<path d="M260.365 85.1184L266.612 78.8886L267.747 80.0275L264.381 83.3854L266.365 85.3847L268.941 82.8153L270.077 83.9542L267.501 86.5236L269.475 88.5029L272.847 85.1399L273.982 86.2788L267.736 92.5087L260.365 85.1184Z" fill="white"/>
<path d="M269.87 76.5234L273.35 74.4173L277.916 81.9738L281.329 79.9078L282.162 81.2838L275.276 85.4523L269.87 76.5234Z" fill="white"/>
<path d="M284.593 69.431L288.53 68.4106L291.142 78.5162L287.212 79.5348L284.593 69.431Z" fill="white"/>
<path d="M293.301 75.6335C293.807 75.8653 294.335 76.0331 294.883 76.1368C295.431 76.2405 295.938 76.2825 296.406 76.2629C296.944 76.2405 297.335 76.1467 297.579 75.9819C297.823 75.8172 297.939 75.6013 297.928 75.3345C297.925 75.2505 297.906 75.1645 297.872 75.077C297.838 74.9895 297.775 74.9041 297.685 74.8211C297.595 74.738 297.472 74.6566 297.317 74.5762C297.161 74.496 296.96 74.4188 296.713 74.3448L295.439 73.9692C294.528 73.6978 293.834 73.3086 293.358 72.8011C292.883 72.2938 292.629 71.6776 292.599 70.9524C292.58 70.4846 292.659 70.03 292.837 69.5891C293.016 69.1482 293.297 68.7544 293.681 68.408C294.065 68.0615 294.556 67.7773 295.153 67.5555C295.751 67.3337 296.457 67.2058 297.271 67.1717C297.673 67.1549 298.06 67.1622 298.432 67.1935C298.803 67.2249 299.153 67.2712 299.481 67.3324C299.81 67.3937 300.112 67.4667 300.387 67.5513C300.662 67.6359 300.905 67.7207 301.115 67.8055L300.414 69.2057C300.26 69.1185 300.099 69.0431 299.93 68.9798C299.761 68.9166 299.592 68.8651 299.424 68.8251C299.256 68.7854 299.092 68.7571 298.932 68.7403C298.772 68.7236 298.627 68.718 298.496 68.7234C298.271 68.7327 298.076 68.7703 297.91 68.8357C297.744 68.9013 297.605 68.9844 297.495 69.0851C297.384 69.1859 297.302 69.2971 297.249 69.4187C297.195 69.5404 297.171 69.6599 297.176 69.7768C297.18 69.8798 297.209 69.9781 297.262 70.072C297.315 70.1658 297.403 70.256 297.526 70.3421C297.649 70.4284 297.81 70.513 298.008 70.5961C298.206 70.6793 298.452 70.7638 298.746 70.85L299.6 71.0956C300.525 71.3616 301.24 71.7512 301.744 72.2644C302.248 72.7775 302.516 73.4133 302.548 74.171C302.569 74.6857 302.473 75.1653 302.26 75.6102C302.047 76.055 301.717 76.4447 301.272 76.7798C300.827 77.1148 300.267 77.3843 299.594 77.5881C298.92 77.792 298.135 77.9128 297.236 77.9502C296.806 77.9683 296.39 77.9634 295.988 77.9357C295.586 77.908 295.192 77.8577 294.807 77.7846C294.422 77.7118 294.042 77.6151 293.667 77.495C293.292 77.3748 292.915 77.2312 292.538 77.064L293.301 75.6335Z" fill="white"/>
<path d="M311.236 68.5883L315.117 69.8041L312.471 78.2275L316.278 79.4201L315.797 80.9551L308.115 78.5486L311.236 68.5883Z" fill="white"/>
<path d="M321.767 72.4509L325.348 74.3783L320.395 83.5657L316.82 81.6418L321.767 72.4509Z" fill="white"/>
<path d="M328.985 76.6163L335.577 82.0803L334.55 83.3187L331.089 80.4499L329.152 82.7764L331.694 84.8829L330.667 86.1213L328.126 84.0147L325.45 87.2432L322.324 84.6525L328.985 76.6163Z" fill="white"/>
<path d="M338.076 84.8501L343.283 91.9719L341.984 92.9211L339.178 89.0824L336.9 90.739L339.047 93.6761L337.749 94.6253L335.602 91.6882L333.345 93.3381L336.155 97.1824L334.857 98.1318L329.65 91.0098L338.076 84.8501Z" fill="white"/>
<path d="M261.978 144.838L264.354 146.3C264.454 146.362 264.569 146.395 264.686 146.398L267.476 146.467C267.988 146.479 268.293 147.042 268.025 147.478L266.562 149.855C266.501 149.955 266.467 150.069 266.464 150.186L266.396 152.976C266.383 153.488 265.82 153.794 265.384 153.525L263.008 152.063C262.908 152.001 262.793 151.967 262.676 151.964L259.886 151.896C259.374 151.884 259.069 151.321 259.337 150.885L260.8 148.508C260.861 148.408 260.895 148.294 260.898 148.176L260.966 145.387C260.979 144.875 261.541 144.569 261.978 144.838Z" fill="#EFCD41"/>
<path d="M343.801 100.42L346.177 101.882C346.277 101.944 346.392 101.978 346.509 101.98L349.299 102.049C349.811 102.061 350.116 102.624 349.848 103.06L348.386 105.437C348.324 105.537 348.29 105.651 348.287 105.768L348.219 108.558C348.207 109.07 347.643 109.376 347.207 109.107L344.831 107.645C344.731 107.583 344.616 107.549 344.499 107.547L341.71 107.478C341.198 107.466 340.892 106.903 341.16 106.467L342.623 104.09C342.684 103.99 342.718 103.876 342.721 103.758L342.789 100.969C342.802 100.457 343.365 100.151 343.801 100.42Z" fill="#EFCD41"/>
<path d="M279.212 145.39L278.541 145.754L297.11 179.959L297.781 179.595L279.212 145.39Z" fill="#2A2A2A"/>
<path d="M333.663 115.847L332.992 116.211L351.556 150.406L352.227 150.042L333.663 115.847Z" fill="#2A2A2A"/>
<path d="M308.249 162.585L307.578 162.949L315.592 177.711L316.263 177.346L308.249 162.585Z" fill="#2A2A2A"/>
<path d="M332.254 149.561L331.583 149.926L339.596 164.686L340.267 164.322L332.254 149.561Z" fill="#2A2A2A"/>
</svg>
