<svg width="686" height="138" viewBox="0 0 686 138" fill="none" xmlns="http://www.w3.org/2000/svg">
<path d="M0.412551 93.7926C-0.259334 94.6693 -0.0932784 95.9247 0.783446 96.5966C1.66017 97.2685 2.91557 97.1024 3.58745 96.2257L0.412551 93.7926ZM185.422 22.0697L186.849 20.6684L185.422 22.0697ZM436.115 95.0092L437.126 96.7344L436.115 95.0092ZM681 138L685.616 115.372L663.712 122.688L681 138ZM8.45069 90.0551C9.14563 89.1965 9.01299 87.9371 8.15443 87.2422C7.29587 86.5473 6.03651 86.6799 5.34156 87.5385L8.45069 90.0551ZM15.6964 75.3539C14.962 76.1788 15.0353 77.443 15.8603 78.1775C16.6853 78.912 17.9495 78.8387 18.684 78.0137L15.6964 75.3539ZM29.4588 66.4401C30.2292 65.6486 30.2121 64.3824 29.4205 63.612C28.629 62.8415 27.3628 62.8587 26.5924 63.6502L29.4588 66.4401ZM37.9888 52.4602C37.1829 53.2156 37.1421 54.4813 37.8975 55.2872C38.6529 56.093 39.9186 56.1339 40.7244 55.3785L37.9888 52.4602ZM52.5043 44.868C53.3471 44.1539 53.4513 42.8919 52.7373 42.0492C52.0232 41.2065 50.7612 41.1022 49.9185 41.8162L52.5043 44.868ZM62.4134 31.8158C61.5311 32.4803 61.3545 33.7343 62.019 34.6166C62.6835 35.4989 63.9374 35.6755 64.8198 35.0111L62.4134 31.8158ZM77.7092 25.957C78.635 25.3545 78.897 24.1155 78.2944 23.1898C77.6919 22.264 76.453 22.0021 75.5272 22.6046L77.7092 25.957ZM89.328 14.4023C88.3546 14.9244 87.9887 16.1367 88.5107 17.1101C89.0328 18.0835 90.2451 18.4494 91.2185 17.9273L89.328 14.4023ZM105.381 11.2524C106.406 10.8388 106.901 9.67327 106.487 8.64904C106.073 7.62481 104.908 7.12976 103.884 7.54331L105.381 11.2524ZM119.247 2.52764C118.175 2.79094 117.518 3.87401 117.782 4.94674C118.045 6.01946 119.128 6.67563 120.201 6.41233L119.247 2.52764ZM135.514 4.09262C136.617 4.03601 137.465 3.09587 137.408 1.99275C137.352 0.889633 136.412 0.04127 135.309 0.0978788L135.514 4.09262ZM151.591 1.14831C150.506 0.942846 149.459 1.65609 149.254 2.74138C149.048 3.82668 149.762 4.87304 150.847 5.0785L151.591 1.14831ZM165.381 9.86716C166.376 10.3474 167.572 9.93037 168.052 8.93567C168.532 7.94097 168.115 6.74528 167.12 6.26503L165.381 9.86716ZM180.846 15.142C179.996 14.4375 178.735 14.5562 178.03 15.4069C177.326 16.2577 177.445 17.5185 178.295 18.2229L180.846 15.142ZM189.113 28.7095C189.883 29.5013 191.149 29.5188 191.941 28.7487C192.733 27.9785 192.751 26.7123 191.98 25.9205L189.113 28.7095ZM202.177 36.4599C201.41 35.6649 200.144 35.6422 199.349 36.4091C198.554 37.176 198.531 38.4421 199.298 39.2371L202.177 36.4599ZM209.486 49.7732C210.256 50.5653 211.522 50.5835 212.314 49.8137C213.106 49.0439 213.124 47.7777 212.355 46.9855L209.486 49.7732ZM222.612 57.4286C221.833 56.6459 220.566 56.6432 219.784 57.4226C219.001 58.202 218.998 59.4683 219.778 60.251L222.612 57.4286ZM230.247 70.5548C231.043 71.3203 232.309 71.2953 233.075 70.499C233.84 69.7026 233.815 68.4366 233.019 67.6711L230.247 70.5548ZM243.693 77.6192C242.872 76.8803 241.608 76.9471 240.869 77.7682C240.13 78.5893 240.197 79.8539 241.018 80.5927L243.693 77.6192ZM252.195 90.2167C253.049 90.9171 254.309 90.7924 255.009 89.9382C255.71 89.0841 255.585 87.8239 254.731 87.1236L252.195 90.2167ZM266.226 96.003C265.331 95.3558 264.08 95.5568 263.433 96.452C262.786 97.3471 262.987 98.5974 263.882 99.2445L266.226 96.003ZM276.189 107.46C277.132 108.036 278.363 107.739 278.938 106.796C279.514 105.853 279.217 104.622 278.274 104.047L276.189 107.46ZM290.949 111.006C289.956 110.523 288.759 110.936 288.276 111.929C287.793 112.922 288.206 114.119 289.199 114.603L290.949 111.006ZM302.904 120.367C303.945 120.736 305.089 120.192 305.458 119.151C305.827 118.11 305.283 116.966 304.242 116.597L302.904 120.367ZM318.071 120.57C316.993 120.332 315.925 121.014 315.687 122.092C315.449 123.171 316.131 124.238 317.209 124.476L318.071 120.57ZM331.925 126.749C333.026 126.847 333.997 126.035 334.096 124.935C334.194 123.835 333.382 122.863 332.282 122.765L331.925 126.749ZM346.685 123.151C345.581 123.189 344.717 124.115 344.754 125.218C344.792 126.322 345.718 127.187 346.822 127.149L346.685 123.151ZM361.612 125.793C362.705 125.632 363.46 124.616 363.299 123.523C363.138 122.43 362.122 121.675 361.029 121.836L361.612 125.793ZM375.19 119.015C374.118 119.282 373.466 120.367 373.733 121.439C374.001 122.511 375.086 123.163 376.158 122.896L375.19 119.015ZM390.363 118.697C391.408 118.341 391.967 117.205 391.612 116.16C391.256 115.114 390.12 114.555 389.074 114.911L390.363 118.697ZM402.669 109.725C401.651 110.154 401.174 111.327 401.602 112.344C402.031 113.362 403.204 113.84 404.222 113.411L402.669 109.725ZM417.603 107.289C418.593 106.801 419.001 105.602 418.513 104.611C418.024 103.62 416.825 103.213 415.835 103.701L417.603 107.289ZM428.7 96.9444C427.735 97.4816 427.388 98.6995 427.925 99.6646C428.462 100.63 429.68 100.977 430.645 100.439L428.7 96.9444ZM443.824 92.8359C444.781 92.2835 445.108 91.0603 444.556 90.1038C444.004 89.1473 442.78 88.8197 441.824 89.3721L443.824 92.8359ZM455.257 81.7479C454.292 82.2853 453.946 83.5033 454.483 84.4683C455.021 85.4333 456.238 85.7799 457.203 85.2425L455.257 81.7479ZM470.686 77.8977C471.662 77.379 472.032 76.168 471.513 75.1928C470.995 74.2175 469.784 73.8474 468.808 74.366L470.686 77.8977ZM482.591 67.2421C481.603 67.7369 481.204 68.9386 481.698 69.9261C482.193 70.9137 483.395 71.3131 484.382 70.8184L482.591 67.2421ZM498.227 64.1333C499.229 63.6688 499.665 62.4798 499.2 61.4777C498.736 60.4755 497.547 60.0397 496.545 60.5043L498.227 64.1333ZM510.688 54.2615C509.669 54.6874 509.188 55.8588 509.614 56.878C510.039 57.8971 511.211 58.3782 512.23 57.9523L510.688 54.2615ZM526.55 52.3618C527.589 51.9866 528.127 50.8402 527.752 49.8013C527.376 48.7624 526.23 48.2244 525.191 48.5996L526.55 52.3618ZM539.943 43.7714C538.882 44.0801 538.273 45.1902 538.582 46.2507C538.89 47.3112 540 47.9207 541.061 47.6119L539.943 43.7714ZM555.875 43.9273C556.958 43.7074 557.657 42.6516 557.437 41.5692C557.217 40.4867 556.161 39.7875 555.079 40.0074L555.875 43.9273ZM570.554 37.6932C569.454 37.7942 568.644 38.7678 568.745 39.8677C568.846 40.9676 569.82 41.7774 570.92 41.6764L570.554 37.6932ZM586.043 41.314C587.146 41.3688 588.085 40.5188 588.14 39.4156C588.194 38.3124 587.344 37.3737 586.241 37.3189L586.043 41.314ZM601.846 39.4317C600.769 39.1856 599.697 39.859 599.451 40.9358C599.205 42.0126 599.878 43.0851 600.955 43.3311L601.846 39.4317ZM615.178 48.0856C616.186 48.5386 617.37 48.0891 617.823 47.0817C618.276 46.0743 617.826 44.8904 616.819 44.4374L615.178 48.0856ZM630.507 52.3103C629.607 51.6695 628.358 51.8794 627.717 52.7791C627.076 53.6788 627.286 54.9276 628.186 55.5684L630.507 52.3103ZM639.629 65.3524C640.406 66.1374 641.672 66.1438 642.457 65.3667C643.242 64.5896 643.249 63.3233 642.472 62.5383L639.629 65.3524ZM652.667 74.4338C652.005 73.5493 650.752 73.3686 649.867 74.0303C648.983 74.6919 648.802 75.9453 649.463 76.8298L652.667 74.4338ZM657.877 89.5036C658.44 90.4541 659.667 90.7684 660.617 90.2056C661.568 89.6429 661.882 88.4162 661.319 87.4657L657.877 89.5036ZM668.669 101.206C668.187 100.212 666.991 99.7969 665.997 100.279C665.003 100.76 664.588 101.956 665.069 102.95L668.669 101.206ZM671.276 116.955C671.692 117.979 672.858 118.471 673.881 118.056C674.905 117.64 675.398 116.474 674.982 115.45L671.276 116.955ZM680.418 129.944C680.056 128.9 678.916 128.347 677.873 128.709C676.829 129.071 676.277 130.211 676.638 131.254L680.418 129.944ZM2 95.0092L3.58745 96.2257C5.12168 94.2237 6.74472 92.1627 8.45069 90.0551L6.89613 88.7968L5.34156 87.5385C3.61392 89.6729 1.96893 91.7617 0.412551 93.7926L2 95.0092ZM17.1902 76.6838L18.684 78.0137C22.0775 74.2021 25.6789 70.3236 29.4588 66.4401L28.0256 65.0452L26.5924 63.6502C22.7701 67.5773 19.1283 71.4992 15.6964 75.3539L17.1902 76.6838ZM39.3566 53.9193L40.7244 55.3785C44.5301 51.811 48.4646 48.291 52.5043 44.868L51.2114 43.3421L49.9185 41.8162C45.8244 45.2853 41.84 48.85 37.9888 52.4602L39.3566 53.9193ZM63.6166 33.4134L64.8198 35.0111C69.0444 31.8294 73.3488 28.7952 77.7092 25.957L76.6182 24.2808L75.5272 22.6046C71.0835 25.497 66.7043 28.5843 62.4134 31.8158L63.6166 33.4134ZM90.2733 16.1648L91.2185 17.9273C95.9174 15.4073 100.648 13.1638 105.381 11.2524L104.633 9.39785L103.884 7.54331C99.0011 9.51477 94.1398 11.8217 89.328 14.4023L90.2733 16.1648ZM119.724 4.46998L120.201 6.41233C125.354 5.14755 130.469 4.35148 135.514 4.09262L135.411 2.09525L135.309 0.0978788C129.984 0.371128 124.617 1.20966 119.247 2.52764L119.724 4.46998ZM151.219 3.1134L150.847 5.0785C155.8 6.01622 160.656 7.58585 165.381 9.86716L166.251 8.0661L167.12 6.26503C162.072 3.82752 156.881 2.14968 151.591 1.14831L151.219 3.1134ZM179.571 16.6825L178.295 18.2229C180.224 19.8201 182.125 21.567 183.995 23.471L185.422 22.0697L186.849 20.6684C184.886 18.6699 182.885 16.8297 180.846 15.142L179.571 16.6825ZM185.422 22.0697L183.995 23.471C185.71 25.2174 187.416 26.9642 189.113 28.7095L190.547 27.315L191.98 25.9205C190.279 24.1716 188.569 22.4202 186.849 20.6684L185.422 22.0697ZM200.738 37.8485L199.298 39.2371C202.714 42.7778 206.108 46.2967 209.486 49.7732L210.92 48.3794L212.355 46.9855C208.982 43.5153 205.594 40.0021 202.177 36.4599L200.738 37.8485ZM221.195 58.8398L219.778 60.251C223.266 63.7545 226.752 67.1958 230.247 70.5548L231.633 69.1129L233.019 67.6711C229.55 64.3366 226.085 60.9163 222.612 57.4286L221.195 58.8398ZM242.356 79.1059L241.018 80.5927C244.716 83.9199 248.437 87.1357 252.195 90.2167L253.463 88.6701L254.731 87.1236C251.027 84.0866 247.352 80.9114 243.693 77.6192L242.356 79.1059ZM265.054 97.6237L263.882 99.2445C267.923 102.166 272.02 104.913 276.189 107.46L277.232 105.753L278.274 104.047C274.202 101.559 270.191 98.87 266.226 96.003L265.054 97.6237ZM290.074 112.804L289.199 114.603C293.669 116.778 298.231 118.709 302.904 120.367L303.573 118.482L304.242 116.597C299.719 114.992 295.293 113.12 290.949 111.006L290.074 112.804ZM317.64 122.523L317.209 124.476C321.993 125.532 326.893 126.298 331.925 126.749L332.104 124.757L332.282 122.765C327.422 122.33 322.69 121.589 318.071 120.57L317.64 122.523ZM346.753 125.15L346.822 127.149C351.631 126.984 356.557 126.539 361.612 125.793L361.321 123.815L361.029 121.836C356.117 122.56 351.34 122.992 346.685 123.151L346.753 125.15ZM375.674 120.955L376.158 122.896C380.785 121.742 385.517 120.346 390.363 118.697L389.718 116.804L389.074 114.911C384.329 116.525 379.704 117.889 375.19 119.015L375.674 120.955ZM403.446 111.568L404.222 113.411C408.591 111.57 413.05 109.532 417.603 107.289L416.719 105.495L415.835 103.701C411.349 105.911 406.962 107.916 402.669 109.725L403.446 111.568ZM429.672 98.6919L430.645 100.439C432.785 99.2482 434.945 98.0134 437.126 96.7344L436.115 95.0092L435.103 93.2839C432.947 94.5482 430.813 95.7681 428.7 96.9444L429.672 98.6919ZM436.115 95.0092L437.126 96.7344C439.374 95.4161 441.607 94.1164 443.824 92.8359L442.824 91.104L441.824 89.3721C439.599 90.6572 437.358 91.9614 435.103 93.2839L436.115 95.0092ZM456.23 83.4952L457.203 85.2425C461.766 82.7015 466.26 80.2515 470.686 77.8977L469.747 76.1318L468.808 74.366C464.357 76.7331 459.84 79.1955 455.257 81.7479L456.23 83.4952ZM483.487 69.0302L484.382 70.8184C489.078 68.4657 493.693 66.2351 498.227 64.1333L497.386 62.3188L496.545 60.5043C491.97 62.6246 487.319 64.873 482.591 67.2421L483.487 69.0302ZM511.459 56.1069L512.23 57.9523C517.103 55.9163 521.876 54.0499 526.55 52.3618L525.871 50.4807L525.191 48.5996C520.45 50.3121 515.616 52.2027 510.688 54.2615L511.459 56.1069ZM540.502 45.6916L541.061 47.6119C546.126 46.1372 551.063 44.905 555.875 43.9273L555.477 41.9674L555.079 40.0074C550.148 41.0092 545.103 42.269 539.943 43.7714L540.502 45.6916ZM570.737 39.6848L570.92 41.6764C576.124 41.1984 581.164 41.0719 586.043 41.314L586.142 39.3165L586.241 37.3189C581.157 37.0666 575.928 37.1996 570.554 37.6932L570.737 39.6848ZM601.4 41.3814L600.955 43.3311C605.87 44.4544 610.609 46.0309 615.178 48.0856L615.999 46.2615L616.819 44.4374C612.002 42.2714 607.011 40.6121 601.846 39.4317L601.4 41.3814ZM629.346 53.9393L628.186 55.5684C632.133 58.3799 635.947 61.6329 639.629 65.3524L641.05 63.9453L642.472 62.5383C638.638 58.6656 634.651 55.262 630.507 52.3103L629.346 53.9393ZM651.065 75.6318L649.463 76.8298C652.36 80.7026 655.165 84.9224 657.877 89.5036L659.598 88.4846L661.319 87.4657C658.54 82.7713 655.656 78.4308 652.667 74.4338L651.065 75.6318ZM666.869 102.078L665.069 102.95C667.203 107.354 669.272 112.02 671.276 116.955L673.129 116.203L674.982 115.45C672.948 110.44 670.844 105.694 668.669 101.206L666.869 102.078Z" fill="#F7941D"/>
</svg>
