<svg width="125" height="125" viewBox="0 0 125 125" fill="none" xmlns="http://www.w3.org/2000/svg">
<path d="M85.8638 39.569L77.8659 51.3398L94.84 80.1549L90.5233 86.5075L69.2311 64.0475L57.9008 80.7219L54.4619 84.0044L57.4493 98.9306L54.5227 103.237L46.2785 91.8148L43.6717 94.3031L40.3116 92.0199L41.6616 88.6531L27.9484 85.1802L30.875 80.8733L45.8728 78.1505L47.6376 73.7481L58.9679 57.0737L30.2453 45.549L34.5619 39.1965L67.6027 44.3659L75.601 32.5953C77.5266 29.7612 83.9385 25.2676 86.7724 27.1936C89.606 29.1195 87.7894 36.7349 85.8638 39.569Z" fill="white"/>
<path fill-rule="evenodd" clip-rule="evenodd" d="M31.7822 9.16542C2.22831 26.2284 -7.89752 64.0184 9.16543 93.5723C26.2284 123.126 64.0185 133.252 93.5723 116.189C123.126 99.1262 133.252 61.3361 116.189 31.7822C99.1266 2.2284 61.3361 -7.89753 31.7822 9.16542ZM77.8659 51.3398L85.8638 39.569C87.7894 36.7349 89.606 29.1195 86.7724 27.1936C83.9385 25.2676 77.5266 29.7612 75.601 32.5953L67.6027 44.3659L34.5619 39.1965L30.2453 45.549L58.9679 57.0737L47.6376 73.7481L45.8728 78.1505L30.875 80.8733L27.9484 85.1802L41.6616 88.6531L40.3116 92.0199L43.6717 94.3031L46.2785 91.8148L54.5227 103.237L57.4493 98.9306L54.4619 84.0044L57.9008 80.7219L69.2311 64.0475L90.5233 86.5075L94.84 80.1549L77.8659 51.3398Z" fill="#F7941D"/>
</svg>
