<svg width="430" height="300" viewBox="0 0 430 300" fill="none" xmlns="http://www.w3.org/2000/svg">
<path opacity="0.1" fill-rule="evenodd" clip-rule="evenodd" d="M0.392972 40.966C1.57746 39.2798 3.22776 38.0921 5.07325 37.3853C7.10286 36.6076 9.26776 36.0292 11.4216 35.7545C15.9399 35.1762 20.4472 34.4273 25.0166 34.2655C29.0026 34.1237 32.9864 33.8489 36.9724 33.8179C40.4926 33.7869 44.0194 33.9376 47.5352 34.1348C51.0665 34.332 54.5933 34.64 58.1113 34.9878C60.285 35.205 62.4455 35.5728 64.6082 35.8985C67.077 36.2708 69.5325 36.9045 72.0102 37.0042C75.588 37.146 79.0039 37.9592 82.4243 38.8411C84.4761 39.3706 97.9469 42.599 102.439 44.3915C104.286 45.1272 106.158 45.8141 108.028 46.4899C110.69 47.4515 113.394 48.3134 116.027 49.3504C120.82 51.236 125.6 53.1593 130.341 55.1734C134.185 56.8064 146.063 62.933 148.348 63.9611C152.511 65.8357 156.677 67.7058 160.853 69.5471C161.295 69.7443 161.823 69.7509 162.426 69.8683C162.905 68.2974 163.342 66.866 163.81 65.3216C162.608 65.1111 161.659 64.9782 160.723 64.7743C157.335 64.0387 154.714 62.1752 153.582 58.8915C152.314 55.2089 151.943 51.3667 152.892 47.487C153.318 45.7387 153.711 43.9727 153.957 42.1913C154.108 41.1011 154.241 40.0752 154.776 39.0626C155.055 38.5353 155.006 37.6645 154.785 37.0684C153.86 34.5957 152.837 32.1539 151.799 29.7254C149.146 23.5013 146.298 17.3637 144.872 10.6787C144.375 8.34776 144.617 6.24057 145.395 4.06912C145.814 2.90585 146.551 2.08602 147.509 1.39248C150.572 -0.832139 153.644 -0.351321 157.138 2.54911C159.826 4.78038 161.987 7.51685 164.256 10.1713C169.034 15.7573 173.628 21.4784 177.86 27.4831C181.422 32.5372 184.789 37.731 188.254 42.856C190.965 46.8599 193.691 50.8505 196.415 54.8433C198.451 57.8257 200.496 60.7992 202.53 63.7817C204.094 66.0728 205.664 68.3594 207.197 70.6682C210.014 74.907 212.663 79.2632 215.646 83.38C218.569 87.4149 220.914 91.7889 223.554 95.9899C225.064 98.3874 226.417 100.885 227.903 103.298C228.584 104.403 229.483 105.307 230.727 105.861C232.302 106.564 233.848 107.339 235.367 108.152C241.277 111.314 247.186 114.474 253.064 117.696C257.58 120.173 262.085 122.679 266.526 125.291C269.806 127.219 272.996 129.304 276.186 131.376C280.562 134.221 284.903 137.119 289.253 140.004C292.691 142.284 296.145 144.548 299.549 146.882C302.686 149.033 305.789 151.236 308.855 153.482C311.039 155.082 313.087 156.877 315.294 158.443C322.394 163.486 329.537 168.472 336.67 173.468C339.846 175.693 343.151 177.701 346.72 179.245C347.328 179.509 347.976 179.695 348.604 179.916C348.71 179.777 348.817 179.639 348.919 179.502C345.396 174.776 341.641 170.202 338.846 164.874C340.408 162.753 341.162 162.523 343.3 163.435C343.715 163.611 344.114 163.823 344.52 164.018C349.063 166.194 353.725 168.064 358.61 169.314C359.887 169.642 360.826 170.229 361.622 171.219C363.07 173.025 364.503 174.856 366.058 176.568C368.66 179.427 371.36 182.196 374.004 185.015C374.682 185.739 375.417 185.948 376.432 185.775C381.233 184.948 385.906 183.701 390.225 181.434C393.135 179.905 395.888 178.086 398.709 176.395C399.594 175.864 400.473 175.325 401.351 174.78C402.387 174.135 403.507 173.586 404.43 172.804C406.023 171.457 407.861 170.595 409.74 169.804C410.337 169.553 411.175 169.498 411.783 169.706C413.604 170.329 415.385 171.084 417.142 171.873C418.198 172.345 419.13 173.098 420.201 173.515C423.071 174.634 425.855 175.919 428.45 177.576C429.045 177.958 430.178 177.955 429.976 179.028C429.828 179.821 429.388 180.57 429.018 181.308C428.88 181.58 428.579 181.773 428.337 181.988C426.993 183.187 425.631 184.361 424.307 185.578C421.787 187.889 419.28 190.215 416.781 192.548C413.904 195.236 411.113 198.017 408.156 200.612C404.476 203.844 400.675 206.942 396.902 210.073C395.812 210.979 394.619 211.763 393.521 212.663C392.117 213.817 391.993 214.544 392.78 216.204C393.222 217.134 393.621 218.096 394.142 218.98C396.136 222.364 398.146 225.743 400.204 229.088C403.378 234.242 406.595 239.372 409.807 244.501C410.658 245.86 411.59 247.171 412.413 248.547C412.648 248.942 412.828 249.538 412.701 249.943C412.433 250.814 410.922 251.53 410.011 251.219C407.881 250.502 405.69 249.879 403.696 248.873C398.11 246.057 392.605 243.083 387.086 240.141C385.077 239.068 383.269 237.741 382.036 235.749C381.288 234.541 380.407 233.418 379.671 232.204C377.63 228.851 375.539 225.552 373.103 222.452C371.892 220.908 370.37 219.951 368.804 218.956C368.48 218.75 368.094 218.643 367.771 218.44C362.809 215.255 357.532 212.67 352.013 210.638C345.292 208.161 338.673 205.449 332.132 202.541C320.93 197.563 309.584 192.949 298.163 188.498C289.031 184.939 280.034 181.031 270.973 177.284C269.651 176.739 268.316 176.232 266.583 175.549C267.451 177.592 268.245 179.143 268.775 180.776C270.441 185.91 273.258 190.474 275.782 195.183C278.617 200.461 281.587 205.666 284.329 210.995C287.421 217.004 290.275 223.135 293.323 229.168C295.752 233.974 298.329 238.705 300.814 243.482C302.147 246.041 303.378 248.656 304.738 251.197C306.954 255.339 309.28 259.42 311.481 263.568C313.284 266.971 315.003 270.423 316.7 273.882C319.706 280.009 322.718 286.135 325.61 292.315C326.254 293.687 326.509 295.264 326.77 296.78C326.988 298.036 326.56 298.823 325.582 299.16C323.683 299.818 321.713 300.374 319.712 299.68C316.853 298.69 314.005 297.66 311.208 296.505C309.376 295.752 307.648 294.746 305.867 293.866C303.566 292.727 301.251 291.615 298.959 290.461C298.505 290.23 298.081 289.9 297.713 289.543C295.228 287.124 292.613 284.817 290.333 282.218C287.507 278.994 284.832 275.615 282.323 272.134C279.233 267.847 276.381 263.391 273.431 259.003C271.922 256.761 270.454 254.494 268.915 252.274C266.785 249.205 264.569 246.194 262.462 243.108C261.593 241.833 260.909 240.433 260.146 239.088C259.701 238.302 259.144 237.872 258.128 237.936C257.489 237.976 256.797 237.619 256.174 237.344C255.471 237.034 254.834 236.571 254.131 236.256C252.19 235.386 250.238 234.541 248.277 233.717C246.259 232.871 244.207 232.102 242.204 231.224C239.198 229.904 236.213 228.535 233.236 227.145C232.542 226.822 231.974 226.23 231.268 225.944C226.91 224.169 224.441 220.733 223.134 216.439C221.524 211.141 221.795 205.874 224.046 200.76C224.363 200.04 224.621 199.293 224.902 198.564C224.647 198.478 224.583 198.433 224.527 198.44C224.206 198.476 223.891 198.526 223.571 198.564C219.381 199.034 215.644 197.955 212.962 194.673C210.555 191.733 209.156 188.155 208.992 184.35C208.814 180.229 209.224 176.076 210.453 172.115C211.305 169.376 211.443 166.269 213.934 164.18C213.845 163.936 213.783 163.688 213.67 163.466C212.221 160.59 210.777 157.71 209.304 154.845C208.708 153.688 207.945 152.676 206.733 152.055C201.168 149.193 195.623 146.29 190.051 143.445C187.132 141.954 184.139 140.6 181.225 139.095C176.875 136.846 117.249 110.135 110.424 107.259C108.944 106.637 72.5115 89.6817 67.6515 87.446C63.3261 85.4562 59.0162 83.431 54.7064 81.4036C52.1977 80.2226 49.6513 79.1081 47.2202 77.7786C44.0637 76.0525 41.0138 74.1293 37.9062 72.3145C34.2818 70.2007 30.5974 68.1888 27.0262 65.9908C23.6258 63.9013 20.3407 61.6146 16.9958 59.4343C13.3758 57.0768 9.74467 54.7369 6.84778 51.4576C6.20673 50.733 5.42815 50.1259 4.80485 49.3903C3.11685 47.4005 0.931974 45.8096 0.157843 43.0842C-0.0883713 42.2134 -0.072838 41.6307 0.392972 40.966ZM156.892 58.4793C158.198 61.4263 160.969 62.2328 163.848 62.707C164.203 62.7646 164.496 62.6649 164.751 62.4478C165.146 62.4876 165.54 62.5098 165.935 62.5209C166.74 62.5408 166.738 61.2934 165.935 61.2734C162.309 61.1781 158.42 59.8487 157.46 55.9489C157.187 54.8433 157.171 53.7443 157.176 52.6098C157.18 51.2693 157.189 49.9221 157.273 48.5838C157.335 47.6132 157.451 46.6671 157.615 45.7099C157.684 45.3089 157.752 44.91 157.839 44.5134C157.866 44.3849 157.89 44.2608 157.923 44.1345C157.937 44.088 157.948 44.0569 157.957 44.0326C158.127 43.811 158.158 43.503 157.888 43.2615C157.883 43.2571 157.879 43.2526 157.872 43.2482C157.73 43.1241 157.524 43.0421 157.333 43.0687C157.253 42.8915 157.14 42.7053 156.981 42.5059C156.464 43.2881 156.395 44.0592 156.481 44.9854C156.479 44.9942 156.479 45.0053 156.477 45.0142C156.304 45.9913 156.142 46.9729 156.069 47.9656C156.058 48.1184 156.051 48.2758 156.04 48.4286C156.007 48.3799 155.976 48.3245 155.94 48.2713C155.579 51.7545 155.448 55.2222 156.892 58.4793ZM167.943 67.0144C167.903 66.928 167.867 66.846 167.829 66.7618L167.836 66.7641C168.176 66.7641 168.459 66.4804 168.459 66.1414V66.0462C168.528 65.9487 168.573 65.829 168.573 65.6939C168.573 65.3726 168.289 65.0468 167.949 65.0712C167.929 65.0734 167.912 65.0779 167.894 65.0823C167.721 65.0624 167.539 65.1133 167.397 65.2551C167.344 65.3083 167.288 65.3615 167.237 65.4147C167.193 65.3194 167.153 65.2219 167.106 65.1222C165.986 66.8571 165.558 68.5189 165.434 70.2605C165.339 71.6299 165.574 71.847 167.412 72.2525C167.262 71.2554 167.215 70.4821 167.015 69.7531C166.72 68.6674 166.669 67.7035 167.943 67.0144ZM217.425 95.035C215.324 91.5717 213.033 88.2126 211.081 84.6696C208.641 80.2492 205.795 76.1301 202.785 72.093C200.048 68.4259 197.517 64.6081 194.864 60.879C193.631 59.1485 192.311 57.4822 191.051 55.7672C190.406 54.8898 189.767 54.0013 189.201 53.0729C183.319 43.4299 176.937 34.1237 170.356 24.9527C167.876 21.4961 165.425 18.0107 162.85 14.625C160.388 11.3833 157.637 8.38542 154.474 5.80185C153.117 4.69618 151.688 3.72346 149.776 3.81874C148.933 3.86084 148.368 4.12673 148.254 4.95321C148.117 5.95917 147.931 7.00944 148.072 7.99545C148.292 9.51989 148.667 11.0399 149.159 12.5001C150.084 15.2476 151.116 17.9619 152.149 20.6718C153.937 25.3692 155.703 30.0777 157.588 34.7375C158.58 37.1837 159.806 39.5324 160.924 41.9254C163.653 47.7661 166.521 53.5382 168.81 59.5783C170.866 65.0047 173.242 70.296 176.07 75.3723C176.815 76.7106 177.609 77.9337 179.12 78.707C184.967 81.7027 190.719 84.889 196.552 87.9113C203.823 91.6781 211.143 95.3518 218.441 99.0632C218.769 99.2316 219.104 99.3867 219.435 99.5485C219.539 99.4421 219.643 99.3357 219.747 99.2316C218.975 97.829 218.252 96.3999 217.425 95.035ZM368.929 184.806C365.706 181.126 362.487 177.441 359.217 173.801C358.723 173.251 358.026 172.784 357.332 172.533C353.943 171.306 350.522 170.167 347.109 169.006C347.004 168.968 346.867 169.032 346.386 169.095C346.681 169.755 346.829 170.322 347.149 170.767C349.24 173.692 351.332 176.624 353.506 179.486C354.475 180.763 355.542 182.004 356.753 183.041C357.496 183.679 358.556 184.08 359.537 184.284C362.627 184.928 365.743 185.431 368.851 185.974C369.008 186.003 369.192 185.888 369.525 185.797C369.299 185.416 369.161 185.07 368.929 184.806ZM256.242 233.498C254.568 229.458 251.68 226.279 249.586 222.598C247.474 218.889 245.185 215.28 242.785 211.316C242.246 216.698 242.031 221.92 237.331 225.472C243.721 228.182 249.981 230.841 256.242 233.498ZM227.143 217.496C228.11 219.891 229.751 221.943 232.244 223.07C232.562 223.214 232.936 223.226 233.608 223.367C233.172 222.734 232.967 222.353 232.684 222.042C231.222 220.458 230.632 218.479 230.201 216.456C228.82 209.964 229.725 203.654 231.912 197.485C232.566 195.642 232.73 194.017 230.874 192.524C230.57 193.151 230.303 193.701 230.044 194.254C229.081 196.293 228.052 198.3 227.176 200.377C224.774 206.067 224.865 211.832 227.143 217.496ZM213.67 171.098C212.722 174.911 211.904 178.762 212.183 182.715C212.439 186.307 213.552 189.659 215.775 192.533C217.689 195.008 220.355 195.965 223.438 195.848C224.394 195.81 225.011 195.369 225.104 194.219C224.882 194.159 224.652 194.013 224.452 194.051C221.766 194.545 219.667 193.164 217.729 191.704C216.766 190.982 216.019 189.741 215.606 188.582C214.965 186.779 214.57 184.857 214.308 182.954C214.147 181.775 214.244 180.495 214.535 179.334C215.269 176.413 216.178 173.535 217.01 170.637C217.079 170.4 217.201 170.096 217.117 169.903C216.606 168.769 216.371 167.453 215.027 166.593C214.546 168.171 214.038 169.617 213.67 171.098ZM206.152 141.448C209.082 146.904 211.997 152.37 214.996 157.787C216.183 159.928 217.578 161.951 218.871 164.032C220.708 166.987 222.5 169.974 224.383 172.901C227.595 177.882 230.854 182.834 234.112 187.789C238.12 193.878 242.015 200.029 245.613 206.372C247.964 210.518 250.622 214.489 253.028 218.603C255.952 223.607 258.736 228.692 261.624 233.717C263.199 236.456 264.878 239.135 266.479 241.86C267.522 243.633 268.431 245.485 269.545 247.209C271.115 249.642 272.799 252.004 274.476 254.368C276.598 257.362 278.779 260.315 280.904 263.309C281.831 264.616 282.614 266.027 283.572 267.308C286.039 270.61 288.527 273.898 291.085 277.128C292.241 278.586 293.525 279.958 294.849 281.267C296.586 282.98 298.407 284.613 300.224 286.248C301.71 287.589 303.382 288.624 305.203 289.495C307.564 290.622 309.797 292.007 312.126 293.201C312.79 293.543 313.595 293.769 314.331 293.76C315.338 293.749 316.141 294.143 316.716 294.803C317.933 296.206 319.468 296.53 321.338 296.574C321.502 294.447 320.711 292.803 319.95 291.179C317.623 286.215 315.229 281.281 312.878 276.331C310.618 271.571 308.462 266.761 306.104 262.048C303.895 257.63 301.408 253.351 299.183 248.939C296.344 243.309 293.682 237.59 290.865 231.947C289.863 229.937 288.605 228.054 287.512 226.086C285.608 222.654 283.807 219.164 281.844 215.765C279.176 211.139 276.392 206.579 273.664 201.983C272.184 199.49 270.669 197.015 269.256 194.487C266.765 190.045 264.274 185.602 261.91 181.093C260.506 178.412 259.505 175.514 258.019 172.886C257.116 171.288 256.586 169.664 256.016 167.953C255.193 165.474 253.7 163.218 252.547 160.841C251.695 159.082 250.491 157.881 248.581 157.156C246.673 156.434 244.999 155.111 243.118 154.289C240.405 153.101 237.599 152.137 234.84 151.06C230.632 149.421 226.433 147.757 222.225 146.119C218.556 144.688 214.876 143.29 211.21 141.861C209.422 141.167 207.647 140.44 205.434 139.558C205.775 140.46 205.904 140.985 206.152 141.448ZM6.5461 44.5843C7.20711 45.1959 7.93464 45.7365 8.6511 46.2816C10.4389 47.6398 12.2622 48.925 13.9924 50.3874C18.8169 54.4555 23.7655 58.4217 28.9782 61.9714C32.6913 64.4996 36.8925 66.312 40.9029 68.3926C46.2886 71.1845 51.6875 73.9476 57.1064 76.6796C59.7571 78.0179 62.4677 79.2366 65.1339 80.5505C70.5173 83.2006 75.8631 85.9326 81.2709 88.5295C85.1682 90.3996 89.1519 92.0836 93.0803 93.885C97.6519 95.9833 102.186 98.1636 106.775 100.222C109.719 101.543 112.76 102.651 115.705 103.964C123.311 107.355 130.891 110.802 138.477 114.241C145.59 117.463 152.673 120.756 159.815 123.92C170.91 128.836 182.037 133.682 193.165 138.53C196.06 139.791 199.003 140.937 201.942 142.144C202.104 140.835 199.145 133.015 199.389 132.656C200.141 131.535 200.545 131.373 201.8 131.872C204.5 132.942 211.571 135.654 212.376 136.009C213.936 136.693 215.48 137.427 216.999 138.202C222.134 140.824 256.191 156.186 256.575 156.946C257.828 159.418 259.122 161.873 260.362 164.355C261.162 165.966 262.238 167.169 263.986 167.885C269.059 169.963 274.094 172.141 279.109 174.35C283.419 176.247 287.66 178.299 291.981 180.18C296.18 182.006 300.485 183.603 304.664 185.48C310.434 188.068 316.137 190.798 321.846 193.514C325.224 195.121 328.68 196.526 332.161 197.904C337.127 199.874 341.918 202.284 346.783 204.513C350.886 206.397 354.987 208.278 359.08 210.186C360.422 210.813 361.726 211.524 363.053 212.193C363.958 212.65 364.865 213.097 365.774 213.549C365.879 213.45 365.985 213.352 366.089 213.252C365.537 212.441 365.029 211.591 364.421 210.822C362.698 208.653 360.934 206.514 359.184 204.365C358.375 203.37 358.399 202.497 359.266 201.648C360.127 200.804 360.846 200.806 361.673 201.761C363.403 203.756 365.16 205.732 366.779 207.815C367.919 209.282 368.749 210.99 369.882 212.461C375.084 219.2 380.325 225.909 385.598 232.592C386.833 234.156 388.178 235.647 389.595 237.05C392.412 239.833 395.932 241.406 399.632 242.649C401.065 243.13 402.454 243.744 404.297 244.468C403.665 243.504 403.281 242.937 402.917 242.363C399.217 236.536 395.511 230.713 391.831 224.874C390.418 222.636 389.193 220.272 387.645 218.136C386.443 216.479 384.795 215.154 383.491 213.563C382.231 212.027 380.727 210.908 378.948 210.062C375.102 208.236 371.286 206.341 367.447 204.502C366.717 204.152 365.954 203.9 366.278 202.849C366.566 201.914 367.513 201.407 368.585 201.66C369.206 201.806 369.822 202.021 370.412 202.262C373.695 203.612 377.014 204.892 380.239 206.37C382.752 207.525 385.283 207.234 387.792 206.751C390.542 206.222 392.973 204.795 395.342 203.35C400.098 200.452 404.432 197.002 408.658 193.375C411.712 190.754 414.378 187.813 417.044 184.842C418.422 183.309 419.913 181.873 421.337 180.379C421.594 180.109 421.778 179.766 422.097 179.314C421.547 179.077 421.106 178.886 420.664 178.695C418.411 177.727 416.162 176.765 413.91 175.795C413.023 175.412 412.167 174.931 411.248 174.645C409.498 174.098 407.81 173.865 406.08 175.028C403.512 176.752 400.748 178.184 398.153 179.872C390.489 184.862 382.177 188.017 373.032 188.784C368.161 189.196 363.445 188.352 358.716 187.095C355.917 186.353 353.28 185.234 350.542 184.37C347.847 183.517 345.376 181.959 342.677 181.128C339.292 180.087 336.708 177.829 333.904 175.93C327.707 171.731 321.658 167.313 315.542 162.999C313.127 161.295 310.718 159.578 308.249 157.956C305.583 156.201 302.801 154.619 300.153 152.835C296.2 150.176 292.343 147.371 288.401 144.692C284.832 142.268 281.228 139.902 277.599 137.569C272.934 134.569 268.305 131.509 263.527 128.695C256.91 124.795 250.182 121.077 243.473 117.339C240.713 115.803 237.98 114.108 235.035 113.045C231.169 111.649 227.932 109.191 224.314 107.399C220.672 105.595 217.159 103.543 213.552 101.667C204.62 97.0203 195.685 92.376 186.71 87.8094C182.283 85.5537 177.767 83.4775 173.288 81.3194C173.231 81.2884 173.164 81.2706 173.115 81.233C170.5 79.1679 167.273 78.3082 164.369 76.8148C161.111 75.1419 157.761 73.6418 154.45 72.0752C149.61 69.7908 144.785 67.4842 139.925 65.2441C135.882 63.3806 131.791 61.6191 127.734 59.7822C125.219 58.6411 122.757 57.3914 120.226 56.2902C117.322 55.0272 114.386 53.8329 111.433 52.6829C108.938 51.7124 106.407 50.8239 103.88 49.9464C103.361 49.767 80.7896 44.1744 77.7884 43.78C73.829 43.2593 69.8364 42.969 65.8548 42.5968C63.315 42.3575 60.7708 42.1425 58.2266 41.9232C57.9804 41.901 57.7275 41.921 57.082 41.921C57.59 42.63 57.8628 43.1928 58.2909 43.5872C60.9039 45.9802 63.5435 48.3467 66.1942 50.702C68.2593 52.5367 70.3155 54.3824 72.4427 56.1439C74.0286 57.4557 75.6878 58.6876 77.3714 59.8731C82.9145 63.7684 88.7372 67.2139 94.6552 70.4998C95.2718 70.8433 95.9217 71.1491 96.5872 71.3773C100.933 72.8751 104.927 75.1175 109.007 77.1759C109.754 77.5548 109.739 77.5858 109.974 79.4559C110.588 79.713 111.28 80.0054 112.008 80.3112C112.36 79.8659 112.62 79.5069 112.913 79.1745C114.217 77.69 116.049 77.7609 117.052 79.4825C117.544 80.3267 117.64 81.4014 118.041 82.8283C118.458 83.0654 119.281 83.5352 120.128 84.0204C121.102 83.2604 121.504 81.7515 122.965 81.8512C123.841 81.9088 124.762 82.1016 125.543 82.4805C126.863 83.1186 126.998 83.9894 126.386 86.5552C126.874 86.8101 127.408 87.0915 128.027 87.4172C129.258 85.8351 130.531 84.53 132.625 85.5692C134.336 86.4179 134.826 87.6964 134.582 90.5436C136.114 91.7157 136.261 91.7313 137.25 90.2777C137.976 89.2075 138.949 88.6137 140.194 88.8419C141.516 89.0812 142.68 89.808 143.068 91.1596C143.379 92.2409 143.357 93.4174 143.512 94.8178C143.76 94.9419 144.255 95.1856 144.832 95.4692C145.95 93.9958 147.09 92.8015 149.053 93.9448C150.497 94.789 150.816 95.6022 150.421 98.2168C151.087 98.5071 151.775 98.8106 152.593 99.1674C153.873 97.8623 155.408 96.956 157.349 97.86C159.401 98.8173 158.589 100.71 158.649 102.36C159.76 102.775 160.689 102.976 161.539 101.806C162.215 100.876 163.242 100.386 164.438 100.823C165.724 101.288 166.377 102.312 166.485 103.628C166.541 104.319 166.388 105.028 166.312 105.928C166.975 106.244 167.703 106.59 168.351 106.898C168.539 106.812 168.617 106.803 168.65 106.759C169.398 105.722 170.258 104.853 171.685 105.23C173.251 105.642 174.267 106.643 174.608 108.259C174.648 108.447 174.639 108.646 174.675 108.835C174.93 110.16 175.648 110.479 176.596 109.524C177.705 108.405 178.856 108.478 180.147 108.968C181.617 109.524 182.141 110.317 182.061 111.915C182.041 112.3 181.992 112.686 181.948 113.138C182.769 113.833 183.45 113.971 184.439 113.186C186.398 111.642 189.636 112.544 190.446 114.819C190.685 115.497 190.483 116.333 190.483 117.297C190.718 117.412 191.155 117.625 191.348 117.718C192.533 116.84 193.487 116.003 194.576 115.402C194.948 115.198 195.709 115.491 196.197 115.739C198.16 116.738 198.451 117.742 197.726 120.645C198.163 121.239 198.673 121.449 199.369 121.01C199.97 120.636 200.58 120.255 201.226 119.969C203.573 118.932 205.633 120.401 205.405 122.929C205.363 123.377 205.258 123.815 205.165 124.361C205.573 124.613 205.99 124.875 206.412 125.138C206.631 125.014 206.813 124.945 206.953 124.828C207.253 124.582 207.512 124.285 207.82 124.055C208.956 123.206 210.597 122.993 211.456 123.561C212.534 124.27 213.06 125.856 212.702 127.312C212.656 127.498 212.632 127.686 212.565 128.03C213.051 128.238 213.545 128.449 213.993 128.639C216.165 126.66 217.902 126.233 219.596 127.226C221.557 128.378 220.745 130.108 220.415 131.766C220.879 132.056 221.3 132.322 221.721 132.585C221.932 132.459 222.096 132.366 222.256 132.262C222.737 131.941 223.179 131.524 223.702 131.309C224.853 130.833 226.189 130.452 227.216 131.236C228.212 131.994 228.387 133.332 228.283 134.6C228.245 135.038 228.119 135.468 227.981 136.162C228.54 136.069 228.961 136.082 229.31 135.925C229.953 135.63 230.554 135.242 231.169 134.885C232.482 134.119 233.879 134.159 235.01 135.018C236.044 135.803 236.574 137.044 236.437 138.439C236.392 138.885 236.335 139.33 236.259 139.991C236.936 140.356 237.646 140.737 238.209 141.043C239.05 140.285 239.717 139.594 240.474 139.022C242.352 137.609 244.302 138.482 245.039 140.717C245.482 142.062 245.138 143.212 244.828 144.568C245.593 144.85 246.283 145.102 246.951 145.35C248.512 143.485 251.01 142.778 252.609 143.697C254.235 144.635 254.503 145.873 253.634 148.723C253.865 148.874 254.113 149.06 254.379 149.215C254.65 149.37 254.938 149.496 255.346 149.7C257.034 147.808 258.946 146.937 261.264 148.643C262.635 149.651 262.795 150.471 261.987 153.157C262.775 153.547 263.602 153.954 264.545 154.422C265.37 152.775 266.2 151.224 267.963 150.823C268.688 150.659 269.638 150.934 270.339 151.293C273.105 152.705 273.402 153.925 271.971 157.351C272.796 158.177 273.533 158.084 274.487 157.391C275.29 156.804 276.297 156.358 277.277 156.177C279.619 155.738 281.128 157.355 280.744 159.729C280.673 160.165 280.58 160.599 280.478 161.133C281.188 161.494 281.855 161.831 282.51 162.166C284.528 159.199 285.478 158.683 287.161 159.569C289.058 160.568 289.444 162.122 288.341 164.889C288.996 165.361 289.696 165.866 290.484 166.433C290.901 165.944 291.2 165.543 291.549 165.188C293.219 163.493 296.231 163.892 297.36 165.984C297.555 166.345 297.606 166.85 297.551 167.264C297.478 167.827 297.236 168.37 297.056 168.955C297.677 169.66 298.287 169.921 299.028 169.196C299.259 168.973 299.483 168.738 299.734 168.536C301.288 167.289 303.098 167.368 304.591 168.727C305.186 169.265 305.408 169.888 305.05 170.628C304.831 171.087 304.54 171.507 304.159 172.157C305.166 172.7 306.148 173.229 306.916 173.643C308.273 172.746 309.338 171.753 310.591 171.335C311.19 171.135 312.188 171.962 312.94 172.429C314.498 173.4 314.666 174.138 313.998 176.422C315.411 177.322 315.411 177.322 316.516 176.32C318.069 174.909 320.762 175.221 321.888 177.027C322.152 177.45 322.128 178.117 322.077 178.656C322.039 179.07 321.749 179.455 321.522 179.963C322.363 180.448 323.128 180.889 323.971 181.376C325.32 179.859 326.407 177.771 328.878 179.245C330.934 180.47 331.364 181.829 330.45 184.255C330.952 184.561 331.475 184.88 332.078 185.25C333.782 183.373 335.712 182.589 338.003 183.845C339.314 184.561 339.795 186.302 339.345 188.505C339.8 188.471 340.228 188.531 340.585 188.396C341.306 188.126 341.965 187.696 342.686 187.428C344.722 186.672 346.698 187.844 347.739 188.99C348.761 190.111 348.586 191.274 347.994 192.604C348.271 192.415 348.562 192.245 348.821 192.037C349.806 191.257 350.882 190.718 352.164 190.652C354.389 190.539 356.256 192.557 355.877 194.76C355.797 195.221 355.504 195.743 355.147 196.043C353.204 197.656 350.875 197.72 348.621 196.614C343.413 194.06 338.147 191.62 332.91 189.125C331.861 188.624 330.845 188.057 329.794 187.563C323.723 184.716 317.645 181.873 311.563 179.046C307.648 177.226 303.728 175.412 299.789 173.643C298.083 172.877 296.307 172.27 294.592 171.519C291.819 170.307 289.071 169.041 286.318 167.787C279.801 164.816 273.344 161.696 266.752 158.904C259.78 155.953 253.119 152.408 246.389 148.98C241.678 146.578 236.929 144.249 232.218 141.85C229.172 140.299 226.187 138.626 223.13 137.103C217.642 134.371 212.112 131.721 206.616 129.011C203.664 127.556 200.76 126 197.799 124.562C189.731 120.651 181.655 116.76 173.563 112.896C167.803 110.146 162.009 107.472 156.246 104.724C150.486 101.981 144.774 99.1363 138.994 96.4331C131.747 93.0496 124.467 89.7393 117.18 86.4444C113.25 84.6674 109.246 83.0521 105.324 81.2574C103.002 80.196 100.635 79.2477 98.4083 77.947C96.4785 76.8214 94.3291 76.0459 92.2263 75.2526C84.7268 72.432 77.449 69.1128 70.2534 65.6096C67.8201 64.4264 65.4178 63.1745 62.9779 62.009C61.5982 61.3487 54.4291 58.0739 52.3175 56.8951C50.9733 56.1439 41.0759 49.6739 40.3528 49.3593C39.3502 48.9183 36.2071 45.6191 35.4219 44.6818C34.6766 43.7955 33.9823 42.8494 33.4011 41.8501C32.7424 40.7222 31.9216 40.2968 30.5752 40.3057C25.9903 40.3323 21.401 40.0641 16.8228 40.1705C13.0297 40.2614 9.28551 40.9394 5.62336 42.0583C5.53907 43.113 5.85404 43.9439 6.5461 44.5843Z" fill="#0F0F0F"/>
</svg>
