<svg width="77" height="77" viewBox="0 0 77 77" fill="none" xmlns="http://www.w3.org/2000/svg">
<path d="M35.6581 2.40224C36.5775 -0.316183 40.4223 -0.316195 41.3418 2.40222L49.2718 25.8478C49.5713 26.7335 50.2667 27.4289 51.1524 27.7285L74.5977 35.6585C77.3161 36.578 77.3161 40.4228 74.5976 41.3422L51.1525 49.2715C50.2667 49.5711 49.5713 50.2665 49.2717 51.1522L41.3418 74.5978C40.4223 77.3162 36.5775 77.3162 35.6581 74.5978L27.7282 51.1522C27.4287 50.2665 26.7333 49.5711 25.8475 49.2715L2.40238 41.3422C-0.316061 40.4228 -0.316103 36.578 2.40232 35.6585L25.8476 27.7285C26.7333 27.4289 27.4287 26.7335 27.7282 25.8478L35.6581 2.40224Z" fill="#F6A61C"/>
</svg>
