<svg width="49" height="47" viewBox="0 0 49 47" fill="none" xmlns="http://www.w3.org/2000/svg">
<path d="M23.6061 0.786957C23.9747 0.0503305 25.0259 0.0503305 25.3946 0.786957L30.5264 11.0416C30.7306 11.4496 31.1851 11.6676 31.6311 11.5716L42.961 9.13315C43.7727 8.95844 44.4314 9.79187 44.074 10.5413L39.1614 20.84C38.9615 21.2591 39.0764 21.7607 39.4388 22.051L48.3966 29.2273C49.0474 29.7487 48.8117 30.7908 47.9998 30.9813L36.748 33.6219C36.2994 33.7271 35.9809 34.1252 35.9765 34.5859L35.868 45.9907C35.8602 46.8164 34.9115 47.2773 34.2575 46.7732L25.1109 39.7219C24.7511 39.4446 24.2496 39.4446 23.8898 39.7219L14.7431 46.7732C14.0891 47.2774 13.1404 46.8165 13.1326 45.9908L13.0236 34.5859C13.0192 34.1252 12.7007 33.7271 12.2522 33.6219L1.00026 30.9813C0.188395 30.7908 -0.0473248 29.7487 0.603498 29.2273L9.5613 22.051C9.92367 21.7607 10.0385 21.2591 9.83866 20.8401L4.9266 10.5412C4.56916 9.79182 5.2279 8.95843 6.0396 9.13313L17.3695 11.5716C17.8156 11.6676 18.27 11.4496 18.4742 11.0416L23.6061 0.786957Z" fill="#F58925"/>
</svg>
